<svg version="1.2" baseProfile="tiny" xmlns="http://www.w3.org/2000/svg" xmlns:xlink="http://www.w3.org/1999/xlink" width="225" height="314" viewBox="0 0 225 314" preserveAspectRatio="xMinYMin meet"><defs><style type="text/css">use { fill: #d40000; } .maxi-card { display: none; } .mini-card { display: block; } @media (min-width: 75px) { .maxi-card { display: block; } .mini-card { display: none; } }</style><path id="suit" d="M7 29.227C17.043 19.917 23.64 9.763 29.947 0 35.477 10.743 43.415 20.142 52 29.227 42.816 38.237 35.698 47.87 29.973 58 23.63 47.617 16.95 38.216 7 29.227z"/><path id="numeral" d="M19.876 0H9.636v3.498h3.808s-.045-.664-.012 7.14c.02 5.474.016 8.968-.05 11.267.02 3.062-.485 4.936-1.69 6.06-1.908 1.605-5.64 1.444-7.02-.066-1.022-1.188-1.238-3.454-1.177-6.122H.015s.003 1.29 0 1.97C-.588 36.342 16.28 34.207 16.82 25.42c.112-1.876.056-1.193.01-11.597-.05-11.146-.01-10.32-.01-10.32h3.056V0z"/></defs><rect width="100%" height="100%" fill="#fefefe"/><g class="mini-card"><use xlink:href="#numeral" transform="matrix(3.5 0 0 3.5 78.4 33.95)"/><use xlink:href="#suit" transform="matrix(2 0 0 2 55.5 170)"/></g><g class="maxi-card"><use xlink:href="#numeral" transform="translate(7 12)"/><use xlink:href="#suit" transform="matrix(.4 0 0 .4 6 51)"/><use xlink:href="#numeral" transform="matrix(-1 0 0 -1 218 302)"/><use xlink:href="#suit" transform="matrix(-.4 0 0 -.4 218 263)"/><use xlink:href="#suit" transform="matrix(.8 0 0 .8 38 36)"/><use xlink:href="#suit" transform="matrix(-.8 0 0 -.8 186 278)"/><path fill="#131F67" d="M31.396 288.288l-.51-263.006 163.133.308.204 262.594-162.828.104zm58.48-219.154c-5.833-1.59-5.69 4.205-1.42 4.42 4.787.413 6.836-7.745 4.552-10.96 0 0-1.99 6.146-3.13 6.54zm-37.855 32.762l-7.006 3.126-.028 5.23c2.922-2.323 5.206-5.158 7.035-8.356zm47.824 157.16c-1.38-.697-3.04-2.192-2.786-2.454.127-.13.874.105 1.552.41 5.476 2.307 9.726 2.158 16.255-.212.494-.18 1.232.763.957 1.28-2.892 4.277-12.25 2.757-15.978.975zm-2.887-6.42c-1.257-1.888.41-.456.97.08 4.052 3.767 9.54 5.043 14.253 1.493.22-.244.248-.47.183-.64-.133-.348-.136.023-2.15.722-4.522 1.693-8.334.303-12.05-2.542-1.53-1.18-2.243-1.76-2.243-2.07 0-.282.286-.46.802-.37.318.055 1.21.24 1.86.293 1.13.093 1.045.045 2.204-.49 2.478-1.145 4.76-1.562 7.35-1.098.6.107 1.354.306 1.456.27.58-.192-.275-.956-2.47-2.696-.433-.344-.97-.637-1.147-.935-.276-.46.024-.583.338-.58.9.012 4.957 3.4 6.347 5.412.423.612.715.677.716 1.313-.08.66-.187 1.294.528 2.22.514.663 1.01 1.73 1.014 1.782.006.058-.102.392-.57.082-.215-.04-.32-.27-.71-.212-.342.05-.897.317-1.507.605-5.682 3.656-10.913 1.873-15.173-2.64zm12.446-.255c.114.013-.393-2.087-.964-2.707-1.13-1.22-2.85-1.443-3.89-.193-.585.703-1.227 2.663-1.227 2.663s.91.27 1.165.27c.036-.44.04-1.668.943-2.388.446-.35 1.404-.34 1.778-.05.74.364 1.055 1.837 1.064 2.41.407.126 1.34.012 1.13-.004zm-6.87-3.024c-.8.357-1.842.598-2.08 1.134-.315.708.797.92 1.376 1.16.8.385.817.244 1.076-.373.162-.385.375-.888.58-1.35.598-1.156 0-.996-.952-.57zm8.668 2.01c.462-.46.55-.766.138-1.29-.187-.236-.718-.478-1.295-.672-.742-.25-1.066-.553-.6.452l.664 1.437c.342.69.642.505 1.094.073zm-75.794-49.053c.28 0 3.077-.917 4.072-1.358.986-.377 1.104-.367.712-.912-.147-.205-.266-.782-.194-1.413l.074-.882c-1.724-.35-4.296.604-5.182 1.81-.63.768-.565 2.482.518 2.755zm-.352 4.3c.523.523.668.543 2.24-.04.55-.37 1.7-.83 2.508-.882 1.893-.502 1.894-.304 1.357-1.516-.248-.558-.33-1.02-.25-1.535.09-.61.163-.695-.182-.804-.905-.283-5.117 1.292-5.872 2.518-.53.862-.46 1.6.198 2.26zm98.916 37.21c-.274.41-.752 1.14-.952 1.634-.346.85-.136 1.014.002 2.684.08.97.1 2.472.104 3.28.005 1.546-.017 2.026.456 2.117.417.08.607-.233.808-1.04.1-.4.34-.823.412-1.078.297-1.74.847-4.646 2.1-5.866.175-.145.686-.234 1.61-.246 1.134-.015 1.495-.047 1.847-.31 1.983-1.734.42-3.977-1.35-4.134-2.05-.178-4.873 2.65-5.037 2.96zm7.872-.727c.125 1.995-1.864 3.355-3.886 2.893-.82-.207-1.065-.02-1.615 1.15-1.19 3.21-1.663 6.427-1.98 8.532-.135 1.894-.83 6.823-.327 8.395 5.764 7.122 11.83 14.475 18.474 21.806l39.512.055.237-46.516-11.476-10.854.023-17.206c-12.284 5.788-24.532 11.656-36.792 17.495 2.673 8.568-6.387 10.365-8.373 4.622-1.72 1.576-3.13 10.083-2.495 10.504 0 0 .228.307.608-.37.627-1.114 1.446-1.935 2.323-2.478 2.554-1.58 5.594-.802 5.77 1.97zm-31.448-.868c-1.938-1.54-.9-3.892.71-4.597.855-.372 2.225-.32 3.732.21 1.324.61 2.116.523 3.473.356.9-.1.733 1.786-.208 2.272-.663.343-2.183.18-4.032-.872-3.19-1.816-4.59.537-2.615 2.663 1.095 1.172-.78.233-1.06-.032zm-65.677-28.173c1.705-1.098.998-3.033-.59-3.357-2.14.046-2.685 2.5-1.154 3.35 0 .3-.76.055-1.172-.253-.637-.478-.055-2.345-.648-2.42-.452.01-4.87 1.57-5.347 1.883-1.985 1.127-.122 3.67 1.03 3.38 2.393-.607 5.645-1.144 7.882-2.583zm-9.874-3.634c.04 1.134.357 1.638 1.102 1.647 1.555-.27 3-1.01 4.452-1.48 1.134-.37 1.594-.79.73-1.498-.263-.3-.494-.73-.368-1.548.297-.934.07-.98-.327-1.026-.395-.045-1.297.333-3.61 1.222-1.22.468-1.453.67-1.77 1.34-.14.513-.23.828-.21 1.343zm12.88 14.616c.27-.314.862-2.288.862-2.775-.12-.81-.725-.996-1.26-.47-.65.58-.476 1.46-.86 2.134-.136.235-.277.56-.238.69.21.71 1.082.84 1.497.422zm5.068-10.745c19.802-21.086 32.068-50.267 10.61-90.513-2.407-1.024-3.15 2.888-3.38 3.048l-2.742 2.39c14.525 25.046 12.003 53.858-5.757 74.346l.02 1.3c.042 2.862.866 2.74 2.07 1.4 1.274-1.345.42-.25-.1.304-.448.476-1.163 1.423-1.354 1.67.235 1.715 1.316 4.916.635 6.057zm-1.312-6.335c-.204-.57-.42-1.87-.53-2.872-.07-.652-.097-1.268-.13-1.905-.21-1.268-.73-4.176-1.148-4.817-.452-.69-1.56-1.195-2.795-1.274-1.055-.067-1.143-.05-1.367.295-.387.59-.12 3.57.27 4.66.443 1.28.184 1.978-.175 3.247-.125.46-.17.49.056.523.987-.07 1.315-1.28 1.707-.92.13.132-.21 1.126-.673 2.13-.486 1.06-.63 2.522-.053 4.318.325 1.006.188 1.323-.01 1.93-.13.406-.358 1.648-.365 2.886.46 1.55.23 2.244-.042 2.756-.59 1.315-1.044 3.1-.728 4.1.14.44.503.063.77-.69.415-1.484.9-1.815 2.12-1.815.89 0 .973.312 1.267-.086.667-.903 2.296-4.1 2.327-4.99.628-2.275.66-4.23-.502-7.475zm9.47 14.928c.537-.205 1.364-1.343 1.365-1.735.002-.432-3.32-3.66-4.702-4.552-.625-.403-.923-.117-2.03 1.373-.983 1.323-1.112 1.335-.93 1.59.22.307 3.603 2.507 4.727 3.13.387.216 1.045.392 1.57.193zm6.22-5.747c-.495-.38-4.468-4.785-5.647-5.004-.447-.083-1.885 1.554-1.885 1.925 0 .255 2.48 2.78 4.24 4.315.5.438 1.056.797 1.23.797.56-.287 1.993-1.444 2.064-2.034zm4.222-4.155c0-.26-.438-.797-1.508-1.848-2.725-2.677-4.242-3.9-4.72-3.897-.522.173-1.467 1.76-1.522 2.313.178.332 4.735 4.466 5.326 4.866.73.703 2.322-.935 2.424-1.433zm4.275-4.268c.116-.393-.11-.73-.688-1.28-.41-.393-1.862-1.815-3.23-3.163-2.866-2.825-2.872-2.827-3.793-1.508-.947 1.358-.942 1.37 1.852 4.095 2.98 2.907 3.677 3.496 4.14 3.496.705-.326 1.474-.87 1.72-1.64zm-31.947-2.55c-.5-.15-.958-.06-1.35.252-2.112 1.796.883 4.106 2.115 2.665.82-.81.787-2.55-.765-2.917zm36.334-1.88c0-.3-.615-.975-2.746-3.008-5.27-5.03-5.032-4.84-5.617-4.527-.365.195-1.073 1.548-1.073 2.05 0 .377.507.898 4.413 4.547 2.29 2.138 2.968 2.68 3.362 2.68.625-.31 1.633-.98 1.66-1.74zm-36.2.19c1.035-.45 1.228-1.57.64-2.455-1.124-.99-2.69-.172-2.715 1.106.194 1.2 1.21 1.704 2.075 1.35zm40.53-4.413c0-.602-9.023-9.04-9.666-9.04-.436 0-.748.353-1.158 1.31-.355.828-.32 1.318.128 1.75.652.626 2.392 2.228 4.046 3.727.98.886 2.103 1.943 2.5 2.35.927.953 1.948 1.69 2.34 1.69.56-.327 1.335-.77 1.81-1.788zm-41.003-1.09c.008-.338-.08-.685-.32-.94-.62-.66-1.772-.314-2.062.56-.263 2.054 2.297 2.145 2.38.38zm6.682-65.68l1.766-5.397 5.393-.14.757-5.364 5.55-.8.09-5.542 5.31-.726-.33-5.935 4.924-1.166-.243-5.494 4.474-1.37-.178-4.784.77-.603L76.405 94l-1.666.542-.03 4.916-4.47 1.438.472 5.44-4.516 1.03-.057 5.913-5.19.58-.37 5.22-5.062.996-.755 5.11-4.91.335-1.5 4.493-3.245.038v3.008l4.954.23zm58.673 96.546c-.17-.405.273-.345 1.045.143.807.51 1.98.934 2.816.935.348 0 1.593-.22 2.765-.493 1.402-.514 2.645-.544 4.1-.23 1.082.147 2.172.264 2.42.262.724.102 1.95-.79 2.277-1.353.89-1.52.68 1.244.682 1.56.016 1.417.192 3.045-.822 2.287-.6-.31-1.647-.586-2.484-.027-.843.562-1.54.683-2.526.09-.81-.32-1.237-.388-1.844.176-.675.627-2.312.403-3.19.115-1.51-.25-2.353-.47-3.364.33-.54.31-.678.08-1.083-1.115-.41-1.197-.73-2.53-.792-2.68zm3.84-1c-.097-.153.713-.946 1.26-1.23 1.604-.83 4.792-.792 7.072.05 1.188.44 1.37 1.19.215 1.032-2.405-.504-5.423-.92-7.748.188-.18.097-.755.034-.8-.04zm2.035-3.757c-1.646-.61-2.452-1.26-2.452-1.468 0-.223.353-.182 1.646.17 1.762.654 3.846 1 5.583.39 1.25-.46 1.875-.754 1.875-.476 0 .294-.517 1.06-1.376 1.5-1.71.698-3.967.367-5.276-.117zm35.708-4.57l1.22-.167-.423-5.095 4.497-1.335-.315-5.066 4.793-1.65-.286-5.702 4.98-.98.65-4.99 4.7-.335.975-5.43 5.05-.175 1.04-4.513 3.36-.02-.014-2.535-5.235.016-1.107 4.886-4.94.14-1.05 5.367-5.18-.038-.662 5.782-4.87.8.003 6.227-4.7 1.218.365 5.325-4.694 1.713.53 5.082 1.314 1.472zm31.396-119.54c-.672.48-.926 1.427-.72 2.198.663 1.747 2.99 1.202 3.267-.068.14-.552-.227-1.384-.862-1.564-.11-.03-.507.006-.712-.207-.15-.153.777-.63 1.323-.448.68.225 1.238 1.126 1.238 1.906 0 .303-.085.752.025.902 1.127-.028 2.416-.647 3.624-.982 2.04-.565 2.778-1.735 2.326-3.106-.377-1.143-1.546-1.596-3.082-1.018-2.108.792-4.582 1.172-6.426 2.386zm-87.13 125.074c6.91-4.855 10.98-7.63 19.85-8.11-3.164-1.3-3.68-3.01-4.57-4.646-10.987 1.038-16.822 4.547-22.042 7.822 2.156 1.016 4.41 2.197 6.762 4.934zm38.522-6.734c-3.352-2.368-7.34-3.8-11.476-4.906l-3.17 3.285c-.185-.118 9.18.093 14.646 1.62zm32.176-31.165c-21.614-33.212-7.095-62.438 7.935-81.06.482-.61.6-.643.49-1.128-.143-.642-.32-3.87-.21-5.733-27.78 27.532-28.492 63.4-11.067 91.867 1.246-1.112 3.758-2.596 2.852-3.945zm3.242-2.84c-3.548-5.91-22.445-37.902 6.418-73.593 0 0-.1-1.82-.314-2.504-.387-1.226-.99-1.72-.99-1.72-12.122 18.198-29.74 40.97-7.736 80.515l2.622-2.7zm-16.527-60.215c.432-.352 1.06-1.632 1.06-2.16 0-.472-.34-.865-3.597-4.17-4.34-4.403-5.09-5.076-5.646-5.076-.524 0-1.895 1.3-1.895 1.797 0 .24 1.276 1.615 4.29 4.625 5.597 5.584 5.332 5.356 5.787 4.985zm3.998-8.11c0-.266-.402-.792-1.354-1.77-2.508-2.584-6.087-5.857-6.4-5.857-.4 0-1.496.886-1.783 1.442-.202.392-.198.48.04.85.442.693 6.04 6.007 7.632 7.344.955.875 1.82-1.343 1.865-2.01zm2.164-3.295c.442-.237 1.283-1.81 1.182-2.212-.047-.188-1.468-1.716-3.156-3.396-3.34-3.323-3.534-3.443-4.366-2.7-.754.676-1.227 1.35-1.134 1.622.114.33 5.114 5.413 6.136 6.236.807.65.902.68 1.337.45zm25.487-.246c1.57-1.51-.21-3.16-1.502-2.398-.55.34-.877 1.08-.71 1.574.28.817 1.388 1.262 2.212.823zm3.108-.386c2.656-.697 3.93-1.164 4.485-1.992.385-.573.43-.926-.005-1.86-.4-.862-.866-1.126-2.53-.214-1.144.626-3.688.926-4.58 1.45-.354.308-.18.305.105.486.64.407.953.684.884 1.222-.152 1.172-.03 1.35 1.64.908zm-2.813-4.165c1.29-.66 1.03-2.254-.41-2.887-1.902-.5-3.127 1.788-1.57 2.903.416.292 1.474.242 1.98-.017zm4.288-.647c1.864-.64 2.582-1.14 3.12-2.17.427-.817.245-1.183.188-1.973-.086-1.197-.688-1.06-2.427-.435-.847.328-4.908 1.472-4.965 1.888 1.96 1.12 1.46 1.71 1.476 3.142.104.326 1.024.092 2.61-.452zm-25.43-1.907c0-.54-5.212-5.646-5.764-5.646-.86 0-2.094 1.34-1.91 2.073.084.333 4.973 5.252 5.582 5.616.854.5 2.038-1.23 2.093-2.044zm2.997-3.18c.225-.178.623-.635.886-1.017.562-.817.52-1.272-.15-1.703-.245-.158-1.34-1.146-2.43-2.198s-2.12-1.964-2.293-2.027c-.898-.12-2.522 1.32-2.354 2.057.097.386 4.092 4.32 4.983 4.907.575.38.85.375 1.357-.022zm7.058-7.606c0-.145-.907-.73-2.358-1.518-4.44-2.412-4.516-2.43-5.902-1.3-.476.39-.865.83-.865.982 0 .155.962 1.187 2.188 2.347 2.546 2.41 3.172 2.93 3.526 2.93.733-.54 3.297-2.772 3.41-3.44zm6.213-2.267c.548-.656 1.163-2.93.87-3.39-.27-.268-.96-.227-1.292.074-.342.31-1.187 3.167-1.057 3.506.13.346 1.002.184 1.478-.19zm-48.49 96.802c.42-.057 1.242-.57 2.438-1.598 1.278-1.098 5.33-3.54 5.77-4.523.196-.56.054-1.36-.37-1.422-.32-.046-.39.2-3.082 2.14-1.816 1.31-5.008 3.65-5.488 4.147-.208.53.263 1.2.732 1.255zm-.377 15.644c2.773-1.924 5.02-3.917 8.634-6.144.28-.368.32-.917.15-1.364-.21-.555-.5-.336-1.595.424-2.665 1.795-5.405 3.91-7.7 5.477-.736.5-1.356.774-1.2 1.055.207.37 1.344.483 1.71.55zm2.697 1.18c1.823-1.492 4.006-2.916 5.953-4.358.27-.272.343-1.19.062-1.565-.22-.297-.037-.242-.576.063-.788.447-5.504 3.663-6.383 4.39-.513.424-.938.635-.812.783.59.38 1.217.613 1.757.686zm2.292 1.155c.376-.252 3.617-2.324 3.878-2.6.3-.315.212-1.726-.078-1.837-.82.65-5.142 3.284-5.15 3.71.44.395 1.022.76 1.35.727zm3.465.29c.498-.457.597-.535.607-1.046.02-.928-.21-.888-1.53.056-.922.596-1.483 1.016-1.317 1.373.654 1.023 1.583.214 2.24-.386zm.357 1.89c.26-.096.26-.23.224-.553-.042-.36-.095-.345-.486-.345-1.05.04-.103.99.262.897zm-12.62-5.182c.477-1.573 1.145-2.817 2.234-3.996 4.36-3.863 3.028-8.62.274-12.49 3.562-4.988 7.12-10.272 10.18-15.112l-.01-7.87.41.043c-.142 17.176.643 45.338.643 45.338l3.542 2.7-.478.237c.584-.09-10.31-6.913-16.795-8.85zm3.2-1.962c3.017-2.274 5.95-4.063 8.94-6.487.318-.263.506-.276.516-.872.017-1.133-.21-1.145-1.327-.344-.494.354-2.308 1.622-4.03 2.784-1.795 1.212-3.46 2.29-3.793 2.678-1.683 1.95-2.305 2.87-2.132 3.148.18.292.52-.023 1.828-.905zm3.29-5.514c1.55-1.02 5.257-3.595 5.595-3.912.588-.552.69-1.433.16-1.533-.26-.05-3.13 1.865-5.555 3.703-1.18.896-1.443 1.103-1.443 1.945 0 .51.308.413 1.242-.202zm1.545-4.008c4.752-3.38 4.63-3.093 4.526-4.352-.034-.425-.13-.617-.317-.653-.148-.028-.987.575-1.934 1.24-.945.666-2.072 1.56-2.638 1.95-1.65 1.147-2.198 1.455-2.198 2.11 0 .648.175 1.057.462 1.057.108 0 1.052-.607 2.1-1.352zm-.682-2.616c2.188-1.546 4.6-3.29 4.93-3.704.398-.503.326-1.598-.183-1.598-2.196 1.468-4.84 3.396-6.697 4.92-.24.212-.546.415-.642.69-.02.358.43.83.61.845.362.002.92-.402 1.982-1.153zm-1.424-5.23c1.672-1.133 3.19-2.48 4.852-3.62 1.246-.854 1.6-1.117 1.525-2.19-.043-.618-.587-.263-2.698 1.145-1.55 1.03-2.26 1.438-2.81 2.145-.385.89-1.655 1.726-1.723 2.743 0 .376.25.198.854-.224zm5.13-6.805c1.283-.85 1.405-.87 1.267-2-.175-1.412-.32-1.33-1.546.544-.806 1.233-1.082 1.59-.96 1.818.21.392.44.168 1.24-.36zm-4.673-10.4c-.137-.628-.33-.492-.975.075-1.19 1.044-1.377 1.8-.636 2.195.393.21.697.187.93-.33.505-1.11.646-1.502.68-1.94zm-6.66 9.88c-.153-.573-.854-1.355-1.39-1.632-.528-.273-.85-.223-1.356.42-.465.593-.248.945.453 1.832.513.65.722.855 1.125.855.49-.19 1.272-.85 1.17-1.474zm-25.77 24.777c-.34-.655-1.06-1.347-1.39-1.23-.352.122-.692.623-.696.938.146.645.69 1.08 1.106 1.093.79-.113 1.267-.25.98-.8zm3.142-.998c-.68-.717-2.022-2.296-2.24-2.296-.344 0-1.163.86-1.163 1.214 0 .417 1.222 2.128 1.628 2.265 1.026-.097 2.914.018 1.774-1.184zm3.877.2c-.07-.346-3.892-4.406-4.174-4.406-.363 0-1.083.8-1.083 1.168 0 .296 1.233 1.905 2.373 3.097.568.593.618.678 1.313.57.76-.12 1.748.045 1.57-.43zm6.75-.906c0-.82-.428-1.27-2.153-3.137-.626-.677-1.684-1.854-2.35-2.614-1.29-1.474-1.842-1.924-2.355-1.926-.407 0-1.028.657-1.028 1.077 0 .27 3.175 3.91 6.05 7 .64.686.925.886 1.537.56.35-.24.298-.647.297-.96zm-4.97-9.753c-.646.53-.886.748-.89 1.102-.003.54 5.477 6.56 5.966 6.56.287 0 .243-.04.412-.687.34-1.965-.194-2.542-1.615-3.838-.952-.87-2.872-3.862-3.873-3.138zm9.665-4.03c-1.53-1.828-2.376-2.67-2.687-2.67-.213 0-.53.205-.874.585-.57.54-.516.52-.154 1.166.188.334.714.992 1.17 1.462.842.87 1.274 1.146 1.68.73.36-.37 1.248-.806.866-1.272zm-.798-4.563c-.373-.004-1 .67-1 1.034 0 .31 1.24 1.865 2.106 2.64.7.628 1.03.797 1.518.383.364-.527.282-1.01.055-1.415-.62-.705-1.975-2.61-2.68-2.64zm4.3.448c-.01-.533-1.575-2.568-2.07-2.77-.413 0-1.287.96-1.287 1.4 0 .238.335.768.902 1.427 1.117 1.296 1.403 1.58 1.646 1.378.4-.33.817-.912.807-1.436zm1.766-2.292c.103-.447-.174-.907-.8-1.692-.78-.982-1.165-1.048-1.9-.288-.273.28-.4.526-.4.662 0 .375 1.64 2.458 1.944 2.458.704-.087.92-.6 1.156-1.14zm-2.884 5.16c-.146.674-.43 1.113-1.08 1.425-5.006 3.608-4.844 9.486-5.913 14.914-8.107-.083-20.923 3.243-20.844 3.418l43.082-43.464s.535.133.208.514c-3.487 2.507-3.27 7.38-5.563 9.82-3.832 4.63-7.392 8.648-9.89 13.373zM97.81 204.205c.07-.49-.38-.625-.776-.23-.387.388-.234.69.317.627.29-.033.426-.15.46-.396zm13.278-1.826c.158-.414-.22-.8-2.528-3.362-2.337-2.595-2.867-3.202-3.27-3.202-.345 0-1.182.85-1.182 1.197 0 .16.367.687.816 1.17.45.482 1.302 1.43 1.895 2.107 1.02 1.164 1.506 1.727 1.895 1.998.382.267.67.252 1.28.252.84 0 1.02.03 1.093-.16zm3.994-8.156c.16-.51.385-.962.387-1.152.002-.357-2.95-3.365-3.448-3.688-.598-.387-1.72.875-1.44 1.61.076.204.954 1.236 1.95 2.295 1.266 1.346 1.898 1.98 2.104 1.948.21-.032.24-.35.446-1.013zm1.235-3.16c.216-.318.392-.737.392-.933 0-.222-.495-.82-1.2-1.614-1.317-1.48-1.655-1.65-2.376-.96-.717.688-.474 1.005.788 2.435 1.578 1.79 1.758 2.007 2.395 1.07zm11.282-14.13c.49-.583.5-.872.052-1.405-.19-.227-.47-.558-.617-.735-.405-.485-.94-.404-1.493.225-.265.3-.44.604-.438.708 0 .103.284.52.63.922.778.908 1.26 1.006 1.865.285zm1.727-2.23c.334-.51.184-1.07-.44-1.64-.592-.54-.886-.563-1.302-.102-.555.617-.466.824.13 1.484.676.75 1.22.86 1.612.258zm1.386-1.85c.462-.46.453-.856.04-1.382-.39-.493-.79-.627-1.197-.408-.71.38-.635 1.03.063 1.768.423.447.622.493 1.093.023zm-32.965 92.71c8.823.988 18.303 1.68 35.013-.918l.086-5.67c-5.213 4.063-12.055 1.277-12.45-3.4-.045-4.17 1.068-8.98 2.007-12.41.698-2.55.898-3.533.244-4.03-1.44-.81-4-.913-4.653-2.607-.313-.895-.343-1.85.115-1.17.21.313 1.873 1.088 3.173 1.378 2.263.505 2.627.674 2.884 1.604.16.585-.21 2.61-.808 4.438-.428 1.31-.926 3.41-.926 3.815 0 .442.347.515.735.392.167-.054.962-.85 1.463-1.296 2.174-1.94 2.805-1.883.948.015-.738.755-1.756 1.796-1.756 1.875 0 .4.377.355 1.21.054 1.287-.464 4.3-.408 5.642.266 1.667.838 1.738.8 1.7-1.738-.3-4.744-1.073-10.357-2.62-14.738-2.357-6.682-7.253-12.88-14.487-12.602-8.818.46-14.14 3.97-20.14 8.177 3.624 8.036-1.612 14.193-3.51 15.006-.183.08 2.375 8.17 3.468 12.282.992 3.732 2.66 11.274 2.66 11.274zm37.536-193.874c-.205-.528-5.11-16.513-6.48-23.198-13.263-.77-23.068-1.872-34.745 1.442 0 0-.254 4.504-.132 4.723.12.556.52.543.85.36 5.393-2.963 11.238-1.628 11.644 5.68.155 2.79-.783 4.758-.954 7.405-.15 2.312-1.968 5.394-.865 7.15.142.215.918.64 1.98 1.095 1.98.848 2.755 1.626 2.9 2.92.216.895-.33 1.495-.496.577-.104-.582-.206-1.096-2.65-1.933-2.383-.816-3.025-1.763-3.263-2.26-.328-.688-.267-1.175.04-2.27.652-2.33 1.296-4.706 1.236-5.828-.02-.403-.47-.208-1.04.278-.727.618-3.834 2.664-3.92 2.577-.042-.04.512-.865 1.382-1.697 1.055-1.01 2.368-2.23 2.368-2.455 0-.396-.155-.12-1.178.183-1.783.492-3.838.42-5.22-.19-1.172-.515-1.993-.813-2.167-.53-.434 7.117.623 14.455 3.61 20.18 2.675 5.2 8.236 11.715 16.6 10.253 8.64-1.51 17.045-8.458 16.743-8.467-3.224-7.3.45-12.738 3.756-15.995zM66.792 266.034c-3.828-3.834-13.48-8.005-20.11-9.92-.532-.113-1.055-.366-1.06.263l-.077 13.16-11.854 11.107.21 5.42 25.148-.12 16.694-24.478s.805-.144.894-.294c-3.064-12.997-7.68-23.378-10.61-28.58.05.063-4.215 3.444-7.965-.76-2.103-2.357-.812-6.5 1.185-8.018-1.685-1.238-5.175-3.485-7.463-4.134-.476-.116-1.185.847-1.417 1.718-.418 1.416-1.113 2.682-1.58 4.11-.513 1.19-1.008 1.37-1.772 1.036-1.192-.354-1.51-.477-1.51-.477l.04 15.47c9.15 3.176 18.568 11.31 21.25 24.497zm38.03-165.318l2.712-2.944c-4.29-.526-8.785-1.293-14.046-2.944 3.653 2.715 7.478 4.396 11.335 5.888zm-14.897-8.282c4.78 1.594 10.83 5.31 18.383 3.91-6.885-2.73-12.113-9.11-14.34-22.103-.488 2.522-1.495 7.767-3.08 8.334-2.23-8.622-11.187-3.607-7.595 3.424-9.078 6.238-19.994 9.758-29.895 14.568 0 0-1.49 4.574-8.906 10.84-1.4-7.347.27-18.244-.6-25.625L32.266 74.8c.178 2.09.097 3.39.004 5.837.32.427.76.65 1.208.917.75 42.316-.26 84.146-.25 122.582-.115 23.554.508 48.096.163 70.335l-.434.805.018 5.316 11.872-11.304s-.552-8.02.07-14.15c7.492 1.51 14.48 5.03 20.744 8.89.79.22-3.845-15.398-20.692-22.335 0 0-.023-4.878-.022-15.482 0-10.23-.16-11.313-.387-11.48-.683.742-9.306 3.647-9.742 3.155.23.077-2.432-18.108-.13-20.87l8.248.173c2.36 1.904 1.41-.415 2.78-.796.822-.222 4.637 1.265 4.637 1.265 15.72-18.557 14.15-49.073 2.868-66.244-2.89 2.348-5.962 5.53-8.86 6.895-.034-.1-.053-9.467-.053-9.467 15.02-9.642 31.36-37.57 30.317-37.664 0 0 4.65 4.53 6.456 7.092L66.253 119.74c3.396 6.84 6.832 13.04 9.06 19.055.303.813 1.232.79 1.466 1.646.2.733-.693 1.75-.57 2.556 3.13 11.968 3.84 24.666.75 36.17-.65 2.59.543 4.69 2.137 6.637.13.17-1.485-1.4-1.63-1.486-.555-.333-1.48.835-1.674 2.31.128.902.618 1.06 1.268 1.793 1.146.95 5.69 5.428 7.693 7.473 1.778 1.816 2.238 1.897 3.437.61.34-.316.69-.746 1.018-1.013.06.1.504-.362.655-.51l26.777-26.137c3.11-3.036-26.738 27.424-26.738 27.424s-14.475 14.21-18.024 17.713c-3.668 3.618-4.163 4.41-4.31 4.68-.262.478 1.183.466 1.84.368.053-.008-.552.14-1.163.135-3.77-.843-5.054 3.324-7.43 4.164-6.287 4.464-2.06 11.634 3.947 9.266l1.463-.703c3.64 6.762 8.892 19.08 11.356 29.785l-.992.46-15.84 23.76h89.824c-6.452-6.424-11.94-14.31-17.53-20.212-8.957 2.68-36.044 2.133-35.616.968 0 0-4.102-16.603-6.42-24.76 7.363-6.307 6.608-16.255-4.08-20.72 7.78-6.146 15.614-8.228 23.252-8.727 2.48 6.3 8.305 6.697 11.055.928.02-.063 10.328 3.17 14.13 6.67-5.637-.583-11.203-1.705-16.844-1.975 4.964 1.96 10.02 7.08 11.638 12.936.793 2.092 2.005 8.994 2.326 9.02 0 0 1.88-7.973 3.34-7.534 3.72 7.764 10.134 1.924 7.432-4.26 9.475-4.523 20.136-9.574 28.852-13.766 2.544-3.836 8.8-11.12 9.21-11.152 0 0 11.504-65.908 11.5-87.94-.38-26.49.532-55.974-.61-80.75l-.01-7.12-24.3.01-17.345 25.51s-.13.403-.13.58c2.37 10.29 5.406 19.05 10.173 28.56 6.576-4.968 12.12 3.212 7.187 7.962-.926.892-.678 1.116.25 1.737.912.61 7.154 3.752 7.444 3.752 1.13-1.678 1.456-4.155 2.218-6.047.19-.72.735-.81 1.823-.682 1.398.165 1.392.747 1.345-8.148l-.04-7.64c-8.433-3.885-19.598-13.76-20.12-24.03 4.877 3.548 16.08 8.706 19.072 9.168 1.313.366 1.112-1.924 1.152-2.843.356.238.485 3.776.485 3.776-4.95-1.496-7.543-1.19-19.896-8.35 2.12 10.102 12.234 18.068 19.57 21.702 0 0 .306 4.797.29 10.17-.047 16.39.117 17.112.117 17.112 0-.008 4.036-1.028 5.157-1.585 2-1.603 5.208-.373 5.652.808.65 6.185.024 11.92-.113 17.826-3.42.244-5.292.964-6.98 1.032-1.096-.146-1.762-.153-2.322-.776-1.632-3.527-1.526-1.29-1.725 1.357-.15.783-4.237-.58-4.646-.817-17.65 20.318-16.146 43.71-4.158 65.373 1.98-1.337 5.39-3.887 8.798-5.562.083 2.756.13 8.43.13 8.43-13.818 10.137-30.366 36.995-29.807 37.07l-5.612-6.703s3.533-5.616 4.78-7.102c.144-.17.236-1.913.236-1.913l8.58-12.404c-3.88-6.87-6.53-12.745-9.288-19.502-.156-.565-.83-2.994-.683-3.224-5.724-25.857.48-38.72.02-39.698 0 0-.075-.518-.197-.618-.188-.156.05-.306.26-.675.408-.716 1.06-2.186.836-2.62-.164-.322-4.805-4.963-8.784-8.784-2.093-2.01-2.01-2.24-3.09-1.144-.402.407-1.39 1.565-1.39 1.565-14.375 13.303-25.785 25.415-40.212 39.574l-.692-.63c20.987-20.86 42.17-41.513 62.953-62.576l-3.655.062c.103-.265.255-.512.467-.584 1.96.002 3.975-.593 5.432-1.42 2.965-2.202 7.22-5.15 7.554-8.055-.214-5.59-4.93-6.4-8.333-3.667-4.733-8.5-8.48-18.73-10.487-28.275-.095-.474-.762-1.29-.86-1.832 1.013-3.17 17.086-25.074 17.086-25.074H76.136l17.18 20.456c0-.816 24.48-3.707 35.694-.293l6.83 24.257c-6.204 5.997-8.038 15.86 3.37 20.994.223.48-1.08 1.27-1.08 1.27.18-.294.496-.6.368-.872-3.075-1.344-6.367-4.747-6.367-4.747-6.863 5.36-13.278 8.347-19.562 8.61 0 0 3.317 2.25 3.96 4.722 0 0-.31-.04-.39-.138-.682-.833-2.247-3.525-3.566-4.318-2.237-.536-3.56-.146-5.326 1.07l-2.39 2.31c-5.485-1.67-11.575-4.4-14.93-8.54zm-.918 59.368l2.503-2.47c.286-1.833.783-4.163 2.898-6.7 2.346-2.816 4.94-5.464 6.85-7.97 2.292-3.012 3.537-5.736 2.935-7 3.418-.615 6.556-3.632 6.656-9.107.04-2.876 1.427-7.07 1.53-7.013 0 0 23.86-.812 40.272-16.458 0 0 1.15.25.88.458-6.218 6.228-12.832 10.82-20.648 13.744L89.77 152.352l-.763-.55zm4.774-4.94c.646-.646.79-.856.426-1.16-.556-.46-1.626.492-1.626 1.448 0 .608.482.43 1.2-.29zm2.233-2.196c.513-.49.493-.85.07-1.272-.583-.582-1.43-.225-1.716.716-.287.946.84 1.328 1.646.556zm1.964-1.987c.265-.302.48-.61.48-.685 0-.334-.823-1.09-1.186-1.09-.462 0-1.288.777-1.288 1.212 0 .363.83 1.108 1.233 1.108.155 0 .498-.245.762-.546zm1.852-3.7c-.588-.494-.974-.498-1.457-.015-.562.562-.504 1.18.167 1.77.51.532.73.48 1.418.056.578-.592.683-1.143-.13-1.81zm2.173-.33c.634-.534.544-.973-.148-1.664-.728-.73-1.29-.733-1.808.037-.193.29-.23.58-.23.662 0 .282 1.2 1.352 1.518 1.352.173 0 .406-.168.668-.387zm2.09-2.065c.54-.563.47-.965-.303-1.76-.65-.67-1.103-.722-1.676-.19-.593.548-.47 1.128.2 1.796.676.678 1.178.782 1.78.155zm2.368-2.397c.397-.418.29-.385.01-.84-.434-.7-1.7-1.863-2.06-1.863-.453 0-.85.725-.846 1.438.004.71.35.998 1.25 1.707.598.47.415.513.875.243.256-.15.602-.458.77-.685zm1.88-1.717c.848-.965.688-1.15-1.36-3.308-.694-.73-.84-.815-1.335-.773-.47.038-.503.154-.746.65-.448.917-.116 1.382 1.172 2.752 1.325 1.41 1.52 1.53 2.268.68zm2.1-2.253c.327-.287.546-.622.546-.835 0-.376-1.658-2.215-2.25-2.554-.42-.24-.857-.104-1.4.363-.327.282-.32.35-.24.66.126.504 2.258 2.75 2.61 2.75.144 0 .432-.118.733-.383zm2.08-2.02c.353-.358.63-.793.63-.983 0-.405-1.786-2.473-2.34-2.763-.47-.245-.74-.143-1.205.51-.535.75-.326 1.093.734 2.313 1.005 1.16 1.326 1.51 1.514 1.51.062 0 .32-.23.667-.585zm1.966-2.113c.45-.274 1.04-.853.802-1.324-.254-.483-3.382-3.8-3.72-3.98-.66-.353-.64.157-.64 1.8v.852l1.44 1.41c2.098 2.054 1.63 1.552 2.118 1.242zm2.544-2.335c.25-.25.483-.67.48-.824-1.298-1.582-5.074-6.582-5.757-6.396-.07.02-.1.022-.148.166-.17.5-.238 1.537-.12 2.375 1.192 1.147 4.002 4.877 4.64 5.107.378.146.545-.068.905-.428zm2.03-2.13c.237-.23.433-.538.433-.688 0-.15-.42-.675-.866-1.2-.447-.527-1.32-1.593-1.943-2.368-3.558-4.438-3.815-4.77-4.36-4.318-.355.296-.44 1.342-.263 1.732.31.675 4.196 5.36 5.45 6.57.794.768.95.845 1.55.272zm2.046-1.962c.304-.286.553-.666.553-.844s-.575-.9-1.176-1.605c-.6-.707-1.602-1.91-2.224-2.676-1.597-1.964-1.61-2.035-2.8-2.157-1.806-.186-1.565.212.48 2.6.494.577 1.43 1.718 2.077 2.533 1.517 1.91 2.186 2.615 2.485 2.615.134 0 .3-.18.604-.467zm2.087-2.044c.926-.778.742-1.033-2.267-4.142-.987-1.02-1.058-1.18-1.823-1.18-.77 0-1.02.158-1.02.532 0 .23 3.92 4.888 4.205 5.003.387.155.432.185.905-.213zm2.192-2.246c.247-.264.45-.605.45-.76 0-.334-.853-1.415-1.65-2.114-.373-.328-.843-.667-1.145-.667-.512 0-1.39.29-1.54.534-.098.16 1.066 1.598 2.21 2.804.758.8 1.055.868 1.675.204zm1.926-1.91c.485-.484.48-.928-.014-1.577-.36-.47-.468-.517-1.207-.517-1.4 0-1.44.358-.357 1.517.805.86 1.027 1.13 1.578.578zm2.06-2.027c.546-.69.08-1.07-.813-.664-.212.097-.325.348-.37.464-.277.72.66.867 1.184.2zm-34.416 5.85c-1.99 1.26-5.335 3.643-7.61 5.234-.06.342-.103 1.213.003 1.89 1.29-.876 5.433-3.523 7.313-5.015.096-.56.233-1.546.294-2.11zm3.65-5.773c-.065-.34-.288-.125-.878.374-.77.652-7.315 5.502-9.054 6.722-.66.464-1.283.855-1.354 1.02-.066.152-.13 1.47.12 1.802 1.417-1.083 8.146-5.596 8.247-5.752.696-1.11 2.248-3.047 2.92-4.165zm-.748 14.614s-8.027 9.65-10.61 14.457c0 0-.017 5.5-.09 8.665l-.44.122s-.037-8.486-.145-17.697c-.27-23.016-.495-28.604-.495-28.604l-2.607-1.908-.108-.905s11.567 8.1 17.21 9.39c-4.123 6.46-7.937 8.954-2.714 16.48zm-9.527 11.54c.16-.387.05-.368-.28-.353-.244.01-.383.235-.394.482-.013.28.013.347.232.305.158-.03.364-.247.44-.434zm1.93-2.858c1.154-1.423 2.11-2.345 2.28-3.392-.74.123-4.997 3.107-5.064 3.424.04 1.58-.32 1.77.98 1.073.57-.31 1.033-.69 1.804-1.105zm.363-3.525c1.242-1.03 5.77-3.466 6.287-4.666.2-.55-.444-1.067-.546-1.017.082.073-6.48 4.006-8.876 6.068-.214.268-.16.72-.017 1.096.265.69.788.13 3.153-1.48zm-1.506-1.898c1.35-.9 4.543-3.107 5.338-3.66 1.35-.938 1.62-1.253 1.132-1.948-.194-.277-.458-.442-.904-.246-3.91 2.723-4.246 3.183-7.214 5.09-.2.536-.15 1.335.158 1.62.226.01.603-.265 1.49-.857zm-.014-2.938c3.56-2.575 5.48-3.878 5.608-4.162.14-.313.182-1.54-.05-1.67-1.326 1.008-4.868 3.177-7.29 5.14-.062.403-.136 1.31.06 1.505.49.202.637-.064 1.673-.813zm-.425-9.3c2.592-1.922 4.988-3.595 7.687-5.397 2.286-1.52 2.67-1.856 1.79-2.31-.3-.156-.91-.403-1.3-.272-3.04 2.453-6.415 4.8-9.636 7.184-.08.355 0 1.055-.02 1.37-.03.485.61.07 1.478-.574zm-.356-2.742c.213-.187 1.57-1.087 3.017-2.133 3.877-2.807 4.334-3.08 4.334-3.378 0-.816-1.12-.99-2.138-.16-1.87 1.523-6.333 4.297-6.344 4.69-.016.58-.113 1.15.057 1.406.212.322.526.052 1.072-.426zm1.12-3.802c3.945-2.753 3.79-2.624 3.79-3.118 0-.43-.386-.237-.99-.28-.568-.043-.58.117-1.66.936-2.304 1.74-3.147 2.216-3.388 2.73-.076.16-.13.8.012.94.277.276.596-.065 2.235-1.208zm.26-2.737c.77-.642 1.39-1.114 1.442-1.25.113-.292-.47-.814-.91-.814-.477 0-.847.246-2.026 1.262-1.042.896-1.253.708-1.17 1.215.047.293.052.94.15 1.06.252.3.792-.04 2.513-1.472zm-1.598-1.777c.834-.702 1.01-.846.4-1.454-.55-.552-1.19-.69-1.53-.35-.188.247-.005 1.7-.025 1.99-.035.466.584.292 1.154-.187zm17.87-15.144c0-.302 1.45-1.364 2.54-1.606 1.388-.31 3.13-.148 4.35.46 1.052.525 2.192 1.786.503 1.02-1.55-.69-4.875-.7-6.08-.142-.892.45-1.314.568-1.314.267zm-1.08-5.32c.113-.112 1.564.262 2.363.473 2.143.564 3.902.232 6.148-.415.526-.152.79.212.464.48-1.142.79-2.62 1.25-3.897 1.368-2.807.26-5.826-1.17-5.08-1.905zM91.13 81.48c1.196-.586 2.66-8.803 2.188-10.217-1.467 2.24-3.11 3.246-5.452 2.857-3.835-.636-3.978-5.354-1.015-5.83 1.185-.19 2.633.59 2.87.407 1.263-.592 2.253-4.835 2.56-6.207.23-1.346.562-5.077.612-6.265.106-2.524.005-6.25.005-6.25L74.237 27.65l-40.87-.176s-.13 31.27-.032 47.267l11.572 11.107.146 17.95c12.93-5.642 25.447-11.57 37.7-17.978-1.422-1.7-1.38-5.978 1.21-7.596 3.814-2.383 6.983.77 7.166 3.254zm10.243 3.804c.087-1.012.84-1.844.893-2.874 0-.23.186-.494.793-.172.793.422 1.036.125 1.933-.288 1.592-.732 2.048-.716 3.272-.226.793.425 1.037.422 1.78.036 1.017-.672 2.097-.89 2.99-.576 1.336.465 1.8.722 2.562.354.383-.186.863-.88.947-.83.548.814.437 2.096.787 2.816.62 1.224.378 2.1-.352 1.498-1.534-1.265-2.73-1.296-4.93-.75-1.29.318-1.937.566-3.363.396-4.423-.523-4.723-.392-5.62.21-.874.584-1.545.644-1.692.406zm11.872-8.015c-1.276-.318-2.736-1.48-3.794-1.168-1.302.087-2.045-1.45-1.376-2.292 1.144-1.113 2.92.01 3.61.532 1.498 1.138 1.712 1.228 2.317 1.228 2.488-.05 2.012-2.372.81-3.22-.713-.748-.783-1.232-.632-1.415.246-.297.956-.047 1.734.772 1.488 1.397 1.523 4.185-.303 5.026-.91.51-1.505.752-2.365.537zm5.19-8.054c-1.156-.84-3.217-2.72-3.755-3.39-.91-1.134-1.273-1.858-1.16-2.77.09-.707.197-1.128-.258-1.362-.483-.248-.947-1.317-.854-1.88.026-.154.57-.06.9.35.418.068.33-.18.785-.48 4.73-3.174 8.524-2.562 13.01-.38 1.304.625 4.702 3.2 2.88 2.365-.107-.05-1.3-.565-2.503-1.173-3.892-1.862-8.226-2.99-11.755-.597-.607.426-.975.752-.503.752 1.984-.386 3.946-1.21 5.984-1.082 3.038.04 4.877 1.54 7.155 2.574 2.475 1.104 2.952 1.482 2.05 2.395-.254.28-.458.273-1.652.182-1.284-.1-1.39-.062-2.113.4-1.895 1.214-4.354 1.876-6.54 1.692-2.573-.217-2.85-.423-2.902-.053-.034.237.52.647 1.28 1.346.58.53 1.357 1.31 1.426 1.43.214.38-.766.193-1.474-.32zm-.722-4.12c-.005-.304-.572-1.63-.91-1.97-.326-.33-.58-.202-1.272.285-.52.366-.575.655-.096 1.08 1.017.905 2.29 1.13 2.28.605zm3.877.183c1.04-.503 2.097-2.285 1.616-2.864-.286-.344-.534-.018-1.08.95-.26.462-.71 1.048-.9 1.183-.85.595-1.97.04-2.442-1.272-.285-.792-.584-1.295-.916-.994-.6.542.08 2.5 1.27 3.007.703.297 1.723.34 2.452-.01zm3.233-.293c1.054-.325 1.557-.8 1.468-1.26-.072-.38-.83-.83-1.346-.83-.23 0-.684-.01-.846.208-.358.478-.928 1.927-.953 2.083.122.32.48.17 1.678-.2zm3.64-7.854c-5.255-2.01-9.405-2.817-14.403-.686-1.6.695-2.515.768-2.595.2-.067-.478 1.085-1.895 2.33-2.548 3.49-1.596 7.678-1.746 11.188-.062 1.312.643 4.994 3.26 4.994 3.498 0 .26-.332.058-1.513-.403zm61.51 58.884c1.253-.66 1.83-1.958 1.063-2.724-.225-.226-.54-.224-.8-.224-.438 0-3.726.88-4.363 1.222-.416.223-.265.61.132.97.184.167.32.522.35.91.035.5-.063.95.267.874.67-.154 1.728-.302 3.352-1.028zm-4.672 1.204c.358-.65.206-1.54-.73-2.086-.488-.252-.874-.117-1.267.443-.93 1.698 1.38 2.427 1.998 1.643zm-4.69.796c.202-2.17.105-8.578.105-8.578s-1.167.985-1.903 1.02c.27-.938.562-1.28.982-2.2.24-.973.373-2.693.306-3.678-.073-1.077-.833-1.106-.05-3.043.4-.99.472-2.03-.047-3.256-.224-.605-.296-.953.287-1.72.54-.712.327-1.068.316-2.554-.014-2.06 0-2.394-.625-.733-.93 1.376-1.357 1.112-2.775.947-1.372 3.074-2.977 6.297-3.04 8.946-.04 1.662-.06 1.92.977 5.414.386 1.3.518 1.733.54 3.306.02 1.502.134 2.03.362 2.858.405 1.475 2.058 3.914 4.567 3.27zm-47.714 138.26l.005-3.09s-4.942 1.524-7.452.586c-2.583-.698-2.575-.827-2.524-.547.092.5 2.01 1.51 3.783 1.927 1.25.293 3.75-.002 4.976-.366.696-.206.77-.012.49.2-3.03 2.37-6.875 1.28-9.29-.687-1.29-1.265-2.155-1.27-1.46.427 3.317 6.723 11.555 2.757 11.473 1.55zm-3.337-4.593l1.123.022s-.345-1.96-.928-2.53c-1.192-1.17-2.877-.99-3.946.157-.49.524-.864 2.385-.864 2.385l.904.02c.335-.87 1.762-4.943 3.71-.054zm-4.5-2.962c-.64-.176-2.042.462-2.725.905-.252.28-.255.32.046.716.656.86 1.658 1.273 1.73.95.29-.454 1.016-2.397.95-2.572zm7.428 2.18c.147-.604-.42-1.634-1.306-1.995-.383-.095-.76-.172-.65.25.126.472.39 1.247.638 1.765.18.39.295.584.672.438.296-.1.545-.193.646-.46zm48.25-40.976l.01-5.235c-2.645 2.68-6.1 7.176-7.147 8.86l7.137-3.625zM99.987 65.645c1.12-.48 1.943-1.943 1.66-2.683-.177-.46-.643-.092-1.112.59-.757 1.093-.948 1.21-1.613 1.21-.708 0-.99-.18-1.475-1.133-.335-.9-.572-1.043-.884-.65-.147.178-.136.43.056 1.087.498 1.715 1.782 2.258 3.37 1.578zm3.052-.54c1.242-.43 1.496-.564 1.437-.98-.062-.432-1.05-1.01-1.61-.903-.404.245-1.453 1.906-1.394 2.203.143.23.558.025 1.567-.32zm-7.165-.726c-.043-.384-.096-.76-.2-.888-.4-.48-1.24-.14-1.24.47 0 .464.66.99 1.193.99.377 0 .322.09.247-.573zm7.02-3.13c1.768.665 2.664.74 1.702-.164-1.32-1.466-7.378-3.14-10.63-.748-.23.33-.183 1.594.07 1.524 2.646-1.784 6.03-1.688 8.86-.613zm-6.05-5.055c-1.483.494-2.878 1.27-3.056 1.993-.29 1.165.232 1.177 2.174.566 2.5-.82 5.298-.448 7.43.783 1.62 1.178 2.1.788 1.825-.2-.906-3.274-5.966-3.864-8.374-3.142z"/><path fill="#E2CF00" d="M192.163 35.172l-10.92 10.82.15 12.808c1.1 2.012-16.854-5.738-19.688-8.084.33 8.555 12.005 18.3 19.597 21.867l.208 27.164s3.055-1.185 4.736-1.77c1.246-.432 4.094-.39 5.032-.84 1.49-18.62 2.762-42.848.885-61.965zM131.42 48.575c-1.063.02-1.7.307-1.687.99-.32-.053 4.035 15.99 6.018 22.69-3.857 3.897-7.885 10.67-2.12 16.94 1.23 1.338 3.482 2.47 5.626 3.756.954.927-11.72 9.1-23.003 9.102-3.616-7.93-8.67-3.545-11.455-.778-2.177-.19-10.302-5.03-14.457-7.8-.065-.045-.022-1.192-.014-1.402.29 1.89 16.28 5.97 17.004 4.074-.462 0-7.174-4.54-9.102-9.02-2.46-5.052-4.432-11.99-4.432-11.99-.896 2.565-.59 6.12-3.055 7.394-.737-8.353-12.664-4.092-6.728 4.075-3.335.98-6.188 2.704-9.426 4.142 6.774 9.218 16.1 15.35 25.946 18.962-1.3 2.767-8.968 8.995-2.668 16.337.284.226-6.02 7.102-9.12 12.48-2.334 4.047-1.63 7.153-1.363 7.254 8.542-9.787 13.34-18.066 13.34-18.066-.07 1.14 10.14.522 9.968-8.67.226-2.48.675-5.172 1.63-7.474 15.578.732 28.974-4.817 40.296-16.473 0 0 2.307.658 3.76.885.73.113 1.764-.362 1.934-.41.656-.034 1.602-.162 2.484-.658 1.21-.68 2.43-1.85 3.723-2.896 1.694-1.372 3.386-2.695 3.987-4.108.675-1.57.146-3.466-.43-5.143-3.635-4.28-6.046.322-7.657-.275-5.59-7.602-10.254-29.104-11.016-29.27-3.122-.63-13.806-4.717-17.98-4.647zM93.043 63.25c-.417.028-1.916 6.713-3.244 6.66-5.623-3.62-5.745 3.874-.91 3.533 4.085-.288 6.37-6.88 4.172-10.188-.006-.003-.013-.006-.02-.005zM32.94 75.967c.186 40.645.917 81.274 1.87 121.905 3.673-.907 6.344-1.6 9.946-.024.34-11.55-.677-40.7-.435-68.925 13.73-10.678 23.374-22.455 30.147-37.847l-20.963 9.817s-6.85 9.82-9.04 10.45c-.31-1.398-.66-18.02-.376-25.15l-11.15-10.226zm46.58 25.14l-4.12 5.96s.097 20.467.334 30.33c.17 1.963 1.955 3.764.527 5.523.87 0 4.68 26.555 1.06 37.32-.648 1.928-.042 3.29.972 3.73l7.85 7.966c2.476.822 4.887.5 6.965 0 7.43-6.797 17.985-18.706 17.985-18.706L83.19 146.854c-2.396-6.397-3.67-45.748-3.67-45.748zm101.69 85.358c-20.202 15.103-28.887 36.594-29.02 36.45.07.25-.102 1.132 1.164.435 5.23-2.832 18.672-8.938 18.672-8.938 3.192-3.836 5.648-7.54 9.305-11.19 0 0 .397 16.655.073 25.01 3.298 2.45 11.127 10.11 11.127 10.11-.002 0 2.16-118.32-2.504-121.324-4.53.878-6.806 2.532-8.495-2.722-1.194 24.09-.012 48.265-.32 72.17zm-43.873-66.59c-4.873 3.98-21.627 20.415-21.592 20.585 4.443 7.45 21.99 22.377 30.403 30.722l1.218 42.51c1.237-1.663 2.137-3.23 3.48-4.895 0 0-.22-21.524-.74-31.616-.153-2.982-.838-5.335-.623-5.605-2.367-12.248-3.35-25.78 0-38.91-7.944-6.845-10.468-11.396-12.146-12.79zm1.305 48.552c-.013.004-.024.013-.04.028-4.112 5.858-11.977 18.576-12.54 18.547-.168-.38-8.13-.025-9.635 4.982-1.264 3.73-1.36 7.16-2.28 11.006-15.976-.52-27.67 4.53-39.983 15.88-3.502.136-6.57.424-8.725 1.222-1.807.668-2.776 1.873-3.887 2.678-3.126 2.265-3.973 4.198-3.818 6.563.277 4.287 7.853 4.896 8.24 1.876.385 0 7.413 16.056 8.097 18.79 1.657 4.424 3.434 12.7 3.645 12.713 2.83.182 18.716 4.637 18.773 3.02 1.496-.642-5.525-23.617-5.525-23.617 12.273-10.296-1.257-21.3-4.437-20.896 6.987-4.975 15.006-8.325 23.848-8.766 1.37 4.913 7.715 7.438 10.91.908 0 0 13.744 4.92 13.687 6.55-5.66-.854-10.312-1.3-15.98-1.842 10.86 5.894 11.192 13.66 13.41 21.393.3-1.37 3.165-7.352 3.165-7.352 3.683 8.168 10.687 2.5 7.797-4.093l8.715-4.04c1.003-.51-13.027-16.292-25.787-18.527.643-1.175.897-2.28 1.562-3.238 3.2-3.14 5.68-7.735.787-13.234 3.23-4.512 10.717-15.403 10.242-15.598 0 0 .146-5.09-.242-4.953zm-104.92 50.197c-.122 0-.348 37.77-.082 56.516-.313.777-.518 4.926-.518 4.926l11.62-10.914.348-14.11c3.033-.725 21.944 8.875 20.43 8.822 1.444-.607-8.728-19.817-20.594-21.948-.22-10.884-.332-23.204-.644-26.517-4.12.785-10.56 3.25-10.56 3.224zm103.165 22.72c-3.254.97-4.61 7.81-3.557 11.127.194.615.07.747.59.147 1.268-1.86.867-5.568 3.107-7.526 5.917 1.785 5.33-5.907-.14-3.745z"/><path fill="#D40000" d="M61.608 285.89l15.382-23.237c18.365 6.138 37.113 6.25 56.06 3.22l16.934 20.018h-6.924l-10.657-15.22c-3.862.894-7.877 1.283-11.876 1.832l4.988 13.39h-5.43l-3.918-13.244c-9.192.356-15.453-.462-21.836-1.21l-2.298 14.453h-5.524l3.73-14.922c-4.343-.813-8.725-1.512-12.362-2.678l-11.294 17.6h-4.974zm17.616-13.675l6.386 1.73-3.12 11.945H70.808l8.416-13.675zm16.492 13.675l1.805-10.553c4.29.846 9.886 1.016 15.786.956l2.774 9.597H95.716zm30.227-9.784l5.038-1.334 7.552 11.118h-9.18l-3.41-9.784zm-73.49-67.153c24.572-28.577 21.304-58.576 7.73-82.774l2.886-2.97c15.696 25.795 19.037 62.47-9.89 90.894-.306-1.714-.726-5.15-.726-5.15zm97.984-32.048c3.53 6.008 5.688 12.09 9.418 18.132l-8.85 11.96-.568-30.092zM44.722 195.83c-.23-18.855.058-57.06.058-57.06l8.29-6.343c9.92 12.042 15.333 43.78-2.48 64.902-1.297-.943-4.824-.55-5.868-1.5zm117.707-3.803c-22.74-38.352-11.176-66.318 10.737-91.152.064 1.914.208 3.82.38 5.727-18.812 21.542-26.337 53.4-7.89 82.223l-3.228 3.202zm-41.176-5.572l10.355-14.11s1.962-5.612 3.615-7.27l1.898-1.68c.633.61 1.837 1.38 1.8 2.082-.04.663-1.016 4.165-1.016 4.165l-12.11 17.708s-3.675-.643-4.543-.895zm55.08-68.487c.326-.37 4.437 1.345 4.437 1.345l.265 57.983-8.23 5.287c-2.388 1.213-21.045-36.84 3.53-64.615zm-86.692 24.426c3.747-5.104 7.693-9.522 11.325-14.21.938.322 3.404.377 3.404.377.262.142-.828 3.89-3.515 6.475-2.7 2.752-9.13 10.293-9.318 14.092-.06 1.172-2.688 2.514-2.688 2.514l-1.872-1.97c.574-2.89 1.47-5.105 2.664-7.276zm-23.37-22.242l8.247-10.696.82 28.42-9.067-17.724zm26.99-72.097L76.934 27.65h7.906l9.724 14.44 11.645-1.33-4.1-13.11h4.825l3.408 12.9c7.143.17 14.124.725 20.9 1.404l3.485-14.305h4.913l-4.458 14.968 13.15 3.452 11.718-18.42h5.82l-16.604 23.783c-21.71-6.52-39.148-5.774-56.005-3.378zm47.067-8.54l3.72-11.878 11.125.013-8.516 13.566-6.33-1.702zm-26.928-2.89l-2.352-8.976h19.616l-2.532 10.034c-5.18-.874-9.912-1.04-14.732-1.06zM89.887 27.65h7.83l3.05 9.288-4.518.512-6.363-9.8z"/><path d="M74.376 26.335l18.906 22.617c3.938-1.41 23.792-3.674 35.702-.957 2.075 8.13 4.27 16.34 6.593 23.742 0 0-.744.868-1.28 1.42-7.606 8.766-2.223 17.23 4.736 19.993-1.254 2.606-14.592 9.097-22.714 8.325.013-.08-2.495-5.957-7.578-3.97-1.738.678-2.454 1.984-3.8 3.262-4.852-1.463-11.26-4.653-14.59-8.16 6.233 3.102 12.37 4.772 18.53 3.95 0 0-.763-.637-1.63-1.034-.52-.24-1.775-.995-2.79-1.678-2.863-1.93-4.766-4.257-6.727-8.236-2.26-4.033-2.626-8.37-3.863-12.196-.655 1.96-.938 7.14-2.647 8.213-.444.29-.525.202-.855-.895-1.306-3.98-6.085-3.478-7.66-.643-.8 2.436-.686 3.506.324 5.77l-2.897 1.61-.005.478-1.783.852-.373-.252c-8.29 4.005-16.418 8.173-24.877 12.008 0 0-4.493 7.454-8.604 10.42l-.16-25.312L32.16 74.667l-.058 6.022s.584.61.874.917c.167 42.374.027 84.06.054 122.528l.057 35.414-.743.043-.04 4.13.84.19-.118 5.832-.436.028-.062 3.693.664.104-.012 20.845-.657.846.015 5.95 12.712-12.078.284-13.737c10.026 1.893 20.508 9.098 20.508 9.098-1.765-11.506-13.96-20.988-20.966-22.88l.022-27.265s-5.207 2.172-7.78 2.505c-1.274.18-1.765-.013-2.373-.933-.443-.67-.454-1.28-.054-2.668.19-.647.182-.817-.052-1.47-.328-.914-.33-1.328-.01-2.943.336-.95.188-1.456-.164-2.335-.38-.94-.408-1.116-.247-1.658.427-1.428.45-1.66.228-2.296-.438-1.245-.452-2.145-.048-2.952 1.874-3.146 6.076-2.37 8.356-2.257 1.155 1.286 1.846 2.004 1.953.14.81-2.223 3.946.054 5.412 1 12.474-16.716 18.626-39.345 2.98-67.667l-8.706 6.966.02-8.72c11.543-7.42 24.53-24.284 30.153-37.583 1.87 2.19 4.018 4.345 6.04 6.555l-1.32 2.213-.392-.22c-3.58 6.83-13.306 19.752-13.462 19.62 3.6 6.672 6.806 13.407 9.53 20.224l.714-.32.64 2.052-1.26.377c4.26 13.97 4.398 26.905 1.193 38.835l.752 3.17s4.505 4.364 5.72 5.647c3.176 3.073 6.715 6.506 6.715 6.506l4.113-4.026-.238-.342 36.055-35.798 2.248 2.15c-22.082 22.24-60.438 60.637-60.438 60.637l-1.33.192c-.755.11-1.873.16-2.585.11-1.173-.08-1.316-.055-2.258.392-1.06.504-1.936 1.25-3.107 2.654-.536.642-.904.917-1.498 1.13-7.518 4.484-.722 13.51 5.673 8.76 4.686 8.952 8.654 19.382 10.843 29.696 0 .075-.84.362-.84.362l-16.85 24.984h6.48l.677-1.15h-4.857l15.5-22.39c19.72 5.373 37.82 6.137 56.19 2.94l15.988 19.45h-6.34l.903 1.15 8.207.13-18.794-22.18c-6.73 1.8-24.48 3.246-35.61 1.36-1.705-8.27-4.512-17.26-6.59-24.413 10.626-8.316 2.647-19.296-3.91-20.826-.317-.6 13.3-8.878 22.998-8.304 2.778 6.67 8.86 5.684 11.043.72 4.023 1.477 9.243 2.95 13.388 6.246-5.526-1.21-11.93-1.872-17.2-1.953 10.024 3.886 12.837 12.075 14.07 19.8.218 1.282.904 2.937.904 2.937.853-2.79 1.552-5.67 3.233-8.06.772 2.733 3.617 4.855 6.486 3.23 1.662-1.205 2.24-3.274 1.715-6.134-.146-.794-.22-1.23-.22-1.23l2.227-1.205.29.246s2.44-1.042 3.653-1.63c.19-.094-.224-.473-.224-.473l22.522-10.62c-.086-.047 5.678-7.914 8.986-10.948.1 9.427.075 13.3.07 24.494l1.27 1.242c1.13 1.1 3.588 3.386 9.13 8.478 1.25 1.146 2.12 1.714 2.12 1.714l-.17-164.866h-.185l-.003-3.172.26-.014.005-8.25-.233-.135-.002-2.6.31-.227.02-22.27-.356-.06-.022-5.343L180.8 46l.094 12.52c-5.603-.725-12.533-4.31-17.304-7.2-1.542-.94-2.402-1.192-2.354-.654.67 7.454 11.46 18.855 19.754 21.838l.014 28.043c0 .015 1.96-.98 3.154-1.48l.18.497 2.674-1.106.217-.576 2.316-.293c.025.472.105.407.105.407 2.065.577 2.98 1.985 2.147 3.566-.29.53-.347 1.282-.106 1.48.896 1.41 1.13 2.655.05 3.99-.417.684-.414 1.07.014 1.794 1.117 2.254.482 2.104-.357 3.447-.19 1.014.922 1.675.557 2.63-.172.63-.836 1.366-1.286 1.7-.528.383-.962-.328-.962-.328s-1.673.717-2.876.947c-1.183.384-3.22 1.07-3.925-.522-.404-.91-.08-1.744-.106-2.764l-1.736-.188-.062 4.63c-.993.528-4.94-1.488-4.94-1.488-16.935 21.95-16.46 46.296-3.9 66.692.123.327 8.85-5.97 8.85-5.97s-.017 5.162.06 7.96c-11.097 9.177-21.813 21.524-29.476 36.745l-4.746-5.626c.816-.72.848-1.865.83-2.73l3.447-5.138.03-1.334 8.96-12.517c.14.75-9.246-16.803-10.496-22.518l.622-.17c-4.212-15.936-3.35-27.096-.306-40.094l-.868-.838-11.822-11.807c-.96.887-1.918 1.777-2.872 2.67-.146.138-.867.057-1.014.193-6.223 5.834-12.203 11.69-18.124 17.773-.152.156.104.805-.048.962-5.93 6.107-12.077 11.904-18.08 18l-2.19-2.09c21.25-21.242 61.284-60.702 61.284-60.702s.173-.313.45-.324c1.113-.042 2.11-.295 3.21-.613 1.318-.307 1.53-.403 2.087-.977.34-.352.896-.843 1.236-1.093.58-.425 1.906-1.54 3.98-3.345 1.266-1.103 2.047-2.708 2.02-4.142-.05-2.553-1.74-4.73-3.916-5.042-.904-.13-2.678.34-3.576.947-.686.464-1.008.675-1.302.468-4.337-8.795-8.558-19.856-10.348-28.984-.096-.575-.044-.745.426-1.47.292-.45.927-1.442 1.416-2.208 3.877-5.605 8.373-12.415 12.592-18.56.7-1.022 2.06-2.988 2.06-2.988l1.028-1.688h-6.687l-.826 1.314h5.504L149.185 51.21c-30.173-9.864-54.898-3.612-55.49-3.478L77.38 27.65h7.46l-.904-1.314h-9.56zm14.685 0l.83 1.314h7.827l-.444-1.315H89.06zm13.05 1.315h4.825l-.277-1.314h-4.948l.4 1.314zm8.634-1.315l.306 1.314h19.616l.35-1.315h-20.272zm23.984 1.315h4.914l.37-1.314h-4.943l-.342 1.314zm9.726-1.315l-.42 1.314h11.142l.835-1.315h-11.556zm47.65 9.094l.175 3.65-8.034 8.468.01 11.82-2.338-.542-.093-12.216 10.28-11.18zm-2.25 7.785c.066 3.62-.52 7.092.438 10.784.472 1.815 1.427 3.946 1.547 6.094l-2.65-.062c-.336-1.085-.467-2.28-.864-3.616-.98-3.29-1.772-6.758-1.05-10.247l2.577-2.955zM132.02 49.12c.097.18.413 1.71.706 3.13 1.39 7.788 3.256 13.567 5.157 19.45 2.417 7.41 5.995 16.74 9.474 21.062.46.54.688 1.153.522 1.422-.282.453-1.702-.18-2.655-1.185-.39-.412-1.14-1.564-1.69-2.597-1.217-2.275-2.85-5.586-3.013-6.11-.065-.212-.706-1.848-1.426-3.634-1.258-3.126-2.003-5.265-3.055-8.74-.833-2.757-1.6-5.642-2.53-8.545-1.522-4.75-2.403-8.528-3.25-12.896-.124-.643-.337-1.39-.26-1.544.482-.346 1.79-.207 2.02.184zm.85.296c-.15-.125 1.38-.15 1.87.262.147.146.406 1.06.63 2.232 1.384 7.166 3.47 14.57 5.892 21.587 1.936 5.605 4.05 11 6.685 15.37.826 1.456 1.944 3.012 3.37 4.693.797.94.86 1.074.646 1.334-.264.318-.725.277-1.614-.145-.83-.395-1.73-1.257-2.572-2.476-.29-.417-.727-1.044-.977-1.393-3.885-6.717-6.243-13.098-8.38-19.58-2.192-6.645-4.162-13.366-5.5-21.112l-.05-.772zm4.88 1.01c.342.347.536 1.01.834 2.394 1.617 6.644 2.94 12.58 4.853 18.033 1.028 2.934 1.918 5.865 3.02 8.628 1.763 4.415 3.917 8.437 6.565 11.785.873 1.103 2.458 2.463 3.79 3.253.922.548 1.06.688 1 1.006-.08.284-.98.403-1.276.382-1.457-.25-3.61-1.378-4.225-2.214-4.453-4.813-7.638-12.69-9.958-19.152-3.986-11.126-7.2-25.023-6.59-24.592-.04-.324 1.595.047 1.99.478zm1.916.402c.145.002.307.027.488.077.832.227.94.344 1.14 1.262 1.426 6.354 2.935 11.956 4.617 17.284 1.714 5.424 3.476 10.538 6.222 15.903 2.014 3.915 4.562 6.62 7.304 7.99.787.393 1.49.77 1.56.84.073.07.054.275-.042.455-.146.27-.312.325-.98.314-1.244-.02-2.116-.41-3.452-1.306-3.5-2.414-6.562-7.88-7.912-10.98-1.648-3.784-3.163-7.716-4.53-12.003-2.45-7.69-3.978-12.78-5.098-19.27 0-.372.252-.572.684-.565zM192.13 61.21l-.025 2.253c-8.814.585-17.853-3.143-25.117-6.496 5.473 7.26 11.314 13.7 25.117 15.03l.024 2.324c-17.98-.253-30.64-18.46-29.975-22.996 7.394 4.777 20.752 10.3 29.974 9.886zm-49.616-9.536c.432.02 1.014.202 1.242.43 1.47 5.485 2.54 11.574 4.97 17.687 2.983 7.51 4.64 14.14 10.173 20.325 1.72 1.77 5.094 1.716 5.094 1.716s-.426.958-1 1.117c-1.187.18-2.046.233-2.91-.046-3.206-1.353-5.656-4.776-6.922-7.097-1.186-1.738-4.078-8.902-6.462-16.206-2.596-7.952-4.735-16.22-4.49-17.885.09-.034.16-.045.304-.038zm2.963.923c.21 0 .492.08.83.242.362.17.52.277.707.956.122.442.102 1.126.318 2.237 1.25 5.727 2.973 10.377 4.684 14.907 1.626 4.304 3.37 8.53 5.52 12.35 1.086 1.924 2.163 3.724 2.843 4.402 1.85 1.853 4.993 1.944 5.92.106.514-1.045.408-2.7-.608-3.557-.788-.75-2.572-.433-2.62.475 0 .24.443.134 1.087.058 1.796-.208 2.36 2.974.048 3.504-2.926.672-4.956-3.284-2.373-5.708 4.377-2.97 7.72 1.087 6.685 4.987-1 2.306-2.675 3.48-4.887 3.562-2.855.09-4.037-.792-6.965-5.048-3.356-5.387-4.812-10.645-7.178-16.535-2.237-5.57-3.727-11.512-4.428-16.7.06-.16.203-.24.415-.24zm2.776.92c.258.01.802.146 1.042.294.144.09.35.287.35.287 3.937 14.363 7.22 22.967 10.56 29.04 0 0-.054 1.116-.275 1.434-.398.57-.594.43-1.112-.468-2.103-4.07-4.104-8.563-5.97-13.195-2.194-5.45-4.143-11.094-4.968-16.463.042-.692-.113-.886.373-.927zm26.553 8.21c.557 0 1.01.45 1.01 1.006s-.453 1.01-1.01 1.01-1.01-.453-1.01-1.01.453-1.005 1.01-1.005zm-81.792-.183c-1.167 1.59-2.124 7.282-3.34 7.352-1.334-.02-2.96-.787-4.007.42-1.273 1.468-.492 3.09 1.077 3.983.722.355 2.258.44 3.19.173 3.82-1.28 5.27-7.48 3.08-11.93zm85.61 1.493c.805 0 1.455.655 1.455 1.46s-.65 1.455-1.456 1.455-1.455-.65-1.455-1.455.65-1.46 1.454-1.46zm-85.543.692c1.307 3.28-.138 7.208-1.73 8.53-1.463 1.217-3.762 1.373-5.074.188-1.094-1.027-.606-3.495 1.43-3.312.688.022 1.504.646 1.964 1.306 1.326.137 2.856-6.594 3.41-6.713zm90.62.8c.907 0 1.643.737 1.643 1.645s-.735 1.644-1.644 1.644c-.908 0-1.645-.736-1.645-1.645 0-.908.737-1.644 1.644-1.644zm5.82 1.16c.926 0 1.677.752 1.677 1.68s-.75 1.676-1.678 1.676-1.678-.75-1.678-1.677.75-1.68 1.677-1.68zm-54.16 7.63c.25-.003.426.237.59.72.34 1 .333 1.116-.198 1.787-5.158 7.142-.456 14.443 7.02 15.235.63.045.946.754 1.28 1.58-.046.39-.05.39-1.745.42-1.11.022-1.998-.048-2.553-.197-2.618-.705-5.827-3.07-7.14-5.264-1.51-2.525-1.763-5.138-.83-8.622.598-2.235 1.357-3.712 2.532-4.93.468-.485.794-.728 1.044-.73zm48.905.79l.087 24.502-2.61.952.106-26.057 2.417.604zm4.938.947c3.25 8.072 3.396 15.47.46 22.202l-2.966.428c4.067-9.483 2.338-16.272.04-22.825l2.466.194zM33.258 76.402l10.556 9.962.367 110.98-1.68-.593-.673-109.16-8.57-7.857v-3.33zm103.088.32c.018 0 .035.002.053.004.282.034.54.39.777 1.063.28.793.275.815-.038 1.603-1.45 3.55-.268 6.93 3.31 7.995.85.27.99.406 1.488 1.46.324.684.47.93.344 1.082-.186.136-.64.198-1.986-.092-5.323-1.816-7.255-7.638-4.834-12.258.303-.528.578-.815.832-.855.017-.002.034-.004.052-.004zm-42.38-.44s1.112 3.927 1.005 4.817c-.28 1.72-2.727 4.472-4.866 5.476-1.984.76-4.98.378-6.235-.942-4.556-5.33 3.942-10.684 6.08-5.133 1.284 3.643-3.94 4.504-4.172 1.707 0-.722.232-.947.904-1.416.598-.417.528-.787.015-.787-1.973.72-2.018 2.537-1.13 3.684 1.776 1.858 3.976.776 5.49-.588 2.042-1.838 2.442-4.475 2.91-6.82zm44.074 4.05c.103 0 2.19 4.99 2.467 5.7-.07.5-.615.464-1.546-.186-.945-.66-1.228-1.127-1.628-2.658-.12-.544-.323-2.526.708-2.855zM95.662 82.44c.46 0 .938 1.687.72 2.552-.375 1.496-4.297 4.025-7.052 4.548l-1.314.247c-.57.102-1.235-.218-1.93-.924-.487-.498-.72-.993-.603-1.11.096-.097 1.36.123 2.43.106 3.003.034 5.32-2.12 7.102-4.686.27-.404.562-.735.647-.735zm-59.67 1.25s2.033 1.838 3.105 2.892c-.115 4.894-1.922 10.2-1.92 14.573.044 3.806 2.506 6.974 2.756 10.285.148 2.143-.48 5.323-1.537 7.733-.983 2.244-1.5 4.637-1.498 6.96.125 5.407 4.008 11.318 2.644 16.667-1.28 5.023-2.74 7.926-2.354 10.595.745 5.147 3.482 9.71 2.755 13.993-.68 3.987-2.48 7.97-2.286 11.566.222 4.152 1.774 7.623 2.213 11.41.286 2.468-.41 6.306-.41 6.306l-2.85.235c1.567-5.833-.767-11.107-1.66-16.714-.76-4.773 1.378-8.57 2.016-12.644.396-2.53-.052-4.938-1.305-8.16-2.476-5.946-1.586-9.823.198-15.002 2.206-5.516-.827-9.883-1.585-15.168-.39-4.554-.087-7.773 1.624-11.822 1.275-3.898 1.635-6.158-.266-9.9-1.2-2.363-1.515-3.76-1.517-6.872.62-6.175 2.288-9.638 1.88-16.933zm61.03 2.462c.44 0 .66.312.66.942 0 1.152-1.717 2.61-4.755 4.04-1.576.74-2.49.852-3.413.416-.86-.407-.817-.764.126-1.04 2.375-.692 4.06-1.64 5.98-3.363.61-.548 1.24-.995 1.4-.995zm-13.748.794c7.837 8.39 15.522 12.706 21.397 14.724l-.923 2.193c-7.72-2.99-15.595-7.15-22.266-16.09l1.794-.827zm15.1 1.37c.21 0 1.01 1.013 1.01 1.28 0 .16-.29.666-.647 1.123-.52.663-.977 1.006-2.27 1.715-1.756.96-2.816 1.195-3.578.793-.758-.4-.503-.736 1.387-1.847.975-.572 2.276-1.498 2.89-2.054.613-.555 1.154-1.01 1.207-1.01zm-20.76 1.238c6.42 8.785 14.69 14.622 24.41 17.736l-1.53 2.065c-8.88-3.06-17.562-8.594-25.496-18.34l2.617-1.46zm22.422 1.083c.323 0 1.05.818 1.05 1.184 0 .177-.143.498-.314.717-.344.437-2.136 1.784-2.9 2.18-.598.31-1.046.305-1.696-.02-.773-.385-.642-.707.618-1.518.617-.397 1.55-1.134 2.074-1.635s1.05-.908 1.168-.908zm-25.828.64c-.183.23-9.453 21.463-29.094 36.518l-.092-3.526C55.9 115.64 63.81 103.83 69.775 93.513l4.433-2.237zm27.695 1.525c.297-.008.507.193.715.59.25.474-.022.896-1.12 1.726-.687.52-.94.62-1.51.608-1.46-.025-1.424-.378.18-1.812.83-.745 1.353-1.1 1.735-1.112zm37.928 1.05l4.095.313c1.103.767-16.002 11.96-27.86 10.957l.314-2.683c10.41.297 23.735-8.105 23.45-8.59zm-35.117 1.047c.94.526 2.11 1.15 1.82 1.353-.437.272-3.213.096-3.853-.246-.48-.257-.452-.39.208-1.132.81-.907.95-.464 1.825.024zm-36.495-.667c-6.488 11.445-14.215 21.893-23.158 28.698l-.12-6.053c8.513-6.553 14.956-18.522 14.973-18.565l8.305-4.08zm81.258.73l1.983 1.158c-12.372 11.45-25.733 16.387-38.572 15.15l1.032-2.32c20.836 1.647 34.67-13.766 35.556-13.988zm3.007.405s.665-.084.594.052c-4.107 4.025-9.746 8.322-13.44 10.72-17.492 17.964-32.465 32.14-47.702 48.14l-2.436-2.548 2.204-2.334c.008-4.61 5.653-9.78 9-13.762 1.397-1.573 4.02-5.622 3.723-7.322-.103-.39-.116-.536-.116-.536 5.295-1.058 6.562-5.35 6.676-9.146.247-2.537.586-4.842 1.44-6.926 23.96 1.92 39.397-15.72 40.057-16.338zm-41.754 2.65c2.717-.01 4.77 2.14 4.765 5.19-.022 1.275-.472 2.243-2.2 5.617-1.675 2.883-1.894 4.638-2.552 7.968l-1.703-1.53-3.098 2.79.043-4.066s1.07-1.357 2.797-3.298c2.19-2.432 4.172-5.562 4.08-7.32-.057-1.76-1.915-3.19-3.815-2.04-1.65 1.153-2.413 3.24-3.385 9.482-.172 1.105-.333 2.408-.424 2.692-.244.768-2.633 3.026-2.633 3.026-.202 0-1.146-4.58-1.146-4.58l-2.413.397c2.796-3.034 4.964-6.694 6.374-10.526 1.297-2.364 2.945-3.778 5.31-3.803zm-52.498.97s-4.804 9.98-13.236 16.47l-.055-3.906c4.9-3.8 8.634-10.348 8.628-10.334l4.664-2.23zm115.62.253c-16.675 17.268-38.438 49.06-11.43 93.726l3.568-4.117c-21.748-40.397-6.336-61.334 7.98-82.342l-.118-7.267zm-90.167 1.426c4.882 3.47 9.98 6.917 16.568 9.107-.35 1.174-9.41 8.798-2.91 15.846.272.368-.42 1.267-1.478 2.54-3.105 4.243-6.206 7.266-8.802 12.044l-.106 8.976-2.596-2.29-.675-46.224zm89.526.826l.112 5.12c-24.776 30.11-21.986 57.223-7.98 82.194l-2.684 2.722c-22.955-39.507-8.633-69.29 10.553-90.036zm-61.122 3.03c-1.093 2.884-5.87 7.827-5.87 7.827s.632-4.814 1.03-6.333c.304-1.16.99-2.726 1.668-3.476 1.93-2.12 3.854.288 3.172 1.98zm-32.872-2.708l.465 40.343-3.48-3.51-.514-30.85 3.53-5.983zm-4.704 7.895l.693 27.39c-3.477-8.206-8.362-17.19-8.46-17.102 0 0 3.998-5.304 7.767-10.29zm27.506 8.57s.53-.446 1.363-1.402c1.808-1.825 1.972-1.837 1.805.624-.064.946-.01 2.16-.01 2.16 1.057-.613 3.55-3.558 4.254-3.026.543.512.983 1.578.994 3.234-.062 3.243-1.896 6.222-4.805 7.192-8.028 2.486-13.413-6.772-7.838-12.643.554-.585 2.133-1.665 2.89-1.45.94 1.715.907 3.618 1.346 5.31zm79.653-2.91c.468 1.276 1.065 2.54 2.69 3.112-.248 39.225-.06 108.67-.06 108.67l7.887 7.4-.052 3.234-10.454-9.57c0 .002-.56-81.894-.01-112.847zm7.835 1.817c.28 3.795-.362 7.79.29 11.688.643 2.695 1.616 5.125 1.696 7.777.073 2.425-.084 3.805-1.12 7.192-.724 2.363-.796 2.74-.962 5.104-.39 3.29.673 6.272 1.488 8.894 1.084 3.477.782 7.68-.952 13.225-.624 1.995-.743 2.837-.652 4.646.24 3.796 1.596 7.404 2.286 11.13.373 2.137-.01 4.93-1.324 9.668-.49 1.764-1.006 4.834-1.006 5.995 0 1.245.398 3.59.783 4.6 1.825 4.796 1.914 5.654 2.01 8.535.012 2.164-.613 4.353-1.38 6.257-1.28 3.042-.44 6.166 0 9.585l-3.146-2.687c-.927-2.927-.6-5.663.26-7.846 1.223-3.42 1.53-3.735 1.513-5.7-.023-2.608-1.518-5.69-2.137-7.525-1.098-3.255-1.102-6.447-.01-9.89.536-1.69 1.31-5.005 1.484-6.35.334-2.59.08-4.63-1.22-9.823-.633-2.532-.767-3.51-.81-6.032-.042-2.335.297-4.764 1.048-7.578 1.08-4.475 1.067-7.16-.34-11.31-1.136-3.432-1.453-5.758-1.163-8.488.167-1.585.6-3.07 1.328-4.554 1.347-3.363 1.553-6.58.55-9.793-1.723-6.572-1.694-9.912-1.524-15.845l3.01-.875zm-8.836 2.15c-.275 26.882.003 57.656.003 57.656s-7.963 5.576-7.93 5.286c-10.263-16.92-14.173-41.845 3.75-64.325 0 0 2.884 1.232 4.176 1.383zm-121.113 6.408c14.522 27.115 16.412 54.508-7.6 82.61.773 2.484.647 4.8.262 7.066 4.68-3.644 42.22-41.14 10.604-93.347l-3.267 3.672zm74.005-2.207l7.133.418.48 6.136-2.306 2.286s-.044-1.268-.074-2.4c-.036-1.388-.232-2.6-.362-2.56-.12.04-.25 1.66-.353 3.423l-.105 2.636-.798.798c-1.063 1.062-1.278.98-1.32-.518-.088-3.254-.08-3.476-.318-3.238-.135.134-.21 1.247-.242 2.93-.025 1.335-.12 2.614-.208 2.842-.18.466-1.537 1.677-1.88 1.677-.33 0-.312-.47-.314-2.494-.002-1.708-.18-2.645-.454-2.016-.065.15-.18 1.846-.203 3.225-.025 1.378-.115 2.637-.2 2.793-.295.554-1.696 1.738-1.942 1.644-.354-.137-.44-1.15-.43-2.843.006-.83.136-1.53-.184-1.755-.32-.225-.377.734-.29 3.17l-.024 2.65-.895.976c-1.417 1.46-1.515 1.39-1.518-1.13.062-1.995-.008-2.87-.4-2.713-.394.158-.237 1.123-.16 3.09.07 1.757.047 2.637-.072 2.86-.096.178-.555.696-1.02 1.15-.466.454-1.04 1.083-1.107 1.083-.108-2.117-.29-6.675-.29-6.675l-7.438-.33s1.523-1.808 2.17-2.155c.336-.18.86-.2 2.727-.12 1.27.055 2.98-.053 3.132-.11.56-.216-.606-.407-2.25-.514-1.094-.078-1.378-.05-2.594-.227l1.082-1.117.812-.807 2.373.077c1.436.048 2.503.04 2.668-.054 1.406-.276.09-.597-1.512-.6-1.562-.002-2.446-.005-2.446-.348 0-.35 1.75-1.936 2.248-2.04.257-.053 1.53-.104 2.827-.115 2.23-.018 3.04-.05 2.915-.42s-1.603-.262-2.586-.306c-2.73-.003-2.857-.106-.99-1.74l.903-.792 1.71.048c2.582.073 3.833-.03 3.833-.275 0-.22-1.68-.435-3.108-.435-.853 0-1.546.015-1.546.015.636-.83 1.32-1.504 2.067-2.243l2.306-.043c1.683.024 2.717.09 2.745-.218s-.603-.305-1.377-.31c-1.047-.007-2.29-.097-2.455-.26-.177-.178.153-.67.885-1.325l.752-.682zm-70.617.08c19.953 32.594 12.75 67.813-9.497 89.734l-.653-4.276c21.003-25.54 24.67-51.913 7.68-82.942l2.47-2.516zm37.106 4.376c-3.58 5.387-9.058 10.7-11.125 15.1-.424.493-.562 1.61-1.22 1.832-.326 0-.434-.62-.352-2.06.062-1.082.163-1.445.687-2.503 2.827-5.16 6.104-8.87 9.72-13.77l2.29 1.4zm.84.522l3.312.21c-.735 2.343-1.73 4.015-2.9 5.535-1.502 1.95-3.31 3.915-5.415 6.313-3.05 3.473-4.577 7.01-4.435 8.563-.764.805-1.293 1.358-2.262 2.183l-1.932-1.777c1.432-7.345 8.367-14.094 13.633-21.027zm40.512 2.983l1.073.06c3.672.216 5.963.44 6.095.6.082.1.19.663.242 1.253.08.896.003 1.49-.47 3.625-.31 1.403-.658 2.648-.772 2.765-.423.43-.592 0-.788-1.99-.12-1.204-.166-2.08-.324-1.983-.075.047-.24 1.34-.193 2.3.124 2.508.107 3.122-.672 3.878-1.363 1.323-1.44 1.19-1.54-1.16-.044-.975-.276-2.396-.345-2.465-.295-.296-.395 1.056-.396 3.34v2.436l-.647.705c-.845.916-1.12 1.056-1.43.744-.193-.193-.122-.61-.122-2.002 0-1.63-.285-2.57-.595-2.257-.058.06-.073 1.638-.077 3.012-.003 1.375-.02 2.59-.037 2.702-.05.33-1.598 1.885-1.876 1.885-.325 0-.585-1.796-.585-3.264 0-.98-.21-1.152-.415-.613-.052.135-.092 1.51-.092 2.745v2.243l-.91.94c-1.215 1.257-1.412 1.183-1.415-.538-.003-1.482-.102-2.267-.4-2.267-.173 0-.214.702-.214 2.368 0 1.144-.074 2.274-.164 2.514s-.488.766-.885 1.17c-.396.404-.803.734-.903.734-.168 0-.407-1.403-.344-2.01.014-.127.014-1.012 0-1.967-.03-2.28.123-2.182-3.514-2.296-4.268-.134-4.33-.16-3.045-1.402 1.22-1.18 1.05-1.136 3.877-.947 2.27.15 2.546.142 2.774-.087.14-.138.22-.29.176-.332-.044-.044-.91-.123-1.924-.18-2.81-.155-3.055-.357-1.866-1.546l.672-.677h2.876c1.94 0 3.26-.085 3.333-.2.187-.303-.583-.378-2.43-.486-.99-.06-1.924-.14-2.073-.185-.47-.14-.294-.612.498-1.354l.764-.714h2.538c2.356 0 3.51-.154 3.51-.465 0-.22-.47-.307-1.68-.322-1.71-.022-2.85-.188-2.928-.42.417-.81.994-1.26 1.668-1.935l2.58.092c2.6.093 3.413 0 3.413-.454 0-.235-1.112-.405-2.552-.317-.927.056-2.05-.166-2.05-.493 0-.14.373-.63.83-1.083l.838-.82 2.527.1c1.41.058 2.914.043 3.026-.033.42-.287-.554-.512-2.142-.604-2.448-.142-2.608-.333-1.314-1.557l.822-.784zm-88.144 1.352c13.097 23.452 11.135 45.546-2.812 64.35-1.602-.934-3.308-1.442-5.133-1.635l-.354-56.624 8.298-6.09zm93.668 9.165c.263-.04.258.39.184 1.3-.06.73-.168 1.497-.246 1.7-.15.397-.27.415-1.542.233-1.448-.207-1.427-.47.165-2.035.77-.758 1.21-1.162 1.44-1.198zm-70.312 1.054s1.726-.01 2.588.02c0 0 .134 4.39.486 6.92l5.613.27-2.18 2.267-4.256-.136s-1.293-6.23-2.25-9.34zm66.89 2.654c.79-.014 2.865.343 3.108.585.19.188.195.657.028 3.488-.06 1.02-.12 3.214-.135 4.873-.024 3.004-.025 3.016-.372 3.064-.458.065-.51-.095-.634-2.073-.07-1.112-.224-2.088-.354-2.13-.15-.05-.136.932-.136 2.962v2.625c-.446.37-.86.86-1.372 1.12-.314 0-.482-.492-.64-1.864-.153-1.364-.304-2.324-.486-2.02-.043.07-.025 1.555.062 2.773l.16 2.22-.986.99c-1.012 1.02-1.14 1.103-1.3.84-.378-1.01.156-5.64-.755-6.225-.146-.076-1.356-.11-2.76-.17-2.37-.1-3.715-.138-4.046-.424-.2-.173.92-1.47 1.493-1.73.415-.188.884-.198 2.838-.067 2.262.15 3.403.134 3.103-.156-.076-.075-1.228-.244-2.13-.333-1.82-.18-2.46-.362-2.46-.7.423-.75.94-1.193 1.565-1.837l.88.092c.483.05 1.628.17 2.542.275.915.105 2.76.122 2.016.06.242-.243-.7-.49-2.01-.653-2.47-.306-2.692-.585-1.45-1.808l.763-.75c1.297.098 2.605.13 3.892.328.94.15 1.45.096 1.45-.223 0-.223-.47-.214-1.605-.44-.412-.08-2.536-.05-2.57-.676.5-.695 1.4-1.96 2.3-2.016zm-57.518 5.32c.377-.02.396.898.436 3.322.043 2.654.086 3.112.313 3.34.22.217.763.292 3.094.41 3.568.182 3.66.233 2.4 1.445-.875.845-.912.738-1.633.653-1.886-.22-4.644-.17-4.75.005-.188.302.015.362 1.74.493 2.098.16 2.672.235 2.672.59 0 .158-.358.618-.794 1.025l-.793.74-2.21-.087c-2.323-.095-3.518-.127-3.518.188 0 .19 1.327.4 3.432.608.547.054 1.105.063 1.136.155.075.228-.987 1.545-1.643 2.033-.534.398-.714.177-3.046.126-2.38-.053-2.585.038-2.14.478.104.105.498.117 1.386.18 1.457.102 2.156.32 2.156.68 0 .346-1.313 1.705-1.93 1.997-.542.258-.774.27-1.977.102-.947-.132-1.127-.33-1.103-1.218l.154-5.768c.144-5.354.188-5.626.896-5.524.303.043.373.407.454 2.224.087 1.932.167 2.314.488 2.314.12 0 .14-.766.063-2.63-.117-2.89-.12-3.318.76-4.156.392-.372.704-.67.89-.4.372 1.14.266 2.385.376 3.528-.01 1.15.438 1.392.542.295-.053-1.74-.066-3.3-.077-5.157l1.073-1.063c.57-.562.927-.915 1.153-.928zm-6.955 2.167c.427-.07 2.816-.03 3.162.05-.6.95-1.88 2.185-2.755 2.73-.22.012-.448-2.304-.406-2.78zm67.655 5.255l.508 3.57-3.9-.265 3.392-3.305zm-52.56.58c.026-.003.05.003.068.01.28.107.36.797.474 4.113.053 1.56.16 2.783.256 2.9.113.136.6.202 1.503.202.734 0 2.117.047 3.074.102 2.087.12 2.143.208.9 1.436l-.843.83-2.614-.104c-2.682-.11-3.128-.065-3.128.304 0 .25.458.37 1.315.35.34-.01 1.192.035 1.895.1 1.565.147 1.598.266.43 1.523l-.84.904-.817-.11c-1.313-.182-4.765-.138-4.964.062-.322.32.096.46 1.667.556 2.438.148 2.862.22 2.862.498 0 .135-.345.59-.764 1.01l-.76.76-3.092-.16c-2.17-.037-2.91 0-2.96.14-.082.244.273.32 2.51.552 2.147.222 2.46.443 1.644 1.46-.896 1.115-1.233 1.24-2.924 1.077-1.86-.18-3.762-.185-4.036-.01-.43.27.012.452 1.334.55 2.002.15 3.17.364 3.17.658 0 .33-.662 1.183-1.305 1.672l-.527.4-2.286-.24c-2.277-.243-3.442-.122-3.118.202.094.095.94.228 1.88.295 1.718.125 2.57.347 2.57.7 0 .106-.437.627-.97 1.156-.543.537-1.15.893-1.15.893l-7.038-.632s-.36-1.255.348-4.67c.637-3.075.898-3.766 1.203-3.193.085.16.164.906.223 1.417.142 1.234.445 2.01.628 2.01.205 0 .204-.733-.062-2.46-.37-2.406-.413-2.5.503-3.47.785-.83 1.23-1.026 1.474-.648.068.105.162 1.196.256 2.11.163 1.61.26 1.98.47 1.77.134-.134.234-.595.086-2.98l-.188-2.32 1.03-1.05c.94-.958 1.048-1.024 1.236-.778.13.17.274 1.167.344 2.354.102 1.756.242 2.334.497 2.078.123-.12.063-4.108-.066-5.03-.084-.605-.042-.692.72-1.548.91-1.02 1.386-1.44 1.635-1.445.325-.006.504.995.506 2.326.002 1.42.114 1.98.247 2.16.34.457.38-1.146.3-2.73l-.092-2.89.94-.94c.886-.887.958-.926 1.207-.676.206.206.192.696.275 2.155.125 2.018.52 3 .634 1.6.06-.316.05-.934-.02-1.372-.07-.44-.128-1.435-.126-2.21.003-1.18.06-1.495.348-1.962.414-.675 1.642-1.727 2.027-1.765zm40.655 2.2s1.57 1.342 1.57 1.725c0 .17-.62.908-1.464 1.735-1.554 1.523-1.7 1.785-1.88 3.422-.067.61-.375 1.42-1.093 2.86-.55 1.106-1.344 2.398-1.344 2.398-2.48 2.962-4.82 5.676-9.166 11.93-.248.575-.262 1.15-.515 1.628-.197.354-.636.645-.83.726-.285.118-.86.474-1.275.79-1.623 1.24-2.67 2.873-3.142 4.902-.255 1.098-.406 2.083-.85 5.467-.184 1.39-.793 3.812-.793 3.812-9.34-.133-18.083 1.485-25.878 5.885l46.658-47.283zm12.48 1.435l2.078 9.44-2.14-.044-.214-6.854-6.68-.638 2.388-2.31 4.568.406zm-10.136.865c.572.583 1.284 1.223 1.803 1.855-1.786 5.97-7.442 13.718-13.06 21.403l-4.118-.45c-.074-.17 5.703-8.223 8.467-11.276 1.054-1.274 1.77-2.484 2.71-4.363.338-.68.933-2.44 1.39-4.274.97-1.17 2.813-2.877 2.807-2.895zm2.22 2.093l3.11 3.156.762 44.692c-4.802-3.768-10.46-6.56-16.493-8.683l1.053-2.402 1.16-1.246c4.104-4.44 3.19-9.222.068-12.602 3.803-5.545 7.247-9.677 10.146-15.09l-.04-3.712c-.034-3.42.233-4.112.233-4.112zm-37.243 1.865c.326-.032.368.794.45 3.138.077 2.19.17 3.23.314 3.456.194.306.382.332 2.968.41 2.73.084 3.296.163 3.296.455 0 .084-.35.505-.777.935l-.777.778-2.432-.04c-1.294.042-2.825.017-2.865.054-.215.2.595.472 1.778.474.738.003 1.91.134 2.045.185.46.178.245.632-.76 1.596l-1 .968-2.208-.044c-1.214-.02-2.69.014-2.88.077-.673.225-.34.406.772.422 1.857.025 3.14.18 3.194.47.027.14-.317.655-.773 1.145l-.826.885-3.248-.136c-3.072.023-3.486.252-.924.508.978.098 2.52.34 2.576.348s.143.124.193.257c.107.28-1.13 1.673-1.79 2.015-.338.175-.574.187-1.164.053-.69-.157-3.666-.128-3.986.062-.27.16.314.347 1.14.363 1.244.024 2.728.385 2.728.68 0 .245-.63 1.025-1.3 1.61-.312.272-1.05.03-3.104.098-1.407.047-2.345.18-2.345.272 0 .086.698.36 1.596.425.888.063 2.105.276 2.188.358.21.21-1.373 2.076-1.373 2.076l-6.754-.094-.62-7.156.575-.662c1.292-1.493 1.574-1.276 1.832 1.4.19 1.963.33 2.563.614 2.277.105-.104.063-1.224-.043-2.87-.087-1.356-.16-2.593-.16-2.746 0-.374 1.536-1.987 1.837-1.93.296.057.46.725.62 2.557.13 1.506.2 1.916.497 1.62.14-.14.16-.928.02-2.833l-.183-2.49.652-.772c1.308-1.552 1.564-1.38 1.725 1.14.107 1.7.27 2.597.585 2.597.104 0 .107-1.272.043-3.19l-.097-2.882.817-.83c.45-.456.908-.827 1.015-.827.317 0 .5.724.7 2.432.226 1.914.3 2.243.484 2.06.078-.078.062-1.236-.044-2.727l-.228-2.852.996-1.01c.55-.554 1.1-.986 1.223-.962.3.06.493.92.517 2.142.02 1.14.216 2.12.47 2.374.124.125.16-.576.13-2.61-.05-3.132-.13-3.37 1.28-4.84.378-.392.623-.645.794-.663zm36.464 1.28l.03 4.37c-1.752 3.75-5.8 9.243-9.904 15.14l-2.142-1.16c5.134-6.73 9.427-13.003 12.016-18.35zm-58.62 1.374c.097-.002.204.002.324.01 1.107.064 1.138.446.106 1.41-.432.405-.924.726-1.11.726-.32 0-.336-.048-.238-.88.12-1.023.244-1.26.918-1.266zm66.9 3.152l3.026 2.977.76 32.007-3.187 5.194-.6-40.18zm3.79 4.218c2.728 6.418 5.562 12.437 8.7 17.317l-8.09 11.42-.61-28.737zm-27.213 9.976c3.72-.052 7.145 2.892 7.575 5.883.813 3.434-.956 7.134-3.858 8.27-1.012.363-1.604.388-1.604.388-.353-2.07-.2-4.065-.67-6.168 0 0-1.74 2.296-2.722 3.1-.507.28-.734.355-.668-.31.034-1.162.122-3.742.122-3.742l-4.297 4.446s-.35-.48-.764-1.59c-1.35-3.612.402-7.386 3.17-9.12 1.207-.793 2.48-1.138 3.718-1.156zm57.172-.27l.082 3.913c-6.744 5.228-16.364 16.246-24.607 30.604l-3.63 1.53c5.593-13.363 17.4-26.973 28.155-36.046zm.073 5.145l.07 5.83c-5.95 5.72-11.12 11.63-15.62 19.238-2.627 1.262-7.492 3.658-7.492 3.658-.61-.147 13.256-21.732 23.042-28.727zm-60.026 4.993c.27-.004.257.522.17 1.282-.19 1.722-.394 2.347-1.023 3.186-2.18 2.573-5.643 6.073-6.114 9.33-.238 1.738 1.12 3.365 2.452 3.2 4.144-.52 4.59-7.88 4.938-11.514.146-.9.212-1.655.362-1.94.873-1.113 1.812-2.2 2.99-3.08l.507 5.628 2.335-.778c-6.584 8.946-4.69 9.507-8.164 13.172-3.228 3.406-9.487-.474-7.885-5.652 1.392-3.483 3.547-6.98 4.128-10.712.158-1.108.25-1.878.25-1.878l1.497 3.123c.76-.753 2.984-3.235 3.556-3.367zm60.27 1.93l-.015 4.018c-3.07 3.457-5.72 6.11-8.854 10.89l-4.98 2.27c3.253-6.195 8.587-11.99 13.85-17.177zm-60.856 3.545s.33 1.875-.398 5.28c-.345 1.615-1.9 6.33-4.355 5.22-2.086-1.844.457-5.262 1.737-6.877.99-1.16 2.065-2.413 3.017-3.622zm-6.556.48l-1.358 2.906c-12.203.044-24.055 4.408-34.603 13.32l-2.668-.874c11.174-10.57 25.028-15.708 38.628-15.35zm12.828 2.235c13.752 4.604 20.102 11.323 25.304 18.37l-2.175 1.114c-5.45-7.054-12.178-13.51-24.705-17.242l1.576-2.242zm-15.756 4.344l-.585 2.49c-7.7.23-15.83 2.963-23.737 8.453l-2.852-.454c7.96-6.245 17.05-9.81 27.174-10.49zm35.196 16.816l-2.44 1.153c-7.29-9.456-13.88-12.147-21.37-14.556l.81-2.1c10.06 2.673 17.444 7.78 23 15.503zM44.13 215.573l.213 25.233-1.758-.35-.25-24.404 1.796-.48zm-4.068 1.37c-3.35 12.55-.752 15.8.46 23.125l-2.774-.444c-2.7-7.42-2.978-14.17-.7-22.05l3.014-.632zm84.292 1.926c.21.198-.17.814-.686 1.12-.5.295-.39.25-1.19-.04-.777-.28-1.77-1.015-1.77-1.294.57.01 3.15-.017 3.646.213zm2.364.178c.458.056 1.786.03 1.87.445.03.247-.49.65-1.557 1.377-1.617 1.104-2.167 1.322-2.643.797-.45-.497-.318-1.012.44-1.71.74-.68 1.166-.912 1.89-.91zm-55.242.275c.927 0 2.586 1.146 3.586 2.475 1.015 1.588 2.18 3.218 3.123 4.824 2.14 3.65 3.793 7.354 5.177 11.146 3.623 9.016 5.75 17.758 7.516 26.444-.033.73-.668.718-1.188.546-.27-.087-.54-.27-.595-.406-.75-2.128-1.01-4.303-1.58-6.438-1.43-5.34-1.943-8.4-4.7-15.93-1.43-3.91-3.5-9.35-5.76-13.53-1.45-2.68-3.127-5.157-5.303-7.347-.575-.572-1.29-1.096-1.29-1.208 0-.37.36-.577 1.014-.577zm58.77.29c.858.212 2.933.455 2.146 1.142-2.914 1.12-3.86 2.335-5.403 3.57-.234 0-1.156-1.14-1.156-1.42 1.252-1.54 2.832-2.2 4.412-3.29zm-54.555.01c1.22-.044 2.41 1.53 2.974 2.522 3.747 5.514 6.955 13.378 9.595 21.084 2.84 8.294 4.643 16.27 5.427 21.93-.067.174-.42.24-.822.236-.768-.006-.876-.184-1.072-.794-1.954-9.36-4.578-19.024-7.753-27.227-1.706-4.37-3.64-8.76-6.36-13.166-1.856-2.722-2.91-4.148-2.828-4.36.056-.146.36-.22.72-.22.037-.003.08-.006.12-.007zm-8.376.164c1.645-.005 4.364 1.945 6.212 4.45 3.915 5.37 6.156 11.64 8.482 17.726 2.67 6.973 4.596 14.723 5.747 20.823.195.874.516 1.257-.31 1.53-1.25-.355-1.222-.32-1.575-1.84-.487-1.634-.636-3.284-1.098-4.945-2.64-9.498-5.597-20.04-10.508-28.617-5.9-9.444-7.616-6.817-8.565-8.483.072-.376.73-.64 1.614-.643zm14.196 2.306c5.07 8.82 7.305 14.237 8.848 19.565 2.337 8.075 5.104 14.522 6.32 23.95 0 0-1.332.024-1.866-.193-.22-.22-.455-1.16-.595-1.934-1.217-6.656-3.2-14.533-5.307-20.74-2.27-6.907-4.973-13.478-8.967-19.826-1.046-1.71-1.245-2.383-.604-2.412 1.144.078 1.647.96 2.17 1.59zm52.82-.942c.235.002.33-.03.76.116.67.23.885.378.922.644.056.387-.36.513-1.657.816-1.02.238-3.01 1.3-4.394 2.45-.642.534-1.194 1.107-1.348 1.107-.318 0-1.078-.836-1.078-1.185 1.06-1.617 4.432-3.84 6.796-3.947zm-69.858.217c4.292.132 7.65 5.116 9.41 8.48.687 1.314 1.576 2.745 2.248 4.247 3.483 7.788 6.44 17.556 7.884 23.796.694 3.002 1.497 5.203 1.213 5.79-.353.224-1.1.054-1.445-.236-.22-.186-.34-.873-.73-2.127-1-3.216-2.658-12.407-6.978-22.065-.097-.216-2.188-6.326-5.8-12.122-1.472-2.36-3.85-3.842-6.02-4.326-1.09-.178-1.414-.05-1.347-.638.042-.375.16-.478.744-.662.26-.083.534-.13.822-.137zm26.826 19.92c-.294 0-.554-.562-.75-1.48-.096-.452-.228-.774.62-1.306 5.323-5.66.745-13.974-5.946-14.697-.62-.095-1.42-.097-1.652-.184-.34-.192-.963-1.397-1.234-1.88 9.248-2.24 19.062 10.997 8.962 19.546zm46.067-18.498c.55.137 1.75 1.25 1.6 1.492-.18.29-1.216.3-2.71.565-3.182.563-4.545 2.637-6.023 4.176-.33.1-.62-.128-.914-.628-.216-.37-.39-.812-.39-.986 1.65-2.408 6.08-4.84 8.437-4.62zm-75.068.71c2.704 0 5.405 1.31 6.926 3.445 5.55 8.307 11.786 26.77 13.273 35.88-.15.292-.546.323-1.314.1-.43-.123-.377-.26-.648-1.105-1.743-6.636-3.653-13.077-5.9-18.986-1.16-3.046-2.522-6.02-3.805-8.695-.813-1.692-2.446-4.702-3.065-5.622-1.46-2.742-4.408-3.546-6.268-2.66-1.923 1.04-2.165 3.525-.7 4.628 1.215.85 3.132.71 3.835-.605.242-.464.166-1.04.01-1.187-.15-.142-.422-.1-.48.053.1 1.615-1.958 1.72-2.856 1.083-1.437-1.074-.48-4.472 3.433-3.105 1.51.794 2.016 2.297 1.3 3.892-.732 1.632-1.868 2.374-3.62 2.363-2.128-.038-4.54-1.53-4.56-4.215.007-2.003.935-3.67 2.674-4.785.643-.415.895-.48 1.763-.48zm22.897 1.246c6.56.302 9.574 8.024 6.124 12.684-.88 1.113-1.437.91-1.812-.527-.185-.59-.39-.68.14-1.136 3.072-2.944.55-8.667-4.515-8.898 0 0-.943-1.377-1.038-2.108.338-.124.793-.016 1.102-.016zm54.71.533c.497.12 1.552 1.132 1.552 1.487 0 .42-.207.34-1.373.14-2.76-.493-5.523 1.104-7.83 4.588-1.12 2.09-1.258 1.894-1.847.092-.302-.925-.308-.904.865-2.61 2.19-2.81 5.424-4.093 8.634-3.698zm2.566 3.542c2.308 2.097 1.23 6.715-1.89 7.193-2.75.316-5.194-2.656-3.46-4.68 1.126-1.223 2.535-1.348 3.4-.296.897 1.084.52 2.562-.758 2.716-.148.053-.27.168-.27.256 0 .27 1.13.196 1.517-.116.775-.855.79-2.164.096-3.098-.613-.827-1.923-1.485-2.973-1.06-1.85.663-3.735 3.172-4.813 6.333-.304.89-.48 1.724-.61 1.92-.263.402-.243.392-.487.236-.214-.136-.61-2.07-.61-2.808 0-.56.484-2.04 1.123-3.307 2.003-3.72 6.51-6.22 9.734-3.288zm-56.26-.94c2.69.163 4.814 3.97 3.646 6.618-.36.488-.883.82-1.124.513-.088-.11-.5-1.354-1.073-2.673-.573-1.32-1.1-2.607-1.263-2.93-.428-.914-.736-1.536-.186-1.527zm-18.253 2.21c3.06 5.42 5.62 11.638 7.743 17.705 1.654 4.73 3.01 9.366 3.79 13.466.073.414.176.63-.006.812-.3.3-1.762-.447-1.762-.447-2.56-8.818-4.626-17.66-10.72-28.892 0 0-.265-.445-.335-.736-.082-.703.123-1.593.552-2.09.172-.185.405-.198.737.182zm-34.342 10.24c14.473.972 25.67 7.07 31.65 23.18-2.126-1.198-12.904-9.468-31.486-10.564l-.03-2.233c13.32-.11 26.314 6.824 26.044 6.724-4.955-10.22-17.407-14.358-26.22-14.628l.04-2.48zm100.416 3.255c-.91 1.43-.87 1.37-1.31 2.605.052.4.124 2.898.185 4.354.076 1.857.13 2.666.275 2.843.248.298.752.346.972.076.087-.106.237-.507.338-.89 1.195-4.513 1.757-6.202 2.238-6.762.317-.408.425-.37 1.735-.223 2.95.263 3.953-3.253 2.025-4.668-2.58-1.433-5.317.973-6.457 2.665zm3.115.96c-2.108 1.733-2.17 4.23-2.81 6.532-.343 1.547-.826 2.36-1.02.028-.36-3.238.092-5.656 1.496-7.558.87-1.398 2.297-2.34 3.58-2.43 2.76-.194 3.043 1.994 2.275 3.168-.556.855-2.103 1.227-3.52.258zm-99.7 1.04c1.04 0 1.884.846 1.884 1.887 0 1.04-.845 1.885-1.886 1.885s-1.885-.846-1.885-1.886.843-1.886 1.884-1.886zm6.006 1.292c.932 0 1.688.75 1.688 1.68 0 .932-.756 1.69-1.687 1.69s-1.68-.758-1.68-1.69c0-.93.75-1.68 1.68-1.68zm5.478 1.845c.757 0 1.367.615 1.367 1.373s-.61 1.373-1.367 1.373c-.758 0-1.373-.614-1.373-1.372s.615-1.373 1.373-1.373zm3.886 2.46c.585 0 1.06.48 1.06 1.064 0 .584-.475 1.058-1.06 1.058s-1.063-.474-1.063-1.06c0-.585.48-1.062 1.064-1.062zm-13.616 3.384c-.403 2.043-.088 4.144.382 5.592 1.072 3.12.584 8.706.584 8.706l-3.142 3.146c.226-2.932.573-6.01.412-8.472-.112-1.634-.852-3.16-1.043-4.8-.177-1.52.092-4.557.092-4.557l2.716.384zm5.09.94l.11 13.322-10.754 10.42-.015-2.75 9.168-9.09-.194-12.346 1.685.444zm26.52 30.38l-.705 1.15h12.132l.257-1.15H70.81zm15.705 0l-.285 1.15h5.616l.188-1.15s-2.954.003-5.52 0zm9.203 0l-.18 1.15h20.853l-.31-1.15H95.715zm24.37 0l.333 1.15h5.553l-.46-1.15h-5.427zm9.285 0l.407 1.15h9.546l-.793-1.15h-9.16z"/></g></svg>