<svg version="1.2" baseProfile="tiny" xmlns="http://www.w3.org/2000/svg" xmlns:xlink="http://www.w3.org/1999/xlink" width="225" height="314" viewBox="0 0 225 314" preserveAspectRatio="xMinYMin meet"><defs><style type="text/css">use { fill: #d40000; } .maxi-card { display: none; } .mini-card { display: block; } @media (min-width: 75px) { .maxi-card { display: block; } .mini-card { display: none; } }</style><path id="suit" d="M28.5 0l20.112 29L28.5 58 8.388 29z"/><path id="numeral" d="M0 0v2.87h2.937v24.98H0v3.092h8.532V27.85h-2.26v-7.086l3.426-4.75 5.14 11.835h-3.28v3.092h9.305V27.85h-2.226l-6.814-15.215 6.474-9.81 2.4.046V0h-9.24v2.87h2.663L6.27 14.917V2.87H8.6V0z"/></defs><rect width="100%" height="100%" fill="#fefefe"/><g class="mini-card"><use xlink:href="#numeral" transform="matrix(3.5 0 0 3.5 78.4 33.95)"/><use xlink:href="#suit" transform="matrix(2 0 0 2 55.5 170)"/></g><g class="maxi-card"><use xlink:href="#numeral" transform="translate(7 12)"/><use xlink:href="#suit" transform="matrix(.4 0 0 .4 6 51)"/><use xlink:href="#numeral" transform="matrix(-1 0 0 -1 218 302)"/><use xlink:href="#suit" transform="matrix(-.4 0 0 -.4 218 263)"/><use xlink:href="#suit" transform="matrix(.8 0 0 .8 38 40)"/><use xlink:href="#suit" transform="matrix(-.8 0 0 -.8 186 274)"/><path fill="#131F67" d="M30.534 26.113c.085 79.125.927 176.365.984 262.545l163.717-.04-1.09-262.124-163.61-.38zm48.394 1.678c28.246.768 56.666-.06 85.12.16 0 0-10.337 18.01-13.47 23.676-.687 1.247-.757 2.13-.387 2.646.572.8.525 2.152-.115 2.935-.274.335-.4.553-.42.753s.16.42.304.782c.505 1.727-.8 2.92-2.168 3.476-.917.37-2.958.616-4.465.545-9.442-.448-27.962-8.428-35.593-9.05-5.295-1.48-12.137-.962-17.777-.643-1.064.064-.878-2.418-.878-2.418-.89-8.2-6.696-15.336-10.152-22.86zm86.656.75l26.692.028.12 4.31-11.23 11.513c-1.06 1.078-1.894 1.97-1.894 1.97l-.067 10.388c-7.656-4.113-9.182-9.03-10.58-14.437-12.8 9.443-13.398 30.106.574 40.744.113-4.62 3.635-13.7 9.875-14.374l.087 35.993-7.675-7.496-16.687.218c2.75-4.464 2.812-8.01 1.033-12.192-3-6.836-7.63-22.44-7.274-22.388 0 0 .132-.335.51-.42 1.384-.308 2.264-1.643 1.87-3.248-.076-.517-.073-.396.278-1.066 1.358-2.316-.26-4.83-.26-4.83l14.626-24.71zm-88.53.217l10.017 18.105s-.13.83-.076 1.317c.08.7.313 1.324.715 1.978.265.433.46 1.023.52 1.568.1.898.1.9 1.414 2.085.276.25.33.404.227.662-.435 1.1-.18 3.35.682 6.034 1.087 3.39 1.368 3.347-.656 7.882-.423.947-.933 2.212-1.482 3.374-2.5 5.134-2.885 6.526 1.405 9.263 1.207.77 1.56 1.438 1.26 2.974-.238 1.206-.287 1.978.293 2.658.377.44.718.514.623.854-.064.23-.345 1.236-.25 2.08.25 2.275-2.377 5.627-4.774 6.802-.48.34-.617-.075-.89-.55-2.483-4.352-8.668-2.59-9.078 2.6-.108 1.373-.066 1.97-.42 2.26-.12.1-.482.305-.482.305s-9.255 6.018-15.142 9.11c-.384.203-.73.536-1 .59-.312.063-.545.007-.738-.187-2.173-4.133-.968-9.015-.782-10.745-.046-.612-.57-.724-1.36-.733-1.34-.016-3.265 1.342-3.684 2.606-.355 1.076-.584 1.772-.907 1.768-.325-.005-.483-.438-1.29-1.988-1.677-3.226-1.936-3.634-3.504-5.508-1.25-1.494-2.316-1.692-3.543-.58-.852.775-.823.103-1.55-.288-1.25-.853-3.134-.09-3.18 1.11-.04 1.006-.048 1.763-1.067 1.83-1.135.072-1.627 1.538-1.308 3.628.168 1.1.2 1.277-.136 1.68-1.098 1.315-1.24 2.224-.637 4.06 1.722 5.233 4.216 8.757 6.56 13.516 0 0-5.955 3.38-9.49 5.343l-.09-97.37 43.8-.093zm115.725 5.175l.14 84.585-12.782-12.564s-.25-16.21-.236-22.836.108-13.253.082-14.485c-.027-1.232.066-6.476.106-11.86.083-11.276-.948-9.883 1.148-12.047l11.54-10.793zm-24.98 10.14l.704 2.043c-5.356 3.07-11.91 20.17.12 32.726l-.24 2.588c-12.61-11.438-10.275-27.84-.585-37.355zm.917 2.414c1.838 3.794 3.93 7.153 6.78 9.21-1.534 3.666-2.195 7.71.406 13.163-1.824 1-4.36 3.657-6.984 9.103-9.493-9.59-7.38-23.494-.203-31.477zm-70.622 7.168c5.265.01 10.756.868 15.79 2.385 3.174 16.047 8.75 26.837 8.726 33.12 0 0-.438-.073-1.374-.748-2.294-1.655-5.305-.73-6.917 1.376-1.53 1.998.01 4.776-.773 5.942-1.482 2.172-5.298 6.19-5.938 6.058-.466-.097-.39-.3 1.245-2.81 1.703-2.613 3.01-4.98 2.447-5.56-.24-.247-.365.272-1.637 2.48-2.983 5.18-5.607 8.385-6.646 7.97-.487-.196-.236-.625 1.974-3.544 2.494-3.296 3.187-5.358 2.94-6.27-.19-.7-.578.432-1.613 2.456-1.103 2.144-3.098 4.532-4.71 6.825-.512.83-1.168 1.31-2.008 1.69-.623.27-1.616.71-2.19.637-.297-.038-.093-.213.312-.608 3.183-3.278 5.92-6.933 7.472-10.44.24-.46-.104-1.115-.497-.633-2.382 4.19-5.697 9.42-9.298 11.726-.772.494-1.935.913-2.982.825-1.772-.05-1.146-.444.468-1.48 3.454-2.22 8.302-8.6 9.084-10.855.186-.533-.02-.838-.36-.802-2.843 4.547-6.598 9.55-10.963 11.643-2.354 1.128-5.32 1.35-6.778.637-1.068-.522-.8-.702 1.096-.825 4.564-.45 9.912-4.734 12.56-9.268 1.55-2.51.463-1.934-1.308.488-3.022 4.132-9.022 8.094-12.743 7.78-3.763-.223-5.928-3.14-5.444-5.638.292-1.512 1.366-3.053 3.47-3.494 3.605-.757 5.963 4.95 2.665 6.028-1.123.366-1.55.09-1.144-.362 2.446-1.07 1.358-4.01-.705-4.31-1.3-.19-2.805.685-2.868 2.697.038 1.5 1.272 2.967 3.75 3.002 2.938.04 7.445-2.073 10.18-5.966 1.94-2.976.154-1.972-1.293.014-1.278 1.752-5.4 4.202-5.716 4.113l.14-2.02c.062.35 6.35-3.954 5.98-7.156-.235-2.325.104-3.036 2.524-3.008 1.81.02 4.11.655 4.778 1.486.69.82 1.462 1.08 1.12-.305-.555-2.246.11-2.616-1.192-2.19-.898.295-1.695-.427-2.597-1.066-.99-.704-2.245-1.005-3.74-.95-1.118.04-1.622-.028-1.443-1.082.125-.743.268-1.42.053-1.906-.35-.793-1.75-1.61-3.33-2.775-1.867-1.374-1.52-1.455 2.456-10.623 1.67-3.85 1.678-4.64.676-7.48-1.583-4.492-1.832-6.29 1.134-6.918 1.676-.194 3.406-.29 5.16-.286zm16.84 2.6l1.54.44c.013.002 4.81 16.415 7.555 24.43.838 2.444 1.477 5.748 1.637 8.852-.075 4.272-2.48 7.34-5.416 7.675-2.076.238-4.33-.84-5.36-3.15-.87-2.2-.215-4.792 2.292-5.687 4.34-1.55 7.52 3.99 3.263 5.695-2.2.882-4.293-.708-3.302-2.56.695-1.296 2.65-1.155 3.113.185.377 1.427 1 .754.734-.212-.808-3.076-4.76-2.352-5.078.483 0 3.513 3.846 4.338 6.14 2.365 1.777-1.576 1.964-4.426 1.52-6.897-.61-5.134-3.516-11.793-5.58-19.394-1.03-3.794-2.523-8.32-3.056-12.22zm61.268.185l2.89 1.144-.066 9.527-2.452.846c-3.21-4.903-.54-11.512-.372-11.517zm-58.602.617l2.12.815c1.16 6.726 6.632 19.583 8.562 29.18.538 5.766.624 7.458-3.282 10.53v-.043h-2.114s-.008-.13.917-.82c5.116-3.827 2.062-12.26.13-18.74-3.366-10.348-6.374-20.936-6.332-20.923zm-19.804.67c-.27.004-.54.015-.815.03-3.195.17-3.72.376-3.73 1.07-.02 1.31.518 1.89 3.49 1.57 2.572-.28 6.3.12 8.866 1.226 2.93 1.26 3.625 1.558 4.678 2.1 2.643 1.36 2.18.007-.208-1.564-4.88-3.21-8.253-4.48-12.28-4.432zm23.058.464l1.99.76s.524 1.55.713 2.437c1.936 8.586 7.2 18.242 7.814 28.285.14 3.292-.424 6.36-2.837 7.844h-1.82c1.946-1.935 3.242-2.493 2.7-9.22-.862-8.638-6.56-19.43-8.56-30.105zm3.528 1.396l1.834.676c2.112 11.595 12.584 28.918 5.918 37.277h-1.665c1.486-2.32 2.1-4.357 1.877-7.487-.65-10.535-6.023-20.76-7.965-30.467zm3.075 1.067l1.974.604c2.682 11.747 12.98 30.998 5.64 36.322l-1.448-.04c5.53-10.342-2.855-21.043-6.165-36.887zm3.442 1.095c.605.337 1.472.5 2.132.69 2.078 8.883 5.875 17.618 7.603 25.89.582 4.53-.412 7.923-3.258 9.21h-.608c2.553-3.854 2.07-8.718.71-13.973-1.835-7.067-5.395-14.842-6.58-21.817zm-31.106.155c-.917-.01-1.876.13-2.89.454-1.04.393-.913 1.212.052 1.043l1.29-.228c2.367-.413 5.285.44 8.822 2.583.854.517 1.782 1.016 2.013 1.187.65.485 1.344.483 1.106-.135-.096-.247-1.46-1.304-2.665-1.98-2.576-1.558-4.974-2.898-7.726-2.924zm34.46.772l1.987.305c3.742 17.19 11.953 27.872 4.93 34.25h-1.757c1.92-1.962 2.79-5.035 2.152-8.668-.65-3.71-2.566-9.595-4.155-14.77-1.842-6-3.326-11.075-3.157-11.117zm2.852.482l1.685.314c1.975 6.988 5.325 15.65 7.343 22.865 1.24 4.438.742 9.9-2.027 10.91l-1.424.022c2.35-3.14 2.686-6.412 1.612-10.643-2.205-8.682-5.54-16.26-7.188-23.467zm10.397.01c1.702 7.244 5.786 18.296 7.254 22.112 1.953 3.895 1.367 9.666-1.568 11.95l-1.39.028c1.678-1.57 2.255-4.214 1.987-6.955-.756-7.746-6.24-18.49-8.225-26.74l1.94-.396zm-7.39.343l1.738.16c1.74 7.576 5.126 14.942 7.323 22.52.41 1.71.766 3.8.622 5.34-.3 3.225-1.636 5.768-2.81 5.768h-1.196c2.444-2.913 2.324-6.886 1.278-11.155-1.73-7.056-5.912-15.564-6.955-22.633zm-45.242.04c-.724.003-.736.665.42 1.68.708.618.654.412.613.805-.172 1.68.093 3.215.782 1.487.185-.462.454-.982.725-.918.51.158.25 1.095.497 1.57.416.835-.026 1.04-1.038.78-.73-.186-.77.21-1.222.71-.792.878-.663 1.402.555 1.13.2-.045.37.012.526.048.378.087.726.328 1.63 1.02 1.162.886 2.81 2.067 3.876 2.248 1.71.29 1.33-.53-.072-1.066-1.2-.46-2.688-1.736-2.684-2.09.003-.27.38-.11 2.544-.705.938-.26 2.258-.836 2.813-1.092.918-.423.962-.42 2.4-.376 2.447.072 2.82-.01 1.104-1.284-3.468-2.573-8.097-4.25-10.55-3.18-.745.322-.728.124-1.266-.185-.7-.403-1.274-.586-1.653-.584zm49.65.23c2.404 9.263 7.055 17.56 8.187 26.346.256 2.513-.166 4.968-2.254 7.09l-1.41.025c-.206.004 1.968-3.358 1.78-6.235.058-1.535-.11-3.183-.55-4.808-2.73-7.81-5.42-14.89-7.51-22.334l1.757-.082zm-43.417 3.042c.014-.002.025-.002.038 0 .657.103.68.363.488.705-.282.505-.78 1.477-.78 1.477s-.666.13-.803-.04c-.24-.348.638-2.092 1.058-2.142zm1.665.298c.072 0 .163.036.304.092.63.25 1.723.76 1.25 1.154-.56.467-2.726.677-2.62.482l.724-1.337c.152-.282.22-.388.342-.39zm-6.637 8.095c-.056.003-.103.017-.14.04-.125.074.16.577.575 1.147 1.917 2.587-.737 3.354-2.616 1.97-1.785-1.388-4.54-1.257-4.143.197.14.512.003.762 1 .776.884.013 1.112.062 1.91.608 3.052 2.087 6.994-.707 5.068-3.702-.362-.564-1.26-1.06-1.654-1.037zm7.53 4.04c-1.107 0-1.808.826-.42 1.074 4.957.89 1.633 6.028-1.863 3.38-3.15-2.843-7.363-2.823-7.414-.806-.007.508.017.524.763.666 1.756.332 4.378 1.13 5.383 1.636.59.298 1.21.576 1.38.618 2.1.763 4.79-.23 5.324-1.996.487-1.618.093-4.573-3.154-4.573zM41.487 95.792c.664.008 1.37.588 1.873 1.438 1.163 1.964 2.578 5.266 3.48 7.085.227.46.235.87.222 1.087.07 1.066.43 1.47 1.062.99.623-.474 1.486-1.265.473-1.392-1.02-.768-1.586-1.896-.955-2.582.464-.506.282-.834-.092-.854-1.428-.02-3.557-4.27-2.554-5.184 1.354-1.235 2.852.294 6.038 6.617 1.405 2.792 1.47 5.85.266 4.335-.41-.382-.326-.185-.806 1.02-.36.902-.657 1.33-2.032 2.653-1.675 1.61-2.69 2.883-2.727 3.16-.072.535.904.037 1.616-.892 1.593-1.555 1.652-1.97 1.638.092-.013 1.863-.11 2.204.227 2.19.523-.02.803-1.493 1.048-3.27.29-1.604 1.124-2.41 2.51-3.303.38-.244.387-.413.313-1.12-.256-2.263 1.03-6.483 1.617-5.44.083.236.337.785.473 1.17.11.595.484 1.267 1.058 1.312.71.532.71.82.955 2.77.08.637.36 1.593.56 2.1.368.946.696 1.5.492 1.78-.13.14-.405.402-.405.402l-11.604 6.878s-.91.504-1.24.642c-.92.416-1.48.108-1.932-.58-2.457-3.66-4.145-7.774-5.873-11.568-1.037-2.253-.02-3.742 1.318-1.926.52.705.254 1.155-.005 2.52-.047.246.182.152.612.222.678-.072 1.005.532.98 1.56-.43 1.47.163.677.443.603.537.008.655.33.956.94.19.862.567.613 1.12.045.458-.47.46-.46-.463-1.56-1.593-1.726-3.8-5.62-4.373-7.993-.157-.655-.1-1.178.02-1.526.72-1.62 1.722-1.626 2.814.638.186.385.55 1.006.81 1.38.42.607.682 1.13.667 2.095-.323.81-.376.826-.097.937.692.274 1.924 1.525 1.98 2.646.055 1.138.247 1.74 1.143 1.066 1.022-.77.587-1.08-.42-2.065-1.054-1.254-1.117-2.342-.49-3.248.102-.304.058-.39-.33-.352-1.224.118-2.414-1.433-1.563-2.61.393-.692.346-.87-.207-.89-.288-.01-.765.045-1-.087-.36-.68-1.117-1.627-1.11-2.403.358-1.094.912-1.535 1.497-1.528zm72.725.058c2.012 1.233 4.004 2.518 6.266 3.104-5.238 9.435-13.663 14.49-20.712 16.465.24 1.206.41 2.41 1.578 3.15-.04-.183-.558-2.325-.444-2.766 9.712-2.48 18.26-11.993 20.446-16.898l42.68-.464c-31.64 30.35-32.9 73.066-7.086 108.87l-2.97 1.732c-19.89-29.796-19.688-58.503-13.722-77.727 4.23-13.63 11.82-24.043 17.59-29.994 0 0-23.14-.318-34.658.106-1.673 2.56-3.23 4.648-5.478 7.065 0 0 5.852-5.65 5.7-6.632 10.674-.006 21.68-.623 32.34.12-12.474 14.928-18.622 30.34-19.688 44.837-.04 1.886-.154.832-.777 1.525l-1.97 3.055-1.578-3.176c-1.074-.347-3.184.213-4.08-.11-4.388 19.577.047 43.206 5.82 58.626 0 0-1.448.812-3.232.676-1.953-.434-2.43.105-4.122.45-1.945.368-2.625.366-3.056.857-.24.273-.673.655-1.163.922-4.74 1.722-10.3 8.177-10.3 8.085l-5.22-2.34c4.81-9.442 10.45-12.84 20.37-17.03l-.922-4.218c-10.564 3.935-17.287 8.646-22.59 17.8-6.433-.09-32.49-.273-32.518-.192 10.63-12.087 19.01-30.318 19.925-44.532.225-2.77-.162-1.438 1.062-2.264l1.927-2.293 1.512 2.26s1.094 1.394 1.785.232c1.938-19.82-.11-42.424-9.663-58.178 1.694-.112 3.383-.16 5.006.8 3.735 8.46 5.937 18.912 6.893 26.747 1.21 9.916 1.038 21.1-.193 30.598l.637.087c1.862-12.343 1.23-25.47-.478-36.944-.878-5.984-3.702-15.347-5.644-19.668-.536-1.194-.952-1.503-.444-1.68 11.64-.978 16.99-4.862 21.17-11.062zM81.94 96.893c.89 0 1.612.722 1.612 1.612 0 .89-.722 1.61-1.612 1.61-.89 0-1.61-.72-1.61-1.61-.002-.89.72-1.612 1.61-1.612zm87.48.82c-3.406 3.084-6.145 6.28-9.02 9.688 8.512 11.706 17.972 24.395 25.925 34.532 0 0 2.753-1.632 2.742-1.835-.006-.106-.22-.646-.27-.525-.12.28-2.23 1.462-2.23 1.462L161.395 108s1.364-1.634 1.785-2.148c1.956-.643 7.398-7.384 7.665-7.245 4.265 3.267 17.125 17.114 22.078 21.36l.062 38.435c-.513 1.538-14.223 7.464-23.907 29.574-4.87 2.73-10.265 4.196-15.28 6.57 0 0 1.276 2.007 1.9 2.557-.767-1.656-.9-1.972.835-2.68l36.235-14.77-.067 2.983-.588 5.15c-9.86 6.08-18.184 8.63-31.756 17.802-.97.226-1.75 1.156-2.77 1.206-34.672-51.06-12.51-89.53 7.697-108.86l4.138-.22zm-112.903 2.61c.946.017.707 2.21.357 2.97-.698.55-1.396.062-1.38-.966.004-.335-.062-.65-.146-.705-.524-.334.354-1.31 1.17-1.298zm21.176 1.373c.796.604 1.09 1.41 1.385 2.215-1.074-.168-3.95-.992-2.602-1.635l1.217-.58zm-5.238 2.852c25.006 37.817 23.887 77.983-4.02 108.43l35.307-.054c4.495-8.868 11.98-14.273 21.562-17.603l.835 2.785c-11.01 3.535-16.58 9.395-21.012 17.512h-42.11c16.18-17.407 23.592-32.11 24.758-52.004 1.11-18.944-3.71-36.245-18.347-57.062l3.025-2.002zm7.047.435l5.898 2.784-.873 6.054-6.18-2.848 1.155-5.99zM68.87 106.68c31.536 47.708 18.01 81.266-7.17 109.193l-4.638.077-10.812-10.044.197 61.035s-10.542 10.328-11.753 11.565c-1.197 1.152-2.095-.617-2.095-.617l.027-80.912.47-3.17.144-17.436 6.72-3.543 25.196 33.024s-1.013 1.493-1.482 1.76c-.306.17-.08.467.174.433.708-.093 2.727-2.35 2.303-2.712-9.14-11.322-26.132-33.493-26.132-33.493l-7.075 3.693s.204-14.476.077-20.03c.27-1.313 1.254-.96 1.916-1.546 8.148-5.237 13.89-11.63 17.435-17.83.26-.464 1.83-3.247 1.984-3.5.553-.9 1.924-3.718 2.723-5.517.446-1.006.92-2.225 1.1-2.37 4.903-1.597 10.05-3.862 14.974-5.898l-7.09-10.645 2.81-1.514zm-19.328.61c-.266-.005-.942.303-1.858 1.134-1.69 1.533-3.917 4.053-3.924 4.532.453.163.854-.098 1.217-.464 1.413-2.086 3.6-2.902 4.88-4.73.198-.338-.012-.477-.315-.473zm15.886 2.215s4.893 7.128 6.145 9.02c-12.894 5.105-26.385 11.85-38.335 16.21v-2.858l1.888-5.13 30.302-17.242zm19.182 4.71l4.82 2.49-1.36 5.44-4.865-2.722 1.405-5.207zm3.976 9.05l3.963 2.888-1.81 4.614-3.993-2.746 1.84-4.754zm-32.334 3.385s-.61 2.14-1.637 4.055c-4.904 8.52-9.702 16.092-19.616 22.667-.378-.336-1.46-2.226-1.46-2.226l-.095-2.524c5.256-4.222 9.792-7.32 16.753-19.713l2.018-.82 1.72.742 1.162-2.075 1.154-.107zm20.625.02c-4.57 9.69-9.064 19.688-16.344 27.24l19.92 27.81c6.555-19.635 4.12-38.035-3.576-55.05zm-25.066 2.113l-.954 1.655 1.655.956.957-1.655-1.656-.957zm-2.702.18c-3.608 8.068-9.025 14.276-16.136 18.74l-.275-11.84 16.41-6.9zm1.27 2.407l-.956 1.656 1.655.955.956-1.654-1.656-.956zm40.714.348l3.59 3.408-2.133 3.76-3.684-3.046 2.226-4.122zm55.016 1.675c-.004.002-.007.006-.01.01-6.31 19.616-4.416 38.354 4.243 54.664 4.25-10.572 7.736-17.647 16.03-28.903-5.106-6.688-19.75-25.983-20.262-25.77zm-97.14.313l-1.004 1.627 1.627 1.004 1.005-1.627-1.627-1.004zm27.537 2.288c5.69 13.6 5.188 25.863 2.162 36.49l-14.21-17.95c5.206-6.46 8.663-12.58 12.048-18.54zm-29.005.05l-1.076 1.577 1.578 1.082 1.077-1.583-1.58-1.077zm-1.587 2.258l-1.178 1.51 1.506 1.18 1.178-1.512-1.505-1.178zm46.815 1.607l3.22 3.054-2.032 3.963-3.268-2.987 2.08-4.03zm-48.673.743l-1.236 1.453 1.452 1.235 1.235-1.452-1.452-1.235zm103.795.43l14.336 18.495c-4.795 5.707-8.78 12.43-12.342 19.68-3.994-12.517-5.797-24.813-1.994-38.176zm-105.81 1.872l-1.32 1.38 1.38 1.322 1.322-1.38-1.38-1.322zm33.49 1.85l-6.56 9.483 7.52 9.6c.81-5.196.992-11.23-.96-19.084zm-35.626.308l-1.41 1.294 1.294 1.41 1.41-1.295-1.294-1.41zm-2.072 1.848l-1.486 1.208 1.207 1.486 1.48-1.207-1.2-1.486zm56.026.98l2.693 3.148-2.73 3.24-2.56-2.878 2.598-3.51zm34.24.566l1.83.067c-3 29.594 2.897 44.566 8.114 57.59 0 0-.013.52-.188.675-.85.292-2.57.608-3.948-.604-7.02-18.04-8.55-40.264-5.807-57.728zm-92.674.38l-1.55 1.12 1.12 1.55 1.55-1.12-1.12-1.55zm114.656 1.054c-.466 0-.87 12.175.883 18.12l6.6-8.94-7.483-9.18zm-17.057 2.008l2.205 2.964-2.34 3.19-2.395-3.02 2.53-3.134zm-99.39.805c.11-.018.293.29.647.536.33.344.282.317-.087.612-.577.46-.75.386-.74-.333.05-.592.094-.803.18-.817zm60.355 2.226l2.438 3.488-2.698 3.47-2.307-3.653 2.568-3.306zm38.84 4.42l2.568 3.128-2.205 3.432-2.804-3.277 2.443-3.283zm59.458.66l.227 3.607-.888-1.318-1.632 1.25 1.14 1.51 1.424-1.11.086 1.453c-9.043 6.536-12.944 14.043-16.613 19.675l-1.632.69-1.858-.59-.907 1.607-1.578.372c-.048-.01 3.17-6.9 8.674-13.916 4.9-6.245 13.53-13.287 13.556-13.23zm1.047 5.643l.077 12.82-16.185 6.252c4.202-7.157 9.154-13.798 16.108-19.072zm-4.02-1.558l-1.477 1.21 1.273 1.464 1.472-1.213-1.27-1.462zm-2.274 1.93l-1.425 1.27 1.327 1.414 1.424-1.28-1.327-1.405zm-54.047.71l3.05 3.248-2.234 3.837-3.177-3.045 2.36-4.04zm51.748 1.366l-1.336 1.367 1.463 1.404 1.337-1.364-1.463-1.405zm-2.103 2.16l-1.283 1.418 1.554 1.347 1.284-1.42-1.555-1.346zm-2.114 2.417l-1.19 1.496 1.615 1.25 1.192-1.5-1.617-1.246zm-46.482 2.298l3.813 2.476-1.863 4.538-3.808-2.9 1.86-4.113zm44.64.018l-1.12 1.555 1.723 1.178 1.135-1.607-1.74-1.127zm-1.724 2.452l-1.038 1.607 1.742 1.12 1.033-1.66-1.737-1.067zm-1.54 2.428l-.956 1.656 1.806 1.027.956-1.676-1.806-1.007zm-1.39 2.51l-.955 1.656 2 .863.79-1.58-1.833-.94zm-37.92 1.023l3.906 2.646-1.73 4.755-4.12-2.916 1.945-4.484zm56.624 4.678l.193 97.83-42.992.15s-2.01-3.538-6.216-11.71c-1.78-3.46-3.287-4.93-3.442-7.67.16-1.61-.582-3.436-1.9-4.17-.443-.248-1.185.05-.938-.64.272-.757-.563-1.923-.79-2.17-.262-.44-.1-.546-.127-2.178-.026-1.577-.11-2.236-.45-3.427-.853-3.01-1.043-4.513-.554-6.073 1.27-3.957 2.594-6.992 4.306-10.682.994-2.16.843-3.003-2.212-4.57-2.287-1.175-2.59-1.163-2.303-2.878.136-.804.26-1.31.092-1.7-.103-.235-.482-.566-.704-.757-.3-.255-.21-.78.097-1.173.3-.384.302-.933.005-1.85-.625-1.925.79-4.477 3.46-6.24 1.182-.78 1.148-.617 2.38.676 3.6 3.78 8.948 1.406 8.96-3.924.002-1.662-.564-1.563 1.008-2.347 5.325-3.39 16.256-9.552 16.184-9.384.712 1.45.95 2.69 1.4 4.252.39 1.34.338 1.442.193 4.05-.132 2.356-.202 2.904.352 3.055 3.155.348 3.875-.768 4.48-2.804.26-.9.764-.717 1.075-.338 1.2 2.185 2.72 4.456 3.717 6.01 1.247 1.982 3.347 2.97 4.446 2.03.23-.77.42-.793 1.814-.477 1.69.384 2.65-.562 2.814-1.806.064-.495-.297-.476.607-.965 2.244-1.66 1.39-3.93 1.053-5.295.03.072.96-.565.98-1.844.106-6.64-5.647-16.2-5.518-15.953l8.53-5.03zm-54.282 3.822l4.566 2.206-1.076 5.455-4.692-2.11 1.202-5.55zm44.43 2.028c2.63 3.05 4.532 8.133 5.513 11.445.485 1.648.544 3.53.112 3.792-.427.26-.626-.018-.546-1.004.067-.82.09-1.457-.26-1.447-1.022.264-1.06-1.282-.956-1.645.07-.242.195-.413.25-.545.252-.6-.405-.52-1.086-.526-.602.015-.757-.352-.73-.922-.017-.633-.854-.51-1.33-.03-.437.44-.346.957.245 1.318.847.52 1.648 1.796 3.624 6.198 1.146 2.556.807 4.37-.56 4.35-.948-.03-2.053-2.625-2.944-4.538-.23-.494.347-1.047.55-1.312.524-.688.445-.906-.333-.917-.73-.01-1.038.055-1.477-.844-.166-.34-.285-.854-.228-1.183.376-.99-.396-1.23-1.144-.85-.943.393-.937 1.234.502 2.61.926 1.52.685 1.415-.193 2.44-.184.36-.073.582.313.588 1.113-.34 2.325 1.665 1.994 2.352-.34.295-1.273 1.364-.372 1.158 1.832-.498 2.947 2.185 1.868 3.094-1.61.808-1.99.556-4.47-4.396-.77-1.538-1.696-3.19-1.81-3.36-.114-.17-.165-.623-.16-.99.108-.895-.273-1.098-1.052-.742-.584.14-1.112.62-.372 1.076.864 1.49 1.17 1.73.695 2.11-1.08.86-.61.825.6 1.066.593.178.894.483 1.057.85.626 1.404 1.734 3.385 1.845 3.788.366 1.03-.296 1.493-1.202 1.448-.948.023-1.383-.727-1.844-1.366-1.725-2.396-2.967-4.77-4.726-7.49l.236-2.544s.46.1.72-.024c.506-.243.807-1.038 1.096-2.095.462-.92 3.192-3.01 4.237-4.132.192-.127.354-.337.356-.464-.007-.412-1.185-.137-1.96.752-1.14 1.012-1.624.665-1.588-.627-.112-1.596-1.085-.796-1.135.763-.125 1.23-.553 1.98-1.414 2.67-1.626 1.3-1.355.97-1.28 2.774.132 3.147-1.082 5.736-1.877 4.02-.282-.608-.613-1.3-1.322-1.332-.502-.02-.75-.515-1.027-1.732-.41-1.97-.986-3.24-1.51-5.054l15.095-8.55zm-40.472 6.782l5.262 2.095-.985 5.504-5.213-1.994.936-5.604zm40.116.507c-.035.002-.077.01-.12.03-1.483 1.118-2.85 2.375-4.466 3.34-.605.356-1.313 1.282-1.317 1.53-.006.24.718.234 1.423-.073.67-.292 4.484-3.875 4.49-4.204.26-.29.236-.64-.01-.623zm-48.313 6.68c1.243-.003.518.366-2.196 2.25-2.65 1.837-7.02 7.65-7.525 9.807-.23.98.39 1.056 1.09-.29 3.218-6.184 9.304-11.835 14.876-11.584 2.73.123 4.205.86 1.945 1.183-6.193.76-10.823 4.292-14.875 11.333-.003.157.367.15.792-.12 3.71-4.535 7.888-10.54 15.23-10.055 5.294.318 6.798 6.615 2.402 8.765-3.833 1.874-7.367-2.69-4.19-5.396 1.03-.88 1.676-.494.686.405-2.126 1.93.48 5.363 3.07 4.06 1.575-.66 2.214-2.917.824-4.62-3.09-3.788-9.745-.907-14.384 5.213-.486.645-.907 2.043-.497 1.893.72-.297 1.154-.86 1.577-1.496 1.656-2.296 2.928-3.448 5.17-4.683 1.73-.954 1.84-.775 1.192.878-.273.696-.492.928-1.164 1.36-2.824 1.93-4.578 4.514-4.648 6.16-.05 1.2.828 2.77-.126 3.094-1.617.764-6.03.14-7.22-1.38-.857-1.095-1.19-.46-.546 1.317.425 1.173.406 1.837 1.047 1.717.81-.43 1.367-.328 2.94.53.757.415 2.1.802 2.92.99 1.492.345 1.804.2 1.77.845-.01.198.06.755.015 1.105-.242 1.945 1.382 2.607 3.597 3.886 1.294.747.783 1.516-.715 5.218-.778 1.676-1.443 3.93-2.403 5.63-.897 1.91-.975 4-.396 6.385 1.075 4.425 1.85 6.673-.066 7.07-4.927.746-15.81.716-21.75-1.567-1.52-11.403-9.57-28.322-8.538-32.697 2.06 3.108 10.702 2.286 8.1-6.4 0 0 .708-1.06 2.114-2.484 3.627-3.68 4.52-4.288 2.8-1.048-1.324 2.49-3.014 5.74-3.05 6.37-.03.503.36.62.665.22.226-.3.494-1.02.73-1.57 2.16-5.06 5.855-9.622 8.402-10.72.656-.283.623.02.17.574-2.997 3.73-5.285 7.176-6.913 11.676-.072.465.587.658.797.218 2.812-5.89 3.652-7.228 7.106-11.377 1.357-1.633 2.62-2.455 3.63-2.366.872.077.614.22-.193 1.08-.617.658-1.528 1.573-3.003 3.428-2.6 3.272-5.215 8.596-4.252 8.317.166.442.986-.973 1.68-2.323 1.9-3.19 3.918-7.406 8.43-10.178.942-.393 1.97-.617 2.88-.628zm-87.28 1.028l8.038 8.033 16.165-.208c-2.666 4.143-1.242 10.564.227 14.316 2.88 7.357 7.102 19.503 6.79 19.68 0 0-2.35.605-2.56 2.096-.316 2.21.642 2.045-.74 4.04-.31.448-.11 1.296.223 1.97.22.493.43 1.236.02 1.814l-14.26 25.438-27.058.13V281.2l13.55-13.718-.165-10.093c7.39 2.196 9.927 9.82 10.56 15.47 13.35-12.183 13.02-30.522.406-42.027-2.46 12.16-11.265 14.688-11.072 14.446l-.123-36.3zm100.53 1.444c.864.062 2.03.2 2.823.628-.537.32-.918.703-1.274 1.096-.435-.77-1.018-1.19-1.55-1.724zm22.405.087c.72 0 1.604 2.105 1.096 2.598-.285.278-1.213.383-1.544.174-.424-.315-.208-2.77.45-2.77zm-25.495 3.655c.928 0 1.68.752 1.68 1.68s-.752 1.68-1.68 1.68-1.68-.752-1.68-1.68.753-1.68 1.68-1.68zm-71.094 2.394l1.212.028c-2.202 2.944-2.5 5.48-1.72 9.15.88 4.134 7.576 19.67 8.01 23.947.02.193.038.738.038.738l-1.646.11s-.123-.44-.174-.612c-2.303-7.744-4.596-13.65-6.197-18.167-1.6-4.868-4.042-12.088.476-15.194zm8.852.028c.012-.002.02.002.03.005l1.162.01c-.043.025-1.736 3.656-1.858 5.86-.138 2.496.466 5.216 1.294 7.9 1.954 5.808 4.815 12.276 6.405 19.606l.193.796-1.723-.23s-.17-.752-.188-.855c-1.19-6.447-4.508-13.144-6.487-19.49-1.014-2.885-1.72-6.43-1.356-9.142.255-1.912 2.174-4.423 2.528-4.46zm14.07.015c-1.232 1.907-2.354 4.3-2.433 6.174-.07 3.487.945 6.432 1.96 9.513 3.124 9.488 4.64 14.493 6.202 22.103l-1.66-.71s-.065-.427-.102-.55c-.887-4.765-.943-4.35-6.154-20.374-1.22-3.848-2.384-7.22-2.156-10.422.05-1.824 1.643-5.437 3.32-5.725l1.024-.01zm1.994 0h1.55s-.854.903-1.1 1.24c-2.708 3.754-1.924 7.782-.58 12.584 1.85 6.606 5.27 13.995 7.057 24.066.032.187 0 1.158 0 1.158l-1.845-.742c-1.675-9.233-5.81-18.808-7.8-27.112-1.172-4.877-.838-7.96 1.867-10.614.68-.524.85-.58.85-.58zm-18.907.053h1.158s-1.937 3.182-1.936 5.054c-.323 3.353.89 7.057 2.283 10.938 2.142 5.966 4.972 13.18 5.84 16.977.035.148.15.83.15.83l-2.022-.106s-.106-.92-.227-1.343c-2.334-8.165-4.607-13.446-7.288-20.9-.405-1.128-1.054-5.59-.29-8.48.602-2.272 2.333-2.97 2.333-2.97zm-3.103.004l1.25.034s-.188.34-.666 1.158c-2.28 4.13-1.26 7.9.154 12.1 1.886 5.606 4.847 12.45 6.694 18.927.104.364.247 1.467.247 1.467l-1.805-.024s-.367-1.32-.39-1.462c-1.017-6.003-6.504-16.01-7.932-23.627-.782-4.085-.11-6.616 2.45-8.573zm16.744 0s-1.973 3.42-2.153 5.324c-.353 3.734.832 6.826 2.187 11.04 2.34 7.267 5.64 15.794 5.933 19.692.01.128.058.604.058.604l-2.03-.725s-.092-.406-.13-.55c-1.772-7.054-3.866-14.078-6.682-21.996-.694-2.672-1.605-5.36-1.525-7.656.413-3.066.935-3.894 2.762-5.71l1.58-.024zm8.94.005l1.635.034s-.487.26-1.654 1.505c-6.455 5.898 4.02 22.553 6.434 37.717.027.162.102.733.102.733l-1.8-.646c-.17-.757-.3-1.676-.507-2.502-1.957-7.75-4.568-15.722-6.966-22.95-1.345-5.27-1.837-9.908.58-12.503.755-.896 2.175-1.39 2.175-1.39zm-16.832.01l1.742.048c-1.26 1.58-1.998 4.04-2.066 6.227-.066 2.588.625 5.104 1.478 7.767 1.747 5.46 4.243 11.395 5.956 18.762.097.487.178.8.222 1.013.07.338.266.874.266.874l-1.84-.367s-.188-.478-.312-.73c-.186-.377-.355-.857-.507-1.433-.89-3.844-4.168-12.564-6.164-18.68-1.584-3.855-2.016-10.59 1.224-13.482zm21.754.067c2.23-.082 4.244 1.81 4.72 3.586.464 1.888-.128 4.017-2.205 5.068-3.366 1.705-6.99-2.83-4.334-5.33 2.013-1.892 4.99-.49 4.343 1.933-.418 1.575-2.81 1.678-3.205.085-.108-.53-.374-1.06-.564-.767-1.238 2.907 2.925 4.27 4.653 1.563 1.024-2.168-.927-4.96-3.8-4.43-3.937.728-4.39 5.726-2.755 11.555 2.28 9.215 7.723 21.607 7.713 27.296 0 .076.02.31.02.31l-1.73-.516s-.01-.096-.022-.18c-1.036-7.944-6.938-21.098-8.63-31.21-.734-4.61 1.06-7.956 5.1-8.87.234-.053.465-.083.695-.092zm-17.087.073c-1.21 1.62-2.003 4.055-2.04 5.792-.037 2.546.876 5.024 1.63 7.675 1.91 6.546 6.37 18.632 6.208 20.896.047.243.17.994.17.994l-1.724-.512s-.068-.108-.198-.42c-.574-2.246-3.306-11.873-6.366-20.195-1.178-3.346-1.75-5.953-1.67-8.172.248-3.06 1.125-4.34 2.466-6.043l1.525-.015zm32.814 10.85c-4.466.255-4.036 5.7-1.27 6.623.99.272 1.57.036 1.73-.18.178-.244-.022-.62-.672-.714-1.878-.616-2.55-2.827-.854-3.754.927-.485 2.405-.173 4.188 1.147 3.188 2.36 7.094 2.51 6.584.12-.123-.58-.373-.656-2.708-.975-1.896-.258-2.75-.857-3.576-1.303-1.302-.702-2.45-.993-3.422-.965zM58.57 232.73c11.538 11.27 9.828 28.93-.03 37.773-.202-.714-.633-2.463-.68-2.413 7.413-7.714 10.904-20.358.173-33.32.055.05.24-.935.536-2.04zm72.32.3c-.11 0-.206.013-.29.042-2.99.817-3.608 3.77-1.67 4.986 1.187.745 2.1.288.622-.613-1.267-.772-.643-2.803.893-2.78.67.01 1.128.302 2.834 1.56 1.402 1.035 2.725 1.117 3.025-.285.18-.837-.102-1.208-.995-.99-.395.098-.627-.134-1.163-.506-1.193-.83-2.495-1.433-3.258-1.415zm-73.514 2.21c10.4 12.072 7.062 24.663.05 32.04-1.927-5.684-6.648-9.23-6.648-9.23 1.78-3.945 2.84-8.067-.487-13.272 3.096-2.798 5.66-5.872 7.086-9.54zm67.58 4.406c-.487-.01-.33.462.82 1.265 2.742 1.865 2.977 2.202.32 2.158-.675-.04-1.73.438-2.327.638-3.47 1.157-3.638 1.064-5.297.676-.553-.13-1.113-.36-1.356-.14-.374.34-.795.566-.323 1.076.344.37.984.654 1.762 1.1 4.027 2.308 4.394 2.86 9.128 2.983.542.016.82-.266 1.14-.27.772-.01 1.178.18 1.96.894 1.43 1.306 1.497.356.646-1.356-.447-.898-.837-1.112-.618-1.796.5-1.558-.212-1.867-1.145-.487-.698 1.08-.777 1.056-1.438-.333-.878-1.734-.466-2.534.862-1.404 1.007.855 1.264.22 1.656-.46.515-.89.437-1.69-.483-1.62-.528.04-1.022-.204-1.438-.657-.813-.888-2.375-2.004-3.87-2.264zm1.14 4.69c.11.007.186.052.222.165.01.572-.383 1.74-.704 2.352-.104.273-.28.308-.526.357-.83.152-.888-.105-.738-.618.304-.794.556-1.924 1.626-2.25.044-.005.084-.007.12-.005zm-2.11.398c.337-.025.348.114.213.42-.24.514-.662 1-.976 1.404-.665.43-1.748-.886-1.27-1.227.67-.263 1.17-.535 1.868-.578.062-.01.117-.015.165-.018zm-74.51.858c.178 0 .36.036.55.116 2.517 3.397 2.345 8.57.39 11.43-.145.214-.294.252-.54.17-.84-.5-1.91-.684-2.708-.97v-9.95c.822-.173 1.53-.798 2.307-.796zm66.33.812c-.193.01-.273.14-.03.39 3.67 2.657 8.722 5.735 13.38 4.543.428-.093.772-.326.69-.768-.05-.275-.524-.513-1.037-.377-1.07.28-3.118.318-3.96.184-3.203-.526-6.033-2.575-8.494-3.775-.183-.14-.402-.205-.55-.198zm-1.072 2.534c-.164-.008-.15.156-.05.463.518 1.54 5.712 5.125 9.814 6.31 3.522 1.018 8.582.018 8.287-1.655-.153-.872-.794-1.08-3.04-.797-4.95.962-9.713-1.062-13.327-3.31-.974-.616-1.473-1-1.684-1.01zm-32.408 2.104c2.16-.026 4.304.15 6.622.535 4.51.77 9.735 2.166 14.157 4.214 7.514 2.82 16.962 4.997 24.98 4.702 1.956.055 5.493-.112 6.178-.338 1.787-.4 2.28-.02 2.708 2.196.076.482.225.623.846 1.043.95.643.79 1.278.676 2.698-.098 1.195.624 1.866 3.52 7.207 3.293 6.08 6.506 13.144 6.506 13.144-28.873-.02-56.42-1.09-85.96-.173 2.655-6.3 9.9-17.66 14.44-26.777-1.1-2.806.257-3.283-.312-3.948-.92-1.56-.256-3.747 1.688-4.24 1.353-.155 2.656-.244 3.952-.26z"/><path fill="#E2CF00" d="M62.893 286.464s9.46-19.128 13.448-24.858c5.736-7.27 31.625 3.16 44.5 5.767 5.232 1.01 17.363.536 17.363.536l10.14 18.273-85.45.28zM43.245 264.73l-.4-59.546 2.962 1.85.68 59.812-12.805 12.26-.07-3.592 9.633-10.783zm7.75-6.794c3.05-6.138-.355-13.634-.354-13.63 1.77.436 6.7-8.92 7.138-8.648 7.544 9.252 8.852 23.037-.366 31.58-2.327-5.938-6.386-9.302-6.417-9.302zm5.63-42.114c5.733-5.858 10.28-10.42 14.822-16.977.372-.533-24.185-31.725-23.803-32.27 3.788-4.188 8.866-7.264 12.817-12.32 0 0 20.14 26.363 20.603 26.13 2.04-8.25 3.535-15.718 3.146-24.34-1.244-22.064-10.672-35.57-10.745-35.305-3.188 20.27-34.52 50.974-40.69 48.786l-.035-14.166c.373.71 19.85-12.53 24.986-30.03.37-1.257 15.482-6.094 15.377-6.278-.64-1.643-7.25-10.996-7.25-10.996s2.67-1.243 2.966-1.24c8.57 10.657 15.037 24.696 17.237 38.064 2.67 14.398 4.396 41.466-24.477 71.027l-4.954-.085zm86.557-37.25c-4.518-14.022-4.395-28.54-2.317-38.677 3.17-18.367 14.778-31.52 24.09-41.548l4.038.002-6.586 6.814c-3.016 3.46-7.384 10.676-7.384 10.676l24.095 31.494 13.734-2.968s-.414 14.09.012 14.09c-10.674 8.834-18.345 16.83-23.852 29.702-3.375 1.248-14.564 6.072-14.564 6.072-5.318-1.3 15.828-34.454 11.807-35.016-1.657-1.367-20-26.11-20.357-26.06-8.455 25.888-.207 53.073 14.67 72.06-1.69 1.095-3.218 1.946-3.077 1.69-6.373-8.838-11.956-19.393-14.308-28.332zm-44.018-12.98c.953 1.477 5.24-31.593-6.027-58.062 1.072-.812 10.367-2.59 10.367-2.59l2.502 7.925-6.34 2.685 1.17 3.715c4.922-2.387 15.58-5.912 22.14-16.804 0 0 31.858-.272 32.537-.216.66.056-6.498 6.916-13.288 20.805-3.1 6.343-5.568 14.55-6.082 24.18-.102 1.904-7.29-8.945-7.29-8.945 1.792-9.167 6.583-18.19 11.358-27.217 0 0-7.325-.416-12.444-.267-7.96 8.7-12.95 13.284-24.95 17.438 4.375 14.02 31.146 20.76 25.193 19.478-1.218-.287-2.76 12.89-1.47 27.733.248 11.87 6.635 31.657 6.86 31.498 0 0-4.26.96-4.6.275.718-.172-6.334 1.613-6.334 1.613l-2.522-7.375 6.825-3.14-1.105-4.162c-.026.003-15.06 4.55-22.422 17.662l-32.928.038c12.7-13.78 17.878-27.408 20.637-45.426 2.695.483 8.212-.84 8.212-.84zm80.98-118.96c4.142-3.465 12.45-12.487 12.45-12.487l.11 4.622-9.432 9.808.096 60.552-3.19-3.058-.033-59.44zm-4.358 22.162c-1.698.81-5.083 4.788-6.697 9.26-10.927-9.76-6.427-27.7-.446-31.434 1.735 3.917 6.762 9.11 6.646 9-1.156 4.102-2.042 8.263.496 13.174zM79.05 28.144l84.265.148c-4.807 9.464-9.216 17.113-14.325 26.43-2.658 3.207-60.2-10.354-60.47-9.003l-9.47-17.576z"/><path fill="#D40000" d="M33.503 274.41l-.562-79.507 9.58 9.304.568 61.058-9.585 9.145zm43.95-15.406c-1.983.302-.86-1.533-.5-3.277.203-.972-.737-1.887-.733-2.184.025-1.726 1.318-2.454 7.178-2.386 13.813.958 20.954 5.38 28.878 7.436 7.588 1.97 15.11 1.93 23.482 1.736.613.353 2.857 6.133 2.44 6.712-18.94 3.733-43.11-10.174-60.746-8.038zm34.138-41.17c-1.995-1.446-3.868-1.714-5.72-2.028 3.25-5.714 7.183-10.92 13.753-14.18l3.058 7.564c-3.863 1.987-7.656 4.352-11.09 8.643zM71.69 198.19s-2.835 4.636-5.51 6.89c-7.956-10.666-25.743-33.375-25.743-33.375l-7.548 3.822s-.03-4.396.142-4.704c20.385-10.505 34.373-30.36 40.533-48.952 0 0 3.282 3.35 2.85 4.768-5.512 14.665-14.937 29.373-28.8 40.403l24.075 31.15zm25.426-21.636l25.736.037 1.14 8.947c-9.854 3.302-17.988 10.048-25.593 17.85l-12.207-.21c4.002-8.77 9.562-17.665 10.924-26.623zM192.4 138.86c.832 2.523-.007 5.245.313 5.13-30.828 15.247-39.638 48.71-39.638 48.71s-2.927-4.635-2.793-5.352c15.956-35.464 26.632-36.52 28.683-40.37l-24.27-31.408 5.49-7.466 26.03 33.872c2.588-1.193 4.063-2.19 6.184-3.115zm-15.202 45.88c5.228-9.4 10.62-14.865 15.993-18.625l-.26 12.407-15.732 6.22zM33.073 147.843l.134-12.037 15.88-6.834c-4.39 9.572-10.35 14.7-16.014 18.872zm70.744-10.822l-.938-8.467c9.64-4.204 18.155-9.828 25.03-17.524 7.386-.356 12.43.145 12.39.044.014-.015-7.025 10.31-11.686 26.562l-24.797-.616zm79.867-88.934l8.773-8.866.277 79.12-8.813-8.387-.236-61.867zM106.57 112.51l-2.784-7.844c4.38-1.642 7.694-5.216 10.782-8.756 2.094 1.874 4.796 2.533 5.734 2.894 1.284.3-8.878 12.5-13.733 13.706zM90.117 53.104s-1.095-.634-.975-1.527c.362-1.156-1.17-3.774-1.17-3.774 18.686-5.67 45.895 10.283 62.044 6.928-.135 1.13.05 2.474-.406 3.537.51 2.26.868 2.332-1.338 3.712-11.346 3.21-23.303-3.636-34.385-6.908-9.04-2.85-16.384-2.124-23.77-1.968z"/><path fill="#100F08" d="M78.088 27.03l3.413 6.427-.59.4c.93 1.548 1.72 3.29 2.67 4.825l.686-.08c1.12 2.15 1.575 2.944 3.042 5.49l-.662-.004c.34 1.13 1.216 1.883 1.233 2.694.008 1.01-.252 2.036.368 2.72.735.81.823 1.034.673 1.51-.4 1.26.742 2.655 1.9 2.53 8.17-1.092 16.493-.165 24.814 2.35 5.984 1.887 11.296 4 16.325 5.486 1.585.474 4.79 1.22 7.548 1.422 7.652.56 11.946-.998 10.657-4.18-.102-.256-.332-.442-.352-.574-.037-.242 0-.504.435-.86 1.255-1.28.554-2.215-.21-3.634 0 0 9.826-17.555 14.733-26.3l-86.682-.223zm85.08 1.576L156 40.988c-3.834-.694-4.735 2.53-4.793 2.983-4.98-1.275-4.215 5.18-1.717 5.616.16.937-4.093 2.1-6.335-.094 3.445.462 4.665-4.097.457-5.11 5.548-4.123-4.86-10.298-4.984-1.767-4.895-.862-4.26 5.605-1.153 6.108-1.59 1.75-6.258 1.8-8.698-1.89 4.15 2.155 6.397-3.41 2.085-4.968 5.323-4.668-5.1-8.97-4.855-1.43-3.93-2.327-6.63 3.607-1.386 4.52-.3 1.067-7.168 1.075-8.91-1.686 4.87 1.11 5.093-4.818.796-5.3 4.313-5.476-6.637-8.244-4.798-.773-4.23-1.673-5.83 3.602-1.71 5.295.23.84-6.67 1.554-9.086-1.475 5.304-.796 3.447-5.936.013-5.524 0 0 .05-.147.243-.647 1.62-5.16-7.1-5.59-5.89-.12.192.504.406 1.175.406 1.175-2.404-.488-3.873.49-3.7 2.746.6 2.994 2.182 2.773 4.205 2.177.848.887-4.884 3.852-8.48 1.205 4.405-1.267 2.173-6.43-1.514-5.733-.152-1.648-1.944-3.96-4.28-2.833l-2.47-4.86 83.723.004zm7.21 68.788l-5.18.076c-3.635 3.712-29.966 27.967-25.53 64.604 1.895 15.67 6.27 29.227 17.97 45.242l3.128-1.835.478.32 32.42-18.65.02-5.662-37.635 15.787c-.748-.794-1.187-1.68-1.815-2.658l15.08-6.41s.362-.916.48-1.338c4.958-12.545 15.03-21.626 23.8-28.642-.048-12.35-.105-38.207-.105-38.207l-22.675-22.58c-2.907 2.658-5.485 5.393-8.064 8.36l26.034 34.266-2.31 1.502-25.758-34.09c3.05-3.668 6.36-6.866 9.66-10.084zm23.127 22.28s-.125-58.834-.296-87.243l-13.512 13.863.053 59.633 13.755 13.747zm-1.148-81.642l-9.546 9.85.108 60.615-2.453-2.418V47.094L192.39 34.6l-.033 3.432zm-92.898-1.46c.284.504.16 1.2-.298 1.77-1.953 2.422 4.18 6.63 8.592 5.9 3.357-.558 6.22-2.575 4.985-4.11-1.006-1.248-.35-2.513.858-2.504 1.242.01 2.24.997 1.163 2.35-2.395 3.013 1.26 6.546 6.846 6.62 3.95.05 5.267-.923 5.054-3.737-.1-1.317.16-1.682 1.076-1.882 1.466-.32 2.204 1.36.99 2.64-2.624 2.767.357 6.834 5.318 7.097 1.815.096 2.174 0 4.2-1.145 1.583-.894 2.142-2.243 1.365-3.292-1-1.35.347-2.962 1.9-2.297 1.11.476 1.658 1.327.43 2.772-1.614 1.896-.85 3.462 2.26 4.518 2.42.822 4.1.72 5.232-.313.353-.322 1.137-.994 1.126-.79-.763 1.317-1.438 2.54-1.438 2.54-5.072 2.262-9.03-1.974-8.9-2.132-5.227 3.016-9.86 2.38-13.775-2.686-1.018.563-8.307 1.892-13.568-3.884-5.31 2.664-10.245 1.547-14.63-1.432-3.242 3.06-6.658 3.543-10.208 2.074l-1.053-2.115c.266-.1 1.41 2.12 6.965 1.086 1.865-.35 5.075-3.483 3.278-5.012-.823-1.163-.848-1.688-.12-2.394.715-.695 1.936-.338 2.35.36zm-13.61 2.775c.31.6.352 1.598.01 1-.18-.317-1.12-1.73-1.077-1.772.438-.038.872.415 1.067.772zm106.51.48l.063 78.225-8.13-8.064-.39-61.28 8.458-8.88zm-94.14 3.79l2.56 1.608-4.583-.027 2.023-1.582zm14.39 1.346l2.15 2.087-4.52-.947 2.37-1.14zm40.265 1.083l-.96 1.97c-.554-.62-.716-1.935.96-1.97zm16.243 32.52c1.632-3.663 3.814-8.327 7.348-9.81-2.63-5.228-2.288-10.452-.423-13.316-2.668-2.484-5.407-5.46-7.107-9.74-8.432 7.445-9.787 22.737.182 32.866zm-.253-31.436l.58 1.43c-7.51 9.19-5.19 21.255.25 27.692l-.782 1.62c-6.647-7.008-9.557-21.828-.048-30.742zm-44.89 5.2c8.7 2.552 15.67 6.53 25.73 2.986l.047 1.958c-6.403 4.11-19.16-.232-27.776-3.413-13.852-5.11-24.63-4.813-32.332-4.228-.678-.133-1.217-1.903-.13-1.916 14.4-.158 12.073-1.955 34.46 4.613zm1.967-3.465l2.857 3.03c-2.147-.673-4.233-1.42-6.175-2.35l3.317-.68zm43.613.748l.56.772c.242.335-1.58.508-1.274.116l.715-.887zm-49.097 5.547c10.387 3.9 21.823 7.793 29.328 4.302 0 0 .048 1.486-.81 1.907 0 0-.792.64-3.44 1.004-12.145.996-20.027-4.03-29.83-7.003-3.718-1.126-9.69-2.49-15.825-2.745-3.642-.166-9.213.357-9.213.357-1.214-.102-1.196-.818-1.207-1.52 10.56-1.408 20.268-.357 30.998 3.698zm50.226-3.74c.134-.005.27.005.405.025l1.06 1.356-1.26 2.004s-1.11-1.022-1.674-2.027c-.31-.65.53-1.312 1.468-1.356zm-30.602.383l3.29 2.482c-2.474.122-5.257.214-8.012-.88l4.722-1.602zm27.86 1.265c.258-.007.53.268.85.81.61 1.046.53 1.246-.657 1.628-1.56.5-1.683.39-1.178-1.01.343-.954.65-1.42.984-1.428zm4.995.64l2.224 1.865c-1.228 3.195-2.03 7.25.436 13.072-.273.018-1.872 1.595-2.374 1.864-1.41-.59-4.51-12.125-.285-16.802zm-2.53 2.444l-.565 3.533c-.046.29-2.46-1.673-2.234-2.654.43-1.165 1.9-.917 2.8-.878zm-3.99 1.24c.292.002.75.708 1.312 1.632.438.72.35.992-.623 1.868-1.432 1.446-1.713.974-1.396-1.487.16-1.216.376-2.015.707-2.013zm2.96 3.202c.192.004.362.05.486.15l.164 3.44c.015.31-2.687-.122-3.04-1.434-.45-.838 1.34-2.177 2.39-2.156zm-3.566 2.91c.194-.03.8.374 1.372.713.994.59 1.016.85.16 1.95-1.008 1.293-1.508 1.085-1.662-1.163-.057-.826-.118-1.466.13-1.5zm3.965 1.315c.087 0 .165.024.23.08.48.41 1.212 3.86.904 4.22-.44.513-2.745-.17-3.26-.98-.49-.772 1.284-3.32 2.125-3.32zm-2.822 4.06c.265-.02.74.164 1.462.512.434.21 1.157.602 1.317.938.28.59-.187 1.464-.79 2.19-.4.48-.775.123-1.55-1.487-.623-1.294-.88-2.123-.44-2.153zm4.655 1.543c.053-.002.1.01.145.033.785.436.653 1.728-.275 2.684-1.114 1.148-2.083.283-1.312-1.173.486-.922 1.07-1.535 1.442-1.544zm-64.776 32.092c-.68.03-1.74.646-2.2 1.24-.586.753-1.096.654-1.744.6-.77-.012-1.944.158-3.533.883-.9.41-1.31.503-2.63.57-.86.043-1.725.16-1.917.26-.19.1-.812.317-1.375.482-1.153.338-.743.665-.08 2.15 3.363 8.627 5.774 18.68 6.652 26.865.987 9.393.688 20.782-.625 29.48-3.22.02-5.244-.144-8.636-.087-2.313 18.81-8.592 33.746-21.14 47.18l33.92.085c3.885-10.364 21.618-18.27 22.2-17.686l.936 3.782s-12.757 1.822-21.35 18.01c.88-.53 4.08-.163 6.192 2.03 4.22-5.35 11.14-8.846 11.185-8.764l.23-.645s1.27-.43 2.386-.643c.358-.068 1.092-.206 1.578-.377.754-.264 1.127-.544 2.29-.443 2.417.23 4.845-.47 4.793-.484-7.2-19.856-8.9-37.78-6.09-58.603 2.653.02 8.47.12 8.47.12.586-5.85 1.326-11.704 3.123-17.228 2.308-7.092 5.09-13.685 9.57-19.712 2.53-3.786 4.738-6.48 7.354-10.028l-33.202.077c-4.394 7.384-12.86 13.55-19.663 16.12-2.316.87-2.643.742-3.026-.348-.687-1.945-.654-1.862 1.157-2.38.604-.172 2.54-1.19 5.56-2.605 6.41-3.254 10.817-9.21 13.41-13.23 1.03-1.588.34-1.23-1.424-1.245-1.615-.127-2.353-.626-3.804-1.98-.536-.498-.766-.853-1.01-.824-1.895 2.724-5.076 6.313-7.558 7.377zm7.792-6.286c1.492 1.597 3.263 2.53 5.594 2.835-3.726 5.845-8.274 10.415-13.504 13.194l-2.658-7.48c6.517-3.033 8.26-6.073 10.568-8.55zm54.117 2.377c-35.113 32.464-33.047 73.39-8.458 106.634l-2.576 1.55c-23.095-30.947-27.272-76.728 8.014-108.32l3.02.137zm-22.135 3.96l8.608-.018-5.86 7.595-7.863-.03 5.115-7.548zm-1.35.062l-4.786 7.547-12.914.166c-7.728 9.526-16.027 14.174-24.477 17.345l-1.65-8.135s13.378-3.226 22.042-17.026l21.784.102zm-13.12.624l-2.993 3.31 3.108 3.163 2.838-3.21-2.954-3.263zm6.775-.077l-3.03 3.15 2.364 3.172 3.143-3.08-2.477-3.243zm-14.948.574l-.517 4.958 3.9 1.28.57-4.24-3.953-1.997zm23.726.186l-2.83 4.425 4.262.068 2.98-4.405-4.412-.087zm-44.557 1.13l2.764 7.657-2.426 1.17-2.46-7.996 2.123-.83zm-3.268 1.228l2.848 7.92-2.384.788-2.616-8.244 2.152-.464zm3.413 31.274c.317 11.016.476 17.656-1.366 27.34-.098.506-2.075.057-2.075.057.25.084 1.114-10.94 1.046-17.867-.13-13.188-2.366-26.235-7.542-39.306.986-.604 3.42-.91 3.42-.91 3.266 9.91 6.16 20.57 6.517 30.686zM68.8 107.025c11.335 15.04 19.437 35.444 18.082 55.576-1.3 23.41-10.174 36.902-25.762 53.113l-4.02.094c18.45-17.692 26.614-32.833 27.258-52.81.74-22.973-6.275-38.253-18.094-54.537l2.535-1.435zM32.54 127.7l.04 5.478 38.62-16.563-5.57-8.206-33.09 19.29zm90.515-17.945l-4.204.213.14 4.242 4.384-.105-.32-4.35zm37.476-.806l25.027 32.816-6.192 4.6-23.86-30.838 5.026-6.58zm-19.616 2.24l7.49.117-2.895 4.806-7.24-.06 2.644-4.862zm-1.383.12c-3.443 6.405-8.194 13.71-10.862 25.513l-24.66.02c-.046-2.694-.396-5.39-.797-8.084 10.628-3.89 18.858-9.703 24.912-17.388l11.41-.063zm4.56.338l-3.213 1.854 1.964 2.26 3.544-1.357-2.293-2.757zm-29.35 2.36l-1.063 4.18 3.997 1.54.738-4.967-3.673-.752zm22.993 3.123l7.188.044-3.025 6.043-7.12-.105 2.958-5.98zm17.112-.79l23.683 30.698-2.22 1.757-23.146-30.008 1.683-2.447zm-14.385 1.278l-3.238 2.698 2.438 2.813 2.987-2.385c.063-.05-2.187-3.127-2.187-3.127zm-31.432.222l-.994 4.064 4.156 1.105.743-4.36-3.905-.81zm-5.748 2.703l-.845 4.002 3.914 1.057.825-3.856-3.895-1.203zm-32.32-.4c.2-.04-.655 4.762-1.914 5.627-.602.414-.913.323-1.436-.24-.36-.39-1.987-3.044-1.987-3.044l1.39-.7c1.69 2.7 1.688 1.395 2.326-.906l1.62-.738zm-6.492 2.765c.552-.004 1.22.68 1.975 2.008 1.092 1.92 1.055 2.044-.74 2.597-3.228.854-4.43 1.06-3.436-1.07 1.07-2.295 1.492-3.53 2.2-3.535zm9.613-.38l2.21 3.782c-8.86 22.562-23.153 38.747-42.826 48.54l-.045-3.748c23.194-13.202 32.704-28.798 40.66-48.574zm60.25 1.63l6.975.126-1.863 5.333-7.414-.053 2.302-5.406zm-71.958-.232c-5.677 13.528-13.434 25.332-28.943 35.297l-.063-3.594c17.417-10.497 24.946-30.16 24.945-30.165l4.06-1.54zm88.158-.023c4.13.113 8.472 4.615 8.03 8.326-.31 2.614.19 4.555.903 3.484 1.573-2.366 6.21-.793 6.167 2.048-.022 1.512-1.032 1.76-1.612.396-.856-2.017-3.263-2.066-3.618.047-.333 1.98 1.347 3.437 5.836 5.06 5.26 1.233 8.427 5.948 6.556 8.658-.65.717-1.04.893-1.163.52-.036-.105-.165-.665-.286-1.24-.597-2.84-1.958-4.033-3.61-3.058-.83.49-.725 1.136-.24 1.99.643 1.137.24 1.578-.913 1-1.82-.916-2.422-3.083-.656-4.083 2.1-.84 1.388-1.02-1.294-1.926-5.708-1.95-8.157-5.527-8.456-12.342.11-3.106-.315-4.215-1.776-4.64-1.338-.388-2.853 1.312-1.893 2.207.52.487.947.93.67 1.197-.886.86-3.105-.536-3.083-2.036.014-.98.386-1.183 1.854-2.336.407-.32.06-.923-.536-.932-2.246.725-2.087-2.243-.88-2.34zm-12.93.787l-3.487 2.004 1.816 2.537 3.86-1.812-2.19-2.728zm-67.842 1.968c.4 0 .73.323.73.725 0 .4-.33.73-.73.73-.4 0-.724-.33-.724-.73 0-.4.324-.725.724-.725zm7.148.315c7.36 16.06 9.11 34.427 3.988 52.78L61.02 153.896c7.625-8.584 12.75-18.412 15.886-26.924zm-26.877 1.18l-17.733 7.45-.1 13.296c9.91-6.762 14.11-13.684 17.832-20.747zm17.043-.112c1.748-.054.886 4.664-1.384 6.273-.833.64-1.394.56-1.668-.718-.143-.663-.84-2.064-1.72-3.193-1.02-1.313-1.01-1.346.483-1.438 1.65.025 3.002-.766 4.288-.923zm-1.726 2.006c-1.29-.02-1.676.584-.907 1.41.646.693 1.16.545 1.593-.46.263-.612.027-.94-.686-.95zm-31.984 17.247l.044-11.284 15.165-6.387c-3.042 6.594-8.674 13.13-15.21 17.67zm134.718 9.117l-2.02 2.03-19.577-25.52 1.227-3.22 20.37 26.71zM60.79 130.596c.656.01 2.146 2.285 2.562 3.92.31 1.212-.02 1.468-2.316 1.81-.952.26-3.525.01-3.316-.676.374-.99 2.84-5.057 3.07-5.054zm70.924.26l7.144.078-1.637 5.86-7.48-.11 1.974-5.827zm3.156.358l-3.325 2.302 2.63 2.592 3.524-2.177-2.83-2.716zm11.207 2.52l19.805 25.704c-5.91 7.516-11.803 16.148-15.677 27.56-7.05-16.492-9.632-32.546-4.128-53.263zm-80.434 2.187c.4 0 .73.325.73.726s-.33.73-.73.73-.725-.33-.725-.73.324-.725.725-.725zm-2.278.982c1.236.087.07 4.024-1.792 5.46-1.467 1.133-2.098.608-2.437-1.464-.122-.748-.91-2.02-1.602-3.024-.774-1.122-.455-1.3 1.506-.85 1.37.265 3.06-.06 4.325-.122zm66.187.962l7.49.045-1.153 8.897-6.338-8.943zm-72.98.412c1.182 1.1 2.672 4.96 1.907 5.238-.89.323-4.918-.144-5.368-.608-.31-.32-.312-.32.348-1.2.362-.485 1.052-1.45 1.534-2.15.436-.51.918-1.89 1.58-1.28zm4.17.13c-1.14.04-1.216.195-.675 1.425.44 1.004.748 1.093 1.506.436 1.056-.915.613-1.907-.83-1.86zm131.47.774l.272 4.388c-28.792 14.28-39.574 47.998-39.73 47.998l-2.09-3.89c13.21-32.558 30.784-41.984 41.55-48.496zm-135.67 5.188c1.714-.035 2.214-.152 2.205.482.02 1.71-1.577 4.135-3.528 5.05-1.315.615-1.345.63-1.493-.918-.114-1.19-.502-2.723-1.12-3.943-.193-.453-.937-1.49-.002-1.195.935.295 2.867.546 3.936.523zm3.845-.396c.4 0 .724.323.724.724.002.4-.322.725-.723.725s-.724-.322-.724-.724c0-.4.324-.724.724-.724zm-9.175 1c.312-.01.607.63.96 1.568.77 2.043 1.005 3.15.777 3.63-.35.74-5.076.263-5.88-.564-.152.114 3.477-4.224 4.142-4.634zm3.403.507c-.678.045-.32.453.184 1.636.347.818.816.95 1.354.376.72-.768.817-1.377.363-1.704-.666-.27-1.16-.305-1.902-.31zm137.8 4.437l.025 1.47c-1.122-.335-1.816-.81-3.095-1.235-.784-.263-1.247-.45-.555-1.275 1.084-1.293 2.248-2.1 3.57-2.902l.006 1.665c-2.11.935-1.906 1.8.05 2.277zm-83.227-1.494h7.954v5.252h6.222l-.482 5.985h-5.74v5.25h-7.953v-5.25h-5.683l.46-5.985h5.222v-5.252zm17.965.02c-4.028 19.958-.333 41.147 5.882 58.41l-3.136.346c-4.846-13.807-8.696-33.462-4.78-58.747 0 0 1.404-.026 2.033-.01zm59.042.385c.4 0 .724.323.724.725 0 .4-.324.724-.725.724s-.724-.323-.724-.724c0-.4.324-.725.725-.725zM46.26 150.503c.264-.008 1.072.342 1.79.54 1.08.3 1.932.43 2.916.45 1.978.038 2.236.02 1.386 1.646-.613 1.17-1.993 2.718-2.96 3.19-1.366.73-1.89.63-1.81-.715.01-.913-.386-2.5-.902-3.63-.4-.88-.86-1.468-.42-1.482zm8.365.642c.4 0 .73.323.73.724s-.33.728-.73.728-.724-.328-.724-.73.325-.723.725-.723zm133.843-.096c.56-.014 1.52.33 2.398.757 2.325 1.13 2.263 1.39-.888 3.625-2.288 1.735-2.83 1.93-2.91-.807-.082-2.305.167-3.55 1.4-3.576zm-143.4.66c.923.014 1.945 4.818 1.115 5.247-1.29.667-5.292-.633-5.275-1.73.004-.355 3.752-3.523 4.16-3.517zm140.62-.198c.552-.023.625.408.574 1.94-.026.812.112 2.135.17 2.752.116 1.28.006 1.368-1.005.796-.647-.367-1.964-.968-3.39-1.09-1.166-.102-1.25-.582-.89-1.352 1.032-1.704 2.898-2.9 4.54-3.046zm-137.194.725c-.805-.006-.605.422-.105 1.626.353.854.966.936 1.597.208.883-1.018.71-1.556-.574-1.75-.272-.042-.732-.082-.92-.083zm136.127 1.143c-.334.03-.793.296-1.013.44-.757.474-1.064.815.033 1.19.978.336 1.497.48 1.42-.36-.046-.508-.007-1.244-.44-1.27zm-74.66.623v5.232h6.332v-5.232h-6.333zm69.004.453c.4 0 .724.324.724.725s-.323.725-.724.725-.725-.323-.725-.724.324-.724.724-.724zm-118.547.817l19.978 25.642-1.327 3.343-20.576-27.068 1.925-1.917zm132.125-.12l.043 3.35c-2.257 1.65-16.59 12.038-24.005 29.52l-3.882 1.653c5.465-15.047 17.153-27.934 27.844-34.524zM40.565 156.57c1.3.397 2.542 1.3 3.77 1.464 1.41.172 1.898.082 1.516.81-.854 1.634-2.47 3.343-4.174 3.9-1.22.4-1.794.25-1.603-.506.358-1.417.42-2.58.37-3.87.194-.706-.408-1.69.122-1.797zm-1.526.3c.828.71.664 5.19-.262 6.154-.483.504-1.887.043-3.99-1.15-1.377-.778-1.634-1.254-.947-1.73 1.164-.708 4.573-3.442 5.2-3.274zm142.73.097c.43-.01.963.065 1.605.212 2.49.56 3.045 1.127.922 2.813-.784.623-1.616 1.397-1.857 1.693-1.143 1.4-1.938.386-2.187-2.157-.176-1.78.093-2.793 1.516-2.563zm-3.12.24c.405 0 .664.212.657.715-.01.644.45 3.424.71 4.19.448 1.302.123 1.596-.956 1.027-.785-.425-2.866-.746-3.99-.657-1.28.1-1.245-.242-.87-1.317.665-1.906 3.237-3.957 4.45-3.958zm-136.87.928c-.486-.002-.506.654-.173 2.157.105.48.517.45 1.293-.097.92-.645.88-1.05-.154-1.67-.426-.255-.744-.39-.965-.39zm5.663.164c.4 0 .724.322.724.723s-.323.725-.724.725-.724-.324-.724-.725.322-.724.723-.724zm128.842 2.813c.348.34 1.632.325 1.854.12.338-.312.18-1.765-.103-1.94-.723-.246-2.185 1.283-1.752 1.82zm-119.908 2.765c.437 2.072 3.35 1.958 3.02-.202-.19-1.262-.235-1.235.397-1.207 3.01.146 2.487 4.89-.98 4.52-.723.088-.818.384-.207.64.608.252 2.938.85 3.297.85 3.772-.014 9.214 5.785 9.08 10.932-.088 3.365 1.053 5.788 2.22 6.062.928.218 2.274-.625 2.157-1.655-.16-1.423.996-.98 1.662.042 1.015 1.41-.295 3.446-2.713 3.287-1.03.2.755.853 2.078 1.235 1.2.068.186 1.546-.037 1.81-.678.787-2.9.186-4.643-1.222-2.14-1.728-3.06-4.043-3.312-8.592-.162-2.923-.38-3.517-1.23-2.31-1.53 2.688-5.19 1.372-5.647-1.47-.256-1.503 1.068-2.588 1.496-1.225 1.135 2.834 3.913 2.152 3.46-.66-.297-1.858-2.154-2.882-5.825-3.916-4.413-1.243-5.725-2.754-6.585-6.372-.38-1.602-.32-2.44.526-3.277.42-.413.952-.834.952-.834s.59 2.435.835 3.562zm115.41-2.296c.402 0 .726.323.726.724s-.323.725-.725.725c-.4 0-.724-.323-.724-.724s.324-.724.724-.724zm-138.482.688c1.314.476 2.443 1.18 3.798 1.642.88.3.64 1.002-.272 2-1.014 1.2-2.01 1.79-3.418 2.457l.015-2.026c1.71-.598 2.798-2.022-.074-2.48l-.048-1.594zm141.902 1.13c.497.006 1.202.023 2.028.194 2.094.433 2.34.618 1.08 2.09-.465.545-1.158 1.368-1.538 1.83-1.238 1.724-1.905 1.132-2.48-1.097-.716-2.326-.88-3.22.91-3.016zm-135.338.83c.4 0 .724.324.724.725 0 .4-.323.725-.725.725-.4 0-.725-.323-.725-.725 0-.4.324-.724.724-.724zm133.227 1.577c.2.735.503 1.672.733 2.335 1.137 2.506.418 1.537-1.618 1.315-1.368-.148-3.547.08-4.085-.298-.235-.307-.02-1.11.42-2.02.618-1.277 1.74-2.366 2.58-2.86 2.12-.98 1.627.266 1.97 1.527zm-122.316-.89l22.82 30.17-1.788 2.55-23.473-31.02 2.44-1.7zm143.013.112c-11.862 8.57-16.418 18.976-17.343 20.335l17.39-6.71-.047-13.626zm-22.648.982c-.65.18-1.584 1.385-1.183 1.858.24.247 1.196.28 1.655.11.706-.258.224-1.972-.472-1.968zm-100.003 32.63l-4.86 6.125-25.326-32.76 6.39-4.614 23.796 31.25zm121.387-31.84l.178 11.26-14.875 6.2c4.98-8.414 9.86-13.615 14.696-17.46zm-101.712.954l5.958 7.757-7.28-.166 1.322-7.59zm75.333.635c.4 0 .726.324.726.725 0 .4-.324.725-.725.725s-.723-.323-.723-.725c0-.4.323-.724.724-.724zm4.367 1.836c2.725.037 3.634.185 2.842 1.524-1.06 1.307-1.683 2.55-2.836 3.758-.665.677-1.498-.72-2.193-2.956-.56-1.805-.276-2.26.79-2.274 1.067-.016 1.248-.054 1.397-.052zm-3.148 2.442c.223.713.743 1.886 1.158 2.602.414.716.88 1.512.85 1.65-.07.335-.388.36-1.105.09-1.553-.698-5.202.04-5.298-.304-.542-.772.27-2.88 1.803-4.337.75-.714 1.434-1.178 1.83-1.185s.467.543.76 1.483zm-127.29-.554l25.772 33.467-1.784 2.172-26.06-34.113s-4.114 2.015-5.325 2.687l.164 17.31-.705-.034.105 87.673 14.38-14.34-.188-59.487c3.05 2.87 5.66 5.93 9.153 8.744l5.98-.047c15.612-15.88 24.162-29.47 26.04-53.803 1.255-16.28-4.154-36.753-18.5-56.593l-3.504 2.13 6.92 10.43-14.66 6.497c-5.84 12.312-12.763 23.674-25.425 30.18l-.07 15.935-.222.33.168 5.002 7.76-4.14zm125.998 1.143c-.685.05-1.755 1.527-1.265 2.03.577.275 1.468.256 1.84-.238.256-.485.192-1.51-.575-1.793zm-76.876 3.446l7.568.044-1.98 6.492-7.37-.14 1.782-6.397zm71.894-.028c.4 0 .724.323.724.724s-.323.723-.724.723-.725-.323-.725-.724.326-.725.726-.725zm-38.558.197l.98 8.432c-8.256 3-17.156 8.093-24.94 17.455-1.33-.088-11.945.09-11.945.09.266.04 9.835-18.02 10.938-25.856l24.968-.122zm-29.974.785l-3.47 2.385 2.712 2.892 3.59-2.433-2.832-2.843zm72.228.036c.738-.003 1.728.087 2.52.227 1.28.248 1.47.272 1.037 1.328-.576 1.4-1.874 3.927-2.202 4.128-1.172.727-3.776-4.483-2.89-5.385.236-.184.734-.293 1.534-.297zm-3.318 1.602c.335-.03.782.622.915 1.185.16.682 1.34 2.4 2.085 3.227.937 1.036.888 1.182-.453 1.288-1.598.128-3.157.44-4.057.77-1.394.505-1.583.394-1.404-1.236.27-2.455 1.908-5.148 2.914-5.235zm-1.224 5.073c.174.475 2.336-.397 2.456-.967-.02-.255-.868-1.734-1.38-1.802-.863.137-1.226 2.1-1.076 2.77zm-73.03-.333l7.154.067-2.347 5.894-7.07-.02 2.264-5.94zm3.203.79l-3.428 2.167 2.67 2.583 3.282-2.265-2.524-2.485zm72.743 1.07c.606-.007 1.25.052 1.385.274.38.624-1.167 4.122-1.167 4.122l-2.52 1c-.543-1.116-1.47-2.276-1.694-3.485-.09-.528.177-.72.76-1.05.87-.487 2.224-.853 3.236-.863zm-6.754.285c.4 0 .724.323.724.724s-.323.724-.724.724-.725-.323-.725-.724.325-.724.725-.724zm-32.62.1s1.545 8.734 1.63 7.772c-11.93 4.493-18.908 11.123-22.215 17.59l-22.382-.016 4.995-7.752 13.25-.066c6.406-7.773 14.307-13.972 24.72-17.527zm-2.866 2.056l-1.105 3.528 3.347 2.134 1.26-3.79-3.5-1.872zm36.664.07c.284-.027.564.45 1.14 1.47.425.756.984 1.853.984 1.853l-1 .37c-.808-2.758-1.55-1.73-1.635.703l-1.373.546s.15-2.348.933-3.72c.45-.788.7-1.202.95-1.225zm-72.957 2.412l6.937.086-2.9 6.01-7.053-.193 3.016-5.902zm30.255.482l-.55 4.46 3.735.79.512-4.236-3.697-1.014zm-27.306.053l-3.427 2.216 2.25 2.958 3.296-2.216-2.118-2.96zm21.95 3.905l-.71 4.107 3.503.796.797-4.13-3.59-.772zm-76.16.24l8.77 8.693.483 60.65-8.72 8.747-.533-78.088zm47.716 2.22c-.03.05 6.996.202 6.996.202l-2.812 5.076-2.402-.107 3.162-2.158-2.027-2.592-3.25 2.118 1.812 2.62-4.745-.1 3.266-5.06zm45.24 1.503l2.383 7.87-2.862.497-2.15-7.403c.876-.454 1.754-.68 2.63-.963zm-22.5.493l.05 4.72 3.822.324.15-4.426-4.02-.617zm19.005.753l2.18 7.477-1.818.518-2.603-7.097c.712-.42 1.456-.73 2.24-.897zm-3.317 1.543l2.8 7.32c-3.867 1.567-7.878 4.924-10.897 8.274-2.24-1.645-3.556-1.816-4.937-2.188 3.807-7.093 8.304-10.817 13.033-13.407zm-42.257 1.835l7.355.222-5.117 7.64-8.32-.01 6.08-7.852zm21.897.284l-.48 4.47 3.94 2.326.6-4.59-4.06-2.207zm-4.745.627l-2.8 2.96 2.974 3.392 2.728-3.544-2.902-2.81zm-6.26.154l-3.325 3.052 2.646 3.45 3.04-3.47-2.36-3.03zm-42.37 2.847l.324 59.25-12.22 11.842-.09-3.188 9.714-10.145c.01-20.04-.053-40.082-.12-60.123l2.39 2.363zm32.51-1.914l-3.375 4.6 4 .01 2.902-4.455-3.53-.155zm-20.81 28.67c-1.33 4.79-7.464 9.98-7.573 9.894 3.036 4.352 2.934 10.558.256 13.614.012-.067 4.882 3.975 5.565 6.073.386.836.54 1.854 1.028 2.684.13.22.54.766.54.766 11.896-12.06 6.232-26.196.185-33.03zm.178 1.253c11.55 14.328 3.936 27.442-.094 31.1l-.77-1.27c8.58-9.973 4.944-22.225-.056-28.025l.92-1.804zm-1.25 2.788c.077.233.527.908.193.864l-.58-.115.387-.75zm-.086 1.598c.25 0 .46.078.574.252.235.39-.96 3.686-1.696 2.917-.222-.434-.483-.81-.688-1.262-.24-.537-.082-.797.468-1.33.38-.37.924-.575 1.342-.576zm1.66.893c.585.045 1.415 1.883 1.492 3.195.036.136-1.972-.31-2.505-.922.065-.537.57-1.905 1.015-2.273zm-4.517 1.5c3.478 6.99 3.26 12.45.198 17.472l-2.398-2.05c1.612-3.82 2.41-7.895-.305-13.083l2.505-2.34zm2.346 1.748c.24-.02.983.09 1.64.3 2.328.743 2.415 2.267.175 3.384-.928.462-1.217.258-1.752-2.07-.265-1.153-.465-1.58-.063-1.614zm4.493 2.68c.45-.003.655.845.71 2.307.052 1.39-.243 1.497-1.36.507-1.21-1.07-1.418-1.325-.31-2.206.324-.257.756-.607.96-.608zm-3.17 2.292c.22-.02.862.39 1.49.87 1.59 1.21 1.238 2.043-.57 2.63-1.252.406-1.19.457-1.157-1.71.014-1.07-.05-1.765.235-1.79zm21.063 1.973c-1.943.492-2.76 2.225-2.114 3.784.293.71.738.715.216 1.148-.583.673-.893 2.23-.252 2.798.757.434.952-.314.154 1.15l-14.63 26.872 87.815-.163-10.556-19.768c.024-.03.845-3.263-.844-3.652-.543-.125-.853-.63-.963-1.11.138-1.376-.487-1.96-1.013-2.67-8.348 1.178-15.6.59-21.59-.757-8.628-1.94-14.795-5.3-18.805-6.355-5.528-1.455-12.202-2.088-17.42-1.277zm4.73.185c6.804-.04 14.42 2.04 19.75 4.35 5.53 2.283 11.39 3.985 17.31 4.86 4.886.614 9.76.305 14.43-.065.512-.077 1.04-.007 1.422.397.968 1.076.31 1.75-2.114 1.975-3.89.32-8.715.184-12.994-.46-6.775-.777-13.96-2.826-20.156-5.395-7.745-2.906-14.86-3.88-20.48-3.02-3.087.47-3.54.544-3.528-.285.02-1.62 1.36-2.36 6.36-2.357zm-22.296 4.69c-.3.687-2.415-1.557-2.394-2.19.045-.278 1.758-1.396 2.438-1.85.33-.253.308-.122.312.174.012.845-.055 3.03-.356 3.867zm-3.258-1.654c.977.13 2.582 2.767 1.168 3.175-1.252.36-2.39.594-2.543-.246.646-2.063.888-2.88 1.26-2.926.038-.006.078-.006.116-.005zm56.786 9.002c6.233 1.078 14.415 1.723 19.763 1.305 3.065-.31 3.71-.21 3.692 1.068-.012.8.075.78-3.88.777-3.29.22-6.25-.133-9.433-.298-6.586-.327-12.57-1.455-18.1-3.375-6.136-1.593-11.45-4.65-17.455-5.28-5.507-.54-10.46.434-11.498 1.01-.347-.004-.527-.518-.507-.992.02-.463.192-.835.58-1.13 15.782-3.98 24.23 4.545 36.837 6.914zm-54.724-5.272c.525.006.358.784-.503 2.433-.73 1.402-1.02 1.395-1.433-.043-.442-1.536-.4-1.706.478-1.93.516-.125.953-.396 1.458-.46zm-3.684.782c.617.01 1.492 2.8 1.043 3.325-.355.415-1.64.134-2.013-.356-.6-.788.168-2.98.97-2.968zm27.59.754c2.447-.024 4.887.237 7.13.623-1.292.477-2.577.917-3.918 1.69-.926-.795-1.98-1.57-3.213-2.314zm3.18 3.39c8.65-4.825 12.304 1.834 13.554 2.908 7.563-1.674 9.044-.85 13.264 3.71 7.573-3.704 11.244-.556 14.405 1.436 3.71-3.466 8.41-3.562 10.86-1.822.46.767 1.097 1.74 1.148 2.03.04.226-.306-.037-1.158-.647-4.447-3.18-11.828.782-9.856 4.978.532 1.13.447 1.617-.347 2.07-1.128.764-2.514-.503-1.728-1.795 1.312-2.158.324-3.965-2.867-5.633-4.498-2.352-11.847.282-10.334 3.75.968 1.107.07 1.89-1.207 1.85-1.446-.046-1.937-1.013-1.01-2.047 1.158-1.32.855-2.66-.493-4.185-4.04-5.753-12.21-3.472-11.13 1.57.476 1.25-.875 1.757-2.277 1.2-.892-.355-.76-1.734.218-2.22 1.123-.115 1.282-1.742 1.148-2.786-.195-1.52-2.437-3.018-4.653-3.812-1.604-.575-3.095-.698-4.27-.59-2.484.227-3.87 1.913-3.462 4.44.24 1.49-.176 3.036-1.926 2.216-.958-.448-.717-1.53.26-2.53 3.44-3.357-3.484-7.443-7.664-4.63-.708.584-1.226.685-1.226.685 2.62-6.524 10.83-.413 10.752-.145zm11.393-.88l5.224 1.967c-1.203.237-2.052.577-2.905.916l-2.318-2.884zm-13.642 2.12c-4.82-.912-5.083 4.475-1.94 5.354-4.323 5.938 6.995 8.242 4.918.915 5.735 1.033 4.698-5.492.434-5.433.997-2.432 8.87-.59 8.53 1.218-5.322.564-3.195 5.413-.893 5.418-5.565 5.27 5.57 10.126 5.275 2.184 4.467.94 4.992-4.99.697-5.382 1.573-2.213 7.19-.817 8.75 1.713-4.436.59-4.158 4.482-.69 5.11-4.396 5.6 6.427 7.67 5.302 1.16 3.877 1.334 6.005-3.84.98-5.32 5.147-3.064 10.735 1.506 10.13 1.6-5.873-.35-4.703 5.537-.453 5.218-2.704 6.11 8.012 6.452 5.294.114 4.82.088 4.397-5.497-.22-5.87 2.907-2.12 6.187-2.306 8.296-.322-4.395 1.156-2.57 6.264 1.852 4.85.41 4.274 3.885 3.367 3.962 3.238l3.11 5.802-84.26.135 7.192-13.272c4.25.218 4.1-3.873 3.912-3.974 2.826 2.02 5.866-2.997 1.73-4.435 3.38-3.537 8.39-.272 8.09-.018zm-27.43-.37c-.176.182-.222.29-.512.02-.734-.84 1.264-.91.512-.02zm17.423 2.224c.37.304.116 1.136-.186 1.42-.76.813-1.016.75-.347-.655.197-.425.384-.77.533-.765zm36.915.376l4.38 1.06-2.08 1.173c-.768-.836-1.508-1.557-2.3-2.234zm13.69 1.765l4.766.305c-.63.43-1.25.827-2.02 1.607-.6-.638-1.735-1.274-2.746-1.91zm15.873 4.86c.266.55 1.317 2.473 1.218 2.523-1.54.27-1.953-2.024-1.218-2.524z"/></g></svg>