<svg version="1.2" baseProfile="tiny" xmlns="http://www.w3.org/2000/svg" xmlns:xlink="http://www.w3.org/1999/xlink" width="225" height="314" viewBox="0 0 225 314" preserveAspectRatio="xMinYMin meet"><defs><style type="text/css">use { fill: #d40000; } .maxi-card { display: none; } .mini-card { display: block; } @media (min-width: 75px) { .maxi-card { display: block; } .mini-card { display: none; } }</style><path id="suit" d="M16.49.2c7.12-.476 10.832 5.638 11.557 10.455.432.766.668.55.834-.042.35-6.186 5.856-11.24 10.956-10.55 8.3.108 13.344 9.393 11.926 17.25-1.733 9.6-6.877 15.38-10.77 21.333C36.584 44.81 30.653 53.716 28.74 58c0 0-6.027-9.222-13.87-20.067-5.243-7.252-9.44-15.11-9.83-21.875-.447-7.73 2.71-14.66 11.45-15.86z"/><path id="numeral" d="M0 25.663L2.578 23.8c2.24 3.577 4.74 5.935 8.566 5.53 5.742-.39 8.12-6.296 6.918-10.753-1.16-3.99-5.916-5.938-9.694-3.808-.892.502-1.922 1.122-1.922 1.122L5.1 13.702l8.87-10.317H4.346v4.27H.654V0h18.812v2.6s-5.04 5.13-6.707 7.94c4.103.148 7.41 2.7 8.595 6.737.693 2.124.382 6.984-.523 9.076-1.512 3.492-5.65 6.325-9.434 6.488C5.052 33.26 1.68 28.894 0 25.664z"/></defs><rect width="100%" height="100%" fill="#fefefe"/><g class="mini-card"><use xlink:href="#numeral" transform="matrix(3.5 0 0 3.5 78.4 33.95)"/><use xlink:href="#suit" transform="matrix(2 0 0 2 55.5 170)"/></g><g class="maxi-card"><use xlink:href="#numeral" transform="translate(7 12)"/><use xlink:href="#suit" transform="matrix(.4 0 0 .4 6 51)"/><use xlink:href="#numeral" transform="matrix(-1 0 0 -1 218 302)"/><use xlink:href="#suit" transform="matrix(-.4 0 0 -.4 218 263)"/><use xlink:href="#suit" transform="translate(84 28)"/><use xlink:href="#suit" transform="translate(84 128.5)"/><use xlink:href="#suit" transform="matrix(-1 0 0 -1 141 286)"/></g></svg>