<svg version="1.2" baseProfile="tiny" xmlns="http://www.w3.org/2000/svg" xmlns:xlink="http://www.w3.org/1999/xlink" width="225" height="314" viewBox="0 0 225 314" preserveAspectRatio="xMinYMin meet"><defs><style type="text/css">use { fill: #d40000; } .maxi-card { display: none; } .mini-card { display: block; } @media (min-width: 75px) { .maxi-card { display: block; } .mini-card { display: none; } }</style><path id="suit" d="M16.49.2c7.12-.476 10.832 5.638 11.557 10.455.432.766.668.55.834-.042.35-6.186 5.856-11.24 10.956-10.55 8.3.108 13.344 9.393 11.926 17.25-1.733 9.6-6.877 15.38-10.77 21.333C36.584 44.81 30.653 53.716 28.74 58c0 0-6.027-9.222-13.87-20.067-5.243-7.252-9.44-15.11-9.83-21.875-.447-7.73 2.71-14.66 11.45-15.86z"/><path id="numeral" d="M.004 23.055c.16-4.375 1.77-6.02 4.944-8.31-2.53-1.796-3.6-4.438-3.384-6.688C2.084 2.61 6.376-.115 11.05.003c4.674.12 8.703 3.763 9.018 7.722.272 3.443-.77 5.103-3.257 6.914 2.953 2.44 4.842 4.05 4.77 8.36-.072 4.31-3.806 9.438-10.314 9.598C4.758 32.756-.156 27.43.004 23.055zm18.172.013c.28-3.96-3.288-6.635-7.312-6.676-3.923-.04-7.432 3.246-7.433 6.803 0 3.822 4.564 5.896 7.512 5.908 3.583.014 6.994-2.623 7.234-6.035zM16.89 8.898c.077-3.34-3.058-5.73-6.29-5.637-2.875.087-5.92 2.243-5.922 5.032-.003 3.49 3.462 5.232 6.417 5.3 2.68.06 5.735-2.176 5.794-4.695z"/></defs><rect width="100%" height="100%" fill="#fefefe"/><g class="mini-card"><use xlink:href="#numeral" transform="matrix(3.5 0 0 3.5 78.4 33.95)"/><use xlink:href="#suit" transform="matrix(2 0 0 2 55.5 170)"/></g><g class="maxi-card"><use xlink:href="#numeral" transform="translate(7 12)"/><use xlink:href="#suit" transform="matrix(.4 0 0 .4 6 51)"/><use xlink:href="#numeral" transform="matrix(-1 0 0 -1 218 302)"/><use xlink:href="#suit" transform="matrix(-.4 0 0 -.4 218 263)"/><use xlink:href="#suit" transform="translate(34 28)"/><use xlink:href="#suit" transform="translate(134 28)"/><use xlink:href="#suit" transform="translate(84 82.5)"/><use xlink:href="#suit" transform="translate(34 128.5)"/><use xlink:href="#suit" transform="translate(134 128.5)"/><use xlink:href="#suit" transform="matrix(-1 0 0 -1 91 286)"/><use xlink:href="#suit" transform="matrix(-1 0 0 -1 191 286)"/><use xlink:href="#suit" transform="matrix(-1 0 0 -1 140 236)"/></g></svg>