<svg version="1.2" baseProfile="tiny" xmlns="http://www.w3.org/2000/svg" xmlns:xlink="http://www.w3.org/1999/xlink" width="225" height="314" viewBox="0 0 225 314" preserveAspectRatio="xMinYMin meet"><defs><style type="text/css">use { fill: black; } .maxi-card { display: none; } .mini-card { display: block; } @media (min-width: 75px) { .maxi-card { display: block; } .mini-card { display: none; } }</style><path id="suit" d="M20.976 57.14c2.88-5.774 4.976-11.7 5.348-18.036.342-2.33-1.074-2.37-1.288-.73C20.96 53.97-.727 49.745.02 35.08.622 23.182 12.44 20.624 18.6 24.513c2.435 1.434 2.296.575.968-.91C10.416 13.39 15.958.24 28.33 0c13.38.793 16.854 14.87 8.647 23.147-1.02.994-3.283 4.19.123 1.956 8.287-5.888 19.787.443 19.553 9.52-.434 16.74-20.84 17.987-25.203 4.007-.42-1.55-1.63-2.328-1.295.305.604 4.767 1.855 11.953 5.438 18.205H20.976z"/><path id="numeral" d="M.224 26.224l3.025-.942c1.142 2.995 3.45 3.88 5.892 3.688 4.38-.34 5.836-5.147 6.164-9.397-1.707 1.772-4.273 2.674-6.46 2.586-6.98-.37-8.77-5.855-8.833-11.602C-.182 5.71 1.86 2.203 5.36.594 7.215-.22 11.46-.22 13.32.742c4.283 2.217 5.867 6.05 5.58 15.19.004 7.523-1.625 16.287-9.838 16.476-4.748.644-8.352-2.98-8.838-6.184zM12.11 17.98c1.428-.887 2.23-1.717 2.868-2.963.525-1.02.703-1.553.553-3.67-.384-5.456-3.298-8.547-7.523-7.933-2.356.344-3.644 1.64-4.382 4.05-1.367 4.45.364 9.656 3.606 10.854 1.465.54 3.717.386 4.88-.338z"/></defs><rect width="100%" height="100%" fill="#fefefe"/><g class="mini-card"><use xlink:href="#numeral" transform="matrix(3.5 0 0 3.5 78.4 33.95)"/><use xlink:href="#suit" transform="matrix(2 0 0 2 55.5 170)"/></g><g class="maxi-card"><use xlink:href="#numeral" transform="translate(7 12)"/><use xlink:href="#suit" transform="matrix(.4 0 0 .4 6 51)"/><use xlink:href="#numeral" transform="matrix(-1 0 0 -1 218 302)"/><use xlink:href="#suit" transform="matrix(-.4 0 0 -.4 218 263)"/><use xlink:href="#suit" transform="translate(34 28)"/><use xlink:href="#suit" transform="translate(34 95)"/><use xlink:href="#suit" transform="matrix(-1 0 0 -1 91 221)"/><use xlink:href="#suit" transform="matrix(-1 0 0 -1 91 286)"/><use xlink:href="#suit" transform="translate(84 120.5)"/><use xlink:href="#suit" transform="translate(134 28)"/><use xlink:href="#suit" transform="translate(134 95)"/><use xlink:href="#suit" transform="matrix(-1 0 0 -1 191 221)"/><use xlink:href="#suit" transform="matrix(-1 0 0 -1 191 286)"/></g></svg>