<svg version="1.2" baseProfile="tiny" xmlns="http://www.w3.org/2000/svg" xmlns:xlink="http://www.w3.org/1999/xlink" width="225" height="314" viewBox="0 0 225 314" preserveAspectRatio="xMinYMin meet"><defs><style type="text/css">use { fill: black; } .maxi-card { display: none; } .mini-card { display: block; } @media (min-width: 75px) { .maxi-card { display: block; } .mini-card { display: none; } }</style><path id="suit" d="M20.976 57.14c2.88-5.774 4.976-11.7 5.348-18.036.342-2.33-1.074-2.37-1.288-.73C20.96 53.97-.727 49.745.02 35.08.622 23.182 12.44 20.624 18.6 24.513c2.435 1.434 2.296.575.968-.91C10.416 13.39 15.958.24 28.33 0c13.38.793 16.854 14.87 8.647 23.147-1.02.994-3.283 4.19.123 1.956 8.287-5.888 19.787.443 19.553 9.52-.434 16.74-20.84 17.987-25.203 4.007-.42-1.55-1.63-2.328-1.295.305.604 4.767 1.855 11.953 5.438 18.205H20.976z"/><path id="numeral" d="M19.876 0H9.636v3.498h3.808s-.045-.664-.012 7.14c.02 5.474.016 8.968-.05 11.267.02 3.062-.485 4.936-1.69 6.06-1.908 1.605-5.64 1.444-7.02-.066-1.022-1.188-1.238-3.454-1.177-6.122H.015s.003 1.29 0 1.97C-.588 36.342 16.28 34.207 16.82 25.42c.112-1.876.056-1.193.01-11.597-.05-11.146-.01-10.32-.01-10.32h3.056V0z"/></defs><rect width="100%" height="100%" fill="#fefefe"/><g class="mini-card"><use xlink:href="#numeral" transform="matrix(3.5 0 0 3.5 78.4 33.95)"/><use xlink:href="#suit" transform="matrix(2 0 0 2 55.5 170)"/></g><g class="maxi-card"><use xlink:href="#numeral" transform="translate(7 12)"/><use xlink:href="#suit" transform="matrix(.4 0 0 .4 6 51)"/><use xlink:href="#numeral" transform="matrix(-1 0 0 -1 218 302)"/><use xlink:href="#suit" transform="matrix(-.4 0 0 -.4 218 263)"/><use xlink:href="#suit" transform="matrix(.8 0 0 .8 38 36)"/><use xlink:href="#suit" transform="matrix(-.8 0 0 -.8 186 278)"/><path fill="#E2CF00" d="M62.98 279.226c-.836 1.194-4.455-7.136-6.777-13.447-1.145-3.104-2.668-5.66-2.04-6.475 1.657-1.674 5.94-.178 9.06 2.214 3.33 2.554 5.682 6.31 5.682 6.31l-5.925 11.396zm-29.21-6.175l-.105-4.646c2.87-2.58 6.963-6.308 11.133-11.123l-10.818.066-.852-4.04-.11-176.6s11.858 12.28 12.165 12.282c.355.002.133 73.32.088 122.348.097.232-6.253.088-6.67 3.295-.274 2.122 6.888 1.83 7 1.97-.015 22.04-.32 37.86-.165 37.86 5.438 0 6.578.216 6.578.216-6.133 6.34-12.508 11.522-18.244 18.375zm38.657-22.685c-.957-1.902-2.48-9.217-3.646-9.04-5.35 1.77-7.073-6.116-1.536-6.522 2.098-.15 4.438 2.576 5.75 5.972.63 1.774-.02 10.3-.567 9.59zm1.205-10.97c-1.578-2.573-3.088-11.978-5.965-11.444-2.625.6-4.305-1.698-4.05-3.712 1.35-5.65 10.968-.28 13.49 1.02-1.248 2.84-3.016 9.914-3.475 14.138zm-20.176-25.794c-.688-.28 1.07-3.118 1.088-6.39.02-3.704-1.67-7.796-1.47-8.392 6.296-4.935 14.853-10.248 16.41-7.422 1.6 12.02.772 18.705-1.022 27.68l-1.186.62s-1.988-.374-3.467-1.136l-7.753-3.896-2.6-1.063zm101.258-90.743c-1.164-9.262-.318-23.67 1.336-29.373.635-1.93 12.623 6.054 13.58 6.648.896.558 1.328.474.787 2.908-.627 2.814-.53 6.124.357 9.893.328 1.406.588 1.952-.297 2.57-.917.64-15.46 8.29-15.763 7.354zm-5.687-38.435c.248-.594 1.236-7.525 1.545-7.553 1.004-.088 2.48 6.787 5.04 9.057 4.835-.558 5.4 2.715 4.456 4.297.232.693-1.562 2.202-3.238 2.06-4.17-1.628-9.794-3.068-7.803-7.862zM84.35 78.778c-1.36-.96 1.226-7.87 8.585-6.283 3.168-5.962 3.342-19.405 4.87-20.237 2.308-.85 25.796-7.367 25.1-1.687-.753 6.1-1.966 35.484-10.812 42.705-.89 1.055 13.998 11.12 13.998 11.12s15.7-9.772 14.804-9.627c-.387.104-.69 8.312-.922 21.586-.223 12.812 1.652 21.982 5.56 35.533-.497 1.64 2.985 9.837 6.884 17.964 4.42 9.216 10.398 18.52 10.398 18.52-10.277-3.462-19.723-2.114-31.244-6.07l-.564 45.54s5.965 3.113 7.115 4.545c.562.7.628 1.675.69 2.558.25 3.438-2.657 7.528-8.19 6.18-1.733 6.066-4.22 20.33-4.315 20.326-8.443 1.134-17 2.353-25.553 1.898 0 0 1.28-4.58 1.77-11.47.178-2.51.305-5.21.6-8.085 1.082-10.586 4.197-22.146 9.23-22.89-.993.394-12.765-9.753-14.372-10.48-6.615 3.452-15.312 9.243-15.312 9.243s1.145-8.387 1.2-17.178c.054-9.424-.612-19.838-.91-22.55-2.282-15.526-8.628-29.66-13.755-40.234-2.062-4.25-5.145-11.048-5.145-11.048 7.56-.87 16.12-.457 29.48 3.53 0 0-.753-45.96-.757-45.706.122.41-3.435-1.463-6.688-3.53-1.75-1.11-1.57-4.053-1.74-4.172zm66.665-10.304c.057-.47.27-5.66.27-5.66 2.093 2.45 3.776 9.636 4.192 9.514 0 0 2.688-.42 3.52.468 2.726 2.897.048 6.318-2.675 5.68-2.706-.697-5.684-5.326-5.307-10.002zM178.792 224.3s-.713-81.11-.697-121.965c2.912-.476 5.928 1.462 8.656-2.682-1.442-2.99-5.56-2.078-8.66-2.683l-.028-37.668s-5.168-.09-5.174-.43c-.004-.31 2.664-2.82 7.713-8.097.608-.635 1.64-1.735 2.29-2.445 2.55-2.776 6.594-7.4 6.787-7.214 1.588 1.347 1.422 3.535-5.95 10.38-5.374 4.99-5.58 4.656.362 4.573 5.667-.105 6.388-.576 5.593 1.464.012.833.66 1.48.508 1.613-.165.14.036 177.206.036 177.206L178.792 224.3zM161.476 35.384c.04.104.78.387 1.582 1.27 3.27 5.35 4.965 12.13 7.53 16.804-5.317 2.362-12.692-2.88-14.472-7.464-2.158-5.773 4.165-13.79 5.36-10.61z"/><path fill="#131F67" d="M31.607 27.874l.21 257.113 160.802.24-.692-257.648-160.32.294zM84.85 81.93c.222.415.575 1.014.575 1.014s-.387.1-.658.275c-18.605 6.883-38.73 22.216-39.078 22.666l.353-16.973-12.477-12.966.047-45.993h48.39l14.194 23.728c-.854 6.216-3.064 18.247-3.064 18.247-1.303-.314-5.697-.73-8.07 2.676-1.134 1.623-1.738 3.836-.212 7.325zm90.727 52.935l1.838-2.328-3.24.148 2.225-2.413-3.584-.082 2.795-2.374-3.772-.044 2.805-2.334-4.13.186 2.958-2.54-4.08.02 3.044-2.557-3.992-.055 2.594-2.295-3.486-.042 3.94-2.768c1.685.735 3.94 1.153 6.214 1.2l.047 18.63-2.173-.352zm2.827-32.302c9.215.03 11.186-4.893.05-5.675 0 0-.872-24.428-.622-34.54.002-1.232.12-2.62.12-2.62l-6.067-.154s16.262-17.553 17.795-18.98c1.39 59 1.328 195.986 1.328 195.986l-12.428-12.432-.137-38.732c-4.158-4.213-6.54-10.36-9.02-14.338l-6.795-3.303 1.598-5.46-.684-1.55-2.12 7.723 7.435 3.533.785 1.6-1.252 7.276 7.035 2.412 1.22 1.674-.44 7.106 1.455.445.016 1.408-1.46-.122-.522 7.98 1.986.583-.004 1.803c-.002-.03-1.158.008-1.727-.043-.784-.425-2.077-2.104-2.077-2.104l.7-8.86-8.917-1.787-.664-.94 1.64-8.855-9.362-2.864c.96 2.365 2.234 4.576 3.295 6.904-1.285.37-2.63.455-3.93.734-.352 11.965.055 24.414-.318 35.666-7.535.545-4-.174-7.277-.123-1.283 0-2.322 1.042-2.322 2.325 0 .817.424 1.54 1.066 1.953l-1.3.465-2.27-2.57 4.746-4.55-.03-1.31-5.892 5.893 2.55 2.943-1.517.785-2.327-2.45s-5.01 5.127-4.697 5.22c.154.048.434.306.62.57 3.57 7.7-1.3 11.378-7.183 9.247-1.496 7.088-2.922 13.48-4.1 20.823-4.396 1.66-25.074 2.62-25.303 2.238 0 0-.523-.5-.547-.75.094-.328-.594.684-.594.684 0 .438-18.024-.448-26.913-2.143 0 0-.184-.854-.11-1.978.146-2.256-.028-2.233 2.022-1.905 4.192.28 7.444-1.157 8.737-4.846.727-2.065.385-3.928-.72-9.452-1.075-5.367-1.085-4.79-.958-5.515.147-.852 1.067-1.803 2.388-2.873.996-.81 1.098-2.334.295-1.49-.553.806-1.52 1.093-2.39 1.542-2.04 1.067-1.974 2.098-.77 6.506.565 2.067 1.157 4.295 1.177 4.555.06.81-.23.48-1.445-.354-.78-.568-1.676-1.04-2.475-1.507-2.443-1.303-1.36.123.99 1.688 1.848 1.37 2.152 1.96.56 1.303-1.644-.672-4-.38-5.847.312-.36.202-.63.18-.688-.15-.082-.52.234-1.813.37-4.81.345-7.572 2.13-15.646 7.167-20.312 7.213-6.678 19.062-2.146 25.64 4.04l.712-1.08c-4.414-3.706-12.066-8.327-19.518-7.43 3.115-2.6 9.988-6.903 9.988-6.903 4.715 3.418 8.19 6.828 13.363 10.53l.9-.6-14.232-11.282-15.332 10.108s.64-9.695.877-13.24l-6.648 5.88 5.13 7.593-5.44 5.596s.918-.13-.086 1.598c-1.53 3.104-2.455 8.104-3.16 13.184.137 3.795-.8 7.99-1.088 11.332-.504-3.13-1.098-4.773-2.256-7.615-1.062-2.736-1.48-2.716-2.68-2.316-6.506.547-3.562-12.002 4.125-3.793.338.35.895.773.92.69.16-.503-2.04-7.112-2.893-8.636-.898-1.61-.906-1.836-2.242-1.7-2.5.26-3.346-.632-3.6-3.263.332-4.975 5.717-2.872 9.166-1.343.312.237-1.62-1.76-2.31-2.46-.938-.958-1.09-1.57-1.09-1.57l.204-2.643 5.273-4.815-4.338-6.405.184-2.29 4.638-5.562-4.94-5.36-.062-1.913 4.016-5.342-5.38-4.314-.263-1.72s3.454-6.394 3.358-6.626c-.078-.195-5.832-4.166-5.832-4.166l-.578-2.688 2.5-6.822-5.98-3.412-1.095-3.083 1.684-6.32-6.2-2.862-1.77-3.562 1.15-6.642-6.95-2.058-1.844-2.92.242-5.842-1.7-.176.022-1.44 1.895.015s-.146-.217.062-3.103c.354-4.906.39-4.718-.78-4.92-2.47-.43-1.903-1.946.62-1.665.387.043.713.076.99.128.664.125 1.176.986 1.176.986l-.555 9.06 8.89 1.484.843 1.138-1.488 8.396 8.344 2.413 1.125 2.033-2.368 8.732 8.412 3.698.555 1.62-3.57 7.753 7.728 3.756.484 1.855-4.29 7.994 8.905 6.48s-.236-.636-.592-1.692l-7.062-5.045 3.58-6.822s.283.5.588.395c-.18-1.14-.32-2.283-.403-3.404l-3.645-9.5 11.795-7.93c-5.057-3.044-11.434-2.943-17.285-4.084 0 0-.258-.814-.697-1.546-1.703-2.73-3.236-6.205-5.137-9.79 1.398-.66 2.008-.574 3.51-.867 0 0 3.8-23.805 6.775-35.438 0 0 .46.14.684.146 1.445 0 2.617-1.175 2.617-2.62 0-.792-.355-1.498-.906-1.98.324-.092.666-.184 1.03-.27.478-.007 2.41 2.128 2.41 2.128l-4.974 4.902-.027 1.622c1.982-2.065 6.344-6.524 6.344-6.524l-2.624-2.76 1.3-.605 2.128 2.343 4.773-4.907 1.223.834c-1.607 2.11-2.654 2.8-5.062 5.295 1.258 1.487 6.13 6.182 6.13 6.182l-.015-1.62-4.803-4.656 4.67-4.66.27-.31s3.71 1.604 3.943 1.6c-1.576-1.296-4.406-2.406-5.943-3.527-6.967-4.11-.35-12.61 6.076-10.5.184.688 3.545-17.93 3.166-18.955.34-2.883.414-2.476-.584-4.127-2.992-6.894-11.72-19.94-11.72-19.94l78.544-.502c-.818 1.595-1.643 2.89-2.264 4.752 0 0 4.414 4.598 6.03 10.643.897 3.374 2.192 6.53 4.464 8.776.035.08-.08.18-.22.273-6.212 2.187-13.286-3.11-15.464-9.153l-3.562 5.81c1.61.18-23.72-2.875-29.936-2.104.555.107 1.2.564.836 2.31-.633 3.005-1.76 13.867-1.76 13.867-1.248 10.567-2.213 23.85-9.186 28.24 0 0 1.066 1.138 1.988 1.718.023-.016-.82-.867-.848-.967.004-.307.178-.5.383-.663 1.48-1.197 3.28-3.68 3.215-3.745 5.756 4.998 14.764 9.302 20.19 7.515 2.144-.45 3.095-2.514 4.23-.84-1.476 9.092-1.374 19.094-.804 26.948.89 17.51 4.756 27.542 8.586 39.946-1.97.696-12.08 7.473-12.08 7.473-.06.862 12.195 3.676 17.006 3.178 0 0 .988.964.992.76-.025-.052-.06-.122-.096-.187.713-.396 1.195-1.16 1.195-2.033 0-1.283-1.035-2.324-2.318-2.324-.24 0-.476.037-.69.105-.605-1.48-1.12-2.778-1.12-2.778l6.808 2.963-2.22 7.45.747 1.653 2.707-9.7-8.69-3.723-.59-1.72 3.605-7.36-7.77-4.604-.327-1.464 4.184-7.898-7.523-5.778 5.505-7.11-6.775-5.69.076-.942 5.613-6.462-5.804-5.966-.162-2.413 6.324-5.62-5.46-7.934c2.274-1.528 3.548-3.272 5.036-5.012l1.336.584-4.854 3.675 5.182 7.484 5.47-4.937-2.964-4.83 1.807.82 1.655 2.588-.27 2.646-5.4 4.917 4.642 6.724.04 1.233s-2.888 3.316-4.99 5.783l5.886 6.49-4.812 6.14 6.056 5.153-.172-1.547-4.465-3.77 3.427-4.152c.244-2.502-.3-6.797.98-8.683-2.066-2.022-.986-6.896.03-8.476-1.976-2.336-.847-7.466.413-7.682-1.508-1.89-.908-5.72.352-6.965.402-.216-5.38-2.302-9.03-4.808 3.036-5.647 2.33-10.964 3.286-12.88 1.314 3.79 2.994 7.822 4.447 10.726.152.302.475.233.957.242 6.033.537 5.46 5.51.934 6.783 0 0 9.2 6.853 13.863 7.61.048.122.013.283-.144.605-.662 1.368-1.043 3.735-1.143 5.817-.336 3.098 1.162 7.852 1.162 7.852l-1.91 1.18c-.38 1.637-2.516 1.67-2.723 2.836.45 5.006 10.227 24.174 12.29 26.34.788-13.675-.706-28.523.042-42.173zm-2.23 34.88l1.583-1.3-.037 2.067-1.547-.766zm1.546 3.172l-.8-.596.806-.894-.006 1.49zm-98.303 24.412c.148.942.324 1.877.516 2.793-1.123.295-1.953 1.313-1.953 2.53 0 1.447 1.176 2.624 2.623 2.624.205 0 .404-.03.598-.076.41 1.442.808 2.688 1.114 3.604l.53.38c-1.433-4.986 1.345-7.67-2.76-11.812-.06-.207-.362-.15-.667-.043zm84.7-135.24l25.56.167v9.434l-19.7 20.943 7.6.095-.08 35.924c-2.085.863-4.07 2.206-5.99 3.503l-11.98-6.63-.862-.44s.33-.093 1.033-.554c1.355-.89 1.873-3.072 1.256-4.713-1.006-2.684-3.084-2.2-4.816-2.205-1.438-1.11-2.67-4.826-3.68-7.307-.467-1.077-.912-1.9-1.027-2.526-.104-.578-.103-1.083-.103-1.083s.232.07.574.77c1.907 4.02 6.368 5.963 8.737 2.162 1.2-2.332.37-4.994-1.645-5.738-.617-.23-2.717.015-2.717.015-.123.073-1.52-1.974-3.498-8.7-.812-2.776-1.025-8.804-.252-9.67 1.31-1.59 1.645-3.82 2.756-5.424.503-1.008.478-.38 1.267.743 2.69 3.83 7.42 6.796 11.748 6.608 3.072-.133 4.02-1.18 3.295-2.066-1.686-1.723-2.79-4.14-3.342-6.26-1.29-4.928-2.654-9.324-6.117-13.154l1.986-3.897zm-12.98 23.404c.323.306.067.775.01 1.627-.147 2.16-.194 2.186-1.437 1.64-2.38-1.044-5.75-.13-7.78 2.072-2.56 2.776-2.642 5.637-1.044 11.283 1.828 6.35 1.783 7.188-.404 8.485-1.318 1.122-2.67 3.474-2.162 3.467.068-.002.252-.144.4-.313.15-.17 1.355-1.14 2.28-1.772 2.544-1.74 3.34-2.63 2.17-5.84-1.15-3.172-2.08-6.272-1.6-6.464.23-.092 1.106.94 1.65 1.252 1.11.638 3.456 1.817 3.743 1.815.398-.002-.025-.287-1.17-1.038-3.06-2.01-4.314-3.83-1.36-2.68 1.58.617 3.255.258 4.2-.052 1.1-.36 1.676-.723 1.79-.31.16 1.957.01 3.972-.112 5.938-.034.126-.183 1.465-.33 2.97-.56 5.713-1.534 10.524-4.044 13.625-8.398 10.372-17.957 7.35-28.693-.952 4.004-11.094 3.73-19.74 4.717-23.26.928-.278 2.014.266 2.69.645 1.493.852 3.194 1.362 4.83 1.45 1.52.083 1.786-.133 1.65.317-.106.35-2.558 1.067-4.06 1.38-2.732.567-2.53 1.2-.23.992 2.42-.22 4.756-1.18 7.232-2.827 1.717-1.14 1.777-1.143 1.316-2.573-.11-.345-.344-.86.477-1.162.848-.312.73-.658.246-1.043-.116-.094-.423-.116-.544-.213-.152-.12.012-.658.01-.73-3.125-2.644-8.635-2.707-13.162.005-.23-.08-.463-.436-.242-.92.477-1.043 5.35-2.292 8.81-2.348 1.577-.025 1.886.175 4.263.9.977.3 1.523.377 1.61.228.204-.338-.15-1.345-.9-1.883-2.536-1.818-6.23-1.674-11.272.327-2.697 1.07-2.418 1.437-1.547-3.89.242-1.478.52-2.605.52-2.605s23.6.84 27.482 2.456zm-3.63 5.003c1.248.008 2.39.32 3.053.967.973 1.075-.047 1.41-1.592.825-1.977-.75-4.223-.323-5.965.758-1.117.694-1.357.323-.416-.673 1.135-1.205 3.096-1.89 4.92-1.877zm-17.947 1.852c2.178-.015 4.172.375 4.988 1.294.748.838.027.925-1.84.193-2.63-1.027-6.135-.702-9.027.735-1.483.737-1.938.89-1.743.047.873-1.362 4.445-2.247 7.623-2.27zm17.406.68c2.074.004 3.836.478 3.51 1.562-.117.387-.22.153-1.703-.304-1.48-.456-3.375-.283-5.275.27-1.775.52-2.115.637-1.318-.132.964-.93 2.958-1.402 4.786-1.396zm4.225 1.04c2.1 3.235 2.472 7.98 4.702 10.55 4.135-.77 6.09 3.116 2.61 5.705-1.767.98-3.923.24-5.507-2.354-1.51-2.47-1.926-3.967-1.975-5.536.14-3.293-.048-5.055.17-8.365zm-24.193 1.486l.916.11c.664 2.25 2.152 2.388 3.043.027l.693.113c-1.055 2.894-3.69 3.013-4.653-.25zm-1.418.043c.382-.02.698.38.868.91.354 1.2-.05 1.048-.877.54-.84-.51-1.483-.846-1-1.052.36-.19.646-.322 1.01-.397zm7.86.77c.315.39.388.69-.02.976-.398.208-.69.34-1.076.478-.367.11-.594.022-.438-.508.096-.454.383-1.104.596-1.36.36-.065.74.187.94.412zm11.1-.277l.725.053c.762 2.06 2.54 1.998 3.225.212l.648-.005c-1.225 3.19-3.715 2.612-4.598-.26zm-1.308.27c.693 0 1.37 1 .988 1.514-.385.32-2.1-.045-2.252-.68-.06-.382.568-.832 1.264-.834zm6.713.195c.336.08.31.334.32.376.18.843-.83 1.137-1.057.815-.123-.177.407-.85.737-1.19zm-15.975 9.02c-1.7.475-2.488 1.94-2.38 3.577.085 1.324.774 2.403 1.78 2.633 2.023.46 3.428-.955 5.498-1.526.895-.234.686-1.388.113-1.89-.735-.645-1.864-.242-3.38.917-2.97 2.274-3.686-2.1-.977-2.87.423-.12.228-1.088-.653-.84zM46.11 173.983l1.155.334-1.152 1.367s.003-1.182-.002-1.7zm3.217 4.68l-2.38 2.675 3.23-.243-2.188 2.277 3.36.135-2.473 2.56 3.307-.067-2.443 2.47 3.122.09-2.062 2.26 3.434-.264-2.506 2.702 3.678-.066-2.787 2.52 3.667-.023-1.102 1.256.977.49c.998-.466 6.752-2.255 6.943-3.604-1.27-.34-5.012 1.562-5.26 1.248-1.5-6.617-7.97-21.25-12.236-25.518l-.3 41.352c-.652.605-1.693.306-2.36.574-2.16-.113-5.776 3.502-3.888 4.22.988.218 6.455 1.153 6.47 1.427.67 11.983-.41 24.034.087 36.827 1.528.228 6.526.513 6.526.513s-18.334 19.13-18.693 18.746c.428-20.505.203-60.59-.156-60.736.004-1.203.424-3.736.424-3.736L33.326 81.23s-.107-.57-.328-.934c-.377-.622-.404-.78-.432-2.692-.146-1.182.023-1.488.023-1.488l12.545 13.247.236 37.334s11.645 17.262 14.38 25.354c5.99 12.055 5.342 29.618 8.975 36.342.076 0 .148-.003.223-.01.088.98.1 1.374.242 1.526.27 2.193.568 5.188.568 5.188l-1.312 2.087 1.465 1.877.01 5.006-1.952 1.987 1.787 2.267-.498 4.674-1.395 1.242.793 1.065s.13 1.688-.186 3.614c-.216 1.31-1.507 1.133-4.192-.232-3.805-1.44-7.7-4.022-10.705-5.97.18-2.433 3.193-7.982-1-14.103-1.55-1.163-6.055-.737-6.447-.913l.035-18.853m-.006-2.175l2.03-.355-2.05 2.053.02-1.7zm96.664-94.11c-.164.02-.37.175-.64.476-.28.316-.73.23-1.874.16-1.223-.073-1.53-.04-2.338.252-.918.333-.938.332-1.574.062-.992-.423-1.615-.473-2.53-.213-1.12.318-1.83.23-2.52-.108-.7-.347-.924-.276-1.166.358-.104.268-.6 1.304-.83 1.654-.748 1.146-.568 1.336 1 .854 1.078-.33 3.064-.54 4.54.07 1.126.466 2.464.317 4.065-.38 1.403-.608 2.788-.804 4.134.328.785.66.742.16.54-1.204-.224-1.526-.38-2.36-.806-2.31zM89.59 87.374c-1.446 0-2.62 1.17-2.62 2.617s1.174 2.622 2.62 2.622c.687-.57 1.04-5.133 0-5.24zm50.595.02c-1.594.543-3.783 1.27-6.252.545-1.938-.593-1.477.864.63 1.048 1.466.126 1.364.126.224 1.193-.96.9.244.835.9.274.775-.66 2.885-.49 4.072.052.52.237.577-.75-.044-.967-1.564-.548-1.188-.59.52-1.146.632-.142.654-1.24-.05-1zm-50.594.857c.83.312.312 3.35 0 3.484-.962 0-1.743-.782-1.743-1.744-.002-.962.78-1.74 1.744-1.74zm-13.975.11c.668-.23 1.14.882 1.14 1.63 0 .963-.78 1.745-1.74 1.745-1.18-1.147-1.394-2.427-.03-3.148.194-.076.403-.15.63-.227zm6.888 2.563l-5.6 5.66 5.496 5.566 5.503-5.69-5.4-5.537zm66.32 2.244c.8 0 1.446.653 1.446 1.455s-.647 1.45-1.448 1.45c-.805 0-1.457-.648-1.457-1.45s.652-1.455 1.457-1.455zm-66.367 1.9c.8 0 1.45.655 1.45 1.457s-.65 1.45-1.45 1.45c-.803 0-1.45-.648-1.45-1.45s.648-1.456 1.45-1.456zm59.514 1.39l4.012 5.4-4.918 4.407.252-2.74c1.084-.195 1.906-1.147 1.906-2.29 0-.99-.62-1.832-1.494-2.165l.242-2.613zm-66.79.298l-.058 1.47 5.053 5.007-5.002 5.19.043 1.438 6.225-6.628-6.26-6.477zm14.282.004l-6.176 6.34 5.96 6.51.075-1.65-4.68-4.836 4.77-4.735.052-1.63zm89.147 1.015c1.257 0 2.335.41 2.663 1.232.258.462.395.86.77 1.033.735.336 1.73.104 1.778-.143.087 0-1.17-.12-1.384-.312-.982-.886-.816-1.442.578-1.332.45.02 1.705.04 1.734.53.28 1.694-1.975 2.935-4.857 2.708-2.056-.34-2.065.453-2.208 1.55-.092.36-.408.943-.664 1.404-.73 1.304-.967 1.122-.46 1.626.49.642 1.128 1.438 1.118 2.186l-.02 6.873s-4.315-.02-5.815-1.104c-1.567-2.865-2.638-9.044-.33-12.437.808-1.018 1.987-1.503 3.35-2.58 1.047-.83 2.49-1.233 3.75-1.235zm-24.394.772l-.156 1.986c-1.096.187-1.936 1.137-1.936 2.285 0 1.02.662 1.882 1.574 2.194l-.14 1.727-3.198-4.595 3.856-3.598zm-12.564 1.343c.473.263.793.766.793 1.346 0 .684-.44 1.266-1.055 1.47l.262-2.816zm-66.76.725c-2.215 1.15-1.45 5.606 0 5.238 1.447 0 2.617-1.177 2.617-2.622 0-1.445-1.17-2.615-2.618-2.615zm14.46.066c-1.444 0-2.62 1.172-2.62 2.617 0 1.446 1.176 2.622 2.62 2.622 1.925-.605.835-5.153 0-5.24zm64.64.664l-.23 2.86c-.507-.255-.854-.78-.854-1.386 0-.692.457-1.278 1.085-1.474zm-79.1.148c.965 0 1.74.777 1.74 1.74 0 .962-.777 1.744-1.74 1.744-.57.113-.936-3.183 0-3.484zm14.46.067c1.167.094.198 3.06 0 3.482-.962 0-1.743-.782-1.743-1.745 0-.96.78-1.738 1.743-1.738zm58.74 1.652l-5.78 5.76 5.707 6.293 4.75-5.774-4.68-6.278zm-65.726 1.096l-5.543 5.71 5.236 5.413 5.528-5.837-5.222-5.285zm-36.42 3.125l2.022 2.146-2.092.02.07-2.167zm101.692.213c.805 0 1.45.652 1.45 1.456 0 .802-.645 1.45-1.45 1.45-.8 0-1.45-.648-1.45-1.45 0-.804.65-1.456 1.45-1.456zm-65.3.787c.802 0 1.454.648 1.454 1.45 0 .803-.652 1.455-1.455 1.455s-1.45-.652-1.45-1.455c0-.802.647-1.45 1.45-1.45zm7.163 1.696l-6.124 6.328 5.916 6.3.08-1.49-4.74-4.772 4.807-4.92.06-1.447zm-14.405.01l.062 1.603 4.916 4.873-5.168 5.196.21 1.398 6.353-6.57-6.373-6.5zm66.12 1.735l4.435 4.41-4.42 4.92-.004-2.556c.91-.315 1.564-1.185 1.564-2.2 0-1.02-.656-1.878-1.57-2.19l-.004-2.385zm12.222.228l.05 1.802c-.997.26-1.735 1.164-1.735 2.242 0 1.12.797 2.057 1.854 2.274l.037 1.43-3.508-3.87 3.302-3.877zm-102.48.81s1.478 1.578 1.98 2.224c-.394.457-.638 1.048-.638 1.697 0 1.446 1.175 2.62 2.622 2.62.416 0 .807-.1 1.156-.272.27.398 1.45 2.033 1.45 2.033l-6.968-1.118.396-7.184zm38.51 1.048c-1.446 0-2.62 1.17-2.62 2.618 0 1.446 1.174 2.62 2.62 2.62 2.63-.534 2.112-5.11 0-5.237zm-14.593.1c-1.445 0-2.62 1.17-2.62 2.617s1.175 2.62 2.62 2.62c1.447 0 2.617-1.174 2.617-2.62s-1.168-2.616-2.616-2.616zm78.63.65l.08 2.906c-.614-.205-1.056-.787-1.056-1.47 0-.653.403-1.21.977-1.436zm-64.036.127c1.693.617 1.178 3.602 0 3.484-.963 0-1.744-.78-1.744-1.743-.002-.962.78-1.74 1.744-1.74zm-14.594.1c.963 0 1.74.777 1.74 1.74s-.777 1.744-1.74 1.744c-.96 0-1.744-.78-1.744-1.743 0-.963.783-1.74 1.744-1.74zm66.346.167c.473.264.793.766.793 1.347 0 .58-.316 1.086-.787 1.352l-.006-2.698zm-87.732.743l2.04 2.622c-.19.068-.392.107-.605.107-.963 0-1.744-.782-1.744-1.744 0-.367.114-.705.308-.986zm94.337 1.19l-4.79 5.756 5.886 5.22 4.173-5.166-5.268-5.81zm-65.437.693l-5.875 5.965 4.148 4.31-2.294-.252-3.318-3.385-.076 1.124 1.81 2.066-1.93-.066.34.896c4.757.135 9.282 1.533 13.897 2.448l.28-.62-1.71-.44 1.616-1.934-.02-1.47-2.797 2.996-.95-.218 3.965-4.087-.266-1.247-4.876 4.986-1.416-.32 4.953-5.056-5.482-5.696zm65.68 3.432c.8 0 1.447.65 1.447 1.45s-.646 1.45-1.447 1.45c-.805 0-1.457-.647-1.457-1.45s.653-1.45 1.458-1.45zm-65.877.754c.802 0 1.45.65 1.45 1.45s-.648 1.45-1.45 1.45c-.804 0-1.45-.647-1.45-1.45s.648-1.45 1.45-1.45zm-32.902.417s-.377 4.772-.588 7.07l7.59 2.027.943-7.623-7.945-1.474zm-3.31.36l1.06.04-.134 4.397-1.072-1.052.146-3.384zm14.04 1.93s.767 1.228 1.64 2.58c-.47.472-.762 1.12-.762 1.84 0 1.445 1.178 2.62 2.623 2.62.267 0 .52-.04.765-.113.34.646.977 1.67.977 1.67l-6.506-1.906 1.263-6.69zm81.44.49l5.105 4.157-3.97 4.883-.267-2.095c.896-.323 1.537-1.18 1.537-2.188 0-1.207-.922-2.196-2.1-2.31l-.305-2.448zm-88.33.07c.8 0 1.45.648 1.45 1.45 0 .803-.65 1.455-1.45 1.455-.803 0-1.455-.652-1.455-1.455 0-.802.652-1.45 1.455-1.45zm102.06.46c-1.282 0-2.327 1.034-2.327 2.317s1.046 2.328 2.327 2.328c.508.373.648-3.99 0-4.645zm0 .777c.138.69.306 3.254 0 3.092-.855 0-1.552-.696-1.552-1.55 0-.854.7-1.542 1.55-1.542zm-93.038 1.545c.582.915 1.184 1.9 1.69 2.792-.103.02-.212.03-.32.03-.964 0-1.745-.784-1.745-1.746 0-.406.14-.78.375-1.075zm79.716.4c.695.146 1.223.765 1.223 1.507 0 .606-.353 1.13-.86 1.385l-.364-2.892zm6.916 1.36l-4.314 5.788 6.547 5.105 3.71-6.334-5.943-4.56zm-98.484 2.356l4.877 1.428-.918 4.992c-.078-.29-.352-.816-.717-1.444.21-.38.332-.81.332-1.27 0-1.447-1.17-2.617-2.617-2.617-.07 0-.14.003-.21.008-.434-.643-.747-1.097-.747-1.097zm7.23 1.215l-1.59 7.96 7.34 2.953 1.786-8.41-7.537-2.503zm92.088.062c.803 0 1.45.647 1.45 1.45s-.647 1.45-1.45 1.45c-.8 0-1.455-.647-1.455-1.45s.652-1.45 1.456-1.45zm-97.953.733c.764.185 1.332.87 1.332 1.692 0 .11-.016.215-.033.318-.42-.673-.877-1.373-1.3-2.01zm104.182.218l-3.934 7.41 6.69 4.672-.46-1.584-4.78-3.51 2.778-5.098-.293-1.89zm-95.06 2.68c.802 0 1.45.654 1.45 1.456s-.648 1.45-1.45 1.45c-.802 0-1.452-.648-1.452-1.45s.65-1.455 1.45-1.455zm6.927.74l1.56 2.717c-.644.477-1.063 1.238-1.063 2.1 0 1.447 1.175 2.622 2.622 2.622.217 0 .424-.03.625-.08l1.13 2.395-6.813-2.98 1.938-6.774zm89.653.023c-.61-.14-1.195.25-1.613.653-.438.422-.71 1.015-.71 1.67 0 1.284 1.04 2.324 2.323 2.324 1.753-.425.812-4.457 0-4.646zm-14.098.642l5.537 3.958-3.23 6.238s-.324-1.26-.734-2.953c.785-.372 1.332-1.172 1.332-2.1 0-1.284-1.04-2.324-2.324-2.324h-.027c-.22-1.013-.413-1.994-.553-2.818zm14.098.137c.96.293.637 2.99 0 3.09-.846.133-1.547-.69-1.547-1.545s.693-1.546 1.547-1.546zm-87.71 2.73l1.42 3.01c-.08.012-.16.02-.243.02-.963 0-1.746-.782-1.746-1.745 0-.51.218-.968.57-1.286zm74.338.74c.787.07 1.398.73 1.398 1.535 0 .56-.3 1.046-.743 1.318-.214-.9-.437-1.88-.654-2.854zm7.307.79l-3.793 7.496 7.008 4.27 3.225-7.25-6.44-4.515zm-93.834 1.443l4.318 1.963-1.22 4.456-.524-1.09c.254-.405.408-.88.408-1.396 0-1.35-1.023-2.462-2.338-2.603l-.644-1.33zm6.822 2.114l-2.12 7.494 6.733 3.507 3.07-7.545-7.682-3.455zm-5.67.27c.562.287.953.872.953 1.55 0 .12-.017.234-.038.348l-.914-1.898zm93.928.607c.803 0 1.457.652 1.457 1.455s-.654 1.45-1.457 1.45c-.8 0-1.45-.648-1.45-1.45 0-.803.65-1.456 1.45-1.456zm6.397.413l-3.217 7.847 7.383 4.07-.558-1.43-5.455-3.148 2.34-5.68-.494-1.66zm-91.952 2.616c.802 0 1.45.65 1.45 1.45s-.648 1.45-1.45 1.45c-.804 0-1.45-.647-1.45-1.45s.647-1.45 1.45-1.45zm94.27 1.162c-1.282 0-2.32 1.04-2.32 2.323 0 1.282 1.04 2.37 2.32 2.323 2.333-.052 1.144-4.664 0-4.645zm-87.054.26c.44.8.77 1.634 1.076 2.49-.693.47-1.152 1.266-1.152 2.165 0 1.396 1.092 2.537 2.465 2.617.053.004.295.04.295.04l.418 1.577-5.795-3.04c.812-2.18 1.506-3.69 2.693-5.85zm87.055.518c.68.283.86 3.004 0 3.092-.853 0-1.544-.693-1.544-1.546 0-.856.69-1.547 1.545-1.547zm-14.278.9l5.69 3.262-2.856 6.17-.85-2.826c.613-.42 1.02-1.122 1.02-1.92 0-1.274-1.024-2.31-2.294-2.325l-.71-2.363zm-71.39 1.945l.905 3.016c-.922-.047-1.49-.79-1.49-1.723 0-.514.227-.973.584-1.292zm72.34 1.222c.728.128 1.276.757 1.276 1.52 0 .442-.186.84-.484 1.122l-.79-2.642zm-84.966.2l4.404 2.574-1.986 5.14-.578-1.855c.395-.46.635-1.054.635-1.708 0-1.22-.837-2.242-1.968-2.53l-.506-1.622zm91.938.104l-2.67 7.153 7.725 4.06 1.927-7.32-6.983-3.893zm-91.084 2.623c.445.313.742.836.742 1.426 0 .21-.04.41-.107.598l-.635-2.023zm5.77.355l-3.136 7.258 6.52 4.295 3.395-7.565-6.78-3.988zm87.735 1.18c.803 0 1.45.647 1.45 1.45 0 .802-.647 1.45-1.45 1.45-.8 0-1.45-.648-1.45-1.45s.65-1.45 1.45-1.45zm7.64 3.19c-.65.417-1.034 1.226-1.034 2.054 0 1.283 1.04 2.33 2.323 2.322.287-.002.543-.03.77-.084.672-.896-.278-4.334-2.057-4.29zm-93.43-.208c.804 0 1.452.648 1.452 1.45 0 .802-.648 1.456-1.45 1.456-.802 0-1.45-.654-1.45-1.455 0-.802.65-1.45 1.45-1.45zm95.06 3.74c-.096.05-.21.073-.344.066-.85-.04-1.544-.69-1.544-1.545 0-.485.225-.92.576-1.203 1.336-1.002 1.53 2.88 1.313 2.68zm-86.477 1.232c.268 1.19.56 2.322.85 3.377-.12.025-.24.04-.365.04-.963 0-1.746-.78-1.746-1.742-.002-.794.53-1.465 1.26-1.674zm80.938.855l-2.02 8.048 7.727 2.814 1.48-7.613-7.187-3.25zm-94.21.11l4.103 2.83s-1.325 3.196-2.446 4.9l-.318-1.478c.68-.476 1.125-1.26 1.125-2.148 0-1.28-.917-2.348-2.134-2.574l-.33-1.53zm86.714.385c.855 0 1.54.688 1.54 1.54 0 .56-.167.79-.608 1.062-.34-.764-.81-1.52-1.23-2.545.126-.035.163-.057.298-.057zm-86.176 2.123c.617.268 1.05.883 1.05 1.598 0 .453-.175.865-.458 1.176l-.592-2.774zm6.158 1.175l-3.72 6.467 5.46 4.178 4.268-6.473-6.008-4.172zm90.114.22c.8 0 1.45.65 1.45 1.454s-.65 1.45-1.45 1.45c-.805 0-1.455-.647-1.455-1.45s.65-1.455 1.456-1.455zm6.685 2.008l.948 1.473c-.295.39-.477.87-.477 1.397 0 1.28 1.048 2.322 2.33 2.322.175 0 .345-.016.51-.053l.763 1.18-4.846-1.735.774-4.584zm-95.683 1.73c.8 0 1.45.646 1.45 1.448 0 .803-.65 1.45-1.45 1.45-.805 0-1.457-.647-1.457-1.45 0-.802.653-1.45 1.457-1.45zm97.096.463l1.432 2.223h-.043c-1.354-.025-1.926-1.14-1.39-2.223zm-90.13.097l-5.274 6.994 6.993 5.183-.11-1.545-5.11-3.65 3.89-5.178-.39-1.804zm76.988 2.368l6.962 2.187-1.49 6.9-1.64-2.726c.444-.425.726-1.02.726-1.684 0-1.282-1.035-2.323-2.318-2.323-.26 0-.512.045-.744.123l-1.495-2.478zm-75.818 1.2c-1.32.132-2.355 1.245-2.355 2.603 0 1.446 1.174 2.622 2.62 2.622.667.078.763-.938 0-.877-.962 0-1.743-.783-1.743-1.744 0-.925.72-1.677 1.63-1.734l-.128-.867c-.01-.003-.016-.003-.024-.003zm85.27.744l-1.21 7.988 7.888 1.684.588-7.244-7.266-2.428zm-98.578.195l3.723 2.747-2.826 3.955-.15-1.134c.675-.475 1.114-1.262 1.114-2.147 0-1.137-.723-2.094-1.73-2.456l-.13-.967zm91.363.993c.855 0 1.54.693 1.54 1.547 0 .38-.138.726-.362.994l-1.506-2.5c.106-.023.218-.04.327-.04zm-25.002 1.05c.168.06.645.098.568.25-.062.13-1.322 1.514-1.322 1.514l.144 1.29 2.236-2.538.902.332-3.146 3.195-.145 1.19 4.187-4.11 1.787.49-4.867 4.796 5.607 5.684 5.613-5.724-3.986-4.356 1.974.186c.83.95 1.746 2.457 3.275 3.262l-.153-1.137c-.078.053-1.855-1.674-1.574-1.955l1.57.115s2.266-.66-.574-.66c-3.728.002-7.743-1.268-10.942-2.22-.357-.106-.902-.392-1.168-.4-.96.146-.647.542.015.795zm-66.09-.02c.43.316.71.822.71 1.398 0 .41-.142.787-.378 1.086l-.332-2.484zm101.197 1.388c.8 0 1.45.648 1.45 1.45s-.65 1.452-1.45 1.452c-.803 0-1.45-.648-1.45-1.45s.648-1.452 1.45-1.452zm-95.404.144l-4.533 5.76 5.135 4.926 5.258-6.162-5.86-4.524zm101.78 1.474l.36.062.02 3.93-.584-.123.205-3.87zm-35.38 1.826c.8 0 1.45.648 1.45 1.45 0 .802-.65 1.45-1.45 1.45-.806 0-1.456-.648-1.456-1.45 0-.8.65-1.45 1.455-1.45zm-65.7.413c.804 0 1.452.652 1.452 1.455s-.648 1.45-1.45 1.45c-.802 0-1.45-.647-1.45-1.45s.648-1.455 1.45-1.455zm7 1.14l-5.856 6.98 6.287 6.49-.02-1.45-4.884-5.12 4.574-5.334-.103-1.564zm65.468.64l-6.025 6.09 6.007 6.224.143-1.398-4.637-4.68 4.344-4.484.17-1.752zm-13.246.632l.01 1.654 3.777 3.847-3.867 3.95.023 1.677 5.484-5.654-5.427-5.473zm30.87.726l7.097 1.342-.438 6.703-1.708-2.062c.29-.39.465-.87.465-1.396 0-1.28-1.04-2.317-2.322-2.317-.367 0-.71.086-1.02.237l-2.076-2.507zm-95.653 1.194l3.498 3.68-3.342 3.78-.03-1.286c.935-.4 1.587-1.33 1.587-2.407 0-1.117-.697-2.065-1.684-2.44l-.03-1.326zm12.972.93c-1.163.268-2.034 1.307-2.034 2.55 0 1.244.87 2.287 2.033 2.556v-.914c-.673-.243-1.157-.886-1.157-1.643 0-.756.484-1.395 1.156-1.635v-.916zm51.425.245c-1.076.71-.596 4.713 0 4.646 1.283 0 2.318-1.04 2.318-2.322s-1.035-2.324-2.318-2.324zm13.744.38c-1.282 0-2.323 1.04-2.323 2.323s1.04 2.322 2.322 2.322c1.02-.335.603-4.41 0-4.644zm20.603.3c.855 0 1.545.686 1.545 1.538 0 .28-.076.543-.21.77l-1.837-2.228c.16-.055.33-.08.503-.08zm-34.348.098c.854 0 1.54.692 1.54 1.547 0 .854-.688 1.545-1.54 1.545.078-.553-.29-3.155 0-3.092zm-64.35.356c.478.31.786.845.786 1.455 0 .585-.28 1.106-.724 1.423l-.06-2.877zm78.094.025c.192.626.435 3.2 0 3.09-.855 0-1.546-.69-1.546-1.544s.692-1.545 1.545-1.545zm-7.026 2.252l-5.656 5.627 5.775 5.9 5.46-5.825-5.58-5.703zm-65.248.303l-5.06 5.467 4.876 6.334 5.723-5.698-5.54-6.103zm-27.45.2c1.56 0 3.013.267 3.604 1.304 2.385 3.192 1.7 9.75.05 12.007-3.712 3.367-5.812 4.26-9.995 3.49.48-1.893-1.53-2.912-1.82-2.494-.037.006-.193.338-.006.36 1.442.177 1.327 1.897 1.157 1.905-1.594-.05-2.63-.023-2.793-.732-.1-.438.156-1.115 1.086-1.875 1.09-.872 6.115-.853 6.115-.853.02.008-.012-1.43.492-2.252.44-.724 1.057-1.525.635-1.857-.725-.336-1.213-1.148-1.316-2.086-.197-1.967.113-6.697.043-6.748.844-.08 1.813-.172 2.745-.17zm92.688 3.65c.803 0 1.455.647 1.455 1.45 0 .802-.653 1.45-1.456 1.45-.8 0-1.45-.648-1.45-1.45s.65-1.45 1.45-1.45zm-65.2.564c.802 0 1.45.647 1.45 1.45 0 .8-.648 1.455-1.45 1.455-.802 0-1.456-.654-1.456-1.455 0-.802.656-1.45 1.457-1.45zm72.118 1.365l-5.912 6.03 6.3 6.52-.198-1.77-4.537-4.67 4.438-4.626-.09-1.485zm-13.357.113l-.16 1.67 4.188 4.397-3.803 3.908-.06 1.896 5.597-5.9-5.762-5.972zm-64.73 2.275l3.345 4.69-3.98 3.49.105-1.333c1.154-.273 2.016-1.312 2.016-2.552 0-1.098-.675-2.032-1.632-2.424l.148-1.87zm12.517.925c-.076.974-.13 1.76-.18 2.476-1.084.32-1.88 1.326-1.88 2.512 0 1.055.626 1.96 1.522 2.377-.07.75-.164 1.582-.297 2.625l-3.998-5.846 4.832-4.144zm94.494.276l.156 16.398 11.85 12.332.127 46.026-48.93.297-12.585-21.357c-.275-.402-.613-.27-.887-.672l3.73-19.93c5.874 2.706 10.815-4.29 7.608-9.96 18.11-6.612 38.93-23.134 38.93-23.134zm-28.89.09c-1.284 0-2.325 1.035-2.325 2.318s1.042 2.328 2.325 2.328.797-.795.797-2.076c0-1.283.487-2.57-.797-2.57zm-13.528.137c-.645.734-1.012 4.68 0 4.647 1.283-.04 2.324-1.045 2.324-2.328s-1.04-2.32-2.324-2.32zm13.527.642c.854 0 .463.836.463 1.688 0 .854.39 1.4-.463 1.4-.855 0-1.547-.695-1.547-1.55 0-.853.692-1.538 1.547-1.538zm-13.527.136c.854 0 1.54.688 1.54 1.54 0 .855-.687 1.546-1.54 1.546.09-.256-.387-2.98 0-3.086zm-64.81.612c.495.307.825.854.825 1.48 0 .723-.44 1.342-1.066 1.606l.242-3.086zm12.482 1.556c-.07 1.11-.123 2.027-.197 2.953-.44-.317-.73-.83-.73-1.415 0-.666.378-1.248.927-1.54zm58.836.535l-5.514 5.515 5.742 5.966 5.457-5.774-5.684-5.705zm-65.588 1.432l-5.77 4.638 3.716 5.698 1.295.777 5.284-4.522-4.526-6.59zm-23.18.386l13.592 7.252s-3.525 1.477-3.428 3.832c.14 2.633 1.72 4.784 4.85 3.977.72-.105 1.047.194 1.74 1.81 1.326 3.095 2.637 6.496 2.123 6.392-1.666-1.332-1.418-1.404-3.38-2.285-3.66-1.01-5.888 2.396-4.73 5.152 1.077 2.542 2.872 2.687 4.67 2.427.263.06.485.35.663.684.57 1.157 1.438 3.22 2.115 6.387 1.043 4.887 1.277 11.002.516 12.54-1.054 2.128-2.51 5.007-2.51 5.007-2.833-5.402-9.01-10.14-15.952-8.463-.234.147-.28.91.033 1.357 2.253 2.953 2.634 5.662 3.44 8.566 2.06 7.445 6.224 11.707 6.167 10.945l-2.18 3.95s-18.875.095-26.6 0v-9.07l20.234-20.725-8.017-.34.277-35.73c2.933-.607 6.378-3.665 6.378-3.665zm88.87 2.29c.802 0 1.45.646 1.45 1.45 0 .8-.648 1.454-1.45 1.454-.802 0-1.456-.653-1.456-1.455s.655-1.45 1.455-1.45zm-66.303 1.468c.803 0 1.453.65 1.453 1.45 0 .804-.65 1.456-1.453 1.456-.805 0-1.45-.652-1.45-1.455-.002-.802.645-1.45 1.45-1.45zm59.812 1.334l.143 1.432 3.977 4.166-3.684 3.746c-.535.734-1.91.574-2.342.625 0 .046.093.544.42.687.343.15.753.125.92.22.382.218.63.25.63.25l5.352-5.477-5.415-5.65zm.063 3.236c-.97.305-.797 4.41 0 4.646 1.28 0 2.32-1.04 2.32-2.322s-1.04-2.324-2.32-2.324zm13.638.63c.098.382.24 3.058 0 3.093-.855 0-1.545-.692-1.545-1.546 0-.855.69-1.547 1.545-1.547zm-13.638.15c.854 0 1.545.69 1.545 1.544 0 .854-.69 1.545-1.545 1.545-.21-.355-.555-3.042 0-3.09zm-47.828.743c-.23.085-.55.03-.803.032-.808.002-1.81-.568-2.028-.465-.252.12-.168.646-.154.883.027.22.643.293.893.46.407.267.298.358-.163.468-.41.096-.74.123-1.002.494-.16.23-.176.633.102.63 1.61-.023 3.652-.69 5.58-.042 1.102.396 1.818.64 1.994.488.368-.316-.92-1.55-2.155-1.78-1.244-.23-1.69-.136-1.287-.507.21-.19.488-.116.51-.255.06-.385-.227-.783-.562-.838-.366-.06-.65.322-.924.432zm6.925 3.867c-.13.002-.318.096-.572.3-.734.487-1.885 1.14-4.656.38-1.524-.502-3.235-.063-4.23.217-.777.218-1.89.433-2.78.023-.868-.418-1.82-1.05-1.644-.398.045.167.098 1.124.107 1.692.027 1.338.12 2.453 1.086 1.404.417-.455.923-.46 1.866-.086.674.266 1.146.444 1.67.104.738-.484 1.377-.604 2.744-.143.648.222 1.328.24 2.148-.266 1.36-.838 2.227-.022 2.75.836.412.68.62-.29 1.383-2.305.395-.96.518-1.762.127-1.758zm-6.527 7.49c-.742.42-1.775.545-2.53 1.04-1.593 1.1-.1 2.013 1.007 1.783.453-.104.977-.327 1.557-.713 1.992-1.32 3.098-1.13 3.285.474.202 1.73-2.464 2.513-2.216 3.314.336.523 1.63-.194 2.43-1.28 2.376-3.22-.24-6.477-3.534-4.617zm10.322 9.082c-2.703.306-6.77 1.61-8.814 3.145-1.605 1.25-2.045 1.564-1.365 2.062.623.457 1.1.473.246 1.346-.306.312-.823.965-.82 1.092.01.625 3.82 2.486 6.01 2.777 1.69.225 4.42-.03 5.892-.625 1.938-.783 2.004-1.318.172-.78-1.432.42-3.156.737-4.855.614-1.532-.11-3.032-.577-3.98-.915-2.344-.836-1.936-1.812.432-.98 2.725 1.177 6.256 1.156 9.39-.256 1.267-.573 1.622-1.02 1.85-.827.058.05.185.36.22.445.08.207.088-.53.2-1.705.09-.977.183-2.28.183-2.28s-.188.55-.184.81c.026 1.706-.802 1.714-3.144.41-2.75-1.514-4.088-1.364-6.7-1.35-1.147.006-1.198-.324.413-.854.767-.255 1.944-.663 3.698-1.227 1.447-.463 1.836-.982 1.154-.904zm-20.736 3.44c.996 0 1.89.846 2.145 2.488l-.99-.072c-.33-2.45-2.108-1.893-2.806-.436l-.873.022c.686-1.346 1.65-2.004 2.526-2.002zm2.535.15c.403-.036 2.28.874 2.394 1.152.125.308-.588.638-1.213.82-.718.21-.57.242-.798-.184-.316-.595-.875-1.763-.38-1.787zm-4.786.12c.02.264-.55 1.227-.96 1.352-.485.146-.87-.498-.472-.826.362-.186 1.358-.903 1.432-.526zm19.285.127c1.26-.052 2.43 1.22 2.53 2.727l-.637-.014c-.59-3.133-2.994-2.424-3.535-.19l-.75-.212c.625-1.62 1.526-2.276 2.39-2.31zm-2.477.224c.346-.02.3.257-.113 1.09-.195.395-.334.616-.678.604-.467-.068-.777-.22-1.016-.588-.162-.365.22-.65 1.023-.906.37-.117.626-.19.783-.2zm5.296.232c.22.002.622.145 1.255.422 1.62.715 1.81 1.008.963 1.414-.377.18-.688.313-.94.397-.757.252-.733-.172-.937-.696-.116-.3-.255-.567-.403-.885-.207-.438-.213-.655.062-.653zm-23.712 2.655c.27-.002.854.354 2.023.77 1.685.603 3.38.382 5.614-.33.922-.294 1.236-.478.873.058-.29.425-1.857 1.2-3.14 1.517-2.4.596-5.57-.533-5.57-1.765.02-.177.08-.25.2-.25zm7.94 2.024c.244.007.006.372-.502.94-.79.88-1.992 1.483-3.22 1.7-2.58.457-4.72-.246-4.74-1.69-.015-1.04.167-1.058 1.44-.398 1.082.56 3.514.693 5.473.062.644-.17 1.302-.562 1.415-.593.057-.013.1-.02.133-.02zm19.848 1.4c-1.96.518-4.04 1.038-5.94 1.403-2.036.398-5.005.033-6.556-.73-1.146-.56-1.547-.23-1.043.863.328.716.822 1.466 2.295 1.978 2.133.744 7.135-.465 10.852-2.385 2.16-.96 1.745-1.542.392-1.13zm-32.264 14.72l3.346-5.68c22.64 4.386 47.14 1.2 54.637.164 0 0 8.186 13.544 11.13 18.3.276.506 1.038 2.22 1.038 2.22l-77.307-.064c1.08-2.176 2.107-4.99 2.107-4.99-2.36-.944-4.195-4.475-5.33-7.452-.994-2.613-2.72-8.996-4.984-12.105 3.965-2.252 13.942 2.77 15.362 9.608z"/><path fill="#D40000" d="M138.714 283.474l-76.568.002 9.977-19.94c18.613 2.817 36.96 2.466 55.102-.403l11.49 20.345v-.004zM34.084 267.58l-.23-9.626 9.938.02-9.71 9.605zm83.183-63.176l-.11-31.05 14.01 9.218-.51 31.525-13.39-9.693zm-33.508-7.32c.503-11.105-2.153-21.468-4.202-31.972l14.51-9.53.79 35.052-11.1 6.45zm-38.198-29.18l.393-40.035c13.05 18.77 20.982 37.462 23.26 63.202-3.55 1.43-7.012 3.01-10.65 4.287-4.193-9.622-8.42-18.938-13.003-27.456zm132.244 17.233c-12.06-15.32-19.338-36.336-23.135-61.486l11.042-5.36c3.664 8.88 7.23 17.916 11.865 25.285l.23 41.562zm-47.623-27.293l-1.174-33.602 11.052-6.714c.588 11.53 2.408 22.34 4.588 31.424l-14.467 8.892zm-24.04-17.933l-11.93-6.937.68-30.377 10.905 8.55.346 28.765zm74.466-84.227c.853-3.182 6.603-7.24 9.065-9.43l-.102 8.995c.002 0-8.527.604-8.964.435zM97 50.82L84.627 29.7l77.572-.65-9.967 21.266c-20.543-3.757-38.117-2.062-55.23.503z"/><path d="M132.81 240.765c.182.057 2.576-1.566 3.82-3.955 1.344-2.642.13-5.234.527-5.244 2.477.737 1.764 5.457.902 6.92-.73 1.27-2.13 2.127-3.575 2.37-1.427.243-1.675-.09-1.675-.09zm4.035-10.317c-.5.008-.717-.076-1.043-.416-.457-.475-1.004-.79-1.295-.75-.393.057-.57-.014-.574-.223-.002-.17.172-.2.816-.145.39.035 1.218-.584 1.218-.584l.008-44.6c3.51 1.452 8.75 2.29 12.777 2.767l.27 39.756s5.91-3.096 8.058-4.332l.077-35.585 4.188-.457-6.61-13.432c-.93.713-13.94-.504-17.19-2.617l11.873-7.41c-1.207-3.677-2.303-7.19-3.31-10.916-.032-.113-.253-.103-.282-.217-.244-.91-.418-1.318-.648-2.232-.04-.17.027-.448-.02-.617-2.56-8.812-4.307-20.488-4.658-30.94.037-.1.416-.014.416-.014l-.076-6.386-.422.28.04-2.89.43-.425c.01-.562.05-1.617.05-1.617l-.55-.344.284-4.84.566-.085.31-7.666-15.036 9.733s-9.81-7.026-14.102-10.67c4.72-3.21 5.973-9.47 7.143-14.666 1.197-5.142 1.592-9.386 1.93-13.688.373-4.742 1.16-10.806 1.787-13.794.38-1.805.367-2.003-.166-2.033-.184-.01.006-.07.424-.133 9.64-.386 19.992 1.05 29.186 2.245 0 0 2.275-4.237 3.064-5.8 0 0 .463 1.435.955 2.432 1.117 2.113 3.668 4.357 5.852 5.564.814.537 3.156 1.322 4.74 1.59.932.153 2.432-.142 3.54-.583.384-.16.68-.358.685-.56.002-.203-.3-.407-.684-.773-.328-.312-.766-.913-.977-1.34-.67-1.356-1.687-3.633-2.257-5.762-1.604-4.235-2.793-9.347-6.475-11.6l2.54-5.085-80.015.02 12.38 20.855s.376.62.5.844c.364.656.517.562.517.562-.81 7.292-1.953 14.47-3.47 21.524 0 0-.16-.563-2.513-.53-6.883.1-9.293 7.747-3.537 11.133.543.322 1.465.94 2.375 1.417.264.136 3.562 2.07 3.562 2.07l-3.953-1.777-.287 45.89s-8.244-2.48-13.68-2.712l.055-39.786-7.592 4.097-.344 35.572-4.158.268s1.574 3.353 1.926 4.056c.703 1.41 2.47 4.548 3.678 6.528.428.7 1.428 2.262 1.428 2.262 5.54.146 11.21.98 16.363 3.27l-11.926 7.76c4.98 14.034 11.19 34.57 7.73 67.712l.836-.53.23-3.57 14.843-10.215 18.312 14.747s-1.33-.034-1.627-.05c-4.67-.163-7.958 4.612-9.087 8.604-1.988 7.028-2.25 8.764-3.166 19.912-.36 4.407-1.234 8.66-2.123 12.862-.47 2.11-.4 2.322-.4 2.322 9.314.297 19.04-.688 26.338-2.3 0 0 3.082-14.62 4.182-20.827 1.037.596 1.96.855 2.895.834 7.217-.78 6.6-10.684 2.875-10.962zm-32.147-200.43l3.787 13.283-9.273.86-7.7-14.033 13.186-.11zm57.008-.186l-9.533 20.222c-19.998-2.807-31.54-3.072-54.754.215L85.352 30.105l3.176-.027 9.097 16.097 13.512-1.347-3.733-14.73 3.568-.11 3.695 14.457 20.914-.11c.678-4.845 1.99-14.316 1.99-14.316l3.86.044-2.57 14.637 12.353 1.55 7.137-16.36 3.352-.058zm-26.822.188l-1.22 12.296-17.3.133-2.77-12.44 21.29.01zm20.96-.237l-5.872 14.594-8.56-1.144 2.337-13.247 12.095-.203zm10.554 14.3c.38 1.247.766 2.468.855 2.717 1.396 3.784 1.97 5.034 2.883 6.292.15.207.197.185-.023.36-4.203 2.056-11.803-3-13.63-7.632.228-.447 1.243-2.327 1.243-2.327.53 1.035.135 2.058.482 2.987.086.396.955-2.68.955-2.68s.838 1.365.94 3.99c.015.403 1.09-1.76 1.09-1.76 1.355 1.82 1.278 4.978 1.278 4.978 1.524-1.85.575-2.91 2.93 1.806.27-.49.14-1.012.495-.873 1.035.4 2.49 1.126 3.018.98-.69-.864-2.03-1.32-2.396-2.47 0 0 1.062.09 1.133.04-1.203-.655-2.36-1.22-3.266-2.48.27-.1 1.357.088 1.312-.027-1.63-1.473-4.074-2.66-.537-2.328-2.3-1.617-4.862-2.733-.868-2.613-2.848-1.345-3.617-2.175-3.086-2.402.3-.13 1.15.384 2.508-.052-2.29-.933-3.23-1.358-3.322-1.667-.11-.37.977-.575 1.723-1.383 0 0-.922.21-1.324-.218 0 0 .448-1.29.792-2.033 2.913 2.644 4.058 6.387 4.816 8.797zm24.543-5.132S178.07 52.82 171.696 59.7l6.227.094.285 37.555c2.17.292 5.934.006 7.355 1.45.887 1.31-2.535 3.88-4.465 3.342-1.285-.348-2.873-.07-2.873-.07l.133 41.846c-4.11-7.63-7.254-12.457-11.805-25.704 1.318-.917 2.674-1.624 2.9-1.778-1.748-4.218-2.957-10.85-.518-16.63l1.684 1.003c-1.234 3.526-1.688 8.742.33 13.563l.463-.486s-.5-.962-.82-2.022c-.286-.947-.698-2.168-.7-3.434-.082-2.24-.014-4.166.518-5.963.182-.587.44-1.462.578-1.73.137-.27.268-.52.266-.592-4.95-2.008-8.502-4.94-12.77-7.04-.163-.08-.298-.147-.407-.207-.54-.303-.398-.405.45-.742 1.78-.71 2.507-1.57 2.468-3.3-.055-2.46-1.37-3.418-4.248-3.258-1.045.06-1.11.045-1.3-.312-.433-.836-1.937-4.154-1.938-4.286 0-.078-.312-.824-.695-1.66-.592-1.33-1.27-2.703-1.553-4.093-.142-.69-.542-.962-.644-.25-.762 5.297-1.463 8.093-2.83 11.275-.408.946-.715 1.743-.684 1.77.13.118 2.422 1.182 3.494 1.623 4.182 1.72 6.084 2.783 5.438 3.04-.45.177-.61.488-.725 1.378-.302 2.332-.27 3.525.122 4.263.408.774.4.83-.27 1.267-.582.38-.457.38-.615 2.328-.186 2.313-.06 3.78-.06 3.78l1.042 1.338-1.063 1.318-.244 6.056 1.434 1.085-1.338 1.32.478 5.52s-.176.51-.406.765c2.264 23.354 11.018 46.888 24.127 62.93l.13 38.362 12.848 12.857-.557-198.32zm-1.007 2.47v3.024l-10.908 11.75 10.908.19v2.56l-16.75-.03 16.75-17.494zm-.168 5.133l.027 8.47-8.154.01 8.127-8.48zm-74.828 4.268l1.7-.07c-.065 1.708-.743 9.59-1.552 16.49-.912 7.782-2.777 14.495-3.135 14.495l-1.643-.996c2.722-8.927 3.446-20.417 4.63-29.92zm7.717-.243c-.24 4.817-1.248 8.188-1.56 13.884-.382 6.958-1.577 15.62-4.708 22.806-1.053 2.42-3.002 4.69-5.732 5.764-4.79 1.88-8.857-4.06-5.62-8.428 2.562-3.452 6.567-3.408 7.784.085 1.006 2.887-2.225 6.512-4.803 5.386-1.79-.782-1.334-4.01.68-4.77.834-.314 1.54.743 1.13 1.69-.325.748-.36 1.216.08.898 1.817-1.282.446-4.34-1.813-3.195-3.012 1.524-2.506 6.008.53 6.203 3.84.378 6.806-4.354 8.704-13.34 2.08-10.055 1.562-19.057 3.56-26.95l1.768-.03zm-4.91.168l2.02-.06c-.16.745-.19 1.542-.327 2.454-.797 5.274-1.268 12.975-2.084 19.01-1.15 8.515-3.213 13.69-3.266 13.06-.23-1.033-.883-1.87-1.383-2.688 2.082-5.662 2.922-10.814 3.457-15.666.624-5.668.8-10.928 1.585-16.11zm-8.63.49l1.77-.092c-.69 11.288-2.345 21.522-3.323 25.916-.302 1.322-.4 1.896-.65 2.008-.278.122-.743-.326-1.872-.953 1.715.243 3.094-19.195 4.075-26.88zm2.762-.163l1.922-.188c-.285 4.08-.973 10.497-1.744 16.282-.934 6.994-2.154 13.192-2.764 13.1l-1.605-.556c1.074.335 3.72-20.532 4.19-28.638zm-3.652.2c-1.258 8.545-1.377 18.53-3.98 26.51l-1.8-.838c.49.16 1.77-5.19 2.207-11.25.378-5.27 1.33-11.008 1.61-14.187l1.964-.236zm-2.97.312c-.716 3.02-.716 7.465-1.253 11.174-.663 4.594-1.372 13.923-2.435 13.707l-1.842-.932c.97.29 2.65-17.383 3.676-23.66l1.855-.29zm-4.843.748l1.868-.253c-.898 6.9-2.525 22.988-3.486 23.108l-1.752-.93c.68-2.825 2.412-12.435 3.37-21.926zm-1.16.27c-.774 7.584-1.5 15.265-3.116 21.163l-1.916-.863s1.33-6.487 1.96-11.044c.622-4.497.718-5.14.915-6.312.438-2.584.56-2.68.56-2.68l1.596-.265zm82.042 7.773l-.184 36.42-2.123-.08.086-36.395 2.222.055zm5.016.288c.803 0 1.45.648 1.45 1.45 0 .803-.647 1.456-1.45 1.456s-1.45-.654-1.45-1.457c0-.8.65-1.45 1.45-1.45zM152.1 74.028c1.503 2.75 2.657 3.76 3.98 4.285 2.392.947 5.687-1.39 4.487-4.66-.63-1.722-2.23-1.977-4.26-1.633 0 0-.875-.62-1.902-3.738-1.22-3.688-3.13-7.484-3.13-7.484-.118 4.626-1.205 9.444.826 13.23zm36.356-9.985c.803 0 1.455.65 1.455 1.45s-.65 1.45-1.454 1.45c-.8 0-1.45-.647-1.45-1.45s.65-1.45 1.45-1.45zm-3.984.058c.805 0 1.45.648 1.45 1.45 0 .803-.645 1.456-1.45 1.456-.8 0-1.455-.653-1.455-1.456 0-.802.656-1.45 1.455-1.45zm-32.543-.348c1.347 2.793 1.63 4.896 2.937 7.427.572 1.103 1.086 2.05 1.086 2.05 4.268-2.006 5.908 3.05 2.447 4.66-3.406 1.59-7.24-4.445-6.87-10.943.104-1.792.4-3.195.4-3.195zm34.456 3.772c.8 0 1.45.647 1.45 1.45 0 .802-.65 1.455-1.45 1.455-.803 0-1.45-.654-1.45-1.456 0-.803.647-1.45 1.45-1.45zm3.842 2.726v3.104l-7.586 7.36V77.71l7.586-7.46zm-99.73 2.39c1.45.02 2.146.446 1.187.828-3.186 1.266-4.6 3.28-4.775 6.804-.008 1.78.205 2.015-.89 1.02-2.8-3.917 1.233-8.677 4.48-8.652zm2.663 1.273c.355-.014.704.032 1.054.143.854.27.54.287-.898 1.242-2.742 1.82-3.576 3.604-3.7 7.25-.032.55.08 1.004.034 1.234-.04.175-.25.118-.38.11-.522-.087-.845-.64-.995-1.107-1.74-3.47 1.474-8.743 4.886-8.872zm2.972 1.206c.236-.004.443.033.61.117.673.335.425.384-.806 1.26-2.182 1.554-3.26 3.84-3.514 6.39-.162 1.64 1.104 3.585-1.135 1.98-1.57-1.305-1.258-4.693.41-7.02 1.03-1.434 3.162-2.714 4.435-2.728zm94.094-.71v3.532l-7.584 7.206V81.53l7.584-7.12zm-91.658 1.84c.86.01 1.248.563.24 1.196-2.455 1.543-3.932 4.488-3.79 7.562.144 1.856.214 2.19-.976.964-1.91-1.978-.56-7.344 3.14-9.35.503-.265.995-.375 1.386-.37zm2.513 1.03c1.415-.033 1.61.682.347 1.564-2.414 1.687-4.025 4.654-3.988 7.354.02 1.254-.08 1.41-.636.986-2.787-2.13.2-9.56 3.98-9.887.104-.007.202-.015.297-.016zm49.88.233c.346.023.965 1.252 1.934 3.82.936 2.478 2.443 5.6 2.764 5.718.1.037.525-.11.945-.33 3.182-1.67 5.422 3.067 2.285 4.83-2.232 1.254-4.34-.09-6.283-4.016-2.29-4.627-2.918-8.062-1.81-9.914.046-.075.1-.113.165-.107zm-47.29 1.26c.382-.017.755.057 1.104.237.82.428.7.742-.562 1.483-1.303.765-1.816 1.243-2.562 2.376-1.168 1.766-1.363 2.444-1.365 4.72 0 1.856-.55 1.96-1.66.31-1.91-2.84 1.92-8.99 5.044-9.126zm3.175 1.665c1.25-.027 2.074.48.877 1.113-3.803 2.013-5.402 4.898-4.674 8.45.23 1.112-1.043.17-1.816-1.347-1.127-2.215.953-6.497 3.793-7.804.595-.274 1.254-.4 1.82-.412zm42.93 3.266c.236.018.514.65 1.123 2.21.396 1.017.93 2.232 1.186 2.702s.436.91.395.98c-.216.356-1.98-.25-2.57-.887-.917-.982-1.206-3.182-.59-4.44.18-.364.312-.575.455-.566zm36.533 2.678c.803 0 1.45.65 1.45 1.45s-.647 1.456-1.45 1.456-1.45-.653-1.45-1.455.65-1.45 1.45-1.45zm-148.9 2.343c.802 0 1.452.653 1.452 1.456 0 .803-.65 1.45-1.45 1.45-.804 0-1.452-.647-1.452-1.45 0-.802.65-1.455 1.45-1.455zm59.988.436c1.586-.055 2.074.694 2.344 3.103.182 1.652.54 1.807 3.14 1.37 2.743-.462 3.66.282 3.858 3.123.152 2.254.135 2.236 3.256 2.257 3.072.02 3.398.332 3.754 3.48.264 2.34.174 2.273 3.195 2.232 3.348-.045 3.646.2 3.873 3.162.186 2.398.344 2.555 2.457 2.38 2.068-.17 5.89-.188 6.604-.032 1.78.388 1.855.314 2.238-2.086.504-3.163 1.13-3.56 5.016-3.168 1.913.19 2.134.15 2.403-1.528.36-2.24.81-2.898.81-.956.003 4.904-.337 5.133-3.608 4.26-2.46-.653-2.498-.15-2.758 2.216-.227 2.088-.576 2.942-1.346 3.276-.597.26-2.603.037-3.41-.19-.304-.086-2.214-.133-4.474-.108-5.445.058-5.504.07-5.498-3.755.002-1.61-.352-1.956-3.2-1.87-3.577.106-3.39.203-3.997-4.09-.212-1.488-.33-1.546-3.29-1.503-3.225.046-3.96.093-3.77-2.625.174-2.474-.428-3.12-3.12-2.495-2.864.667-3.413-.55-3.692-2.76-.26-2.045-.434-1.533-1.8-1.64-1.52-.118-1.34-1.823.27-1.98.275-.03.523-.066.748-.074zm91.156.746c.8 0 1.45.648 1.45 1.45 0 .803-.65 1.45-1.45 1.45-.803 0-1.45-.647-1.45-1.45 0-.802.647-1.45 1.45-1.45zm-4.088.08c.803 0 1.45.654 1.45 1.456s-.647 1.45-1.45 1.45c-.8 0-1.45-.648-1.45-1.45s.65-1.455 1.45-1.455zm-144.88 2.42c.802 0 1.456.646 1.456 1.45 0 .8-.654 1.45-1.455 1.45-.803 0-1.45-.65-1.45-1.45 0-.804.647-1.45 1.45-1.45zm-4.077.032c.803 0 1.45.647 1.45 1.45 0 .802-.647 1.45-1.45 1.45-.8 0-1.45-.648-1.45-1.45 0-.803.65-1.45 1.45-1.45zm75.87 1.234l15.093 11.265 14.287-9.562-.086 3.488-14.185 9.433s-12.072-9.348-17.906-13.86l2.796-.764zm75.122.168c.8 0 1.45.653 1.45 1.455s-.65 1.45-1.45 1.45c-.804 0-1.452-.648-1.452-1.45s.65-1.455 1.45-1.455zm-24.725 1.902l3.582 5.816-3.574 2.594 3.252 4.16-3.508 3.594 3.854 2.45-3.603 5.02-4.99 2.218 4.992-6.56-4.134-2.835 3.92-4.222-3.518-4.608 3.64-2.844-3.938-6.458.258-.312 3.767 1.986zm-66.178-1.285l26.52 19.84s2.45 1.846 3.153 2.29c1.488.943 1.785.566 3.27-.454 3.353-1.99 11.464-7.51 11.464-7.51l-.064 2.857s-8.158 6.104-12.676 8.638c-.64.354-1.328.02-1.81-.346-9.853-7.803-19.93-15.365-29.915-23.008l.057-2.307zm60.945.317c.11.198.47.27.64.54 1.177 1.816 3.306 5.05 3.306 5.05l-3.73 2.96 3.425 4.495-4.28 4.347 4.372 2.976s-2.715 4.153-4.766 6.055l-.052-3.23 1.754-2.112-2.012-1.385-.006-4.437 2.045-2.154-1.874-1.895.334-4.854 1.787-1.412-1.477-2.02.532-2.924zm-119.082.99c.8 0 1.455.647 1.455 1.45s-.654 1.45-1.455 1.45c-.803 0-1.45-.65-1.45-1.45s.647-1.45 1.45-1.45zm152.48 5.292l-7.38 6.817v-3.097l7.38-7.242v3.522zm-148.263-3.33v3.735l-7.88 7.276v-3.608l7.88-7.403zm148.264 4.284v3.71l-7.38 6.934v-3.674l7.38-6.97zm-8.68.583l.15 120.596 8.565 9.062.008 3.008-10.844-11.23-.247-121.336 2.366-.1zm-139.583-.358v4.198l-7.88 7.188v-3.95l7.88-7.435zm53.9.768l10.42 8.112-.043 28.278c-4.22-3.174-7.607-5.064-10.81-6.674l.433-29.717zm90.932 9.148c.8 0 1.448.648 1.448 1.452 0 .802-.648 1.45-1.45 1.45-.802 0-1.456-.648-1.456-1.45 0-.804.654-1.45 1.457-1.45zm-77.376 1.383l.04 28.854-2.054-1.876-.12-28.615 2.134 1.638zm-71.16.277c.8 0 1.447.648 1.447 1.45 0 .803-.645 1.455-1.446 1.455-.805 0-1.457-.652-1.457-1.455 0-.802.654-1.45 1.457-1.45zm150.473 2.057c.803 0 1.45.65 1.45 1.45s-.647 1.456-1.45 1.456-1.45-.653-1.45-1.455.647-1.45 1.45-1.45zm-4.135.18c.803 0 1.45.648 1.45 1.45s-.647 1.45-1.45 1.45-1.45-.648-1.45-1.45.65-1.45 1.45-1.45zm-74.012-.14l6.354 5.943-6.545 6.21-.056-2.866 3.645-3.514-3.663-3.797.263-1.976zm2.418.525l5.3 3.91-.83 1.01-4.47-4.92zm-72.598.877c.803 0 1.45.647 1.45 1.45 0 .802-.647 1.45-1.45 1.45-.8 0-1.45-.648-1.45-1.45 0-.803.65-1.45 1.45-1.45zm-4.252.07c.8 0 1.45.652 1.45 1.454s-.65 1.45-1.45 1.45c-.803 0-1.45-.648-1.45-1.45s.648-1.455 1.45-1.455zm104.163.526c1.02 11.544 1.73 19.534 4.712 30.42l-13.71 8.767.124-33.437 8.875-5.75zm37.786 26.416l-.057 39.646c-12.94-18.41-19.917-39.932-22.16-60.326 0 0 6.944-3.2 10.317-5.164 3.574 8.372 2.03 8.36 11.9 25.844zm8.865-24.738c.806 0 1.452.654 1.452 1.456s-.646 1.45-1.45 1.45c-.802 0-1.448-.648-1.448-1.45s.648-1.456 1.447-1.456zm-148.65 1.56c.802 0 1.452.648 1.452 1.45 0 .803-.65 1.456-1.45 1.456-.804 0-1.452-.653-1.452-1.456 0-.802.648-1.45 1.45-1.45zm80.89-.134l5.036 3.844.012 2.913-6.023-5.792.976-.965zm-1.725 1.54l6.297 6.223-6.604 6.586-6.508-6.17 6.815-6.64zm47.402.217l-6.068 2.49c2.32 21.038 8.347 36.81 16.47 49.594l.186-29.51c-4.195-6.637-7.37-14.633-10.59-22.573zm25.52.435v3.31l-7.558 6.93v-3.296l7.558-6.944zm-72.93 1.82l-4.01 3.917 4.04 3.904 3.888-3.905-3.918-3.917zm-75.51-.434v3.52l-7.502 7.246v-3.742l7.502-7.024zm84.463 1.974l.062 33.674-1.668.79.117-35.18 1.49.716zm-9.025.51l1.818 1.83-1.904 1.914-1.794-1.83 1.88-1.915zm73.003.35v3.816l-7.56 7.056-.126-3.64 7.686-7.232zm-83.605 14.313c7.8 6.747 13.79 16.99 20.367 22.714 2.66 2.306 9.168 5.905 12.678 7.013 3.992 1.258 7.098 1.773 11.104 1.844 3.162.058 3.178.074 3.178.074l1.338 2.382-2.213-.03-.145 8.403c2.346.115 4.643-.016 6.906-.297l.818 1.53c-16.13 2.187-31.895-3.925-41.377-11.735-4.324-3.555-7.838-7.895-12.115-14.215-8.23-12.84-22.732-19.04-36.236-19.186l-1.12-1.74 2.257.075s.23-1.614.258-4.36c.036-3.09.017-3.633-.226-3.722-1.637-.19-6.568-.09-6.426.12l-1.014-1.814c16.098-1.66 31.942 3.944 41.97 12.945zM41.677 129.06v3.453l-7.502 7.076v-3.46l7.502-7.07zm82.455.295l-.197 3.086-3.576 3.538 3.804 3.692-.09 2.578-6.71-6.222 6.768-6.67zm-49 1.097c-.344 0-.553.03-.592.095-.088.15-.04 1.476-.332 6.272-.107 1.757-.23 1.764 1.246 1.94 1.238.043 4.006.75 5.848.97 1.553.206 1.23-.268 1.666-1.51.477-1.354.736-2.56 1.328-4.495.543-1.773.293-1.83-3.203-2.484-2.416-.45-4.924-.788-5.96-.788zm34.895-.294l6.07 6.06-5.98 6.07-.103-2.934c1.152-1.025 2.525-2.193 3.54-3.353l-3.522-3.597-.005-2.245zm-30.45 1.964l.65 1.07 1.564.26-.272 1.09.797 1.124-.98.735.035 1.356-1.225-.043-1.066.762-.843-1.068-1.227-.04.066-1.52-.795-.674.952-.85-.123-1.35 1.51.253.957-1.104zm-9.86 1.826l.966.633-.98.678-.045 1.037-.6.51-2.203-4.31 1.434.58 1.093-.727.335 1.6zm17.675-.996c-.77.013-.87 1.438-1.705 4.132-1.164 3.76-1.25 3.41.984 4.195.997.348 2.9.99 3.905 1.463 2.45 1.152 2.465 1.148 3.38-.417.407-.694 1.177-2.4 1.716-3.283 1.347-2.207 1.384-2.1-1.09-3.29-1.454-.7-2.335-.986-5.392-2.228-.847-.344-1.392-.58-1.796-.573zm2.45 2.494l1.07.67 1.202-.5.238 1.294 1.318.51-.375 1.274.58.954-1.12.218-.813 1.765-1.232-.86-1.305.47-.36-.97-1.34-.646.485-1.07-.666-1.44 1.527-.118.79-1.55zm26.92 1.323l6.702 6.565-6.104 6.116-6.697-6.588 6.098-6.093zm69.917 1.194c.802 0 1.45.65 1.45 1.45s-.648 1.452-1.45 1.452-1.452-.65-1.452-1.45.648-1.452 1.45-1.452zm-87.815.32c-.39.006-.61.363-.947 1.053-.143.29-.97 1.836-1.734 3.033-1.723 2.698-1.725 2.56-.004 3.617.73.448 2.408 1.83 3.852 3.135 1.336 1.207 1.19.922 4.068-1.956 1.877-1.876 3.033-2.403 2.303-3.393-1.78-1.524-3.238-2.64-5.166-4.097-1.275-.947-1.933-1.397-2.372-1.392zm18.21.734l-3.953 3.874 4.455 4.034 3.693-3.794-4.195-4.114zm-67.707-1.315L49.41 168c4.347 7.434 8.81 14.93 11.132 23.296l6.377-3.125c-3.052-24.75-10.145-38.474-17.552-50.467zm-11.353 1.903c.803 0 1.45.648 1.45 1.45 0 .803-.647 1.45-1.45 1.45s-1.45-.647-1.45-1.45c0-.802.65-1.45 1.45-1.45zm79.11 1.616l1.903 1.75-1.754 1.905-1.926-1.99 1.776-1.665zm71.33.284c.804 0 1.456.648 1.456 1.45 0 .803-.65 1.45-1.454 1.45-.8 0-1.45-.647-1.45-1.45s.65-1.45 1.45-1.45zm-3.897.15c.805 0 1.455.646 1.455 1.45 0 .8-.65 1.45-1.455 1.45-.803 0-1.45-.65-1.45-1.45 0-.804.65-1.45 1.45-1.45zm-84.797-.096l1.103.815 1.295-.557.094 1.523 1.178.58-.742 1.08.45 1.422-1.274.04-.992 1.302-.89-.854-1.735.116-.275-1.48-.75-.588.582-.98-.426-1.305 1.484-.102.9-1.01zm-63.878 1.615c.803 0 1.45.648 1.45 1.45 0 .803-.647 1.45-1.45 1.45-.8 0-1.45-.647-1.45-1.45-.003-.8.65-1.45 1.45-1.45zm4.178.043c.8 0 1.447.653 1.447 1.455 0 .803-.646 1.45-1.447 1.45-.805 0-1.45-.647-1.45-1.45 0-.802.647-1.455 1.45-1.455zm84.027 3.463l-3.46 3.23 3.41 3.556-.106 2.73-6.05-6.037 6.15-6.04.057 2.56zm-34.217-.7l-12.988 8.614-.79-2.155 11.58-7.583 2.198 1.122zm96.62-.703c.803 0 1.45.652 1.45 1.455 0 .802-.647 1.45-1.45 1.45-.805 0-1.45-.648-1.45-1.45-.002-.803.645-1.455 1.45-1.455zm-77.87.876c-.602.042-1.213.752-2.38 1.99-1.145 1.216-2.49 2.644-2.78 2.847-.902.635-.857.788.71 2.55.48.536 1.38 1.63 2.003 2.434.623.805 1.617 1.81 1.814 2.018.637.668.984.53 3.916-1.574 3.557-2.554 3.54-2.175.27-6.396-1.88-2.433-2.783-3.925-3.553-3.87zm-70.646.89c.8 0 1.447.65 1.447 1.452s-.645 1.45-1.446 1.45c-.805 0-1.457-.648-1.457-1.45s.654-1.45 1.457-1.45zm76.178.528l2.346 2.52-.21.25-2.136-2.77zm75.877.56v4.363l-7.23 6.68v-3.99l7.23-7.053zm-80.974 1.276l.88 1.21 1.49-.097-.22 1.423.79.58-.772 1.078-.06 1.36-1.23-.292-1.01 1.214-.99-1.163-1.17.136.04-1.415-1.19-.676.843-.922.023-1.584 1.736-.064.84-.788zm35.77.09l.724 2.2-18.076 11.764-1.58-1.813 18.933-12.15zm-47.32 1.473l1.438 1.083-18.974 12.2-.57-1.59 18.105-11.694zM42.01 150.5v3.628l-8.003 7.713v-3.745l8.004-7.596zm75.132.87l.23-.19 6.203 5.96-1.172 1.244-5.26-7.014zm-17.133 1.75l.17 35.184-1.655-1.145.125-33.38 1.36-.66zm1.02.81l1.345 1.187-1.29 1.26-.056-2.447zm89-.3v3.57l-7.23 6.864v-3.73l7.23-6.704zm-148.02 1.715v3.354l-8.003 7.65v-3.39l8.004-7.613zm74.595.456c-.205-.004-.432.132-.758.39-.3.233-1.023.74-1.617 1.123-2.178 1.416-4.02 2.742-4.104 2.938-.168.406 2.018 3.256 5.05 6.674 1.192 1.345 1.16 1.604 2.356.408.95-1.08 4.436-4.037 4.336-4.828-.193-.905-1.393-1.936-4.365-5.96-.398-.506-.63-.74-.898-.745zm-13.44.367l4.76 6.812-.635.633-5.838-5.762 1.713-1.683zm-9.3.806l.01 32.825-8.933 6.348c.164.086-1.098-19.726-4.514-30.287l13.438-8.884zm22.216 1.155l.876 1.635 1.322-.224-.176 1.5 1.123.882-1.104 1.525.147 1.086-1.3-.293-1.185 1.223-.812-1.557-1.707.026.238-1.495-1.188-1.002 1.3-.77.18-1.362 1.12.097 1.17-1.27zm7.75.255l.147 1.343-.797-.693.65-.65zm-22.833 2.384l-.014-1.92 5.693 5.496-5.814 5.45.04-2.59 3.312-3.153-3.217-3.284zm47.063-1.064l.81 2.45-11.698 7.202-2.36-1.226 13.248-8.426zm38.55 4.047c.8 0 1.452.648 1.452 1.45 0 .802-.652 1.456-1.453 1.456-.806 0-1.452-.655-1.452-1.458 0-.8.646-1.45 1.45-1.45zm-74.47 4.72l-4.11-4.112.52-.56 3.59 4.674zm10.59-3.696c-1.395 1.19-4.365 4.625-4.36 5.192.005.563 4.118 4.118 6.59 5.696.778.494 1.085.51 1.386.062 4.273-6.384 4.453-6.168 2.762-7.414-1.72-1.314-3.73-3.27-5.102-3.943-.58-.283-.68-.108-1.276.407zm-15.405.31l6.773 6.498-6.28 6.062-6.522-6.882 6.03-5.678zm-69.19.49c.802 0 1.45.648 1.45 1.45s-.648 1.452-1.45 1.452c-.802 0-1.452-.65-1.452-1.452s.65-1.45 1.45-1.45zm85.618 1.306l1.14 1.015 1.36-.354.305 1.344 1.31.482-.702 1.365.098 1.723-1.318-.246-.916 1.412-1.342-1.35-1.535.13.084-1.507-1.357-.656.86-.99-.538-1.353 1.625.256.926-1.27zm64.785.605c.8 0 1.45.65 1.45 1.45 0 .804-.65 1.452-1.45 1.452-.803 0-1.457-.648-1.457-1.45 0-.803.656-1.452 1.458-1.452zm-84.775 3.425l4.014 4.105 3.69-3.54-3.913-4.135-3.79 3.57zm80.773-3.368c.8 0 1.45.648 1.45 1.45 0 .802-.65 1.456-1.45 1.456-.803 0-1.45-.653-1.45-1.456 0-.8.648-1.45 1.45-1.45zm-148.402 1.513c.8 0 1.45.653 1.45 1.455 0 .803-.65 1.45-1.45 1.45-.803 0-1.45-.647-1.45-1.45 0-.8.647-1.455 1.45-1.455zm4.252.014c.803 0 1.45.654 1.45 1.455 0 .803-.647 1.45-1.45 1.45-.8 0-1.45-.647-1.45-1.45 0-.8.65-1.455 1.45-1.455zm67.187.324l1.826 1.883-1.69 1.78-1.89-1.943 1.753-1.72zm24.79 1.29c-.936.67-3.475 5.48-3.908 6.538.004.254 1.225 1.028 2.754 1.743 1.304.61 5.532 2.306 5.923 2.4.85.205.996-.117 1.137-.67.076-.293.412-1.412.787-2.627 1.31-4.256 1.703-4.055-.246-4.7-.67-.224-2.782-.935-4.11-1.548-1.318-.607-1.914-1.144-2.337-1.135zm54.127.77c.8 0 1.455.648 1.455 1.45s-.654 1.456-1.455 1.456c-.805 0-1.45-.652-1.45-1.455s.645-1.45 1.45-1.45zm-69.31 1.992l.228 28.537-2.234-1.748-.06-28.63 2.065 1.84zm-9.987 4.864l-6.164 6.272-.04-3.194 3.45-3.128-3.515-3.676.072-2.47c2.25 1.842 4.17 4.106 6.196 6.196zm-69.086-5.475c.8 0 1.447.648 1.447 1.45 0 .802-.646 1.456-1.447 1.456-.805 0-1.457-.654-1.457-1.457 0-.8.654-1.45 1.457-1.45zm95.14-.062l1.244 1.037 1.042-.627.6 1.067 1.494.21-.67 1.63.88 1.26-1.46.27-.36 1.74-1.43-.852-1.09.472-.788-1.476-1.693-.067.924-1.602-.87-1.266 1.227-.08.95-1.717zm-19.027.112l-.01 2.517-2.682 2.72 2.69 2.93-.015 2.928-5.574-5.677 5.59-5.418zm28.602 1.653c-.562.02-.566.61-.996 2.54-.094.42-.393 1.54-.658 2.495-.812 2.89-.916 2.943 1.592 3.44 1.45.216 7.732 1.68 7.86.677.157-1.7.26-5.703.282-7.064.055-.457-.055-.887-.512-.94-2.86-.344-6.047-1.096-7.568-1.148zm-24.47.123c3.567 2.436 7.02 4.916 11.118 7.14l.105 29.346-11.246-8.376.02-28.11zm71.59.084v3.598l-7.5 7.158v-3.436l7.5-7.32zm-43.925 1.248l.65 1.393 1.365-.454-.008 1.663 1.217.77-1.468.675-.13 2.023-1.485-.457-1.227.758-1.084-1.14-1.326-.024.486-1.8-.857-.82 1.245-.612.102-1.604 1.332.797 1.187-1.168zm-103.848-.267v3.47l-8.163 7.51v-3.03l8.162-7.95zm114.07 2.174l1.83 3.096-.66 1.252-1.23-.6-1.348.498.205-1.654-1.04-.828 1.052-.967-.048-1.216 1.238.418zm-48.346 1.02l6.26 6.484-6.375 6.584-6.26-6.578 6.374-6.49zm82.047 4.062l-7.497 6.963v-3.387l7.498-7.11v3.534zM42.17 180.15v3.385l-8.163 7.646v-3.135l8.162-7.895zm65.74 1.21l-4.063 4.022 4.03 4.045 4.07-3.944-4.036-4.122zm.056 2.305l1.74 1.787-1.664 1.727-1.793-1.744 1.716-1.77zm-6.978 2.472l6.205 6.37-.715.842-5.498-4.272.008-2.94zm13.316.517l.164 2.875-3.383 2.888 3.09 3.244.086 2.986-5.88-6.056 5.924-5.938zm72.297 2.918c.806 0 1.452.65 1.452 1.45 0 .804-.646 1.452-1.45 1.452-.802 0-1.45-.648-1.45-1.45 0-.802.65-1.452 1.45-1.452zm-148.32 1.753c.804 0 1.452.65 1.452 1.45 0 .804-.648 1.456-1.45 1.456-.802 0-1.45-.65-1.45-1.454 0-.8.648-1.45 1.45-1.45zm29.708.89l-4.578 6.847 3.605 2.418-3.416 4.592 3.556 4.275-3.578 3.07 3.63 6.214c-1.442-.283-2.91-1.247-4.24-1.915l-2.737-5.207 3.15-2.71-3.196-3.708 3.352-3.97-3.36-2.357 3.665-5.638 4.148-1.91zm120.35.913c.802 0 1.45.648 1.45 1.45 0 .802-.648 1.45-1.45 1.45-.802 0-1.45-.648-1.45-1.45 0-.8.648-1.45 1.45-1.45zm-90.042-.113l31.6 24.354-.13 3.228-31.604-24.286-13.42 9.473.12-3.447 13.434-9.323zm86.174.307c.8 0 1.45.65 1.45 1.45 0 .804-.65 1.452-1.45 1.452-.803 0-1.45-.648-1.45-1.45-.003-.802.647-1.452 1.45-1.452zm-73.55 3.11l-.33.062-3.448-2.518.75-.847c-.002 0 2.262 2.498 3.03 3.3zm-70.49-1.403c.802 0 1.454.653 1.454 1.454 0 .803-.652 1.45-1.455 1.45s-1.452-.647-1.452-1.45c0-.8.648-1.455 1.45-1.455zm-3.913.017c.803 0 1.457.648 1.457 1.45 0 .802-.654 1.452-1.457 1.452s-1.45-.65-1.45-1.452c0-.8.65-1.45 1.45-1.45zm150.084 1.916c.806 0 1.452.652 1.452 1.455 0 .802-.646 1.45-1.45 1.45-.802 0-1.45-.65-1.45-1.45 0-.802.65-1.455 1.45-1.455zm-148.333 1.61c.803 0 1.45.65 1.45 1.454 0 .8-.647 1.45-1.45 1.45s-1.45-.65-1.45-1.45c0-.803.65-1.455 1.45-1.455zm151.674 2.7v3.205l-7.09 6.866v-3.092l7.09-6.98zm-95.648.963c1.053-.01 2.465.043 4.365.108 1.627.056 3.428.09 3.998.076 2.252-.062 2.986.705 3.027 3.14.037 2.16.027 2.155 2.857 2.274 3.413.144 4.313 1.02 4.36 4.242.018 1.256 1.033 1.748 3.02 1.465 3.135-.443 3.742-.013 4.107 2.897.3 2.432.14 2.307 3.01 2.284 3.086-.02 3.775.497 3.812 2.874.02 1.382.354 1.795 1.548 1.902 1.275.115 1.826.77 1.195 1.418-.115.117-.705.19-1.635.203-1.97.027-2.617-.59-2.982-2.844-.256-1.566-.414-1.648-3.03-1.574-3.337.09-3.597-.11-3.958-3.022-.31-2.497-.73-2.756-3.6-2.213-2.084.396-3.19-.524-3.46-2.873-.304-2.635-.42-2.73-3.38-2.836-2.965-.104-3.79-.625-3.816-2.407-.04-2.764-.39-3.014-4.035-2.9-1.77.052-3.58.02-4.62-.087-2.21-.23-2.198-.24-2.42 1.88-.33 3.173-.794 3.464-4.987 3.155-1.752-.13-1.877-.05-1.996 1.284-.15 1.67-.768 2.695-1.242 2.066-.248-.33-.25-.36 0-2.803.28-2.732.312-2.752 3.873-2.48 2.414.188 2.3.274 2.56-1.92.312-2.666.265-3.28 3.427-3.31zm-52.004-.25v3.516l-8.28 7.69v-3.41l8.28-7.796zm25.725 4.132l1.805 2.46-.584 4.58-1.53 1.15 1.083 2.177-.35 2.674-.43.245L65 213.57l3.56-3.132-3.645-4.447 3.443-4.642-3.574-2.515 4.295-6.324c.743-.904.788 2.686.788 2.686l-1.78 2.693 1.99 1.718h.005l.006 4.264-2.077 2.246zm2.275-2.073l.19-5.74-1.55-1.202 1.197-1.99-.082-5.084-.36-.25C66.7 153.385 48.878 131.878 46.09 127c0 0-.617-.5-.506-1.75.05-.542.074-3.75.053-7.13-.11-17.252.033-29.07.033-29.07l-13.1-13.963.076 5.108.643.464-.003 23.26-.545.028s-.168 6.254-.125 10.55l.78.02-.048 15.983-.665.08.04 10.355.72-.002s.17 10.856-.088 16.137l-.537.033.035 10.293.61.047.04 14.723-.752.113.205 9.718.61.033c.222 6.005.116 16.386.116 16.386l-.7.033.173 9.647.502.032-.147 16.938-.457.053.176 10.007.494.045-.084 8.32-.34.06-.082 3.11.363.824.023 11.086-.275.12-.08 5.57 20.31-20.542-7.478-.224.006-6.64c.002-10.954.148-19.794-.182-30.48-.098-.095-.838-.212-1.648-.26-3.85-.226-4.895-.536-4.906-1.46-.018-1.143 1.73-2.56 3.178-2.578.326-.006.877-.33.877-.33l-.464-121.544-9.088-9.52.037-3.02 11.2 11.853.42 121.48.427-.196.028-40.798c5.738 8.584 8.957 17.092 12.15 25.6 0 0 1.13-.39 1.176-.413.01-.01-.402-.147-.402-.147-3.258-10.87-7.38-18.754-12.723-26.98l.075-39.54c13.686 19.333 20.303 36.72 23.05 61.776l-6.925 3.458-.672.896-5.232 2.617-.5-.835-3.172 2.196c2.45 4.274 2.36 10.42.36 13.673l.86.535c.06.234 3.287-6.65-.324-13.66l2.363-1.454c3.41 7.047 1.826 14.637.22 16.592 0 0 2.47 1.57 4.243 2.535 1.926 1.048 3.64 2.005 5.95 2.748 1.423.58 2.327-.102 2.323-.114l.688-3.935-1.1-1.5 1.28-1.03.585-6.024-1.377-1.39 1.422-1.56zm119.653 1.61v3.878l-7.09 6.715v-3.817l7.09-6.776zM42.29 209.81l-8.28 7.6v-3.162l8.28-7.773v3.335zm144.834 5.17c.803 0 1.457.65 1.457 1.455 0 .803-.655 1.45-1.458 1.45-.8 0-1.45-.647-1.45-1.45 0-.804.65-1.455 1.45-1.455zm-141.527 2.35l.008 35.806-2.186.002.1-36.245 2.078.436zm-7.314-.327c.804 0 1.452.648 1.452 1.45s-.648 1.452-1.45 1.452c-.802 0-1.45-.648-1.45-1.45s.648-1.452 1.45-1.452zm146.776 1.384c.803 0 1.45.648 1.45 1.45 0 .803-.647 1.456-1.45 1.456s-1.455-.653-1.455-1.455.655-1.45 1.456-1.45zm3.912.063c.803 0 1.45.648 1.45 1.45 0 .802-.647 1.45-1.45 1.45-.8 0-1.455-.648-1.455-1.45 0-.8.654-1.45 1.455-1.45zm-148.42 2.18c.8 0 1.455.653 1.455 1.454 0 .803-.654 1.45-1.455 1.45-.803 0-1.45-.647-1.45-1.45-.003-.8.647-1.455 1.45-1.455zm74.754.042c7.566.938 5.562 8.87 2.373 10.52-4.342 2.023-7.818-2.048-5.047-6.175 2.035-3.03 5.904-1.025 4.41 2.293-.842 1.87-2.588 1.65-2.572-.24.623-1.797.05-1.156-.436-.52-1.53 1.99 1.557 4.102 3.145 2.137.973-1.205 1.178-2.638.844-3.78-.57-1.954-2.825-3.1-5.378-1.29-3.05 3.658-4.678 8.39-5.578 13.682-1.918 11.264-2.014 23.114-3.66 26.118l-1.79-.043c2.603-12.89 2.616-23.924 5.395-34.088 1.376-5.04 4.884-8.624 8.292-8.615zm-78.723.064c.802 0 1.45.65 1.45 1.455 0 .802-.648 1.452-1.45 1.452s-1.452-.65-1.452-1.45c0-.805.65-1.456 1.45-1.456zm30.69.2c-1.99.038-4.02 1.69-3.86 3.8.188 2.562 1.707 3.705 4.205 3.447 1.336-.138 1.3-.158 2.197 1.45.81 1.45 2.945 7.636 2.96 8.572-1.026-1.36-3.423-3.89-5.634-3.783-2.375.172-4.373 2.422-2.578 5.607.955 1.56 2.652 1.866 4.377 1.35 2.582 4.02 3.07 8.044 3.893 12.714 0 0 1.02-9.995 1.33-13.98.586-6.112 1.422-10.07 3.787-14.915-1.975-1.138-4.084-2.03-6.207-2.85-.846-.325-1.73-.33-2.566-.876-.58-.387-1.24-.554-1.903-.54zm120.012.813c.8 0 1.45.647 1.45 1.448 0 .803-.65 1.457-1.45 1.457-.805 0-1.45-.654-1.45-1.457 0-.8.646-1.45 1.45-1.45zM71.36 224.953c1.49 2.43 2.95 5.936 3.08 8.143.052 1.462-.237 3.257-.485 4.933-.123.83-.438.02-1.002-1.77-2.354-7.437-2.975-8.86-4.607-8.488-.93.21-1.898.248-2.53-.103-2.073-1.144-2.263-4.976.76-5.708 2.39-.52 3.93 1.604 4.783 2.992zm-.056-1.847c3.016 1.188 4.94 2.977 4.39 5.89-.24 1.095-.403 1.997-.696 1.88-.34-.133-.807-1.447-1.742-3.71-.214-.73-2.362-4.047-1.952-4.06zm49.88.125c.16-.02.41.127.75.444 2.378 2.34 1.087 7.615-2.075 9.134-1.306.896-3.702.75-3.716-.117-.006-.336.07-.428.404-.433 2.662.02 5.492-3.68 4.71-7.62-.097-.593-.278-1.38-.073-1.408zm-82.84 1.28c.802 0 1.45.65 1.45 1.45 0 .805-.648 1.456-1.45 1.456s-1.456-.65-1.456-1.455c0-.8.652-1.45 1.455-1.45zm85.34.446c.165-.022.743.226 1.126.687 2.238 2.696.422 7.293-3.1 8.868-1.344.728-2.475.226-2.19-.522 2.397-.993 4.66-3.567 4.425-7.087-.094-1.236-.504-1.908-.262-1.945zm-47.456.49l.814.387-.336.705c-.154-.422-.152-.586-.478-1.092zm50.002.293c.18-.003.576-.063.955.304 1.447 1.406 1.678 5.353.285 7.3-.65.915-2.676 2.575-3.277 2.743-.703.086-1.193.19-2.363-.342-.395-.014.176-.383.914-.81 2.62-1.514 4.357-4.214 3.902-6.747-.28-1.568-.758-2.44-.416-2.447zm2.656 1.272c.693.062 1.232.67 1.562 1.188 1.72 2.47.29 7.67-3.23 8.748-2.346.717-3.22.04-1.32-1.07 2.727-1.59 4.143-4.7 3.354-7.17-.378-1.18-.737-1.67-.366-1.696zm2.838 1.81c.82.013 1.455.64 1.744 1.288.682 1.596.572 3.832-.31 5.404-.882 1.567-2.57 2.872-4.444 3.063-.49.047-.914-.027-1.283-.186-.823-.354-.54-.407 1.01-1.22 2.47-1.29 3.93-3.976 3.554-6.94-.14-1.108-.587-1.405-.27-1.407zm-89.436-.54v3.832l-8.06 7.606v-3.74l8.06-7.698zm68.483.497c.153.157 1.065 2.33 1.18 2.78-1.888 2.715-2.42 7.172-2.712 10.547-1.066 9.567-2.172 21.123-2.656 21.23l-2.098.046c.8.533 1.822-15.866 3.45-26.256.124-.815 1.868-8.833 2.837-8.348zm24.386 1.696c2.77 1.873 1.29 7.72-2.56 9.166-1.397.536-1.913.604-2.546-.01-.396-.388-.78-.52.236-.878 2.848-.742 4.857-3.4 4.377-6.485-.054-.753-.76-2.736.493-1.794zm-22.395 1.618l1.26.81c-1.356 4.05-1.858 8.822-2.413 13.445-.672 5.59-1.264 11.345-2.078 16.833l-1.927.07c1.006-3.394 1.47-12.868 2.465-20.808.582-4.017 1.213-9.54 2.693-10.35zm2.187 1.323l1.613.937c-.568 2.258-1.244 4.733-1.578 7.104-.74 5.27-1.03 11.658-2.736 21.49l-1.746.147c.438-3.157 1.27-10.19 1.982-16.66.822-7.518 2.115-13.2 2.465-13.018zm-72.66-.254v3.762l-8.06 7.42v-3.465l8.06-7.717zm75.392 1.444s1.388.78 1.563.873c-1.05 4.15-1.562 8.008-2.078 11.77-.697 5.077-1.215 10.015-2.176 15.593l-1.862.117c.926-4.276 1.986-14.328 2.82-21.416.483-4.113 1.485-7.017 1.73-6.937zm-44.376 8.446c.023 2.837-.598 7.23-.598 7.23-.244.14-1.006-6.438-3.662-9.412-3.236 1.542-6.03-2.073-3.822-4.558 4.31-3.703 8.082 4.21 8.082 6.74zm46.8-7.315l2.255 1.04c-.278-.05-.812 1.503-1.33 3.923-1.577 7.376-3.144 21.91-3.397 21.905l-1.738.145c.562-3.904 1.336-10.072 2.145-15.53.916-6.182 1.768-11.45 2.063-11.482zm3.132 1.414l1.71 1.026c-.147-.106-.77 1.724-1.067 2.998-1.542 7.357-2.237 13.808-3.19 20.943l-1.865.24c-.14.208 1.61-14.042 3.055-21.24.492-2.457 1.217-4.052 1.356-3.968zm2.668 1.28l1.836.904c-1.996 5.646-2.182 11.045-4.094 22.375l-1.938.354c.78-7.254 1.887-15.045 3.477-22.146.22-.953.7-1.468.72-1.487zm2.623 1.322l2.062.83-4.32 20.8-1.74.237c1.083-5.995 1.644-12.93 3.106-18.396.31-1.158.484-2.46.89-3.47zm-89.875 3.295c.8 0 1.455.65 1.455 1.45 0 .803-.654 1.45-1.455 1.45-.803 0-1.45-.647-1.45-1.45-.002-.8.647-1.45 1.45-1.45zm1.896 3.404c.8 0 1.455.654 1.455 1.457 0 .802-.654 1.45-1.455 1.45-.803 0-1.45-.648-1.45-1.45-.003-.8.647-1.456 1.45-1.456zm-3.78.09c.804 0 1.456.65 1.456 1.45 0 .804-.652 1.456-1.455 1.456s-1.452-.652-1.452-1.455c0-.8.65-1.45 1.45-1.45zm1.81 3.348c.804 0 1.452.653 1.452 1.455 0 .803-.648 1.45-1.45 1.45-.802 0-1.456-.647-1.456-1.45 0-.802.655-1.455 1.455-1.455zm13.132 4.848L34.3 272.376l-.055-3.524 11.934-11.718-12.026-.184.03-2.385 17.526.175zm-7.98 3.363l-9.328 8.9-.078-9.052 9.406.153zm9.965.65s-.053.324.822 1.86c2.545 4.42 3.135 8.51 5.385 13.25 1.117 2.593 3.64 5.212 4.203 5.36l-2.803 5.127 79.064-.164-12.656-22.095c-20.088 3.72-38.135 3.067-55.1.098-.973 1.307-2.04 3.965-3.06 5.887-2.533-6.817-10.635-11.216-15.855-9.322zm2.877.59c4.178-.058 7.66 1.93 10.754 6.143.98 1.342 1.365 1.947 1.36 2.512-.105.652-1.397 2.734-1.397 2.734s-.753-2.068-.93-3.068c-1.126 4.137-1.573-.658-2.007-1.922-1.37 3.996-2.107-1.498-2.04-2.98-1.864 2.563-1.743-1.645-2.653-2.43-.02 2.222-1.328.7-3.02.23.886 1.24 2.606 2.072.405 2.35 2.195 1.515 3.295 1.282 1.164 2.118 1.642.906 4.345 1.996 1.356 2.592 1.826 1.15 4.762 1.635 1.605 2.734 2.386 1.46 5.562 1.354 1.095 2.526 1.62.945 4.47 1.302 1.28 2.123.49.222 1.347.793 1.347.793l-1.38 2.18s-.497-.04-.835-.395c-1.465-1.528-2.89-4.344-4.166-8.287-.937-2.9-2.054-5.967-3.286-8.512-.666-1.343-.602-1.41 1.348-1.44zm70.61 4.98l10.927 18.694-2.595.04-9.646-16.008-13.02 1.47 4.288 14.312-3.87.105-3.84-14.078c-7.265.292-14.194.374-20.237-.11l-2.05 14.28-3.69-.124 2.34-14.135-12.214-1.56-6.625 15.854-3.815.07c2.463-4.152 8.613-17.568 9.762-18.89 26.606 4.26 40.42 1.962 54.284.078zm-2.554 4.333l8.273 14.383-13.288.06-4.467-13.32 9.483-1.124zm-49.722.42c2.62.765 5.44.93 8.285 1.034l-2.415 12.87L69 282.957l5.906-13.88zm33.148 1.514l3.123 12.498-22.166.113 1.83-12.456c5.817.348 11.5.027 17.214-.154z"/></g></svg>