<svg version="1.2" baseProfile="tiny" xmlns="http://www.w3.org/2000/svg" xmlns:xlink="http://www.w3.org/1999/xlink" width="225" height="314" viewBox="0 0 225 314" preserveAspectRatio="xMinYMin meet"><defs><style type="text/css">use { fill: black; } .maxi-card { display: none; } .mini-card { display: block; } @media (min-width: 75px) { .maxi-card { display: block; } .mini-card { display: none; } }</style><path id="suit" d="M20.976 57.14c2.88-5.774 4.976-11.7 5.348-18.036.342-2.33-1.074-2.37-1.288-.73C20.96 53.97-.727 49.745.02 35.08.622 23.182 12.44 20.624 18.6 24.513c2.435 1.434 2.296.575.968-.91C10.416 13.39 15.958.24 28.33 0c13.38.793 16.854 14.87 8.647 23.147-1.02.994-3.283 4.19.123 1.956 8.287-5.888 19.787.443 19.553 9.52-.434 16.74-20.84 17.987-25.203 4.007-.42-1.55-1.63-2.328-1.295.305.604 4.767 1.855 11.953 5.438 18.205H20.976z"/><path id="numeral" d="M9.842 0C5.15.09 2.822 4.02 2.797 7.953L2.8 18.27H0v3.426h2.8s.05 1.564.042 2.503c-.04 4.636 1.6 7.446 4.797 8.225 3.065.56 4.665-.102 7-1.31.848.352 1.44 1.08 2.348 1.17 1.004.103 3.096.055 3.096.055l-.058-3.515-1.045-.152c-2-.034-2.865-.733-2.648-1.982.424-.812.485-1.404.524-2.388V6.85C16.796 2.57 13.3.037 9.842 0zm-.145 3.403c2.24-.035 4.104 2.573 4.053 5.246l.035 13.48c.073.848-.062 1.677-.437 2.26-.295-.86-4.93-5.598-7.248-5.38 0 0-.094.24-.16-5.685-.028-2.91-.793-7.253 1.822-9.214.653-.48 1.308-.698 1.935-.707zm2.34 24.628c.206.417-.555.827-1.366 1.054-2.294.64-4.544-.79-4.616-4.08-.02-1.003-.088-2.075.265-2.233 1.052-.474 5.097 4.01 5.718 5.26z"/></defs><rect width="100%" height="100%" fill="#fefefe"/><g class="mini-card"><use xlink:href="#numeral" transform="matrix(3.5 0 0 3.5 78.4 33.95)"/><use xlink:href="#suit" transform="matrix(2 0 0 2 55.5 170)"/></g><g class="maxi-card"><use xlink:href="#numeral" transform="translate(7 12)"/><use xlink:href="#suit" transform="matrix(.4 0 0 .4 6 51)"/><use xlink:href="#numeral" transform="matrix(-1 0 0 -1 218 302)"/><use xlink:href="#suit" transform="matrix(-.4 0 0 -.4 218 263)"/><use xlink:href="#suit" transform="matrix(.8 0 0 .8 38 40)"/><use xlink:href="#suit" transform="matrix(-.8 0 0 -.8 186 274)"/><path fill="#D40000" d="M120.683 283.85c.538-7.93.077-16.44.438-22.893-.245-.456.64-1.707.686-1.707-.525-.96-.702-3.415-.038-5.594 5.19-19.773 14.587-35.16 24.268-49.51 7.87 23.714-16.847 40.352-22.044 61.073-1.734 7.174-1.475 12.185-2.14 18.666l-1.17-.036zm-41.096.302l-29.405-45.424 6.386-3.108 30.226 48.374-7.207.158zm38.035-84.15c.26 1.305 1.285 2.005 2.374 1.408 1.066-.585 1.19-.624.526.404-1.466 2.27 1.503 4.468 3.407 2.52.677-.692.79-1.82.175-2.392-.694-.646-.846-.98.18-.488 2.572 1.042 3.99-2.68 1.496-3.932-.642-.322-1.894-.036-2.364.455-.57.593-.65.385-.498-.076.09-.27.153-.713.368-1.24.168-.413.29-.976.29-.976l-2.63.027s.212.604.428 1.11c.202.477.278.834.377 1.032.355.714-.07.45-.78-.08-1.004-.745-2.262-.536-2.978.446-.263.58-.485 1.18-.37 1.784zm3.796-36.955l5.652-.168 6.216 17.152c-4.975 8.26-6.316 17.575-.527 27.018l-17.927.028c4.205-14.227 4.855-29.318 6.585-44.03zm5.91 22.32c.76-.68.856-1.91.165-2.73-.87-1.03-.67-1.084.495-.41 1.683.972 3.292-1.13 2.3-2.99-.63-1.18-2.67-1.44-3.45-.393-.65.876-.577.074-.077-1.09.185-.427.448-1.23.448-1.23l-2.74.058s.355.775.544 1.273c.5 1.32.52 1.74-.25.89-1.673-1.404-3.634-.387-3.65 1.63.016 1.552 1.422 2.548 2.652 1.823.748-.44 1.084-.546.24.465-.58.965-.37 2.193.396 2.77 1.05.636 2.175.6 2.928-.067zm-37.866 5.344c.22-.16.3-.055.166.164-.115.187-.41.45-.662.732-1.278 1.422.376 3.23 2.437 2.95 1.402-.19 2.226-2.397 1.19-3.27-.337-.224-.6-.267-.855-.573-.02-.122.037-.205.16-.157.184.077.558.38.746.43 1.304.354 2.287-.185 2.618-1.105.21-1.062.008-2.206-.86-2.804-.81-.542-2.005-.387-2.7.54-.715.945-.813.045-.23-1.263.22-.49.37-1.187.37-1.187l-2.52.134s.134.542.355 1.165c.56 1.422.96 1.83.246 1.096-3.076-1.81-4.098.652-4.148 1.632-.094 1.845 2.59 2.892 3.687 1.52zm12.315-27.82l4.544.017c-3.426 18.218-10.446 33.478-22.26 43.98l-22.23-.07-10.713-7.49 4.137-5.372c28.223 2.908 40.24-11.086 46.523-31.064zm-20.454 42.232c1.33-.586 1.884-2.093 1.003-3.104-.795-.914-.876-1.2.346-.487 1.636.953 3.216-.948 2.414-2.81-.5-1.157-2.07-1.515-3.203-.728-.995.742-.977.41-.456-.762.257-.58.455-1.51.455-1.51l-2.785.04s.2.66.403 1.115c.465 1.043.633 1.52.417 1.523-.104 0-.448-.316-.65-.502-.554-.51-2.07-.605-2.633-.067-1.667 1.59-.73 4.37 1.393 3.857 1.37-.33 1.683-.852.548.437-1.4 1.59.768 3.872 2.748 2.998zm-17.57-.55c1.15-.544 1.537-1.873.893-2.73-.65-.863-.97-1.42.185-.642 1.535.772 2.876-.253 2.856-2-.02-1.826-2.072-2.68-3.583-1.578-.255.186-.568.354-.625.354-.185.002.15-.986.518-1.634.16-.28.44-.854.44-.854l-2.786-.106s.156.76.374 1.343c.444 1.186.553 1.58-.225.908-2.096-1.958-4.33.535-3.448 2.688.466 1.213 1.896 1.213 2.74.606.765-.593.373.194-.15.82-1.433 1.706.666 3.827 2.81 2.825zm127.207-45.677l.146 3.37-35.996 29.997-1.51-2.312 37.36-31.055zm-133.882 6.308c5.183-3.688 10.946-10.31 16.637-13.76 4.157 9.555-5.594 18.922-16.637 13.76zm95.117-2.417c-5.213-17.896 19.41-16.705 16.317-12.904l-16.317 12.904zm-117.012-11.69l35.634-29.05 1.62 2.44-37.593 30.797.34-4.188zm97.613-29.305c.1.305 1.178 1.462 1.18 1.567-.308-.23-2.138-1.255-3.03-.26-.313.366-.71 1.24-.667 2.143.373 1.618 2.215 2.19 3.523 1.08.377-.318.7-.705.776-.568.065.118-.14.674-.308 1.114-.193.453-.91 1.403-.39 1.402l2.53-.005s-.094-.593-.397-1.248c-.566-1.226-.543-1.892.14-1.01 1.33 1.72 3.906.287 3.638-1.774-.194-1.487-1.7-2.34-2.81-1.63-.12.078-.477.43-.527.434-.136.006.235-.562.48-1.033.817-1.563-.4-3.013-2.267-2.857-.604.05-1.263.43-1.267.484-.698.565-.813 1.54-.607 2.164zm30.765-14.572c3.566 3.28 7.132 5.683 10.697 7.782l-3.364 5.312c-22.802-2.11-39.383 6.904-46.302 31.343l-3.758.724c1.414-15.246 6.523-30.364 21.627-45.138l21.1-.024zm-21.85 3.647c.005.723 1.333 1.583 1.037 1.78-.136.073-.926-.614-1.29-.653-2.632-.28-3.177 3.813-.568 4.273.512.09 1.57-.23 1.886-.487.418-.343.707-.625.793-.594.16.06-.205.788-.49 1.33-.268.5-.64 1.485-.64 1.485 1.045.187 2.052.23 2.994.013 0 0-.27-.855-.54-1.507-.345-.833-.418-1.36-.187-1.306.1.024.213.284.422.465 1.296 1.113 3.198.638 3.698-1.102.47-1.634-1.487-3.316-2.85-2.402-.476.32-.477.08 0-.637.433-.654.326-1.646-.067-2.235-1.43-1.516-4.265-.43-4.2 1.577zm21.49 4.848c-.073-.364.02-.26.403.14 1.2 1.248 3.267 1.055 3.793-.602.524-1.65-1.08-3.542-2.478-2.893-.728.338-.74.218-.324-.323 1.072-1.395-.11-3.232-1.95-3.212-1.68.02-2.67 1.637-1.852 3.026.335.568.226.69-.363.404-1.72-.834-3.324 1.887-2.064 3.5.74.95 2.454 1.05 3.434.107.52-.502.518-.263.14.774-.33.903-.697 1.634-.697 1.634l2.976.026c-.002.002-.797-1.508-1.02-2.58zM99.49 152.27s-4.416-12.292-5.93-18.185c3.273-7.838 7.753-15.434.223-26.72l18.3-.05c-5.653 12.817-5.774 45.168-7.103 45.246l-5.49-.29zm1.605-14.387s-.903-1.242-.958-2.25c-.11-.645.057-.685.393-.026 1.63 1.802 3.836.062 3.847-1.533.187-1.46-1.52-2.71-2.617-1.982-.77.51-.978.364-.292-.587.966-1.34-.086-3.082-1.812-3.062-2.245.025-3.105 2.124-1.496 3.62 1.19 1.107.08.453-.863.058-1.84-.77-3.046 1.104-2.22 2.993.568 1.305 2.24 1.645 3.22.59.538-.58 1.034-.92.743-.044-.152.706-.975 2.205-.975 2.205l3.03.018zm2.833-19.7s-1.083-1.358-1.27-2.38c-.064-.377.202-.28.817.247 1.97 1.69 4.674-1.34 2.84-3.19-.63-.638-1.27-.822-2.01-.438-.918.48-.844.247-.386-.25.674-.727.624-2.055-.1-2.7-2.002-1.784-5.17.874-3.31 2.78.81.83.426.723-.466.19-1.686-1.01-3.552 1.754-2.285 3.377 1.5 1.268 2.625.644 3.662-.154.226-.12.42-.173.422-.075.002.185-1.037 2.63-1.037 2.63l3.123-.037zm-24-7.658c-1.117-.074-1.915-10.507-.55-13.81 2.91-13.935 11.79-24.085 17.318-32.62 8.867-12.71 7.765-33.822 8.142-32.98l1.258.146s-.974 12.377-.423 17.97c.572 4.916.446 5.222.095 5.71-.094.458.044 1.798-.056 2.258-3.946 18.205-13.364 36.924-23.09 51.056l-2.695 2.27zm91.175-31.803L141.16 31.504l7.195-.647c2.67 4.23 28.685 44.576 28.685 44.576l-5.935 3.29z"/><path fill="#E2CF00" d="M47.8 284.994c3.406-12.483-5.82-41.518-11.585-45.312 6.762-.285 14.895-.163 14.638-.796 0 0 28.753 45.225 28.52 45.464-.222.227-31.572.644-31.572.644zm116.54-70.826c-6.97-.99-4.22-6.774.26-7.374-.584.097.48-2.876 4.093-4.078.82-1.488 1.465-4.03 2.216-5.21-2.167.704-4.8 2.534-14.64 1.092.857-4.663 10.27-5.458 13.664-4.737 1.96.456 3.895 3.377 4.49 3.44 6.042-1.008 13.73 4.458 11.403 10.006-.36.79-1.28-.94-3.313-1.677-6.573-2.385-7.034-5.94-8.545-7.535-.55-.103-3.458 5.65-3.458 5.65l.908 3.906c1.576-.143 8.583 4.187-.14 7.12-2.412 8.312-6.955 2.446-6.94-.602zm16.512-37.12c-.373-.38.293-2.967 1.178-4.455.48-.805 1.582-1.344 2.23-1.23 1.152.202.973 1.88-.556 6.79-.063.708-1.624.782-2.852-1.105zm-138.767-34.38c-1.912-.008-.197-5.208.98-6.858.385-.513 1.91.58 1.99 1.333.14 1.348-1.933 6.06-2.97 5.524zm-1.357-35.357c2.334.563 6.02 2.913 7.778 4.202 2.19 1.634 1.592 4.84 3.343 5.126 1.182-.585 3.352-5.838 3.352-5.838s.544-2.698-1-3.53c-3.838-2.066-3.77-4.3-3.525-4.5 1.14-2.95 3.405-2.425 4.63-2.59.026-1.614-.027-5.024 3.316-4.673 2.925.276 3.213 4.454 1.982 4.493-.023-.07 5.53-.797 5.477 2.866-.03 1.986-3.324 4.527-4.35 3.604 0 0 .55 3.96-4.427 5.316-1.162 1.184-2.112 6.217-2.112 5.77 3-2.708 7.7-3.344 15.115-2.37-4.594 8.515-17.294 4.53-18.287 2.882-6.39-1.927-12.383-4.438-11.292-10.757zm54.71-20.41c6.758.614 14.152-1.507 19.773-.384.642.088 1.337 1.035 1.723 1.245 2.905 1.586 5.946 1.094 10.623-.677 1.155-.437 22.586-.27 22.586-.27 4.882 7.21 13.562 20.776 13.75 20.316 0 0-11.88-.136-17.354.188-3.85.23-1.586.753-4.258.868-18.73 14.065-22.294 44.46-22.294 44.46s5.952-1.566 7.508.076c7.362-21.536 21.34-31.37 40.832-29.444 9.007.89 19.755 9.747 19.755 9.747l-19.275 15.687c-14.933-7.533-21.33 14.67-16.8 14.725l38.816-31.73s.665 2.59.6 2.68c-2.768 3.626-49.044 41.19-49.044 41.19l-2.03-2.246s-1.277 1.134-1.95 1.89c-.065 1.23.368 2.272 1.3 3.235-9.166 7.356-9.47 20.854-2.71 28.223 0 0-2.998.212-3.313.267-3.808.65-7.747-18.127-.197-26.865-3.81-7.47-6.155-17.63-6.633-18.1.102 1.195-6.012.798-6.012.798-.466 15.177-2.05 30.06-5.696 44.4l28.085.604-11.957 20.748s-13.415-.336-19.195-.74c-6.034-3.51-9.514-.842-15.177.458-8.06.237-19.922-.138-19.922-.028-4.023-7.99-8.348-13.867-14.225-20.717-.747-1.244 23.855-.476 23.855-.476s12.298-18.604 14.538-23.857c1.748-4.1 5.67-19.03 5.67-19.03.182.778-2.233-3.882-7.857-3.776-4.65 30.914-41.387 41.328-63.49 21.432l-.207-3.596 48.712-39.512 2.165 2.502c-.466-.372-29.905 24.125-29.416 23.97 8.726 4.567 18.82.87 17.646-14.12 6.913-4.997 13.034-10.82 19.053-16.762.13-.232 6.716 14.776 6.554 17.665 3.788-1.272 6.03 1.396 5.96.94-1.362-8.68 6.238-41.59 6.384-45.374-4.222-.34-9.82-.186-18.6-.533 7.053 13.648 4.604 22.896-5.254 31.304l-2.062-2.59c.837.467 14.398-11.27 3.48-28.802-.5.04-5.757-.476-5.757-.476s10.775-17.092 11.32-19.51zm52.34-56.41s30.743-.738 30.753.163c-.98 16.517 2.87 31.584 12.16 45.52 0 0-13.616-.483-13.367-.313l-29.546-45.37z"/><path fill="#131F67" d="M192.497 29.417L32.67 29.222l.99 256.526h159.633l-.796-256.33zm-14.62 1.018c-.012-.015-2.06 27.137 12.107 44.92-8.653-1.31-13.608.016-18.647 3.575l.69.71c6.94-4.264 12.817-3.142 18.843-2.478l-.164 34.932c-.043 1.696-7.04.94-11.466-2.39-2.1-1.24-4.81-3.844-6.025-5.798-.37-.595-.76-1.182-.866-1.306-.407-.468-2.932-5.17-7.564-14.072-2.355-4.525-5.47-10.7-7.998-15.485-1.637-3.1-4.682-8.95-4.896-9.418-.448-.973-3.762-7.438-5.052-9.79-3.407-6.216-8.91-17.06-10.87-20.945-.435-1.008-1.095-1.473.087-1.44.262.007.524.022.675.06.208.103.46-.357.46-.357l40.686-.718zM35.562 177.323l-.1-2.746 46.447-38.31 1.48 1.908-47.826 39.148zm44.88-67.1c-.188.067-.392.138-.615.21-1.193-5.32-.513-12.428.894-17.77 2.048-7.418 5.874-13.367 10.134-19.346 9.736-13.65 14.05-23.942 13.874-42.28l1.392.147c-.06 2.896-.44 5.075-.554 8.93-.174 4.13-.105 7.27.334 11.303.216 1.98.346 3.266.012 3.523-.158.13-.303.815-.156 1.067-.023.55-.1 1.648-.1 1.648-2.23 10.92-14.19 38.917-25.217 52.567zm5.807 24.82l-2.46-3.02s-1.895-1.526-.193-3.252c4.918-4.985 4.95-11.323.196-17.023-.32-.724 1.478-4.38 1.478-4.38l3.742.062c5.838 7.1 7.43 19.65-2.763 27.613zm3.44-28.185c.116-.485-5.547-.298-5.547-.298 3.518-5.243 6.51-10.636 9.448-16.044 4.56-8.185 10.884-22.523 12.866-32.917 1.476 12.155 3.622 30.198 14.024 30.91 3.41.233 7.36-2.104 8.005-1.718l21.612-.17c4.432 8.985 9.193 14.775 14.832 20.922 4.052 2.31 8.993 4.14 13.77 5.326 2.712.674 2.973.225 8.324.988 1.413.2 3.565-.396 3.544-.396-4.275 3.373-9.208 2.417-14.64.973-.305-.08-.624-.175-.94-.287l-4.103 6.17c-9.13-2.162-38.44-.63-46.168 31.237 0 0 .795.405.61.186 6.136-27.66 32.06-33.174 44.417-30.42l-1.063 1.623c-20.506-2.508-37.202 10.317-41.18 28.505l.397.36c7.695-27.498 40.043-37.673 60.098-18.613l3.68-2.604-.12 3.526-49.306 41.31-1.973-2.038s-.347.263-.74.59c-1.27 1.06-1.774 1.317-1.417 1.91.356.59 1.74 1.92 1.8 2.07-8.178 6.664-10.772 19.516-3.002 28.516.867.953.71 1.21.55.136-6.97-7.586-6.087-21.003 2.605-27.36l1.75 2.295c-3.826 8.402-5.867 21.507 4.195 22.642 3.604 9.66-.543 21.106-5.173 28.78-4.905 8.838-10.85 16.185-14.563 25.812-1.804 4.017-4.675 15.932-4.523 25.037l-1.08-.01c-.003-3.717.246-8.123.276-10.94.15-13.73.13-12.916.44-13.265.102-.115.39-.237.417-.334.04-.145-.225-.43-.33-.765-.106-.344-.288-.948-.27-1.457.018-.51.495-1.25.404-1.416-2.165-7.578-2.343-21.196-9.33-27.452-3.425-2.942-7.976-3.06-13.87-.647-13.004.024-11.076.693-21.578.094-4.346-7.955-9.615-15.703-15.316-21.447-2.664-2.972-6.37-4.6-9.854-6.754 1.397-2.65 2.982-4.588 4.715-5.847.36-.512.605-1.065 1.07-1.5 35.414 3.403 43.094-30.895 41.478-30.022l-.313.272c-9.683 35.337-44.14 34.05-61.46 18.772 0 0-2.445 2.126-2.454-.207-.006-2.12.768-2.733.768-2.733l48.613-39.642c.89.566 1.847 2.45 2.246 2.238.896-.476 2.215-1.432 2.174-2-.03-.44-1.777-3.19-1.777-3.19 13.004-13.464 7.138-19.48 2.964-28.705zm18.428-75.67c.234-.003.456.108.62.368.296.468-.884 3.198-1.613 3.68-.69.455-.74-.074-.24-2.715.145-.774.718-1.33 1.233-1.333zm71.33.046h11.262l.083 43.245c-8.416-11.828-12.677-25.45-11.345-43.246zm-68.307.104c.28-.013.528.065.61.27.288.73-1.363 3.878-3.406 6.49-1.06 1.353-1.595 1.746-1.925 1.423-.28-.615-.27-1.332.704-2.458.806-.93 2.176-3.1 2.74-4.315.245-.714.487-1.358 1.278-1.41zm11.56.154c.33.003.666-.002.76.153 1.966 4.01 5.668 7.626 9.456 9.56.553.313.292 1.1.48 1.65-4.257-.63-9.84-6.66-11.335-11.06-.01-.317.31-.305.64-.303zm6.655-.002c.847.86 2.18 1.898 2.48 2.88.184.603.317 1.294.188 1.618-.738.462-4.412-3.8-4.27-4.298.466-.308 1.053-.372 1.603-.2zm-15.93-.062c.36.014.912-.007.992.265.46 1.86-3.786 9.102-6.882 11.153-1.1.73-1.172.538-1.083-.686.06-.822.138-.757 1.268-1.835 1.612-1.54 3.373-3.916 4.342-6.02 1.242-2.7.938-2.87 1.362-2.877zm2.88.028c.403 0 .78.138.884.316.142.243-.048.64-.18 1.126-1.398 3.958-4.875 9.654-8.958 12.89-1.59 1.225-1.858 1.217-1.974-.047-.067-.734.27-.948 1.017-1.466 3.465-2.402 6.577-6.57 7.895-10.827.257-.83.16-1.573.61-1.826.21-.115.463-.164.705-.164zm21.498 6.86c.166.283 1.355 2.142.384 1.44-.398-.325-1.122-1.15-2.275-2.458-2.727-3.096-2.81-2.904-2.755-3.674.026-1.003-.69-2.65.86-2.223 1.523 1.793 2.48 4.68 3.786 6.915zm-12.41-6.798c.308-.006.674.052.978.113 1.795 3.376 6.177 6.34 6.16 6.323 0 0 .11 1.47-.05 1.73-.09.45-6.96-4.768-7.724-7.89.074-.202.326-.27.635-.275zm-4.89.06c1.613 2.964 4.94 9.687 12.76 12.403.562.123 1.16 1.724.73 2.163-4.287-1.242-12.063-5.44-14.705-14.523.258-.242.942-.204 1.216-.04zm-2.098.577c-.27.005 3.69 11.433 14.972 14.84.976.306 1.548.73 1.485 1.306-.08.73-.056.82-1.14.275-3.08-1.607-7.465-2.36-11.13-.5-.57.292-1.15 1.084-.69 1.583.264.254.91.065 1.734-.256 4.265-1.66 10.79-.683 11.943 1.926.818 1.852.958 3.216.51 3.443-.34.175-.92-.448-1.938-1.343-3.245-2.846-7.124-3.638-10.208-.903-.667.592-1.328.49-1.56.733-.228.236.04.768.23 1.286.198.543.207.69.01 1.15-.27.627-.28 1.43-.25 2.028.07 1.46 1.036 2.714 3.81 4.637 2.162 1.497 3.853 2.34 1.22.208-4.54-3.68-5.364-5.177-2.42-3.902 2.938 1.182 7.014-.003 9.9-2.204.98-.018 1.566-.19 2.084.188 2.152 5.053 3.912 11.776 6.773 18.295-3.418 3.86-15.315 13.315-23.798 12.98-7.325-.292-9.91-12.28-11.53-18.905-.546-2.804-1.168-5.657-1.093-9.616 0 0 .132-.106.32-.07 1.23.23 3.34.392 4.413.14 1.95-.454 2.34-.802 2.455-.515.134.34-.678 1.102-2.096 2.072-.616.42-2.412 1.286-2.223 1.413.428.287 2.6-.87 2.965-1.178.567-.48.958-.512 1.23-.246.317.31.383-.022-.668 2.587-1.158 2.873-1.047 3.134 1.21 4.904.786.617 1.504 1.232 1.676 1.5.216.354.363.77.463.904.382.51.147-.312-.08-1.618-.264-.966-1.21-1.926-1.883-2.393-1.232-.857-1.04-1.698-.02-4.617 3.01-8.607 2.24-12.447-1.073-14.317-1.494-.845-5.678-.62-6.997.482-.65.543-.56-.522-.457-.594 7.953-5.464 9.817-10.676 11.846-15.703zm15.343 4.217c2.257 2.24 5.065 5.28 6.756 7.443.93 1.153 1.42 2.336 2.158 3.548.14.22.28.47.18.572-.037.043-.36-.145-.54-.28-1.653-1.245-8.48-9.02-8.48-9.02-.315-1.275-.534-1.71-.073-2.263zm1.35 5.278s5.916 6.458 9.304 9.635c.666 1.4 1.942 3.416 1.91 3.756-.014.15-.724-.396-.724-.396-3.744-3.45-7.204-7.327-10.8-11.002.035.02-.283-1.52-.287-2.143.08-.306.44.03.595.15zm12.833 16.554c.796 1.296 1.376 2.455 1.76 3.217.632 1.207.42 1.24-.138.796-4.232-3.465-7.776-7.682-11.764-11.547-.518-.533-1.552-1.718-1.552-1.718.037.043-1.3-2.785-.46-2.728.656.255 1.087.968 1.51 1.42 2.09 2.24 6.075 6.088 10.644 10.56zm-36.923-9.23c1.745-.053 3.465.398 4.333 1.47.79.973 1.107 2.514.67 2.962-.273.28-1.243-.508-1.243-.508-4.11-2.307-5.526-1.195-7.757-.52-.318.098-.656-.76-.25-1.608.82-1.41 2.895-1.756 4.247-1.797zm25.868 2.182c4.397 4.41 8.865 9.307 13.623 13.098.667.568 1.124.934 1.43 1.24.627 1.244 2.072 4.208 2.072 4.208-5.1-3.564-16.587-15.856-16.46-15.774.116.058-.96-2.25-.665-2.772zm-8.606.73c.803-.007 1.683.245 2.377.52 2.216.88 3.61 1.816 1.315 1.504-3.194-.434-4.285-.457-5.455-.27-2.172.35-2.34.59-2.53.246-.498-.905 1.883-1.977 4.292-2zm-18.128.26c.8-.005 1.67.172 2.52.544 2.71 1.184 3.186 1.955.88 1.584-1.196-.192-3.39-.173-4.962.232-.498.128-1.05.417-1.178.458-.557.18-.71-.237-.473-.937.412-1.205 1.685-1.872 3.212-1.88zm19.608 3.455l.56.042c-.7 3.956-4.65 3.57-5.714.173l.56-.013c2.08 3.25 3.636 1.338 4.594-.2zm2.2.207c1.827-.02 1.71 1.075-.192 1.812-1.458.562-1.622.46-1.088-.63.513-1.05.46-1.174 1.28-1.183zm-18.81.14c.18 3.565-4.788 4.22-5.093.332l.473-.024c1.627 3.057 3.507 1.212 4.094-.307l.526-.002zm2.21.49c.56.383.212.91-1.008 1.654-1.102.687-1.385-.143-.478-1.29.38-.37 1.007-.678 1.485-.364zm8.612-.006c.218-.067.732.897.294 1.127-.262.137-.647-.258-.69-.55-.034-.23.11-.486.396-.576zm14.872.224c3.313 3.65 6.65 7.316 16.408 15.264 0 0 1.38 2.452 1.68 3.41-.237.292-.36.26-1.046-.08-6.363-4.913-12.28-10.89-16.915-16.44-.22-.786-.712-1.543-.128-2.154zm-31.596.364c.376-.013.907.828.614 1.333-.242.19-.617-.103-.78-.334-.162-.23-.157-.65-.057-.838.06-.108.136-.157.223-.16zm32.982 5.055c-.026-.127 15.412 15.52 17.393 15.222.923.543 3.217 4.99 3.217 4.99.066.14.056.4-.316.218-2.608-1.29-13.52-10.345-19.1-17.085-.408-.98-.902-2.23-1.192-3.345zm-18.352 2.298c2.692 1.302 1.534 3.97-1.307 2.272-2.24-1.36-4.016-1.484-4.003-.308.006.498.615 1.138 1.206 1.13 1.107.072 2.11.478 3.198.715 1.697.363 2.966-.087 3.39-1.116.723-1.748-.992-3.655-2.12-3.554-1.13.103-.846.644-.364.86zm21.318 4.28c-.188-.166 7.677 8.452 18.4 15.57.415.48 1.45 2.967 1.617 3.302-.042.234-.278.005-.278.005-5.415-3.13-12.564-9.34-19.337-16.385 0 0-.65-1.562-.85-2.578.146-.07.306.02.45.085zm-17.865 3.1c-.246.035-.572.403-.976.626-.825.454-1.086.574-3.112-.033-1.1-.33-1.278-.307-1.935.18-.574.425-.893.495-1.533.208-1.15-.516-1.686-.14-2.753.232-1.015.368-1.363-.08-2.278-.288-.12 0-.173 3.69-.052 3.808.04.04.95-.557 1.466-.818.887-.45.76-.38 2.053-.326 1.91.33 3.8.218 5.08-.284 1.59-.45 2.835-.366 3.935.534.668.548 1.554.458 1.036-.548-.178-.348-.582-1.63-.534-2.105.073-.712-.085-1.168-.35-1.183-.016-.002-.032-.003-.047 0zm20.394 2.877c3.62 3.472 8.084 8.77 18.585 14.91.546.958 1.285 2.23 1.753 3.226.043.275-.024.52-.293.425-6.488-4.112-10.096-6.11-19.09-14.975-.56-.9-1.155-2.43-1.618-3.676.098-.35.514 0 .662.09zm-1.527 1.324l4.016 7.54-13.523-.027c3.435-2.048 6.716-4.778 9.507-7.512zm-22.416.172c-2.22.883-2.555 1.066-4.758.53-1.283-.313-.93.43-.274.738 1.662.778 4.068.23 4.96-.387.59-.378.992-1.246.073-.88zm-2.28 2.327c-2.325.03-4.52.842-4.683 1.787-.03.183.16.388.52.17 1.577-.948 5.49-1.258 8.45-.19.478.175.56-.124.064-.533-1.105-.914-2.758-1.257-4.35-1.235zm29.516 3.22c4.377 4.04 8.602 7.757 18.023 13.165.677 1.48 1.658 3.25 1.83 3.403-8.83-4.285-18.45-12.743-18.45-12.743s-1.516-2.697-1.863-3.854c-.03-.388.336-.067.46.03zm3.015 6.294s8.06 6.816 17.25 11.444c.372.357 1.297 2.55 1.6 2.786.304.237-.365.236-1.027-.104-4.81-2.215-15.122-9.304-15.122-9.304-.99-1.62-2.405-3.308-2.7-4.822zM55.563 116.45c.736-1.577 1.488-3.33 1.977-4.763 2.193.023 3.27-.8 4.05-1.79 1.112-.03 1.963-.025 3.478-.07-.05-1.496.02-3.615.02-3.615 1.535-1.58 2.576-3.406.196-6.2 0 0-.096-1.302-.13-3.522-1.098-.175-3.557-.062-3.557-.062-1.988-2.798-5.515-2.093-6.584 0 0 0-1.585.086-2.672.09-.02.592-.21 3.215-.21 3.215s-4.634 3.16.175 6.886l-.065 3.13c.9.07 1.545.01 2.72.236 0 0-1.84 4.27-3.05 6.298-.413.108-.314-.13-.815-1.545-.602-1.67-1.962-3.497-3.116-4.396-1.565-1.207-3.706-1.58-5.2-2.63-1.438-1.01-2.455-2.314-2.912-2.07-.15.506-.314 3.422.227 5.296.764 3.083 5.198 5.048 8.902 6.523.284.184.538.462.54.562.004.51-.488.353-1.704.23-1.836-.182-2.596.32-3.24 1.89-.192.386-.65 1.052-1.02 1.494-.372.44-.76.87-.814 1.06-.055.187-.437 1.138-.814 1.934-.232.49-.62 1.002-.648 1.726-.086 2.21-.12 5.178.213 7.048.245 1.374 1.98 2.164 2.58 2.275.917.172 1.084 1.102.94 1.863-.707 3.756-2.87 6.055-3.562 4.82-.183-.324-.375-1.86-.426-1.84-.033.013-.362 1.305-.236 1.83.135.566.857.982 1.57.725 1.057-.383 1.89-1.43 2.545-3.81.27-.976.523-1.52.98-1.59.835.057 2.138 1.777 2.138 1.777-4.337 3.614-12.687 10.177-12.687 10.177l-.31-118.4 68.725.134c.383 9.386-.756 17.283-4.127 25.646-3.998 9.006-10.197 15.7-14.94 23.99-5.727 10.01-7.56 20.392-5.61 30.835-5.85 7.658-10.78 11.335-15.46 14.893 0 0-3.51-3.688-5.458-5.753 0 0 .822-.067 1.784-.106 4.446-.5 9.258-1.13 11.116-5.757.265-.515.153-.742-.16-.813-3.48.482-6.507-.007-8.48.133-4.83.34-6.868 2.012-6.868 2.012zm.53 3.407s-5.586-2.654-6-2.73c-2.436-.44-8.308-3.5-9.3-5.58-.13-.272-.454-4.067-.558-4.844.035-.248.135-.24.378-.062.627.434 3.06 2.02 3.96 2.456 3.71 1.803 5.145 3.087 6.054 5.8.228.68.466 1.387.6 1.532.298.32.423.294.796.01 1.59-2.058 2.333-3.77 3.07-5.98.095-.245.302-.497.18-.853-.29-.976-1.004-2.238-.274-3.192-2.324.106-4.55-1.592-4.266-3.294.62-3.153 1.957-2.585 4.464-3.044-.29-7.292 6.535-5.52 6.518-.442 7.498.63 3.955 7.564-.4 6.504 1.728 3.94-3.462 5.417-4.19 4.747-.293 1.273-2.27 5.373-2.69 6.592 5.556-3.938 14.494-2.19 15.79-2.442-3.23 6.747-13.782 5.104-14.133 4.822zm100.033-24.853c1.41 1.087 13.373 8.567 15.58 8.736 0 0 1.058 1.187 1.93 2.267.813 1.005 1.113 1.163 1.207 1.366.093.202-.307.192-.374.185-5.382-2.34-10.856-4.8-15.51-8.688-.628-.533-.77-.776-1.078-1.183-.41-.543-1.628-2.48-1.755-2.683zm3.964 6.035c5.47 3.073 10.12 6.055 15.106 7.658.71.266 1.074.284 1.43.534.353.25 1.872 1.19 2.23 1.4 2.275 1.334 2.51 1.27 1.945 1.494-.624.248-4.618-.92-7.993-2.166-5.986-2.214-8.104-3.47-10.27-5.42-.486-.505-2.76-3.224-2.448-3.5zM51.013 118.186c.46-.01 1.2.276 1.968.865.822.63 2.84 1.95 3.675 2.31.427.182.56.228.56.228l5.38 6.107-13.852 11.262s-1.125-1.152-1.482-1.536c-.34-.364-.24-.667.18-1.08.34-.33.365-1.047.31-1.4-.086-.52-.072-1.11.59-1.598.534-.393.617-1.08.592-1.272-.02-.152.29-.655.752-.993.972-.708 1.265-1.57.937-2.586-.138-.426-.212-.537.345-.908.988-.66 1.235-1.283 1.31-2.247.012-.153-.03-.315-.052-.436-.195-1.025.71-.766 1.452.52.404.7.52 1.852.724 3.16.24 1.543.403 1.963.487 1.745.48-1.246-.086-5.922-1.508-6.557-2.08-.928-3.818-2.82-3.297-3.562.18-.257.212-.168 1.48.417.742.343 1.43.62 1.532.624 1.468.048.577-.58.1-.646-.574-.08-2.29-1.124-2.493-1.49-.338-.61-.152-.917.31-.927zm-3.543.803c1.355-.015 1.614.348 1.628 1.514.01.688.265 1.217 1.344 2.587.44.56.733.988.704 1.208-.047.36-.178-.014-1.67-.19-.53-.06-.798-.07-.983.204-.514.762-1.6-.03-2.27-1.154-1.596-2.676-1.033-4.142 1.248-4.168zm25.792 1.614l14.728 18.023-1.66 1.29-14.784-17.78 1.716-1.533zM70.8 121.71l1.577 2.663s-4.563 3.9-5.764 5c-9.695 7.85-31.58 25.674-31.58 25.674l-.296-3.585L70.8 121.71zm-26.583.483c.287.008.616.37 1.083 1.083.404.617 1.27 1.854 2.194 2.706 1.795 1.653 1.968 1.503.51 1.66-.578.062-.767-.007-1.12.875-1.068 1.333-4.225-3.442-3.485-5.27.288-.713.53-1.06.817-1.054zm5.137 2.578c.266-.012.616.09 1.026.337.78.32.833.507.704 1.253-.123.715-.666.9-1.735-.042-.814-.766-.677-1.515.004-1.547zm23.506.442l1.73 2.233-39.276 31.762.01-3.655c.957.123 26.142-21.762 37.536-30.34zm-30.46.362c.105-.02.27.338.706.994.887 1.334 1.7 2.213 2.63 2.913.878.663.976 1.032.373 1.037-.258.002-.61.273-.795.59-.372.64-.404.49-.98.152-.82-.48-1.644-1.206-1.972-2.157-.31-.896-.344-2.26-.09-3.255.044-.173.08-.263.128-.274zm6.202 2.537c1-.034 1.72 1.13 1.06 2.072-.368.358-.7.53-1.434.1-.968-.57-1.143-1.448-.35-1.94.247-.153.492-.224.724-.23zm-6.443 2.52c.21-.01.588.295 1.224.947.488.5 1.336.927 1.675 1.116.76.425.796.572.382.913-.176.146-.755.154-.913.614-.45 1.317-2.358-.213-2.54-2.095-.093-.955-.102-1.48.17-1.494zm4.795.157c1.253.052 1.845 1.514.847 2.232-.544.39-1.915-.3-2.053-1.018-.09-.46.73-1.234 1.205-1.215zm29.287 1.086c.727 0 1.315.59 1.315 1.315s-.59 1.314-1.315 1.314-1.314-.588-1.314-1.314.588-1.315 1.314-1.315zm-3.93.544c.727 0 1.315.59 1.315 1.315s-.59 1.315-1.315 1.315c-.726 0-1.314-.59-1.314-1.315s.588-1.315 1.314-1.315zm-26.34 1.757c.08-.005.164-.004.25 0 1.207.06 1.27 1.207.554 1.826-.43.37-.816.485-1.37.042-.993-.793-.626-1.8.566-1.868zm29.268 1.924c.727 0 1.314.588 1.314 1.314s-.588 1.315-1.314 1.315-1.32-.59-1.32-1.315.594-1.314 1.32-1.314zm115.448.077l.062 3.325-46.44 38.63-1.57-2.052 47.948-39.903zm-118.117.283l-3.432 7.71-1.03-1.987H65.54l.788-2.3-1.513-1.84 7.756-1.582zm73.083 32.068l6.11-4.9c-2.63-13.27 7.87-18.553 17.843-14.697l6.205-5.29c-11.513-9.694-38.586-3.12-30.157 24.886zM62.98 142.583c.727 0 1.315.59 1.315 1.315s-.59 1.314-1.315 1.314-1.314-.588-1.314-1.314.587-1.315 1.314-1.315zm-3.992.322c.727 0 1.273.547 1.273 1.273s-.546 1.36-1.272 1.36-1.314-.592-1.314-1.318.587-1.315 1.314-1.315zm21.248 2.67l-6.06 4.85c1.566 12.71-4.616 19.18-17.906 14.823l-6.43 5.1c17.367 11.944 40.094-3.452 30.396-24.774zM61.59 146.72c.726 0 1.314.59 1.314 1.315s-.59 1.314-1.315 1.314-1.315-.587-1.315-1.313.588-1.315 1.314-1.315zm127.446.334c.727 0 1.32.588 1.32 1.314s-.594 1.315-1.32 1.315-1.314-.59-1.314-1.315.588-1.314 1.314-1.314zm-130.168.313l-3.873 7.662-.965-2.308-2.6.036.84-2.675-1.628-1.374 8.226-1.34zm124.966.806l1.204 2.027 2.543.062-.955 1.93 1.836 1.893-8.284 2.035 3.658-7.947zM49.626 153.74c.727 0 1.32.59 1.32 1.315s-.594 1.314-1.32 1.314-1.314-.59-1.314-1.315.588-1.315 1.314-1.315zm-3.784.147c.727 0 1.32.59 1.32 1.315 0 .727-.594 1.314-1.32 1.314s-1.314-.588-1.314-1.314.587-1.315 1.314-1.315zm131.586.782c.727 0 1.315.587 1.315 1.313s-.59 1.315-1.315 1.315-1.314-.59-1.314-1.315.587-1.314 1.314-1.314zm13.302.202l.058 2.92c-12.116 10.695-37.597 31.337-37.597 31.337l-1.585-2.037s25.923-21.184 39.125-32.22zm-142.253 2.85c.727 0 1.315.588 1.315 1.314s-.59 1.32-1.315 1.32-1.314-.594-1.314-1.32.587-1.315 1.314-1.315zm131.642.315c.726 0 1.314.588 1.314 1.314s-.59 1.32-1.315 1.32-1.315-.593-1.315-1.32.588-1.313 1.314-1.313zm-3.723.237c.727 0 1.315.588 1.315 1.314s-.59 1.32-1.315 1.32-1.32-.594-1.32-1.32.593-1.314 1.32-1.314zm14.7.466l-.11 3.717c-11.742 10.01-35.76 29.894-35.676 29.905l-1.812-2.505s26.325-22.677 37.598-31.117zm-145.033-.547l-3.622 8.172-1.563-2.2-2.288-.155.545-2.21-2.1-1.428 9.027-2.18zm125.606 3.228l2.312-.438-.403 2.367 1.625 1.705-8.52 1.872 4.117-7.638.868 2.13zm12.73 39.814c1.727 2.584 1.617 5.406.895 5.84-.763-.43-1.424-1.175-2.213-1.516-3.97-1.712-7.14-3.117-7.706-5.636-2.162-5.696 7.583-.837 9.024 1.312zm-20.863-15.13l13.354-10.874s2.05 1.056 2.436 1.535c.138.527-.23.688-.775 1.18-.25.32-.405.63-.42 1.32-.015.747.23 1.082-.07 1.41-.503-.025-.905.632-.884 1.164.017.405-.515.854-.826 1.16-.553.544-.715.656-1.07 2.497-.034.184-.02.663-.28.91-.773.07-1.333 1.96-1.686 2.08-.563-.036-1.46-.726-1.678-1.743-.142-.66-.104-1.945.053-2.772.186-.985.27-1.878.207-2.115-.144-.548-.506-.21-.5.56 0 .31-.12 1.25-.317 2.132-.2.885-.74 2.06-.496 2.76.362 1.04 1.695 1.48 2.296 2.03 1.58 1.45 1.926 2.158 2.105 2.48 1.264 2.312 1.268 2.705.95 4.444-.18 1-1.157.83-1.744.424 0 0-3.754-2.732-5.39-4.09-2.474-2.058-4.212-4.158-5.263-6.495zm5.068 7.47c1.433.58 5.162 3.285 5.162 3.285l-3.396 7.065c.62 1.106.868 3.854.868 3.854 4.296-.33 6.623 6.91-.067 6.242.765 4.476-6.446 7.983-6.25-.037-7.51.583-4.987-7.925-.36-6.328-.138-3.605 2.266-4.072 3.96-4.958 1.392-1.573 2.244-5.133 2.244-5.133l-.34-1.086c-1.424 2.49-7.487 3.203-14.15 1.884 1.802-4.273 7.275-4.152 12.33-4.79zm-13.25 5.38c-.228.85-.233.84.794.736.52-.053 2.607-.048 4.065.01 2.68.21 6.9.228 9.018-1.386.41-.39.636-.364.712-.15.18 1.042-1.875 4.47-1.875 4.47l-3.393 1.875s-1.39.063-3.11.022l-.03 3.052c-1.348.798-3.66 4.214.057 6.832l-.122 3.324 3.277.06c2.175 2.083 3.945 2.073 5.942.112l3.78.003-.017-3.59c1.863-1.498 2.128-4.04.224-6.07l-.048-3.643-2.907.02s-.602-.467-.62-.837c0-.24 2.124-4.334 2.53-4.92.53-.76.386-.324 1.23 1.43 1.21 2.512 2.408 3.536 5.475 5.02 2.737 1.322 3.715 1.94 4.51 2.697.63.604 1.004.413 1.248-.487.527-2.002.365-4.007-.737-5.84-2.327-3.868-6.382-4.047-7.026-4.94-.085-.215.74-.462 1.628-.858 1.535-.933 3.78-3.753 4.07-4.885-.053-.546.308-2.265.573-2.645.306-.676.34-.99.326-2.805-.273-1.035-.023-2.384.105-2.848.14-.94-.36-2.05-1.07-3.412-.268-1.265-.206-.936.612-3.784.133-.46 1.053-4.428-.124-4.7.015.035.123.157.156.223.197.398.306 2.112.127 2.598-.07.192-.205.69-.298 1.106-.715 3.188-1.136 3.988-1.78 3.29-.154-.165-.743-.4-1.196-.702-.856-.568-.783-.847-.572-1.91.052-.162.39-1.625.354-1.58-.186.502-.31 1.8-.894 2.104-.313.072-.746-.206-1.562-.908-.31-.27-.978-.736-.978-.736s9.65-8.123 13.24-10.816l-.033 120.31-68.22.03c-.853-7.453 1.388-17.313 5.1-27.188 2.293-6.104 5.587-10.63 9.302-16.095 7.122-10.418 12.51-20.995 10.433-34.405-.27-1.99-.545-2.943-.45-3.48.864-1.623 4.298-6.548 6.808-8.598 3.684-3.01 8.81-7.504 9.22-7.237 1.223 2.36 2.672 4.27 4.59 5.71.336.366.345.688-.434.852-5.085-.047-10.32 1.07-12.016 5.568zm-118.462-34.18c.727 0 1.315.588 1.315 1.314s-.59 1.314-1.315 1.314-1.314-.588-1.314-1.314.586-1.315 1.313-1.315zm127.53.297c.728 0 1.315.59 1.315 1.316s-.588 1.314-1.314 1.314-1.315-.588-1.315-1.314.588-1.315 1.314-1.315zm2.865 3.608c.728 0 1.315.59 1.315 1.315s-.588 1.314-1.315 1.314-1.314-.588-1.314-1.314.588-1.315 1.314-1.315zm-4.255.56c.727 0 1.314.59 1.314 1.315s-.588 1.314-1.314 1.314-1.315-.588-1.315-1.314.59-1.315 1.315-1.315zm-4.7 2.997l2.38-.117c-.3.854-.46 1.736-.628 2.62l1.937 1.423-8.38 1.427 3.61-7.425 1.082 2.073zm-5.715 21.652l-14.11-18.22 1.703-1.375 14.224 18.02-1.816 1.575zm-1.723-17.7c.727 0 1.315.588 1.315 1.314s-.59 1.316-1.315 1.316-1.314-.59-1.314-1.315.588-1.313 1.315-1.313zm29.636 2.04c1.145.89 0 2.137-1.093 1.645-.948-.4-.877-1.362-.13-1.747.467-.222.822-.168 1.224.102zm1.523.848c1.173.02 2.47 2.8 2.23 3.617-.35.95-.67.985-2.325-.415-1.636-1.384-1.66-1.44-.998-2.19.367-.425.543-.985 1.093-1.012zm-27.908.507c.727 0 1.314.59 1.314 1.315s-.59 1.32-1.315 1.32-1.315-.594-1.315-1.32.588-1.315 1.315-1.315zm-4.077.507c.726 0 1.314.587 1.314 1.313s-.588 1.315-1.314 1.315c-.728 0-1.315-.59-1.315-1.315s.587-1.314 1.315-1.314zm28.882.937c1.298.192 1.638 1.173 1.04 1.9-.81.987-2.63.092-2.198-1.082.196-.533.67-.81 1.158-.818zm2.33 1.48c.508-.043 1.272.66 2.11 1.824.94 1.31 1.018 1.732.75 2.53-.388 1.165-.63 1.38-1.476.244-.32-.428-1.06-1.43-1.587-1.983-1.127-1.18-1.303-.88-.63-1.78.31-.42.527-.807.832-.833zm-3.052 1.376c1.166.603 1.278 1.386.59 1.94-.812.443-2.242-.083-2.52-.886-.406-1.173.84-1.768 1.93-1.054zm1.975 1.733c.66-.04 1.203.64 2.01 1.94 1.373 2.22 1.448 2.965.277 4.427-.843 1.052-.928 1.108-1.752-.567-.674-1.37-1.955-2.974-3.14-3.936-.497-.402-.67-.965-.313-1.003.104-.01.543-.03.975-.048.634-.023.863-.11 1.21-.45.23-.224.476-.347.733-.364zm-4.733 1.73c.613-.028 1.406.304 1.996.99.67.702.59 1.346-.724 1.476-.592.23-2.2-.824-2.21-1.533-.005-.595.397-.907.938-.933zm3.095 2.572h.095c.552.026.836.56 1.456 1.803.95 1.91.677 2.95-.968 3.795-1.116.572-1.967.744-2.11.09-.042-.19-.043-.74-.135-1.275-.123-.712-.286-1.453-.916-2.402-1.005-1.515-1.183-2.053-.08-1.606.584.236 1.22.21 1.887-.142.294-.156.544-.25.77-.262zm-5.577 3.07c-.383-.007-.628.228-.525.853.348.172.896.013 1.31.162.56.2.904 1.108 1.5.96.062-.765-1.444-1.955-2.285-1.973zM59.143 206.3c-3.074-1.465-10.69-4.854-14.357-4.902-6.803-1.91-7.26-1.042-9.646-1.653 12.627-3.274 21.317 3.02 24.5 6.08 1.444 1.44.657 1.026-.497.475zm8.04 29.766c7.225 12.532 13.96 26.67 25.257 47.602l-1.086.34-43.083.076c2.134-23.125-10.362-45.158-11.208-44.294 9.76.18 17.86-1.703 19.572-5.3l-1.392-.397c-5.68 4.9-13.907 5.127-19.584 3.61.13-12.048-.55-24.774-.174-36.82 6.71-.5 11.956 1.96 15.675 6.864 6.252 8.243 10.493 18.724 16.023 28.32zm-19.76-33.387c1.73-.133 11.16 3.747 15.378 6.645 1.173 1.212 2.885 3.317 2.887 3.523.007.56-.825-.13-4.9-2.455-3.084-1.734-6.283-3.118-9.397-4.447l-.428-.184s-.23-.266-.627-.57c-1.11-.86-3.265-2.38-2.91-2.513zm4.585 4.393c-.093-.018 9.354 3.404 16.87 9.39 1 .796 2.227 3.765 2.227 3.765-.67-1.262-12.543-8.365-16.71-9.992-.007-.005-2.387-3.163-2.387-3.163zm3.33 4.543c.516-.31 14.33 7.845 16.355 9.95.918.702 3.067 4.11 3.075 4.796.007.61-.665.084-1.9-1.06-6.363-5.94-15.555-10.418-15.63-10.32l-1.9-3.366zm2.565 4.738C64.39 219.1 72.54 225.7 76.65 229.626c1.03 1.02 1.764 2.493 1.903 3.18.086.425-.13.396-.213.624-5.33-6.118-17.044-13.1-18.598-13.646.012.386-1.288-2.373-1.84-3.43zm21.54 19.062c.746.76 1.93 3.43 1.664 3.756-.13.16-.117.075-.43-.143-1.706-1.697-10.467-9.47-17.775-13.83-.688-.343-2.988-3.973-2.5-4.042 3.82 1.247 14.75 9.972 19.04 14.258zm-15.81-8.675c.127.01.356.172.748.39 6.724 3.707 16.467 13.043 18.314 15.288.42.69 1.08 1.96 1.033 2.737-.084.61-.33.092-3.047-2.583-4.367-4.276-9.39-8.415-14.715-11.892-1.023-.703-.828-.793-1.57-2.086-.744-1.296-1.04-1.873-.76-1.853zm42.992.143c4.8.137 6.677 3.77 9.633 10.468 2.42 6.6 3.422 12.647 3.533 17.46.008.322-.58.048-.846-.024-1.285-.345-2.886-.667-4.74-.198-1.36.344-2.656.306-1.258-.61.45-.295 1.673-1.426 2.322-1.83 1.316-.82.516-.81-.79-.166-.988.487-1.65 1.104-2.058 1.2-.25.062-.095-.767.147-1.36 1.396-3.434 1.818-5.466-.26-6.103-.563-.173-1.322-.693-1.68-1.04-.286-.28-.53-1.39-.62-1.435-.096-.048-.162 1.012-.16 1.173.006.552.714 1.67 1.565 2.28 1.445 1.037 1.73 1.323.945 3.78-1.1 3.438-1.335 4.28-1.537 5.08-.116.458-.34 1.238-.454 1.744-.436 1.95-.383 3.653-.303 5.274.476 3.62 4.38 5.406 9.617 3.396.496-.192.702-.02.702-.02-4.173 4.245-8.856 6.957-11.586 15.532-3.51-7.074-8.483-12.617-16.75-14.84l-.12-1.477c2.882 1.383 8.472 3.264 12.02 1.15 1.9-1.298 1.32-2.135-.984-1.24-2.745 1.065-7.703.94-10.18-.454-.503-.284-1.017-.04-1.162.01-.13-.832-1.32-3.966-1.146-5.144-.102-.166.754-.174.92.046.684.914 4.16 3.637 7.774 3.424 1.797-.105 3.274-.65 4.835-2.298.13-.116.766-.2.852-.296.14-.156.04-.39.033-.474-.038-.125-.272-.47-.426-.855-.2-.34-.242-.69-.208-.963.004-.227.154-.346.27-.504.136-.303.1-.688.023-.894-.32-.217-.28-.62-.11-.81.49-.552-4.207-4.84-5.126-4.83-.33.005-.136.617.54 1.065 2.387 1.587 4.127 3.656 3.73 3.927-.303.21-1.372-.248-2.46-.505-2.185-.512-4.807-.838-7.65 1.215-1.065.874-3.88 1.005-3.88 1.005-.034-1.532-6.51-18.643-6.522-17.9 2.355-2.745 9.758-9.248 17.176-12.05 2.286-.748 4.737-1.13 6.38-.91zm-28.12 3.83l13.463.208c-3.385 1.704-9.536 7.816-9.536 7.816-1.76-3.54-2.297-5.306-3.928-8.023zm-11.64 1.776c1.004.004 11.69 8.713 13.21 10.77.185.247 1.267 1.39 2.41 2.535 2.763 2.77 3.902 4.372 3.915 5.515.006.54-.487.188-1.225-.624-5.536-6.15-9.138-9.49-15.98-14.204-.775-.416-3.187-3.625-2.37-3.983.013-.007.024-.01.04-.01zm36.556 1.602c-.3-.01-.25.278-.087.544 1.696 1.5 6.174 1.433 7.718.222 1.4-1.1-.436-.52-1.007-.274-1.338.574-2.772.51-4.636.015-1.085-.29-1.685-.498-1.986-.508zm4.13 2.44c-1.565.015-3.202.484-2.838 1.06.133.21.562.604 1.585.047 1.478-.73 4.513.227 4.603.25.31.082-1.01-.87-1.452-1.064-.49-.215-1.186-.3-1.898-.294zm-37.73 1.627c5.744 3.513 12.74 10.544 16.94 15.565.698.865 1.203 1.93 1.21 2.555.01.9-.183.402-3.997-3.463-2.99-3.06-7.506-7.226-10.496-9.47-1.796-1.308-2.115-1.478-2.96-3.03-.794-1.457-1.08-2.18-.696-2.158zm35.782 1.172c-1.08.514-2.513.404-3.907-.075-1.263-.435-.967-.062-.487 1.314.22.628.354 1.517.354 1.647.004.307.004.328.895-.17.776-.435.94-.584 2.597-.2 1.684.393 1.71.248 2.502-.164.69-.36.833-.575 1.304-.386.924.372 1.968.53 3.15-.092.908-.478 1.204-.155 1.624.057.57.286.79.104.567-.464-.088-.227-.254-1.197-.26-1.504-.008-.583-.15-1.107-.396-.984-.905.455-1.64.94-2.504.924-1.584-.03-2.972-.98-5.438.098zm-69.988 1.2c14.314 17.832 11.785 43.54 11.31 43.332l-11.22.05-.09-43.383zm37.245 3.603c5.717 4.01 12.52 10.998 16.293 15.83.642.835.12 1.098.44 2.104.117.373-.516-.178-2.332-2.13-2.263-2.43-5.983-6.084-8.433-8.206-2.685-2.323-3.46-2.908-4.03-3.693-.45-.656-2.29-3.813-1.938-3.905zm32.178 1.64c-.062 0-.12.002-.18.005-2.035.096-3.068 2.376-1.325 3.987.656.606 1.697.965 1.693.64 0-.078-.328-.406-.558-.583-1.453-1.116-1.304-2.857.35-2.875.573-.008.61.196 1.935 1.147 1.56 1.12 3.4 1.12 3.378-.004-.016-.827-.324-1.674-1.717-1.537-.365.035-.854.074-1.28-.033-.41-.104-.762-.354-.924-.426-.486-.216-.95-.316-1.372-.322zm-28.463 5.25c4.374 2.938 10.386 9.578 13.46 13.495.703.918.75 1.933.465 2.48-.067.107-.605-.228-.605-.228-3.553-4.184-7.58-7.987-11.536-11.85 0 0-2.35-3.778-1.785-3.896zm42.407 6.353l-.945.47c-1.432-2.147-2.742-2.177-3.84.33l-.702-.176c-.525-.578 1.885-6.03 5.487-.624zm-.213-1.83c.394.013 1.083.227 1.243.628.18.37-.02.79-.562.77-.08-.002-.604-.644-.864-1.036-.193-.24-.11-.37.183-.363zm-16.066 2.625l-1.058.05c-2.015-2.647-3.52-.87-4.424.233l-1.132-.154c.182-2.906 5.32-3.92 6.614-.13zm10.29-2.26c.16.003.315.032.463.09-.416.632-.487 1.16-.58 1.73-.413.17-1 .525-1.435.07-.81-.734.437-1.91 1.552-1.89zm-16.52.296c.498 0 .35-.03.132.247-.22.283-.52.785-.68 1.235-.066.312-.118.426-.41.436-.56.018-1.692-.182-1.686-.174-.43-.406 1.35-1.7 2.643-1.745zm6.396.37c.334-.04.256.436.148.622-.21.25-.295.33-.412.02-.058-.148-.144-.267-.216-.355-.165-.212-.146-.223.058-.26.092-.015.305-.026.422-.028zm17.286 2.113c1.23-.032.408 2.058-1.306 2.563-1.893.96-4.063.73-6.272-.53-1.26-.718-1.642-1.475-.544-1.172 4.136 1.14 5.142.928 7.637-.687.15-.126.307-.157.486-.174zm-39.796-.453c4.118 3.488 7.218 7.44 10.51 11.08.656.813.964 1.595.838 2.124-.158.66-1.51-.912-1.51-.912.034.015-8.037-8.602-8.037-8.602s-2.048-3.67-1.8-3.69zm12.305 1.205c.285.01.853.143 1.77.38 3.96 1.2 5.16 1.155 7.436.11 1.45-.667 2.05-.57 1.43.43-1.143 1.845-5.18 2.05-8.208 1.02-.802-.272-1.507-.75-2.28-1.33-.415-.43-.515-.622-.147-.61zm18.267 1.22c.237-.015.68.258 1.217.563 3.317 1.882 5.767 1.536 7.81.274.37-.337.57-.176.62.15.175 1.147.227 1.97-.298 2.522-.304.32-.822.466-1.604.73-3.212 1.08-7.123.308-7.87-2.103-.243-1.237-.398-2.1.124-2.134zm-26.33 5.17c.012-.002.024-.002.038 0 .232.035.77.503 1.613 1.462 4.416 5.01 6.86 7.888 6.414 9.337-.04 0-.07.312-.256.15-2.428-2.097-4.41-4.39-5.888-6.787-1.617-2.627-2.283-4.13-1.92-4.162zm35.605 3.525c-3.727 2.85-8.248 9.633-8.653 12.974-.078.64-.01 1.117-.246 1.35-.188.183-.608.2-1.173.09-.346-.064-.263-.103-.345-.493-.32-1.528 1.145-5.377 4.176-9.913 1.59-2.38 5.204-5.594 6.214-5.615.674.276.02 1.64.027 1.608zm-27.596-1.547c.264-.008.67.13 1.24.373 3.346 1.436 4.594 1.957 6.76 3.723 4.034 3.29 8.52 11.103 7.203 11.834-.578.32-.988.118-1.224-.607-.044-.132-.467-1.227-.973-2.155-2.704-4.97-6.223-8.39-11.182-10.808-1.83-.894-2.018-.795-2.156-1.543-.106-.56-.008-.808.33-.817zm27.544 2.87c.335-.027.415.584.302 1.815-.093 1.003-.152.982-1.27 2.158-1.79 1.448-3.903 4.848-4.883 8.31.002.122-.09.386-.26.53-.46.396-1.04.203-1.438.194-.285-.15-.207-.778-.155-1.13.817-3.144 2.83-7.005 5.988-10.396.886-.954 1.42-1.456 1.716-1.48zm-26.848.09c1.77-.04 8.066 4.663 10.614 8.78 1.665 2.69 2.114 3.794 1.73 4.186-.202.206-1.098.24-1.565.056-.426-.167-.59-.815-1.386-2.313-2.08-3.907-5.077-6.74-8.32-8.234-.605-.28-.928-.456-1.122-.672-.218-.45-.496-1.71.048-1.804zm.955 3.496c.55.103 2.073 1.09 3.345 2.023 2.25 1.65 5.675 6.698 4.967 7.422-.227.23-1.013.24-1.417.082-2.41-4.288-5.536-6.33-6.806-7.52-.387-.648-1.286-2.174-.09-2.008zm-5.003.756c.104-.026.525.39 1.29 1.192 2.262 2.373 3.695 5.004 3.364 6.333-.28 1.125-.61.51-3.197-4.426-1.088-2.078-1.608-3.06-1.456-3.098zm30.93.066c.052 1.365-.06 1.702-.204 2.427-.098.492-.424.722-.732 1.105-.768.957-1.642 2.613-2.08 3.95-.37 1.078-.196 1.337-1.523 1.19-.62-.08-.47-.247-.228-.96.834-2.337 2.84-6.127 4.767-7.713zm-25.696 2.573c.028-.7 6.066 5.376 5.237 6.06-.786.14-1.254.167-1.582-.113-.646-1.445-3.52-4.187-3.52-4.187l-.134-1.76zm25.36 1.915c.015-.003.026-.002.04 0 .27.056.12 3.793-.105 4.102-.43.217-1.244.236-1.68 0-.266-.145-.346-.41-.245-.7.25-.724 1.558-3.312 1.99-3.402zm-22.787 4.11c-.19.298-1.365.35-1.81.016-.14-.107-.28-1.96-.114-2.297.45-.295 2.072 1.88 1.923 2.28z"/><path d="M140.01 29.78l.758.992-4.423.023c.724.61 17.11 33.586 38.062 71.684 3.47 6.686 10.085 9.096 17.767 9.39l-20.35-32.772c2.168-1.18 6.47-4.34 9.074-3.754.16.8.934.48.944-.23l.94.02.332.516h3.955l.322-.466 3.408.49c-9.11-11.23-13.915-28.532-12.354-45.423l-30.21.067-.403-.53-7.822-.008zm-3.665 1.015c-.017-.015-.028-.02-.028 0h.028zm-34.732 21.98c-3.435 11.093-11.93 20.22-16.972 29.407-5.406 10.026-6.677 18.753-5.155 28.296l.99.085c11.524-15.723 20.45-34.507 25.446-52.98.11-.4-.077-1.112.016-1.52-.214-.488-.027-1.017.108-1.158.29-.306.183-1.505-.033-3.486-.543-5.888-.436-10.508.056-15.844.38-4.097.357-4.74.357-4.74l-1.973-.03c.365 6.972-.557 15.563-2.837 21.97zM149.06 31.28l3.24.066c.5 9.908 8.847 11.197 10.137 11.053-2.13 6.7 1.396 14.054 9.89 15.098-1.947 6.212 1.502 14.4 8.297 14.178l.72.454c-.44.895-.533 2.734-.507 2.763-1.512.11-2.33.33-3.312.524-8.783-13.242-28.465-44.136-28.465-44.136zm28.815 0c-.982 11.068 1.238 26.27 6.438 35.253 0 0-.166.604-.274.768-.496.746-.74.1-1.042-.502-1.107-2.045-3.198-2.363-4.115-1.225-2.023 2.76.17 3.847 1.874 5.403-6.96-.425-9.28-8.084-7.67-11.873-.037.723.35 1.813.86 2.587 1.956 2.967 4.812.464 3.993-1.883-.338-.97-1.586-2.59-1.586-2.59s1.694-.25 2.387-.67c.648-.4 1.057-1.11.89-2.085-.133-.78-.167-1.123-.586-1.826-.514-.642-1.433-1.085-2.17-1.035-1.437.095-1.61 1.083-2.55 1.76-.235-1.78-1.375-3.135-3.237-2.798-1.416.256-2.437 1.762-1.568 3.647.437.962 1.053 1.254 1.673 2.09-10-1.12-8.91-12.994-7.804-12.782 0 0 .3-.056.21.398-.57 2.905 3.04 4.642 4.622 2.53 1.008-1.713-1.158-4.416-1.158-4.416s1.442-.31 2.098-.688c2.61-1.506-.17-5.832-2.602-4.77-.853.388-1.07 1.178-1.9 1.6-.557-.62-.59-1.296-1.59-1.853-2.742-1.527-4.457 2.084-2.938 3.674.622.644 1.72 1.23 1.506 1.31-8.502-1.074-8.42-9.972-8.225-9.91l24.462-.116zm-73.077.074h1.17c-.346 5.278-1.096 12.242-.604 17.39.572 4.916.598 5.613.245 6.102-.483.542-.23.797-.133 1.24.127.807.14.815.023 1.275-1.03 4.126-2.348 8.403-4.02 12.728-5.472 15.085-14.397 31.532-21.397 40.158-.005-.03-.32.027-.324-.004-1.917-12.036 2.177-22.068 4.313-26.186 4.332-8.35 11.137-15.475 15.178-24.22 3.44-7.442 5.976-16.387 5.548-28.484zm43.07-.05l28.512 44.34-5.203 2.55-29.18-46.73 5.87-.16zm16.71 8.66c.738 0 1.334.6 1.334 1.338s-.596 1.34-1.334 1.34-1.338-.602-1.338-1.34.6-1.338 1.338-1.338zm9.456 14.786c.747 0 1.353.605 1.353 1.353s-.605 1.354-1.353 1.354-1.354-.605-1.354-1.353.607-1.352 1.354-1.352zm-67.937 2.64c.487 1.933-9.05 30.933-22.6 49.386l5.916.123.183.653c8.29 12.24 3.105 23.066-3.588 28.096l2.317 3.09-2.086 1.687-2.087-2.482c-16.964 12.726-50.067 40.892-50.067 40.892l.185 4.518 2.583-2.034C53.645 197.57 89.25 196.68 98.59 163.13l2.502.056c-5.648 24.592-28.63 34.218-45.977 30.14l-4.062 5.837 1.088.582c-.2-.312-.384-.42-.09-.705l3.453-4.44c25.952 3.322 41.62-11.365 46.705-31.262l3.31.057c-2.84 16.713-10.674 31.428-21.847 42.944-8.062-.034-22.24-.22-22.24-.22 5.163 5.003 15.022 20.268 15.416 21.815 0 0 10.142.323 21.02.058 3.988-1.795 9.324-2.515 11.816-1.26 4.38 2.208 8.494 10.397 10.345 23.533.477 3.385.908 4.818 1.04 5.5.024.124.32.213.364.19.168-.09-.265.598-.282 1.106-.02.51-.002 1.275.24 1.542.308.338.27.56.228.705-.027.094-.62.643-.62.643-.088 7.652-.045 14.6-.463 24.014l1.504.01c-.01-15.146 4.56-29.162 11.604-38.81 4.282-6.332 8.813-13.156 11.32-19.653 2.82-7.314 3.208-15 1.697-21.484l-1.03.057c-6.195-4.246-8.72-13.31-1.09-19.786l-2.7-3.513c-7.62 5.892-9.37 16.76-1.476 25.755l-3.088-.01c-7.703-9.613-5.996-20.652 2.904-28.53l-1.99-2.53 2.164-1.91 1.953 2.14 49.69-41.52-.034-4.543-3.81 3.087c-22.29-20.607-55.345-6.146-60.19 18.675l-3.03.032c6.353-26.71 29.76-34.26 46.692-30.708l4.18-6.32c-3.075-.864-6.073-2.905-8.902-5.315-1.192-1.016-1.946-1.638-2.812-2.654-8.02-8.475-13.464-20.244-13.72-20.264l-21.806-.054c-3.2 1.582-8.678 3.38-11.685.953-6.455-5.212-8.62-15.728-9.51-22.495-.268-2.106-.496-5.77-.694-6.986-.123-.226-.36-.24-.576-.2zm77.312 11.697c.728 0 1.318.595 1.318 1.324s-.59 1.318-1.32 1.318-1.32-.59-1.32-1.32.592-1.323 1.32-1.323zm2.837 1.556c1.075 1.394 2.03 2.83 2.563 4.348-.5-.016-.972.14-1.53-.295-.13-1.533-.76-2.453-1.554-3.475l.52-.577zm-3.987 1.955c.44.216.79 1.88.482 2.166-.53.114-.893.076-1.072-.11-.266-.44.238-1.97.59-2.055zM95.534 87.06l20.244.022c3.522 2.7 6.965 2.343 11.963.18h22.51l1.273 2.31H94.437c.317-.86 1.097-2.513 1.097-2.513zm-1.67 3.608h58.26l1.473 2.37H92.422l1.443-2.37zm5.625 3.444h6.536l-2.422 4.11H96.86l2.63-4.11zm14.51 0h6.24l-2.778 4.105h-6.182l2.72-4.105zm20.18 0l-2.627 4.105h-6.343l2.725-4.067 6.244-.038zm7.822 0h6.248l-2.336 4.105h-6.47L142 94.112zm-83.93.638c-4.05-.047-3.3 5.326-2.917 5.158-2.544-.582-4.423.626-4.736 2.793-.25 1.72 1.43 4.172 4.37 3.83-.392.45.007 3.05.398 3.286 0 0 .05.377-1.5 3.612-1.842 3.84-2.218 4.022-3.053 1.5-.896-2.714-2.284-4.088-5.897-5.842-.963-.468-2.325-1.282-3.027-1.812-1.612-1.216-1.632-1.196-1.556 1.272.1 3.205 1.07 4.61 4.494 6.503 1.675.926 4.882 2.233 5.463 2.228.41-.005 1.91.668 4.135 1.854.435.232 1.922 1.05 3.827 1.235 2.02.143 6.574-.335 9.214-1.86 1.48-.854 2.053-1.62 3.146-3.807 0 0-3.74.193-5.45-.256-3.55-.208-5.314-.002-8.007 1.396-2.252 1.17-2.38 1.38-1.438-.553.43-.888.83-1.932 1.192-2.97.392-1.035.495-1.12 1.48-1.222 2.16-.22 3.39-1.466 3.59-3.628.053-.58-.033-1.19-.033-1.19 1.47.217 4.48-.513 4.386-3.56-.084-2.737-2.037-3.367-4.44-3.556.308-1.4-.717-4.377-3.64-4.41zm.05.85c3.55.024 3.467 3.283 1.92 5.132l-1.888-1.554-1.523 1.405c-1.656-1.058-1.65-5.005 1.492-4.983zm97.124.04l1.745 2.577h-3.603l1.86-2.578zm-66.272 3.703h6.684l-2.683 3.77h-6.32s1.415-2.407 2.32-3.77zm21.067 0l-2.525 3.916h-5.84l2.34-3.837 6.026-.08zm7.83 0h6.04l-2.39 4.177h-5.97l2.32-4.177zm14.213 0h6.116l-2.49 4.177h-6.03l2.403-4.177zm13.855 0h6.3l-2.6 4.177h-6.075l2.375-4.177zm-87.73.775l3.005 3.027-2.928 2.933-3.02-2.885 2.944-3.075zm7.616 2.95c-.53 3.517-3.92 3.325-4.883 1.605l1.382-1.575-1.693-1.662c1.643-2.637 5.597-1.025 5.194 1.632zm-10.084-1.684l-1.623 1.83 1.78 1.712c-1.146 1.595-5.56 1.47-4.674-2.37.56-2.438 3.042-2.885 4.517-1.172zm102.95-.447l1.86 2.555-3.487.028 1.627-2.583zm-72.493 3.136l74.74.24 2 2.446c-26.095.448-51.647-.42-78.306-.44l1.567-2.247zm-26.277 1.59c2.962 1.815.774 5.644-2.404 4.992-2.37-1.04-2.854-3.497-.723-4.924l1.67 1.378 1.457-1.446zm25.63 1.465l-2.04.01-1.986 2.322c7.51 7.91 7.233 14.773.236 20.756l2.814 3.15c7.85-6.714 9.59-17.264.975-26.238zm7.714.303c4.21 6.578 7.85 19.037-4.692 30.45l-1.514-1.837c10.92-10.665 8.354-19.634 3.462-28.53l2.744-.082zm1.168.162l16.972.066c-3.633 13.846-6.183 22-6.565 43.658l-4.906.028c.534-.5-2.54-13.078-6.125-17.44 7.517-12.766 3.466-19.967.622-26.312zm-53.383.02c.292-.003.893.377 2.07 1.083 1.057.633 2.43 1.435 3.05 1.783 2.332 1.307 3.49 2.54 4.154 4.422.496 1.41.187 1.438-1.24.11-1.06-.99-2.19-1.84-5.018-3.775-.996-.683-1.31-.57-.733.26.417.6 1.312 1.278 3.127 2.384 1.315.8 3.127 2.407 2.984 2.644-.13.215-.354.196-.988-.08-.293-.13-1.24-.517-2.1-.866-3.697-1.5-5.275-3.342-5.497-6.404-.078-1.068-.143-1.56.19-1.563zm77.448.065s.512.675.577.956c.143.607-.454 1.165-2.332 2-.645.287-1.18.442-1.163.82.086.882 1.777 2.23 1.57 3.433-.39.92-2.738 1.824-3.325 2.91.004.745 1.527 1.888 1.31 2.903-.118.302-.61.61-1.338 1.243-1.49 1.293-1.583 1.49-1.036 2.497 1.27 2.338 1.318 2.166-.415 3.826-1.747 1.674-1.715 1.653-.88 3.108.9 1.567.857 1.497-.35 2.502-1.185.984-1.137 1.185-.502 2.407.613 1.183.754 1.2-.28 2.114-1.205 1.07-1.432 1.182-.58 2.526.88 1.39.944 1.332-.048 2.47-.94 1.076-1.05 1.126-.54 1.858.64.92.762 1.164.09 2.177-.724 1.093-.72 1.016-.056 2.033.56.858.462 1.812.462 1.812l-2.1-.005s-.016-1.207-.26-1.65c-.596-1.077-.58-1.41.127-2.365.726-.98.604-1.064-.07-2.044-.686-.99-.587-.98.302-2.11.814-1.034.855-1.522.393-2.113-1.1-1.4-1.096-1.992.01-2.92.843-.705.92-1.02.193-2.23-.713-1.186-.802-1.294.506-2.475 1.337-1.207 1.322-1.182.426-2.55-.87-1.326-.823-1.415.572-2.71 1.412-1.31 1.43-1.313.506-2.966-.865-1.547-.872-1.52.818-3.027 1.684-1.403 2.257-1.58.577-3.595-.936-1.597-.27-1.754 1.268-2.55 2.697-1.646 1.47-1.544.337-3.987-.946-1.638-.405-1.65 1.244-2.47.41-.176.864-.378 1.33-.638 1.104-.615.506-1.178.506-1.178l2.152-.013zm3.525.038l8.103.104c-9.392 11.99-13.91 27.33-15.534 43.51l-3.06-.047c-.193-12.636 3.783-28.423 10.49-43.568zm41.604.28c4.634 3.9 8.068 6.135 10.51 7.016 0 0-3.267 5.424-3.518 5.226-18.8-3.62-41.152 7.34-46.21 30.968l-2.96.02c1.094-9.272 3.533-17.017 8.026-25.094 4.458-7.843 8.565-12.427 14.76-18.203l19.39.07zm-32.34-.2l3.993.07s.75.9 1.088 1.227c1.724 1.954 1.872 1.564-1.925 3.708-2.397 1.354-3.46 1.982-3.6 2.55-.107.57 1.047 1.705 1.183 2.47 0 .085-3.26 2.268-3.85 2.577-.823.398-.865.742-.048 2.16.938 1.633.863 1.576-1.164 2.99-1.977 1.38-2.365 1.243-1.522 2.616 1.17 1.906.62 2.336-2.134 3.82-.695.377-.713.753-.227 2.055.676 1.808.85 1.627-.57 2.605-1.68 1.157-1.977 1.188-1.605 1.897 1.08 2.06 1.51 2.56.065 3.23-1.102.513-1.124.803-.516 2.16.612 1.367.77 1.313-.316 2.083-1.008.713-1.6.555-.62 1.722.776.923.707 1.65.076 2.218-.544.23-.797 1.264-.64 1.287l-1.4.037c-1.095-1.478.198-2.324.394-2.47.18-.34-.04-.58-.482-1.38-.608-1.103-.587-1.233.29-1.878.884-.652.91-.483.32-1.922-.687-1.673-.654-1.863.426-2.64 1.063-.763 1.077-.933.354-2.397-.762-1.545-.762-1.546 1.126-2.8 1.328-.882 1.347-.83.644-2.464-.486-1.13-.143-1.52 1.665-2.758 1.033-.707 1.11-.847.625-1.688-1.34-2.32-1.325-2.392.984-3.888 1.888-1.225 1.872-1.33 1.144-2.96-.79-1.77-.86-1.632 1.73-3.185 2.134-1.278 2.25-1.204 1.372-2.743-1.092-1.915-1.022-1.602 3.245-4.04 1.54-1.054 2.927-.688 1.397-2.483-.672-.857-1.5-1.785-1.5-1.785zm-75.358 3.15c.295-.01.525.354.51 1.027-.052.95-.5 1.89-.932 2.834-.902 1.92-1.8 3.343-2.274 3.35-1.116.012-1.086-.238.396-3.137.677-1.324 1.376-2.835 1.485-3.128.24-.634.553-.937.814-.946zm13.717 4.352c.02 4.07-12.74 6.12-13.404 4.065 2.225-1.74 8.803-.97 10.195-2.526-1.68-.097-3.956.18-5.516.208-1.944.034-5.087.866-5.12 1.21-.202-1.07 3.34-3.08 6.148-3.207 2.625-.114 5.476.196 7.697.25zm1.093 6.21s-24.883 20.59-37.183 30.553l.075 4.44 39.363-32.226-2.255-2.766zm-.082 1.018l1.59 1.93-36.95 30.107-.134-3.155 35.494-28.882zm116.798 10.564l-1.328 1.417c-36.09-26.854-69.325 13.92-51 43.085-.165.376-1.44 1.308-1.44 1.308-20.424-33.86 18.658-73.482 53.768-45.81zm-19.86-5.883c2.05.017 5.82 1.423 7.412 3.34 1.854 2.232 1.315 3.227-1.04 1.12-2.532-1.84-4.623-2.266-1.106-.094.775.48 1.473 1.415 1.508 1.52.13.372-.52-.02-3.467-1.094-1.752-.64-3.973-2.367-4.55-3.544-.433-.88.17-1.257 1.243-1.25zm-7.596.062c.64-.006 1.208.044 1.612.16 2.582.74 3.395 1.13 4.356 1.878.658.512.447.88-.316.554-.89-.382-3.71-1.22-4.215-1.17-.733.076.002.557 1.055.82 2.334.583 3.49 1.185 1.826 1.21-.868.13-4.67.142-5.704.02-1.73-.204-4.32-1.78-3.723-2.347.645-.61 3.193-1.11 5.11-1.126zm-7.402 2.426c3.06.036 4.717 1.18 1.37 1.41-5.75.91-6.855 2.16-.48.67 1.482-.346 1.455.19.43.692-.84.407-1.886.607-2.758 1.03-1.572.654-5.174.8-6.58.266-2.074-.79 4.436-4.11 8.018-4.068zm24.63.52c1.546.04 4.845 2.282 6.313 4.385.96 1.375.483 2.362-.97 1.26-.29-.222-2.373-1.993-2.486-2.034-.195-.072 1.73 1.756 2.01 2.27.24.437.797 1.437-.24 1.457-1.623-.2-5.432-4.455-5.455-6.556-.007-.562.31-.795.827-.78zm-19.19 1.196c.644-.02.314.32-.91 1.183-2.207 1.555-1.056 1.243 1.523-.085.785-.403 1.73-.72 2.063-.78.333-.062.728-.152.88-.2.693-.212.158.644-.97 1.548-2.374 1.903-5.055 3.397-6.905 3.855-2.36.584-2.86.658-1.987-.813 1.387-2.34 3.404-4.21 5.332-4.574.434-.083.76-.127.975-.134zm7.936.038c.982-.02 2.197.184 4.11.596 1.346.42.993.51-.62.687-3.032.33-1.77.685 1.18.634 4.02-.03-2.017 1.45-3.975 1.745-1.528.068-1.977.014-5.308-.61-1.27-.237-.51-1.168 1.896-2.317.984-.47 1.733-.715 2.716-.735zm24.856.544l.11 2.592-48.697 40.717-1.655-1.83 50.242-41.48zm-16.57 2.228c1.943-.025 4.75 1.32 4.447 2.134-.112.303-.33.29-1.812-.104-.973-.26-2.715-.532-2.483-.316.08.074 1.44.594 1.958.72 1.716.41 3.77 1.38 3.316 1.67-.795.482-1.523.104-2.465.004-2.353-.327-6.22-1.517-6.857-2.11-.72-.675 1.81-1.97 3.898-1.998zm-22.713.15c.35.02.48.346.146.79-.507.67-.74 1.232-1.196 2.054-1.628 2.515-2.654 3.51-4.22 4.484-1.564.975-1.788.808-1.65-1.22.176-2.105 1.683-4.32 3.812-5.36.982-.14 1.546-.397.515.838-1.83 2.192-.578 1.968 1.13-.52.544-.79 1.113-1.082 1.462-1.065zm-6.324.295c1.056-.006 1.41.368.057 1.003-1.287.604-3.85 2.395-3.91 2.592-.107.333.852-.19 2.444-1.06 2.13-1.163 2.316-1.135 1.286.193-1.164 1.504-3.965 3.386-6.163 4.082-3.075.843-3 .254-1.28-2.028 1.637-2.482 3.028-3.666 5.126-4.344.918-.296 1.807-.436 2.44-.44zm-52.163.378c11.16 19.245 4.965 38.798-7.98 48.77-13.536 10.426-34.594 9.807-47.02-2.705l1.724-1.628c-.01.008 19.588 19.966 44.27 2.25 12.525-8.99 17.7-30.22 7.366-45.02l1.64-1.667zm-49.987.043c-.036 0-.064.006-.085.02-.376.243-1.792 4.4-2.077 6.125-.082.505.04 1 .455 1.404.29.285.763.1.908.043.943-.427 1.465-1.082 2.29-3.155.554-1.135.63-2.49.52-2.966-.044-.192-.35-.64-.732-.895-.424-.282-1.023-.58-1.277-.577zm.218.865c.447-.004 1.33.723 1.44 1.24.007.9-.51 2.403-.895 2.18-.645-.8-1.387-.296-1.51-.586-.083-.89.488-2.05.88-2.824.027-.007.056-.01.086-.01zm120.523.72c4.962 0 9.896 1.454 13.52 4.663l-1.936 1.774c-8.497-6.058-18.39-4.285-24.25-.2-5.805 4.046-10.94 13-5.91 25.61l-1.815 1.645c-5.638-10.144-2.612-23.548 7.364-29.89 3.52-2.235 8.025-3.516 12.545-3.6l.483-.003zm-73.378 1.48c.15 0 .38.493.355 1.098-.03.727-.337 1.674-.828 1.874-.554.227-.903-1.424-.903-1.424.34-.54.803-1.086 1.375-1.546zm88.84.568c.202-.01.398 0 .567.02.555.068.56.564.038 1.04-.562.515-.855.542-1.424.128-.507-.37-.532-.64-.095-.955.23-.146.578-.215.915-.232zm-95.3.114l1.645 2.03-5.705 4.587-.68.053-43.67 36.162-.01-3.212 48.42-39.62zm91.24 4.897l-5.948 4.907c-11.888-6.176-21.42 4.83-18.057 14.826l-5.143 4.463c-9.2-25.245 17.705-33.884 29.147-24.195zm-31.142-3.855c.02-.004.035-.004.053 0 .04.01.08.038.118.075.208.203-.206 3.55-.516 4.172-.113.227-.2.518-.2.648.005.274-1.094 2.57-1.952 4.086-.323.57-.67 1.32-.767 1.67-.69 3.314-2.176-2.015-1.65-5.108.246-1.454 2.31-4.455 2.908-4.233.305.113.283.343-.25 1.504-1.49 3.24-1.865 4.912-.3 1.778 1.806-3.613 2.276-4.542 2.555-4.593zm-101.028.066c.22.014.396.137.49.394.067.22.14.676.016.9-.304.686-.936 1.137-1.574 1.096-.28-.018-.586-.265-.624-.567-.034-.273.032-.74.378-1.093.455-.466.947-.75 1.315-.73zm45.276.21c.705.034 1.448 1.93.976 2.795-.387.71-.458.576-1.135-.795-.355-.72-.63-1.494-.63-1.494l.578-.454c.047-.025.1-.04.146-.048.024-.003.044-.006.067-.005zm-1.187.798s.742 1.343.923 2.412c.11.653.093.53-.624.26-.565-.353-.69-.557-1.04-.997-.232-.408-.465-.71-.465-.71l1.206-.965zm4.456.29c.374-.014.775.365 1.144 1.29 1.383 3.478 1.256 7.378-.298 9.22-.257.305-.32.318-.63.128-.25-.156-.276-1.808-.032-2.275.076-.145.305-1.143.32-1.707.042-1.335-.324-1.503-.5-.265-.203 1.43-.424 2.43-.813 1.57-.195-.437-.295-.873-.443-1.34-.778-3.004.128-6.582 1.252-6.62zm-6.022.888s1.33 1.718 1.878 2.332c.193.332.186.416-.123.534-.526.202-2.286-.97-2.984-1.334-.377-.3-.214-.53-.214-.53.48-.36.96-.718 1.442-1.002zm52.465.062c.71-.008.71.24-.047 1.33-4.23 6.086-3.377 5.182-.687 1.853 1.496-1.85 1.756-2.026 1.92-1.612.123.31-1.657 3.912-2.578 5.218-.476.674-2.1 1.802-2.923 2.218-2.014 1.02-1.79.61-1.047-1.915.95-3.92 3.332-7.07 5.36-7.092zm-54.95 2.104c11.6 28.842-20.16 41.502-34.49 28.163l1.67-1.33c19.934 13.522 39.608-8.138 30.604-25.087 0 0 .815-.678 2.217-1.746zm2.69.7c1.907.196 4.728 3.688 4.87 5.634.302 1.382-.09 1.62-.766.648-1.144-2.113-1.007-.773-.033 1.324.517 1.06.637 2.33.1 2.397-.735-.148-2.324-2.683-2.81-3.727-1.16-2.29-1.243-1.9-1.878-5.293-.12-.634.047-.977.516-.983zM80 145.94c8.835 16.94-10.17 37.3-29.5 24.142l5.793-4.598c10.09 4.84 21.346-1.163 18.12-15.075L80 145.94zm88.136 3.158l-15.938 13.28c-3.28-11.008 8.763-17.296 15.938-13.28zm-29.6-.028c.52-.108.962 3.226 1.06 7.904.093 4.577.21 5.03-1.212 3.344-.597-.687-1.33-1.342-1.656-1.958-.944-1.786-.644-3.657-.383-6.27.244-2.44 1.116-2.06.975.495-.092 1.645-.074 3.688.185 3.685.094 0 .12-.16.062-.383-.123-.468.44-5.766.67-6.39.1-.27.202-.407.298-.427zm-43.924 2.015c1.15.45 1.48 4.292.232 8.008-.536 1.597-1.36 2.64-2.588 3.282-.876.46-1.08.314-.686-.486.727-1.307 1.115-2.66 1.41-4.344.117-1.644-.75-.324-.678.38-.68 3.064-1.572 3.526-1.456.297.085-2.38.396-3.4 1.518-5.038.565-.82 1.167-1.946 2.248-2.1zm39.973.388c.474.004.59.64.166 1.878-.293.86-1.295 3.64-1.177 3.63.073-.007 1.147-2.507 1.366-2.915.36-.67.492-.796.81-.766.307 1.233-.01 2.774-.162 4.053-.65 3.33-2.92 6.77-3.79 5.746-1.415-1.67-.75-8.424 1.127-10.478.708-.773 1.292-1.152 1.66-1.15zm-60.7.51c1.71 11.783-8.01 16.813-16.41 13.26.18-.045 16.41-13.26 16.41-13.26zm39.74.218l1.694 2.224 3.103.16-1.59 2.343 1.58 2.998-3.462.066-1.99 2.29-1.73-2.066-3.028-.16 1.764-2.815-1.424-2.692 3.27-.155 1.814-2.192zm-26.038 1.013c.39.014 2.303 2.53 2.493 3.458.578 2.25.364 6.505-.444 6.358-.878-3.064-.537-4.646-.852-4.295-.546.563.338 5.26.047 6.42-.138.294-.606-.062-1.134-.82-1.408-2.023-1.22-9.942-.142-11.11.01-.005.02-.01.033-.01zm103.62 4.775l-38.293 31.723 2.21 2.844 36.154-29.85-.07-4.716zm-55.306.546c.168-.034.55.234 1.27 1.022 1.252 1.69 2.58 4.016 3.063 5.804.184.695.48 1.617.658 2.048.27.647.292.826.133 1.02-.663.818-3.438-1.24-4.332-3.21-1.257-2.77-1.288-5.263-.027-2.834.458.884 1.027 2.172 1.02 1.66 0-.146-.558-2-.983-2.828-.264-.52-1.227-2.594-.8-2.682zm54.902.772l.08 2.625-35.664 29.83-1.4-1.704s33.592-27.94 36.984-30.75zm-55.682 1.622c.167.018.253.257.203.79-.163 1.734-.59 5.51-.502 5.842.055.2.565-2.5.683-2.98.61-2.5 1.54 3.48.98 6.16-.09.42-.268 1.1-.36 1.518-.092.417-.39 1.13-.51 1.32-1.01 1.588-3.385-4.738-2.985-7.962.248-2.007 1.893-4.748 2.492-4.688zm-41.26 1.386c.467-.024.557.434.478 1.396-.27 3.3-2.464 6.765-4.867 7.687-2.393.918-2.615.733-1.195-.98 1.076-1.298 1.728-2.66 1.547-2.838-.1-.1-.34.447-1.21 1.565-1.094 1.4-1.274.215-.28-1.845.858-1.78 1.66-2.71 3.273-3.8 1.136-.766 1.843-1.164 2.255-1.186zm21.687 1.003c-.482 14.21-4.025 29.646-10.865 43.067l-6.39.015c7.824-11.527 12.818-25.798 14.21-43.022l3.045-.06zm2.81.014s.958.995 1.348 1.666c.43.74.55 1.386-.23 1.94-.908.766-1.286.48.193 2.383.78 1 .525 1.165-.44 2.01-.997.87-1.055.917-.128 2.095.992 1.26 1.17 1.453-.123 2.427-1.165.876-1.18 1.082-.27 2.507.84 1.31 1.093 1.298-.516 2.657-1.372 1.16-1.404.84-.08 2.976.488.785.455.836-.438 1.627-2.195 1.942-2.08 1.82-1.77 2.332 2.406 3.447 1.318 3.35-1.036 4.994-.475.407-.353.865.71 2.588.902 1.464.77 1.78-1.344 3.235-2.202 1.514-2.273 1.718-1.173 3.263 1.084 1.52 1.107 1.418-.653 2.99-.795.708-1.447 1.36-1.447 1.36h-3.902s.823-.75 1.386-1.167c3.204-2.372 3.19-2.12 1.84-3.832-1.196-1.513-1.08-1.612.133-2.48.87-.62 2.046-1.263 2.928-1.9.475-.338.123-.62-.667-2.114-.886-1.676-.935-1.48.714-2.838 1.805-1.484 1.835-1.43.856-3.31-.98-1.888-.998-1.725.24-2.735 1.843-1.504 1.93-1.423.96-3.164-.772-1.39-.78-1.35.526-2.654 1.316-1.315 1.152-1.232.373-2.437-.792-1.224-.75-1.39.294-2.317 1.125-1 .966-.94.034-2.22-.92-1.26-.905-1.165.213-2.142.587-.514 1.178-1.036 1.145-1.277-.087-.622-.682-1.506-1.254-2.355-.218-.324.22-.424.918-1.15.71-.737.68-.552.142-1.53-.29-.53-.842-1.425-.842-1.425l1.36-.006zm-10.458.035l1.11.028s.19.252.45.516c.713.728.744 1.154.027 1.546-.688.375-.424.9.15 1.745.61.897.606.795-.27 1.675-.902.734-1.368.942-.373 2.332.566.645.496 1.31-.383 1.888-.675.444-1.797.812-.614 2.502.577 1.204.623 1.127-.58 1.982-1.605 1.137-1.905.938-1.17 2.596.82 1.844.9 1.87-.78 3.107-1.952 1.437-2.02 1.553-1.206 3.273.82 1.734.84 1.295-1.225 2.904-1.514 1.18-1.858 1.243-1.41 2.218.84 1.826 1.196 2.316-1.253 3.57-2.83 1.45-2.972 1.56-1.613 3.714 1.103 1.754.858 1.505-.966 2.555-2.637 1.518-3.802 2.178-3.884 2.648-.054.533 2.058 2.12 2.058 2.12l-3.68.1s-1.547-1.257-2.147-1.84c-1.663-1.62-1.682-1.09 3.852-3.775 3.053-1.482 2.797-1.146 2.3-2.01-1.474-2.554-1.524-2.82 1.238-4.21 2.4-1.21 1.988-1.296 1.404-3.122-.51-1.593-.428-1.446.837-2.384 3.06-2.27 2.977-2.034 2.5-3.146-.47-1.094-.83-1.604-.48-2.143 1.103-1.58 3.446-1.916 2.488-3.798-.447-1.214-.606-1.485.743-2.535 1.218-1.013 1.225-.89.445-2.228-.948-1.23-.812-1.43.577-2.394.99-.905.977-.882.42-1.765-.765-1.218-.728-1.255.365-2.214.89-.78 1.046-.822.478-1.683-.753-1.143-.628-1.394.364-1.954.608-.343.604-.483.553-1.063-.008-.11-.324-.755-.324-.755zm13.8.066l5.123.015c1.636 9.498 4.492 13.396 6.145 16.404-6.478 10.397-5.005 19.033-1.05 26.676l-16.225-.062c4.16-14.23 6.304-28.546 6.007-43.033zm-35.163.038c.188-.014.32.29.64.833 1.025 1.75.3 4.23-1.202 6.83-1.124 1.945-1.328.46-.813-2.34.324-1.767-.566.88-.99 3.013-.228 1.156-.782 2.09-1.385 2.033-.566-.092-.392-1.712-.373-2.07.128-2.554 1.08-4.362 2.928-6.897.7-.962.982-1.386 1.195-1.402zm52.296 4.995c.243-.01.583.09 1.003.33.326.19.913.544 1.32.768 1.42.783 1.535 1.022.86 1.808-.836.973-1.37.603-2.815-1.017-.972-1.092-.99-1.86-.367-1.887zm-.473 2.138c.23.007.703.254 1.164.782.936 1.07.823 1.976-.213 1.717-.422-.62-.64-1.562-1.044-2.258-.093-.158-.044-.244.094-.24zm45.758.14c-.907 0-2.426 1.198-2.715 2.416-.882 3.716-.88 3.555-.09 4.096.23.16.406.275.52.346.464.365 1.096.93 1.18.818.752.004 1.895-4.757 1.857-5.737.048-1.037.084-1.162-.175-1.633-.117-.215-.323-.31-.577-.308zm-46.454.08c.06-.013.137.02.228.094.595.592.833 1.65 1.135 2.407.002.166-.066.436-.15.598-.515.985-1.313.03-1.397-1.67-.046-.956.004-1.394.184-1.43zm46.313.732c.04-.002.078-.002.113 0 .61.027.515.657-.33 1.57-.445.48-1.363.708-1.666.41-.44-.43.47-1.614 1.462-1.9.16-.046.3-.073.42-.08zm-102.893.52h.1c.317.02.585.164.794.407.405.5.235 1.276.043 1.925-.48 1.698-3.663 4.986-4.805 5-.68-.12 2.162-3.73 2.25-4.338-.21-.207-1.972 1.827-2.8 3.24-.374.64-.8 1.43-1.025 1.565-.594.068-1.278.446-1.282.047.098-1.805 3.63-5.736 4.834-6.83.738-.696 1.378-1.01 1.892-1.017zm8.52.17c2.728-.03-2.646 5.94-6.122 6.802-1.083.27-3.078.34-3.22.113-.144-.225.017-.407.462-.524.718-.188 4.27-2.45 4.267-2.715-.003-.335-1.47.22-2.724 1.03-.812.525-1.192.417-.752-.217 2.04-2.933 4.77-4.45 8.09-4.488zm47.238.01c.154.013.31.32.406 1.008.496 1.28.52 1.63.052 2.005-.8.645-.997.464-.988-1.017.008-1.22.27-2.017.53-1.996zm-89.904 1.698s.995.373.582.847c-.288.33-1.513.05-1.514-.048l.932-.8zm137.1.038c.325-.02.333.28.16 1.036-.09.397-.482 2.49-1.177 3.07-.084.055-1.093-.546-1.366-.823-.126-.127-.52-.42-.572-.614-.172-.632.012-1.453.49-1.863.19-.16.565-.25.768-.25.16-.003.63-.156 1.045-.342.292-.128.506-.203.653-.212zm-136.75 1.443c.654-.004 1.46.066 2.142.3 2.013.584 5.704 2.237 6.272 2.78.827.79-1.33 1.63-3.926 1.66-1.376.016-1.636-.27-3.538-1.41-.244-.16-1.354-.888-1.03-1.153.352-.36 1.414.104 2.737.775.432.22 1.482.156 1.48-.038-.002-.23-2.646-1.21-4.625-1.84-1.3-.413-1.27-.83-.474-1.007.23-.035.57-.063.96-.066zm-2.602.904s.55.485 1.26 1.017c.77.578 1.665 1.29 2.288 2.238.9 1.1 2.325 3.833 2.166 4.328-.364 1.136-4.17-.856-7.28-3.97-1.01-1.01-1.603-1.763-1.603-1.763l1.188-1.074s1.043.87 2.247 1.934c2.26 1.993 2.243 1.31-.028-.79-.643-.593-1.235-1.125-1.235-1.125.028-.382.388-.718.996-.796zm92.93.095s1.215 1.26 1.666 1.84c-7.403 7.235-10.23 17.347-3.084 28.114l-3.43-.014c-6.422-12.64-3.376-22.156 4.85-29.94zm-62.61.297c.46-.02.04.52-.776 1.91-1.525 2.597-1.827 3.252-4.304 3.898-.64.165-1.547.033-1.92.08-1.066.134-.592 0 1.04-1.06 2.26-1.467.34-.712-1.75.364-1.212.623-2.48.592-2.593.27-.06-.18.49-.647.847-.966 3.185-2.847 4.16-2.727 7.124-3.756 1.293-.447 2.017-.727 2.332-.74zm-13.31 2.596c1.152.007 2.228.122 3.183.336.633.142 1.663.27.794 1.054-.984.926-3.643 2.19-5.61 2.275-.275.01-4.326-.277-3.462-1.146.173-.097.723-.07 1.197-.16 2.242-.426 1.636-.787-1.127-.64-3.46.185-3.618-.173-.998-.89 1.916-.523 3.8-.793 5.524-.827.166-.003.33-.004.496-.004zm18.484.265c1.54-.015 2.737.26 2.744.847.01.952-2.906 3.04-4.82 3.453-.45.098-1.092.237-1.424.312-.667.15-4.365.02-4.726-.11-1.73-.627-.526-.874 2.65-1.243 1.38-.16 2.04-.522 2.037-.785 0-.127-1.02-.163-2.534.03-1.692.213-1.36-.285.748-1.378 1.393-.722 3.58-1.108 5.326-1.126zm-28.498 1.32c.215.005.735.184 1.6.544 1.843.536 4.376 1.143 6.11 3.036 1.4 1.356 1.74 1.794 1.447 2.27-.357.58-4.704.14-6.533-.643-1.208-.516-2.648-1.624-3.307-2.582-1.593-2.32-.923-2.933 1.103-1.31 2.44 1.954 2.803 2.155 3.235 2.066.174-.037-.256-.44-1.074-1.047-2.055-1.525-3.056-2.347-2.582-2.335zM66.72 183.4c2.043.004 2.484.157 4.47 1.065 2.482.875 1.88 1.654-2.527 2.753-2.207.518-4.428.154-6.04-.837-3.552-2.186-3.317-2.622.648-1.645 1.304.32 2.603.38 2.683.138.062-.188-1.516-.59-2.796-1.013-1.387-.46-.194-.42 2.578-.45.367-.004.692-.01.984-.01zm102.212 9.444s-.454.214-.654.324c-.158.087-1.386.24-2.73.34-2.647.198-4.43.622-6.035 1.27-2.426.974-4.048 3.98-4.048 3.98 1.813-.122 12.077 1.733 14.925-1.964.596-.774-1.53 5.844-2.622 6.137-2.705-.323-3.844 3.92-3.572 3.742-2.73 1.057-4.845 1.678-4.15 4.845.302 1.38 1.7 3.02 4.667 2.608-.808 5.49 5.912 6.91 6.652.292 0 0 1.31-.25 1.814-.31 3.062-.726 3.805-5.2-.69-6.62-1.25-.37-1.32-.605-1.32-.605.233-1.01.18-2.07-.553-3.248.992-2.363 3.46-6.92 3.46-6.92l-5.145-3.87zm.474 1.365c.618.825-2.605 2.19-6.04 2.486-.77.066-2.462.222-2.506.3-.37.646 6.64.176 8.82-1.047.75-.42.816-.05.492.595-2.535 3.26-8.653 2.455-13.437 1.883-.273-.274-.04-.61 1.03-1.48 1.966-1.595 3.382-2.127 6.485-2.445.868-.028 4.767-.762 5.156-.294zm3.79 3.37c-.44 1.403-2.742 5.682-2.742 5.682-.283.283-1.29.482-1.216-.6.013-1.163 2.19-5.953 2.776-6.046.702-.053 1.22.463 1.183.965zm1.46.327c.676 4.91 4.402 6.078 7.977 7.625.94.432 1.74 1.198 2.683 1.693 1.767-2.41-.225-7.09-3.335-8.613-2.31-1.078-4.416-1.937-5.718-1.84-.753.056-1.594.54-1.605 1.135zm1.914-.292c.4-.004.973.11 3.06.667 3.152.838 5.375 3.163 5.956 6.225.023.124.185 2.497-.358 2.412-.82-.236-1.263-1.063-2.58-1.613-1.644-.688-3.948-1.592-5.363-2.876-1.143-1.037-1.767-2.154-1.906-3.11-.142-.995.19-1.096 1.025-.294 1.87 1.487 3.714 1.996 5.562 3.434.514.4 2.357 1.42 1.1.148-.854-.86-3.365-2.364-4.7-3.006-1.854-.892-2.86-1.976-1.797-1.987zm-141.95 4.9l21.13 33.03c-5.2 2.743-7.765 3.944-16.4 3.27l.034.434-3.67-.215c6.34 9.893 14.16 22.8 11.94 45.313l25.738-.026s.4.38.44.407c.377.253.94-.447.94-.447l11.61-.062.314.376 5.414-.038S67.356 238.24 54.924 215.24c-5.105-9.227-10.424-13.327-20.304-12.725zm133.237 1.093c1.388-.034 2.767.92 2.776 2.77.005.966-.81 2.313-.81 2.313l-1.885-1.796-1.802 1.804c-.888-.734-1.414-2.13-1.123-2.925.556-1.36 1.765-2.14 2.844-2.165zm-21.853.657c1.788 6.97 3.72 16.58-11.788 38.787-9.172 13.135-12.173 25.526-12.54 40.65l-.926.004c.438-8.3.496-23.348.496-23.348l.866-.77s-.395-.64-.568-1.392c-.292-1.266-.046-.844.71-4.243 3.17-16.415 23.75-49.688 23.75-49.688zM63.2 207.462l78.59.36-1.046 2.062-76.05-.544-1.495-1.878zm104.756.597l2.918 2.842-2.853 3.202-3.002-3.14 2.938-2.905zm-2.393 1.207l-1.593 1.693 1.38 1.45c-1.42 2.983-5.2.656-5.075-1.575.148-2.61 3.2-3.68 5.288-1.568zm5.043 3.365l1.27-1.612-1.435-1.57c2.348-2.318 4.567-.277 4.78 1.656.23 2.06-2.984 4.388-4.614 1.526zm-93.08-1.972l6.44.062-2.395 4.48-6.526-.03 2.483-4.512zm14.342.034h5.912l-2.497 4.54H89.3l2.568-4.54zm13.963 0h6.273l-2.545 4.54h-6.442l2.715-4.54zm14.04 0h6.42l-2.338 4.54h-6.66l2.578-4.54zm14.3 0h6.186l-2.507 4.54h-6.367l2.686-4.54zm-68.322.023h4.158l-1.698 2.99-2.46-2.99zm103.672 2.864c2.38 1.912.727 5.05-1.753 5.105-1.707.04-4.187-2.85-1.504-5.203l1.786 1.633 1.47-1.534zm-87.457 2.415h6.045l-2.275 4.087H79.91l2.153-4.087zm13.438.034h6.632l-2.336 4.086h-6.31l2.015-4.087zm14.2 0h6.6l-2.153 4.086h-6.664l2.217-4.087zm14.148 0h6.547l-2.04 4.086h-6.92l2.413-4.087zm-53.988.155h4.172l-1.778 3.273-2.394-3.273zm3.145 4.74l61.26.543-1.042 1.987-58.662.01-1.555-2.54zm2.152 3.557l57.403.142-1.32 2.748-19.832-.09c-3.87-2.89-8.293-1.554-13.34.09 0 0-15.182.158-21.152 0l-1.76-2.89zm-19.09 11.644l30.277 47.788-6.693-.075-28.748-44.956 5.165-2.758zm-6.07 3.114l28.584 44.663c-1.31-.03-2.528.05-3.84.03.53-8.342-6.18-12.252-10.125-12.45 2.365-9.756-4.746-13.86-9.49-14.635 1.924-12.678-8.57-14.476-8.724-14.348.052-1.04-.144-1.792-.284-2.66l3.882-.6zm-4.63.707c-.062.27.538 2.795-.592 2.33l-.08-2.325.672-.005zm-6.017.065c.408 1.68 1.27 2.013 2.443 3.14 0 0-1.5.254-1.847.014-.623-.43-1.925-3.167-1.925-3.167l1.33.012zm4.47 2.84c.726 0 1.312.592 1.312 1.316s-.586 1.31-1.31 1.31-1.312-.585-1.312-1.31.586-1.315 1.31-1.315zm2.598 1.01c3.76-.245 9.21 3.787 7.773 11.334-.25-.527-.545-1.687-1.155-2.51-2.592-3.495-5.644 1.295-3.586 3.25 1.007.958 1.48 1.336 1.37 1.423-2.317-.44-4.072 1.61-3.108 3.89 1.607 2.946 3.84 1.385 5.134-.363 0 0 .795 2.638 1.587 2.974 1.21.515 2.883-.137 3.452-1.6.847-2.178-1.213-2.736-1.665-3.948 4.35.142 9.89 6.5 7.37 12.01.33-1.255-1.018-4.07-3.637-3.344-1.31.457-1.764 2.362-.708 4.323.338.628.52.86.52.86s-1.132.15-1.43.334c-3.397 2.092.983 7.8 3.512 4.23.258-.423.68-.908.68-.908.418.795.546 1.914 1.308 2.298 3.13 1.575 4.526-1.75 3.21-3.382-.74-.918-1.576-1.978-1.576-1.978-.132-.587 9.382 1.907 8.223 11.162l-25.22-.035c2.338-14.215-3.322-30.48-6.212-35.437l1.253-1.65c.313.613.834 2.16 1.755 2.455 2.925.942 3.816-1.103 3.425-3.204-.21-1.12-1.778-2.02-2.275-2.18zm6.678 13.38c.688 0 1.244.56 1.244 1.248s-.557 1.244-1.244 1.244-1.25-.557-1.25-1.244.562-1.25 1.25-1.25zm9.465 14.81c.696 0 1.26.562 1.26 1.258 0 .694-.563 1.258-1.26 1.258-.693 0-1.257-.563-1.257-1.258 0-.695.563-1.258 1.258-1.258z"/></g></svg>