<svg version="1.2" baseProfile="tiny" xmlns="http://www.w3.org/2000/svg" xmlns:xlink="http://www.w3.org/1999/xlink" width="225" height="314" viewBox="0 0 225 314" preserveAspectRatio="xMinYMin meet"><defs><style type="text/css">use { fill: #d40000; } .maxi-card { display: none; } .mini-card { display: block; } @media (min-width: 75px) { .maxi-card { display: block; } .mini-card { display: none; } }</style><path id="suit" d="M16.49.2c7.12-.476 10.832 5.638 11.557 10.455.432.766.668.55.834-.042.35-6.186 5.856-11.24 10.956-10.55 8.3.108 13.344 9.393 11.926 17.25-1.733 9.6-6.877 15.38-10.77 21.333C36.584 44.81 30.653 53.716 28.74 58c0 0-6.027-9.222-13.87-20.067-5.243-7.252-9.44-15.11-9.83-21.875-.447-7.73 2.71-14.66 11.45-15.86z"/><path id="numeral" d="M19.876 0H9.636v3.498h3.808s-.045-.664-.012 7.14c.02 5.474.016 8.968-.05 11.267.02 3.062-.485 4.936-1.69 6.06-1.908 1.605-5.64 1.444-7.02-.066-1.022-1.188-1.238-3.454-1.177-6.122H.015s.003 1.29 0 1.97C-.588 36.342 16.28 34.207 16.82 25.42c.112-1.876.056-1.193.01-11.597-.05-11.146-.01-10.32-.01-10.32h3.056V0z"/></defs><rect width="100%" height="100%" fill="#fefefe"/><g class="mini-card"><use xlink:href="#numeral" transform="matrix(3.5 0 0 3.5 78.4 33.95)"/><use xlink:href="#suit" transform="matrix(2 0 0 2 55.5 170)"/></g><g class="maxi-card"><use xlink:href="#numeral" transform="translate(7 12)"/><use xlink:href="#suit" transform="matrix(.4 0 0 .4 6 51)"/><use xlink:href="#numeral" transform="matrix(-1 0 0 -1 218 302)"/><use xlink:href="#suit" transform="matrix(-.4 0 0 -.4 218 263)"/><use xlink:href="#suit" transform="matrix(.8 0 0 .8 38 34)"/><use xlink:href="#suit" transform="matrix(-.8 0 0 -.8 187 278)"/><path fill="#E2CF00" d="M192.518 37.445l-11.525 7.513-.16 8.762c-6.835-3.28-9.806-8.65-10.882-14.943-1.933 2.438-1.55 14.75-1.55 14.75-1.755.91-2.397 2.1-3.52 3.17 1.103 1.82 4.223 4.92 4.223 4.92-.02-.055-1.43 12.817.273 13.33 1.56-5.486 3.632-10.273 11.267-15.292 0 0 .116 20.437-.373 40.182-3.23-2.224-10.06-6.218-14.474-10.304 5.722-7.38-.11-16.998-8.65-10.61-5.534-2.994-6.384-17.142-7.753-24.553-.263-1.486-1.552-5.845-1.552-5.845s-18.234-5.044-26.065-4.634c6.577 17.14 5.3 38.025-23.808 41.94-13.946 6.376-30.06 13.485-45.72 26.767-2.884 19.775-13.083 29.513-20.285 34.898.052 8.014-.054 15.946.276 24.035-.007.05 6.573-4.32 7.607-3.516 5.5 35.74 25.637 42.827 23.623 43.817-.325.16-6.6 6.61-6.6 6.61L32.29 202.25c-.842 24.712-.354 49.912 0 74.666 4.34-2.453 12.316-8.32 12.316-8.32l.12-8.408c-.036-.8 11.178 7.004 11.204 16.3.873.593 2.786-13.376 1.044-14.89l4.597-4.74-4.95-4.767s1.258-7.91-1.31-12.467c-1.66 10.432-10.32 13.685-10.32 13.685s-.17-38.13-.394-38.164l15.447 9.78c-1.15.236-4.092 5.704-1.022 10.133 1.87 2.698 8.59 2.52 9.106-.587 9.5 8.854 5.843 19.438 9.998 31.997l26.96 4.945c-11.11-20.612.945-44.1 22.764-42.42 4.087-1.703 7.787-4.16 7.787-4.16s-2.713-4.436-6.14-8.55l-46.696-.77 21.768-40.815-14.317-.46s11.636-24.678 9.122-26.666c-.883-.697-.514-8.654-.514-8.654l12.79.476c.505-5.695-6.187-27.4-15.627-41.593l52.488.47-29.548 41.21 15.87.455-9.47 19.453 1.518 15.172-14.08.456c2.427 21.033 18.052 43.194 23.545 50.038 9.08-2.152 26.035-15.127 36.556-23.194 1.362-14.115 6.223-26.13 18.93-35.095l.038-23.236s-7.252 4.68-7.25 4.357c.03-5.03-2.593-15.5-7.43-24.83-5.188-10.014-13.707-19.084-15.666-19.65 4.506-6.818 6.43-7.43 6.364-7.537l24.542 15.74.09-74.165zM68.812 86.99s-4.773 1.817-8.92 1.76c-7.435.384-13.104.983-16.118 7.08-.612 1.855.73 2.54 1.716 3.025 5.603-6.956 20.494 2.233 23.322-11.865zm-32.995 31.924c0 .982 1.1 2.59 1.648.922.478-1.19.574-3.118.04-4.306-1.493-.84-1.67 2.422-1.688 3.384zm80.493 33.66l-7.258.034-.044 8.52 7.395.35-.093-8.904zm71.3 42.413c-.158.846-.94 4.652.83 3.99 2.09-1.61.31-9.01-.83-3.99zm-6.832 21.386c-.857-1.25-3.51 1.855-5.685 1.973-9.67.517-16.796-.776-18 9.34 5.577-3.56 13.39-1.937 18.425-3.088 3.64-1.208 7.813-4.503 5.26-8.225z"/><path fill="#131F67" d="M31.003 288.484c-1.085-88.702-.566-176.257-.262-263.966l163.717.917c-.586 87.537-.696 175.34.467 263.75l-163.92-.7zm7-170.65c.14-2.54-.903-3.59-1.81-1.844-.213.412-.916 4.823.753 4.97 1.097.097.997-2.037 1.057-3.127zm-2.65 2.978c-.01-.6-.378-.86.44-6.074-1.56-.602-2.91-3.134-1.775-4.734.443-.624.313-.762.133-1.286-.446-1.296-.21-2.353.993-3.18.77-.527.803-.667.556-1.362-.635-1.79-.04-3.54 1.673-4.136 1.188-.412.958-.47 1.083-1.224.28-1.685 1.21-2.704 2.9-2.533 1.572.158 1.676.16 1.81-.608.374-2.125 2.95-4.445 6.312-6.022 1.67-.782 4.438-1.337 9.74-1.323 3.038-.053 6.825-.458 8.95-2.325.35-.327.838-1.188 1.008-1.07.396.273.3 2.39-.477 4.316-2.262 5.622-5.323 7.17-13.975 7.12-2.58-.124-6.38.225-7.99 1.865-.48.51-.8.988-.62 1.25 3.585.508 7.265 2.125 9.406 9.197 6.5-4.607 16.86-11.664 29.708-18.043-1.543-8.453 5.786-9.757 9.896-8.075 0 0 .105-.55-.054-1.19-.155-.624-.383-1.438-1.142-2.487-.19-.382-1.345-1.11-1.117-1.684.373-.94.207-1.2-.58-2.066-.51-.562-.172-1.767-.048-2.252.162-.905.758-2.196.23-2.684-.813-.753-3.586-2.028-5.014-3.042-1.58-1.148-1.61-2.18.704-5.956 1.054-2.195 2.05-4.553 2.89-6.13 1.27-2.385 1.402-3.957.632-5.324-1.006-1.786-.84-3.904-.816-3.85 0 0-9.494-13.51-13.406-18.82l-44.418-.144-.438 101.554 7.92-7.304-2.077-2.456c-.295 1.426-.028 2.82-1.788 2.902-.6.02-1.154-.23-1.248-.82zM61.75 256.218c.252-4.016-1.67-10.59-4.565-15.144.125 3.458.374 7.687-.32 11.067l4.884 4.078zm70.094 10.48c-.35-.113-3.266-.29-5.097-.39-6.07-.32-10.013-3.232-12.645-7.26-.646-.99-.38-.946 1.056.175 4.03 3.148 7.804 5.03 11.116 4.56 4.696-.67 7.23 1.052 6.58 3.058-.114.352-.153.133-1.01-.142zm-15.904-8.96c-.94-.813-1.01-1.18.105-.437 3.41 2.27 7.524 5.974 12.61 3.804 1.055-.676.085-.587-1.68-.4-2.7.288-5.988-1.082-10.033-3.875-1.975-1.364-1.104-2.515 1.12-1.447.686.33 1.382.573 1.825.602 2.188-1.453 6.79-1.437 6.683-1.43.524-.45-1.194-1.166-3.753-2.133-1.66-.627-2.063-.885-.826-.933 1.08-.044 2.78.495 4.008 1.29 2.046 1.313 3.076 2.042 3.687 2.128 1.004.08 2.028.224.306 1.022-.782.363-.713.456-.623 1.335.14 1.373.223 1.357.856 2.134 1.068 1.177 1.534 3.37.01 1.997-.328-.15-.362.14-1.26.502-5.272 1.485-9.197-.835-13.033-4.16zm9.73.392c.292-.387.734-1.375.794-1.65-.102-.642-.67-.44-.96-.08-.49.604-1.18 1.492-.613 1.795.268.143.53.263.78-.065zm-1.8-.415l1.17-2.09c-.29-.134-4.258.686-3.636 1.255.55.505 2.465.835 2.465.835zm4.467-7.007c-1.808-.967-2.335-3.05-.984-4.435 1.136-1.163 3.06-1.064 5.362.353.81.5 1.308.752 1.862.548.93-.342 1.284.18 1.208.907-.17 1.603-2.664 1.995-4.238.167-2.08-2.418-4.343-.73-3.68 1.017.338.89.993 1.028 1.746 1.362 0 .175-.75.364-1.276.082zm-8.24-10.77c2.994-.806 7.446 2.36 9.86 1.93 1.048-.224.9 1.283-.187 1.83-1.27.64-3.076.208-6.907-1.79-3.154-1.703-5.708 1.122-3.6 3.23.453.427 1.112.683 1.92.645 1.067-.05 1.382.24.006.595-.79.203-2.262-.117-2.973-.837-1.698-1.72-1.28-5.027 1.88-5.6zm-63.374-9.25c-.09-3.56 1.812-5.536 1.86-5.55l-13.46-9.13.2 36.467c6.67-4.233 8.858-9.57 9.24-16.457 13.167 14.746 9.058 32.697.835 42.92-.338-6.257-2.206-13.65-9.808-17.438l-.014 7.463-12.616 8.945.076 8.245 29.68.093 14.355-20.96c-2.596-9.506-2.205-17.417-3.962-21.767-1.317-3.576-3.82-8.195-5.438-7.48-5.468 4.33-10.84-.72-10.947-5.35zm11.325 4.21c4.662 3.356 5.906 8.842 6.862 13.718.032.042 2.447 16.53 2.523 16.75.312.905.21 1.808-.59 2.494-4.306 5.904-12.722 18.568-12.722 18.568l82.49.485c-4.402-6.402-7.84-12.73-12.02-17.995.176-.28-.327-3.876-1.023-5.038-.718-1.197-.884-1.825-.397-2.92 1.206-2.698 2.444-5.622 3.56-8.098 2.134-4.743 2.378-4.783-.536-6.323-3.454-2.012-4.07-2.666-3.346-4.962.265-.836.298-1.17-.77-1.388-.496-.102-1.7-.39-2.51-.613-2.332-.735-1.657-.28-2.51.324-.65.32-1.21-.91-1.97-2.364-.875-1.673-1.097-1.712.35-.852 2.684 1.596 7.444.976 5.768-.87-.818-.9-1.576-1.363-1.49-3.402.085-2.023.116-2.616-1.258-2.897-2.748-.562-5.736-.328-8.295.31-7.786 1.944-14.032 8.698-16.4 13.718-.533.874.69.83 1.22.833 2.552-.228 4.362 3.838 2.692 5.66-.772.814-1.542.315-.72-.74.94-1.75-.46-4.06-2.515-3.473-2.586.74-2.66 4.084-2.98 6.413-.88 6.712 2.53 15.684 3.364 17.515 0 0 .182.273.12.273s-.473.378-.646.18c-.6-.68-2.11-6.17-2.93-10.092-1.587-10.848 1.22-20.823 10.246-26.49 7.995-5.767 12.022-4.525 16.562-4.79 1.55-.56 3.7-1.405 5.33-2.204 7.995-4.367 14.475-8.09 21.27-11.79 6.594-3.592 11.017-8.718 17.046-11.92.274-.147.558-.485.84-.624 7.498-6.516 14.91-12.914 19.382-17.373.542-.546.99-1.283.99-1.283l-.758-37.6s-.754-.628-.75-1.226c.007-1.305-.478-1.055-3.16.832-3.37 2.372-3.6 2.253-3.6 2.253-1.784-17.25-11.113-34.215-22.42-44.135l.464-.635s3.782 2.497 5.67 3.686v-2.404l-4.554-2.853s-.405-.33.038-.932c.243-.33.866-.085.866-.085l3.65 2.69v-2.196l-2.95-1.88.944-1.19 1.58 1.024c-.67-1.738.277-1.677 1.25-.525.405.527.927 1.204 1.148 1.844.085.244.337.844.337.844l2.586 1.925s-.1-.938-.008-1.226c.437-1.363 3.56 3.037 3.167 3.14l2.648 1.91c.628-.956 2.988.95 3.085 1.888.208.41 9.13 6.148 9.13 6.148l.1-3.17.96-1.252.434-73.24-11.847 7.574-.13 8.866c-5.597-1.81-10.444-9.917-11.154-14.974-.363-.2-1.984 9.974-1.127 14.426-1.48 1.102-3.97 3.676-3.95 3.69l4.487 4.91s-.897 7.52-.688 11.255c.182 1.772.217 1.952.747 1.956.43.002.815-.463.818-.868 1.055-4.473 4.517-11.452 10.508-13.83.396-.012-.03 39.9-.03 39.9l-14.87-10.142c-.74-.637.97-.596 2.016-3.974 2.694-8.713-6.65-11.792-10.262-6.747-.594-.004-3.074-3.07-3.445-4.35-2.75-5.54-3.277-11.82-3.81-16.858-.324-2.29-1.164-6.045-1.86-8.306-.373-1.21-.41-2.08.393-3.205 3.683-4.974 7.25-10.2 10.352-15.3 2.832-3.72 2.28-3.907 2.28-3.907l-82.707-.268 13.222 17.417 1.34.52c-2.29.296-1.51 2.296-.623 4.447 1.092 2.644.97 3.19-1.8 8.637-4.062 7.986-4.28 7.285-.228 9.757 2.502 1.602 2.957 1.952 2.59 4.127-.37 2.176-.47 1.503 1.595 1.68 1.103.096 1.984.295 2.48.52.566.257.986.613 1.713.375 1.224-.402 1.254-.106 1.303.79.02.383.6 1.17.777 1.464.472.773.25.9-.612.357-2.66-1.674-7.105-.958-5.47.862.674.75 1.352 3.245 1.41 4.485.104 2.218 1.544 3.005 4.57 2.548 5.812-.433 18.916-7.647 21.97-15.75-6.712 2.285-5.333-5.952-2.94-5.692 0 0-.644 1.46-.664 2.294-.073 2.946 2.395 3.175 4.095 1.088.74-1.096 1.638-5.167 1.196-9.763-.535-5.566-2.79-11.793-3.2-13.338 9.6 22.912.785 32.987-12.702 39.562-5.166 2.157-5.875 2.145-8.92 2.286-2.083.17-3.962 1.204-5.96 1.86-11.542 5.51-25.725 12.378-38.41 22.624-9.105 6.744-16.336 12.807-23.524 20.596l-.03 40.427c2.163-.337 5.672-2.442 7.75-3.654 2.38 15.1 10.146 32.586 23.008 43.043-.008-.006-.304.57-.31.564-1.833-1.217-3.664-2.427-5.44-3.36l-.092 1.925 4.328 2.975c.114.462-.742 1.107-.742 1.107l-3.572-2.468-.027 1.96 2.766 1.763c.746.75-.906 1.14-.906 1.14l-1.64-1.19s.118.953.068 1.12c-.428 1.447-2.794-1.747-3.222-3.34l-2.328-1.38c.33.943-.504 1.075-1.163.84-1.75-.888-1.653-2.378-2.018-3.262l-3.1-1.965c-.532 2.952-3.68-1.205-3.184-2.2l-3.974-2.705c.22.083-1.515.44-2.102.058-.676-.44-.913-2.242-.913-2.242l-2.384-1.474v2.58l24.504 17.11-.353.664-25.557-17.485 1.035 75.9 12.462-8.62c-.24-2.842.285-5.38.05-8.615 6.403 3.985 8.56 6.696 11.382 15.065 1.826-4.764 1.506-9.336.685-13.564 1.638-1.34 3.23-2.64 4.054-4.66-1.54-2.12-3.047-2.715-4.67-4.682-.126-2.397 1.277-9.538-.606-11.894 0 0-3.442 10.374-10.858 13.492-.225-10.953.03-38.492.03-38.492s7.622 5.26 11.51 7.397c1.825.977 3.1 1.588 3.122 2.282.013.353-.72.803-1.043 1.3-.2.31-1.044 3.27-.716 5.59.148 1.707.953 2.787 1.724 3.605 2.443 2.596 6.922 1.373 8.694-.63zM82.8 215.51l29.315-41.007c3.487 15.09 9.376 28.91 17.057 41.438l-46.372-.43zm14.496-43.103s2.046-4.056 2.984-6.207h-3.59l2.147-2.41h5.346l-2.86 6.096h2.27l3.138-6.096h8.33l-2.913 6.095h1.92l3.115-6.096h7.745l-2.724 6.095h1.814l1.59-3.076.39 5.596h-7.693l3.04-6.206h-2.478l-3.437 6.206h-7.208l3.125-6.206h-2.74l-3.433 6.206h-7.878zm23.738-21.837l3.108-6.565h-2.46l-3.437 6.43h-7.683l3.023-6.356-1.914.007c-1.297 2.002-3.367 6.073-3.367 6.073h-8.146s2.304-4.317 3.213-6.43h-2.01l-1.637 2.61c-.576-.975-.196-3.562-.293-4.66h7.68l-3.085 6.302h2.45l3.363-6.3h8.11l-3.305 6.3h1.92l3.274-5.955h8.25l-2.89 5.955h2.546l-1.123 2.59h-5.586zm-7.59-11.44l-1.554.29c-1.99-17.014-11.406-34.36-15.392-41.52l46.85.657-29.903 40.572zm55.01-98.24s-4.47 5.744-4.768 15.383l4.255-3.398c-.268-9.78.513-11.985.513-11.985zM163.733 57c-.07 7.17 1.81 11.742 4.188 15.32.04-4.618.505-9.295.78-10.52l-4.967-4.8zM47.75 194.204l-15.15-10.435v2.287l18.006 12.23-2.856-4.082zm-2.73-5.6c-4.057-2.036-12.42-8.344-12.42-8.344v2.088l13.313 9.352c.262.258.613.192.736-.096-.524-.884-1.155-2.087-1.627-2.998zm-3.717-9.06l-8.7-6.07v1.89c2.23 1.998 9.573 6.754 9.573 6.754l-.872-2.574zm-8.7-7.452l8.186 5.29-.51-2.342-5.814-3.947-1.863 1zm147.12-73.355l.44-37.708c-8.53 4.034-10.223 15.798-9.938 16.164-8.492-8.75-11.692-27.62.218-40.308.896 4.07 1.196 9.973 9.62 15.367l.218-7.987 11.805-7.54-.098-9.075-28.313-.22c-4.393 5.563-8.782 11.896-13.127 17.8-1.63 2.213-2.038 3.254-1.726 4.41 2.855 10.267 2.283 22.906 8.28 28.883 8.043-7.563 15.578 3.822 9.325 10.844l13.296 9.37zM57.385 261.794c1.088 3.434.34 10.36.27 10.36 1.3-.706 4.83-10.736 3.947-14.506m40.98-184.154c-2.004-.568-3.512-1.43-5.626-1.228-1.665.173-2.23-.378-1.216-1.284 1.328-1.125 2.615-1.59 5.075-.302 7.403 3.873 7.63-1.782 4.298-2.183-.945-.113-.9-.718.042-.564 5.173.207 3.597 7.058-2.573 5.56zm-8.657-5.647c-.98-.357-2.16-.955-2.597-.84-1.1.297-1.137-.308-1.006-1.023.315-1.727 2.082-1.414 4.416.072 3.345 2.13 4.626-.932 1.583-2.583-1.025-.556-.71-.71-.11-.734 1.585-.066 3.077 2.09 2.657 3.856-1.066 2.83-3.654 1.722-4.944 1.25zm9.8-5.228c-2.165-.377-5.3-3.285-6.753-3.484-.817-.094-1.778.006-2.04-.322-.8-1.005 1.465-1.005 1.62-1.37.005-.847.058-1.377.023-1.666-.4-.542-1.974-2.706-1.92-3.755.038-.064.826.58 1.23.583 3.865-2.037 6.506-1.133 9.766.306 1.347.595 4.824 3.29 4.868 3.718.074.724-1.475-.633-2.686-1.445-2.982-2.073-5.665-3.547-9.41-2.317-.582.2-.48.308 1.437.19 1.874-.113 3.408.46 5.803 2.022.595.39 1.312 1.05 1.74 1.255 3.014 1.436 3.67 2.846 1.752 2.464-.41-.083-1.205-.51-1.986-.786-1.378-.487-.89-.34-2.216.277-.465.218-1.584.674-2.503.783-.704.117-2.988.1-1.978 1.063 1.072 1.073 2.85 1.865 4.073 2.355.882.393.204.308-.823.13zm.256-4.676c1.41-.522.307-1.705-1.49-1.966-.412-.06-1.292 1.882-1.31 2.29-.016.305 2.026-.038 2.8-.324zm-3.894.21c.323-.206 1.407-1.772 1.408-2.022.006-1.005-1.28-.726-1.578.32-.362 1.274-.392 2.058.17 1.7zM95.58 50.05c-1.16-.512-2.736-2.755-.934-2.376.39.09 2.41.194 3.718.2 4.445.02 8.876 2.033 11.693 4.963 1.568 1.63 1.67 2.836.08 1.713-5.637-5.06-9.096-4.118-14.558-4.5zm43.907 174.418l-1.573.837c.004.872.318.736 1.016 1.354 0 0-.966.156-1.672.11-1.15-.077-1.413-.06-.904.75.234.374.557.927.557.927s-.623.135-1.56-.123c-1.423-.39-2.15-.194-1.613.597.148.22.433.63.433.63-1.037-.236-2.942-1.163-2.942-1.163l-1.345.408c2.68 5.236 12.218 1.933 9.604-4.327zm46.518-7.475c1.474-1.236.758-2.754-1.396-3.865-.897-.463-.81-.47-2.262.384-1.79 1.052-1.918 1.106-.642 2.46 1.54 1.632 3.215 1.932 4.3 1.02zm-5.473-3.496c1.356-.602.853-.5.76-1.917-.395-1.633.53-1.747.987-3.27.188-.834-.517-.526-1.887.748-1.13.948-1.465 1.18-1.462.72.128-.387-.774-1.377-1.585-1.512-.684-.113-.62-.27.05-1.136 1.16-1.5 1.638-3.395.86-5.063-.985-2.11-1.31-2.42-3.485-.577-1.114 1.025-2.688 1.812-3.448 3.08-.544.935-.23 1.838.632 3.672 2.15 4.578 5.47 6.634 8.578 5.255zm7.62.04c2.392-.938 1.427-3.518-2.31-6.12-2.252-1.566-2.89-1.55-.98.148 1.225 1.087 1.416 1.47.892 2.253-.438.65-.896 1.418-.462 2.015.684.94 1.852 2.098 2.86 1.703zm-134.6-4.292L50.95 207.6v2.25l2.605 1.556v-2.16zm130.232 2.034c.518-.364.962-1.386.964-1.837.117-1.047-1.587-.796-2.4.36-.916 1.303.167 2.37 1.436 1.476zm5.835-3.544c1.187-1.244.61-2.568-1.83-4.147-.94-.617-1.42-1.02-1.304.202.035.373-.374.866-.637 1.16-.847.946-.47 1.115 1.937 2.642 1.227.776 1.163.844 1.832.142zm-136.067-2.392l-2.605-1.573v2.043l2.605 1.76v-2.23zm-5.697 2.038l.034-2.048-3.376-2.244-.048 2.283 3.39 2.01zm132.764-.827c-.435 1.172 1.314.64 1.416.52.303-.592.035-.647-.114-.71-.307-.13-1.498.076-1.302.19zm.764-1.482c.6-.192.67-.117.587-1.2-.125-1.632.12-1.763 1.205-2.48.867-.574.873-.488.86-1.49-.02-1.208.064-1.728 1.655-1.975.65-.1 1.022-.26 1.076-.773.09-.863-1.296-2.32-3.02-3.162-.256 0-4.112 3.354-5.19 4.514l-.657.708.786 1.475c1.227 2.298 1.025 3.145.304 6.193-.147.816.482.697.647-.284.217-.92.343-1.253 1.747-1.527zm5.877-8.132c-.296 1.853.663 2.99 1.57 2.07.492-.5.906-4.588.563-5.237-1.86-1.992-2.06 2.722-2.132 3.168zM157.3 227.607c6.916-4.05 15.804-.74 20.812-4.06 2.335-2.574 4.683-4.215 3.36-5.99-1.032-1.382-1.702-1.594-1.702-1.594.073.098-3.65 3.233-9.05 2.508-9-.31-13.256 2.517-13.42 9.136zm11.818-9.64c4.404.152 7.984-.613 9.622-1.89 1.017-.794 1.17-.934-.424-1.062-3.42-.275-6.884-4.24-7.97-8.088-.22-.79-.48-1.65-.48-1.65-9.113 7.273-29.172 18.73-29.172 18.73 1.33 6.19-3.154 9.884-9.23 7.685-1.057-.095-.92 1.266-.72 1.824.33.916 1.065 1.684 1.21 1.807.903.775 1.072 1.287.936 2.03-.135.732-.12.708.393.982.914.49.866 1.186.368 2.622-.536 2.02-.573 2.53.88 3.49 1.868 1.202 5.538 2.516 4.996 4.322-1.228 4.094-3.243 7.618-5.016 11.448-.658 1.06-.517 2.812.002 3.63.643 1.25.568 2.748 1.4 3.897 4.607 6.84 8.574 12.855 12.772 19.032l43.91.415-1.093-101.27s-6.77 6.667-6.75 7.138c.026.562 1.59 1.438 2.263 1.55.028-.304-.004-1.504.083-1.925.062-.61 2.016-.45 2.663.08.452.37.312 2.794-.146 4.767-.375 1.613-.323 1.636.37 2.568.843 1.137 1.135 2.1 1.023 3.385-.06.703-.055 1.26.145 1.725.47 1.095.33 2.637-.185 3.354-.75 1.04-.76 1.198-.6 1.755.615 1.928.386 3.57-1.764 4.404-.275.105-.576.582-.753.992-.937 3.084-2.695 3.08-5.1 2.192-1.703 6.636-8.628 8.304-13.616 8.106-5.197-.204-10.482.186-12.834 3.585.552-8.05 4.155-11.932 12.816-11.63zm15.684-13.37c.883-.33.993-1.252.25-1.843-1.14-.907-2.447.016-1.913 1.328.3.737.805.835 1.663.515zM48 201.67l-3.46-2.397.02 2.147 3.45 2.214-.01-1.964zm6.53 1.764l-2.448-2.938c-7.22-4.415-13.48-9.354-19.482-13.33l-.046 2.723 1.717.866s.147-.6.264-.944c.22-.648 2.206 1.178 2.84 2.64.156.365.5 1.18.5 1.18l2.312 1.276s.034-.656.035-.84c.01-1.392 2.484.525 3.612 2.803.273.553.632 1.14.632 1.14l2.178 1.32c.86-1.173 3.048.434 3.608 1.86.71 1.808 1.96 1.964 2.01 1.97l2.27.276zm-13.032-.396l.005-2.086-3.608-2.373-.047 2.116 3.65 2.344zm148.553.17c.096-.547-.444-2.677-1.255-2.796-.506-.074-1.3.692-1.302 1.228-.003.695 2.456 2.162 2.558 1.57zm-2.934-2.53c.788-.86-.207-1.982-1.41-1.593-1.433.463-.938 1.76.664 1.787.36.006.574-.005.746-.193zm-145.804-1.534l.014-1.988-3.334-2.203-.07 1.943 3.39 2.248zm-6.556-.702l.033-1.914-2.19-1.526v2.293l2.156 1.147zm.08-5.735l-2.237-1.46v2.076l2.336 1.336-.1-1.953zm9.085-6.31c-.23-.614-1.176-2.555-1.176-2.555l-10.146-7.08v2.18l11.35 7.632-.027-.178zm-4.747-16.83l-.12-.886-.902.48 1.023.407zm-2.15.222l-1.418.768 4.286 2.787-.344-1.98-2.523-1.575zm148.845-23.488l1.105-.8-1.952-1.323-.145 1.343.993.78zm1.98-1.273l1.45-1.198-4.856-3.425.344 2.13 3.06 2.494zm3.44-1.79v-1.464l-7.876-5.32.544 2.675c1.39.804 3.086 1.976 4.86 3.223 1.125.792 1.13 1.097 2.473.886zm0-2.71v-2.322l-9.11-6.05.74 2.724 8.37 5.647zm0-3.488l.005-2.434-11.03-7.288 1.207 3.22 9.82 6.502zm0-6.112l-13.904-9.306 1.78 3.566 12.125 8.104v-2.364zm0-3.555l-17.45-11.61 1.96 3.25 15.49 10.476v-2.115zm0-3.774l-.65-.002c-.054 1.664-1.855.457-2.534-1.372-.512-1.226-.626-1.534-.626-1.534l-3.515-2.375c.073.483.277 1.86.277 1.86l-2.368-1.444s-.684-2.288-.706-2.304l-4.045-2.75c.087.47.155 1.24-.108 1.294 0 0-1.23-.524-1.792-1.343-.585-.85-.674-1.708-.674-1.708l-3.3-2.136-.822.09s-.445-.303-.863-.642c-.782-1.4-1.698-1.61-2.794-2.18 0 0 2.323 2.71 3.564 4.312 1.14 1.48 2.522 2.535 2.522 2.535l18.437 12.3v-2.6zm0-3.794l-1.424-.855.104 2.247 1.32.897v-2.288zM47.56 114.864c.087-.14-.277-.303-.678-1.184-.992-2.182-1.09-2.942-.56-5.234.253-1.094-.74-1.562-1.197-.396-.355.907-.907 1.418-1.436 1.352-.5-.062-.605.146-.39.835.266.953-.31 2.194-1.108 2.533-.808.207-.955.72-.728 1.46.376 1.228-.95 2.27-1.993 2.21-1.61-.093-.978 1.374.964 2.77.72.518 1.04.797 1.605.536 1.47-1.39 4.2-3.377 5.52-4.882zm139.774 4.5l-.08-2.14-4.053-2.737.5 2.865 3.634 2.013zm3.955-.898v-2.157l-1.67-1.072.087 2.293 1.582.936zm-152.514-3.34c.388.392.773.428 1.39.057.712-.37.44-.934-.304-1.3-.696-.364-1.668.748-1.086 1.242zm-1.21-.946c-.055-.452.496-1.06.877-1.083.832-.05.685-.494-.268-1.07-.446-.27-1.237-.9-1.526-1.11-1.424-1.034-2.8.56-1.742 1.908.884 1.128 2.19 1.798 2.658 1.355zm149.368 1.337l-.314-2.384-3.66-2.432.29 2.625 3.684 2.192zm-133.03-5.81c.2-.33.26-.645.24-1.044-.076-1.5-.85-3.262-1.933-4.736-.806-1.098-1.784-2.035-2.775-2.586-2.8-1.438-6.534-.82-5.99 1.035.387 1.252.297 2.302-.778 2.932-.73.43-.824 1.006-.052 1.007.562 0 2.05-.514 2.67-1.492.877-1.377 1.377-2.18 1.18.07-.08.94.037.87 1.495.796 1.98-.103 1.61.27.455 1.16-1.684 1.297-2.018 3.492-1.168 5.358.526 1.155.89 1.77 1.575 1.615 1.48-.97 3.897-2.926 5.082-4.112zm126.566 2.783l-3.602-2.37.142 2.536 3.89 2.295-.43-2.46zm-138.232-2.32c-1.32-1.667-2.87.46-1.868 1.392.726.638 2.56-.016 1.868-1.393zm-3.122.23c-.165-.518.79-1.352.94-1.684.437-.965-3.473-3.65-4.69-2.06-.837 1.098-.256 2.194 2.003 3.695 1.364.907 2.017.906 1.746.05zm141.003-1.607l-3.33-2.073.058 2.19 3.536 2.132-.265-2.25zm-5.87 1.96v-2.237l-3.354-2.338-.055 2.315 3.41 2.26zm-130.4-2.644c.608-.603.403-.798-.774-.737-.743.038-.97-.086-1.02.255-.112.753 1.17 1.1 1.794.48zm-2.79-.847c.06-.155-.36-.46-1.048-1.037-1.31-1.1-1.46-1.782-.2-2.64 1.798-1.22-.086-2.955-2.17-2.25-1.686.57-1.69 2.267-.69 3.358 1.37.914 3.86 3.55 4.107 2.57zm133.19-2.236l-3.3-2.262v2.203l3.3 1.924v-1.865zm-132.57.144c1.47-.748 1.548-2.626.076-1.938-.606.284-1.4 1.053-1.404 1.4-.004.677.578.92 1.328.54zm1.078-4.31c1.904-1.022 1.613-1.974-.284-3.162-2.315-1.327-3.938 1.22-2.03 2.95 1 .907 1.23.795 2.314.212zm2.47-1.845c3.096-3.326 5.148-3.156 9.235-3.067 10.543.095 13.774-4.943 13.44-8.477-5.123 2.545-9.696 1.18-14.572 1.916-8.413 1.878-9.4 5.835-9.987 8.1l1.886 1.53zm42.265-11.33c2.717.024 2.595.107 1.478-2.126 2.646.36 3.713 1.628 2.84-1.004 1.402.5 2.243.885 3.69 1.362l.92-.533c-5.595-5.445-11.8-.832-10.165 4.66l2.078-.992-.84-1.368z"/><path fill="#D40000" d="M101.15 286.737l1.3-6.305 11.615.564s1.35 3.957 1.895 5.74h-14.81zm-26.82-.154l6.16-10.176 8.75 2.374-2.013 7.956-12.898-.153zm17.02.154L94 275.873c-5.006-1.102-9.728-1.826-15.252-3.317l-8.968 14.17-5.396-.145c4.648-6.192 13.14-18.7 13.14-18.7 19.472 6.7 39.104 7.83 58.87 4.292 0 0 7.282 9.606 9.893 14.816l-5.136-.252-6.38-10.686c-4.443.48-8.813 1.073-13.45 1.267l3.176 9.42h-5.1l-2.894-9.393c-5.562-.216-10.234.22-16.898-.824l-2.35 10.21-5.904.007zm36.75.003l-1.758-6.68 6.268-.732s2.907 5.094 4.5 7.408l-9.01.004zm-56.247-62.065c7.796-11.85 35.326-50.05 35.326-50.05l4.008.383s-24.45 34.102-36.327 51.397l-3.007-1.73zM32.1 206.243l9.6 6.912.07 53.817-9.756 6.866.086-67.595zm39.853-88.045l5.812 11.373c-24.69 23.394-19.847 50.845-6.62 70.425 0 0-1.71 4.38-5.437 9.032-17.896-11.802-23.34-42.475-23.203-42.803 19.722-17.59 22.38-23.193 29.448-48.026zm100.896 83.837c1.273-17.32 9.745-28.64 19.237-35.557l.485 17.616c-6.213 5.965-12.785 12.123-19.723 17.94zm-25.782-17.445c21.624-20.194 22.36-48.872 6.608-69.923l6.446-9.002c9.138 9.78 18.1 20.027 21.913 43.844-13.694 10.793-25.795 28.63-29.014 46.633l-5.952-11.553zm-29.796-23.496l-.04-8.253 8.088-.04-.23 8.24-7.818.054zm-17.098-.064l-.116-8.225 7.996.06-.125 8.336-7.756-.17zm13.847-22.02s26.803-37.517 37.322-51.06l2.235 1.646-35.644 49.622-3.912-.21zM51.42 112.773c-.026 14.802-9.515 26.53-19.206 34.183l.132-16.852 19.074-17.33zm140.818-71.427l.057 65.698-9.058-5.454.768-55.094 8.233-5.15zm-43.172 3.89c-20.446-5.315-39.074-6.906-58.656-2.71-2.553-3.043-11.13-15.72-11.13-15.72l4.95.072 7.007 11.213 13.348-1.744-3.437-9.123 5.503.024 2.74 8.946c-.028-.07 10.858.107 16.91.824.96-3.322 2.75-9.922 2.75-9.922l6.062-.004c-.778 3.172-2.87 10.718-2.87 10.718 4.965.69 14.174 3.03 14.26 3.133 3.23-4.566 6.232-9.133 9.154-13.7l5.907-.027c-1.74 2.947-12.172 18.166-12.5 18.02zm-3.773-7.874l-9.032-2.106 2.358-7.96 12.626-.008-5.95 10.073zm-51.87-2.88l-4.2-7.388h8.08l2.677 6.507-6.557.88zm18.345-1.505l-1.224-5.883h14.678l-1.5 6.267-11.953-.384z"/><path d="M78.21 26.6L91.26 45.437c.06-.06 7.313-1.444 14.444-1.794 7.088-.347 15.54.096 15.612.31 0 0 2.23 6.735 2.987 10.043.998 4.418.894 9.504-.16 12.878-1.544 4.944-2.36 6.428-5.81 9.823-2.557 2.48-6.172 5.178-9.9 6.62-5.166 2.156-5.692 2.145-8.736 2.287-2.014.094-2.22.172-3.32.743-.34.118-.56.473-.863.574-.255.087-.738-.01-.738-.01-16.79 7.358-29.933 15.563-39.86 22.89-.116.086-.19.465-.302.557-.812.664-1.562 1.168-2.354 1.775-.108.084-.353-.065-.46.018-11.682 9-18.3 16.296-20.732 18.402l.238 41.902s5.32-2.732 8.047-4.397c1.915 16.224 10.007 31.984 22.783 42.93l-5.542 7.642-25.543-17.587.354 77.312 13.58-9.43v-8.156c4.047 2.725 7.997 3.787 10.87 16.198 2.298-4.36 2.097-10.853 1.067-15.19.017 0 3.447-2.836 4.5-5.01l-5.048-4.475s1.307-10.84-1.073-13.023c-1.883 4.92-3.384 10.134-10.42 13.93l-.087-37.66c3.507 2.222 6.823 4.724 10.29 7.002l.477-.096 3.586 2.457s-.38.77-.728 1.295c-4.357 6.61 2.903 14.716 8.81 9.838 2.313-1.91 6.653 6.03 7.473 13.67.834 4.934 1.282 11.06 2.623 15.345.416 1.252.254 1.953-.63 2.712-4.526 6.368-13.624 19.2-13.624 19.2h6.555l.476-.75h-4.833c4.162-5.54 8.134-11.992 12.45-17.398 16.09 6.056 42.444 7.454 58.36 3.782 3.287 4.61 6.483 9.442 9.644 14.14h-4.576l.63.983h6.192l-13.043-19.202c-8.99 2.675-30.908 1.633-30.51 1.41 0 0-.06-.148-.818-2.326-3.764-12.147-4.11-22.93 5.328-31.643 5.015-4.46 10.615-7.4 16.87-6.843 2.795-.055 2.85-.206 4.014-.732.643-.29 1.974-.59 1.974-.59l6.336-3.515.835-.167 1.822-.96.377-.446 2.943-1.496.33.028 3.98-2.29.054-.323 1.566-.965.373.393c.434.036 15.604-9.92 21.93-15.468l.394.146c7.388-5.978 17.434-15.402 20.413-18.98l-.16-17.937-.252-.22-.1-19.86h-.578l-.024-2.45c-3.267 1.21-6.86 4.246-7.104 4.12-2.08-16.815-9.822-32.305-22.474-43.678l5.387-7.438 25.015 16.83.068-4.917h.31c.308-18.854.476-67.722.476-67.722l-.247-.024-.006-3.9-12.786 8.163-.18 8.247c-5.67-1.852-9.26-8.66-10.448-14.73-1.652.662-2.42 7.054-1.81 15.147-1.75 1.047-2.873 2.19-3.946 3.574 1.388 1.748 2.93 3.182 4.627 4.648-.354.764-1.103 11.564-.36 12.904.342.988 1.522.848 1.53-.192 1.724-8.424 9.713-13.952 10.16-13.442l-.194 38.84-14.194-9.95c2.98-3.364 3.607-9.04-.146-11.817-3.765-2.784-7.45-.422-8.32 1.35-4.608-3.005-6.16-14.133-6.832-18.49-.168-2.118-.71-4.996-1.34-7.593-.392-1.627-.86-3.183-.92-4.64-.026-.687.055-.983.68-1.843l13.8-19.58-7.046-.024-.068.122 5.542.014-12.446 17.674c-18.724-5.883-38.138-7.305-58.907-3.573l-10.26-14.43 4.663-.02-.186-.313H78.21zm10.826.165l.198.354 8.063-.024-.12-.3c0-.002-8.124-.03-8.14-.03zm11.957.044l.154.426 5.503.02-.17-.418-5.487-.03zm28.093.15l-.056.192 6.063.01.054-.193-6.06-.01zm-18.58.004l.06.247h14.626l.054-.232-14.74-.014zm28.166.13l-.058.204 12.626-.01.106-.193h-12.674zm53.274 10.77l.04 2.657-8.48 5.393c-.214 11.366-.54 55.086-.54 55.086l-2.03-1.334.396-54.747c0-.002 7.503-4.824 10.614-7.056zM169.69 40h.286l.087.617h-.494l.12-.616zm.6 1.607l.224.834-1.24-.004.207-.805.81-.023zm21.408.43v1.736l-7.317 4.572v-1.72l7.318-4.587zm-22.585 1.446l1.915.024.32.96h-2.41l.175-.984zm-46.995.514l1.28.19c2.932 6.997 3.69 13.006 4.2 19.258 1.168 8.114 3.526 16.248 5.168 19.705l-1.877-.02c-.218-.028-4.18-11.775-5.005-18.71-.22-1.375-.133-2.65-.203-3.924-.417-5.362-1.15-9.392-3.564-16.5zm2.406.283l1.634.167c1.142 4.97 2.806 9.658 3.48 14.65 1.082 7.982 1.66 16.136 5.51 24.005l-1.527-.015c-2.336-5.32-3.78-10.87-4.712-16.868-.73-3.442-.735-6.025-1.12-9.137-.47-3.734-1.91-8.483-3.264-12.803zm2.482.23l1.635.243c1.075 4.934 2.92 10.363 3.41 14.823.994 9.082 2.42 17.544 5.284 23.55l-1.145-.034c-4.427-8.572-4.497-16.21-5.737-24.243-.73-4.733-2.277-9.464-3.447-14.34zm2.605.384l1.445.224c1.004 4.908 2.806 10.464 3.225 15.442.742 8.813 2.305 15.485 5.586 22.6l-1.354.025c-3.96-6.93-4.492-15.436-5.726-24.05-.68-4.76-2.216-9.547-3.175-14.24zm62.088.01v2.148l-7.317 4.698v-2.12l7.318-4.726zm-59.726.417l1.508.234c.97 4.733 2.778 9.786 3.205 14.396.73 7.877 2.178 15.833 5.426 23.162l-1.39.087c-3.437-7.4-4.932-14.138-5.582-22.644-.365-4.77-2.2-10.584-3.166-15.235zm39.85.025l.524 1.275-3.506.17.044-1.43 2.94-.015zm-37.368.446l1.794.35c1.9 7.552 2.398 14.7 3.692 21.88 1.618 8.917 3.322 13.4 4.715 15.062l-1.483.05c-3.62-7.723-4.904-15.4-5.746-23.353-.496-4.693-2.035-9.317-2.972-13.99zm2.735.51l1.366.276c1.63 6.172 2.365 11.944 3.083 17.53 1.303 10.61 4.838 18.68 5.59 19.054l-1.507-.068c-3.27-4.52-4.482-12.215-6.09-23.075-.707-4.774-1.41-9.265-2.444-13.717zm2.2.44l1.532.38s1.38 5.43 2.425 12.635c.87 6.006 1.326 17.822 7.854 24.617 3.26 3.393 9 6.34 12.918 3.137 1.674-1.427 2.752-3.714 1.746-6.158-1.692-4.094-7.42-3.393-5.514.9.214 1.03-1.132 1.075-2.07.07-.985-1.075-.74-2.3-.04-3.427 1.473-2.374 5.416-2.617 7.73-.497 3.698 3.622 2.098 9.837-2.585 11.807-5.394 2.292-12.346-2.438-15.1-6.953-4.553-7.863-5.26-15.33-6.326-23.27-.543-4.286-1.59-8.788-2.57-13.24zm2.308.636l1.556.38c.006.02 1.705 7.652 2.27 12.174.697 5.59 1.467 12.173 3.86 17.257 1.487 3.16 3.652 5.82 5.842 7.37 1.883 1.332 3.57 2.174 6.075 1.63 2.893-.63 3.018-5.105.26-5.116-1.41-.005-.493-1.362.678-1.4 4.157-.138 4.278 6.417.363 7.88-4.48 1.674-9.328-1.482-12.33-5.446-5.25-8.154-5.043-15.592-6.196-22.168-.308-3.465-2.26-12.397-2.376-12.56zm31.463.23l.95 1.27-5.28-.024.025-1.208 4.306-.04zm-29.144.42l1.488.52c.042 0 1.493 5.925 2.396 12.927 1.07 6.75 1.42 12.37 4.917 17.247 1.454 2.028 4.2 4.734 5.93 5.057 1.07.23 2.18-.005 2.453-.82.446-1.333 1.59-.72 1.615.49-.006.848-.627 1.727-1.678 2.032-5.14.89-9.842-5.563-11.27-8.835-1.932-4.76-2.76-10.078-3.597-16.7-.355-2.803-2.05-11.74-2.254-11.918zm47.682.238l-.024 2.14L184.38 55v-2.08l7.318-4.656zm-45.442.417l1.668.457s1.39 5.21 2.22 11.646c.843 6.527 2.65 14.11 6.027 18.032.31.376.52.643.65.863.242.533-.045 1.434-.295 1.436-6.018-3.132-7.44-15.714-7.957-19.968-.76-6.578-2.312-12.465-2.312-12.465zm23.4 1.01l5.31.15 1.266 1.246-7.03-.063c-.744-.766-.282-.678.454-1.333zm22.042 1.735V53.2l-7.317 4.635v-1.813l7.318-4.597zm-21.858.563l7.768.136 2.725 1.62-11.87-.098 1.377-1.658zm21.858 2.25v2.13l-7.317 4.586v-1.998l7.318-4.718zm-24.733.402l13.198.14.033 1.432-14.313-.37 1.082-1.202zm-1.722 2.448l14.93.04.038 1.58-13.575-.13-1.392-1.49zm26.455.243v2.222l-7.317 4.533V61.98l7.318-4.65zM168.05 59.66l11.444.054-1.242 1.323-8.63-.087-1.57-1.29zm23.648.78v2.096l-7.317 4.602V65.07l7.318-4.63zm-15.036 1.6l-1.387 1.35-5.93-.083.203-1.227 7.114-.04zm15.036 1.47v2.245l-7.317 4.47V68.28l7.318-4.772zm-22.435.82l4.893.106-.747 1.027-4.282.02.135-1.153zm-43.997 1.788c.737 5.647 4.836 17.033 4.834 17.03l-1.614.014c.08.108-2.93-7.172-4.015-14.032-.13-.655.316-2.862.796-3.012zm43.677.326l3.768.068-.818 1.454-3.07-.005.12-1.518zm22.755.344v1.963l-7.317 4.5v-1.79l7.318-4.674zm-22.876 1.988l2.497.078-.592 1.348-1.935-.058.03-1.368zm22.876 1.057v2.096l-7.317 4.538v-2.02l7.318-4.613zm-67.974.447c.735 4.113 3.854 12.375 4.093 12.918l-1.383.02c-.062.187-3.243-7.408-3.583-10.658-.162-.682.198-2.028.874-2.28zm45.073.873l1.48.068-.253.77-1.198.03-.03-.868zm.13 1.852l.772.02-.186.73h-.48l-.106-.75zm22.77.04v1.69l-7.316 4.63V77.76l7.318-4.72zm-69.806.183c1.11 3.298 2.22 6.657 3.536 9.872l-1.64-.04c-1.085-2.317-1.85-4.923-2.695-7.48-.232-1.067.265-1.98.8-2.352zm-1.633 2.2l2.725 7.614h-1.547c-.636-1.532-1.353-3.244-1.854-4.82-.512-1.635-.465-1.69.677-2.794zm71.44.477v2.008l-7.316 4.528v-1.73L191.7 75.9zm-72.58 2.945l1.493 4.216-1.91-.048c-.56-1.327-.902-2.486-1.043-3.778-.052-.627-.166-1.252.272-1.516.862-.487.765-.085 1.187 1.127zm-2.03 1.726l.794 2.472-1.783-.045c-.524-1.168-.726-2.01-.567-3.23 1.073-1.24 1.153-.592 1.557.803zm74.61-1.452v2.1l-7.316 4.398v-1.95l7.318-4.547zm-77.142 1.51l.747 2.433-1.61-.038c-.267-.57-.097-1.267-.106-1.91l.97-.486zm-2.11 1.245c.024 0 .045.007.055.02.23 1.077.005 1.145.02 1.135l-2.25-.015s1.823-1.157 2.176-1.14zm79.253.63v1.678l-7.317 4.563v-1.702l7.318-4.54zm-87 2.657l43.968.126 1.465 2.07s-4.276.117-18.29.03c-11.794.15-35.496-.253-35.496-.253l2.308-1.086c3.19-.075 6.09-.904 6.046-.888zm87 .248v1.847l-7.317 4.432V89.9l7.318-4.49zM67.974 87.183c-3.536 1.566-6.835 1.952-9.3 1.752-5.31-.43-13.433 1.79-15.065 6.89-.514 1.802-.52 1.852.455 2.77.483.455.952.8 1.042.766.854-.757 1.986-2.163 3.2-2.573 1.596-.482 2.46-.55 5.076-.665 5.637-.25 6.91-.486 8.312-.857 3.085-.817 6.196-3.852 6.383-7.233.02-.39-.104-.85-.104-.85zm-.15.463c-.596 7.054-8.238 7.973-11.594 7.77-6.806-.406-9.486 1.626-10.563 2.888-.355.338-.562.258-.506-.05.79-3.905 7.103-4.053 10.28-4.01 7.786.354 9.76-3.4 9.538-3.437-.59.266-1.028.498-1.627.782-.257.106-.202-.05-.876-.44-.01.05-.78 1.797-1.773.14.026.084-.707 1.472-2.065.175.01.14-.82 1.33-2.147.112-1.248 1.07-1.843.48-2.38-.27-.393.235-1.55 1.797-2.514.116-1.028.654-1.456 1.362-2.34.935-2.064.37-3.85 2.486-4.578 4.427-.227.666-.686.77-.74.038-.246-2.023 3.084-5.528 6.428-6.497 2.6-.753 4.372-1.296 10.087-1.078 3.248.124 7.373-1.602 7.373-1.602zm83.412.533l2.06 1.395-35.865 49.452-3.165-.083 36.97-50.765zM93.7 88.21h4.078v6.74h-3.516l-1.256-1.867c.325.19.702.306 1.105.306 1.208 0 2.188-.98 2.188-2.186 0-1.207-.98-2.182-2.187-2.182-1.205 0-2.186.975-2.186 2.182 0 .107.01.212.024.315l-1.314-1.95s.56-.333 1.892-.927c.345-.153 1.174-.43 1.174-.43zm12.57 0h6.908v6.74h-6.91v-6.74zm15.136 0h7.15v6.784l-7.15-.044v-6.74zm15.443 0h7.146v6.74h-7.147v-6.74zm54.74.16l.108 2.104-7.317 4.446v-2.08l7.21-4.47zm-51.43.7c-1.276 0-2.317 1.03-2.317 2.308 0 1.276 1.04 2.312 2.318 2.312 1.277 0 2.313-1.036 2.313-2.312 0-1.278-1.035-2.31-2.312-2.31zm-30.42.12c-1.277 0-2.313 1.03-2.313 2.31 0 1.275 1.036 2.31 2.313 2.31 1.276 0 2.312-1.035 2.312-2.31 0-1.28-1.035-2.31-2.312-2.31zm15.07.044c-1.276 0-2.312 1.03-2.312 2.308 0 1.277 1.036 2.313 2.312 2.313 1.277 0 2.312-1.036 2.312-2.313 0-1.277-1.035-2.308-2.312-2.308zm7.787.276c1.07 0 1.94.868 1.94 1.94s-.87 1.938-1.94 1.938-1.94-.868-1.94-1.94.87-1.938 1.94-1.938zm-30.658.03c1.07 0 1.938.867 1.938 1.938s-.868 1.94-1.94 1.94S100 92.55 100 91.48s.867-1.94 1.94-1.94zm45.955.067c.46 0 .88.175 1.197.46l-2.113 2.87c-.524-.312-.874-.883-.874-1.537 0-.99.8-1.794 1.79-1.794zm-30.363.008c1.07 0 1.94.868 1.94 1.94s-.87 1.938-1.94 1.938c-1.072 0-1.94-.868-1.94-1.94s.868-1.938 1.94-1.938zm-23.42.14c.8 0 1.446.647 1.446 1.446s-.646 1.45-1.445 1.45-1.45-.65-1.45-1.45.65-1.445 1.45-1.445zm-4.436.08c12.322 15.69 18.87 31.6 21.75 48.937l-2.064-.097c-3.424-18.855-11.133-35.028-21.586-48.08l1.9-.76zm50.485.014c.846 0 1.533.682 1.533 1.527 0 .844-.688 1.53-1.532 1.53-.845 0-1.53-.687-1.53-1.53 0-.847.686-1.528 1.53-1.528zm-30.42.12c.845 0 1.532.683 1.532 1.528s-.688 1.532-1.532 1.532c-.846 0-1.532-.688-1.532-1.532 0-.845.687-1.527 1.532-1.527zm15.07.044c.845 0 1.532.683 1.532 1.527 0 .846-.688 1.532-1.532 1.532s-1.532-.687-1.532-1.532.687-1.527 1.532-1.527zm38.344 1.097c.812 6.21-.79 10.22-5.527 10.87-6.04.83-6.822 1.284-6.856 7.002-.04 6.777-1.04 8.734-5.842 9.27-5.4.604-6.656 1.243-6.172 7.958.354 4.9-1.578 6.984-5.736 7.894-3.252.71-6.067 1.8-7.273 5.076l-2.972.04c.77-5.162 5.96-7.627 9.285-7.798 3.585-.85 4.334-2.052 3.753-8.335-.438-4.73 1.3-6.167 6.856-7.248 4.44-.876 5.53-2.15 5.288-5.785-.52-7.79-.006-8.963 4.423-9.91 2.257-.535 5.932-.774 7.332-2.498 1.593-1.96 1.187-3.63 1.042-6.037l2.4-.5zm28.544.208v2.037l-7.317 4.515V95.89l7.318-4.57zM84.158 92.53c-1.565 6.755 3.814 8.224 7.09 9.363 3.808 1.327 4.732 3.25 4.3 9.96-.327 5.077.232 6.2 3.52 7.942 5.03 2.595 6.38 6.282 4.146 11.68-1.378 3.33-.654 4.263.218 7.167l-2.438-.024c-.18.056-2.237-3.624-.48-7.584 2.082-4.692 2.023-7.048-2.618-9.16-3.59-1.633-4.693-3.173-4.917-6.535-.095-1.415-.085-2.12.247-5.197.417-3.88-.966-5.55-6.7-7.68-2.557-.95-4.293-3.16-4.816-6.668-.145-.98-.013-2.114-.013-2.114l2.46-1.15zm85.784.732l21.814 14.513-.15 3.23-23.143-15.463 1.48-2.28zm-14.057.32c1.056 0 1.91.855 1.91 1.91s-.854 1.91-1.91 1.91c-1.055 0-1.91-.855-1.91-1.91 0-1.054.855-1.91 1.91-1.91zm-68.63.834c.96 0 1.732.773 1.732 1.73 0 .958-.773 1.736-1.73 1.736s-1.735-.778-1.736-1.736c0-.956.778-1.73 1.736-1.73zm104.38.203l-.072 1.944-7.182 4.442v-1.944l7.255-4.44zm-113.838 1.36c6.596 8.597 13.08 17.455 18.08 34.148l-2.133.82c-4.128-13.437-10.48-24.6-17.965-33.83l2.017-1.14zm17.23-.084h49.697l-1.275 1.717-47.48-.486-.943-1.23zm96.67 1.614v2.13l-5.503 3.35-1.62-1.057 7.124-4.423zm-116.82.23l.976 1.28s-1.056.827-2.25 1.682c-3.254 2.326-3.677 2.59-3.894 4.105-.516 3.6 3.184 5.373 6.898 3.292 1.332-.608 4.253-2.458 4.253-2.458l.84 1.235s-4.187 3.132-6.644 3.845c-5.39 1.566-9.413-5.264-5.43-9.32.608-.618 1.895-1.45 2.918-2.112 1.052-.68 2.334-1.552 2.334-1.552zm22.184.847l45.792.27-29.242 39.97-1.3-.073c-2.267-14.95-7.89-28.01-15.25-40.166zm-19.966 1.693l2.676 3.738s-1.745 1.668-4.625 3.243c-2.31 1.264-4.81-1.033-3.355-3.103 1.49-2.055 5.304-3.878 5.304-3.878zm114.604.382v1.948l-3.172 1.944-1.45-.927 4.622-2.966zm-114.94 1.497c-1.27.067-3.374 1.507-4.092 2.75-.308.533-.197.98.088 1.348.433.557.945.525 2.468-.286 3.11-1.658 3.692-2.643 2.322-3.613-.188-.135-.415-.194-.67-.2h-.115zm-.1.8c.2-.02.432.042.624.024.538.222.373.89-.188 1.048-.124-.194-1.057-.22-.994.728-.228.538-.218.496-.902.572-.453-.11-.755.204-.844.402-.472.253-1.05.174-1.158-.11-.104-.277.283-1.074.61-1.072.158.013.438-.223.728-.417-.01-.518.6-.593.775-.59.173.035.756.043 1.037-.433.08-.1.19-.138.31-.15zm115.04.466v3.006l-2.3-1.47 2.3-1.537zm-127.056.378c8.34 9.85 14.346 20.33 18.17 34.834l-1.674 1.154c-2.527-10.17-6.417-20.916-17.926-34.887l1.43-1.1zm97.57.166c3.776 3.207 19.25 17.77 22.198 43.62l-2.07 1.27c-1.663-13.644-7.03-29.285-21.465-43.15l1.338-1.74zm-7.46.897c1.054 0 1.91.855 1.91 1.91 0 1.056-.856 1.91-1.91 1.91-1.057 0-1.912-.854-1.912-1.91 0-1.055.856-1.91 1.91-1.91zm-92.432.747s1.753 1.802 1.75 2.23c-.005.85-.68 1.33-4.708 2.798-.68.248-3.655.934-3.655.934l-.108-1.443c1.518-.55 5.593-1.525 5.892-2.39.146-.342-.58-1.203-.427-1.203l1.255-.927zm27.785.367c.958 0 1.73.778 1.73 1.735 0 .958-.772 1.736-1.73 1.736s-1.736-.778-1.736-1.736c-.002-.957.777-1.735 1.735-1.735zm70.193.496c12.605 12.313 19.543 27.528 21.164 43.24-14.68 11.94-24.654 26.95-28.617 45.73-1.958-3.265-3.624-7.02-5.436-10.688 19.59-17.214 23.71-48.216 6.77-69.947l6.118-8.335zm-77.095 2.347l.882 1.367s-.184.168-2.93 1.872c-4.013 2.49-4.675 4.115-3.335 6.666 1.37 2.607 2.898 2.746 7.21.66 1.523-.738 2.817-1.514 2.817-1.514l.688 1.43s-1.93 1.57-5.648 2.934c-3.497 1.282-6.803-.9-7.424-4.94-.452-2.936.83-4.51 5.93-7.404.575-.305 1.81-1.072 1.81-1.072zm60.066.65c1.055 0 1.91.854 1.91 1.91 0 1.055-.855 1.91-1.91 1.91-1.056 0-1.91-.855-1.91-1.91 0-1.056.854-1.91 1.91-1.91zm-77.9.072l1.153 1.088s-.498.73-3.34 2.442c-2.557 1.537-2.82 1.288-1.547 2.363 2.372 2.004 5.662 6.44 5.645 7.587-.016 1.104-1.005 2.123-2.9 2.977-1.04.466-5.15 1.932-5.754 2.037-1.2.13-1.538.612-.337 1.703 2.038 2.34 3.777 7.344 3.078 8.87-.788 1.72-1.732 2.01-9.284 2.356-.86.04-1.27-.204-.805.896.338.8.692 1.9 1.366 5.295.6 3.028.497 4.39-.68 5.014-.675.36-5.927.233-8.097-.193-2.484-.487-2.755-.52-2.353 1.096.52 2.233.846 8.218-.844 9.373-.703.457-1.46.345-4.543-.693-1.967-.662-3.67-1.42-3.67-1.42l.033-1.857c1.604.66 6 2.558 7.25 1.958 1.48-2.123-.577-9.57-1.363-11.166-.95-1.904.043-2.32 2.23-1.14 1.147.81 11.036 4.708 10.474 1.22-.603-3.31-1.678-7.077-3.764-9.443-1.93-2.188-.97-3.083 1.178-2.123 3.8 1.697 11.65 1.28 11.26-.48-.517-2.86-3.117-6.74-6.675-9.748-.99-.837-1.027-1.195.14-1.4 3.324-.265 12.835-1.242 11.506-3.475-1.142-1.83-2.666-3.85-3.964-4.938-2.13-1.786-4.28-2.562-5.232-2.934l.06-1.37c4.334-.358 6.586-1.662 9.775-3.896zM54.88 110.89c-1.554 16.283-8.365 29.7-22.426 39.057l-.077-1.823c12.36-9.285 18.294-22.48 19.902-35.25l2.6-1.984zm29.955 1.023c.006 0 .01.002.01.005 0 0 2.262 4.067 2.26 4.437-1.343 1.244-4.867 3.065-6.31 2.638-2.223-.71-2.57-3.08-.436-4.48 1.845-1.343 4.143-2.512 4.452-2.594.01-.005.02-.007.025-.007zm-18.017-.254l1.156 1.036s-.298.45-1.962 1.78c-1.295.998-.843.605.04 1.79.784.94 2.18 2.832 2.18 2.832l-.416 2.517c-1.463-2.084-2.677-3.6-4.85-5.828-1.102-1.137-1.04-1.168.534-1.988 1.18-.653 2.142-1.446 3.318-2.14zm31.564 1.62c.958 0 1.73.774 1.73 1.73 0 .96-.772 1.737-1.73 1.737-.957 0-1.735-.778-1.735-1.736 0-.955.777-1.73 1.734-1.73zm-14.022.146c-1.65.436-3.27 1.91-4.18 2.56-.33.237-.07 1.425.248 1.833.408.523 1.16.437 2.06-.063.378-.21 1.06-.552 1.514-.762 1.27-.586 1.802-1.023 1.755-1.513-.205-.658-.725-2.104-1.398-2.056zm.092.75c.464.02.798.618.65.972-.797.43-1.238.065-1.136.67 0 0 .08.937-1.086.96-.284-.125-.778-.104-1.02.14-.813.337-1.524-.376-.64-.78.24-.11.832-.295.995-.66.084-.452.458-.813.867-.562.22.016.706.05.863-.296-.06-.388.216-.42.412-.437.034-.005.063-.007.094-.006zm-33.327-.12c.356 1.828-.746 5.038-1.37 6.847-3.698 4.837-9.06 7.31-14.158 9-1.134.375-2.656.186-2.656.186 7.054-7.26 13.103-12.58 18.183-16.033zM38.24 115.7c.05-.407-1.81-.9-1.987-.646-.344.322-.89 5.363-.533 5.727.495.505 1.863.644 1.993.043.428-1.978.323-3.455.528-5.123zm31.62-.15l1.207 1.498c-2.558 24.295-19.912 45.312-38.44 53.646l-.054-1.61c21.196-11.133 33.953-29.67 37.287-53.534zm83.858.102l2.298 3.16-3.292.103.994-3.263zm-116.09.587c-.02.83-.114 2.556-.435 3.52-.2.75-.78.578-1-.112-.227-.718-.036-2.757.394-3.593.458-.788.822-.656 1.04.184zm17.537.44c1.137 0 7.174 3.715 6.367 5.565-.643 1.473-5.695 1.592-8.012 1.386l.35-1.418s.705.246 3.396-.04c2.827-.187 2.62-1.158-.62-3.21-1.395-.872-1.718-1.087-1.718-1.087l.237-1.195zm16.73 1.992c1.87 3.153 3.642 6.706 5.306 10.687-22.824 21.537-21.053 50.87-6.66 70.12l-6.203 8.37c-12.4-11.83-19.15-26.386-21.43-41.845 18.097-13.02 26.602-32.453 28.99-47.333zm84.76.955l1.363 2.604-3.272-.053 1.91-2.55zm-14.132 1.305c1.055 0 1.91.855 1.91 1.91s-.855 1.905-1.91 1.905c-1.056 0-1.91-.85-1.91-1.905 0-1.055.854-1.91 1.91-1.91zm-53.11.514l.65 1.48c.03.184-4.618 1.65-6.114 3.538-1.383 1.742-1.253 3.56-.476 4.814 1.325 1.788 2.265 2.038 4.5 1.354 1.822-.56 3.16-1.313 4.97-2.235l.286.746c.002-.04-2.596 1.526-4.578 2.643-.743.42-1.64.596-2.414.577-4.51-.108-6.9-5.927-3.18-9.362.543-.503 2.386-1.512 3.936-2.312 1.033-.533 2.42-1.242 2.42-1.242zm59.694.917c14.887 21.472 4.695 45.002-4.916 53.326l-.257-2.527c16.185-18.436 10.556-39.965 3.812-49.535l1.362-1.265zm9.58.964l1.17 2.652-3.457-.365 2.288-2.288zm-60.004.87c.957 0 1.735.777 1.735 1.735 0 .957-.778 1.73-1.735 1.73-.958 0-1.73-.773-1.73-1.73-.002-.958.772-1.736 1.73-1.736zm48.65.337c13.047 18.955 5.77 49.18-19.12 58.39l-.125-2.12c25.377-10.61 27.87-38.854 17.673-54.79l1.572-1.48zm-56.56.117l1.647 4.452c-2.074 1.39-2.888 1.626-5.212 2.19-1.832.42-3.26-2.747-1.853-3.96 1.606-1.384 3.336-1.983 5.417-2.68zm-42.32.015c.306-.015-.02.745-.806 2.652-1.735 4.202-1.852 4.292-6.22 4.984-2.275.36-3.97.452-5.587.297-2.438-.234-3.48-.924-1.9-1.256 4.58-1.006 9.646-3.38 12.94-5.677.86-.615 1.362-.988 1.572-.998zm82.934.518c1.186 0 2.148.963 2.148 2.147s-.963 2.144-2.148 2.144-2.143-.96-2.143-2.144.958-2.147 2.143-2.147zm-64.863.594l-.184 1.653s-2.647 1.397-3.9 1.926c-.958.388-1.023.474-.717 1.36.62 1.773 1.813 3.972 1.813 3.972l-1.105 2.506c-.675-2.254-1.385-4.635-2.627-6.734-1.177-1.642-1.396-1.847.436-2.19 2.365-.797 4.206-1.373 6.284-2.493zm23.637.537c-1.295.057-3.998 1.146-4.267 2.187-.15.59.017 1.412.515 1.597 1.346.5 4.048-.608 4.76-1.62.224-.31-.114-.958-.353-1.362-.18-.31-.147-.824-.654-.8zm.07.887c.022-.002.044 0 .067 0 .22-.02 1.018.992.12.907-.31-.03-.59.086-.843.35-.03.485-.727.67-1.062.504-.25-.122-.6.132-.635.282-.504.363-1.14.346-1.222.087-.17-.182.338-.925.78-.897.096.006.41-.206.703-.46.14-.508.676-.42 1.014-.394.383.153.733-.344 1.077-.38zm70.096.08l.956 2.656-3.42-.306 2.464-2.35zm-14.692 3.06c-.708.9-1.36.91-2.392.863.846 1 1.22 2.384.396 3.29-1.252 1.276-3.666-.68-3.486-.858l4.33-5.77c1.15.325 1.786 1.4 1.152 2.475zm-94.056-1.505s5.265 4.535 5.303 6.567c.016.774-.233 1.025-.853 1.23-2.068.686-7.824-1.077-7.824-1.077l.74-1.404c.905.25 5.365 1.405 5.75.838.397-.59-3.727-4.612-3.735-4.617l.62-1.535zm26.13 1.896l.632 2.193-2.153-.534 1.522-1.66zm84.073.393l.563 3.03-3.447-.805 2.885-2.225zm-65.718.05l.514 1.778c-22.868 10.605-29.545 34.957-17.62 55.054l-1.348 1.853c-15.963-25.867.204-52.118 18.454-58.685zm-20.603 1.86l.31 2.7-2.657-.154 2.346-2.546zm-31.47-.07c.45.007.537.25.535.517-.002.364-2.31 3.312-3.057 3.975-1.622.654-7.88-1.96-8.813-3.982-.185-.593.434-.332 1.82-.05 3.51 1 7.066-.375 9.514-.46zm60.923.035c.958 0 1.735.773 1.735 1.73 0 .958-.777 1.736-1.735 1.736s-1.73-.778-1.73-1.736c0-.956.772-1.73 1.73-1.73zm-72.034 2.134c1.74 1.563 4.297 2.858 6.565 3.31 1.412.31 1.002.456-.308 1.81-1.225 1.278-1.124 1.44-2.37.81-2.082-1.057-4.345-3.454-4.254-4.76.04-.543.134-1.173.366-1.17zm129.89.293l.433 2.88-3.26-1.13 2.828-1.75zm-90.55 1.037l1.063 2.58-2.89-.083 1.828-2.498zm73.44 2.463c-.003.36-.088.97-.088.97 1.7-1.08 3.955-.193 3.89 1.555-.096 2.464-1.3 2.486-3.27 2.16 1.078 1.787-.2 3.51-2.228 2.85-1.848-.6-1.49-2.55-.628-3.703-4.358.71-5.523 6.91-.49 8.752-1.012-1.567-1.263-3.437.933-3.75 2.037-.293 2.9 1.253 2.02 3.112 1.915-.665 3.72.432 3.144 2.298-.696 2.252-2.698 2.097-3.88.725.848 2.04-1.116 3.513-2.597 2.722-2.336-1.247-1.182-3.473.384-4.065-6.013-.62-7.408 7.697-2.976 8.884-1.138-.714-1.267-3.99 1.33-3.54 2.553.513 1.946 2.883.31 3.96 1.976-.42 3.825 1.306 2.623 3.05-1.417 2.06-3.37.592-4.098-.81.228 1.88-.967 3.074-2.504 2.37-2.638-1.21-.688-4.235 1.374-4.042-4.185-2.472-9.873 2.713-6.52 7.007-.132-1.95.84-3.55 2.18-3.33 1.18.134 2.21 1.478 1.88 2.534-.31.9-1.337 1.593-2.412 1.81 3.2.355 3.472 2.618 2.146 3.734-2.252 1.894-3.298-.293-3.82-1.57-.457 3.177-4.204 2.096-4.334-.2-.128-2.516 2.775-2.464 3.312-2.322.067-.087-2.246-2.377-4.716-2.703l.016-1.46c9.737-6.105 13.085-16.767 9.995-26.874l.587-.675c1.587 1.213 3.18 3.814 6.117 2.86 0 0-.683-.48-1.02-.813-1.512-1.49-.662-3.244 1.44-3.34 1.36-.067 1.89.985 1.9 1.843zm-66.054-.005l1.008 1.48c-14.765 17.296-12.073 37.087-3.583 50.187l-1.235 1.494c-7.515-9.632-13.65-32.988 3.81-53.16zm12.582 2.39c-.02.387.008.696.008.696s.317-.395.575-.868c1.262-2.107 3.976-.895 3.53 1.525-.21 1.136-2.123 1.58-2.644 1.255.496 1.353 1.838 1.67 3.473 2.256.57.11 1.55.388 1.55.388l.04.917c-8.857 5.578-13.87 15.038-10.624 27.976l-.98 1.324c-1.786-4.298-3.415-4.203-6.353-4.372 0 0 .73.516 1.15 1.012.89 1.053.496 2.888-.737 3.08-2.855.44-2.884-1.582-2.507-2.954 0 0-.512.43-.762.592-1.133.736-2.545-.028-2.677-1.488-.123-1.375.347-2.264 1.76-2.435.477-.058 1.21.063 1.21.063s-.283-.54-.438-.844c-.677-1.328.81-2.465 2.172-2.18 2.153.52 1.983 2.377.737 3.837 3.34.25 5.09-1.93 4.844-4.098-.3-2.644-1.517-4.073-4.144-4.534 0 0 .424.665.605.987.672 1.192-.294 2.655-1.707 2.647-1.45-.01-2.377-1.337-1.818-2.647.136-.32.68-.72.597-.757-.058-.025-.804.206-1.01.238-1.74.27-2.857-1.26-2.128-2.788.517-1.083 2.07-1.375 3.2-.844.18.065.396.317.43.262.034-.054-.113-.41-.16-.66-.356-1.4.316-2.147 1.834-2.05 2.124.136 2.916 1.866 1.488 3.428-.368.402-.935.998-.935.998.07.307 3.03.53 4.542-1.052 1.75-1.83 2.024-5.653.266-6.9l-.873-.614c.838 1.68-.704 3.612-2.063 3.25-2.72-.654-2.484-2.88-.695-3.584 0 0-1.814-.678-2.337-1.408-.738-1.03-.49-1.982.396-2.708 1.116-.896 2.702-.31 3.468.798.462-1.408 1.113-2.36 3.04-1.593 1.348.644 1.336 2.44-.147 3.42-.475.314-1.32.606-1.32.606s1.274.727 2.826.744c2.994.033 5.363-3.495 4.156-6.192-.245-.548-.856-1.254-.856-1.254s-.066.942-.253 1.305c-.69 1.344-2.282 1.368-3.222.52-.854-.77-.604-1.802.058-2.505.503-.533.956-.638 1.658-.965-.796-.27-1.684-.463-2.07-1.288-.36-.786-.108-1.754.848-2.354 1.724-.9 3.077.625 3 1.813zm-59.377-2.175c1.22.704 2.034 1.767 3.172 2.694.88.712.87.84.143 1.517-1.636 1.576-2.554-.706-3.082-1.64-.648-1.25-.716-2.525-.232-2.572zm130.726.436l.204 3.05-3.4-1.304 3.196-1.745zm-93.667.18l1.22 2.772-3.155-.014 1.934-2.76zm65.956.004c2.967 10.965-1.205 18.836-9.12 25l-.878-1.148c6.187-5.257 10.817-11.452 8.77-22.49l1.228-1.362zm-36.365.05l34.8.64-1.042 1.832-2.71.015-5.378 9.505-25.01-.005-.66-11.987zm-50.916 7.93c-1.214 1.916-8.442-2.208-8.348-2.425l.906-.873c1.147.466 4.72 2.437 5.512 2.125.276-1.793-1.83-4.116-2.624-5.66l.885-1.11s4.584 5.934 3.67 7.942zm11.86-6.976l-1.202 2.176c-1.127.346-4.526.406-4.8.632.41 1.115.86 4.39.86 4.39l-1.34 1.714c-.356-2.107-.952-4.77-1.48-6.725-.45-1.656-.323-1.292 3.206-1.565 1.582-.09 3.213-.29 4.757-.622zm7.137 2.623l1.432 2.542-2.9.03 1.47-2.57zm-34.846.17c.158-.063 1.056.94 1.21 1.232-.065.66-1.09 1.02-1.248.785-.064-.095-.083-1.577.02-1.987.003-.015.008-.025.018-.03zm131.27.035l-.03 3.18-3.447-1.526 3.476-1.655zm27.37.718l-.05 2.06c-12.5 6.106-31.146 22.5-36.466 51.9l-1.09-1.2c5.315-28.074 23.663-44.673 37.606-52.76zM65.582 147.14l1.557 2.34-2.808.307 1.25-2.648zm98.45.896l-.277 2.816-3.395-1.88 3.67-.936zm-65.308.586c.013.67.07 1.15.11 1.818-7.702 4.987-10.306 12.835-9.022 22.712l-1.066 1.576c-2.507-8.954.023-19.99 9.978-26.106zm89.313.582c.785.46 3.33 1.21 3.33 1.21l-.028 1.874-5.242-1.88 1.94-1.204zm-150.598 7.97c-1.128.92-3.73-.61-4.91-1.234l-.034-1.58s.9.46 1.81.823c1.863.827 1.868-.157.847-2.918-.36-.97-.715-2.094-.715-2.094l1.228-1.16c-.002 0 2.932 6.606 1.773 8.163zm26.315-5.928l2.007 2.1-2.798.64.79-2.74zm122.358.252c1.776.002 5.202 1.444 5.202 1.444l-.022 2.078c-1.74-.504-3.76-1.47-5.6-1.74-1.452-.202-1.366.61-1.374 2.664-.012 2.78.687 5.292 2.016 8.073 1.102 2.303.528 2.92-1.27 1.89-3.237-2.22-10.135-3.896-11.196-2.603-1.092 1.328 1.06 7.947 3.544 11.104 1.01 1.282 1.073 1.488.602 1.988-.382.404-1 .43-2.09.082-3.586-1.142-8.775-1.398-10.27-.432-1.484.96 2.378 7.587 5.62 9.727 2.103 1.5 1.696 2.246-1.702 2.322-5.55.026-9.818 1.264-9.58 2.778.4 2.575 3.995 6.106 8.12 7.98 2.525 1.032 1.47 1.442-.21 2.038-2.806.95-5.503 2.466-8.145 3.884l-1.27-1.624s2.656-1.688 5.546-3.312c.677-.38.643-.52-.306-1.314-3.078-2.58-5.337-5.46-5.81-7.4-.458-1.883.48-3.07 3.278-4.135 1.728-.657 2.364-.852 3.89-1.193 2.196-.493 2.233-.56 1.294-2.25-.422-.758-1.11-2.008-1.532-2.778-3.273-5.6-1.548-7.62 6.05-7.734 1.867-.1 2.223-.104 2.12-.748-.404-2.637-1.57-5.665-1.405-7.9.348-3.37 3.814-4.185 9.905-2.664 1.41.353 1.51.28 1.26-.858-1.178-5.13.05-9.76 3.333-9.368zm-22.353.36l-.533 3.268-3.244-2.158 3.777-1.11zm-121.31.77l8.945.586-1.42 1.668-5.407-.102-.204 4.616-1.73 1.483-.185-8.252zm57.98.354h7.366l-.06 7.787h-7.34l.035-7.788zm8.776 0h6.856v7.787l-6.798.07-.058-7.858zm8.21 0h7.35l-.067 7.787h-7.28l-.005-7.788zm64.197.62c-.173 2.003.246 5.623.416 7.178-.12.463-.44.396-2.366-.04-1.335-.446-5.035-.577-5.035-.577l1.55-1.643c1.268.15 2.27.14 3.58.303-.018-1.312.037-3.814.037-3.814l1.816-1.407zm-119.027 1.543l2.056 2.07-2.633.674.576-2.745zm100.46.674l-.818 3.33-2.978-2.677 3.797-.654zm28.198 1.768l.012 1.7-2.928-1.317c-.033 1.94 1.683 5.44 1.683 5.44l-1.39.655c-1.206-1.97-2.045-3.738-2.113-5.957.015-.803-.095-2.16.628-2.198 1.49-.035 2.734.47 4.11 1.678zM61.582 159.27l2.444 1.455-2.71 1.096.266-2.55zm100.53.747l-1.198 3.43-2.613-2.97 3.812-.46zM32.515 161.11l6.594 2.233-1.174 1.247-5.48-1.73.06-1.75zm92.517.905l.544 12.146-34.844-.285 1.213-1.717 2.264-.02 5.963-10.056 24.86-.067zm-63.915.945l2.59 1.828-2.692 1.188.102-3.016zm130.286 1.072l.005 1.987c-8.413 6.214-17.508 16.926-19.056 35.865l-2.27 1.94c1.108-18.493 8.81-31.242 21.32-39.793zm-30.693.073l-1.222 3.084-2.42-2.872 3.642-.213zm23.706 4.193l-.81.907c-.23.076-3.44-1.643-5.96-2.046.825 1.632 1.217 2.852 3.045 5.44l-1.178 1.162c-.354-.078-4.927-6.83-3.717-8.355 1.965-1.322 6.727 1.452 8.62 2.89zm-13.68-3.625c-.053 1.833 1.432 7.523 1.432 7.523-2.294.112-4.52-.15-6.994.545l1.166-2.08s1.078-.11 2.02-.3c1.95-.387 1.75-.152 1.296-1.848-.425-1.595-.45-1.926-.45-1.926s1.388-1.923 1.53-1.913zM42.143 166.64c3.01 18.235 10.204 30.757 21.553 42.024l-1.154 1.508c-13.34-12.208-20.622-27.746-22.526-42.358l2.127-1.173zm18.774.766l2.453 1.34-2.52 1.468.068-2.808zm130.45.054l-.015 2.675-1.537-1.55c.416-.375.92-.75 1.553-1.125zm-32.34.548l-1.673 3.07-2.184-2.91 3.858-.16zm32.162 6.943c-.344-.54-3.407-2.444-4.797-3.243-.09-.235 2.152-2.237 2.598-2.375 2.225.31 2.94 4.754 2.2 5.62zm-130.238-3.335l2.773 1.353-2.517 1.774-.256-3.127zm92.27 0l3.56.336-1.89 2.94-1.67-3.276zm32.948 1.305c.463.003.98.196 1.63.558 2.507 1.396 3.823 2.927 3.685 4.286-.063.624-.413.75-.82.296-.73-.818-3.197-1.883-5.323-2.3-1.61-.314-1.758-.452-1.274-1.196.73-1.13 1.334-1.65 2.102-1.644zm-42.887 1.29c3.855 14.598 10.634 25.832 19.143 35.08l-1.765 1.503c-6.46-7.413-13.566-16.088-19.37-34.843l1.993-1.74zm7.698.78l3.563.54-2.085 2.656-1.477-3.196zm-50.235.156c.413.014-1.226 6.228-6.885 6.657-3.583.594-3.985 1.197-4.04 6.773-.072 7.56-1.292 9.327-7.47 9.794-4.093.31-4.63 1.143-3.94 7.017.66 5.59-1.453 8.44-6.666 8.437-4.515.374-6.38 2.48-6.376 6.662.002 1.694.03 2.104.03 2.104l-2.92.228s.008-2.753.228-4.092c.89-5.412 3.21-7.58 8.093-7.555 3.774-.286 4.362-.898 4.232-6.622-.146-5.822-.226-5.782 1.294-7.308.98-.98 2.095-1.423 4.078-1.61 6.175-.58 6.663-.993 6.647-7.325-.572-5.26.883-8.482 4.225-8.747 6.762-.536 6.602-4.207 6.303-4.36l3.147-.048c.01-.003.015-.005.02-.004zm13.83 0c3.966 21.39 16.513 41.42 23.398 48.812l-1.343.713c-10.038-12.465-19.16-26.78-23.672-49.49l1.616-.034zm-7.163.01l3.138.033-36.138 50.857-1.905-1.436 34.905-49.455zm4.384.033c3.395 12.328 6.066 24.383 16.742 40.51l-45.287-.295 28.546-40.216zm12.505.048c.265-.122 1.328 6.237-.258 9.174-1.426 3.975-.73 6.213 2.373 7.66 5.325 2.487 6.668 4.97 5.992 11.075-.473 4.275.82 6.34 4.835 7.714 4.786 1.64 6.88 4.215 6.855 8.434-.004.647-.247 1.387-.247 1.387l-2.672 1.57s.034-.572.136-1.26c.696-4.677-.19-5.945-5.712-8.15-5.215-2.083-6.507-4.49-5.62-10.497.29-1.96-.11-3.94-.92-5.43-1.365-2.432-4.382-2.407-6.55-4.627-1.793-1.9-1.993-4.556-.466-9.1.946-2.817 1.09-3.885.353-6.23-.485-1.547-.675-1.684-.675-1.684l2.576-.034zm-62.896.678l3.073.85-2.312 2.4-.76-3.25zm122.01.637c1.055-.028 3.094.34 4.764 1.172 3.83 1.908 4.525 3.472 1.168 2.628-1.893-.476-4.613-.368-7.238.28-2.775.688-2.716.718-1.76-.96 1.21-2.123 1.524-3.078 3.066-3.12zm-6.952 2.253l-.697 1.198c-1.52-.253-3.122-1-5.44-.815.95 1.817 2.077 2.76 3.59 4.363l-.564 1.202c-.134.162-4.416-3.408-5.273-5.81-.388-1.083-.036-1.555 1.522-1.594 2.32-.034 4.66.63 6.862 1.456zm-57.204-1.177c1.147 0 2.075.927 2.075 2.074 0 1.146-.928 2.08-2.075 2.08-1.146 0-2.075-.934-2.075-2.08 0-1.147.93-2.075 2.075-2.075zm29.247.562l3.506.63-2.336 2.617-1.17-3.248zm-65.568.025c.83-.065 2.11 1.542 2.107 1.544l-4.25 5.872c-2.022-.407-1.59-3.47.263-3.563.428.002 1.21.074 1.21.074s-.57-.31-.9-.746c-1.242-1.5-.066-3.05 1.57-3.18zm79.313-.525s3.383 6.692 3.168 6.947c-2.097.924-4.387 1.4-6.69 2.24l.442-1.945s.767-.055 3.344-1.035c1.233-.47-1.346-3.9-1.346-3.9l1.082-2.308zm-23.403 1.977c4.937.04 5 6.098 4.054 8.102-.687 1.374-1.73 2.136-4.892 3.563-2.738 1.237-3.045 1.154-3.045 1.154l-.654-1.46s1.594-.704 3.31-1.397c3.55-1.433 4.414-2.528 4.025-5.096-.55-3.635-3.358-4.2-8.79-1.765-.63.282-1.427.567-1.427.567l-.373-.733c.087-.072 4.35-2.307 6.74-2.86.373-.054.723-.08 1.052-.078zm-76.348.658l2.792.922-2.037 2.002-.756-2.924zm124.412.782c2.468-.007 4.5.41 4.495 1.29-.003.417-.098.453-2.314.76-3.368.468-8.997 3.343-12.165 6.01-1.875 1.582-1.39 1.213-.6-1.078.785-2.278 1.96-5 2.594-5.414 1.587-1.038 5.193-1.56 7.99-1.568zm-40.355.314l2.375.52-1.546 1.498-.83-2.018zm-7.962 1.29c.85-.013 1.27.39 1.604 1.202.722 1.76.008 2.792-2.745 3.972-1.248.56-2.362 1.345-3.73 1.595l-1.73-4.645s.547-.2 2.347-.945c2.053-.85 3.402-1.166 4.253-1.18zm-8.03.563c5.496 15.545 12.222 25.643 19.338 34.01l-1.722 1.075c-7.558-8.94-14.513-19.42-19.525-34.843l1.91-.243zm7.623.552c-.666.018-1.664.42-2.997.935-1.937.748-2.103 1.65-1.235 2.77.38.487.77.38 2.633-.36 1.9-.753 2.723-1.087 2.837-1.764.165-.987-.38-1.605-1.237-1.58zm53.425.21c-.005.653-9.887 10.02-15.538 14.79-2.575 2.173-2.487 2.155-2.707 1.887-.14-1.614.956-7.378 1.62-8.384 3.774-3.996 9.6-7.248 15.265-8.47.89-.178 1.443-.16 1.36.178zm-53.25.313c.354.012.662.318.66.713-.003.302-.44.595-.894.592-.16 0-.554.09-.8.344-.245.354-.404.695-.845.61-.257-.048-.73-.063-.916.098-.87.756-1.73.13-1.33-.63.102-.19.452-.288.737-.286.247 0 .81-.056.892-.36.098-.36.65-.462 1.037-.45.42.057.76-.153.868-.33.156-.14.34-.28.514-.295.024-.004.048-.008.073-.007zm-74.734.165l3.145.427-1.983 2.54-1.163-2.967zm30.038-.043c1.147 0 2.08.93 2.08 2.075 0 1.147-.933 2.08-2.08 2.08-1.146 0-2.075-.933-2.075-2.08 0-1.146.93-2.075 2.075-2.075zm32.776 1.644c1.146 0 2.075.928 2.075 2.074 0 1.147-.93 2.076-2.076 2.076-1.147 0-2.076-.93-2.076-2.076s.928-2.075 2.076-2.075zm-61.41 2.345l3.414.218-1.954 2.613-1.46-2.83zm18.024.5c1.146 0 2.074.928 2.075 2.074 0 1.145-.93 2.074-2.075 2.074-1.147 0-2.075-.93-2.075-2.075s.927-2.076 2.075-2.076zm85.28 1.294c1.422-.024 3.073.12 3.073.12l-.398 1.597c-1.734.165-3.965-.316-5.827.462.69 1.13 4.744 2.73 5.192 3.13.042.167-.334 1.69-.334 1.69.11.39-6.857-2.828-7.088-5.542.005-.92 3.01-1.42 5.382-1.46zm-23.96 1.657c3.96.036 5.913 5.562 4.375 8.01-.61 1.106-1.983 2.418-3.797 3.573-.872.556-3.18 1.688-3.18 1.688l-1.04-1.604s.923-.37 1.79-.844c2.182-1.23 6.605-3.855 4.466-7.43-1.2-1.933-2.998-2.31-6.73-.416-2.785 1.415-3.418 1.547-3.418 1.547l-.707-1.28c.185.107 5.562-3.13 8.242-3.243zm-77.277.577l3.108.005-1.328 2.8-1.78-2.806zm90.03-.37c1.892 3.658 5.125 6.42 6.008 7.084 0 0-3.22 2.068-5.144 3.386l-1.13-1.33 2.763-2.37-3.11-4.34.614-2.43zm30.327.883c-.35 1.806-.406 3.723-.554 5.833.682.622 1.294.934 1.83.897.6-1.897 1.033-4.053.747-6.27-.57-.444-1.317-.394-2.023-.46zm1.56 1.373c-.01 1.19.154 2.678-.355 3.827-.29.653-.95.407-.974-.48-.03-1.202.213-2.21.282-3.307.04-.624.31-.998.683-.854.386.188.354.465.363.814zm-44.875.82c2.04.15 2.828 1.857 2.075 3.083-1.844 2.355-3.73 2.783-6.148 4.146l-2.415-4.515s4.698-2.652 6.487-2.716zm-.056 1.007c-1.35.158-2.202.816-3.337 1.372-1.39.68-1.843 1.732-.9 2.687 1.04 1.158 4.67-1.603 5.27-2.27.367-.573.307-1.096-.212-1.508-.225-.18-.502-.28-.822-.283zm-74.435.19l3.04.034-1.643 2.324-1.396-2.356zm74.714.475c.518.367.473 1.025-.256 1.212-.37.095-1.005.097-1.02.59-.01.366-.57.504-.89.45-.327-.052-.88-.08-.987.33-.278.557-.488.566-.88.177-.42-.424-.224-.96.597-1.05.35-.04.655-.295.78-.563-.02-.35.226-.55.61-.47.546-.007.902-.208 1.29-.717.273-.127.57-.09.757.042zm-17.788.06c1.146 0 2.075.93 2.075 2.076s-.928 2.08-2.074 2.08-2.075-.934-2.075-2.08c0-1.147.93-2.075 2.076-2.075zm-44.324 3.82c1.147 0 2.08.933 2.08 2.08 0 1.146-.933 2.074-2.08 2.074-1.146 0-2.074-.928-2.075-2.075 0-1.145.93-2.08 2.075-2.08zm-49.665 1.842l23.773 16.258-1.624 2.37-22.08-15.016-.07-3.612zm119.36.528c1.548 0 2.74.892 3.895 2.687 2.29 3.562 1.142 6.373-3.603 9.245-2.205 1.335-2.222 1.35-2.222 1.35l-1.12-1.384s1.605-.942 2.27-1.36c3.9-2.464 4.996-4.645 3.282-7.1-1.652-2.365-3.388-2.176-8.204.888-.975.62-2.14 1.105-2.14 1.105l-1.056-1.436s2.727-1.4 3.656-1.992c2.135-1.363 3.877-2.004 5.242-2.003zm17.723-.612l.015 1.562c.053.07-3.23 1.518-5.155 2.39-.623.34-.38 1.003-.342 1.685l-.927.626s-1.28-.934-1.447-1.533c-.47-1.893 5.556-4.158 7.857-4.73zm-34.323 1.68c1.146 0 2.08.928 2.08 2.075 0 1.146-.934 2.08-2.08 2.08s-2.075-.934-2.075-2.08c0-1.148.928-2.075 2.075-2.075zm-64.404.582c1.146 0 2.075.93 2.075 2.075 0 1.147-.93 2.075-2.075 2.075-1.147 0-2.075-.928-2.075-2.075 0-1.147.927-2.075 2.075-2.075zm80.918 1.657c.79-.03 1.38.485 1.703 1.27.825 2.01-.297 3.494-4.36 5.77-.34.19-1.06.582-1.06.582l-2.992-4.13s1.054-.726 2.047-1.32c2.224-1.456 3.65-2.136 4.664-2.173zm-.397.988c-.19.005-.412.08-.67.23-1.042.6-2.784 1.252-3.606 2.34-.48.667-.262 1.328.65 2.183.77.512 4.758-2.424 4.857-3.276-.336-.904-.657-1.49-1.23-1.476zm-118.706.224l.664.445-.663.524v-.968zm119.34.723c.295.36.117.97-.508 1.076-.315.055-.78.14-.932.606-.126.308-.556.568-.98.558-.488-.112-.746.184-.772.398-.24.412-.837.48-1.2.092-.283-.302.224-1.168.558-1.155.06.026.428.11.872-.484.09-.433.593-.697.957-.682.37.126.588-.284.736-.51.34-.182 1.03-.18 1.267.1zm-117.76.314l.956.644-2.536 1.8v-1.45l1.58-.995zm1.853 1.21l1.3.87-4.732 3.39v-1.84l3.432-2.42zm2.425 1.548l1.372.907-7.23 4.883v-1.882l5.858-3.908zm2.603 1.32v1.57l-8.46 5.905v-1.59l8.46-5.886zm.955 1.13l1.823 1.245.456 53.238-11.4 7.832.01-2.327 9.572-6.92-.46-53.068zm137.516 1.437c-2.558 2.92-5.986 3.116-8.977 3.036-8.06.114-13.06.544-14.097 10.152 3.283-2.454 6.764-2.77 10.794-2.655 5.104-.007 7.4-.342 9.475-1.377 3.333-1.662 5.44-4.64 5.038-6.73-.395-.45-1.432-2.313-2.234-2.425zm-138.472.467v1.843l-8.46 5.668v-1.872l8.46-5.638zm96.612.17c1.147 0 2.08.93 2.08 2.076s-.933 2.075-2.08 2.075c-1.146 0-2.075-.93-2.075-2.075 0-1.147.93-2.075 2.075-2.075zm-55.233.213c14.95.465 46.698.286 46.698.286l1.692 2.44-49.918-.524 1.527-2.2zm97.01 1.6c-1.79 1.755-3.646 2.612-9.524 2.508-6.21-.11-8.633.87-10.24 3.636-.467.804-.458 1.116.218.51.57-.676 1.86-1.976 2.394-.745 1.056-.69 1.968-1.742 2.52-.413.306-.067 2.096-1.86 2.52-.272.855-.956 1.59-1.256 1.99.1 1.216-.575 1.862-1.667 2.553-.158.98-.7 1.723-1.577 2.294-.242.837-.246 1.687-1.778 2.17-.558.09.03 3.11-1.787 3.966-3.584.7-1.585 1.346-.533.55 1.086-2.05 3.966-5.55 5.413-13.588 5.426-4.88.006-6.896.483-8.43 1.377-2.46 1.436-1.135-2.177.59-4.368 2.173-2.764 4.65-3.58 11.438-3.332 3.71.02 6.08-.49 7.084-1.3.85-.687 1.466-1.15 1.924-1.182.455-.033.516.583-.428 1.51zm-109.842-.67c1.146 0 2.08.933 2.08 2.08s-.934 2.074-2.08 2.074c-1.147 0-2.075-.93-2.075-2.076s.927-2.08 2.075-2.08zm-28.547 1.538v1.872l-8.46 5.774v-1.916l8.46-5.73zm40.908.897h6.565v6.93h-6.564v-6.93zm14.712 0h7.064v6.93h-7.064v-6.93zm15.724.223h6.817v6.706h-6.818v-6.707zm14.77.136l4.537.154s2.52 3.206 3.583 4.684l-3.355 1.722-4.767.01v-6.57zm-42.05.47c-1.276 0-2.312 1.03-2.312 2.307s1.036 2.313 2.313 2.313c1.276 0 2.312-1.036 2.312-2.313 0-1.276-1.035-2.308-2.312-2.308zm15.097.227c-1.278 0-2.314 1.03-2.314 2.31 0 1.275 1.036 2.31 2.313 2.31s2.31-1.035 2.31-2.31c.002-1.28-1.034-2.31-2.31-2.31zm15.438.06c-1.277 0-2.313 1.03-2.313 2.308 0 1.277 1.036 2.313 2.313 2.313s2.312-1.036 2.312-2.313c0-1.276-1.035-2.308-2.312-2.308zm-36.848.47c.456.323.757.85.757 1.453 0 .99-.805 1.794-1.794 1.794-.35 0-.676-.1-.95-.27l1.987-2.978zm6.313.023c.845 0 1.532.683 1.532 1.527 0 .846-.688 1.532-1.532 1.532-.846 0-1.532-.688-1.532-1.533s.688-1.527 1.533-1.527zm45.903.063c-1.276 0-2.312 1.03-2.312 2.308 0 1.278 1.036 2.314 2.312 2.314 1.277 0 2.313-1.036 2.313-2.313 0-1.276-1.037-2.307-2.314-2.307zm-38.41.068c1.024 0 1.855.833 1.855 1.858s-.83 1.857-1.855 1.857c-1.026 0-1.853-.832-1.853-1.857s.826-1.857 1.853-1.857zm30.59-.072c1.023 0 1.855.832 1.855 1.857 0 1.024-.83 1.856-1.855 1.856s-1.853-.83-1.853-1.855.828-1.857 1.853-1.857zm-82.148.2v1.86l-8.46 5.91v-1.832l8.46-5.94zm59.16-.03c.847 0 1.533.682 1.533 1.527 0 .845-.686 1.532-1.53 1.532s-1.533-.688-1.533-1.532c0-.845.686-1.527 1.532-1.527zm15.44.06c.845 0 1.532.683 1.532 1.527 0 .846-.688 1.532-1.532 1.532-.846 0-1.532-.687-1.532-1.532s.686-1.527 1.532-1.527zm-7.74.192c1.024 0 1.855.832 1.855 1.857 0 1.024-.83 1.856-1.856 1.856-1.026 0-1.857-.832-1.857-1.856 0-1.025.83-1.857 1.857-1.857zm23.108.363c.846 0 1.532.683 1.532 1.527 0 .846-.687 1.532-1.532 1.532s-1.532-.687-1.532-1.532c0-.844.687-1.527 1.532-1.527zM65.38 223.6c3.94-.048 8.203 1.954 10.608 5.274 3.64 4.865 6.07 11.07 7.176 19.215.547 4.033 2.428 16.145 3.496 19.007l-1.47-.28c-.198.093-2.084-7.62-3.272-17.806-.44-3.772-1.242-8.642-3.433-13.086-2.5-5.075-6.748-10.453-12.413-10.88-3.304-.25-6.406 1.82-6.74 4.736-.476 2.304.876 4.45 2.647 5.17 1.74.705 3.82.18 4.053-2.192.04-.39 0-.782-.146-1.145.806-.13 1.42.232 1.746.91.17.022.007 3.44-2.682 4.113-3.243 1.062-6.985-2.15-7.277-5.42-.222-2.757 1.876-6.162 4.52-7.085 1.005-.35 2.083-.518 3.186-.53zm-24.162 1.06v1.9l-8.46 5.838v-1.915l8.46-5.823zm24.346 1.207c4.732-.134 9.34 5.142 11.292 8.616 2.037 3.628 3.648 9.388 4.204 14.81.944 9.218 2.71 16.758 3.084 17.1l-1.29-.28c-.27.18-2.05-8.142-3.132-17.407-.607-5.196-2.536-10.35-4.83-14.318-2.116-3.664-4.97-6.4-8.35-6.798-2.117-.213-4.295.398-4.722 2.628-.227 1.31.458 2.594 2.012 2.706.366.026.716.056.78.067.823.147-.47 1.48-1.318 1.363-3.034-.423-4.433-4.477-2.04-6.633 1.398-1.262 2.86-1.81 4.31-1.853zm10.134 1.354l53.146.54s.044.95-3.263.794c-2.812-.133-4.627.26-6.492.858l-41.757-.093-1.632-2.1zm-34.48.616v1.765l-8.46 5.922v-1.95l8.46-5.736zm24.7.747c1.02-.014 2.06.25 2.846.703 6.583 3.812 9.097 13.277 9.964 19.234 1.183 8.824 2.548 17.02 2.93 17.223l-1.437-.324c-.19.006-1.76-7.645-2.738-16.216-.79-6.93-3.16-13.887-7.86-16.815-3.016-2.053-3.607-2.26-5.004-1.063-1.204 1.034-2.43-.522-1.42-1.79.695-.65 1.7-.94 2.72-.954zm-24.7 2.39v1.45l-8.46 5.892v-1.717l8.46-5.624zm38.683.04c.11-.1 4.574 7.478 5.984 19.424.743 6.29 2.87 17.014 3.21 17.1l-1.547-.163c-1.58-6.325-2.456-12.312-3.302-17.708-.956-6.104-1.724-11.527-5.527-18.604l1.178-.04c0-.005.004-.008.005-.01zm1.014.062l1.382.02c2.364 4.5 4.878 11.49 5.746 18.498.75 6.052 1.51 12.21 3.675 18.62l-1.483-.41c-1.86-5.202-2.52-11.49-3.52-18.007-1.106-7.204-2.842-13.476-5.8-18.72zm8.53.01c2.418 6.262 3.99 9.25 5.096 16.956.857 5.982 2.068 13.464 4.824 21.388l-1.4-.06c-2.04-5.47-3.604-12.797-4.32-19.834-.974-9.558-5.265-18.48-5.305-18.425l1.104-.025zm-2.38.025c.13-.195 4.61 8.768 5.647 18.62.69 6.553 2.226 13.04 4.33 19.302L95.61 269c-1.65-1.91-2.89-10.962-4.252-19.41-1.392-8.626-3.352-13.932-5.527-18.465h1.228c0-.01.003-.012.005-.015zm-3.614.01l1.27.004c3.323 7.262 4.703 11.582 5.728 18.604 1.294 8.88 2.537 16.89 3.912 18.978l-1.55-.102c-2.142-6.4-3.106-12.796-3.866-19.196-.823-6.93-2.815-12.87-5.494-18.29zm7.01.057l1.51.024c2.6 5.267 4.76 11.672 5.522 18.993.418 3.97 1.148 10.065 4.13 19.467l-1.206-.076c-2.443-6.306-3.91-13.728-4.786-20.2-.883-6.528-2.44-11.915-5.17-18.207zm9.292.044c1.425 3.652 2.6 7.28 3.37 11.013l-.855 1.663c-1.337-4.928-2.842-8.764-4.34-12.65l1.825-.025zm-6.88.006l1.837.043c3.155 7.326 4.777 15.073 5.22 17.673 0 0 .44 2.3.467 3.055-.106 6.402 1 10.97 3.385 17.854l-1.092-.078c-2.766-8-3.51-13.684-4.218-19.113-.586-6.827-2.806-13.86-5.6-19.434zm4.242.057c1.882 4.696 3.316 9.225 4.62 13.756-.058 1.028-.157 2.154-.828 2.986-1.534-5.543-2.828-11.302-5.197-16.733l1.404-.01zm3.472.04l1.454.024 2.9 8.306-1.136 1.256c-.85-2.752-1.723-5.774-3.218-9.587zm8.49.058l1.06 2.498-1.144.97s-1.168-2.337-1.474-3.438l1.557-.03zm2.158 0l.533 1.44-.96.732-.747-2.144 1.174-.027zm-8.33.03l1.498.01c.604 1.744 2.216 6.017 2.216 6.017l-1.076 1.13s-2.03-5.402-2.638-7.158zm2.322 0l1.33.014c.398 1.134 1.643 4.272 1.643 4.272l-.918.872-2.056-5.16zm6.948.058l1.314.063-.155.325-.82.407-.34-.794zm-43.096 1.848c5.504 2.9 7.02 11.59 7.617 16.37 1.042 8.336 2.21 15.12 2.46 15.302l-1.223-.194s-.903-4.283-1.527-8.36c-.52-3.39-.922-6.23-1.062-7.53-.088-.81-.224-1.756-.3-2.098-.77-3.425-1.017-4.21-2.008-6.294-.952-2-1.288-2.502-2.87-4.286-.608-.685-1.2-1.186-1.406-1.624-.297-.63.318-1.286.318-1.286zm-27.86.446v1.64l-8.46 5.973v-1.872l8.46-5.74zm0 2.875v1.886l-8.46 5.58v-1.672l8.46-5.793zm0 3.215v1.75l-8.46 5.896v-1.81l8.46-5.836zm14.13 1.77h.746l.053 1.226-1.153-.072.353-1.155zm-14.13 1.512v1.872l-8.46 5.585v-1.744l8.46-5.712zm13.257.713l1.79.02-.02 1.285-2.3-.078.53-1.227zm-1.038 2.06l2.938.054v1.223l-3.642-.06.704-1.216zm-12.22.267v1.964l-8.46 5.625v-1.974l8.46-5.616zm10.722 2.042l4.3.048-.024 1.023-5.135-.034.86-1.037zm-10.722 1.14v1.92l-8.46 5.415v-1.725l8.46-5.61zm8.927.91l5.905.083-.146.988-6.734-.03.975-1.04zm-8.927 2.09v1.848l-8.46 5.51v-1.776l8.46-5.58zm6.71 0l7.773.18 1.64 1.49-12.098.07 2.687-1.74zm-2.35 2.725l13.36.166.933.863-14.337.052.044-1.08zm-4.36.423v1.96l-8.46 5.54v-1.788l8.46-5.712zm4.374 1.722l14.808.067-1.07 1.188-13.757.038.02-1.293zm-4.374 1.483v1.794l-8.46 5.74v-2.06l8.46-5.474zm4.005.936l12.8.044-1.502 1.178-8.844.204-2.453-1.426zm-4.005 2.216v1.712l-8.46 6.06v-1.92l8.46-5.852zm7.748.218l7.516.033.14 1.01-6.462-.015-1.194-1.027zm2.08 2.08l5.77.058.272 1.305-5.135-.067-.907-1.295zm-9.828.912v1.59l-8.46 5.906v-1.76l8.46-5.736zm15.996 1.304l.067 1.24-3.44.132-.97-1.3 4.344-.072zm-.03 2.2l-.028 1.306-2.4.038-.538-1.256 2.967-.087zm-2.133 2.324l1.893.015-.16 1.004-1.465.02-.267-1.04zm.568 2.41h.922l-.155.785h-.47l-.297-.785zm18.716 13.275l-.44.567H87.12l.146-.567H74.334zm17.054 0l-.233.767h5.97l.164-.767h-5.902zm9.75.15l-.184.724h15.26l-.253-.723h-14.82zm18.256 0l.31.88h5.136l-.34-.88h-5.106zm17.714 0l-9.01.006.324.978h9.32l-.634-.984z"/></g></svg>