<svg version="1.2" baseProfile="tiny" xmlns="http://www.w3.org/2000/svg" xmlns:xlink="http://www.w3.org/1999/xlink" width="225" height="314" viewBox="0 0 225 314" preserveAspectRatio="xMinYMin meet"><defs><style type="text/css">use { fill: #d40000; } .maxi-card { display: none; } .mini-card { display: block; } @media (min-width: 75px) { .maxi-card { display: block; } .mini-card { display: none; } }</style><path id="suit" d="M16.49.2c7.12-.476 10.832 5.638 11.557 10.455.432.766.668.55.834-.042.35-6.186 5.856-11.24 10.956-10.55 8.3.108 13.344 9.393 11.926 17.25-1.733 9.6-6.877 15.38-10.77 21.333C36.584 44.81 30.653 53.716 28.74 58c0 0-6.027-9.222-13.87-20.067-5.243-7.252-9.44-15.11-9.83-21.875-.447-7.73 2.71-14.66 11.45-15.86z"/><path id="numeral" d="M0 0v2.87h2.937v24.98H0v3.092h8.532V27.85h-2.26v-7.086l3.426-4.75 5.14 11.835h-3.28v3.092h9.305V27.85h-2.226l-6.814-15.215 6.474-9.81 2.4.046V0h-9.24v2.87h2.663L6.27 14.917V2.87H8.6V0z"/></defs><rect width="100%" height="100%" fill="#fefefe"/><g class="mini-card"><use xlink:href="#numeral" transform="matrix(3.5 0 0 3.5 78.4 33.95)"/><use xlink:href="#suit" transform="matrix(2 0 0 2 55.5 170)"/></g><g class="maxi-card"><use xlink:href="#numeral" transform="translate(7 12)"/><use xlink:href="#suit" transform="matrix(.4 0 0 .4 6 51)"/><use xlink:href="#numeral" transform="matrix(-1 0 0 -1 218 302)"/><use xlink:href="#suit" transform="matrix(-.4 0 0 -.4 218 263)"/><use xlink:href="#suit" transform="matrix(.8 0 0 .8 38 40)"/><use xlink:href="#suit" transform="matrix(-.8 0 0 -.8 186 274)"/><path fill="#E2CF00" d="M82.664 263.344l53.415 1.14c4.73 6.494 14.23 19.737 14.23 19.737l-86.3 1.137 18.654-22.013zm-22.353 4.52c2.31-4.626 2.756-9.085 2.316-15.512-.347-4.932 2.758-8.773 5.96-7.3 2.478 1.137 1.334 5.803-1.227 4.815-.98-.378-1.84-.035-1.71 2.182.23 5.46 1.692 11.613.434 16.85-.877 5.087-7.916 2.743-5.773-1.035zm-21.624-7.134c-2.72-4.055 2.153-7.854 5.204-5.982 1.447.673 1.242 2.137-.58 1.356-2.546-1.09-5.285 2.764-3.07 4.312 1.02.713 1.407.617.632-.274-2.063-2.386 3.216-3.44 3.062-1.868-.36 1.913-.405 2.72-.58 3.096-1.076 1.668-3.143.816-4.668-.64zm7.584-17.05c-2.938-3.644.43-6.51.386-6.405.872-.938-6.998-15.52-6.003-15.614 9.938-1.05 19.983-.257 29.944.052.003 0-5.31 9.492-7.428 14.19-.855 1.893 1.14 4.12.314 5.526-2.563 2.785-.97 5.87-2.568 6.01-4.484-.573-8.916-1.312-13.89-.322-.366 0-.404-2.08-.756-3.436zm43.023-101.31c5.025 25.428-2.384 52.38-19.37 70.163-2.397-2.29-4.236-6.636-6.628-9.472-6.638-1.98-11.414.352-16.07 2.636-4.135-2.37-8.793-3.763-13.334-3.703l-.145-3.933c4.595-.1 9.447.323 13.538 2.84l6.4-2.582-19.96-20.584.27-3.518 24.22 24.293 3.12.11c-6.854-18.113-.857-46.884 27.96-56.25zm33.774 31.895l3.5 16.604S108.056 210.69 96.61 220.1l-8.625-.78s11.78-20.83 9.62-19.238l25.462-25.82zm69.596 22.773c-8.222 9.152-18.046 14.97-28.956 21.383-4.36-4.843-9.655-10.17-12.712-14.946 9.518-5.057 18.59-8.973 27.91-17.822-.51.57-11.89 4.41-11.852 3.968-.41 1.89-.164 3.055-2.015 3.552-2.192-3.044-4.312-5.514-7.768-6.874-1.45.13-3.374-.822-3.374-.822.97-.197.542-11.875.003-12.01 0 0 .283-.346 2.814-.295 4.52-.308 7.442-5.745 10.247-7.606 8.767-.717 16.532.142 25.167-.09-.064 10.392.54 21.17.536 31.564zM137 170.713c-.22-.44-2.433-17.664-.33-28.465.387-2.533 4.4-3.394 5.17-5.28 1.278-4.102-.64-9.168.372-13.766 1.03-4.68 3.254-7.312 5.2-10.79 2.107-3.77 5.125-8.47 8.47-11.28.982-.955 4.41 2.122 6.974 7.443 7.443 4.662 16.988-1.354 16.988-1.354s3.704 3.008 12.08 4.65l-.143 3.236c-.04.94-9.42-1.002-11.44-2.88 0 0-6.997 2.33-6.997 2.755.002 1.813 18.475 18.842 18.475 18.842l.104 4.198c-2.77-3.836-24.437-22.27-24.437-22.27 4.804 28.048-6.67 45.516-30.485 54.963zm-30.996-5.49l-.416-16.518 15.787.187.65 16.69-16.02-.36zm-72.238-17.855c.422-.586-.614-30.787-.55-30.787 10.048-9.944 19.875-15.503 29.728-21.55 4.455 4.392 8.24 8.096 11.523 13.414l-13.593 8.33c.517 2.03-.824 2.763 7.938 10.667.147-.54 3.034-2.15 3.538.258-1.187 5.08.526 9.4.752 12.13-1.196 1.602-3.87-.117-3.87-.117-1.732-1.794-8.515 7.07-10.45 8.06-8.45-.314-25.49.258-25.016-.402zm95.102-53.852c.11-.108 8.593.064 8.48.367-1.546 4.123-5.383 11.44-8.893 19.886-4.045 7.196-9.656 11.437-14.447 16.152-3.83 3.77-7.245 9.713-9.86 8.17-1.598-5.107-1.967-9.638-3.73-15.297-.804-3.353 4.093-5.538 28.45-29.28zm37.12-28.318c3.106 1.32 11.836.63 13.22.035 1.776 1.2.668 2.798.444 3.686 1.822 2.295 2.82 3.11.75 6.81-.472 0 6.363 15.32 6.546 15.33 0 0-7.223-3.41-9.77-5.716l-4.983 6.595-5.79-7.448c-.02.673-11.15 8.025-11.286 7.67-.352-.35 10.165-11.618 8.078-18.235-.502-1.594.648-3.215 1.435-4.62.54-.963-.186-2.827 1.354-4.11zm-5.78-1.373c.472-.538-2.7-14.39.738-19.98 1.456-2.034 4.09-2.138 5.19-.474.84 2.315-1.666 5.538-2.168 7.11-1.63 4.386.79 10.17-.392 14.313-3.537 9.052-9.803-.89-3.368-.968zm23.554-6.15c-1.865.08-.563-5.47-.256-7.058-.008-.314 3.414-1.11 4.646 1.072 1.99 3.26-.402 7.375-4.39 5.984zM161.522 29.7l-17.568 21.272c-17.763-2.036-35.59-3.33-53.752-.562l-14.61-20.287 85.93-.422z"/><path fill="#131F67" d="M193.4 28.143l-162.533.503 1.784 258.012 162.164-.96L193.4 28.144zm-37.394 1.58c1.782 0 3.565.005 5.348.01l-19.46 23.833-.478.16c1.296 3.782 3.147 8.497 4.915 12.077 2.815 5.788 9.89 16.423 5.477 24.93-.433.73-.835 1.085-1.376 1.083-.75-.004-.735-.442-.29-1.296.984-1.88 1.65-6.335 1.26-8.692-.252-1.505-1.09-3.825-2.687-7.33-7.395-13.598-9.705-20.846-9.286-20.846-.097-.062-.262-.145-.53-.21l-.728-.24c2.56 8.597 6.726 15.823 10.02 22.515 2.703 6.218 2.993 8.63 1.58 13.157-.547 1.753-1.536 2.875-2.51 2.87-.73-.003-.688-.15-.19-1.038 2.59-4.63 1.992-9.685-1.228-15.563-4.676-9.71-7.482-15.854-9.148-22.083-.04-.003-.853-.274-1.145-.344 1.386 6.484 5.262 13.963 8.87 21.615 2.98 5.894 3.84 10.19 2.765 13.58-.353 1.47-1.477 3.66-2.9 3.726-.555-.003-.643-.292-.117-1.05 2.21-3.773 2.603-7.254-1.353-15.178-3.636-7.286-7.285-15.44-8.53-22.562-.08-.584-1.66-1.277-1.32-.31 1.952 8.415 5.84 17.03 9.97 25.43 2.324 5.214 2.565 8.55.82 11.468-.975 1.632-1.224 2.003-1.955 2.02-.863.018-.85.05-.37-.942 2.107-4.385 1.762-8.248-1.058-14.586-3.866-8.69-7.122-15.882-8.513-23.53-.25-.07-1.56-.577-1.372-.194 1.934 7.286 4.408 14.048 7.597 20.888 1.11 2.372 2.91 6.987 3.492 9.3 1.103 4.402-1.383 10.447-4.636 10.752-1.212.114-1.06-.488.29-1.74 2.327-2.158 2.778-5.6 1.988-9.59-.593-3.074-1.614-6.372-3.018-9.724-2.838-6.776-5.927-13.867-6.904-20.123.032-.56-1.268-.562-.9.023.7 4.398 2.378 9.408 4.213 14.06 2.007 5.09 4.996 10.793 5.975 17.04.8 5.11-2.4 9.936-6.28 10.224-4.678.348-5.6-4.266-4.474-6.43 1.836-3.228 7.165-1.383 5.58 1.918-.91 1.9-3.695 1.4-3.576-.683-.032-.19.267-.762.213-.793-.097-.056-.505.317-.636.55-.945 1.69 1.897 3.953 3.873 2.597 6.62-3.575 2.15-14.478-.735-21.138-2.795-6.206-4.844-11.813-5.732-17.557-.24-.168-1.334-.444-1.182-.247.802 3.066 1.172 5.65 1.97 8.228 1.25 4.04 3.494 8.562 5.324 13.092 1.662 4.457 3.332 8.244 2.57 12.892-.07.43-.246.944-.54 1.258-.297.31-.543.263-.63-.92-.03-.162-.24-.374-.272-.58.162-1.745.044-3.477-.408-5.12-.387-1.375-1.124-2.78-2.68-5.45-.615-.996-2.22-4.038-1.658-1.936.324 1.188 1.427 3.83 2.573 5.745.71 1.188 1.46 4.432 1.238 5.058-.233.613-.776.647-1.03.437-.227-.19-.225-1.058-.283-1.594-.24-2.204-2.502-6.05-4.07-7.56-1.128-1.254 2.654 5.334 2.932 7.09.116.743.35 1.348.094 1.713-.168.24-.508.242-.84.157-.32-.082-.307-.302-.646-1.433-.58-1.936-1.297-2.91-2.785-4.655-.51-.6-.85.15-.038 1.12 1.124 1.77 1.968 2.9 2.254 5.176-.73 1.03-1.087.83-2.61-1.78-1.007-1.724-1.61-2.166-1.875-2.153-.667.032-.037.855 1.837 3.8.97 1.572.994 2.55-.11 2.544-.373-.002-2.468-2.3-2.993-3.298-.437-.828-.977-1.462-.98-.45 0 .4 1.3 2.516 2.19 3.543 1.402 1.62 1.804 1.945 1.982 2.662.085.342.255.94.375 1.328.36 1.166.177 1.5-.55.883-.33-.863-.597-.953-1.5-1.618-.762-.56-1.818-2.013-2.51-3.036-.262-.387-.486-.877-.754-1.27-.68-1.268-1.582-1.378-.93-.1.31.593.81 1.564 1.337 2.285.882 1.25.7 1.903-.347 1.898-.447-.002-1.7-1.64-2.48-2.918-.51-.835-1.31-1.425-1.21-.598.023.204.64 1.67 1.565 2.817 1.004 1.245 1.136 1.907.16 1.902-.665-.004-1.238-.637-2.087-1.928-.806-1.226-1.31-1.657-1.536-1.518-.29.177 1.156 2.606 2.344 3.934 1.123 1.255.3 1.97-.992.854-.7-.605-2.103-2.41-2.495-3.27-.703-1.534-1.155-1.115-.7.1.5 1.34 1.28 2.807 2.224 3.76.495.497 1.515.89 2.012 1.317 1.41 1.215 2.303 2.337 2.188 2.538-4.02.226-7.32-4.05-8.223-6.64-.64-1.7-1.372-1.95-.678.452 1.96 5.97 8.07 9.072 12.294 6.396 2.55-1.615.298-5.82-1.788-4.466-.567.37-.593 1.413.128.854 1.354-1.05 2.717 1.54 1.238 2.306-2.08 1.077-4.385-1.03-2.97-3.587 1.396-2.624 6.998-1.122 5.902 3.118-.664 1.903-3.572 4.28-6.064 4.328-4.632.087-7.83-3.452-9.613-6.947-.23-.448-.64-1.332-.978-2.053-.293-.623-.524-1.086-.548-1.08.516 4.242 4.582 9.488 8.225 10.356 6.05 1.417 7.707-2.178 11.667-5.894 0 0 2.893.374 2.994.312.268-.163 5.63-.402 5.79-.252-21.666 39.15-20.017 85.628-1.386 120.906 1.23 2.58 1.446 2.092-.594 1.565-2.107-.547-4.02.296-5.73-.1-3.543-.72-4.298 1.69-7.02 2.977-3.395 1.277-2.626 3.63-3.435 5.902-.255.352-.44.64-.3.593.224-.075.947-.742 1.002-1.33.14-1.504.678-2.693 1.29-3.292.585-.57.993-.858 1.135-.61.11.192.027.865-.26 1.408-.824 1.55.268 6.736.336 3.046.054-2.93 1.835-6.195 4.327-7.532 1.995-.973 2.613-.874.99.624-1.847 1.96-3.1 4.245-3.175 7.088-.03 1.18.44 2.162.607 1.105-.07-5.415 5.356-11.443 11.176-8.447.29.21.535.602.45.822-5.637-.94-10.54 2.127-9.818 9.394 0 0 .506-1.425.79-2.847.888-4.45 5.937-6.396 9.48-5.177.666.28 1.188 1.217 1.096 1.343-4.33-1.355-9.085 2.725-9.36 7.145-.09 1.438-.057 2.67.683.076 2.797-9.82 11.427-5.37 10.366-4.564-6.68-.794-9.098 3.685-8.943 8.864.096.473.34.63.54 1.072.89 1.95 1.296 3.624 1.367 7.165-.067.912.688 6.72-.074 6.474-2.426-.893-4.27-1.948-8.474-.064-.378.02-.502-.188-.372-.515.175-.438.832-1.308 1.978-2.592 2.582-2.742 1.1-2.008-1.023-.104-1.372 1.23-1.074.39.217-3.808.523-1.7.197-1.907-2.055-3.048-2.32-1.173-3.924-1.353-1.955-.123.77.47 1.595.964 2.47 1.312 1.026.56.91.794.152 3.246-1.473 4.763-1.984 6.503-1.907 9.706.188 7.79 7.638 7.017 11.88 5.265l.176 5.13 15.972 22.42s-55.835-.058-85.708.432c1.707-4.082 19.766-21.372 20.84-24.465.104.015-2.002-6.32-3.107-9.077-5.223-13.015-12.088-18.486-8.112-27.037.855-1.694 1.004-2.266 1.654-2.263.88.004 1.164.588.17 2.246-4.268 7.135 4.84 19.443 7.917 27.294.493 1.258 2.555 7.148 2.917 9.132.034.606 1.48.813 1.075.104-1.135-4.01-2.56-8.392-3.22-9.97-2.433-5.795-4.99-9.75-7.362-15.415-1.324-3.58-2.03-7.715.025-11.426.748-1.353.962-2.104 1.455-2.175.426.002.675.146.702.494.03.378-.204 1-.764 1.95-3.59 6.087 2.79 15.922 5.95 22.936 2.06 4.572 3.893 9.38 4.54 13.718.01.3.407 1.094 1.198.552-1.367-8.1-5.386-15.956-8.905-23.525-3.007-5.91-4.135-11.066-.117-15.934.35-.337 1.1-.28 1.153.218.028.34-.23.98-.86 2.277-3.54 7.378 1.942 13.37 4.514 20.404 2.51 5.88 4.842 10.82 5.78 17.087.71.27 1.06.605 1.136-.282-1.835-8.854-5.79-16.813-9.222-24.48-1.586-3.332-2.146-4.93-2.254-7.16-.148-3.068 1.4-6.95 2.79-7.975.36-.266.586-.312.915-.135.45.244.36.407-.53 2.088-1.704 3.21-1.85 6.818-.272 10.634 2.73 5.858 5.026 10.667 6.654 14.975 1.782 4.712 2.784 8.804 3.188 12.496 0 0 1.214.54 1.033-.265-.757-5.167-2.47-10.528-4.317-15.064-1.744-4.28-3.93-8.402-5.702-12.647-2.15-5.092-.37-10.656 4.037-13.437l2.028.044c-.118-.053-4.624 1.73-4.86 8.15-.226 6.115 2.682 9.874 4.783 15.055 2.562 6.248 4.854 11.728 5.4 18.405.2.232 1.31.282 1.29.184-.545-4.492-1.86-8.762-3.74-14.01-1.996-5.578-3.982-8.052-5.836-13.908-1.253-3.962-1.085-9.33 1.71-11.78 4.18-4.21 10.01-1.213 8.55 3.604-1.128 3.392-5.788 2.718-5.763-.46-.006-2.052 2.527-2.606 3.365-1.058.195.3.326 1.62.413 1.67s.35-1.038.352-1.28c.008-1.687-2.287-3.105-3.995-2.25-2.34 1.172-3.86 3.866-3.706 7.474.163 3.836.86 6.318 4.01 12.335 3.67 7.01 4.888 14.6 5.67 19.716.34-.142.746.04.878 0-.535-6.974-2.833-14.136-5.7-20.09-3.474-7.21-4.445-11.623-3.287-14.854.17-.475.332-.832.54-.863.39-.06.51.56.87 1.854.11.396-.03 1.02-.11 1.504-.302 2.958 1.777 9.11 3.71 11.843.567.78 1.29.754.665-.63-1.99-3.574-3.204-6.814-3.364-11.16-.047-1.277 1.445-.703 1.48-.062.106 2.075.314 4.52 1.31 6.26 2.02 3.442 3.145 3.593 1.077-.252-.46-.892-1.77-4.663-1.243-5.96.295-.264.653-.31.83-.047.585 2.13 1.394 4.24 2.824 5.883.75.854.873.47.48-.598-.66-1.234-2.72-5.362-1.77-6.292.305-.252.125-.115.958 1.238 1.158 1.886 1.79 2.625 2.353 3.176.75.732.932.24.157-1.05-1.546-2.572-2.426-4.71-1.883-5.248.538-.532.668-.285 1.89 1.785.542.922 1.328 2.28 1.598 2.6.268.32.512.4.518.14-.285-2.5-2.44-5.352-3.308-5.847-.125-.232-.08-2.207-.08-2.207 3.237 1.66 3.37 3.533 5.513 6.42.222.214.537-.048.442-.447-.075-.54-1.344-2.94-2.14-3.995-.626-.828-.654-1.303-.123-1.542.856-.386 2.054.884 3.33 3.15.592 1.053 1.383 1.663 1.385 1.11.002-.304-1.1-3.017-1.86-3.8-1.266-1.307-.64-2.22.826-1.01.666.547 1.567.96 2.497 2.955.542 1.166 1.008 1.315 1.01.385.004-1.045-1.76-3.598-2.946-4.304-.917-.546-1.438-1.157-1.18-1.564.804-1.178 4.06 1.826 5.172 4.62.328.826.902 1.247 1.044.884.25-.185-.41-2.2-1.087-3.132-1.118-2.132-3.76-4.19-5.325-3.942-.303.048-1.134-1.7-1.134-1.7 3.993-.64 7.87 4.118 8.56 5.9 1.31 3.378 1.977 2.98.832.018-2.237-5.792-9.188-9.037-13.044-6.235-2.196 1.596-.883 5.412 1.376 4.765.898-.335 1.77-1.247.188-.946-1.757.174-2.317-2.49-.525-3.022 2.882-.86 3.543 3.712 1.215 4.73-2.416 1.03-4.82-.507-4.594-3.146.428-4.99 6.586-6.432 12.665-2.396 1.71 1.135 3.812 4.835 4.536 7.18.238.774 1.043 1.045 1.142.947.23-.23-1.688-4.347-2.32-5.394-2.646-6.034-12.217-6.332-12.217-6.02 0 0-3.748 2.347-7.077 6.216l-8.553-.784c21.792-34.833 23.505-86.047 1.152-122.303.286.183 4.297 1.215 5.68.132 1.02-.486 1.312-.654 2.438-.252 1.27.454 2.604.053 3.986-1.205 1.04-.947 1.063-1.24 1.732-1.152 1.984.256 3.302-.9 3.71-3.75.16-1.118.272-2.28.11-2.11-.094.1-.324 1.066-.47 1.675-.4 1.674-.773 2.287-1.43 2.833-1.078.9-1.702.397-1.252-.967.427-.88.78-3.146.194-4.176-.102-.186-.127.516-.274 1.077-1.18 4.463-2.413 6.73-4.548 7.252-1.002.246-1.466.094-1.142-.48 3.767-3.995 3.516-8.422 3.23-8.043-.8 2.56-2.287 6.378-4.73 7.947-2.108 1.355-5.198 1.484-6.918.347-.976-.646.5-.838 2.708-.867 3.72-.05 7.198-4.995 6.62-9.164-.135-.77-.347.057-.65 1.324-1.37 4.515-3.727 7.684-9.104 6.737-.42-.073-.7-.35-.93-.507-.876-.604-.554-1.02 1.186-.793 3.89.506 7.276-3.124 7.256-7.51-.01-2.106-.313-2.082-.65-.514-.474 2.21-2.2 8.99-8.493 6.775-1.134-.61-1.75-1.394-1.348-1.51 3.67.737 7.032-.065 8.34-4.862.563-2.07.428-4.095-.146-5.79-.182-1.15-.57-2.027-.7-3.197-.353-3.134-.855-6.594-.703-10.022.3-.298.354-.232 1.41.465 2.072 1.37 3.642 1.056 5.75.242 2.713-.975 2.467-.8-.37 2.392-.592.665-1.19 1.478-1.258 1.604-.723 1.348.63.36 1.645-.91 1.41-1.763 1.705-2.17 1.983-2.168.094 1.906-.596 4.223-.953 5.784-.47 1.732-.463 2.132.645 2.576.48.193 1.407.57 1.922.816 2.32 1.104 2.106.205.257-.835-2.5-1.405-2.52-1.334-1.805-3.668.838-2.736 1.25-5.106 1.703-7.814 1.122-6.697-3.953-10.38-10.694-8.042-.386.193-.832-3.52-.77-4.503.06-.354-1.02-.277-1.902-1.357.27-.24-9.94-12.975-14.695-20.697 26.66-.036 53.44-.483 80.18-.477zm-16.58 23.93c.066.04.105.075.105.075-.042-.052-.078-.076-.103-.076zm23.11-23.323h28.592l.413 61.59-2.533.06s-4.773-8.175-6.03-12.037c-.314-.965-.864-2.293-1.078-2.814-.486-1.182-.825-1.328-.18-2.05 1.29-1.446 1.036-4.37-.22-5.78-.388-.457-.59-.303-.57-1.414.018-.955.108-1.566-.145-2.06-.425-.823-.712-.88-.104-1.788.637-.95 1.48-2.49 1.837-3.7.575-1.955.17-2.32 1.452-1.86 3.216 1.02 5.91-1.267 5.826-4.497-.07-2.72-2.625-5.143-5.595-4.4-.684.172-.82.114-1.873-.545-.303-.188-.763-.587-1.153-.735-.49-.186-.894-.17-1.096-.517-.4-.684-1.642-1.77-3.155-1.7-.925.044-2.126-.29-2.444-.454-.528-.275-2.01-.053-3.892-.333-.837-.125-1.512.2-1.917.203-1.158.015-.686-.13-.905-1.006-1.452-4.572-5.695-4.027-7.64-.588-.713 1.35-1.23 3.352-1.5 5.42l-11.425-.172 15.335-18.824zm-88.428.133c4.27 5.406 8.353 11.467 12.655 16.987 5.295 6.686 5.47 7.453 4.048 14.182-.795 3.804-1.136 4.682-2.747 4.395-1.513-.27-2.792.915-2.998 2.415-.388 2.816 2.338 4.55 5.076 3.142 1.445-.743 1.493-.823 1.012 1.632-.69 3.518-2.07 6.547-2.96 6.448-2.296-4.853-7.882-1.4-6.027 3.646-.58.88.183 1.997.475 2.92 0 0 .012.108-3.18 1.16-15.663 4.617-35.065 16.673-45.66 27.99l-.72-84.684 41.028-.233zm89.888 11.554c.657-.017 1.29.192 1.812.66 1.366 1.222 1.045 2.93-.845 6.145-1.982 4.48-1.44 8.008-.986 12.71-.014 2.732-.94 5.328-2.415 6.45-2.393 1.817-5.34-.617-4.1-3.085.635-1.226 1.983-.51 2.3-1.67.114-.693.102-1.784.177-2.3-.286-2.063-.877-8.353-.88-10.535.026-1.88.645-4.242 1.5-6.012.837-1.475 2.182-2.33 3.436-2.363zm3.767 7.308c-.542.45-1.446.46-1.552-.103.003-.59.466-2.467.785-2.675 1.96-.455 1.335 2.293.768 2.778zm2.93-2.928c1.617-.063 2.685 4.062 1.28 6.477-.268.05-2.23.037-2.24.076-.032-.432.096-1.292.242-2.116.125-.705.2-1.24-.014-1.998-.53-1.89-.876-2.246.732-2.44zm3.083.056c.06-.002.123 0 .19 0 1.644.008 2.58 3.172 2.063 6.63-.075.495-.117 1.017-.3 1.133-.687-.186-2.595.492-2.628.487-.18-.183-.106-1.166.137-2.053.45-1.64.575-2.73.047-4.427-.38-1.466-.394-1.745.49-1.77zm4.094.912c1.807.303 1.924 5.29 1.182 6.908-.177.24-.858.182-1.1.27-1.536.44-1.194.668-1.017-1.77.122-1.67.15-2.97-.1-4.35-.122-.606-.17-1.028.27-1.068.258-.05.53-.043.765.01zm-9.01 1.95c.72.982.14 3.257-.408 4.102-.626.932-.878 1.01-.535 1.417.145.173.446 1.054.26 1.423-.344.685.54.808 1.344 1.225 1.304.68 1.936 1.933 2.908 4.214.34.794 1.034.544.697-.312-.29-.732-.4-1.812-.602-2.53-.208-.74.02-1.11.876-.893 1.284.327 1.106.022 1.576-.15 1.032-.57 1.725.236 1.102.683-.358.256-1.12.412-1.966.644-.717.196-.55.886.17.883.667-.003 2.576-.538 3.82-.914 3.57-1.078 3.69-1.65 3.356.375-.44 2.68-1.906 4.69-4.328 5.372-2.107.592-6.975.48-9.144-.214-2.06-.932-2.195-1.582-2.818-3.393-.853-2.478-1.354-6.672-.375-9.11.863-2.06.776-1.842 1.604-1.738.735.256 1.726-.03 1.945-.48.11-.217.392-.61.518-.602zm13.67 1.485c.204 1.103.223 2.235-.16 3.09-.223.4-1.473.378-1.955.383-.286.067-.265-3.725.042-4.137.727-1.09 1.666-.214 2.074.664zm-36.218-.655l3.535.043v.858l-4.17-.028.635-.873zm12.37.147l.005 1.115-5.324.01V58.4l5.955.02.033 1.452-7.97-.028.023-9.547 7.28-.005zm27.06-.222c5.458 1.197 3.023 7.227.978 7.592-2.55.455-4.712.168-4.005-2.074.71-1.52.217-3.41.418-4.792.492-.456 1.776-.91 2.61-.726zm-41.148 2.116l5.253.052v1.153l-6.002-.014.75-1.19zm11.668 1.062c.84 0 1.52.68 1.52 1.52 0 .837-.68 1.518-1.52 1.518-.838 0-1.52-.68-1.52-1.52 0-.838.682-1.518 1.52-1.518zm14.818.603c.978.107 1.062 1.603.664 2.04-.513.506-1.47.29-1.76-.487-.262-.702.326-1.582 1.096-1.552zm-27.952.65l6.72.02v.935l-6.786.058-.18-.603.246-.41zm37.822.405c.932-.022 1.502.76.92 1.428-.877.973-2.666-.517-.92-1.428zm-71.595 2.042c-1.503 1.27-.3 2.516 1.698 1.313 4.297-2.584 10.635-.536 14.766 1.617.81.414.92-.552.122-1.22-3.816-3.358-11.95-5.285-16.587-1.71zm65.105-1.767c1.05.005 1.034 1.312.36 1.78-.673.29-.79.21-1.238.035-.613-.238-.155-1.81.878-1.815zm3.717.02c1.244.06 1.106 2.562-.773 1.66-.68-.73-.24-1.664.773-1.66zm-34.727 1.29l6.53.057v1.062l-6.107-.063-.423-1.057zm-42.196 2.5c1.784 1.415 1.23 1.502-1.728.46-1.933-.43-3.857-.155-5.067.323-1.433.565-1.765.402-1.145-.556 1.666-1.868 6.256-1.49 7.94-.227zm8.58 2.343c-.18.442-.792-.354-1.62-.2-1.18.222-.84.276.41 1.695s1.654 1.755 1.58 2.302c-.113.804.112 1.246.914 1.157.386-.043.843.403 1.434.94 2.042 1.855 3.074 2.777 3.738 3.064 2.705 1.168 1.487-.148-.24-1.342-2.884-1.99-3.886-3.314-1.838-2.605 2.176.754 5.637.326 7.34-.7.84-.506 1.37-1.28 2.554-.903 1.66.53 2.297-.447 1.836-.996-.754-.483-2.476-1.06-4.11-2.16-3.496-1.773-7.172-1.72-9.62-.293-1.445.842-1.947.25-.532-.583 5.677-3.06 10.168-.13 13.803 2.07.63.38 1.07.35 1.072.08-.097-.89-1.714-1.435-2.368-1.832-5.064-3.08-10.386-4.064-14.354.308zm34.47-2.71l5.676.006v1.12l-5.257-.025-.418-1.1zm-46.172 1.43c1.57-.008 4.99 1.402 4.935 2.57-.065.445-.922.047-1.666-.407-1.437-.878-3.644-1.113-5.72-.726-1.597.297-2.104.56-2.33.37-.553-1.238 3.323-1.8 4.782-1.808zm61.36.835l.01 2.007c-3.08.225-3.714 3.647-1.737 5.553 1.62 1.563 4.298.947 5.644-1.27.234-.393.263-.63.406-.435.09.122.17.495.242.858.214 1.055-.09 1.324-.787 2.227-1.127 1.458-1.28 3.296-.573 4.664.194.378.602.915.53 1.163.396-.012-3.497 10.88-9.183 16.37-.952.63-1.642-.112-1.15-1.134 4.63-10.585-4.23-20.417-7.67-29.875l14.27-.127zm-41.17 1.826l.812.07c-.653 4.877-5.385 4.092-5.57.12l.683-.024c.92 3.695 4.085 2.183 4.075-.166zm-26.73.1s.343.545.343.85c0 1.135-.02 2.776-.048 3.274-.273 4.69-6.227 5.562-5.774 1.547.354-1.705 2.508-1.894 3.037-.352.772 1.94.91-.467.92-1.22.63-1.18 1.092-2.617 1.523-4.1zm28.69.332c.243.007.68.22 1.023.59.392.42.246.63-.67 1.1-.99.51-1.437.466-1.08-.564.222-.64.412-1.134.726-1.126zm44.536.247c.134.006.48.184.398.692-.135.852-.87 1.335-1.063 1.135.123-.45.27-1.65.665-1.827zm-51.645 1.646c-.116.344-.32.194-.84-.248-.573-.486-.543-.798.048-1.147.85-.512.9 1.077.793 1.394zm-18.026-1.272c.994 3.14 3.02 2.74 3.925.15l.868-.013c-.19 4.042-5.31 3.97-5.353.062l.56-.2zm-1.793.388c.303-.048.085 1.002.085 1.002s-.84-.434-.347-.893c.062-.057.218-.102.26-.11zm7.515.267c.103-.007.3.072.512.213.497.33.412.523-.156.996-.875.73-1.27.324-.798-.654.176-.364.31-.547.44-.555zm65.352.683c.37-.022.89.145 1.988.437 3.027.805 7.08.775 10.528-.176 1.09-.3 1.898 1.61 1.31 3-.26.612-.214.688.58 1.513 1.124 1.17 1.304 3.053.45 4.77-.622 1.248-.58 1.137.156 3.27.337.975.77 1.97.85 2.238.93 3.143 3.23 6.854 4.63 9.96 1.4 2.184-2.51.023-2.51.023s1.052 1.41 2.45 2.464c1.354 1.03 4.018.333 5.237 1.585.286.393-.276 8.727-.563 8.957-12.038-.56-32.118-.118-32.118-.118l3.762 5.863c5.92 2.365 11.578 1.773 16.99-1.632-.133.49 6.587 3.776 12.105 4.134l.033 3.948c-4.095-.46-8.243-.554-12.048-2.947 0 0-3.496 1.462-6.998 2.558l19.616 20.29.01 3.393s-8.375-7.816-16.993-16.627l.186 43.325 16.973.332c-.533 11.276-.318 18.445-.204 31.36-8.02 8.228-19.057 16.46-29.253 21.403-4.813-4.64-8.788-9.666-12.267-15.04-.073-.114.352-.332.277-.445-.105-.165-.71-.228-.818-.39-2.12-3.16-7.048-11.914-6.268-12.12 1.508.104 8.496-.76 9.888-4.948.012-.266-.15-1.013.038-1.89.49-2.27.743-5.717-.09-7.91-1.502-3.95 3.017-2.684 3.17-2.42l-.005-14.922c-5.88 4.714-11.812 9.353-19.673 11.293-4.89-24.643 2.864-55.29 24.968-76.075l-1.212-.104c-22.71 23.496-28.665 49.335-24.79 76.548 0 0 .144.85.166 1.14.053.676-.11.934-.712 1.423-.574.378-1.096.784-1.044 1.25.098.872-.742.9-1.84.895-.507-.443-1.19.115-1.596.318-.57.084-.853-2.24-1.58-.536-.276 1.076-.802 1.156-2.017.62-.763-.222-.78.157-.047 1.04 1.013 1.09 1.87 2.72 1.703 3.208-.37 1.096-.21 2.2 1.34 2.828-.09.007-.936 3.342 1.466 3.245.764.008 2.7.398 2.7.398.125.638-.08 1-.38 1.28l-1.67-.834-.438 1.988-2.225-.157 5.413 6.687.632-5.215 6.33.802c1.016 2.637 7.41 17.302 19.634 28.213 0 0-6.682 2.908-8.555 3.82l-1.163-4.157-1.05 1.51-1.868-.48-.218 1.71-1.666.535 2.904 2.192-7.464 2.27c-21.322-34.392-30.972-82.162-4.418-132.68l6.71.085-1.31 2.24 1.907-.304.54 1.633 1.4-.66 1.408 1.764 1.603-4.714s4.755.107 5.348.047c.465-.053 10.047-8.092 9.84-8.398-.147-.222-10.435 7.296-10.78 7.008 0 0-1.032.246-.228-.716 1.444-1.728 2.463-3.04 3.93-5.523 2.42-3.295 3.51-7.315 4.08-10.04.01-.19.062-.628-.1-.948-.924-1.832-.72-3.03.94-5.19.58-.757.615-.944.45-1.41-.374-1.05-.015-1.947.75-2.652.308-.283.505-.417.792-.434zm-56.535 7.317c4.21 1.73.83 5.56-2.298 2.22-1.64-1.75-2.934-1.638-3.825-.36-.402.576.183 1.588.702 1.267.482-.298.978-.65 1.68-.004 5.325 4.902 9.15-1.96 4.56-3.668-.568-.263-1.375.317-.82.545zm-17.344-.167c.04-.002.086.02.147.058.2.124.214 1.857.014 2.586-.665 3.69-3.297 12.27-8.697 8.07-2.145-1.667-.193-5.853 2.372-4.432 2.003 1.11.65 3.762-1.52 2.24-1.053-.738-.72.784.17 1.22 1.51.788 4.24-.562 5.52-2.97.51-.96.99-2.658 1.528-5.102.27-1.228.293-1.66.465-1.67zm.455 6.392c.445 2.67-1.587 7.344-4.48 8.033-2.214.53-4.95-.913-4.754-2.248.057-.388.215.124 2.22.456 2.802.462 4.585-1.05 6.198-4.532.51-1.1.727-1.683.816-1.708zm6.97 1.276c0 .302-.144 1.097-.27 1.623-.3 1.25-.485 1.726.883 1.105.905-.417 2.228-.83 3.598-.07 1.51.837 2.95.682 4.73-.072 1.545-.514 2.298-.52 3.16-.023 1.574.905 1.033.327.83-1.955-.14-1.606-.578-1.396-1.144-.787-.37.398-1.12.486-1.955.038-.995-.535-2.38-.28-2.848.1-.466.38-1.14.43-2.055-.186-.604-.408-.942-.194-1.685.138-1.222.547-1.69.252-2.354-.26-.6-.442-.882-.303-.89.35zm-6.064 1.917c.16 0 .178.616.066 1.856-.51 4.577-4.094 7.127-8.312 4.91-1.85-1.054-1.598-1.798.223-1.138 2.902 1.052 5.833-.42 7.266-4.18.367-.964.618-1.445.758-1.447zM104 85.107c2.087.863 4.4.59 4.99-.176.66-.858-.355-.717-.885-.588-1.826.437-3.08.277-3.82-.053-2.162-.836-2.025.07-.284.816zm-21.763 2.567c2.704 3.31 3.06 3.956 5.39 7.72 17.032 28.908 22.485 65.445 11.288 98.614-3.072 9.152-7.406 18.48-12.266 25.974l-5.832.063 2.002-2.282-2.714.2-.166-1.51-2.06.666-.99-2.278-1.866 5.215-10.81.028c25.316-24.6 30.303-54.413 25.58-78.348 0 0 2.116-1.323 2.41-2.097.072-.188.23-.987.376-1.105.94-.616 1.566-1.214 2.03-1.097.268.067.404.19.6.475.89 1.307 1.083 1.51 1.57.194.35-.944.198-1.286 1.347-1.105.672.357 1.566.347 1.485.214-.06-.1-1.015-1.218-1.467-1.854-1.068-1.504-1.375-1.775-1.276-2.434.15-1.004-.65-2.087-1.15-2.358.146-2.704-.893-2.974-3.833-3.578-.015-.466.064-.845.27-1.262l1.73 1.376.625-2.553 2.345.128-6.795-6.576c.034 1.853.12 3.73-.048 5.517-3.186-.174-6.327-1.2-6.376-1.006C78.96 111.6 71.835 102.287 64.31 95.02l7.517-3.61 2.13 4.06.522-2.3 1.864.327.313-1.477 2.06-.29-2.273-2.158 5.793-1.9zm44.758 4.75c.287.36.518.387.9.716l-.768.545c.037-.517-.008-.78-.132-1.263zM76.99 93.78c-.64 0-1.16.52-1.16 1.158 0 .637.522 1.152 1.16 1.152.636 0 1.15-.516 1.15-1.152 0-.638-.515-1.158-1.15-1.158zm6.27.183c-.64 0-1.158.52-1.158 1.157 0 .64.52 1.158 1.157 1.158.64 0 1.157-.52 1.157-1.158 0-.638-.518-1.157-1.158-1.157zm-20.203.846c3.722 3.093 7.144 7.123 11.293 13.428l-.085.85 1.267.47s6.903 9.086 6.54 13.124c-2.372.495-4.205-.38-8.442 3.583l-2.724-.594-2.866.7s.037.896.75 1.2c.31.13.822-1.126 1.157-1.088 1.393.16 2.797.184 2.54.622-.293.125-1.042 9.15.41 11.074.813 1.957.23 1.94-.497 2.302-.79.517-3.278-.574-3.278-.574l.574 14.334c6.565-7.49 20.434-12.485 19.45-11.942 6.96 36.765-9.59 61.29-26.91 79.27l9.078.052s-7.826 12.553-8.408 16.023c.444 1.153 1.675 3.543-.403 5.22-.704.77-.778 4.27-.778 4.27-4.773.165-8.91-1.492-14.415.437-.57.192-.693-2.996-.722-3.572-1.69-1.582-1.958-4.8-.498-6.473.542-.615.312-.29-.142-2.372-.726-3.324-3.14-7.883-4.978-10.81-.603-.958-1.206-2.078-1.353-2.424-1.313-1.56-4.767-.84-5.187-1.25-.382-.32-.63-8.82-.242-9.024 13.604 1.08 34.895-.156 34.895-.156l-5.713-7.98c-7.037-2.744-16.706 1.94-16.24 2.187.022.027-7.73-4.227-13.105-3.622l.176-4.17c4.777-.018 9.185.872 13.03 3.14l6.537-2.433-20.033-21.016.232-3.464s5.117 5.48 10.68 11.33c4.773 5.022 6.56 5.866 6.56 5.866l.014-43.587-17.225-.042-.46-8.906-.446-.778-.205-6.392.48-.65-.167-2.732-.16-.39-.22-6.528.37-.55.057-4.11c8.324-8.15 29.812-21.853 29.812-21.853zm14.714 1.238l2.01 8.797 1.347-1.67 2.068.65.143-2.027 1.884-.654-7.45-5.096zm68.45 1.463c-.64 0-1.16.52-1.16 1.158s.52 1.158 1.16 1.158c.638 0 1.156-.52 1.156-1.158s-.518-1.157-1.157-1.157zm-5.42.726c-.64 0-1.158.518-1.158 1.157s.52 1.158 1.158 1.158c.64 0 1.157-.518 1.157-1.157s-.518-1.157-1.157-1.157zM74.43 99.26c-.64 0-1.157.52-1.157 1.158 0 .64.52 1.157 1.158 1.157s1.158-.52 1.158-1.157c0-.64-.517-1.158-1.157-1.158zm70.525.697l-8.058 7.578 2.26-.095.403 2.21 2.02-.925 1.637 1.51 1.738-10.278zm3.43 2.547c-.64 0-1.16.52-1.16 1.157 0 .64.52 1.16 1.16 1.16s1.156-.52 1.156-1.16c0-.637-.516-1.156-1.156-1.156zm-64.075 1.49c-.64 0-1.158.52-1.158 1.16 0 .638.52 1.156 1.158 1.156s1.157-.52 1.157-1.157c0-.64-.518-1.158-1.157-1.158zm5.01.97c-.64 0-1.157.518-1.157 1.157s.52 1.158 1.158 1.158 1.158-.518 1.158-1.157-.518-1.157-1.157-1.157zm-4.545 1.722c.222 3.096.583 6.768.664 9.87l1.527-1.505 1.765.718.627-1.903 1.92-.095-6.505-7.084zm49.608 2.583c-.64 0-1.158.517-1.158 1.156s.52 1.158 1.158 1.158 1.158-.52 1.158-1.158-.517-1.157-1.157-1.157zm-52.93.2c-.64 0-1.158.52-1.158 1.16s.52 1.156 1.158 1.156 1.157-.518 1.157-1.157-.517-1.16-1.157-1.16zm57.52.282c-.64 0-1.158.52-1.158 1.158s.612 1.157 1.158 1.157 1.157-.518 1.157-1.157-.517-1.158-1.157-1.158zm-.687 2.5l-6.68 6.87 2.19.204.687 1.95 1.4-1.187 1.698 1.242.706-9.08zm3.668 1.474c-.64 0-1.157.52-1.157 1.157 0 .64.518 1.158 1.157 1.158s1.158-.518 1.158-1.157c0-.64-.518-1.157-1.158-1.157zm-52.662 2.14c-.64 0-1.158.52-1.158 1.158 0 .64.52 1.158 1.158 1.158.64 0 1.157-.612 1.157-1.158 0-.544-.52-1.157-1.158-1.157zm-28.37.708l-2.174 1.665.536-.08s1.314 1.528 1.314 1.636.807-.028.807-.028l-.483-3.194zm33.846 1.01c-.64 0-1.158.52-1.158 1.158 0 .64.52 1.158 1.158 1.158s1.157-.52 1.157-1.158c0-.638-.518-1.157-1.157-1.157zm-8.294 1.653c-.64 0-1.158.518-1.158 1.157s.52 1.158 1.158 1.158c.64 0 1.157-.52 1.157-1.158s-.517-1.157-1.156-1.157zm47.828 2.332c-.64 0-1.157.518-1.157 1.157s.52 1.158 1.157 1.158c.64 0 1.158-.52 1.158-1.158s-.518-1.158-1.158-1.158zm-4.57 1.698c-.638 0-1.156.52-1.156 1.158 0 .64.52 1.157 1.157 1.157.64 0 1.158-.52 1.158-1.157 0-.64-.518-1.158-1.157-1.158zm46.644.286l2.405 2.614v38.254l-2.348.048-.056-40.916zm-93.65.27c1.96.003 4.144.285 4.84 1.476 1.08 1.336-1.22.82-3.156 1.11-1.79.22-.75.584 1.774.73 3.48.206 4.85.297 5.368 1.1.294.747.078 1.252.14 2.057l-3.95-.186c-2.05.004-3.256-.035-3.863.12-.485.123-.347.512-.182.678.086.088 1.66.108 3.497.157 4.946.13 6.04.297 6.392 1.89.265 1.458-.925 1.235-6.007.682-2.262-.185-3.48.348-3.806.508-.558.273 1.615.543 2.325.427.442-.07 3.705.283 4.905.508 1.01.153.12.125-.39.74-.337.51-.23 1.094-.76 1.38-.647.344-1.932.338-4.236.338-2.636 0-3.864.64-.248.797 2.337.102 2.47.062 2.667.736.526 1.664-.598 1.956-2.98 2.335-1.14.195-2.828.086-4.104-.005-5.04-.358-6.787-1.56-7.47-3.78-2.54-8.29.597-13.35 7.94-13.757.406-.022.847-.04 1.3-.04zm50.947.37l-5.692 8.28 2.194-.854 1.044 2.244 1.756-1.252 1.754 1.08-1.055-9.497zM91.085 125.2c.296.36.166.63-.322.897-.412.224-1.116.058-1.58-.143-.612-.265-.674-1.358-.17-1.476.722-.143 1.62.193 2.072.722zm-41.228-.42l-3.112 2.978.095.114 4.1-1.613-1.083-1.48zm87.365 1.27c-.64 0-1.157.52-1.157 1.158 0 .64.518 1.157 1.157 1.157s1.158-.52 1.158-1.157c0-.64-.518-1.158-1.158-1.158zm42.38 1s2.9 2.865 4.09 4.067l-1.076-.005.028 2.26 3.43.037 1.885 1.845-5.24-.023v2.306l6.487.005-.033-.987 2.562 2.32.304 25.65-12.36-.037c-.048-12.63-.012-24.808-.077-37.44zm-84.796 2.78c-.178.556-.575.558-1.253.28-1.003-.407-.86-1.514-.1-1.63 1.435-.164 1.7.497 1.353 1.35zm3.89.486c-.64 0-1.157.52-1.157 1.158 0 .64.518 1.157 1.157 1.157s1.157-.518 1.157-1.156c0-.64-.518-1.158-1.157-1.158zm-4.076.887c.452.027.9.26 1.158.512.633.64.41 1.235-.3 1.604-.794.412-1.353-.15-1.584-1.093-.155-.634.216-1.003.726-1.024zm36.345 3.037c-.642 0-1.162.52-1.162 1.162 0 .643.52 1.163 1.162 1.163.643 0 1.162-.52 1.162-1.163 0-.642-.52-1.162-1.162-1.162zm-38.262 1.41c.998.033 1.3 1.052.778 1.6-.746.74-1.907.422-2.072-.286-.052-.797.596-1.315 1.295-1.315zm34.114.468c-.64 0-1.158.52-1.158 1.158s.518 1.157 1.157 1.157 1.157-.518 1.157-1.157-.518-1.158-1.157-1.158zm4.112.77l-5.183 8.692 2.098-.83 1.27 1.675 1.31-1.144 1.98.97-1.476-9.363zm-40.66 1.45c.927.006 1.186.733.512 1.4-.457.454-.976.468-1.504.048-.8-.635-.187-1.452.992-1.447zm44.29.11c-.64 0-1.16.518-1.16 1.157s.52 1.157 1.16 1.157 1.156-.518 1.156-1.157-.518-1.158-1.157-1.158zm-37.724.912c-.64 0-1.11.52-1.11 1.157 0 .64.52 1.158 1.158 1.158s1.157-.52 1.157-1.158c0-.64-.564-1.157-1.204-1.157zm85.84.255v2.458l6.53.005v-2.458l-6.53-.005zm-85.754 2.183l-2.5 9.135 2.092-1.19 1.305 1.332 1.214-1.494 2.183.57-4.295-8.352zm4.445.992c-.64 0-1.157.52-1.157 1.157 0 .64.52 1.158 1.157 1.158.64 0 1.158-.52 1.158-1.158 0-.638-.518-1.157-1.158-1.157zm-8.15.465c-.64 0-1.16.52-1.16 1.158 0 .64.52 1.157 1.16 1.157s1.156-.52 1.156-1.157c0-.64-.517-1.158-1.157-1.158zm89.455.722l.005 2.206h6.53l-.006-2.192-6.528-.013zm-53.728 2.884c-.64 0-1.157.52-1.157 1.16s.52 1.157 1.157 1.157c.64 0 1.158-.52 1.158-1.158s-.52-1.16-1.158-1.16zm53.733 1.235v2.377h6.53v-2.377h-6.53zm-134.623.29l2.296.042.038 41.438-2.24-2.367-.094-39.114zm-.96.08l-.112 37.874-4.352-4.575 1.158-.014v-2.58l-3.768-.03-1.608-1.564 5.37.005v-2.533l-6.37-.023v1.532l-3.133-3.34.05-24.73 12.765-.02zm82.02 1.157l-3.484 9.012 2.19-1.248 1.136 1.114 1.172-1.058 1.992.973-3.005-8.793zm-91.69.433l-.032 2.425h6.435v-2.425h-6.402zm95.64.488c-.64 0-1.16.52-1.16 1.157 0 .64.52 1.158 1.16 1.158.638 0 1.156-.52 1.156-1.158 0-.638-.52-1.157-1.157-1.157zm-7.88.13c-.64 0-1.16.518-1.16 1.157s.52 1.158 1.16 1.158 1.156-.52 1.156-1.158-.517-1.157-1.157-1.157zm-27.247.43c-.64 0-1.157.52-1.157 1.158s.52 1.16 1.157 1.16c.64 0 1.158-.52 1.158-1.16s-.52-1.156-1.158-1.156zm84.74.935v2.548h6.53v-2.548h-6.53zm-84.882 1.438l-.97 1.494-2.215-.754 3.022 9.144 3.792-9.537-2.18 1.243-1.45-1.59zm-60.37.664v2.42h6.4v-2.42h-6.4zm145.252 2.17v2.523h6.524l.006-2.524h-6.53zm-145.252 2.11v2.425h6.4v-2.425h-6.4zm91.606.455c-.64 0-1.16.52-1.16 1.163 0 .642.52 1.162 1.16 1.162.644 0 1.164-.52 1.164-1.162 0-.642-.52-1.163-1.163-1.163zm-34.856 1.21c-.642 0-1.162.52-1.162 1.163 0 .642.52 1.162 1.162 1.162.643 0 1.163-.52 1.163-1.162 0-.642-.52-1.163-1.163-1.163zm7.43.22c-.64 0-1.16.52-1.16 1.16 0 .644.52 1.164 1.16 1.164.644 0 1.164-.522 1.164-1.164 0-.642-.52-1.162-1.163-1.162zm81.073.16v2.277h6.524l.006-2.277h-6.53zm-53.655 1.063l-1.386 1.457-1.988-.564 4.508 8.41 2.277-9.045-1.988 1.267-1.423-1.524zm-91.597.854v2.752h6.4v-2.752h-6.4zm60.412 1.248c-.642 0-1.162.52-1.162 1.162 0 .643.52 1.163 1.162 1.163.643 0 1.163-.52 1.163-1.163 0-.64-.52-1.162-1.163-1.162zm-.075 2.397c-.496.352-.712.968-1.23 1.285l-2.115-.9 1.27 11.45 5.876-10.82-2.686.45-1.115-1.465zm-60.337.374v2.862h6.4v-2.86h-6.4zm96.14 1.328c-.643 0-1.163.52-1.163 1.163s.52 1.163 1.162 1.163 1.162-.52 1.162-1.162c0-.642-.52-1.162-1.162-1.162zm-7.517.133c-.643 0-1.163.522-1.163 1.164 0 .642.52 1.162 1.163 1.162.642 0 1.162-.52 1.162-1.162 0-.643-.52-1.163-1.162-1.163zm-88.623 2.693v2.866h6.4v-2.867h-6.4zm92.815.64c-.642 0-1.162.52-1.162 1.162 0 .642.52 1.162 1.162 1.162.643 0 1.163-.52 1.163-1.162 0-.643-.52-1.163-1.163-1.163zm16.412.09c6.225.198 7.137 2.202 7.173 9.115.03 5.518-1.614 7.674-5.632 8.738-1.463.388-6.937.028-8.487-.47-.025-.472-.8-1.568-.974-2.41.395-.113 1.645.06 4.012.286 1.92.183 2.415-.125 1.81-.503-3.613-.854-6.073-.62-9.544-1.287-.05-1.037-.887-2.246-.887-2.246.188-.075 5.35.48 8.072.395 1.2-.05.478-.612-.007-.717-3.176-.454-5.238-.382-8.597-.805.093-.86-.345-1.64-.887-2.297 0 0 1.7-.016 5.2.038 1.844.03 3.447.105 4.253.078 1.354-.002 1.23-.633.057-.72-1.43-.16-7.062-.192-7.062-.192.42-.194.967-2.716.75-2.743 0 0 1.46.03 2.388-.004 4.513-.17 5.29-.1 5.376-.268.593-.542-1.008-.754-2.676-.75-.72.003-1.77.16-1.76-.23.006-.36-.01-1.1-.377-1.86 2.77-1.064 5.315-1.228 7.802-1.15zm-53.673 1.42c-.644 0-1.163.52-1.163 1.16 0 .644.52 1.164 1.162 1.164.64 0 1.16-.52 1.16-1.163 0-.64-.52-1.162-1.16-1.162zm44.407.242c.768.003 1.01 1.384.29 1.6-1.106.33-1.71.07-1.67-.584.02-.37.883-1.018 1.38-1.015zm-36.816 1.2c-.64 0-1.16.52-1.16 1.162 0 .643.52 1.163 1.16 1.163.644 0 1.164-.52 1.164-1.163 0-.642-.52-1.162-1.163-1.162zm33.106 1.304c2.63-.024 1.27 3.553-.754 2.263-1.004-.64-.298-2.256.754-2.264zm-41.603 2.86c-.054-.004-.083.05-.076.182l.607 10.875 6.33-10.16-2.515.937-1.083-1.643-1.357 1.07c-.56.438-1.616-1.233-1.907-1.26zm39.165 1.114c1.18.164 1.967 1.346 1.148 1.914-1.846.81-2.833-1.835-1.148-1.914zm-2.835 2.387c-.642 0-1.162.522-1.162 1.164 0 .642.522 1.162 1.163 1.162.643 0 1.163-.52 1.163-1.162 0-.643-.52-1.163-1.163-1.163zm4.47.985c1.006-.016 1.48 1.443.485 1.902-.212.098-.84.168-1.12-.038-1.173-.866-.565-1.773.636-1.865zm-43.526 1.793c-.642 0-1.162.52-1.162 1.163s.52 1.163 1.162 1.163c.643 0 1.163-.52 1.163-1.162 0-.64-.52-1.162-1.163-1.162zm88.8 1.457l-4.31 1.447v2.037c1.88-.6 2.956-2.126 4.31-3.485zm-40.376.984c.748.312.95 1.325.31 1.665-.507.268-1.88.226-2.215-.216-.87-1.397 1-1.792 1.906-1.45zm-40.615.4c-.643 0-1.163.522-1.163 1.163 0 .643.52 1.163 1.163 1.163.642 0 1.162-.52 1.162-1.163 0-.642-.52-1.162-1.162-1.162zm-4.763 2.01c-.566 0-1.024.458-1.024 1.024s.458 1.025 1.024 1.025 1.025-.46 1.025-1.026-.46-1.024-1.025-1.024zm48.324 1.728c-.643 0-1.163.52-1.163 1.162 0 .643.52 1.163 1.163 1.163.642 0 1.162-.52 1.162-1.163 0-.64-.52-1.162-1.162-1.162zm-52.07.064l-.056 10.272 6.852-8.408-2.378.518-1.015-2.083-1.468.954-1.935-1.252zm43.49 2.366c-.64 0-1.16.52-1.16 1.162s.52 1.162 1.16 1.162c.644 0 1.164-.52 1.164-1.162s-.52-1.162-1.163-1.162zm34.29.04l-1.125 1.916 3.19-1.77-2.064-.147zM136.778 195c-.642 0-1.162.52-1.162 1.162 0 .643.52 1.163 1.162 1.163s1.162-.52 1.162-1.163c0-.64-.52-1.162-1.162-1.162zm3.916 1.254l-1.39 1.983-1.832-.59-.54 1.89-2.197-.08 7.14 6.215-1.18-9.42zm-55.66.794c-.643 0-1.163.52-1.163 1.163 0 .642.522 1.162 1.164 1.162.642 0 1.162-.52 1.162-1.162 0-.642-.52-1.163-1.162-1.163zm107.08 1.67l.58 85.18-40.603.086-16.715-22.826c-.345-3.72-.145-7.536 1.42-12.526 1.636 1.133 5.216.515 5.095-3.874-.08-2.875-4.51-4.345-6.718-2.183.114-2.778 1.242-6.952 2.866-8.184 1.116 1.013 1.362 2.513 3.885 2.094 1.792-.298 3.21-2.3 2.434-4.634-.198-.592-.306-1.312-.304-1.794.003-.482.047-1.338-.047-1.818-.124-.633-.17-1.318-.17-1.318 21.63-6.79 37.097-17.65 48.28-28.205zm-98.94 1.462c-.643 0-1.163.52-1.163 1.162 0 .643.522 1.163 1.163 1.163s1.162-.52 1.162-1.163c0-.642-.52-1.162-1.162-1.162zm-5.482 1.136c-.643 0-1.163.52-1.163 1.162 0 .643.52 1.163 1.162 1.163.642 0 1.162-.52 1.162-1.163 0-.642-.52-1.162-1.162-1.162zm57.524.56c-.643 0-1.163.52-1.163 1.162 0 .642.52 1.162 1.163 1.162.642 0 1.162-.52 1.162-1.162 0-.642-.52-1.163-1.162-1.163zm-61.694 1.24L81.71 213.94l7.915-8.09-2.15-.048-.427-1.846-2.012.65-1.514-1.49zm53.812 2.308c-.642 0-1.162.52-1.162 1.163 0 .64.52 1.16 1.162 1.16.643 0 1.162-.52 1.162-1.16 0-.643-.52-1.164-1.162-1.164zm5.13 1.263c-.643 0-1.163.52-1.163 1.16 0 .644.522 1.164 1.163 1.164.643 0 1.163-.52 1.163-1.163 0-.64-.52-1.16-1.163-1.16zM78.59 208.1c-.642 0-1.162.52-1.162 1.162 0 .643.52 1.163 1.162 1.163s1.162-.52 1.162-1.163c0-.642-.52-1.162-1.162-1.162zm68.498.878l-1.894 1.438-1.74-1.064-.41 2.298-1.483.778 6.23 4.365-.703-7.815zm4.604 3.095c-.642 0-1.162.52-1.162 1.163 0 .642.52 1.162 1.162 1.162.643 0 1.163-.52 1.163-1.162 0-.643-.52-1.163-1.163-1.163zm-65.738.392c-.643 0-1.163.52-1.163 1.162 0 .643.52 1.163 1.163 1.163.642 0 1.162-.52 1.162-1.163 0-.64-.52-1.162-1.162-1.162zm-5.162 1.52c-.643 0-1.163.52-1.163 1.16 0 .644.522 1.164 1.164 1.164.642 0 1.162-.522 1.162-1.164 0-.642-.52-1.162-1.162-1.162zm67.922 3.072c-.643 0-1.163.52-1.163 1.162 0 .642.52 1.16 1.163 1.16.642 0 1.162-.52 1.162-1.16s-.52-1.163-1.162-1.163zm-4.873 1.04c-.643 0-1.163.52-1.163 1.163 0 .642.52 1.162 1.163 1.162.642 0 1.162-.52 1.162-1.162 0-.643-.52-1.163-1.162-1.163zm-45.006 1.655c.007 0 .015.005.02.01.13.14.534 1.197.175 1.736-.185-.088-1.02-.865-.807-1.13.098-.12.504-.617.612-.616zm-26.38 1.823s1.125.06 1.37.166c0 .288-.27.916-.573 1.62-1.518 3.512-1.75 7.45-.21 11.244 2.42 5.15 9.248 17.338 8.74 18.453l-15.088.062.065-2.295c4.24-.167 4.907-2.76 3.85-4.902-.732-1.484-2.787-2.334-4.665-1.555-2.712 1.125-2.88 2.465-3.847 4.543l-.432-.548c.814-1.082 1.087-2.122 1.02-3.308-.065-1.163-.1-.842.307-1.48 2.36-2.537.815-5.84.815-5.84-.28-2.028 7.067-14.97 8.65-16.16zm-34.506.332c4.293 3.415 8.007 14.916 7.783 15.094-.2-.16-3.458 3.695.052 7.29 0 0-.214 2.16.46 3.27-1.55 3.215-1.822 3.458-1.954 6.1-.028-.01-.27-.03-1.707-.037-7.11-.033-7.442 9.008-.337 9.505.973.067 1.307-.152 1.893.427.595.738 1.128 1.48 2.145 1.096.24.003.63.23 1.038.608.684.925 1.675 1.582 3.09 1.33.5.047 1.014.19 1.556.388.62.49 1.702.862 2.547.493.252-.11.735-.147 1.13.032 1.026.47 2.072.176 2.458-.118.953-.494 1.164.3 1.12 1.03-.487 1.673.582 3.242 2.2 3.857 3.415 1.056 5.136-1.044 5.87-5.21.182-.912.342-1.997.342-1.997l11.43.3-16.412 19.02-27.938.343-.147-62.847c1.227-.073 2.153.027 3.38.027zm102.782 3.393c2.085.804 2.25 2.276.176 1.637-3.372-1.038-7 1.022-7.758 3.967-.14.543-.29.954-.375 1.06-.472.57-.45.05-.31-1.586.273-3.173 2.518-5.472 5.443-5.565.96 0 1.993.2 2.824.487zm-1.034 2.244c.872 0 1.795.256 2.484.855.782.856.55 1.426-.05 1.396-2.826-1.18-6.417.248-7.824 3.813-.863 2.187-1.02 1.015-.637-.68.71-3.065 3.042-5.33 6.028-5.386zm-19.645.845c-1.23.004-2.402.247-2.998.81-1.133 1.07-.19 1.088 1.86.376.996-.347 2.915-.188 4.142.237 1.028.355 1.39.505 1.333.185-.054-.963-2.282-1.617-4.337-1.61zm23.027 3.578c.52 1.19.184 3.286-1.632 3.498-2.14.25-3.247-3.34.662-2.71-.506-1.437-2.26-1.04-3.125-.676-1.764.77-2.966 2.505-4.047 5.69-.32.943-.556 1.437-.68 1.342-.203-.158-.3-1.626.172-3.393.85-3.187 2.924-5.11 5.12-5.173 1.423-.217 3.08.39 3.53 1.42zm-30.627-1.382c-.19.043.144.712.664 1.75.288.576.484 1.32.484 1.467-.002.564.432.704 1.068.342.735-.42.853-.734 1.894-.27.98.515 1.946.84 2.842.317.485-.284.807-.27 1.746-.024 1.12.296 1.27.34 2.107-.01 1.068-.446 2.34-.14 2.61.16.256.287.106-.11.687-1.457.27-.624.656-1.383.55-1.596-.144-.288-1.117.03-2.178.31-.573.148-1.12.104-2.22-.205-2.32-.655-3.782-.468-5.234.222-.812.385-2.847-.146-4.9-.982-.05-.02-.09-.03-.12-.024zm4.564 6.21c-1.047-.015-1.995.644-2.43 1.548-.504 1.255.354 3.52 1.66 3.715 1.163.173 1.12-.538.534-.73-.886-.29-1.93-1.56-1.254-2.662.463-.758 1.864-.753 2.838.182 1.963 1.882 4.21 2.007 4.637.373.13-.653-.367-1.523-1.134-1.286-.594.184-1.965.24-3.113-.54-.595-.407-1.188-.592-1.736-.6zm20.72 5.98c5.01-.3 2.855 6.54-.035 4.785-1.032-.627-.574-2.932 2.17-2.89-2.692-2.097-4.527.457-3.868 3.322-.604.935-.772 2.717-1.17 3.726-.608 1.15-1.087-1.864-.472-4.778.595-2.822 1.602-4.058 3.376-4.164zm-28.33.237c-1.035.012.028 1.125.19 1.258 3.118 2.45 4.644 3.963 2.134 3.156-4.076-.97-5.127.183-8.23 1.552-.57.273-.732.104-1.42-.1-2.728-.808-2.528.904.323 2.448 4.304 2.33 7.857 2.857 11.202 1.11 2.15-1.123 2.26-.388.262.854-3.423 1.995-7.024 1.692-12.556-1.75-1.786-1.113-2.035-.37-.208.8 4.177 2.523 9.8 4.81 14.392 1.088.903-.803 1.085-1.22 1.78-.873 1.835.916 1.23-.68-.02-2.183-.442-.53-.77-.96-.74-1.324.104-1.304-.618-1.3-1.276-1.267-.788.04-.7-.225-1.666-1.285-1.41-1.547-3.13-3.206-4.166-3.482zM67.72 249.95c-1.732.137-2.13.215-1.707 3.768.08.668.378 2.67.46 3.42 1.028 9.304.196 13.42-2.395 14.56-.933.41-1.85.26-2.534-.016-1.64-.656-2.315-2.648-1.124-5.02.32-.64.708-1.628.863-2.197.155-.57.505-1.82.773-2.78.652-2.333 1.007-5.882.622-9.272-.262-2.302-.204-2.494.37-4.047 1.26-2.295 2.072-3.47 4.724-3.498 2.966.31 3.796 4.798-.05 5.082zm63.74-.204l-.812.038c-.977-3.253-3.018-2.2-3.357.083l-.687-.008c.118-4.342 5.55-3.165 4.857-.114zm-76.19-2.428c5.537.548 6.547 1.924 6.983 8.61.04 3.237-.174 5.19-.67 5.928-.83.398-1.624-.347-2.806.402-.65.397-.525.438-.806.008-.262-.406.046-2.113.47-3.477.405-1.3-.288-2.058-2.12-3.726-.498-.45-.933-1.078-1.377-1.974-.954-2.56-1.438-1.433-.644.773.392.95.483 1.42-.71 1.01-.702-.24-1.315.045-1.856.333-1.52.387-2.83-.444-1.512-.942.803-.304 2.24-.744 2.686-.742.323.002.48-.07.48-.223.002-.642-2.93-.57-5.164.198-2.745 1.264-2.903 1.04-2.65-.927.644-4.983 5.284-5.592 9.697-5.252zm54.15.435c1.415-.063 2.716 1.56 2.458 2.938l-.674-.042c-.316-2.593-2.77-2.704-3.42.2l-.974.022c.62-2.24 1.64-3.073 2.61-3.117zm16.46.052c.56.33.173 1.23-.423 1.41-.226.056-.938-.44-.768-.744.32-.363.81-.555 1.19-.665zm6.347.44c.39 0 .895.198.963.723.022.767-.56.608-.754.54-.387-.36-.532-1.234-.21-1.263zm-19.41.614c1.038.12 1.415 1.425.238 1.508-.525.108-.55-1.197-.237-1.51zm-6.315.14c.124.002-.068 1.072-.328 1.23-.513.312-1.167-.028-1.144-.35.058-.773.994-.884 1.472-.88zm18.112 2.6c1.977.75 4.547 1.478 6.966.633.882-.333 1.588-.73 1.586-.354-.002.39-.7.985-1.965 1.34-2.603.73-4.487.447-6.276-.896-.507-.38-.683-.728-.31-.723zm-.817 1.118c3.207 1.87 6.102 2.057 8.708.693 1.055-.365 1.09-.03 1.086.647-4.694 4.126-10.562-.157-9.793-1.34zm-78.72 2.85c-.794 1.604-1.22 5.555-2.52 6.726-8.86-.51-3.16-12.196 2.52-6.726zm54.91-1.31c-.5.264-.058 1.52.73 1.86 6.777 2.916 10.253 3.264 14.107 1.922 1.597-.556 2.47-1.86 2.548-2.496.094-.755-.937-.828-2.742-.028-5.495 2.154-8.942.475-13.38-1.194-.41-.156-.83-.21-1.263-.064zm-25.95.09l-.024 9.88-6.453-.114.076-1.46 4.83.14-.075-7.055-5.603-.053-.01-1.31 7.26-.028zm1.5.024l6.437.01.323 1.006h-6.762v-1.016zm-25.98 3.137c-.423.38-1.16.463-1.466.156-.68-.688.008-1.953 1.098-1.945 1.09.01 1.18 1.06.37 1.79zm2.967-1.606c.975.004 1.296.912.556 1.646-.502.456-.76.486-1.21.15-.57-.5-.273-1.764.654-1.796zm-6.354.244c.256-.01.48.016.646.27.592 1.212-1.35 2.05-1.756 1.15-.3-.733.456-1.397 1.11-1.42zm36.412.132l.375 1.272-7.42.033v-1.272l7.045-.033zm-26.563.366c1.105.133.935 1.246.42 1.74-.88.817-1.737.553-1.513-.545.14-.684.586-1.18 1.092-1.194zm-5.97 3.643c-.39 1.39.443 4.204.195 4.5-.54.64-1.412.31-1.798.092-1.34-.86-1.425-5.91-.128-6.21.832.417 1.393-.33 1.773-.44.382-.11.127.58-.042 2.057zm19.617-2.074c.73 0 1.323.593 1.323 1.323s-.593 1.323-1.323 1.323-1.324-.593-1.324-1.324c0-.73.593-1.324 1.324-1.324zm5.87.17h7.59c.456.634.41 1.062.28 1.5l-7.87.01v-1.51zm-22.296.173c.348-.005.52.737.29 1.584-.42 1.53-.397 3.613-.11 4.516.192.624.383 1.052.27 1.23-.392.62-1.595.196-2.105-.622-1.247-2.312-1.05-6.626.44-6.292.56.28.88-.16 1.216-.417zm-6.69.58c-.367.587-.105 3.872-.143 4.144-.047.342-.986.165-1.51-.07-1.288-.605-.937-2.14-.687-3.38.28-.973.9-1.045 1.666-1.134.423-.048.98-.01.674.44zm10.326.182c.41-.015.467.288.373 1.504-.074.952-.11 1.764.046 2.662.33 1.908.37 2.426-.108 2.8-.57.443-1.337.31-1.932-.214-1.218-.966-1.3-5.702-.342-6.11.89.22 1.45-.484 1.962-.642zm26.22 1.432l-1.092 1.5H75.53l.006-1.495 7.56-.006zm-23.08 2.007c1.01.012.844 1.798.3 2.92-.46.676-.798.745-1.49.11-.786-.722.148-3.035 1.19-3.03zm21.19.5l-.91.835-4.745.005v-.83l5.656-.01z"/><path fill="#D40000" d="M49.438 227.615l-7.867-6.17c9.358-.204 18.712.013 28.068.172l-9.345 6.658c-1.912-2.09-3.043-4.898-5.758-6.253-2.02.834-3.403 3.712-5.097 5.593zm69.007-2.15c-.16-.024-.288-.037-.384-.097-.214-.135-.353-.437-.51-1.428-2.336-10.89-13.814-10.12-13.738-9.8-.086-.43 14.267-13.39 22.703-23.557 2.55 7.77 10.28 25.522 9.958 25.458 0 0-2.236.02-8.035-.125-5.277 2.383-8.95 4.703-8.776 8.063-.03 1.183-.315 1.675-.71 1.573-.055-.01-.284-.05-.507-.084zm25.773-35.055c7.467-.117 8.875-3.765 9.726-4.204 4.904-.807 7.935 2.386 10.084 5.802 2.744 1.652 2.4.126 2.97-2.447l6.834-2.002-.007 2.177c-2.11 1.136-5.24 4.047-5.24 4.047l-2.08-.122-1.193 1.59c-4.748 2.567-9.402 5.627-14.41 7.612 0 0-5.998-7.756-6.684-12.452zm-93.032.683l-.077-43.06c3.088-.217 8.774-.188 8.774-.188 2.377-4.196 5.62-6.17 8.96-8.607.47 5.31.65 10.378.542 15.688-8.85 10.8-13.764 24.093-8.308 43.96l-3.273-.363-6.62-7.43zm48.896 2.413c2.52-8.98 4.477-18.094 5.288-27.502l16.846-.25.336 5.77-22.47 21.982zm57.362-19.606l-.313-16.11c12.295-14.688 13.022-27.496 8.463-43.69 4.06.935 6.152 4.1 10.02 8.464l.004 42.01c-2.69.4-9.355.793-9.355.793-.203 1.966-5.836 6.673-8.818 8.533zm-52.057-25.39l-.75-7.105 21.89-20.908c-1.807 9.06-3.993 18.362-4.63 28.007l-16.51.005zM69.07 126.32c-1.563 1.024-7.323-4.96-8.265-8.982 1.443-1.95 14.117-8.16 14.117-8.16s7.407 9.507 7.104 13.472c-3.29.874-6.144 1.124-8.64 3.806-1.43.125-1.93-1.482-4.317-.136zm-9.998-8.04c1.763.284.632 2.663.362 4.404l-9.314 2.762c3.202-2.732 5.472-5.057 8.952-7.165zm30.33-21.018c1.913-.058 3.91.73 5.386.137.553-.216 1.655-.55 2.864-.32 2.784.86 3.76-2.206 5.535-2.22 2.297.007 3.57-1.6 3.586-4.818.007-1.392.123-1.55.385-1.687.783-.415 1.62.166 1.725.93 1.646 5.927 5.807 11.256 12.365 10.832-5.223 5.323-21.11 21.688-21.11 21.688-2.862-8.72-6.664-16.834-10.737-24.543zm67.586-5.107l9.57-6.944 5.727 6.972 4.952-6.637c2.91 2.085 9.53 6.732 9.53 6.732s-19.85.293-29.78-.122z"/><path d="M162.416 29.197l-87.972.564L91.54 52.594c18.163-3.697 33.974-1.295 50.383 1.57l20.493-24.966zm-2.25 1.157l-5.854 7.274c-1.62-1.465-5.235-.937-4.725 2.27-4.487-2.334-5.438 4.07-1.63 3.81-.477 1.257-4.323 1.59-5.408-.694-3.95 2.214-5.157.066-6.202-1.328 5.02 3.407 7.46-3.596 1.936-3.99 2.17-4.39-5.57-6.383-5.115-.67-5.106-1.157-3.936 6.028-.186 4.556-2.436 3.662-6.433 1.202-7.24.49-2.056 1.54-5.94 1.59-7.028-.874 5.683 1.143 5.06-6.34.015-4.617 2.69-5.746-6.26-4.973-4.085-.265-5.09-.194-3.964 6.084.508 5.016-3.973 3.745-6.95.256-7.577.18-2.353 2.596-6.483 1.175-7.05-.36 4.052 1.602 5.38-5.207.27-4.798 1.31-4.386-6.042-4.918-4.42.063-4.05-.917-4.27 5.57.267 4.56.28 1.776-3.29 3.478-5.485 1.76-1.61.883-3.374 2.255-5.47.224 3.192-.515 3.718-5.912-1.44-4.746.246-3.312-1.656-3.493-4.006-2.652l-3.766-5.1 83.69-.108zM99.48 38.49c-.28.618-.753 1.04-.642 1.51.09.386.486.92 1.04 1.646 4.4 5.737 13.325 5.545 16.01-.37.547-1.1.435-1.348-.224-2.282-.795-1.128.103-2.33 1.077-2.23 1.455.15 1.707 1.42 1.007 2.32-1.52 1.912 2.653 6.238 6.818 6.92 5.34.87 10.402-2.885 9.698-6.25-.04-.193-.14-.373-.18-.574-.568-2.818 3.9-1.468 2.292.327-.604.65-.93.843-.85 1.557 1.298 5.962 8.548 6.587 12 4.75-4.455 7.265-11.513 1.665-12.754-3.412-6.255 9.03-13.77 7.154-17.96-.783.496.494-8.25 14.227-18.177.146-4.202 11.333-11.865 3.672-11.34 3.207 3.52 1.96 9.912 1.25 10.528-4.812.086-.747-.482-.793-.81-1.384-1.662-2.995 3.708-3.017 2.47-.285zm-16.54.747c.795.074.928.405.796 1.215l-.797-1.215zm68.264 2.13l-1.153 1.446c-.273-.707-.28-1.357 1.154-1.447zm12.54.48c-2.736.115-4.85 3.896-4.71 8.938.065 2.445.496 8.582.663 9.495.233 1.275-.02 3.006-.47 3.188-1.185.48-1.63.79-1.95 1.356-.83 1.47-.144 3.13 1.608 3.872 1.25.53 2.837-.202 3.91-1.803.596-.89.736-1.285 1.262-3.52.242-1.03.22-2.738-.057-4.305-.63-3.562-.162-8 1.062-10.083 2.196-3.737 2.155-6.185-.113-6.956-.412-.14-.814-.2-1.206-.184zm-.14.568c3.184.012 3.098 3.19 1.332 4.166-.685.308-1.52.38-2.358-.17-.94-.543-.812.077.16.783 1.145.83 1.632.778 1.017 2.724-.572 1.812-.873 5.728-.56 7.952.856 6.087.133 9.12-2.43 10.178-1.263.52-2.625-.214-2.976-1.228-.55-1.588.427-2.95 2.838-2.568 0 0 .17-.506-.456-5.79-.87-7.35-.528-12.48.82-14.27.72-.96 1.653-1.78 2.61-1.777zm21.602 7.578c-.744.006-1.546.208-2.363.67 0 0-.088 3.304-.185 3.805-.54 2.796-.383 3.13.92 3.525 3.162.962 5.758-1.135 5.643-4.423-.064-1.847-1.78-3.595-4.014-3.577zm.427.442c1.73-.053 3.297 1.968 3.127 3.87-.09 2.28-2.27 3.522-4.223 3.124-.578-.09-1.176-.198-1.362-.633-.39-.604.238-.822 1.552-.815 1.438.007 1.705-.19 2.183-.997.946-1.597-.264-3.62-1.808-3.24-.526.13-.604.367.015.54 1.89.854 1.188 2.043.53 2.525-.78.573-2.07-.213-2.29-.688l.132-3.084s.624-.587 2.143-.603zm-19.482 14.29s-.72.346-1.066.666c-.765.706-.925 1.774-.55 2.824.165.465.14.543-.442 1.3-1.654 2.155-1.867 3.232-1.02 5.177.385.884.387.884.023 2.05-1.56 5.007-4.64 10.682-7.924 14.61-.508.608-.71 1.23-.71 1.23s.768-.04 1.194-.253c3.396-1.69 6.982-4.962 10.315-7.107-5.273 4.277-10.89 8.104-10.89 8.104l7.174.384c-1.802 1.848-33.26 28.503-24.906 76.313 9.82-2.44 14.39-6.493 19.625-11.18.05 3.854.133 14.222.166 14.222.1-.17-4.545-1.75-3.44 2.074.656 2.097.99 7.404-.176 10.4-.05.127.5.328.445.446-.063.136-.746.138-.746.138-1.783 3.325-6.375 4.054-8.64 3.954-.834-.08-.496 1.065-.387 1.48.42 1.712 2.395 5.38 6.08 11.27l.968.127-.56.52c.435.79 1.598 2.282 1.598 2.282l.05.506s2.023 2.814 3.107 4.136c.074.09.243-.123.318-.034.602.724 1.323 1.534 1.936 2.256.048.056-.095.262-.046.314 1.152 1.256 3.418 3.795 3.418 3.795l.45-.108 1.78 2.008c14.78-6.72 30.226-21.59 30.064-21.557l.127-31.998-17.5-.052-.073-42.39 17.48 17.282-.114-4.96c-3.965-3.77-19.9-19.847-19.9-19.847 2.32-.323 4.566-1.077 6.742-2.26 3.8 2.092 7.865 3.35 12.522 2.73l-.02-4.702c-5.286-.01-8.565-1.76-10.937-3.876l-3.265-.11c-6.03 4.587-10.294 2.46-14.88 1.558l-3.17-4.564 32.47-.166-.232-11.08-4.93.11-3.203-2.37 3.715 1.572s-.06-.61-.802-1.77c-2-3.27-4.54-8.083-6.064-12.28-.736-2.133-.735-2.044-.113-3.293.854-1.716.67-3.794-.456-4.963-.792-.823-.767-1-.508-1.613 1.054-2.43-1.49-3.325-1.5-3.17-5.435 2.096-12.73-.063-12.6-.128zm12.65.884c1.086-.01 1.205.467 1.2 1.275-.092 1.482-2.02 2.02-2.894 2.226-4.172.956-11.446.39-11.92-1.556-.347-1.43.545-2.223 3.507-1.514 4.762 1.024 7.71-.077 10.108-.43zm-13.466 4.127c.434-.003.953.438 1.102 1.158.126.614-.514 2.425-1.05 2.842-1.325 1.033-2.522-.573-1.637-2.32.51-1.008 1.028-1.677 1.584-1.68zm14.236.204c.198.006.553.047.782.21 1.05.743 1.148 3.315.166 3.687-1 .38-1.93-.664-1.92-2.3.004-1.005.377-1.61.972-1.596zm-3.336.532c.214-.01.44.035.674.143.875.404 1.3 3.102.432 3.962-.673.668-2.12.632-2.543-.754-.506-1.657.282-3.292 1.437-3.35zm-7.398.076c1.28.01 1.573 2.86.318 4.033-1.05.982-2.652.017-2.15-1.93.252-.973.828-2.034 1.832-2.102zm3.645.456c1.877.32 1.718 4.914-.74 4.455-1.4-.976-1.362-4.387.74-4.456zm-8.203 4.92l2.652.247s-3.435 7.43-6.573 10.27c-1.174 1.19-1.85 1.24-.958-.03 1.966-2.43 4.877-10.486 4.877-10.486zm15.9.048c1.55 4.13 3.14 8.322 5.252 12.546-3.213-3.097-6.06-7.858-8.684-12.328l3.43-.218zm-12.47.398l1.755.02c.585 2.675 1.597 4.38 2.786 5.846 1.028-1.738 1.68-3.648 2.31-5.685l1.396-.02c.534.32-1.642 8.383-3.77 9.363-2.26-1.83-4.16-6.785-4.477-9.523zm-.74 1.908c-.147.193 2.727 7.1 5.157 9.314 2.292-2.224 3.754-5.153 4.735-8.646l7.54 10.582-7.35-5.03c-1.47 2.438-3.027 4.765-4.898 6.7-2.017-2.182-3.763-4.77-5.594-7.23-2.837 2.1-4.826 4.345-8.508 6.305.018.083 7.216-7.764 8.917-11.995zm-.707 7.52l5.13 6.27-13.657-.195 8.527-6.075zm11.107.1l8.617 5.932-12.84.133 4.223-6.064zm-68.654 2.92s.072.375.156.602c1.528 6.238 5.747 11.425 12.094 10.81L100.1 121.082s-3.444-11.69-10.424-23.673c0 0 1.273.262 2.27.455.932.143 1.64.1 2.338-.085.534-.08.942-.43 1.42-.53.803-.17 1.813.12 2.348.308 1.434.27 2.41-.53 4.204-2.116.478-.422.66-.32 1.262-.318 2.25.006 3.684-1.923 3.43-4.916l-.112-1.328-.285 1.494c-.535 2.818-.91 4.033-3.7 4.152-.675.03-.93.482-1.997 1.4-1.496 1.283-2.552 1.394-3.61.892-1.082-.513-1.183-.21-2.202.274-1.168.558-2.87.492-4.402.053-2.14-.613-1.88-.408-1.88-.408 12.398 22.066 16.754 43.23 16.48 62.03-.39 26.788-9.762 48.408-17.983 61.442 0 0 1.41-.144 2.667-.328.605-.168 1.072-.006 1.67.204.56.196.98.187 1.528.123.428-.05 1.472.008 2.145.103 1.525.22 1.627.02 3.288-1.594 4.715-4.58 4.408-4.41 7.824-4.3 5.126.166 9.225 3.547 10.933 9.03.216.692.5 1.665.537 1.665l-.333-1.452c-1.5-7.35-7.786-10.04-13.034-9.94l22.15-22.207c-.114.02 5.133 16.896 9.702 24.418.008.052-1.386-.6-3.934-.27-1.386.18-2.936-.004-3.807-.152-1.118-.028-1.8.302-3.195 1.45-.58.497-1.102 1.04-2.235 1.52-2.693 1.138-3.768 2.313-3.78 5.267-.004.536-.086 1.223-.077 1.49.002.07-.004.196.014.196.046 0 .11-.11.162-.188.133-.197.404-.73.614-1.97.373-2.207.838-2.98 2.93-3.96.627-.293 1.948-1.093 2.535-1.56 1.927-1.538 2.57-1.89 4.135-1.525.89.207 1.647.314 2.842.17 1.42-.173 1.504-.245 3.024.146 1.032.265 2.31.522 2.31.522-21.47-43.107-20.76-83.07.428-123.616 0 0-6.272.074-6.54.237-.1.062-.862-.007-1.692-.157-1.707-.308-1.333-.1-5.362 3.948-4.98 5.005-12.946 1.013-15.345-7.388-.127-.44-.234-.704-.424-1.016-.065-.097-.223-.263-.223-.263zm20.295 4.928c.922.098 1.61.34 1.494 1.204l-29.566 28.95-.46-1.865 28.532-28.29zm6.234.176c-.364.72-1.352 1.618-1.784 2.296l1.608 2.003-.893 1.614-2.472-2.078-4.706 4.646 3.924 4.403-3.715 3.748-1.238-1.4 1.964-2.054-3.052-2.857-5.376 5.224 4.38 4.45-3.213 3.08-1.282-1.215 1.685-1.86-2.856-2.95-5.006 5.105 3.963 4.408-3.06 3.036-1.357-1.375 1.47-1.532-2.832-2.966-5.1 5.03 4.137 4.488-3.04 2.72-1.073-1.135 1.47-1.58-2.78-2.976-3.164 2.87-.526-1.97 31.308-31.097 2.617-.075zm1.803.46l-1.32 2.647-1.02-1.12 1.33-1.367 1.01-.16zm-73.84.17c-.813.2-19.453 10.582-30.064 21.98l-.032 4.247-.395.507.19 6.57.266.353.09 2.68-.423.708-.005 7.36.564.094.09 9.006 17.433.048-.02 43.027S40.664 179.88 33.292 173.24l.028 5.028 19.502 20.147c-1.342.188-3.087.513-5.718 1.965-6.327-3.952-13.642-2.743-13.642-2.743l.028 5.125c4.65-.45 8.85.187 13.736 3.478 4.024-2.728 8.874-4.387 16.104-2.22 1.59 2.52 3.183 5.118 4.773 6.808l-34.528.257.042 10.377c1.532.03 5.362 0 5.362 0 1.94 3.806 5.758 9 7.343 15.534-2.176 2.613-2.002 4.717.115 7.348-.02 1.188-.377 2.5.957 3.82 4.394-2.147 9.354-1.194 13.045-.098 1.25.372 1.724-1.053 1.68-2.847-.11-1.027-.105-1.467.684-2.15 1.878-1.628.712-4.974.417-5.048-.107-2.934 9.295-17.63 9.3-17.36l-1.872.678-8.038.037c21.142-20.385 29.978-43.637 28.128-69.894-.413-6.615-1.442-9.646-1.442-9.646-7.447 3.31-13.567 5.715-19.512 12.08l-.394-13.684c.33.648 2.537 1.246 3.525.418.676-.44.744-.915.118-2.576-.908-2.41-1.123-7.58-.445-9.338.08-.205.146-.75.204-1.286.077-.72-.08-.762-.147-.75.173-.042.9.105.987.03 2.54-2.235 5.265-3.632 8.606-3.778l.086-1.632c-2.48-6.26-4.578-8.714-6.823-12.214 0 0-.636-.21-1.038-.128l.517-.546c-3.15-4.998-7.633-9.546-11.754-13.864.014-.016.005-.022-.022-.015zm-.138.85l2.234 2.064c-10.664 5.126-21.186 12.637-31.548 22.823l.143-3.744c11.712-11.014 20.547-16.305 29.172-21.143zm68.493 3.744l1.343 1.34-1.86 2.157 1.21 1.234-.673 1.646-3.094-3.213 3.074-3.164zm-66.58.17c.7 0 1.27.57 1.27 1.273 0 .7-.57 1.27-1.27 1.27s-1.272-.57-1.272-1.27c0-.704.57-1.273 1.27-1.273zm91.263 1.757c21.74 24.197 10.577 59.362-18.444 67.81l-.323-1.987c29.28-9.862 36.147-42.854 17.148-63.597l1.618-2.227zm-87.497.16l1.386 1.605c-12.395 5.916-24.484 14.785-36.17 27.582l-.114-3.23c10.975-11.537 22.708-19.884 34.898-25.956zm-7.995.495c.703 0 1.272.57 1.272 1.27s-.57 1.272-1.27 1.272-1.272-.57-1.272-1.27.57-1.272 1.27-1.272zm-3.87 2.39c.7 0 1.27.57 1.27 1.272 0 .702-.57 1.27-1.27 1.27s-1.272-.568-1.272-1.27c0-.702.57-1.272 1.27-1.272zm12.89.836c.704 0 1.273.57 1.273 1.27s-.57 1.272-1.272 1.272c-.7 0-1.27-.57-1.27-1.27s.57-1.272 1.27-1.272zm55.227.877l1.272 1.345-2.018 2.02 2.87 3 2.762-2.657-1.386 3.958-24.346 24.332-.508-2.553 1.917-1.927-2.937-2.933-.518-1.955 2.89-2.704 1.21 1.243-1.688 1.95 2.72 2.675 4.938-4.546-4.076-4.476 3.363-3.255 1.162 1.134-1.608 1.655 2.833 3.07 5.067-4.855-4.16-4.398 3.345-3.298 1.267 1.21-1.686 2.02 2.88 2.785 4.964-4.9-4.08-4.29 3.55-3.654zm-71.914.856c.702 0 1.27.57 1.27 1.27s-.568 1.272-1.27 1.272-1.27-.57-1.27-1.27.568-1.272 1.27-1.272zm20.052.247l.97 1.608c-14.757 7.454-24.962 14.92-40.063 32.077v-2.16c11.658-14.312 23.78-23.54 39.093-31.524zm-7.41.19c.7 0 1.27.568 1.27 1.27s-.57 1.27-1.27 1.27-1.272-.568-1.272-1.27.57-1.27 1.27-1.27zm114.167.49c2.603 2.314 8.07 4.623 11.592 4.378l.095 2.786c-6.146.584-11.512-3.35-11.512-3.35-4.733 2.885-9.55 3.25-14.57 1.998l-1.933-4.138c7.447 3.453 14.43.158 16.327-1.674zm-29.404.752c.273.504 1.19 1.087 1.19 1.087 5.732-1.492 7.52 4.416 4.845 7.79l.765 2.478c1.022.186 1.92.545 2.647 1.05 1.395.966 2.162 2.64 1.988 4.397.194 1.904-2.654 3.677-2.81 3.545l-.037 2.724c.8.667 1.767 1.313 2.382 2.26 1.37 2.298.826 4.615-1.286 6.072-1.258.85-2.622.96-2.676.873l-1.324 3.095c1.166.657 1.492 1.776 1.675 2.576.396 1.735-.82 3.993-2.35 4.827-1.928 1.052-4.557.117-4.555.118l-1.88 1.88c.485 1.627.618 2.598.362 3.553-.634 2.364-3.11 3.29-5.102 3.113-1.562-.14-2.737-1.28-2.737-1.28l-2.083.797c.06 0 .03 2.638-1.02 3.445-.33.342-1.505 1.1-1.505 1.1l-.275-1.816c.825-.595 1.34-2.034 1.172-3.09l4.498-2.2c0 .162 1.232 1.355 2.074 1.527 1.727.352 3.53-.996 3.535-2.58.003-.926-.53-1.556-.683-2.303l3.82-3.952c1.58.543 2.69.636 3.396.228 1.335-.77 1.695-2.36 1.438-3.316-.303-1.13-1.31-1.862-1.38-1.97l2.13-5.385c.994-.006 1.608-.16 2.383-.665 1.58-1.037 1.376-3.053.702-4.01-.818-1.164-2.01-1.38-2.102-1.352l.156-5.595c0 .046 2.154-1.035 2.386-2.282.342-1.836-.433-3.005-2.69-3.524-1.252-.288-1.187-.047-1.187-.047l-1.784-5.064c2.827-1.724 1.93-4.466.498-5.386-1.512-.97-3.645-.07-3.645-.07s-.973-.965-1.71-1.742l.778-.903zm-75.664 1.026c1.857 2.5 5.004 7.503 6.762 11.98.076.196.038 1.188.038 1.188-5.017.437-6.74 2.402-8.522 3.786-1.382-.71-1.965-1.54-4.465.024-.008.073-6.374-3.85-7.592-9.177 4.55-2.803 8.887-5.473 13.78-7.8zm-25.465.034c.7 0 1.27.57 1.27 1.27s-.57 1.272-1.27 1.272-1.272-.57-1.272-1.27.568-1.272 1.27-1.272zm12.055.25c.702 0 1.27.57 1.27 1.272s-.568 1.27-1.27 1.27-1.27-.568-1.27-1.27.568-1.27 1.27-1.27zm87.023 1.563c2.192 2.885 5.496 8.34 6.282 13.172 1.105 6.794.37 13.923-2.747 18.907-5.654 10.648-15.458 12.915-15.464 13.286l-.1-2.183c.09.49 7.492-2.627 12.53-9.666 3.11-4.77 4.876-11.586 4.275-16.906-.374-7.665-5.814-14.735-5.86-14.76l1.083-1.85zm-103.046 1.04c.702 0 1.27.568 1.27 1.27s-.568 1.27-1.27 1.27-1.27-.568-1.27-1.27.568-1.27 1.27-1.27zm12.042.017c.703 0 1.272.57 1.272 1.27 0 .704-.57 1.273-1.272 1.273-.702 0-1.27-.57-1.27-1.272-.002-.7.568-1.27 1.27-1.27zm108.574 2.145c2.822.306 6.273 5.42 9.414 8.34l.033 41.71-9.38.19c-1.223 2.934-4.056 5.833-8.57 8.696l-.005-15.63c15.395-16.49 11.206-34.54 8.508-43.307zm-124.07.473c.702 0 1.27.57 1.27 1.27 0 .704-.568 1.273-1.27 1.273s-1.27-.57-1.27-1.272c-.002-.7.568-1.27 1.27-1.27zm11.592.23c.702 0 1.27.567 1.27 1.27 0 .702-.568 1.27-1.27 1.27s-1.27-.568-1.27-1.27c-.002-.703.567-1.27 1.27-1.27zm119.092.098l19.18 19.336-.066 2.838-21.613-21.96 2.5-.213zm-112.06 1.818l.507 2.43c-.62-.974-.644-1.334-1.72-1.504l1.21-.926zm-10.383.707c.702 0 1.27.57 1.27 1.272 0 .702-.568 1.27-1.27 1.27-.703 0-1.272-.568-1.272-1.27 0-.703.57-1.272 1.27-1.272zm-11.488.356c.703 0 1.272.57 1.272 1.272s-.57 1.27-1.272 1.27c-.702 0-1.27-.568-1.27-1.27s.568-1.27 1.27-1.27zm107.905 0l3.786 2.682-1.233 4.835-3.877-3.482 1.324-4.034zm-87.502.395l.674.398-.784 3.308-8.716 3.147c2.803-2.393 5.683-5.002 8.825-6.852zm1.43 1.537c.618 2.45 1.963 6.076 3.61 9.146-1.118.578-5.14 2.854-5.13 3.912.567 1.918 4.815 3.677 4.815 3.677-1.61 2.61-3.14 5.688-4.394 9.23-.726-1.237-.81-6.11.755-8.14-1.542-.607-3.652-1.997-5.257-3.435 1.035-3.66 5.444-5.847 5.637-5.874-.076.186-1.3-7.645-.036-8.516zm-14.15.617c.7 0 1.27.568 1.27 1.27s-.57 1.27-1.27 1.27-1.272-.568-1.272-1.27.57-1.27 1.27-1.27zm97.08.104c5.658 10.54 2.293 19.697-6.732 26.26l.208-2.487c6.23-4.52 10.262-13.412 5.714-21.894l.81-1.88zm-107.824.303c.704 0 1.273.57 1.273 1.27s-.57 1.272-1.272 1.272c-.7 0-1.27-.57-1.27-1.272s.57-1.27 1.27-1.27zm90.51.067c-4.15 15.477-4.048 22.57-4.53 26.767l-16.118.138-.627-5.58 21.276-21.324zm-64.393.427s3.496 3.246 6.634 6.08l-.374.74-3.05.407c-2.335-4.597-3.21-7.226-3.21-7.226zm-2.894 1.7l.024.005.194 2.306c-1.047-.038-12.382 4.697-21.09 12.257 1.298-2.286 3.486-4.48 5.604-6.35 4.502-4.42 15.27-8.217 15.27-8.217zm-16.113.526c.702 0 1.27.57 1.27 1.27s-.568 1.272-1.27 1.272-1.27-.57-1.27-1.27.567-1.272 1.27-1.272zm7.135 1.447l.646.664-3.007 1.557 2.362-2.22zm20.973.68c.04-.003.086-.002.13.004.464.06.657.28.924.503-.59-.123-1.167-.19-1.718-.162.14-.165.377-.335.664-.346zm-11.51.48l.274 1.72c-6.522 3.71-14.28 7.214-25.57 17.886v-3.55c7.085-6.565 15.35-12.07 25.295-16.058zm8.773.16c.408.1.77.105 1.14.014 0 0-.236.47-.518.48-.296.01-.62-.494-.62-.494zm2.767.1c.82-.052 1.38.698 1.214 1.664-.63 3.274-.603 6.59.072 8.906.527 1.806.66 2.44.224 2.743-3.845 2.65-5.953-9.303-2.743-12.693.435-.41.86-.598 1.234-.62zm-31.397.416c.702 0 1.27.568 1.27 1.27 0 .703-.568 1.272-1.27 1.272s-1.27-.57-1.27-1.272c-.002-.7.568-1.27 1.27-1.27zm110.495.294l2.392 4.01-3.33 3.728-2.026-4.332 2.965-3.406zm-82.296 2.178l-.125 1.385c-1.718.52-3.215 1.26-4.503 2.354-.25.214 3.98 2.12 4.423 1.68l-.01 1.477c-.06.484-6.99-1.717-7.46-3.36.787-1.093 5.173-3.634 7.674-3.535zm-31.546.735c.703 0 1.272.57 1.272 1.27s-.57 1.272-1.272 1.272c-.702 0-1.27-.57-1.27-1.272s.568-1.27 1.27-1.27zm18.905 1.46c-.493.935-1.222 2.176-1.36 3.533-4.756 2.884-9.633 5.577-15.566 12.193l-3.198-.02-.07-.84c6.483-6.18 13.506-11.515 20.193-14.866zm12.25.4l.032 1.742c-1.105.013-1.71-.348-2.533-.766.694-.438 1.232-.873 2.5-.976zm35.782.185l.892.935-.555.522-.338-1.458zm-48.18 3.62l1.76 1.097c-4.532 2.363-9.305 5.858-13.433 10.424h-3.49c4.405-4.775 9.15-9.057 15.16-11.522zm93.91 1.258l.353 4.735-4.423 2.425.086-4.996 3.985-2.164zm-84.1.02l3.043.33.312 1.287c-2.552 1.623-4.77 3.526-6.894 5.504.815-2.54 2.085-5.062 3.54-7.12zm-7.292.507l1.305.603-.517 2.226c-3.727 1.656-6.695 3.894-9.874 6.91h-3.578c3.133-3.36 8.343-7.586 12.664-9.74zm11.317 2.092c.012-.002.016-.002.015.004l.475 14.596c-13.138 15.38-12.424 30.25-8.593 43.738l-2.506-.113c-2.912-3.618-6.785-7.303-6.785-7.303l-.01-42.458 9.06.033c2.134-4.94 8.01-8.458 8.344-8.498zm-10.695 2.05l.108 1.944c-1.873 1.11-3.463 2.335-4.83 3.65h-3.402c2.353-2.19 4.687-4.393 8.124-5.595zm30.885.953l.498 2.296c-30.492 11.03-36.002 43.094-18.007 65.104l-1.225 1.367c-20.663-22.19-11.593-58.437 18.734-68.767zm-30.642 2.296s.166 1.76.218 2.344h-3.416c.768-.9 1.45-1.835 3.198-2.345zm85.807.735l-1.965 4.58-5.243.08 2.382-4.58 4.826-.08zM110.892 149h4.777v4.565h-4.78V149zm-20.68.452l.08 2.007c-2.122 1.08-1.586 2.797-2.12 2.77-1.305.33-4.745 2.153-4.745 2.153-1.22-1.105-2.865-.827-3.63-.29-1.06.695-1.294 2.31-.99 3.68l-3.65 4.265c-1.762-.753-3.48-.706-4.337.47-.966 1.326-.6 2.972.997 4.815l-1.988 5.102c-.23-.306-3.558.67-3.603 2.647-.048 2.092 2.75 3.456 2.747 3.615l-.133 5.628c-.125-.27-2.855.844-2.485 3.54.34 2.482 3.72 2.18 3.79 2.387l1.838 5.385c-.123-.164-2.49 2.15-1.04 4.342 1.21 1.825 4.718.644 4.69.525l.972 1.372-1.077 1.167s-.465-.558-.726-.508c-2.043.39-4.324-.078-5.42-1.708-1.49-2.3.174-5.895.703-5.865l-1.262-3.103c-2.3-.046-4.248-2.1-4.352-3.82-.216-3.603 2.742-5.11 2.748-5.086l.086-3.36c-.18.2-2.922-1.743-2.856-3.976.048-1.632 1.422-3.55 3.112-4.322.49-.23 1.253-.594 1.253-.594l1.144-2.752s-1.62-2.34-1.2-4.697c.778-3.57 5.433-3.326 6.168-2.98l2.16-2.704c-1.064-2.47.772-5.333 3.174-5.8 1.065-.17 4.056.537 4.056.537l2.766-1.43c-.05-1.51 1.6-2.495 3.13-3.415zm15.73 4.996h4.096v4.564h-4.096v-4.564zm10.91 0h4.615v4.564h-4.616v-4.564zm-26.308 1.144l-.052 1.746c-26.436 12.817-15.624 39.356-11.853 42.443l-.85 1.875c-4.638-2.82-16.597-33.443 12.754-46.063zm20.347 4.622h4.97l.042 4.692h-4.968l-.043-4.692zm-21.493 2.282l-1.576 4.274-4.853.408 1.793-4.266 4.637-.416zm99.187 3.127l3.322.02c-6.21 7.262-12.91 12.212-19.525 14.922 0 0-.022-.646.18-1.158.162-.404-.1-1.428-.1-1.428 7.354-3.622 12.405-7.828 16.124-12.357zm-17.02.062c-.854 1.027-1.83 1.933-3.04 2.603l-.48-2.646c1.016-.012 3.52.043 3.52.043zm5.846-.058c.336.846-8.717 5.734-8.75 5.317l.024-1.625 4.885-3.627 3.84-.066zm1.955 0h.02l2.547.015c-2.302 3.63-14.474 10.22-13.968 9.294l.49-2.655c3.925-1.725 7.487-4.072 10.91-6.653zm4.294 0l3.352.015c-5.044 6.405-10.16 8.743-15.07 11.5-.294-.043-.16-.154-1.08-.127l-1.68-1.31c.314.288 11.282-6.14 14.477-10.078zm-93.813.23l-.113 1.935c-7.057 6.068-9.888 13.823-6.216 22.823l-.874 1.922c-3.948-9.605-2.782-18.936 7.203-26.68zm32.133.302l.375 5.223-21.907 21.324c3.335-11.913 4.257-19.104 5.152-26.52l16.38-.028zm70.154 1.228l.01 2.9c-8.638 9.513-17.343 13.776-24.864 15.5l-.17-1.114 3.482-2.145c11.222-4.89 16.137-9.81 21.542-15.142zm-26.213.078c.152 2.095-1.713 6.05-3.846 8.282l-3.653-.01-.402-1.584c3.028-1.633 5.834-3.844 7.903-6.688zm1.104.624c1.342 2.16-.672 7.747-.755 7.525-.16.386 11.478 2.846-.48 8.603.26 1.69 1.38 5.304.517 7.535-.27-.854-2.35-6.65-3.957-8.133 3.732-1.063 6.42-3.348 6.13-4.1-.606-1.07-2.278-2.386-5.09-3.35 2.393-3.32 3.105-5.815 3.634-8.08zm-85.48 1.06l.374 4.402-4.25 2.558-.33-4.836 4.205-2.125zm73.964 4.09c.332.003.644.09.797.255 2.1.85 2.252 11.095.347 12.138-1.386.87-2.36-.53-2.312-.778.92-4.713.345-7.627-.037-10.923.04-.48.65-.7 1.205-.693zm36.626.15v3.645c-12.347 12.798-25.65 22.886-39.23 28.55l-1.24-2.102c16.495-7.627 30.287-18.508 40.47-30.093zm-2.17.333c-5.718 7.96-12.685 13.156-22.228 15.516l-.18-2.26c11.886-2.7 22.718-13.257 22.41-13.257zm-155.633 1.29c7.45 7.614 15.08 15.16 22.663 22.976l-3.014.155-19.74-20.48.09-2.652zm88.665.38l.266 1.88-2.167 2.376 3.426 3.682.174.868-2.94 3.074-1.33-1.313 1.628-1.826-2.762-2.904-5.12 4.926 4.22 4.578-3.185 3.027-1.253-1.294 1.628-1.88-2.828-2.983-5.22 5.19 3.948 4.36-2.634 2.914-1.248-1.314 1.353-1.552-2.86-2.945-5.016 4.83 4.128 4.564-3.354 3.34-1.3-1.263 1.884-2.05-3.094-2.946-2.48 2.345s.935-2.325 1.07-2.72c.2-.577 1.022-1.034 6.24-6.182 6.227-6.198 12.613-12.008 18.827-18.78zm35.72 1.253c1.82.03 4.917.47 6.42 1.262 2.79 1.47 1.912 2.63.1 3.492-2.166 1.032-3.943 1.537-6.392 1.608l.07-1.2c1.423-.344 2.897-.69 4.153-1.386.863-.478 1.086-.863 1.086-.863s-.842-.857-2.183-1.344c-.98-.356-2.384-.354-3.147-.48l-.108-1.09zm-81.46 1.584l2.29 3.436-2.714 4.55-2.603-3.923 3.027-4.063zm46.23.37c.08.647.9 3.164.47 2.677l-1.523-1.713 1.052-.964zm35.373.337c1.268.107 2.6.145 3.525.594-1.073.833-2.29 1.02-3.502 1.225l-.022-1.818zm31.796 1.718c.766 0 1.386.62 1.386 1.386 0 .767-.62 1.387-1.386 1.387s-1.386-.62-1.386-1.386c0-.764.62-1.385 1.386-1.385zm-71.507 2.4l1.182 1.145-1.528 1.78 2.77 2.917 3.432-3.212.456 2.04-32.144 31.625-1.784-.128 2.045-2.415-2.325-2.378.954-1.71 2.742 2.44 5.025-4.807-4.07-4.285 3.48-3.573 1.315 1.135-1.997 2.163 2.91 2.97 5.257-5.17-4.114-4.476 3.284-3.132 1.205 1.144-1.528 1.617 3 3.122 4.43-4.613-4.032-4.44 3.582-3.488 1.102 1.1-1.65 1.842 3.012 3.117 4.835-4.97-3.98-4.317 3.134-3.047zm68.29.826c.765 0 1.385.622 1.385 1.387 0 .766-.62 1.386-1.385 1.386-.766 0-1.386-.62-1.386-1.386 0-.765.62-1.386 1.387-1.386zm-26.126.063c2.184 2.563 3.497 5.416 3.76 8.484-1.744-2.646-3.964-4.993-6.87-7.032l.497-1.285 2.614-.167zm30.824.21v3.093c-9.737 11.032-21.558 19.347-33.694 25.134l-2.063-2.51c14.353-6.41 24.74-14.366 35.757-25.718zm-14.325 2.158l-3.948 3.066-.005-1.33 3.952-1.735zm-20.347.228c3.36 1.64 6.178 4.413 7.857 8.522-4.59 2.88-9.625 5.213-14.425 7.535-2.305-3.712-4.624-7.188-6.443-11.966 7.402-.056 9.433-4.1 9.484-4.13 1.785.675 2.16.755 3.527.038zm26.595.603c.69.015 1.38.543 1.404 1.335 0 .765-.62 1.385-1.385 1.385-.766 0-1.386-.62-1.386-1.385.15-.956.76-1.346 1.368-1.334zm-10.244.912l.01 1.338c-1.89 1.656-5.562 4.337-5.562 4.337l-1.52-.08.495-3.796c2.3-.463 4.527-1.135 6.577-1.798zm-96.688.157l3.625 2.978-1.11 4.62-3.567-2.708 1.053-4.89zm48.683.872l.336 1.338-29.784 29.442-1.693-.275 31.14-30.505zm54.945 1.14c.766 0 1.386.62 1.386 1.385s-.62 1.385-1.385 1.385-1.385-.62-1.385-1.385c0-.766.62-1.386 1.385-1.386zm11-.01c.162 0 .355-.013.355.142v2.548c-.146.052-.303.08-.466.08-.765 0-1.276-.62-1.276-1.385 0-.766.622-1.386 1.386-1.386zm-3.362 3.088c.766 0 1.386.62 1.386 1.386 0 .765-.62 1.386-1.387 1.386-.765 0-1.385-.62-1.385-1.386 0-.766.62-1.386 1.385-1.386zm-11.642.015c.766 0 1.386.62 1.386 1.385 0 .766-.62 1.386-1.385 1.386s-1.385-.62-1.385-1.386c0-.765.62-1.385 1.386-1.385zm-10.015.426l1.423.05-2.647 1.574c.486-.608.94-1.074 1.225-1.623zm25.394.65l.02 2.85c-6.814 6.81-15.417 13.873-28.57 20.683l-1.677-1.697c10.725-5.116 20.79-12.283 30.226-21.836zm-19.346 1.553c.765 0 1.385.62 1.385 1.386 0 .765-.62 1.385-1.386 1.385-.766 0-1.386-.62-1.386-1.386 0-.766.62-1.387 1.386-1.387zm12.318.104c.766 0 1.386.62 1.386 1.386 0 .766-.62 1.386-1.386 1.386-.765 0-1.386-.62-1.386-1.387 0-.765.62-1.386 1.386-1.386zM47.118 201.61c4.7-2.73 8.48-3.05 13.865-2.227l1.608 3.175c-5.243-.93-10.768-.847-15.49 2.8-4.896-3.094-8.615-3.986-12.635-3.483l-.073-3.347c5.24-.732 9.942 1.063 12.726 3.08zm121.846-3.02c.766 0 1.386.62 1.386 1.386 0 .766-.62 1.386-1.386 1.386-.765 0-1.386-.62-1.386-1.386 0-.765.62-1.385 1.386-1.385zm12.67.57c.765 0 1.385.62 1.385 1.386 0 .765-.62 1.385-1.387 1.385-.765 0-1.386-.62-1.386-1.384 0-.765.62-1.386 1.386-1.386zm-16.836 2.07c.766 0 1.386.62 1.386 1.385s-.62 1.386-1.386 1.386c-.765 0-1.386-.62-1.386-1.385s.62-1.386 1.386-1.386zm12.917.802c.766 0 1.386.62 1.386 1.386 0 .765-.62 1.385-1.385 1.385s-1.385-.62-1.385-1.385.62-1.386 1.385-1.386zm-17.187 1.645c.776 0 1.404.63 1.404 1.405s-.628 1.404-1.404 1.404c-.775 0-1.404-.63-1.404-1.404 0-.776.628-1.405 1.404-1.405zm13.485 1.163c.765 0 1.386.62 1.386 1.385 0 .766-.622 1.386-1.387 1.386-.766 0-1.386-.62-1.386-1.385s.62-1.385 1.386-1.385zm-17.59.958c.766 0 1.386.62 1.386 1.386s-.62 1.386-1.387 1.386c-.765 0-1.385-.62-1.385-1.386s.62-1.386 1.385-1.386zM95.17 207.05l3.445 3.156-3.563 3.578-1.305-1.253 1.983-2.072-1.343-1.81.784-1.597zm75.02.308c.766 0 1.386.62 1.386 1.386 0 .765-.62 1.386-1.386 1.386-.765 0-1.385-.62-1.385-1.386 0-.766.62-1.386 1.385-1.386zm-3.99 2.345c.766 0 1.386.62 1.386 1.386 0 .764-.62 1.384-1.385 1.384s-1.385-.62-1.385-1.385c0-.767.62-1.387 1.386-1.387zm-4.335 2.354c.766 0 1.386.62 1.386 1.386 0 .765-.62 1.385-1.385 1.385s-1.385-.62-1.385-1.385c0-.766.62-1.386 1.385-1.386zm-71.254 3.92l1.126.915-1.765 2.126-1.347-.02 1.988-3.022zm-21.764 5.73c-3.927 1.944-5.793 3.175-8.53 5.558l-3.925-5.443 12.456-.114zm-26.72.04l10.46.145-3.48 4.92c-2.292-2.415-4.617-4.058-6.98-5.066zm12.456.535c1.134.36 4.1 4.587 5.495 6.895 2.974-2.365 5.887-5.01 9.062-6.43-3.777 3.988-7.094 8.114-9.453 12.104-.67-1.798-2.53-6.947-4.887-9.186-3.718 3.47-5.187 7.658-5.187 7.658-2-3.406-4.407-6.82-7.193-10.012-.46-.622 3.39 1.77 7.203 5.48 1.075-2.702 3.948-6.4 4.96-6.508zm-12.56 2.658c1.797 1.426 6.68 7.69 7.242 11.46l-2.34.145c-1.243-3.87-3.333-7.736-4.9-11.605zm26.008.64c-1.77 3.626-3.962 7.33-5.537 11.345l-2.31-.1c2.53-5.53 3.452-6.543 7.847-11.245zm-13.252 1.614c.02-.003.042.003.057.014 2.196 2.997 3.232 5.91 3.886 9.457l-1.697-.066s-1.186-3.56-1.998-4.817c-.526-.768-.948-.67-1.318-.033-.84 1.505-1.152 3.013-1.623 4.65l-1.955-.143c-.364-2.687 3.96-8.995 4.648-9.063zm-.31 10.33c.795.01 1.626.87 1.618 2.383.062.71-.49 2.28-1.086 2.36-1.107.588-2.418-1.238-2.088-2.76.282-1.3.856-1.992 1.557-1.984zm-3.847.285c1.57.14 1.91 3.66 1.273 4.38-.73.724-2.663.21-2.846-1.045-.63-1.597.52-3.32 1.574-3.336zm7.74-.022c1.71.24 1.28 4.104.396 4.673-1.375.728-2.423-.487-1.958-2.304.372-1.463.93-2.333 1.562-2.368zm3.952.64c1.958.22.827 3.623-.028 4.315-1.242.968-2.44-.48-1.846-2.207.462-1.34 1.23-2.117 1.874-2.107zm-15.804.105c1.424.228 2.25 3.45 1.4 4.372-.44.527-1.728-.242-2.317-1.126-.705-1.06-.043-3.25.918-3.247zm15.162 7.02c.17 1.692-1.107 1.69-4.786.867-1.858-.417-5.15-.153-6.833.15-2.83.515-3.23.318-3.226-.834.007-1.337 1.594-2.097 5.267-2.21 2.63-.08 9.172-.106 9.58 2.027zm5.72-.993c-4.38.412-5.546 5.9-5.063 7.93.385 3.39.22 6.938-.432 9.27-.468 1.676-.884 3.46-1.637 4.978-1.153 2.294-.855 3.997.854 4.91 1.403.752 3.13.495 4.214-.668 1.957-2.104 2.19-6.566.99-16.692-.422-3.574-.195-4.286 1.54-4.086 3.637-.03 3.492-5.636-.467-5.642zm-.527 4.612c-.98-.38-1.644.51-1.514 2.73.033.982.207 2.088.33 2.97 1.418 9.715.888 16.224-2.096 16.545-2.598.417-4.356-1.495-3.09-3.474.72-1.12 1.337-1.27 2.733-.683 1.92 1.19 1.438-.544-.29-1.822-1.107-.784-1.192-.784-.597-3.236.802-3.308 1.072-5.666.777-9.85-.414-2.96.575-6.886 4.342-7.116 3.81-.116 2.66 5.294-.597 3.936zm-26.89 12.797c1.24.598 2.446.495 3.625.01.46-2.066.488-3.785 1.88-6.594-2.316-2.318-6.214-1.407-7.312 1.02-1.097 2.43-.075 4.655 1.807 5.563zm3.716-7.172c1.402.3 1.19 1.772-.13 1.292-3.148-1.482-5.716 2.98-3.174 4.66 1.297.725 1.87.31.584-.69-.527-.605-.395-.853-.076-1.46.66-1.227 3.06-1.028 2.89-.14-.546 2.828-.906 3.644-1.756 3.65-4.89.254-5.81-8.9 1.66-7.312zm41.54 5.083s-14.567 16.472-21.584 24.907l87.947-.408-16.735-23.09c-14.357 3.315-31.225 2.358-49.627-1.41zm-.436 5.264c2.196.023 4.695 1.62 6.856 6.937.116.052 9.672-14.51 17.945.565 1.35-3.384 9.143-12.21 18.15-.882 3.198-7.582 10.576-5.018 11.268-2.373-.155-.57-7.03-2.2-10.007 2.823-.55 1.064-.578 2.073.053 2.672 1.485 1.41-.134 3.43-1.827 2.28-.66-.446-.744-1.388-.237-2.065 1.494-1.114-1.568-4.58-4.086-5.828-3.457-1.712-8.277-.957-10.595 1.5-1.246 1.32-2.008 2.508-2.19 3.456-.097.44-.037.67.225.964 1.005 1.214.342 2.873-1.02 2.672-1.78-.264-1.542-1.93-.35-2.84.364-.18.226-.395.115-.705-3.253-9.162-15.378-7.417-16.688-1.073-.048.23-.152.472-.1.71.136.605.49 1.117.354 1.595-.555 1.948-2.992 1.39-3.103-.225-.05-.734.742-.955 1.13-1.626.232-.42.34-.933.116-1.4-3.286-6.883-8.926-5.44-11.724-3.887-.058.033 2.503-3.304 5.714-3.27zm-3.644 3.99c1.2-.043 2.295.548 3.316 1.73 3.443-1.82 5.893 1.333 5.485 1.64-4.876-3.166-6.458 4.208-1.653 3.93-2.112 4.366 5.43 6.237 4.583.656 4.653 1.624 5.42-4.766.707-4.67 1.523-2.637 5.478-1.91 7.15-.26 1.966-2.4 6.794-.11 7.273 1.94-5.415-2.773-5.96 5.705-.717 3.9-1.553 5.397 6.784 4.63 4.48-.022 5.19 1.707 4.484-6.054-.618-4.48-.31-.4 4.034-4.888 7.193-.673.428-.742 5.358-3.174 8.057.646-5.847-1.977-4.74 5.894-.55 4.328-1.12 5.214 6.438 4.367 4.508-.076 5.857 1.48 3.264-7.44-.853-4.146.67-3.587 5.594-2.1 5.54-1.547 0-.004 2.615-2.828 5.542-.76-4.574.384-3.018 6.553 1.305 4.797-.047 2.094 1.693 3.48 4.048 2.77l3.696 5.168-84.307.532 6.734-8.028c2.253 1.86 4.588.98 4.876-1.94 4.902 3.008 6.176-4.135 1.575-4.444.937-.636 1.81-.963 2.632-.992zm-4.712 2.32c.292.206-.104 1.198-.75.91l.75-.91zm65.736 2.074c.25.358.43.59.68.95.12.32-1.316-.17-.68-.95z"/></g></svg>