<svg version="1.2" baseProfile="tiny" xmlns="http://www.w3.org/2000/svg" xmlns:xlink="http://www.w3.org/1999/xlink" width="225" height="314" viewBox="0 0 225 314" preserveAspectRatio="xMinYMin meet"><defs><style type="text/css">use { fill: #d40000; } .maxi-card { display: none; } .mini-card { display: block; } @media (min-width: 75px) { .maxi-card { display: block; } .mini-card { display: none; } }</style><path id="suit" d="M16.49.2c7.12-.476 10.832 5.638 11.557 10.455.432.766.668.55.834-.042.35-6.186 5.856-11.24 10.956-10.55 8.3.108 13.344 9.393 11.926 17.25-1.733 9.6-6.877 15.38-10.77 21.333C36.584 44.81 30.653 53.716 28.74 58c0 0-6.027-9.222-13.87-20.067-5.243-7.252-9.44-15.11-9.83-21.875-.447-7.73 2.71-14.66 11.45-15.86z"/><path id="numeral" d="M9.842 0C5.15.09 2.822 4.02 2.797 7.953L2.8 18.27H0v3.426h2.8s.05 1.564.042 2.503c-.04 4.636 1.6 7.446 4.797 8.225 3.065.56 4.665-.102 7-1.31.848.352 1.44 1.08 2.348 1.17 1.004.103 3.096.055 3.096.055l-.058-3.515-1.045-.152c-2-.034-2.865-.733-2.648-1.982.424-.812.485-1.404.524-2.388V6.85C16.796 2.57 13.3.037 9.842 0zm-.145 3.403c2.24-.035 4.104 2.573 4.053 5.246l.035 13.48c.073.848-.062 1.677-.437 2.26-.295-.86-4.93-5.598-7.248-5.38 0 0-.094.24-.16-5.685-.028-2.91-.793-7.253 1.822-9.214.653-.48 1.308-.698 1.935-.707zm2.34 24.628c.206.417-.555.827-1.366 1.054-2.294.64-4.544-.79-4.616-4.08-.02-1.003-.088-2.075.265-2.233 1.052-.474 5.097 4.01 5.718 5.26z"/></defs><rect width="100%" height="100%" fill="#fefefe"/><g class="mini-card"><use xlink:href="#numeral" transform="matrix(3.5 0 0 3.5 78.4 33.95)"/><use xlink:href="#suit" transform="matrix(2 0 0 2 55.5 170)"/></g><g class="maxi-card"><use xlink:href="#numeral" transform="translate(7 12)"/><use xlink:href="#suit" transform="matrix(.4 0 0 .4 6 51)"/><use xlink:href="#numeral" transform="matrix(-1 0 0 -1 218 302)"/><use xlink:href="#suit" transform="matrix(-.4 0 0 -.4 218 263)"/><use xlink:href="#suit" transform="matrix(.8 0 0 .8 38 40)"/><use xlink:href="#suit" transform="matrix(-.8 0 0 -.8 186 274)"/><path fill="#131F67" d="M195.726 25.714l-165.78.08.98 262.017 163.78-.34c-1.268-87.36 1.198-174.554 1.02-261.756zm-21.84 2.205l19.8.086-1.013 100.966s-2.646-.175-2.548-.88c.134-.945-.012-2.714-.674-3.458-.278-.313-.734-.807-.914-1.166-.452-.9-1.196-1.833-1.79-2.085-.297-.125-.64-.194-.686-.4-.04-.19-.138-.818-.265-1.395-.316-1.447-.598-1.4.323-2.842 3.19-4.988 4.418-9.578 4.015-14.128-.126-1.42-.482-3.263-.65-3.515-3.084 3.09-5.315 6.907-7.413 9.73-.468-4.03-.4-7.073-.47-10.305 1.647-.47 2.644-1.346 3.353-3.588 0 0 1.766 1.382 2.847 1.185l-.712-2.604c4.72-1.448 5.366-7.608-.21-8.91l.503-3.245s-1.682.563-2.422.925c-.368.155-.46.032-.718-.5-2.6-4.046-6.638-3.186-8.418.803l-2.177-.925c.236 1.104.518 2.224.318 3.328-4.568 2.034-3.44 7.602.207 8.33l-.317 2.602 2.744-.886c.4 1.222.195 1.928 2.39 3.304-.055 5.45-.143 8.858.028 13.7-2.86-2.928-5.62-4.96-10.455-6.453 0 0-.045 1.174.236 2.957.093.59.074.502-.203.5-.628-.014-3.462-4.57-3.462-4.57s-.328.005-.615.29c-.338.335.434.953 1.517 2.562 1.27 1.883 1.146 1.803.15 2.648-5.664 4.805-13.844 23.095-12.47 24.873-3.58.214-17.533 7.056-20.066 21.16-.15.636-.448 1.46-.448 1.46l-4.035-1.002c2.434-11.552 7.927-35.043 7.927-35.043s3.86-1.098 6.12-1.34l-.023-.91-5.316 1.238.256-2.013 5.018-.987-.014-.477-5.312.712.867-3.352s-11.924 1.752-16.195 1.623c.27 13.034-.758 23.862-.205 37.908l-5.83-3.532c-.518-9.78-.673-34.48-.673-34.48l-16.097-2.528.534 3.88c-13.345-5.29-26.73-10.155-36.59-20.495C69.7 92.017 79.827 87.4 79.827 87.4l-.332-.743c-24.9 12.837-34.148 21.755-46.66 32.82l-.336-91.47 67.96-.035-.228 16.682s-.088.433-.216.583c-.83 4.04 1.554 11.215 1.073 14.707.223 1.078.145 3.082.145 3.082-4.058 5.558-6.207 10.834-8.014 17.294-.698.277-1.73.85-2.456 1.045l-.207.88c1.593-.873 6.106-2.3 6.106-2.3 20.112 9.803 34.89 7.403 50.706.12-2.52 8.852 2.96 20.107 11.98 22.475 1.032.27 2.8.5 3.81.235 1.01-.29-2.272-7.804-3.727-8.085-4.358-1.888-6.153-6.322-5.69-11.41l-.72-1.212c-1.487 6.18 2.088 12.452 6.996 13.984l1.32 2.88c-8.897-2.668-12.686-10.998-9.724-19.233.052-5.14-3.278-7.413-4.807-9.628-7.736-2.95-9.174-10.116-7.82-15.906 3.602 1.53-2.428-5.086-2.428-5.086-2.652 5.746-3.76 13.01 2.307 20.37-3.925 5.2-8.986 9.315-14.645 12.83-8.27 4.314-14.474 1.407-18.47-8.148-2.398-5.737-3.257-11.457-3.245-17.447.014-3.71.056-3.82 1.444-3.193 1.305.59 4.136.675 5.826-.197 2.304-1.188 2.195-.465-.312 2.114-.683.7-1.41 1.333-1.41 1.468-.004.762 1.07.12 2.6-1.396.56-.554.972-1.087 1.146-1.08.2.01.183.724-.048 1.494-.088.296-.37 1.546-.626 2.773-.257 1.228-.608 2.67-.78 3.207-.68 2.13-.496 3.117 1.547 4.1 1.077.52 2.92 2.286 2.903 2.286 0 0-.44-1.937-.276-2.56.195-.75 1.086-.22 1.992.214 2.004.957 3.17.984 4.246.087 1.484-1.24 1.06-4.022-.775-4.748-1.346-.533-1.582-.04-.238.896 2.016 1.405-.257 3.578-1.97 2.23-1.338-1.053-3.663-1.17-3.923-.293-.245.828-.498.678-1.426.136-1.44-.842-1.452-.99-.245-5.634 2.287-8.796 2.063-12.025-.967-14.698-2.243-1.978-5.947-2.896-9.79-.698V40.2c5.64-2.254 9.745-5.983 13.055-12.227h.646c3.295 7.135 8.62 12.26 18.642 16.018 3.915 3.866-4.962-11.102-2.128-4.974-5.317-2.06-10.058-6.05-12.666-11.043h1.45c1.527 2.207 4.622 6.233 10.132 9.016.5.417.982-.016.982-.016s-4.623-7.243-5.38-8.967l46.188-.327c-1.466 11.25-3.53 23.473 4.593 45.38-3.81-2-19.084 2.263-16.396 3.105 1.35-1.558 11.084-3.857 18.287-2.157-.595-.517-10.982-24.62-4.94-46.09zm4.942 46.086c.013.01.025.017.028.005l-.028-.004zm-35.685 43.41l.044 1.762.366-.087-.212-1.714-.197.04zm-41.7-89.444h2.028c-.444.916-1.094 1.603-2.084 2.167l.058-2.168zm3.487 0h2.182c-1.7 2.705-3.506 4.344-5.688 5.625l.04-2.12c1.26-1.104 2.463-2.245 3.466-3.505zm3.607 0h2.013c-2.73 4.197-5.536 7.015-9.126 8.8v-1.716c2.218-1.725 5.362-4.26 7.113-7.084zm3.073 0h1.628c-2.8 5.332-6.702 9.015-11.813 11.062v-1.28c5.598-2.984 8.047-6.314 10.185-9.782zm4.45 0h1.955c2.683 5.33 8.255 10.373 14.375 12.584l.935 2.162c-8.068-2.896-13.41-7.12-17.265-14.746zm5.658 0h1.396c1.468 2.047 3.247 3.71 5.326 5.09l1.267 2.452c-2.805-1.888-5.938-4.18-7.99-7.542zm2.548 0l1.56.082 2.066 3.443c-1.377-.773-2.42-2.345-3.626-3.525zm-1.792 13.84c-2.14-.01-4.085.58-5.494 1.73-1.49 1.214-.394 2.536 1.748 1.54 3.647-1.692 7.838-.93 12.36 1.547 3.81 2.084 2.476-.09-1.077-2.41-2.436-1.61-5.11-2.397-7.536-2.407zm-17.202 2.73c3.07.025 6.585 1.384 6.67 3.184-2.035-1.702-6.125-2.528-10.05-.78-.3-.063-.343-1.13-.164-1.52.845-.625 2.15-.894 3.544-.883zm18.584 1.16c-1.94 0-3.716.51-4.536 1.6-.42.518-.53.573-.992.496-.902-.15-.852.372.18 1.802.5.693.417 1.482-.252 2.422-.767 1.08-.617 1.12 1.667 2.216 1.745.85 3.147 2.056 4.733 3.048 1.133.64 1.36.077.313-.766-.36-.29-1.425-1.05-2.38-1.67-1.62-1.056-2.81-2.12-1.522-1.648.59.187.743.265 1.392.376 1.67.36 3.32.562 4.72.28 1.005-.202 2.314-.866 3.39-1.797.275-.126.547.01 1.214.034 2.552.1 1.99-.65-1.676-2.648-3.625-1.978-6.47-2.338-8.788-1.252-.982.46-1.544.574-1.4.284.147-.303.42-.655.86-.91 3.75-2.243 6.76-.384 10.065 1.3 1.418.845 1.8 1.065 1.97.795.216-.346-1.58-1.623-3.992-2.832-1.416-.732-3.254-1.126-4.967-1.127zm-11.984 2.6c.635.247.35.973-.23.744-3.46-1.555-4.155-2.312-8.28-.873-1.363.475-1.903.055-.23-.662 3.644-1.524 6.288-.496 8.74.79zm-2.372 1.827c-.938 4.762-5.678 3.293-5.143.023l.87.005c.07 2.876 2.95 2.856 3.444.028l.83-.057zm27.57.01l1.277 2.73c-2.792 6.875.998 16.134 9.24 18.352 0 0 1.33 2.044 1.07 2.303-15.475-3.425-14.285-18.178-11.586-23.386zm-14.66.178l.435.023c1.337 3.32 3.277 1.413 3.655.01l.987.025c-.3 3.438-5.516 4.02-5.076-.057zm-11.927.095c.627-.073.84.867.665 1.04-.05.048-1.194 1.16-1.334.506-.205-.96.41-1.5.67-1.547zm-7.22.097c.054 0 .107.003.165.01.39.296.535 1.18.332 1.637-.23.24-1.16-.087-1.34-.442-.275-.52.05-1.21.844-1.205zm25.1.317c.307.013 1.147.376 1.065.78-.02.103-1.19.964-1.454.823-.508-.27.194-1.507.294-1.584.016-.013.053-.02.096-.02zm-6.837.15c.008-.002.017-.002.02 0 .09.067.837.532.202 1.392-.044.06-.893-.243-.905-.343-.07-.5.565-1.015.683-1.05zm18.752 6.03c-.188 3.95.842 7.788 5.158 10.252l-.93-1.696c-1.106-.88-3.425-3.396-3.135-6.39l-1.092-2.168zM101.52 64.07l.487 2.602c-2.375 3.946-4.178 7.824-5.673 12.357l-2.244.817c1.782-5.717 3.43-10.246 7.43-15.776zm.945 4.05l.635 2.235c-1.166 2.148-2.412 4.576-3.163 7.4l-2.48.916c1.116-3.74 2.747-7.378 5.008-10.55zm7.863.926c-.036 0-.073.004-.11.014-.026.44-.02 1.658.072 3.665.018.38.392.22 1.444-.317.92-.47.824-.544 1.715-.246 2.465.845 3.587.478 4.55.23 1.47-.38 2.07-.226 2.923.285.47.28 1.11.488 1.238.534.677.247.42-.05-.043-1.877-.52-2.055-.297-2.28-1.12-1.744-.18.116-.703.405-.988.438-.72.084-1.917-.796-2.63-.517-1.73.68-1.716.5-3.322.106-.804-.197-1.572.292-2.27.43-.4.05-.904-1.005-1.46-1zm29.435 1.064c2.923 2.682 5.928 3.6 9.188 4.614-.393 1.333-1.18 2.832-1.545 4.574-16.967 8.968-34.016 8.687-50.1.545l8.347-3.188c4.56 7.896 10.404 10.005 16.976 7.42 7.343-3.416 12.78-8.168 17.135-13.965zm-36.253 1.58l.722 1.936-1.073 2.92-2.048.827c.39-1.99 1.148-3.623 2.398-5.683zm15.333 2.244c-.508.024-1.275.365-3.024.375-.948.005-1.69-.08-2.058-.006-.762.155.13.495 1.835.982 1.706.486 3.79-.246 4.05-.986.063-.182-.16-.397-.804-.366zm-14.134.953l.446.982-.766.273.32-1.256zm45.108.554l1.267 2.886c-2.194 4.75-3.65 17.766 11 21.815l.64 1.865c-9.973.194-19.965-12.48-12.907-26.564zm-33.546.983c-1.432-.014-2.932.342-3.896 1.107-.872.69.194 1.126 1.33.573 1.47-.715 3.924-.656 5.364.246 1.102.75 1.676.617.938-.526-.578-.897-2.114-1.384-3.736-1.4zm63.967 3.24c3.83-.062 4.227 5.42 3.48 5.89.217-.07.87-.264 1.802-.24 2.807.074 4.27 1.625 4.43 3.882.164 2.273-1.564 3.54-4.083 3.414-.936-.047-1.58-.142-1.537.023.468 1.817-.097 4.556-2.504 5.24-.277.078-.672.464-.68.602-.18 2.882.64 12.78.64 12.78s4.513-7.584 5.53-8.735c1.985-2.712 2.344-2.47 2.35 2.037-.33 6.25-1.333 7.685-5.015 12.93-1.576 2.26-5.308 1.073-4.97 2.602.075.336.68.94 1.286 1.516.39.367.79.6 1.696.568 1.592-.053 2.212-.376 1.26 1.008-.75 1.095-3.396 1.32-3.694 1.892-.693 1.324-.22 1.03-1.403 2.195-.908.993-.593.486-.18 1.305.648 1.055.38 3.16-.265 4.58-.524 1.155-.466 1.98-.466 1.98.01.096 1.473-1.512 1.914-3.368.367-1.545.798-2.32.795-1.454-.006 1.09.185 2.574 1.17 3.14.777.447.89.895.76 1.444-.134.57.475 1.07 1.074 1.546.14.14.614.326.563.626-.16.95.226 2.065.917 2.247.31.153 2.274-.015 2.6-1.12-.032-.354-.004-1.805-.786-1.89-.553-.253-.495-.405.342-.904 1.252-.746 2.16-1.282 2.78-1.396.826-.112 1.62-1.01 1.62-1.01l.16 59.666c-7.426 7.6-15.565 15.165-26.3 22.6-6.236-5.197-13.052-10.46-20.288-14.398l-2.5-1.48.897-1.145-4.34-5.72 4.884-3.93 1.237 1.563-2.31 2.244 3.466 3.834 7.792-7.6-5.133-4.91 2.672-5.004 1.71.838-1.29 3.173 3.905 2.47 4.888-9.707-6.198-2.822 1.57-6.52 1.912.2-.636 4.696 4.83.958 1.965-11.07-7.09-1.268.603-6.313 1.98.025-.29 3.49 5.01.714.942-9.65-6.948-1.152.896-7.45 1.59.227-.31 4.595 5.1.87c.562-3.114 1.018-7.027 1.85-10.083l-6.568-2.446 2.326-6.255 1.48.516-1.292 3.39 4.85 2.063 4.09-8.066-5.713-4.04c1.28-2.123 2.557-4.142 4.387-5.86l1.122.977s-.413.37-1.046 1.247c-.77 1.065-1.01 1.603-.905 1.88.103.273 3.63 2.878 3.9 2.88.31 0 1.48-1.066 2.084-1.782.646-.767.984-.84 1.652-.36.133.095.324.284.462.447.16.192.225.354.24.477.017.12-.018.2-.048.25.057-.054.18-.146.443-.294.48-.267-.93-1.505-2.08-2.147-3.444-1.932-7.496-5.574-8.433-10.13-.344-2.048 4.947.413 8.59 4.044.554.55 2.606 2.538 2.606 2.538-.3-5.268-.73-10.618-.496-15.95l-.804-.56c-1.126-.783-1.56-2.07-1.662-3.36-.07-.89.693-1.344-1.05-1.286-3.626.032-5.725-3.38-3.524-6.3.786-1.09 4.13-1.624 4.127-1.598-.855-3.495 1.712-5.367 3.602-5.544zm-1.32 40.583c-.07.066-.04.066 0 0zm4.8-34.692l-.1.034c.035-.002.07-.015.1-.034zM62.98 96.952c10.128 8.526 16.59 14.263 37.202 20.685l.51 3.053c-11.852-2.736-24.78-8.275-40.153-22.047l2.44-1.69zm-3.048 1.97c6.412 5.986 12.986 10.546 19.64 14.37l2.335 1.406-1.204 1.233 3.915 5.645-5.037 4.108-1.198-1.194 2.63-2.577-3.742-3.68-7.623 7.715 5.225 4.633-3.03 4.658-1.097-.496 1.608-3.246-4.854-2.648-5.428 9.973 6.91 3.147-1.56 6.12-1.614-.08.545-4.798-5.196-.92-1.748 11.205 6.683 1.05-.16 6.453-1.78-.028.125-3.646-5.278-.246-.472 9.405 6.496.843-.645 7.633-1.6-.41.178-4.955-4.95-.486-1.705 10.535 6.68 1.907-2.36 6.568-1.45-.794.95-3.39c-1.22-.532-4.643-1.956-4.643-1.956l-4.363 8.182 5.658 3.853-3.48 6.116-1.345-.9 2.403-3.567-4.7-2.952-2.678 3.656c-1.137-.987-3.18-2.357-3.958-3.274-.833-.76-1.467-.874-2.538-.622-.847.2-1.66.353-1.475.054.092-.147 1.697-1.23 4.15-2.784.687-.435 1.228-.814 1.22-1.203-.007-.29.37-.75.866-1.05.55-.332.426-.64.338-.983-.475-1.84-.175-4.71.75-6.64.62-1.294.815-1.525.41-1.527-1.193.153-2.65 4.48-2.928 5.697-.094-.097-.224-1.237-.308-1.676-.153-.793-.265-1.284-.9-1.436-.762-.18-.52-.545-.598-1.117-.126-.928-.564-1.516-1.358-1.845-.764-.315-.847-.443-.813-1.203-.003-.598-.625-1.61-1.09-1.932l-2.647.935c-.208.7.07 1.605.506 1.936 1.33 1.253-.616 1.27-1.95 2.085-.36.234-.792.742-1.084.574-.847-.277-.78 2.253-1.613 1.937l.202-60.692c7.095-7.352 27.775-22.676 27.775-22.676zm107.266 10.734l1.02 1.132c-3.166 3.563-5.462 7.232-7.993 11.712-2.16 3.822-4.025 9.174-5.004 15.01-.754 3.574-.87 7.21-1.338 10.865-.476 3.934-.566 9.23-1.32 13.383-1.39 11.392-4.588 17.452-11.542 23.915-3.057 2.84-12.565 8.205-12.824 8.153l-2.254-.56c19.497-9.98 24.372-16.863 26.48-40.49.414-29.64 13.897-41.122 14.776-43.12zm1.917 1.985l1.045 1.008-5.692 8.037 5.61 3.954-2.225 5.195-1.7-.63 1.21-3.546-4.72-1.99-3.814 10.325 6.722 2.12-1.107 6.727-1.358-.366.005-4.584-4.99-1.017-1.448 11.534 7.346 1.02-.54 5.952-1.738-.12-.067-3.544-5.1-.27-1.165 9.997 7.238 1.228-1.31 7.104-1.542-.366.347-4.685-4.854-.64-2.81 9.592 6.098 3.073-3 6.15-1.286-.897 1.66-3.636-4.742-2.34-4.58 7.936 4.97 4.888-4.854 5.086-1.083-1.387 2.504-2.697-3.742-3.703-7.782 6.188 3.974 5.235-.468.66-4.104-1.647-1.965-2.596-2.35 1.03-1.854-.708c11.494-6.026 18.973-13.015 22.06-23.554 1.697-5.827 2.2-12.186 2.75-18.594.287-3.328.583-6.67 1.065-9.96.567-5.37 1.39-9.877 3.57-15.058 2.644-6.28 5.856-10.71 9.815-15.505zm-61.854 3.974l7.895 4.16-.116 2.766-7.297-3.655-.482-3.27zm2.22.077l5.626.772.024 2.27-5.65-3.04zm-25.354.073l3.284 1.48 2.784 3.21 2.085-1.366 2.263.848c-7.152 3.675-13.498 8.073-18.44 15.66-5.507 8.456-6.12 19.525-6.823 30.21-1.175 14.738-3.702 25.09-13.5 37.037l-1.443-.91 5.287-8.398-5.96-3.853 2.715-4.964 1.37.472-1.063 2.962 4.932 2.6 3.78-10.584L58.444 178l1.166-6.623 1.75.154-.464 4.744 4.97.785 1.426-11.192-6.698-1.026.15-5.913 1.64.157-.01 3.598 5.284.284.41-10.21-6.57-.728.81-7.21 1.84.19-.424 4.324 5.057.722 2.4-9.333-6.57-2.966 3.545-6.305 1.594.73-1.63 3.492 4.557 2.22 4.777-7.3-5.075-4.874 4.983-5.215 1.223 1.2-2.706 3.11 3.75 3.467 7.427-6.23-3.626-5.453.696-.84zm47.238.347l-.23 2.615-7.912 4.493-.005-2.562 8.147-4.546zm42.465.09l1.747 1.085-1.267 1.502-1.526-.963 1.045-1.623zm-45.794.373l-4.74 2.735v-2.72l4.74-.015zm55.882 2.55c.247.007.475.06.65.175.477.31.408 1.077-.13 1.454-.7.49-2.622.458-2.812-.048-.274-.73 1.22-1.604 2.292-1.58zm-75.63 1.08l6.8 3.67-.025 2.586-6.545-3.6-.23-2.657zm22.152.082l-.4 3.37-7.002 3.714-.058-2.925 7.46-4.16zm-33.894.063l2.788.708c-10.322 4.604-20.523 11.284-24.492 22.938-1.24 3.487-2.075 7.368-2.62 12.338-.255 5.24-.93 10.398-1.18 14.77-.504 8.898-3.433 20.95-13.552 33.754l-.968-.76c6.207-7.65 9.435-14.586 11.428-21.913 3.158-11.66 1.593-24.526 4.96-36.263 2.055-7.14 6.32-13.523 12.71-19.046 4.445-3.455 10.926-6.526 10.926-6.526zm4.686.977c.03-.002.045 0 .048.01 2.507 8.437 5.602 23.813 5.602 23.813-6.63-3.206-17.664-2.62-17.664-2.62s-6.21-8.01-7.412-8.668c4.965-6.697 18.478-12.488 19.426-12.535zm85.354 1.33c1.526-.05 1.417 2.27-.516 3.848-.986.806-1.443.692-2.172.048-.214-.286-.835-.49-1.29-.437-1.083-.005 1.057-2.244 2.96-3.17.396-.19.735-.28 1.018-.288zm-77.5 1.887l6.063 3.11.057 2.563-5.61-3.043-.51-2.63zm20.554.347l-.327 2.816L123 130.99l.033-2.596 6.607-3.505zm59.08 1.05c.21-.02.372.06.524.23.86.958-.775 3.862-2.63 4.733-.712.335-1.15.28-1.743-.23-.286-.248-.713-.574-.957-.55-1.062.11-.476-1.08.38-1.15.237-.02 1.723-1.13 2.847-2.066.753-.626 1.23-.936 1.58-.968zm-6.415 1.13c1.34-.03 1.828 1.084.24 1.57-1.13.348-1.76.1-1.757-.66.238-.78.92-.87 1.517-.91zm-72.386 1.508l5.38 2.696.022 2.765-4.94-2.578-.463-2.884zm19.248.38l-.376 2.615L123 134.55l.014-2.163 6.154-3.43zm60.722 1.098c.366.023.475.432.472 1.156-.005 1.2-.8 2.31-1.994 2.85-.874.398-1.49.367-1.926-.1-.198-.213-.475-.385-.616-.39-1.87-.075-1.57-.558.222-1.306.63-.264 1.87-1.122 2.456-1.54.66-.472 1.1-.688 1.386-.67zm-6.867.852c.918.004 1.726.65 1.218 1.07-.394.324-1.874.48-2.166.187-.554-.558-.06-1.26.95-1.257zm-72.212 1.86l4.585 2.47-.023 2.63-4.378-2.476-.183-2.624zm17.588.202l-.106 2.69-5.264 2.597-.033-2.566 5.403-2.72zm56.633 1.116c.89.064.78.927.06 1.345-.538.374-1.233.178-1.518-.26-.64-1.216.814-1.07 1.46-1.084zm1.787 2.763c.148.297.066.83-.226.997-.39.165-1.403-.007-1.56-.302-.13-.243-.1-.37.15-.617.414-.33 1.346-.574 1.637-.08zm-75.342.05l3.915 2.138-.023 2.582-3.598-2.09-.295-2.63zm16.282.067l-.192 2.484-4.556 2.26.06-2.422 4.687-2.32zm-47.695 1.565c.977.01 1.73.662 1.156 1.77-.36.694-.63.95-2.19 2.053-.64.45-1.19.86-1.234.915-.042.054-.45.335-.717.52-1.4.97-.914-1.054.833-4.035.5-.854 1.392-1.23 2.152-1.223zm47.348 2.215l-.36 2.735-4.075 2.08v-2.634l4.435-2.18zm-15.32.255l3.295 1.633.05 2.663-2.992-1.57-.352-2.726zm39.572.207c.105-.005.198.03.265.125.27.377.313 2.01.048 2.933-.46 1.086-1.357-1.654-1.257-2.35.192-.315.627-.695.944-.71zm-69.246.495c1.333-.024 2.296.886 1.845 2.234-.52 1.302-3.525 2.12-4.882 3.02-.888.44-1.103-.038-.828-.805.126-.354.224-.633-.453-.732-1.643-.242-.642-1.04 2.37-3.058.66-.442 1.344-.648 1.95-.66zm66.063.853c.472-.005 1.055.27 1.656.925 1.034 1.123 1.782 3.488 1.218 4.103-.432-.048-.646.59-.67.848-.064.745-1.424-.614-2.71-2.76-1.036-1.727-.534-3.104.505-3.116zm-55.483.4c4.06-.028 11.814.81 22.547 7.526 1.37.857 2.738 1.804 4.286 2.567 4.07 2.196 7.432 3.685 12.68 4.662l-.15 2.716c-.046.857 1.367 5.82.72 8.61-.964-.018.93.824.93.824l1.23 2.523s-6.44-.055-9.37-.63c-4.718-.77-13.33-4.768-17.49-7.913-4.324-3.172-10.854-5.808-16.45-6.83l-.078-2.335s-.556-7.997-1.002-9.092l-1.03-2.528c.252.103 1.33-.087 3.177-.1zm33.878 1.752l-.312 2.683-3.573 1.676v-2.298l3.885-2.062zm17.81.12c1 .003 2.514 1.173 4.242 3.512.39.526.69.983.746 1.3.053.292-.127.46-.414.424-.682-.123-.932-.37-1.123.477-.047.21.074.59-.158.52-1.215-.355-4.684-3.854-4.47-4.974.16-.843.574-1.26 1.174-1.26zm-31.823.18l2.605 1.386.115 2.645-2.316-.996-.404-3.035zm-27.998.804c.8-.026 1.296.29 1.55.91.613 1.496-.472 2.396-3.693 3.072-2.798.665-2.74.707-2.35-.332.26-.69-.604-.767-1.088-.95-.816-.308-.148-.403 2.2-1.573 1.476-.735 2.58-1.1 3.382-1.126zm-9.315.708c.08-.007.174.068.312.24 4.07 4.93 3.022 12.114-2.13 15.66-.584.388-.604.03-.538-.74l.1-1.465c.028-.29 5.92-3.907 1.562-11.952l.366-1.137c.116-.362.195-.596.327-.606zm66.48 1.53c1.607.007 6.116 4.098 4.195 4.243-.226.018-.148.31-.148.496 0 .188-.01.542-.062.676-.14.356-.665.286-1.474-.193-2.05-1.214-2.517-1.602-3.226-2.272-1.397-1.32-1-2.954.717-2.947zm-15.876.704l-.03 2.205-3.21 1.557.02-1.993 3.22-1.768zm-40.708 1.584c2.162-.074 3.378 2.08 1.22 3.212-.864.453-3.707.136-5.028.02-1.493-.13-.61-.574-.53-.708.205-.337.364-.39-.414-.853-.618-.65-.973-.81.573-1.01.75-.098 2.57-.275 3.202-.48.34-.113.667-.17.976-.18zm65.807.525c.16-.008.142.257.077.943l-.106 1.474c-.984.157-5.876 6.238-1.902 13.31l-.332 1.26c-.152.62-.202.71-.718.326-2.978-2.06-3.944-12.536 2.226-16.87.4-.266.63-.438.755-.443zm-11.616 1.228c.575.01 1.28.173 2.086.54 1.88.854 3.128 1.546 3.42 2.003.18.282-.104.517-.482.626-.458.132-.514.324-.39.862 0 .312.08.658-.312.68-.725.038-2.345-.473-3.982-1.355-2.768-1.49-2.392-3.393-.34-3.357zm-14.052.034v2.682l-2.64-1.22 2.64-1.463zm-44.237 2.307c.28.007.65.058 1.137.135.594.094 1.518.186 1.993.177 3.008-.052 4.253 2.042 1.772 3.106-.68.29-.96.26-2.817-.28-.89-.257-1.978-.528-2.423-.654-.894-.254-1.203-.536-.61-.737.55-.188.598-.57.255-1.074-.084-.508.078-.693.693-.676zm69.89 0c-.425 4.153-.773 7.39-1.4 11.456-.46-.18-3.704-7.84 1.4-11.456zm-12.656 1.988c.98.02 2.63.396 4.238 1.026 1.404.517 1.582.655.61 1.07-.585.25-.514.473-.34.855.267.288.772.862-.024.747-.945.07-3.428-.07-4.186-.202-2.267-.398-2.884-2.44-1.025-3.39.15-.076.4-.112.727-.106zm-58.236 1.05c.21 0 .594.113 1.29.333 4.07 1.284 5.72 2.84 3.728 4.35-.578.437-1.475.25-3.168-.694-1.73-.966-2.6-1.496-2.924-1.84-.32-.34-.146-.73.347-.697.675.045.573-.294.52-.862-.04-.398-.064-.587.206-.588zm10.98.376l3.12.708-7.792 34.076c-2.66.768-4.193 1.098-6.062 2.104l5.39-.93-.47 2.438-4.892.92-.11.727 5.605-1.01s-.2 2.325-.396 3.227c5.35-.432 10.632-1.92 16.012-1.96 0 0 .13-26.894.11-29.824-.02-3.168.005-6.954.005-6.954l5.394 3.043.893 33.893 16.894 2.745c-.118-.57-.578-3.19-.578-3.19 12.524 3.692 25.224 9.152 36.464 20.435-5.23 2.83-10.175 5.637-15.256 8.357l-.737 1.06c12.888-6.02 32.477-18.534 46.622-32.367l.313 89.62-67.705.272-.005-8.385.04-7.493c-.276-4.807.56-10.1-.91-14.13l-.29-4.224c4.173-4.854 6.428-10.973 8.418-17.227 0 0 2.008-.778 2.985-1.123l.337-1.228c-1.94.99-6.395 2.652-6.395 2.652.48-.375-9.472-4.563-15.618-5.548-10.14-1.623-23.783.05-34.658 5.442-.533.375-.76.366-.626-.12 2.524-9.185-2.795-18.403-12.13-21.074-1.982-.567-3.604-.563-3.604-.563l.17.803c15.256 1.72 18.835 17.842 12.96 25.33-1.538 2.472-1.773 3.193 1.46 3.11 13.063-.106 17.603 14.49 11.65 22.567.016-.062.482.94.482.94 3.713-4.9 4.7-14.213-1.878-20.756 4.863-5.424 14.2-14.104 22.277-13.596 2.94.186 5.84 3.743 7.772 6.584 4.09 6.014 5.143 14.41 5.433 19.2.07 1.255.238 2.166.24 2.826.007 1.918-.36 1.688-1.6 1.368-1.554-.4-3.687-.418-5.263.062-2.532.77-2.124.332.13-2.46 1.33-1.648 1.51-2.156.96-2.265-.17-.032-.732.532-1.47 1.667-2.224 3.42-2.05 2.016-.443-3.318 1.045-3.468.938-3.71-1.907-5.865-.94-.714-2.1-1.406-2.2-1.623-.537-1.138-.76.29-.28 1.228.47.917-.524 1.336-2.272.39-4.114-2.278-6.793 2.335-3.12 4.335.865.47 1.348.084.68-.535-2.26-2.09-.69-3.85 2.368-1.998 1.767 1.07 2.438.727 3.03-.61.326-.547 3.07 1.418 3.066 2.18-.003.5-.32 2.102-.632 3.174-.88 3.026-1.117 3.967-1.498 5.93-.69 3.557-.67 5.38.067 6.943 1.656 3.505 5.824 5.157 9.44 3.747.524-.205 1.53-.375 1.53-.375l.043 2.57c-7.128 2.7-12.278 11.127-12.044 11.414l-2.543.005c-3.375-6.7-9.313-11.744-16.86-14.533 0 0-.907-1.51-.096 1.248.05 1.106 1.216 2.667 2.157 3.212 3.585 1.822 8.33 5.054 10.946 10.07l-1.8.028c-2.197-3.348-5.042-5.608-7.74-7.58-.634-.134.463 6.07 3.054 7.984l-46.473.808c3.173-12.407 3.782-26.175-3.65-44.223 6.162.378 11.627-.943 16.635-3.13l-.452-1.286c-5.706 2.723-11.967 3.26-18.232 2.62 4.755 8.8 8.914 27.24 4.864 44.978l-17.054.092-.236-96.69s.667.608.877.818c.536.537.898 1.34 1.05 1.922.195.743.4.788 1.465 1.584.51.382.805.718.804.915-.03.22-.037.896.308 1.313.937 1.133.77 1.86.067 2.59-3.27 3.403-5.318 10.553-3.665 18.094 3.88-2.61 7.873-9.437 8-9.448l.375 9.322c-.345-.076-2.712 1.326-2.74 3.16-1.072.318-2.38-.215-3.468-.535l.784 2.746c-3.98 1.588-4.194 7.032.42 8.587 0 0-.422 2.13-.784 3.273l2.996-.457c1.74 5.196 8.42 3.532 8.388-.093 0 0 2.032.764 2.804 1.104l-.75-3.542c7.595-3.79 1.912-8.752.178-8.68.023-.99.478-1.304.895-2.457l-3.067.192c-.562-1.83-2.624-3.326-2.7-3.125l-.425-13.345c2.32 2.022 4.6 4.097 7.676 5.707 2.84 1.485 3.128 1.153 2.708-1.41-.19-1.158-.174-1.918-.174-1.918 1.064.25 3.75 3.74 3.62 5.46.982 1.28 1.872-2.163-.658-5.095 6.735-7.054 11.868-18.745 12.964-26.713l8.957-3.563.102-1.167c6.098-4.083 9.28-9.76 10.955-16.185zm7.455 2.085l2.063.92-2.34 1.16.278-2.08zm-19.86.563c.397.184 1 .58 1.825 1.185 1.752 1.286 2.773 2.17 2.808 2.948.017.385-.266.883-.708 1.117-1.058.562-2.07.103-4.358-2.24-.74-.755-1.233-1.16-1.46-1.496-.262-.394-.067-.763.367-.604 1.856.84.25-1.49 1.526-.91zm63.12.482c.382.002.683.01.872.05.496.1.64.38.332.653-.476.426-.34.855.14 1.085.33.157.196.49-.202.718-.232.133-.588.276-1.074.43-2.812.878-4.885.615-5.427-.694-.623-1.507.57-2.238 4.008-2.236.51 0 .97-.007 1.352-.006zm-40.948.896l-.023 2.018-2.92 1.4.318-2.046 2.624-1.372zm-24.806.63c.256.016.676.41 1.286 1.156 2.814 3.448 3.194 4.113 2.272 5.028-1.093 1.084-2.625.035-4.276-2.986-.222-.406-.493-.928-.655-1.117-.605-.71-.338-.93.43-.87.42.03.62-.117.63-.55.012-.458.114-.672.313-.66zm67.46 1.744c.512 0 .473.175.244.77-.176.528-.464.7.28 1.03.122.062.396.4.148.545-.587.397-3.21 1.592-4.16 1.907-1.846.612-2.98-.89-1.897-2.384.455-.625 3.575-1.758 5.13-1.858.097-.007.182-.01.255-.01zm-68.933 1.998c1.87 2.79 2.104 4.094.87 4.907-.778.594-2.44-.26-2.82-2.06-.29-1.38-.424-2.823.025-3.97.68-1.733 1.73.835 1.925 1.123zm26.264-1.155l.015 2.183-3.55 1.78.328-2.4 3.207-1.562zm7.234.088l3.34 2.162.19 1.858-3.447-1.897-.082-2.122zm37.23 2.147c.09 0 .137.04.136.145 0 .257-.065 1.17.434 1.252.98.163.758.47-.1 1.21-.933.823-1.783 1.8-2.905 2.402-2.894 1.07-3.803-1.99-1.064-3.578.946-.55 1.804-.928 2.442-1.108.48-.135.866-.325 1.06-.323zm-37.137 1.123l3.867 2.278.135 2.292-3.843-1.955-.16-2.615zm-7.46.21l.015 1.995-3.775 2.162.312-2.23 3.448-1.926zm15.627 1.63c1.07.497 14.792 4.31 19.336 3.01 0 0 3.89 5.604 6.766 7.612-4.454 6.536-19.537 12.945-19.537 12.945l-6.565-23.568zm30.888.14c.25-.01.31.238.308.707-.06 1.355-2.29 6.35-4.064 3.79-.487-.953.01-1.94 1.565-3.116 1.234-.934 1.87-1.372 2.19-1.383zm-74.715.786c.34.37.186 1.506-.545 1.43-.21-.02-.24-1.175-.1-1.8.21-.104.527.248.645.37zm28.248.633l-.023 2.533-4.48 2.438.483-2.818 4.02-2.153zm7.408.356l4.436 2.365.52 2.798-4.917-2.548-.04-2.615zm-7.416 3.444v2.553l-5.032 2.58.342-2.518 4.69-2.615zm7.503.22l4.96 2.823.65 2.658-5.538-2.86-.072-2.62zm-70.31.083c.812-.01 1.104.854.49 1.406-.405.377-1.555.3-1.656 0-.52-.5.192-1.393 1.165-1.406zm1.517 2.702c.12-.008.233 0 .332.024.586.15.95.996.593 1.48-.662.89-2.408.272-2.153-.854.067-.298.707-.614 1.228-.65zm61.203.852v2.283l-5.476 2.89.346-2.553 5.13-2.62zm7.744.32l5.647 3.033.434 2.557-6.072-3.16-.01-2.43zm-71.63.066c.27-.016.49.06.606.265.104.183.23.648.62.876.732.427.81.515-.582 1.124-.586.256-1.736 1.04-2.14 1.31-1.228.827-1.728.55-1.82-.43-.112-1.233 2.133-3.08 3.315-3.144zm4.237 1.868c.284-.017.562.037.76.17.47.31.496.933.044 1.246-1.033.66-2.65-.245-1.79-1.035.242-.224.62-.36.987-.382zm59.638 1.237l.03 2.962-6.107 3.222.404-3.006 5.673-3.18zm-62.657.348c.4-.023.783.07 1.117.317.362.46.797.597 1.05.606 1.048.04.714.424-.386.925-1.516.692-2.58 1.57-3.67 2.582-1.135 1.053-1.217 1.28-1.59.848-1.385-1.604 1.317-5.155 3.478-5.277zm70.502.033l6.4 3.5.55 2.958-6.95-3.867v-2.59zm-66.298 2.085c.26-.005.502.058.693.213.455.37.192 1.09-.438 1.41-.536.275-1.418.16-1.67-.095-.606-.61.49-1.504 1.415-1.527zm-3.092 1.49c.39-.038.743.46 1.06.996.11.134.548.074.862.077 1.197.01 1.364.516.202 1.16-.34.188-1.455 1.042-2.2 1.676-2.01 1.918-3.1 1.468-2.842-.497.245-1.877 1.877-3.313 2.918-3.414zm69.39.183l7.06 3.87.69 3.185-7.75-4.176v-2.88zm-7.792.058l-.028 2.934-6.646 3.516.515-2.977 6.158-3.472zm7.898 3.733l7.907 4.786.29 3.115-8.197-4.72v-3.182zm-7.903.52l.015 2.875-7.35 3.728.372-2.716 6.963-3.887zm-59.657 1.902c.188-.005.364.024.51.092.86.396.636 1.08-.66 1.786-1.32.72-1.77.596-2.055-.212-.238-.68 1.192-1.64 2.206-1.665zm82.566.39c13.75 3.147 27.21 9.953 40.278 21.835l-2.73 1.93s-11.452-13.06-36.903-20.716l-.645-3.05zm-14.924 1.368l3.813 2.25.01.572-3.823-.313v-2.51zm-64.98.024c.29.015.545.184 1.908.833 5.474 3.95 7.665 6.334 9.024 10.667.814 2.596.8 2.49-1.878 1.078-2.518-1.337-5.97-3.556-8.196-6.424-.37 6.75.42 15.142.42 15.142 3.418 1.685 2.31 6.07 2.302 6.045 8.8-2.4 6.87 9.21.314 6.706 1.563 8.71-8.41 8.002-7.39.535-7.938-.307-6.535-8.96.056-7.764-.686-2.67.26-4.478 2.69-5.624l-.372-11.403s-6.47 9.286-7.55 9.14c-.636-.085-1.59-1.15.02-9.294.837-4.24 5.332-9.402 7.85-9.568.444-.03.63-.078.803-.068zm6.33.086l1.16.795-1.094 1.95-1.21-.876 1.143-1.87zm50.627.56l-.04 1.71-3.562.21 3.602-1.92zm-39.075 19.3c-.534.014.902.35 1.81 1.165 8.388 1.3 13.518 11.557 9.638 18.984-.47.334.255 1.95.728 1.344 4.09-5.8 1.045-20.05-10.89-21.406-.708-.06-1.108-.09-1.286-.087zm3.17 3.897c-.675 1.848-.853 2.29.876 1.536 3.053 1.13 6.346 6.1 5.292 11.09-.34.583.253-.38.655 1.262 1.507-3.654.003-11.534-6.824-13.888zm38.76 9.3c8.584-.026 17.08 1.85 23.838 5.734-2.297 1.277-9.626 3.058-9.626 3.058-4.12-4.622-6.22-9.244-13.668-6.88-7.8 2.013-14.824 8.764-18.778 13.243-3.964-2.36-6.11-2.937-9.625-3.132-.202-.005-.504.89-.254-.554 1.005-1.55 1.698-3.305 2.37-5.076 7.366-4.188 16.607-6.37 25.744-6.395zm26.685 5.93c-1.71 5.532-3.917 10.98-7.662 15.777l-.462-2.398c3.522-5.407 5.19-10.323 5.943-12.48l2.182-.9zm-3.323 1.437c.22.352-3.413 9.01-5.206 10.585l-.703-2.234c1.462-2.21 3.627-7.535 3.563-7.585l2.346-.766zm-22.163.01c-.114.01-.154.11-.155.327-.003.795.826 1.42 2.336 1.763 2.04.462 4.9-.243 4.903-1.21.002-.557-.396-.598-1.565-.057-1.465.678-2.76.545-4.67-.467-.44-.232-.703-.37-.85-.356zm18.17 1.382c-.568 2.097-1.41 3.64-2.486 5.243l-.347-1.103c.744-1.202 1.235-2.575 1.864-3.91l.97-.23zm-2.134.677c-.274.73-.578 1.574-1.208 2.226l-.82-1.734 2.028-.493zm-12.914 1.608c-1.382.026-2.75.472-2.87 1.206-.057.353.474.217 3.045-.097 1.357-.165 2.004.64 3.248.555.633-.075.04-.66-.156-.83-.693-.588-2.05-.857-3.268-.833zm-5.9 1.6c-.14.027.016.38.533 1.28.28.487.35 1.48.404 2.095-.067 1.53-.063 1.482.692.598.477-.473 1.4-.368 2.866.028.944.256 1.17.348 1.826-.063.76-.477.938-.236 1.593-.104.632.126 1.205-.128 1.897-.32.845-.232 1.007-.178 1.743 0 1.124.533.96.486 1.055-1.42.094-1.876-.008-2.01-1.094-1.377-1.05.612-1.775.89-3.39.328-1.76-.612-2.008-.457-3.256-.08-1.508.453-2.193.607-3.395-.126-.788-.484-1.32-.87-1.476-.84zm-24.576 2.83l.675 1.1c6.08 2.175 10.2 7.145 7.77 15.52l.577.925c3.042-8.44-.43-15.418-9.02-17.544zm1.883 3.575l.828 1.7c4.575 2.21 4.3 8.296 4.045 8.057l.718 1.585c1.145-3.94-.94-9.755-5.59-11.342zm19.108 9.078c-.18 0-.3.062-.347.188-.117.303.237.484 2.327 1.932 1.795 1.24 3.183 2.163 3.077 2.34-.07.12-1.188-.153-1.984-.39-2.09-.62-5.17.127-6.896 1.343-.438.296-1.168-.025-1.8-.19-.254-.072-.813-.14-1.09-.068-1.306.342-.04 1.59 3.155 3.207 3.92 1.985 6.044 2.166 8.426.963 1.582-.818 2.15-.212.42.722-3.022 1.63-5.917 1.127-10.69-2.157-2.213-1.52-3.097-1.267-1.195.184 3.337 2.608 9.76 5.79 13.702 1.9.153-.055.512-.028.684-.027.82.003.854-.255 0-1.608-.516-.815-1.558-1.674-.29-2.673.962-.757.893-1.117-.27-1.464-.306-.085-.275.116-.736-.256-2.79-2.252-5.52-3.95-6.492-3.946zm1.21 4.444c1.17.033 2.35.935 2.72 2.558.033.145.062.293.082.447l-.998.038c-.828-3.307-3.32-2.21-3.57-.274l-.897-.118c.33-1.844 1.49-2.682 2.662-2.65zm20.673 2.822l-.664.1c-.435-1.22-2.403-2.855-3.342.112l-.838-.033c.583-4.02 4.233-3.395 4.845-.18zm-5.095-1.67c.27.386-.205 1.036-.482 1.333-.266.284-.854.044-1.102-.236-.215-.275-.055-.827.305-1.01.373-.19 1.007-.362 1.28-.086zm-11.682.12c.278.624-.502 1.09-.6.88-.167-.06-.374-1.088-.278-1.156.258-.01.77.075.878.276zm17.563-.1c.42.032.88.23.963.706.003.314-.36.656-.776.675-.183.008-.884-.507-.753-1.24.15-.26.32-.163.566-.142zm-24.416.196c.147.226-.13.9-.192.992-.033.047-.93.01-.91-.058.02-.067-.084-.575.135-.944.247-.158.787-.242.967.01zm16.287 2.177c.115.003.264.05.438.16 2.508 1.63 5.733 2.358 8.057 1.192.52-.26.858-.247.857.004-.002.275-.576.84-1.647 1.16-2.394.72-6.345-.23-7.71-1.694-.403-.43-.344-.832.004-.823zm-21.994 1.71c-.24-.007-.316.134-.27.423.158.974 6.866 4.822 9.67 5.34 2.303.428 4.092.236 5.5-.58 3.42-1.988 2.543-4.675-.805-2.65-2.248 1.36-7.947.734-11.336-1.223-1.506-.87-2.36-1.3-2.76-1.31zm30.218 1.407c.85-.356 1.213-.48 1.398-.324.862.72-.55 1.846-3.126 2.284-2.06.34-3.3.405-5.65-1.335-1.822-1.348-.964-2 .08-1.39 2.783 1.627 4.85 1.678 7.3.764zm-29.62 4.207c5.935 2.126 12.684 7.25 15.68 13.476l-1.83-.015c-2.036-3.553-6.067-8.066-12.713-11.238-.59-.484-.895-1.35-1.136-2.22zm31.163 2.915v1.945c-3.667 1.848-6.74 4.692-9.06 8.615l-2.074-.028c2.377-4.21 5.94-8.15 11.133-10.532zm0 2.966v2.39c-2.318 1.36-4.253 3.15-5.61 5.206h-2.456c1.968-3.327 4.668-5.98 8.066-7.595zm-27.165 1.836c1.767 1.016 4.69 3.724 5.755 5.808l-.944.044c-.963-1.225-2.5-2.633-3.752-3.742-.8-.94-1.06-2.11-1.06-2.11zm27.165 1.532c.03 0 .03.018 0 .058v1.897c0 .05-1.76 1.2-2.51 2.272h-1.992c1.37-2.476 4.218-4.233 4.503-4.227zm.005 3.155l-.005 1.073-1.252.005c.084-.12.78-.887 1.258-1.077zm-24.435.27c.375.196.663.9.663.9l-.336.036-.327-.938z"/><path fill="#E2CF00" d="M47.74 242.36c4.127.113 12.837-1.43 12.697-1.27 0 0 27.02 44.895 25.923 44.45-.352.557-34.616.537-34.616.537-.743.007 7.27-16.636-4.004-43.716zm12.252-31.63c13.167-10.908 26.96-10.99 41.77-12.49l.34-37.077 5.36 3.208.113 33.973c19.55 1.466 36.417 8.625 50.908 21.157.18.272-20.965 11.58-30.226 14.57-7.19-5.277-26.16-8.604-38.74-4.547-3.455 1.114-7.697 2.898-11.824 4.216 2.99-17.9-10.987-20.542-15.903-21.368-.616-.104-1.35-1.43-1.798-1.64zm-16.9 5.788c.23-3.813-.02-7.63-.304-11.53-.075-.89-7.7 11.602-8.126 8.572-1.066-7.586 2.7-17.23 8.618-18.413.59-.798 12.313 6.458 11.778 12.73-.175 2.04-10.46-6.9-10.5-6.366-.242 1.046.302 15.04.62 15.012 2.96 1.666 2.316 3.807 2.64 5.58 7.936-1.17 7.502 7.63.013 7.356.464 10.398-9.193 5.7-7.29.16-9.727-.457-4.937-9.54-.094-7.545-.29-2.293.275-4.684 2.646-5.555zM54.25 172.4c-.56-.22-20.748-1.255-20.748-1.255l1.056-49.156c10.307-23.663 49.095-12.598 42.924-7.563-18.535 12.14-21.357 34.28-23.232 57.973zm37.234-20.193l-.616-5.458c-1.584-3.393 41.273 16.397 41.757 16.82l1.247 5.824c.247 2.56-27.26-10.367-42.388-17.187zm77.96-9.64c-.63 22.06-4.032 36.995-16.85 55.02-.356.593-3.98 2.094-4.26 2.603 1.83 2.896 12.29 7.145 17.12 9.43l25.128-14.963c.29.02-.86-52.42-.86-52.42l-20.278.33zm9.51-23.954c-3.376-.515-11.232-8.66-9.604-11.122.05-1.848 9.774 5.228 10.785 7.135-.498-.566-.568-17.284-.726-16.62-.37.196-2.97-1.665-2.294-5.148-7.455 1.646-7.046-8.036-.53-7.64-.842-8.812 9.923-5.575 7.06.324 9.21-1.695 7.62 8.644.66 6.96.59 3.922-1.027 5.006-3.29 5.79.145 1.643.762 12.605.762 12.605s6.81-10.434 7.3-9.534c1.363 3.165-1.12 19.898-10.124 17.253zm-31.562-38.477c-3.073 10.59 5.348 22.69 13.304 22.656 1.6-.252 4.664.61 3.606 1.468-12.55 10.165-41.84 12.276-41.847 11.835.308 12.48-.252 25.083-.55 37.56l-5.368-3.232c-.172-11.38-.453-23.02-.714-34.398-18.766-2.447-35.63-8.5-48.96-21.37 8.85-6.556 19.424-10.65 29.58-14.79 12.786 6.638 30.588 10.474 50.95.27zm-9.26-50.316c-.59-.26 2.02-2.198 2.02-2.198s21.805.286 32.62.14c-3.94 16.17-1.154 30.657 3.935 44.568-1.35-.315-10.305.41-12.49 1.39-.352.35-25.81-43.506-26.086-43.9z"/><path fill="#D40000" d="M87.07 285.477L60.706 240.98l3.956-1.718 27.176 46.28-4.77-.065zm-46.908-59.49l3.81-3.918 3.817 3.867-3.994 3.708-3.634-3.658zm84.576-24.955l-.536-3.18c15.188 3.717 27.62 11.52 36.56 20.02l-2.13 1.558c.663-.18-21.577-16.855-33.894-18.398zm-44.11-3.133l4.813-.7-.136 2.676-4.576 1.04-.1-3.017zm88.9-2.115l-2.625-2.114 1.89-2.237 2.55 2.01-1.816 2.342zm-89.205-21.56c6.52-3.085 11.61-15.533 10.97-16.363l3.554.842-8.207 34.106-6.18 1.117c-.027-6.525-.138-13.18-.137-19.702zm42.908 19.298c-2.21-7.18-6.56-23.42-6.56-23.42.158.53 14.142 4.505 19.13 3.058 2.13 2.915 4.47 5.477 6.94 7.824-5.18 5.062-11.607 9.292-19.51 12.54zm58.612-26.137l-2.463-2.134 2.21-2.705 2.704 2.06-2.452 2.78zm-32.18-1.427c-2.007-3.606-2.146-7.682 1.577-11.7l-1.578 11.7zM73.15 158.97c-.16-.372.843-8.916 1.08-9.294.413-.665 1.225 1.73 1.607 3.562.48 2.296-2.106 7.094-2.688 5.732zm56.27-2.653s5.415-25.088 7.76-34.92l6.606-1.665-.892 20.598c-5.43 4.854-9.944 16.418-9.944 16.418l-3.53-.43zm-87.028-4.173l-2.614-2.44 2.212-2.42 2.307 2.358-1.905 2.502zm46.834-9.78l-7.183-8.4c4.45-6.19 11.835-9.77 19.66-12.58l5.3 23.573c-5.99-1.804-12.448-3.76-17.777-2.594zm-36.707-21.01l1.84-2.29 2.413 1.897-1.833 2.533-2.42-2.14zm86.467-7.083l4.622-.66-.35 3.17-4.893.78.62-3.29zM63.703 96.45l2.846-1.772c9.99 8.967 21.02 15.152 33.055 18.67l.81 3.874c-13.57-4.182-26.39-10.52-36.712-20.773zm116.732-3.58l-3.7-3.646 3.33-3.703 3.957 3.42c-1.306 1.968-3.587 3.93-3.587 3.93zm-20.5-17.75l-27.692-47.233 4-.033 27.252 45.498-3.56 1.77z"/><path d="M131.99 27.09l-6.617.025 37.558 75.53s-1.017.17-3.01-.353c-9.02-2.366-14.578-11.895-12.54-21.242.208-.727.26-1.35.26-1.35-23.252 10.525-37.65 6.65-51.074-.052l-5.727 2.196c.38-3.458 4.658-16.443 11.057-22.557l-.01-6.55-.154-3.092-.506-5.61C91.707 53 80.6 67.108 79.21 87.143c0 0-8.67 4.452-16.066 9.377.41-.055 11.524 13.59 38.223 21.252l-1.175-4.354c3.97 1.114 9.614 1.995 15.228 2.706l.75 34.196 6.377 3.776.217-37.86c.196.154 10.17-.354 15.54-1.634l-.756 3.65 5.308-1.045v2.663l-5.817 1.372-8.284 35.39 4.825 1.075c1.413-7.13 4.98-12.895 10.147-16.432l-.053-1.357c3.314-2.378 10.203-4.268 10.248-4.224 2.35-11.478 7.82-19.432 13.633-26.997l-2.77-3.76 10.62-3.897-14.74-25.075c5.67-3.914 16.916-2.456 16.916-2.456-4.82-13.013-9.056-26.435-4.294-46.13l-41.002.032-.294-.32zm13.452.816c-.01 3.29-4.31 2.952-4.834-.017l4.834.016zm26.34-.102c-2.608 15.08-1.744 29.772 4.306 43.73 0 0-.882.052-.992.03-.084-.017.103-.753.058-.95-.12-.523-.99-.277-1.72.213-.317.214-.684.458-.914.573-.75.374-4.55.346-4.55.346 1.24-.84 2.983-3.202 1.972-4.58-.23-.294-.368-.164-.59.232-1.08 1.918-1.617 2.22-3.06 2.2-2.263-.027-3.882-1.43-3.698-3.544.177-2.055 3.2-3.14 2.755-1.146-.123 1.775 1.638 2.12 1.964.352.122-.663.024-.355.168-1.132 3.523-1.87 1.578-5.676-1.71-4.88-.772.205-.87.277-1.415-.004-1.014-.52-1.856-.357-2.24.376-.337.646.177 1.162.93 1.165.78.003.932.38.93.848-.004 1.09-1.884 1.613-3.13.978-3.29-1.677-2.07-6.038 1.748-6.023 1.16.005 1.646.077 1.695-.173.14-.705-1.634-1.923-2.635-1.743-.848.166-1.363.388-.915-.74.276-1.165.27-1.692.034-2.567-.61-1.25-.596-.61-.973.404-1.257 2.086-3.152 2.547-4.786 1.406-1.515-1.06-1.47-3.07-.028-4.503 1-.996 2.074-.318 1.474.795-.25.46-.053 1.032.395 1.146.903.23 1.464-.3 1.47-1.395-.02-.603-.187-.737.9-1.357 2.812-1.606.708-5.995-2.467-4.585-.696.31-.86.612-1.175.467-1.327-1.253-3.23.332-2.104 1.17.485.237 1.08.328 1.236.343.274.156.183.546-.217 1.035-1.314 1.55-4.3.785-5.004-1.4-.816-2.532 1.772-5.194 3.756-3.72.587.438 1.096.483 1.1-.163.002-1.006-1.265-2.16-2.88-2.046-1.643.114-1.463.326-.57-1.157.66-1.32.57-2.61-.004-3.386-.443-.598-.898-.724-.853-.09.36 1.96-1.934 3.827-3.82 3.004-1.81-.81-2.71-2.838-1.82-4.6.822-1.623 2.813-1.79 2.48-.057-.155 1.106.687 1.688 1.5 1.035.294-.237.363-.446.384-1.16.022-.795-.3-1.027.21-1.493 1.345-.178 1.428-3.03 1.225-3.15l21.577-.1zm-24.054.096c.853 0 1.56.29 1.56 1.142s-.688 1.54-1.54 1.54c-.853 0-1.546-.687-1.546-1.54s.673-1.142 1.526-1.142zm-15.122.11h3.43l27.09 45.147-3.207 1.56-27.314-46.706zm5.633 1.578c1.64.938 3.156 1.71 5.215 1.91-.603 1.224-1.152 2.56-1.252 4.846l-3.964-6.756zm5.516 9.092c1.672.6 3.123 1.506 5.877.59-1.47 1.3-2.3 2.853-2.922 4.49l-2.954-5.08zm14.095 5.454c.79 0 1.43.64 1.43 1.43 0 .79-.64 1.426-1.43 1.426-.79 0-1.43-.636-1.43-1.426 0-.79.64-1.43 1.43-1.43zm-8.776 3.564c1.208.444 2.474.74 3.88.675-.696.956-.933 2.41-.978 4.072l-2.902-4.747zm4.148 7.116c1.118.546 2.44 1.34 4.79 1.085-1.556 2.638-1.223 3.365-1.382 4.52l-3.408-5.606zm13.576 5.24c.827 0 1.498.672 1.498 1.498 0 .827-.67 1.498-1.498 1.498s-1.497-.67-1.497-1.498c0-.826.67-1.497 1.498-1.497zm-8.414 3.364c1.024.578 3.046.908 3.068.752-.13-.098-.582 1.95-.66 3.236l-2.408-3.988zm4.715 7.69c1.454.858 3.064.777 4.012.878-1.013.203-1.967.456-3.054.883l-.96-1.76zm17.165 8.443c-3.507.227-4.32 2.916-3.904 5.64-2.672-.427-5.665 2.107-4.828 5.207.793 2.938 3.526 3.042 5.412 2.846-.145.714-.542 3.115 2.36 5.146l.386 15.258s-1.28-1.174-2.113-2.006c-3.646-3.63-9.128-6.26-8.784-4.214.05.3.167 1.064.255 1.695.58 3.455 5.22 7.188 8.385 9.068 1.13.63 1.83 1.306 1.83 1.306-5.92 6.327-9.1 13.078-9.893 19.778-.735 6.226-1.33 11.833-1.916 17.55-2.415 28.672-14.72 35.884-15.305 37.287l-.232 3.824-3.434-.255-3.958 3.423c12.966 6.7 20.53 14.785 20.424 14.938 10.353-6.778 19.29-14.31 27.724-22.103l-.163-63.842s-.7.256-.88.255c-.642-.002-.723.286-.944 1.508-.12.653-.51 1.256-.814 1.686-.58.815-.373.403.356.698 1.66.672-.495 3.717-2.855 4.088-1.7.268-2.65.58-2.938.974-3.578 3.13-7.143 3.625-9.84 2.475-1.325-.566-2.767-1.395-3.255-2.774-1.106-3.134 1.2-7.65 2.553-10.258 2.48-4.782 6.603-8.374 6.603-8.374l-.674-.732s.81.013.963-.043c3.557-1.295 3.776-1.313 4.43-2.255.654-.943 2.304-3.632 2.645-4.518 1.828-4.754 2.074-5.062 2.07-8.182-.003-2.527-.17-4.215-.66-4.35-2.802 2.15-5.63 7.167-7.285 10.123-.572-4.38-.742-12.028-.742-12.028.593-.655 3.958-.29 3.212-5.775 2.963 1.336 6.083-.708 5.953-3.56-.203-4.44-3.626-4.31-6.41-3.75 1.324-2.684-1.2-5.917-3.733-5.754zm-.054.374c3.66.113 4.387 4.158 2.144 6.447 0 0-1.453-1.117-2.224-1.754-.732.575-.943 1.073-1.75 1.665-.952-.704-1.527-1.95-1.536-3.15.045-1.876 1.937-3.25 3.367-3.206zm-83.61.126c14.81 8.275 33.38 8.867 50.377.433l-.207 1.4-1.864 1.05 1.055 1.933.584-.28.015 1.277c-14.013 7.568-37.484 9.135-55.86-3.434l1.6-.743s.36.252.708.468c.67.414 1.775 1.08 2.505 1.405l1.112-1.604s-1.698-1.035-1.53-1.103l1.504-.803zm1.305 2.537l-.848 1.927 2.123 1.132.81-1.94-2.085-1.12zm-8.057.217c22.806 14.315 44.033 10.054 56.782 4.2l.163 1.526c-16.454 7-38.09 8.878-58.685-4.966l1.74-.76zm53.68.92l-2.026.81.804 1.858 2.086-.89-.863-1.778zm-56.407.347c18.534 11.95 38.41 14.29 59.832 5.534l.818 2.288c-20.862 8.378-42.88 7.412-62.994-6.83l2.345-.99zm14.242.068l-.828 2.004 2.297.87.67-1.964-2.138-.91zm38.974.828l-2.01.65.627 1.917 2.08-.708-.697-1.86zm-35.464.55l-.496 2.013 2.346.66.41-2.024-2.26-.65zm84.875 3.313c.315 3.423-4.76 5.074-6.66 1.88l1.674-2.033-1.496-1.396c2.03-3.21 6.186-1.665 6.483 1.55zm-105.48-3.204l5.527 3.8-4.017 6.24-5.952-3.996 4.44-6.044zm95.818.174l3.51 3.043-3.222 3.77-3.293-3.32 3.005-3.493zm-2.182 1.032l-1.975 2.294 2.137 2.272c-2.533 2.692-6.314 1.03-6.276-2.267.027-2.514 3.878-4.963 6.113-2.298zm-40.93-.884l-2.107.63.48 1.85 2.183-.567-.556-1.912zm-28.45.583l-.39 1.99 2.422.52.41-1.98-2.442-.53zm24.97.338l-2.245.486.386 1.98 2.25-.473-.392-1.992zm46.828.468l-1.848 1.815 1.85 1.917 1.863-1.916-1.864-1.814zm-67.91.058l-.285 2.003 2.538.342.197-2.028-2.45-.318zm17.09.274l-2.282.26.23 1.965 2.37-.3-.318-1.925zm-13.474.232l-.028 2.056 2.225.18.005-2.038-2.202-.198zm9.814.192l-2.234.082.015 1.988 2.283-.145-.063-1.925zm-40.77.02c-1.314 0-2.38 1.063-2.378 2.38 0 1.313 1.063 2.378 2.38 2.378 1.313 0 2.378-1.064 2.378-2.38 0-1.315-1.065-2.378-2.38-2.378zm37.024.067l-2.196.018.01 2.014 2.263.01-.076-2.043zm58.227.01l.965.962-.964.948-.986-.948.987-.963zm-95.254.76c.862 0 1.56.696 1.56 1.56 0 .862-.697 1.564-1.56 1.564-.863 0-1.565-.702-1.565-1.565s.702-1.56 1.566-1.56zm-8.462.115l3.164 2.576c-1.007 1.928-4.194 5.997-4.194 5.997l-5.847-4.686 3.06-1.728c-.168.32-.26.683-.26 1.07-.002 1.29 1.047 2.335 2.34 2.335s2.34-1.044 2.34-2.336c0-1.238-.968-2.25-2.187-2.33l1.584-.895zm-1.767 1.656c.866 0 1.57.705 1.57 1.57s-.704 1.566-1.57 1.566c-.867 0-1.57-.7-1.57-1.565s.703-1.57 1.57-1.57zm107.536.742s.862.327 1.073.65c1.697 2.605-.07 5.702-2.915 5.642-3.322-.07-4.196-4.235-1.91-5.935l1.856 1.753 1.897-2.11zm-86.38 1.06l6.548 2.515-2.483 7.117-7.16-2.938 3.095-6.693zm-26.92.742c26.72 24.074 64.68 25.806 92.27 9.824l1.68-.034.892.915c-31.432 18.587-70.505 14.543-96.883-9.382l2.04-1.324zm73.575 1.435l2.108 7.034-7.242 1.907-1.618-7.126 6.752-1.815zm-76.316.254c8.11 7.814 19.575 14.662 33.04 18.546l.333 2.884c-14.294-4.292-25.09-10.024-35.607-19.976l2.234-1.454zm31.394.11c-1.292 0-2.34 1.05-2.34 2.342s1.048 2.336 2.34 2.336 2.34-1.044 2.34-2.336-1.048-2.34-2.34-2.34zm-11.65.526l6.757 3.573-3.366 6.737-7.176-3.848 3.786-6.462zm11.622.245c.866 0 1.57.704 1.57 1.57s-.704 1.565-1.57 1.565c-.867 0-1.57-.7-1.57-1.565s.702-1.57 1.57-1.57zm11.186.96l6.49.942-.297 7.195-7.575-.91c.29-2.532 1.382-7.228 1.382-7.228zm31.356.177c-1.292 0-2.34 1.05-2.34 2.34s1.048 2.337 2.34 2.337 2.34-1.045 2.34-2.337-1.05-2.34-2.34-2.34zm-.03.77c.866 0 1.57.704 1.57 1.57s-.704 1.565-1.57 1.565-1.57-.7-1.57-1.565.704-1.57 1.57-1.57zm-52.78.102c-1.292 0-2.34 1.05-2.34 2.34 0 1.292 1.048 2.336 2.34 2.336s2.34-1.044 2.34-2.336c0-1.29-1.048-2.34-2.34-2.34zm41.502.01l.93 7.23-7.09.35-.418-7.21 6.578-.37zm50.807.645h1.005c.093 6.22.585 13.42 1.306 18.746.11.793.158 1.027.078 1.17-.696 1.233-1.506-.318-1.82-3.857-.088-.976-.198-2.396-.318-3.328-.366-2.822-.25-12.733-.25-12.733zm-119.813.11c-10.66 6.65-28.39 22.533-28.282 22.903l.072 61.035 1.387.067 1.146-2.244c-1.773-.443-1.277-3.775 2.118-4.444.58-.114 2.35-.71 2.784-1.04 2.577-1.965 6.765-3.125 9.703-2.35 4.284 1.096 5.163 4.245 3.102 9.723-1.626 4.316-4.846 9.838-7.87 11.412-.245.13-.78.39-.78.39s.704.64.96.805c8.33-4.812 12.534-22.077 12.31-32.82.335-11 2.232-22.043 6.674-30.073 7.34-13.27 17.05-18.607 17-18.656 0 0-13.09-7.947-20.323-14.708zm27.474.005c.868 0 1.57.703 1.57 1.57s-.702 1.564-1.57 1.564c-.865 0-1.568-.7-1.568-1.566s.702-1.57 1.57-1.57zm64.75.25l2.527 6.718-7.026 2.875-2.532-7.06 7.03-2.533zm-40.415.034c-1.29 0-2.34 1.048-2.34 2.34 0 1.29 1.05 2.335 2.34 2.335 1.293 0 2.34-1.044 2.34-2.336 0-1.292-1.047-2.34-2.34-2.34zm14.284.58c-1.293 0-2.34 1.05-2.342 2.342 0 1.292 1.05 2.336 2.34 2.336s2.34-1.044 2.34-2.336-1.047-2.34-2.34-2.34zm-14.314.19c.866 0 1.57.702 1.57 1.568 0 .866-.704 1.565-1.57 1.565s-1.57-.7-1.57-1.565.704-1.57 1.57-1.57zm14.284.58c.867 0 1.57.705 1.57 1.57s-.703 1.566-1.57 1.566c-.866 0-1.57-.7-1.57-1.565s.703-1.57 1.57-1.57zm23.895.8c-1.292 0-2.34 1.05-2.34 2.342 0 1.29 1.048 2.335 2.34 2.335 1.293 0 2.34-1.044 2.34-2.335 0-1.292-1.047-2.34-2.34-2.34zm-.028.772c.866 0 1.57.704 1.57 1.57 0 .866-.704 1.564-1.57 1.564s-1.57-.698-1.57-1.564.703-1.57 1.57-1.57zm-49.627.12l7.02 1.797-1.63 7.362-7.923-2.104 2.533-7.056zm88.823-.19c1.148 3.597-.96 8.21-1.065 8.512-1.276 3.618-2.812 6.575-3.37 6.746-.477.18-.687.065-.685-.38.003-.684 1.57-5.316 2.803-8.298.302-.73 1-2.937 1.003-3.308 0-.558-.54.352-1.124 1.743-1.13 2.782-2.778 5.763-3.136 8.46-.256 2.206-.675 1.895-.982-.73-.426-3.646.37-5.52 4.47-10.596.98-1.212 1.985-2.46 2.085-2.148zm-51.583 1.87l2.032 7.21-8.287 1.415-1.29-7.31 7.545-1.315zm-34.702.728c-1.292 0-2.34 1.05-2.34 2.34 0 1.292 1.048 2.336 2.34 2.336s2.34-1.044 2.34-2.335c0-1.29-1.048-2.34-2.34-2.34zm12.39.467l7.508.43.068 7.492-8.148-.353.572-7.57zm-12.418.303c.866 0 1.57.704 1.57 1.57s-.704 1.564-1.57 1.564-1.57-.698-1.57-1.564.703-1.57 1.57-1.57zm31.508.665c-1.292 0-2.34 1.048-2.34 2.34s1.048 2.336 2.34 2.336 2.34-1.043 2.34-2.335-1.048-2.34-2.34-2.34zm-15.564.602c-1.292 0-2.34 1.05-2.34 2.34 0 1.292 1.048 2.336 2.34 2.336s2.34-1.044 2.34-2.335c0-1.292-1.048-2.34-2.34-2.34zm15.536.17c.866 0 1.57.702 1.57 1.568s-.704 1.565-1.57 1.565-1.57-.7-1.57-1.565.704-1.57 1.57-1.57zm-15.564.6c.866 0 1.57.703 1.57 1.57 0 .866-.704 1.564-1.57 1.564s-1.57-.697-1.57-1.563.703-1.57 1.57-1.57zm51.196.45c.123-.004.286.02.395.018 1.676-.02 7.33 4.042 8.78 6.502 1.2 2.17.578 3.033-.806 1.093-1.908-2.126-5.435-5.28-5.884-5.283-.48 0 .182.687 2.428 2.875 2.227 2.17 4.576 5 4.574 5.505 0 .332-.442.29-1.078-.102-1.39-.855-2.596-1.72-3.213-2.302-.37-.35-1.08-.994-1.584-1.435-2.076-1.82-4.443-6.02-3.775-6.824.03-.037.09-.047.164-.048zM65.1 108.2c1.446-.042 3.078.878 3.145 2.562.047 1.19.127 1.28 1.203 1.3 1.026.02 3.992.37 3.992.37l.02 3.333s-1.432-.01-3.082-.087c-2.81-.133-2.797-.137-3.154 1.1-.145.498-.345.743-.905 1.11-2.524 1.658-4.957-1.35-3.392-4.188.538-.976.57-1.31.198-1.893-.756-1.695.248-3.523 1.973-3.608zm.616 1.705c-.312 0-.65.134-.964.442-.416.412-.42 1.588-.005 2.272.396.654.386.83-.076 1.262-.814.76-.838 2.268-.043 2.834.725.518 1.494-.166 1.498-1.21.005-1.147.806-1.126.806-1.126l5.28.092.018-.86-3.83-.19c-.533-.003-1.09-.054-1.5-.332-.438-.302-.934-.824-.46-1.46.664-.892.073-1.73-.722-1.725zm-11.442 1.97l2.504 4.257 2.918.105.256 2.59 3.547 2.285-3.635 2.126-.18 2.607-2.753.347-2.558 3.202-2.45-3.198-2.702.015-.04-2.673-3.716-2.394 4.068-2.287-.043-3.054 2.886-.193 1.898-3.736zm88.455 1.936l.12 2.57-4.1.73.535-2.62 3.444-.68zm-26.266 2.59l5.523.17-.317 36.094-1.296-.01-.024-1.406-1.767.06-1.797-1.09-.322-33.816zm-62.19.916l-3.24 4.103 3.924 3.43 3.458-4.013-4.142-3.52zm63.846.547v1.662h2.316v-1.663h-2.316zm-63.774 1.42l2.282 1.672-1.738 2.296-2.2-1.906 1.656-2.062zm88.5.946l-.073 19.754c-7.59 5.956-9.955 16.44-9.954 16.44l-3.088-.183 7.845-34.8 5.268-1.21zm-41.143.437c-6.83 3.25-13.712 5.71-20.485 13.46 2.622 2.36 5.395 4.768 7.858 8.79 5.64-.84 11.914.168 18.758 2.86l-6.13-25.11zm16.417.444v1.72h2.316v-1.72h-2.316zm-76.767 2.48c.17.525.222 1.088.222 1.088 5.008-.42 3.73 5.392.54 5.59-.375.05.31 1.032 1.054 1.345 1.896.797 3.26.285 4.502-1.372.953-1.27 1.01-1.454 1.01-1.454l3.093 1.638s.09-.045-.457 1.373c-.994 2.58.456 5.745 1.574 3.44.597-1.23 2.35-1.93 3.564-1.422 1.42.594 1.91 3.128.915 4.724-.3.483-.31.584-.125 1.03.278.674.45 2.404.16 2.963-.38.724-.815.89-1.667.298-1.167-.81-1.82-1.145-3.848-1.71-3.563-.67-4.26-1.924-5.678-4.853-4.22 1.264-10.536-1.383-9.694-7.647.383-1.383.488-4.037-.217-4.58-1.38-1.063.136-2.6 2.212-2.846 1.706-.17 2.526 1.445 2.84 2.397zm59.706-1.815l5.488 22.99c-6.025-2.208-11.94-3.93-17.173-2.65-2.396-3.824-4.44-5.706-7.1-8.19 5.182-6.246 11.767-9.74 18.784-12.15zm-62.114 1.125c-.355-.003-.757.15-1.176.52 0 0 .37.312.573.733.323.673.326.673-.038 2.167-1.674 5.988 2.297 9.95 7.945 8.22 1.388-.43 1.334-.382 1.734 1.248.658 2.68 2.554 4.066 6.322 4.574.232.03.618.107.925.294 1.66 1.06.98-.348.526-.895-.324-.428-.915-.853-.915-.853s.506-.327.742-.452c1.063-.564 1.46-2.772.583-3.246-.8-.433-2.164.22-2.167 1.04-.007 1.498-1.896 1.657-3.55.412-2.124-1.6-.243-5.626-.23-5.62l-1.197-.526c.16.14-2.52 3.948-5.816 2.62-2.303-.927-3.926-3.594-2.857-4.354.777-.21 1.71.22 2.302-.236 1.176-.924.227-2.544-1.456-2.485-.353.013-1.155.17-1.155.17.087-.756.28-1.286.187-2.014-.1-.73-.604-1.308-1.28-1.315zm79.2 1.75v1.414l2.29.014v-1.416l-2.29-.014zm-.026 2.917v1.46h2.316v-1.46h-2.316zm0 3.144v1.493h2.316v-1.494h-2.316zm0 2.933v1.58h2.316v-1.58h-2.316zm0 2.94v1.475h2.316v-1.474h-2.316zm0 3v1.49h2.316v-1.49h-2.316zm-75.308 1.456l1.95 3.294 2.316.1.092 2.265 3.94 3.01-3.444 2.46-.25 2.442-2.73.087-2.21 3.728-2.722-3.27-2.187-.353-.25-2.977-3.366-2.52 3.165-2.527.255-2.644 2.576.226 2.866-3.322zm128.18 1.574c.21.005.44.062.69.188.817.412 1.075.46 3.2.567 2.467.125 3.34.345 4.562 1.16.737.493.78.49 1.57-.033 3.462-2.294 7.417-.208 7.704 4.064.076 1.124.188 1.576.63 2.52.304.652.616 1.168.435 1.584-.555 1.272-3.223 1.354-4.676-.534-.26-.285-.524-.408-.886-.41-.72.27-2.567-1.185-2.547-1.247-.172 1.01-.258 1.814-.438 3.283l-3.23-.048s-.073-.592-.223-2.658c-.172-2.375-.762-3.07-1.52-1.787-1.308 2.21-4.78 1.238-4.98-1.392-.068-.892-.118-1.007-.606-1.382-1.636-1.256-1.16-3.905.316-3.876zm-52.872.13v1.32h2.316v-1.32h-2.316zm53.244 1.41c-.642.047-.276 1.186.785 1.788.6.342.603.34.523 1.387-.143 1.897 1.687 2.828 2.5 1.27.14-.27.2-.61.145-.842-.34-1.38 2.644-1.003 3.36.424.166.328.35 1.2.44 2.08.084.835.105 1.802.105 1.802h.953s-.01-.577.044-1.128c.236-2.358 1.28-3.85 2.687-3.844.602.003.623.11.203.887-.712 1.314-.026 2.267 1.632 2.277 1.052.008 1.05.01 1.44.756.43.82.755 1.082 1.155.93.283-.107.288.052-.082-2.75-.55-4.173-2.98-5.298-6.332-2.933-.95.67-1.157.65-2-.163-1.26-1.22-2.06-1.498-4.525-1.59-1.176-.044-2.334-.158-2.572-.255-.19-.076-.343-.103-.462-.096zm-79.58 1.196c-.55.01-1.186.125-1.738.172.613 3.226.898 6.45 1.18 9.677 2.823-.49 6.48-.033 11.307 2.215 2.96 1.38 6.577 3.74 10.368 6.4 4.105 2.88 8.914 4.583 13.012 5.472 4.99 1.083 8.996.99 8.887.755-.222.037-1.8-7.912-1.593-9.61-6.9-.635-13.565-3.19-18.66-6.652-6.742-4.585-14.537-8.57-22.764-8.43zm26.336.27v1.338h2.316v-1.34h-2.316zm-76.01.265l-3.665 3.82 3.987 3.774 3.386-3.848-3.71-3.745zm-.102 1.734l2.075 1.99-1.676 2.122-2.335-2.013 1.936-2.1zm51.673.313c.49.005.967.348 2.582 1.253 1.354.935 2.437 1.518 2.042.053.31-.422 1.81.95 3.578 1.815 2.132 1.708 2.14 1.297 2.417.448.285-.62.68-.2 2.383 1.377 2.238 2.073 2.038 2.076 2.485 1.56.51-.968.68-.958 2.504 1.137 1.896 2.115 2.297 2.567 2.702 1.662.624-.47.946-.014 3.52 2.402 1.267 1.263 1.563 1.066 1.802.217.244-.874.314-.677 2.45 1.018 2.476 1.98 2.72 2.126 2.823 1.44.162-1.09.93-.703 3.476 1.126 1.544 1.104 2.127 1.41 2.456 1.137.336-.593-.837-1.735 1.65-.658l.686 3.61-.862-.245c-.53-.15-1.69-.543-1.252.583.252.65-.374.573-2.307-.578-2.77-1.648-3.28-2.027-3.486-1.69-.365 1.235-.318 1.314-2.186-.148-2.173-1.648-2.61-2.104-2.914-1.54-.04 1.243-.646.99-2.673-.758-1.713-1.498-2.078-2.28-2.845-1.135-.21.4-.423.3-.706.092-.996-.736-3-2.85-3.566-3.458-.445-.485-.7-.33-1.064.072-.342.374-.368.258-1.474-.757-2.642-2.423-3.132-3.028-3.5-2.697-.302.568-.015 1.34-2.043-.26-2.545-1.833-3.65-2.646-3.478-1.445-.437.538-.13.644-2.678-.766-2.42-1.34-2.728-1.74-3.077-1.28-.238.727-1.05.466-1.05.423l-.49-3.674.87.01s.84-.342 1.224-.343zm-19.42.308c-.195.568-1.53 3.846-1.547 12.188.16.197 3.31-3.013 3.462-6.005.146-2.834-1.91-6.19-1.916-6.183zm43.855.232v1.52h2.316v-1.52h-2.315zm-43.69 1.206c2.943 4.668-.302 9.07-1.11 9.38 0-3.508.516-6.806 1.11-9.38zm77.27 3.92c-4.84 3.052-4.053 11.306-1.678 13.42.175 0 1.7-8.916 1.68-13.42zm-.662 1.016l-1.303 10.623c-1.692-1.874-1.99-7.462 1.303-10.624zm30.526 1.793l2.556 3.217 2.273.168.505 2.32 3.317 2.703-3.322 2.255-.294 2.57-2.47.25-2.447 3.85-2.395-3.772-2.292-.245-.072-2.476-3.602-2.658 3.438-2.066.067-2.798 2.692.01 2.044-3.327zm-90.562 1.006c-1.625 7.725-5.505 13.01-10.98 16.565l.03.78-9.223 3.698c-2.02 9.425-5.653 18.618-13.268 27.243l2.124 4.314-10.3 3.54 14.745 25.287c1.016 0-7.145 3.862-16.994 2.855 6.234 15.263 7.52 31.064 4.07 44.902l48.268-.202L62.58 214.02l-.602-1.18c-.513-.946 19.61 2.828 15.338 21.49-.06.434.09.488.332.31 3.912-3.36 29.892-12.678 50.638-.376l6.164-2.552c-2.933 10.27-6.268 17.334-11.89 23.524l.953 14.616c9.948-8.146 20.742-23.102 22.19-42.976 4.48-2.184 8.377-4.662 12.55-6.997l.555.177 2.7-1.623c-8.663-9.48-26.354-18.538-37.69-20.92l.668 3.213c-6.255-1.68-10.934-2.045-15.8-2.567l-.747-34.01-6.3-3.712-.197 37.515c-4.71.06-15.54 1.917-15.54 1.917l.486-3.207-4.96 1.02-.088-3.124 5.605-1.61 8.13-34.46-4.08-1.07zm.68.765l2.59.525-8.047 33.787s-4.513 1.247-4.79 1.074c-.36-6.335-.496-19.248-.496-19.248 7.94-6.62 9.185-11.307 10.743-16.137zm-55.232 2.48c1.213-.016 2.518.867 2.6 1.66.21.49.382.702.71.748 2.03.28 2.094.817 2.15 1.988-.285 2.245 1.218.36 1.644-1.867.044-.232.02-1.937.02-1.937l2.484-.023s.084 1.778.12 2.06c.22 1.725.954 3.123 1.464 2.207 1.748-3.14 5.753-1.54 5.12 1.488-.156.716-.147.76.342 1.305.795.888 1.09 1.826.828 2.644-.256.8-.815.92-2.02.438-.563-.227-1.25-.307-3.08-.36-2.592-.077-2.753-.126-3.762-1.104l-.636-.615-1.098.646c-1.828 1.075-3.49 1.116-5.423.126-1.26-.645-1.99-2.19-2.187-4.6-.038-1.28-.397-2.207-1.19-2.514-.428-.402.05-1.204.78-1.936.337-.24.728-.346 1.133-.35zm144.9.366l-3.414 4.258 4.06 3.63 3.78-4.443-4.425-3.444zm-79.088.613l4.73 2.706.605 33.526-5.345-.15.01-36.083zm-65.683.467c-.36.035-.133.612.13 1.493.237.788.297 1.278.222 1.825-.502 3.674 3.71 5.542 6.752 2.995.808-.926.94-.866 1.617.126.834 1.044 2.048 1.384 4.594 1.23 1.163-.068 1.934.552 2.44.14.363-.264.01-.964-.695-1.37-.43-.25-.446-.29-.36-1.152.216-2.175-1.578-2.75-2.852-.915-1.052 1.517-2.638.515-3.15-1.99-.303-1.925-.545-1.895-.774-.216-.25 2.042-2.94 4.256-4.012 3.25-.294-.295-.29-.22.01-1.246.388-1.314.077-1.806-1.358-2.147-.235-.056-.506-.252-.598-.433-.76-1.177-.728-1.59-1.967-1.59zm145.114.78l2.166 1.87-1.888 2.228-2.307-1.772 2.03-2.326zm-77.95 1.194v1.586h2.023v-1.586h-2.023zm0 3.194v1.666h2.023v-1.666h-2.023zm12.185 1.916c2.267 8.418 4.552 16.83 6.828 25.244 2.157-.86 14.612-6.39 20.486-13.465-.225.02-5.34-4.984-7.133-8.23-5.874.968-12.622-.263-20.182-3.55zm-12.185 1.002v1.556h2.023v-1.556h-2.023zm13.46.423c5.354 1.596 12.212 3.798 18.526 2.677 1.63 2.926 3.985 5.334 6.646 7.556-4.778 5.198-11.69 9.164-18.84 12.218l-6.332-22.45zm50.817.606c.27.002.542.104.804.338.85.753 1.5 1.013 3.232 1.295 2.79.453 4.915 2.194 5.52 4.517.253.975.393 1.028 1.78.68 5.263-1.325 9.32 3.037 8.067 8.86-.44 2.032-.572 2.276.037 3.082 1.338 1.44 1.63 1.46.164 2.73-1.332 1.196-3.978.617-4.54-1.325-.537-1.065-.53-1.146-1.41-1.286-3.435-.55-3.293-5.298-.06-5.848.272-.046.47.01.607-.053.92-.416-1-2.588-2.586-2.255-1.944.41-2.912 1.656-3.678 3.612l-3.063-1.748c.768-1.59 1.332-3.638.664-4.903-.54-1.068-1.222-1.11-1.43-.087-.49 2.404-3.48 3.123-5.442 1.165-1.097-1.094-1.225-2.268-.42-3.853.522-1.025.535-1.1.313-1.53-.77-1.507.275-3.403 1.442-3.396zm-64.277 1.955v1.624l2.027-.01-.004-1.613h-2.023zm64.652.137c-.622.004-.618.61-.043 1.348.51.52.61.757-.098 1.204-.886.82-1.08 2.058-.467 3 .92 1.414 3.04.626 2.798-1.04-.17-1.17.748-1.693 2.21-1.253 2.126.64 3.14 3.015 2.303 5.408-.158.45-.472 1.503-.472 1.503l.63.38s.743-1.188 1.034-1.55c2.414-2.967 8.12-1.464 7.485 2.248-.098 1.166-.093 1.324-1.363.958-.843-.435-1.657.468-1.632 1.595.04 1.014.923 1.828 2.143 1.665.97-.182 1.212-.148 1.143 1.155.1.907.438 1.508 1.03 1.816 1.44.595 2.183-.226 1.03-1.43-.697-.73-.655-1.86-.216-2.92.524-1.266.25-4.05-.555-5.62-1.16-2.262-4.402-3.21-7.117-2.08-1.24.664-1.377.817-1.498-.347-.68-2.886-2.852-5.066-5.557-5.26-1.04-.073-2.123-.64-2.788-.783zm-64.652 2.946v1.498h2.027v-1.497h-2.027zm0 2.93v1.65h2.023v-1.65h-2.023zm0 3.22v1.65s1.106-.03 2.023 0v-1.65h-2.023zm66.053 2.65l2.216 3.273 2.45.164.29 2.644 3.717 2.316-3.222 2.018-.024 2.558-3.07.26-2.717 3.603-2.312-3.18-2.31.01-.545-2.836-4.093-2.076 4.2-2.394-.117-2.98 2.856-.02 2.683-3.362zm-66.053.39v1.693h2.023v-1.694h-2.023zm0 3.105v1.676h2.023v-1.676h-2.023zm64.81 1.247l-3.173 4.224 4.276 3.534 3.4-4.27-4.502-3.49zm-64.81 1.69v1.835h2.023v-1.835h-2.023zm65.138.222l2.206 1.705-1.575 1.998-2.19-1.67 1.558-2.033zm-65.138 3.17v1.535h2.023v-1.536h-2.023zm-60.196.196c-3.9.018-7.587 6.333-8.47 9.323-1.046 3.83-1.2 10.76-.208 10.956 3.495-2.515 5.15-6.777 7.777-9.97.407 3.69.343 10.81.343 10.81s-1.554.817-2.392 2.108c-.604 1.074-.798 2.357-.282 3.553-1.943-.63-5.463.082-5.663 3.67.125 5.052 5.642 4.34 5.662 4.27-.117-.03-1.086 5.375 3.81 5.948 1.757.207 4.847-1.074 3.93-5.99 3.09.51 5.755-1.19 5.788-4.165.04-2.037-1.51-3.79-4.175-3.8-.557-.002-1.73.25-1.73.25.04-.293 1.07-3.455-2.518-5.75l-.563-14.625s1.238 1.35 1.792 1.86c2.383 2.192 3.938 3.298 6.688 4.747 2.677 1.41 2.347 1.063 1.883-1.618-1.265-4.027-3.908-7.07-9.5-10.875-.72-.488-1.45-.705-2.173-.702zm.386.314l.784 20.685h-1.16l-.997-20.666 1.373-.02zm114.75.683c.102-.004.207 0 .316.01 2.523.212 3.172 3.033 2.037 4.286-.448.495-.603.602-.37.905 1.083 1.372.48 3.54-.593 3.873-3.404 1.06-3.92-.804-3.91-2.996l-5.26-.197.034-3.062 5.8.115c-.438-1.39.4-2.874 1.945-2.933zm-117.188.034h.062c.545.047-.016 1.503-1.536 3.723-1.027 1.5-2.457 4.147-2.885 5.216-.936 2.338-1.566 6.53-.938 5.76.565-1.752.62-2.482 1.107-3.742.64-1.642 3.63-7.042 4.224-7.574.507-.455.638-.175.626 1.344-.026 3.42-1.647 7.02-5.515 11.235-.645.702-1.503 1.47-1.564 1.47-.373-.003-.363-.777-.356-2.404.025-6.462 2.424-12.233 6.116-14.716.288-.196.507-.297.66-.31zm3.915.298c1.696.497 4.74 3.22 5.996 4.618 1.453 1.568 3.4 5.91 3.058 6.578-.112.294-.358.247-1.208-.23-5.397-3.038-9.262-6.783-8.25-7.994.284-.34 1.443.36 2.996 1.8 1.056.938 2.137 1.887 3.102 2.838 1.517 1.493 1.858 1.713.944.053-.82-1.49-3.148-3.992-5.962-6.116-1.144-.865-1.404-1.56-.675-1.548zm113.604.872c-.07 0-.137.012-.187.033-1.062.447-.63 1.824-.732 2.88l-5.836-.202-.033.81 5.477.298c.096.826-.334 2.608.37 2.91 1.533.637 2.37-1.34 1.07-2.524-.464-.413-.966-.595.322-1.176.847-.726.98-2.14.254-2.77-.2-.174-.487-.263-.703-.26zm-73.844.24l-.294 2.163-3.385.853-.087-2.312 3.766-.703zm39.928.766c12.498 3.367 26.393 11.01 35.415 19.644l-1.807 1.185c-9.375-8.66-21.742-15.233-33.104-18.498l-.506-2.332zm-21.536.333c20.58-.057 39.345 7.944 54.485 20.866l-2.476 1.56c-13.81-11.416-29.11-19.03-49.698-19.938-13.457-.593-28.812 2.857-43.944 11.183l-1.127-2.047c14.696-8.014 29.126-11.588 42.758-11.625zm-1.618 3.1l8.096.237-.5 7.518-7.36-.24-.236-7.514zm-8.707.536l1.142 7.25-7.046 1.316-2-7.272 7.903-1.295zm25.625.957l8.042 2.144-2.653 7.393-7.06-2.013 1.67-7.523zm-12.883.106c-1.276 0-2.31 1.034-2.312 2.312 0 1.276 1.035 2.312 2.312 2.312s2.312-1.035 2.312-2.312-1.035-2.312-2.312-2.312zm0 .8c.852 0 1.542.675 1.54 1.512 0 .837-.688 1.517-1.54 1.517s-1.54-.68-1.54-1.517c0-.837.69-1.513 1.54-1.513zm-15.97.014c-1.275 0-2.31 1.035-2.31 2.312s1.034 2.31 2.31 2.31c1.278 0 2.313-1.034 2.313-2.31s-1.035-2.313-2.312-2.313zm0 .8c.853 0 1.542.675 1.542 1.512s-.69 1.517-1.54 1.516c-.852 0-1.542-.68-1.542-1.517s.69-1.513 1.54-1.513zm31.838.928c-1.276 0-2.31 1.035-2.312 2.312 0 1.277 1.036 2.312 2.313 2.312 1.277 0 2.312-1.035 2.312-2.313 0-1.276-1.035-2.312-2.312-2.312zm-44.815.27l2.384 7.075-6.823 2.764-2.56-6.987 6.998-2.85zm44.815.53c.852 0 1.542.675 1.54 1.512 0 .838-.688 1.518-1.54 1.518-.85 0-1.54-.68-1.54-1.518 0-.837.69-1.512 1.54-1.512zm13.37 1.696l7.236 3.824-3.742 6.762-6.747-3.516 3.252-7.07zm-60.602.612c-1.276 0-2.31 1.035-2.31 2.312s1.033 2.312 2.31 2.312c1.277 0 2.313-1.035 2.313-2.312s-1.036-2.312-2.312-2.312zm27.344.222l.337 7.142-6.41.453-1.164-7.1 7.238-.496zm7.69.376l7.307 1.01-1.72 6.878-6.61-1.064 1.025-6.824zm-35.033.202c.852 0 1.542.675 1.542 1.512s-.69 1.518-1.54 1.517c-.853 0-1.542-.68-1.542-1.516s.69-1.512 1.54-1.512zm23.934.925c-1.276 0-2.312 1.034-2.312 2.31 0 1.278 1.035 2.313 2.312 2.313s2.312-1.035 2.312-2.312-1.034-2.31-2.312-2.31zm-11.673.288l1.894 6.95-7.046 2.018-2.162-6.685 7.315-2.283zm25.578.11c-1.276 0-2.312 1.035-2.312 2.313 0 1.276 1.035 2.312 2.312 2.312s2.312-1.035 2.312-2.312c0-1.278-1.035-2.312-2.312-2.312zm-13.904.4c.852 0 1.542.676 1.542 1.512 0 .838-.69 1.518-1.542 1.518-.85 0-1.54-.68-1.54-1.518 0-.836.69-1.512 1.54-1.512zm13.904.4c.852 0 1.54.676 1.54 1.513s-.688 1.517-1.54 1.517c-.85 0-1.54-.68-1.54-1.517s.69-1.513 1.54-1.513zm24.724.014c-1.277 0-2.312 1.034-2.312 2.31 0 1.278 1.034 2.313 2.312 2.313 1.276 0 2.312-1.034 2.312-2.312 0-1.275-1.036-2.31-2.312-2.31zm-12.507.674l7.06 2.412-2.817 6.598-6.756-2.57 2.513-6.44zm12.507.125c.85 0 1.54.674 1.54 1.51s-.69 1.52-1.54 1.52c-.852 0-1.54-.682-1.54-1.52s.69-1.51 1.54-1.51zm-53.108.244c-1.276 0-2.312 1.035-2.312 2.312s1.035 2.312 2.312 2.312 2.312-1.034 2.312-2.312c0-1.276-1.035-2.312-2.312-2.312zm0 .8c.852 0 1.54.675 1.54 1.512s-.688 1.518-1.54 1.518-1.54-.68-1.54-1.518.69-1.512 1.54-1.512zm42.773 1.35c-1.276 0-2.312 1.033-2.312 2.31 0 1.277 1.035 2.313 2.312 2.313s2.312-1.035 2.312-2.312c0-1.278-1.036-2.312-2.313-2.312zm0 .798c.852 0 1.54.676 1.54 1.513s-.688 1.517-1.54 1.517-1.54-.68-1.54-1.517.69-1.513 1.54-1.513zm-82.696.804c1.85.078 3.234 1.737 3.318 3.463.063 1.31-1.61 3.03-1.61 3.03l-1.948-1.805-1.87 1.724c-.315.104-1.77-2.366-1.325-3.645.577-1.664 1.768-2.84 3.436-2.77zm104.965 0l5.592 4.575s-2.454 1.492-2.91 1.758c.057-.198.083-.41.083-.626 0-1.276-1.035-2.312-2.312-2.312s-2.312 1.035-2.312 2.312c0 1.095.765 2.015 1.786 2.254-.574.33-1.338.757-1.338.757l-2.952-2.476 4.363-6.24zm-8.85 12.227l-2.476 1.016c-15.226-10-36.053-15.474-59.86-5.404l-.82-1.974c17.676-7.36 39.974-9.652 63.154 6.36zm-1.354-9.992l5.99 3.676-3.803 5.84-5.852-3.74 3.666-5.775zm-1.81 11.327l-2.514.944c-18.584-11.94-38.392-11.303-56.09-4.145l-.272-1.677c20.84-9.023 41.754-6.15 58.876 4.88zm12.468-9.366c.85 0 1.54.676 1.54 1.513s-.69 1.518-1.54 1.518c-.852 0-1.54-.68-1.54-1.517s.688-1.512 1.54-1.512zm-108.13 2.74l-2.065 2.084 1.887 2.12s-.6.507-1.033.742c-2.473 1.347-5.178-.78-5.05-3.075.19-3.345 4.22-4.938 6.262-1.87zm98.335-1.598c-1.277 0-2.312 1.035-2.312 2.312s1.035 2.312 2.313 2.312c1.276 0 2.312-1.035 2.312-2.312s-1.036-2.312-2.312-2.312zm-89.97.094c1.84.014 3.27 1.427 3.445 3.05.14 1.297-.533 2.54-1.985 3.42-1.97 1.196-4.26-.738-4.22-.857l1.66-1.644-1.997-2.044c-.058-.038 1.318-1.94 3.097-1.926zm-5.753.397l3.404 3.395-3.602 3.356-3.338-3.352 3.536-3.4zm89.79 9.035l-1.912.876-2.605-1.57-.77 1.48 1.448.92-1.506.564c-17.363-9.755-36.983-6.93-50.025-.455 0 0 .112-1.004.12-1.004l1.42-.725-.53-1.797-.762.222-.058-1.99c18.622-8.384 39.752-6.464 55.18 3.478zm5.933-8.727c.85 0 1.54.677 1.54 1.514s-.69 1.517-1.54 1.517c-.852 0-1.54-.68-1.54-1.516s.688-1.513 1.54-1.513zm-95.795 1.215l-1.815 1.806 1.806 1.928 1.762-1.864-1.754-1.87zm56.835.4l-2.38.105.126 1.94 2.32-.058-.067-1.988zm1.623.01l.043 1.94 2.157-.01-.01-1.917-2.19-.014zm3.828.033l-.105 1.93 2.142.098.154-1.922-2.192-.106zm-9.246.245l-2.437.266.27 1.95 2.308-.27-.14-1.947zm13.24.03l-.175 1.993 2.2.25.3-1.906-2.326-.337zm-66.27.01l1.06 1.126-1.055 1.05-1.122-1.1 1.118-1.078zm48.923.59l-2.35.372.25 2.008 2.293-.452-.192-1.926zm21.32 0l-.39 1.86 2.186.524.356-1.897-2.152-.486zm-25.172.816l-1.975.523.43 1.955 2.084-.51-.54-1.97zm28.923.075l-.413 1.89 2.23.605.447-1.81-2.263-.685zm-32.183.94l-2.065.73.534 1.812 2.1-.708-.57-1.836zm36.023.206l-.688 1.816 1.93.775.854-1.645-2.096-.944zm-39.432 1.066l-1.96.805.81 1.797 1.858-.848-.708-1.754zm-40.4.055l1.985 1.982 2.357-2.127c2.057 1.818 2.024 6.072-1.617 6.783-3.18.62-6.088-4.14-2.724-6.637zm83.37.384l-.755 1.666 2.134.94.736-1.605-2.114-1zm-60.85 10.69l26.92 45.756-4.258-.082-26.054-44.214 3.39-1.46zm-4.42 1.744l1.488 2.312c-2.915-2.32-7.2-.368-7.02 2.557.144 1.306 1.248 2.1 1.253.843-.134-1.314 1.73-2.46 3.08-2.398 2.496.032 4.02 3.238 2.298 4.835-1.132 1.043-2.664.996-2.147-.434.082-.493.042-.673-.19-.886-.717-.653-2.037.197-1.716 1.132.212.613.273.765-.462 1.27-2.854 2.005-.865 5.955 2.59 4.155.708-.254.994-.292 1.315-.168 1.438.553 2.418-.695 1.055-1.344-.792-.377-.812-1.02-.048-1.53 1.632-1.09 4.174.612 4.165 2.792-.007 1.542-2.042 2.683-3.993 2.234-1.16-.267-1.298.52-.235 1.333 2.06 1.58 5.142.27 6.062-2.57.29-.895.248-1.082.248-1.082l2.746 4.536s-.852-.403-1.366-.56c-2.586-.79-5.486.888-5.495 3.178-.004 1.08.635 1.497.992.65.832-1.97 2.643-2.738 4.502-1.907 1.72.77 2.507 2.51 1.835 4.064-.704 1.628-3.064 2.107-2.798.57.126-.733-.32-1.182-1.11-1.108-.297.027-.68.894-.576 1.31.096.39.027.484-.982 1.27-2.4 1.872-.555 4.927 2.44 4.04.504-.147.69-.134 1.143.083 1.083.522 2.22.197 2.225-.636 0-.573-.257-.793-.935-.795-1.026-.004-.805-1.166.332-1.734 2.85-1.423 5.762 2.174 4.026 4.976-.746 1.205-1.217 1.33-3.882 1.036-.43-.048-.623.247-.367.597.79 1.116 3.134 1.47 4.5.852 1.475-.667 2.372-2.352 2.477-4.148l3.012 5.26c-2.343-2.45-6.385-1.513-7.034 1.995-.003.888.808 1.35 1.09.62 1.217-3.166 5.85-2.195 5.836 1.223-.002.55-.11.862-.463 1.344-.85 1.64-3.02 2.045-2.628.573.175-.455-.173-.95-.77-1.093-.59-.142-.965.352-.95 1.247.01.67.016.875.016.875-1.083.456-1.774 1.35-2.016 2.674l-21.086.048c2.507-14.615 1.918-27.813-2.875-40.294-.413-1.082-1.01-2.655-1.01-2.655l3.723.1c.898.777 4.29.475 5.616-.73l2.088-.515zm3.58 5.74l2.178 3.91c-.9-.516-1.82-.858-3.222-.977.732-1.084.79-2.058 1.044-2.933zm-5.724 4.156c.793 0 1.435.642 1.435 1.436 0 .793-.643 1.435-1.436 1.435-.794 0-1.44-.642-1.44-1.435 0-.794.646-1.436 1.44-1.436zm15.014 11.687l2.098 3.734c-1.02-.435-1.882-.86-3.477-.9.58-.68 1.082-1.816 1.378-2.833zm-6.047 4c.753 0 1.363.61 1.363 1.362s-.61 1.358-1.362 1.358c-.752 0-1.357-.606-1.357-1.358s.605-1.362 1.358-1.362zm15.197 11.636l3.097 5.493c-1.218-.698-2.53-1.582-4.174-1.412.782-1.673 1.21-2.585 1.077-4.082zm-4.12 6.853l-3.32.01c.663-2.903 3.348-2.15 3.32-.01zm3.143-1.4c1.13.057 2.104.443 2.714 1.428l-4.18.01s.03-1.444 1.466-1.438z"/></g></svg>