<svg version="1.2" baseProfile="tiny" xmlns="http://www.w3.org/2000/svg" xmlns:xlink="http://www.w3.org/1999/xlink" width="225" height="314" viewBox="0 0 225 314" preserveAspectRatio="xMinYMin meet"><defs><style type="text/css">use { fill: black; } .maxi-card { display: none; } .mini-card { display: block; } @media (min-width: 75px) { .maxi-card { display: block; } .mini-card { display: none; } }</style><path id="suit" d="M20.976 57.14c2.88-5.774 4.976-11.7 5.348-18.036.342-2.33-1.074-2.37-1.288-.73C20.96 53.97-.727 49.745.02 35.08.622 23.182 12.44 20.624 18.6 24.513c2.435 1.434 2.296.575.968-.91C10.416 13.39 15.958.24 28.33 0c13.38.793 16.854 14.87 8.647 23.147-1.02.994-3.283 4.19.123 1.956 8.287-5.888 19.787.443 19.553 9.52-.434 16.74-20.84 17.987-25.203 4.007-.42-1.55-1.63-2.328-1.295.305.604 4.767 1.855 11.953 5.438 18.205H20.976z"/><path id="numeral" d="M0 0v2.87h2.937v24.98H0v3.092h8.532V27.85h-2.26v-7.086l3.426-4.75 5.14 11.835h-3.28v3.092h9.305V27.85h-2.226l-6.814-15.215 6.474-9.81 2.4.046V0h-9.24v2.87h2.663L6.27 14.917V2.87H8.6V0z"/></defs><rect width="100%" height="100%" fill="#fefefe"/><g class="mini-card"><use xlink:href="#numeral" transform="matrix(3.5 0 0 3.5 78.4 33.95)"/><use xlink:href="#suit" transform="matrix(2 0 0 2 55.5 170)"/></g><g class="maxi-card"><use xlink:href="#numeral" transform="translate(7 12)"/><use xlink:href="#suit" transform="matrix(.4 0 0 .4 6 51)"/><use xlink:href="#numeral" transform="matrix(-1 0 0 -1 218 302)"/><use xlink:href="#suit" transform="matrix(-.4 0 0 -.4 218 263)"/><use xlink:href="#suit" transform="matrix(.8 0 0 .8 38 40)"/><use xlink:href="#suit" transform="matrix(-.8 0 0 -.8 186 274)"/><path fill="#E2CF00" d="M161.2 29.84l-80.525.393 10.228 19.372c20.928-1.883 39.27-.21 58.375.415L161.2 29.84zm-54.996 68.112c-.084.113-3.35.957-3.02 1.697 8.528 18.253 12.336 33.107 15.9 51.868 1.798-1.46 4.71-1.402 4.71-1.402-1.436-6.967 7.348-7.834 7.406-.547 1.686.392 3.42.396 4.94 2.1.687-20.503 8.043-41.716 17.545-56.413-10.827 4.285-26.717 14.966-26.717 14.966s-13.217-5.46-20.764-12.27zm65.82 2.183c-14.41 13.68-20.053 51.646-19.018 52.17-18.578-.618-24.21 19.855-8.105 30.897-.636 2.14-2.208 3.883-3.427 5.775 1.662.948 3.476 1.15 5.285 1.352 1.375 1.628 2.727 3.51 4.22 3.663 1.62-1.02 2.772-2.514 4.12-3.805 1.685-.43 3.354-.902 4.95-1.63-1.415-1.977-3.09-3.97-3.134-5.82 14-9.866 12.078-23.284-.543-30.153 3.76-22.598 9.245-37.03 15.61-47.297l.044-5.153zM72.77 117.592c-1.83.894-2.83 2.78-4.158 4.26-1.824.08-3.58.703-5.318 1.478 0 0 4.176 5.766 3.918 6.076-13.54 8.867-13.432 21.826-.43 30.363 2.203 18.44-13.476 47.63-14.267 46.78l-.028 6.034c10.91-12.065 17.084-33.983 18.166-51.988 22.28-1.48 23.07-23.002 7.73-31.096-1.18-1.082 3.856-6.082 3.856-6.082-1.278-1.26-3.417-1.4-5.29-1.557-1.18-1.408-2.21-2.815-4.18-4.268zm94.24 14.896c3.15 7.004 14.66-1.53 16.655 2.195 1.62 2.114 5.15 2.332 4.96-1.23-.663-3.525-2.985-4.31-12.202-2.77-3.496.58-4.928.927-4.908-.665-2.418-2.92-4.493 1.05-4.506 2.47zm10.688 10.222c-2.584-.004-3.023 10.096-2.986 13.127-7.48 11.812 15.346 10.467 5.475-2.396.345-1.682-1.26-4.42-1.215-5.635-.81-.103-1.165-4.66-1.274-5.095zm-131.594 6.07c-4.048.103-8.498 3.816-2.01 9.16.436.148-.218 1.275.006 3.01 1.83 3.944 1.336 9.788 2.696 8.892 1.574-1.04 2.89-5.397 2.55-11.485-.02-.398-.552-.822-.452-1.255 3.642-6.01.562-8.405-2.79-8.32zm41.422 11.314c-1.04 19.726-5.873 39.078-16.828 55.86 9.43-4.394 18.582-10.06 27.438-14.913l20.693 12.807c1.196-.52 2.025-.775 2.82-1.562-9.536-13.943-12.487-34.012-16.642-52.168-1.582 1.12-4.555 1.684-4.555 1.684-.213 6.3-6.818 8.34-8.168.126l-4.76-1.832zm-49.947 15.39c-2.208.14-3.868 5.604 2.384 6.412 4.414.623 10.064-1.55 12.867-.543 3.26 5.196 6.185-2.453 1.83-3.7-4.68-1.34-14.208 2.157-15.26-.815-.542-1.016-1.202-1.393-1.82-1.354zm37.534 85.436L62.63 282.965l79.818-.48-10.435-21.026c.177-.234-34.86 4.164-56.9-.54z"/><path fill="#D40000" d="M91.794 51.648l1.297 3.094c17.147-2.073 35.084-4.22 53.043.347 0 0 1.316-2.86 1.297-3.066-16.734-4.26-54.15-3.155-55.636-.376zm17.35 43.435l16.315 10.553s7.81-5.52 11.144-7.854l-2.022-2.97c-6.898 15.21-19.027 3.18-23.576-3.977-.002 0-1.237 2.772-1.862 4.248zm43.82 5.106c1.132-.026 1.757.41 2.325 1.56.642 1.3.886.98.474-.642-.65-2.556 2.062-4.218 4.62-2.513 1.847 1.232 1.765 4.214-.253 4.767-1.628.444-1.67.873-.24.803 2.57-.125 3.253 3.3 1.425 4.976-2.1 1.927-4.778.562-5.022-1.853-.11-.684-.256-.674-.482-.287-.646 1.115-.706 2.564-.58 3.875l-3.794-2.354c1.353-.667 2.175-1.07 3.15-2.085.127-.134.223-.23.223-.287-.003-.104-.423.035-1.195.114-2.293.24-4.058-1.245-3.586-3.403.396-1.835 1.345-2.636 2.935-2.67zm-16.727 59.525c4.125-4.72 9.25-7.75 16.373-7.328.903-19.776 7.766-37.364 18.75-53.21l-12.086-7.265-4.85 2.926c-11.66 16.538-18.823 37.52-18.187 64.877zM45.653 113.5s-8.182 6.126-11.982 9.085l.187 54.537 1.057.36c.075.116-.093-.81.393-1.23.396-.347 1.024-.738 1.396-.874 1.052-.383 1.1-1.084.117-1.688-.762-.472-1.052-1.197-.964-2.406.062-.852.024-1.037-.33-1.617-.44-.72-.48-1.63-.104-2.572.175-.438.158-.557-.152-1.147-.396-.754-.443-1.564-.148-2.44.112-.333.194-1.064.184-1.628-.04-2.174 1.755-3.613 5.066-4.067 1.295-.18 1.335-.23.74-1.316-3.354-6.127 4.182-9.318 4.745-8.338l-.204-34.66zm103.212 3.04c3.062-.045 5.58 2.398 5.625 5.46.045 3.06-2.402 5.58-5.463 5.624-3.062.043-5.58-2.402-5.625-5.465-.044-3.06 2.403-5.575 5.463-5.62zm.053.99c-2.45.036-4.406 2.05-4.37 4.5s2.048 4.413 4.5 4.378c2.45-.037 4.41-2.055 4.376-4.506-.037-2.452-2.055-4.407-4.506-4.37zm.115 1.41c1.662-.026 3.03 1.3 3.055 2.962.025 1.662-1.305 3.033-2.967 3.057-1.663.022-3.026-1.308-3.052-2.97-.023-1.663 1.303-3.028 2.965-3.05zm-110.04 2.275c.225-.004.465.03.708.107 1.383.438 1.865 1.654 1.117 2.81-.588.903-.52.98.51.6.808-.3 1.22-.205 1.858.426 1.91 1.893-.936 5.076-2.81 3.148-.926-.955-1.015-.675-.37.967.207.53.552 1.356.552 1.356l-2.745-.042s.427-1.094.623-1.608c.476-1.244.49-1.427-.5-.644-2.232 1.765-4.767-1.256-2.71-3.23.418-.4 1.09-.42 2.02-.053.68.267.763.08.253-.56-1.11-1.392-.084-3.25 1.495-3.278zm56.892 4.888c-1.116 7.31-.143 17.563-.166 23.045 2.977.567 3.01 2.596 3.466 5.114 1.446-.504 4.61 1.634 5.043 1.445.328-7.415-3.528-28.94-8.345-29.604zm49.384 7.323c4.227.34 3.415 3.603 2.157 4.943-.598.687-.485.995.168.6 1.785-1.076 3.2-.3 3.775 1.56.983 3.17-3.188 5.905-5.047 3.058-.632-.965-1.017-.748-.86.263.093.976 1.044 2.99 1.044 2.99l-4.145-.373s1.266-2.104 1.487-2.674c.46-1.178.217-1.49-.67-.54-2.59 2.37-6.185-.667-4.51-3.812.825-1.55 2.347-2.053 3.99-.817 1.107.725 1.347.41.355-.467-1.845-1.64-.234-4.928 2.254-4.73zM39.193 136.02c.048-.005.094-.005.142-.005.355.008.73.104 1.1.313 1.03.58 1.312 1.723.666 2.717-.37.572-.264.933.17.56.576-.5 1.853-.168 2.352.61 1.278 2.002-1.22 4.62-2.813 2.955-.703-.735-.974-.766-.893-.283.23.908.827 2.455.827 2.455l-2.872.05s.62-1.627.758-2.45c.105-.655-.155-.56-.84.212-.664.75-1.27.828-2.116.266-2.093-1.387-.417-4.944 1.766-3.75.752.412.856.174.27-.604-1.054-1.388.017-2.978 1.484-3.047zm149.062-1.275c-4.646 4.803-3.19 1.965-1.035 5.625.01 2.414 1.417 4.303.302 8.11-.356.745-.39 1.1-.192 1.85-.342 4.206-3.71 4.153-6.99 4.806.545-.034 5.193 8.556-3.48 9.228l.1 34.922 13.6-10.03-.058-54.51h-2.246zM86.184 153.183c-3.855 2.485-9.273 8.694-16.088 7.348-.824 21.788-7.975 38.655-18.174 53.15 3.52 2.083 7.397 4.583 11 6.185 3.044-1.572 4.754-2.227 7.742-4.686 12.262-18.942 16.15-39.648 15.52-61.997zm32.02 3.986c.687 11.188 2.51 21.784 8.33 30.286l.394-23.78c-2.074-.497-3.772-1.84-4.38-5.64l-4.345-.867zm-42.07 6.6l3.892.09s-.884 1.76-1.266 2.743c-.464 1.2-.243 1.444.645.61 1.153-1.088 2.993-1.188 3.962-.22 2.57 2.577-.118 6.772-3.158 4.933-1.303-.788-1.522-.522-.487.593 2.01 1.86-.09 4.548-2.438 4.56-1.697-.008-2.798-1.365-2.932-2.86-.064-.94.407-1.884 1.225-2.343.852-.48.24-.79-.685-.293-3.02 1.625-5.04-2.547-2.76-4.92 1.312-1.37 2.702-1.242 4.038.064.934.912 1.268.832 1.004-.248-.264-1.215-1.04-2.71-1.04-2.71zm104.995 3.274l2.786.004c-.273.69-.63 1.394-.853 2.074-.237.742-.062.836.677.12 1.92-1.292 3.97 0 3.553 2.042-.287 1.41-1.47 2.102-2.832 1.488-1.2-.54-.815-.31-.132.514.813.98.606 2.12-.47 2.877-1.9 1.336-4.41-.885-3.153-2.824.742-1.152.402-1.027-.273-.472-1.014.742-2.547-.307-2.576-1.764-.116-2.094 1.996-3.27 3.486-1.79.71.6.887.523.566-.345-.294-.632-.39-1.307-.78-1.926zm.15 15.23l2.92-.034s-.04.223-.49 1.068c-.53.99-.45 2.02.104 1.32.933-1.175 2.91-.847 3.56.59.756 1.678-.717 3.528-2.246 2.825-.992-.457-1.062-.358-.4.597.644.928.357 2.067-.688 2.733-2.05 1.312-4.51-1.305-2.8-2.977.456-.447.312-.666-.24-.365-2.268 1.232-3.938-1.827-1.98-3.618.835-.764 1.473-.71 2.844.236.426.295.508-.01.2-.758-.525-1.274-.784-1.617-.784-1.617zm-108.426 1.83c3.25-.048 5.923 2.548 5.97 5.798.048 3.25-2.547 5.926-5.798 5.973-3.25.05-5.927-2.55-5.974-5.8-.048-3.253 2.552-5.923 5.802-5.97zm.067 1.05c-2.67.04-4.804 2.23-4.766 4.902.04 2.672 2.235 4.807 4.906 4.768 2.67-.04 4.806-2.236 4.768-4.908-.04-2.67-2.236-4.8-4.907-4.762zm.057 1.856c1.645-.022 2.993 1.287 3.02 2.933.02 1.645-1.288 2.998-2.934 3.022-1.644.023-2.998-1.293-3.02-2.938-.026-1.642 1.29-2.993 2.934-3.017zm-7.4 14.263l3.397 1.66s-1.606 1.31-2.247 1.98c-.815.868-.76 1.274.345.858 2.104-.79 4.212.396 4.25 2.578.054 2.916-3.395 4.318-5.05 2.11-.492-.655-1.08-.93-.85-.392.56 1.305.217 2.947-.76 3.623-.78.54-2.21.697-2.934.322-2.48-1.284-2.608-4.143-.235-5.27 1.19-.57 1.23-1.1.06-.81-2.442.608-3.868-2.347-2.105-4.378 1.87-2.155 4.918-1.71 5.256 1.48.06.565.446.156.62-.713.207-.64.253-3.047.253-3.047zm31.674 4.795s-12.442 7.08-12.063 7.38c.074.042 2.76 3.82 2.76 3.82 6.173-13.99 20.957-2.405 23.324 4.736.516.316.603.226 1.16.478.053-.504 1.078-5.465 1.078-5.465l-16.257-10.95zm-19.953 51.425c-.623.78-2.71 2.994-2.446 3.078 18.287 3.93 37.147 3.618 56.344 1.534l-1.466-4.61c-18.957 4.83-52.43 0-52.43 0z"/><path fill="#131F67" d="M31.314 28.02l1.12 257.077 160.478-.566-.962-256.82-160.636.31zm48.804 1.83l80.04-.325c-3.755 9.745-14.565 25.144-14.055 25.18-16.647-2.75-33.81-4.14-53.004-.04L80.117 29.852zm-46.95.628l44.913-.06 14.814 26.554s.87 1.656.35 3.39c-.565 1.893-1.055 2.73-1.563 3.698.053-.552-4.27-1.098-3.904 2.602.243 2.503 3.41 3.92 5.77 1.97.378-.03.374.32.292.932-.217 1.435-1.74 5.984-2.785 6.288-5.317-4.36-7.215 3.602-3.63 5.19 2.075.92 5.27.16 6.76-2.337 1.143-1.91 1.018-1.593 1.376.723.133.86.32 1.86.42 2.312.305 1.4 0 1.676-2.363 2.312-1.902.74-3.83 1.15-5.79 1.574-3.585.588-5.417 3.29-5.507 6.582-.02.71.006 1.04-.146 1.252-15.166 5.756-31.28 13.81-48.184 27.562l-.823-90.544zm101.83 63.047c-.573-.928-2.41-5.806-2.913-7.84-1.316-9.867-1.566-21.58-2.973-30.763l1.852.207s.697 2.658 1.447 9.844c.372 3.56.76 10.964 1.068 14.367.47 5.06 2.754 13.147 4.17 15.188 2.31 3.328 6.95 1.176 5.396-2.777-.805-2.05-3.924-1.718-3.492.41.008.38.297-.27.754-.67 1.35-.513 2.863.89 2.072 2.58-.982 2.155-3.89 1.17-4.854-1.546-1.152-3.246 2.73-5.68 5.633-3.7 3.233 2.206 3.24 7.796.635 9.56-4.38 1.598-7.36-1.597-8.793-4.86zm10.84 4.113c-.177-.104.005-.443.222-1.25.812-3.02.302-5.373-1.65-7.593-1.09-1.235-1.497-1.453-.927-1.678 1.206-.475 3.875 1.463 4.606 3.367.724 1.87.903 3.805-.114 5.918-.71.456-1.81 1.365-2.14 1.236zm3.303-2.01c-.003-.353.235-1.466.29-2.01.21-2.106-.772-4.245-2.516-5.915-1.463-1.402-1.596-1.547-.213-1.57 3.568-.06 5.845 5.71 4.198 8.552-.423.448-1.716 1.37-1.757.942zm3.02-1.952c1.052-4.918-3.704-8.196-3.8-8.043.235-1.102 2.127-.47 2.77-.04 2.404 1.614 3.787 5.836 2.312 8.233-.16.295-.358.463-.616.62-.496.313-.79.563-.892.345-.076-.163.2-.88.23-1.114h-.003zM110.314 77.72c.496-.487.646-.503 1.6-.142 2.995 1.13 5.384-1.018 4.68-3.274-.257-.816-1.378-1.703-2.068-1.774-1.128-.117-1.15.478.065.932 1.492.56 1.646 2.144.328 2.857-1.543 1.042-4.072-1.605-5.928-1.38-.888.264-1.453 1.093-.947 2.105.393.71 1.73 1.142 2.27.674zm-3.32-.323c-1.04-.48-1.435-.474-1.234-1.604.13-.746 1.192-5.762 1.696-7.7 1.514-5.808.092-9.025-4.193-10.323-2.903-.88-5.403-.436-8.362 1.14l-.532-1.642c12.405-3.246 33.576-2.525 33.502-2.4.418 1.67.576 3.34.74 5.01 0 0-3.968-1.945-6.037-2.594-3.188-.98-8.228.095-9.12 1.924-.505 1.038-.24 1.73 1.9.576 3.507-1.888 10.664-.45 13.188 1.553.583.46.554.562.564 1.103.017.825.064.873-1.084.26-6.016-3.076-11.157-2.72-12.932 1.318-.408-.123-1.97-.393-1.97-.393l1.677 2.48.318 2.592s2.735 1.52 4.245 2.16c1.484.63.632-.04-1.192-1.31-1.338-.93-.273-1.228.608-.872 1.816.416 4.474.945 7.546-1.006.954-.606 3.14-.08 3.174.193 0 0 .29 2.267.58 6.998.137 2.24.412 5.163.567 6.364.475 3.625.608 3.83-1.298 2.092-.64-.582-1.707-1.55-1.72-1.492-.243 1.125 2.573 3.1 3.228 3.777.994 1.027 1.793 3.662 1.396 3.816-.252.1-2.926-2.168-5.03-4.207-.788-.765-1.964-1.79-1.997-1.755-.437.29 1.33 2.285 2.987 3.775 1.932 1.74 2.154 1.896 1.506 2.158-1.2.483-2.28-.117-5.19-2.523-.28-.234-1.384-1.016-1.437-.96-.266.353 2.42 2.895 3.03 3.114 1.132.404 1.458 1.5.564 1.93-.596.286-2.817-.93-4.6-2.476-.32-.275-1.207-.746-1.267-.685-.354.227 1.64 1.948 3.54 3.093 1.86 1.12 2.157 1.396 1.684 2.328-.44.96-4.523-1.26-6.566-3.548-.435-.486-.777-.697-.69-.533.89 2.467 3.816 4.23 5.994 4.936.39.13.95.285 1.205.485.62.495.483 1.008-.19 1.297-2.32.65-5.983-2.162-8.604-5.107-.303-.125-.12.26-.043.387 2.187 3.488 6.37 6.142 8.892 5.646 1.473-.29 2.655.15 2.668.646.01.405-.804 1.05-2.388 1.163-3.586.256-9.186-3.666-12.46-8.66-.103-.153-.224-.213-.23-.116-.09 1.06 1.947 3.653 3.51 5.14 4.64 4.41 9.03 5.903 12.453 3.417 1.93-1.496 3.795-4.766.92-5.857-1.522-.58-2.486 1.517-1.184.918 1.71-.205 2.1.7 1.877 1.556-.436 1.466-1.887 1.697-3.065 1.083-2.055-1.113-1.62-4.925 1.04-5.59 2.395-.58 4.485 1.45 4.76 3.38.428 2.99-2.947 6.228-5.654 7.033-9.235 2.748-16.448-10.084-16.49-10.373-.462-.893-1.02-1.364-1.37-.323-.38 1.504-2.463 5.918-3.578 5.89.348-1.556 1.81-4.173 1.453-6.466-.615 1.883-1.916 5.9-4.402 8.04-.643.587-2.535 1.277-1.23-.23 1.568-2.212 3.626-5.23 3.2-8.068-.416.64-.646 2.252-1.12 3.317-1.194 2.668-3.803 5.834-5.524 6.347-1.272.38-1.153-.052.147-1.422 1.396-1.47 3.866-5.785 3.705-7.646-.07-.822-2.564 7.104-7.25 9.275-1.267.463-1.984-.12-1.984-.12 1.842-1.06 6.93-6.075 6.45-11.772 0 0-.272.844-.673 2.11-1.726 5.437-5.433 9.013-8.32 9.308-2.305.236-3.916-.692-3.344-1.104 2.99.02 5.447-1.014 7.367-3.928 1.95-2.96 2.68-7.72 1.496-12.758-1.065-4.542-1.3-8.626-1.674-12.992 3.274 1.117 6.57 1.862 9.76.615-.318 1.303-.85 1.463-1.69 2.445-.612.718-.403.89 1.978-.794.693-.49.943-.883 1.068-.75.205.21-.11 1.55-.805 4.22-1.036 3.994-.768 4.28 3.068 5.785.715.28.982.555 1.232.854.117.142.748 1.273.807 1.314.142.095.104-1.155.027-1.472-.207-.838-.66-1.467-1.058-1.717-.75-.693-1.838-.755-2.533-1.073zm72.418 52.08l.04-4.145 4.026 2.857-.05 1.368-4.015-.08zm-6.88.9l-.15-76.68s3.093-2.055 4.638-3.07c.968 3.04.96 9.56.6 12.46-.606 1.893-.876 10.307-.19 14.587.547 3.413.447 9.058-.068 11.76-.202 1.054-.047 6 .332 10.576.29 3.498.207 6.68-.215 8.498-.334 1.435-.22 6.572.162 8.545.56 2.9.65 12.218.4 12.724-.666.75-5.86.856-5.51.6zm6.124-80.246s3.112 2.058 4.614 3.085l.02 3.305-4.497-2.938-.136-3.45zm-46.475 5.34l1.925.118c.77 3.993 1.1 8.532 1.404 13.083.097 7.02.964 14.418 2.61 19.27l-1.414 1.483c-2.412-5.56-2.603-14.328-3.14-20.262-.235-6.67-1.333-13.647-1.387-13.69zm46.846-.7l4.188 2.834.043 3.594-4.22-2.8-.01-3.628zm-44.068.964l1.69.184c.515 4.74 1.304 7.958 1.603 13.182.39 6.754 1.562 12.3 2.288 17.576l-1.267.422c-.847.39-2.253-5.846-2.878-18.483-.188-3.828-.836-8.13-1.434-12.88zm2.556.177l2.02.363c.896 12 2.306 23.27 3.783 29.73l-1.756.114c-2.177-9.23-2.318-19.91-4.044-30.207h-.002zm2.918.427l1.855.32c2.23 27.445 3.61 27.09 4.04 28.17l-2.007.812c-2.17-7.885-2.608-19.002-3.888-29.303zm8.426 26.956c-.315.924-1.07.838-1.89.933-.92-2.52-1.458-5.527-1.843-8.472-.848-6.466-1.152-12.527-2.035-18.907l2.215.227c-.072.047 1.57 22.5 3.553 26.22zM101.225 59.17c2.918.142 5.34 1.45 5.572 3.367.053.432-.29.222-.684-.08-2.51-1.925-5.367-2.522-8.814-1.283-.753.27-1.368.696-1.704.64-.3-.193-.395-.66-.164-1.047.806-1.345 4.35-1.666 5.793-1.597zm-6.765 3.85c.062 3.022-.674 4.688-2.26 5.388-1.914.843-4.37-.962-3.177-2.98.902-1.527 2.45-1.066 2.748.536l2.434-5.415c0-.003.248 1.713.256 2.47zm88.834-.485l-.027 3.115-4.487-3 .3-2.994 4.214 2.88zm-79.615-.407c2.21.876 3.022 1.945 3.103 2.42-.127.355-.35.113-1.963-.758-2.486-1.523-5.728-1.772-8.574.162-.71.14-.78-.262-.07-1.026 2.167-1.698 5.165-1.723 7.503-.798zm16.79-.583c1.945-.062 4.27.434 6.234 1.418.87.437 1.647.708 2.215 1.21.452.234.487 1.263.155 1.34-.295.04-.78-.188-1.504-.694-4.667-3.03-8.024-2.658-10.725-.793-.147.104-.613.21-.797.195-.514-.038-.54-.25-.326-.527 1.25-1.413 3.12-2.093 4.748-2.15zm58.322 2.183l4.498 3.143-.002 3.092-4.78-3.325.284-2.91zm-81.186 1.256l.658.02c1.53 3.708 3.45 1.796 4.248.31l.8.13c-1.253 4.968-6.346 2.37-5.706-.46zm-1.116.494c.743.09.717.93.948 1.542.52 1.368-1.45.21-1.79-.122-.57-.603.24-1.36.842-1.42zm22.26-.145c1.94 2.95 3.058 1.203 4.163-.08l.526.167c-.14 2.118-3.705 4.376-5.397-.035l.708-.052zm5.964.333c.207.004.623.152 1.006.31 1.062.428 1.006.74-.17 1.264-1.877.836-2.53.943-1.97-.236.326-.542.54-1.257 1.134-1.338zm-7.37.45c.475.348.784.73.84 1.355.038.442-1.43-.064-1.425-.768.044-.445.286-.805.585-.586zm-12.994.168c.963.357.85.816.18 1.232-1.208.672-1.725.54-.944-.518.36-.485.436-.704.764-.714zm74.14 1.554l4.872 3.425-.043 3.144-4.868-3.317c-.227-1.348-.014-2.253.04-3.252zM94.32 72.704c.23.006.32.77.375 1.886.09 1.855-1.8 4.44-3.707 5.33-2.302 1.073-4.765-.43-4.353-2.66.38-2.053 3.297-2.138 3.408-.24-.282.5.114.918.278.874.75-.2 2.52-1.793 3.237-3.574.28-.694.45-1.408.652-1.57.042-.034.077-.047.11-.046zm84.043-.58l4.867 3.552.02 3.124-4.825-3.32c-.19-1.393-.107-2.386-.06-3.355zm-59.058 4.947c-.367.62-.065 1.726.688.783 1.938-2.258 4.748.566 3.246 2.362-1.363 1.63-3.04 1.104-6.586-.248-2.582-.985-2.988-.65-3.625.062-.523.587-.26 1.767.422 1.753 2.092.475 3.903.938 6.067 1.387 4.578.94 7.37-4.957 3.19-7.124-1.002-.518-3.072.154-3.402 1.025zm-20.204.68c-1.783 1.6-.32 5.806 2.31 6.183.55.077 1.37.055 2.303-.214 1.84-.53 3.866-1.62 3.95-2.253.377-2.88-3.91-.3-4.478.043-1.352.82-2.782.716-3.504-.26-1.623-2.197 1.287-4.716 3.056-2.028.446.678.288-.472-.197-1.252-.687-1.103-2.462-1.03-3.44-.22zm79.584-.908l4.574 3.234-.025 3.006-4.435-3.197-.113-3.043zm.342 4.402l4.334 3.117.074 3.126-4.55-2.992c.09-1.125.113-2.182.142-3.25zm-24.288 1.795c3.81.063 5.956 5.69 3.948 8.032-.598.697-1.073.883-1.346.623-.06-.056.037-.687.076-1.396.125-2.27-.357-3.822-2.02-5.546-1.243-1.293-1.712-1.69-.658-1.715zm-46.907.9c-.723.255-1.48.773-2.07.645-.583-.125-.862.162-1.09.62-.872 1.745-.603 2.31 1.126 1.317.82-.472 1.107-.302 3.303.112 1.567.295 2.635.267 4.016-.092 1.717-.445 2.737-.48 3.606-.006.867.475 1.46 1.13 1.484.598-.1-.625-.642-2.22-.767-2.748-.062-.254-.488-.03-.894-.002-1.422.104-3.12-1.176-4.217-.498-.88.54-.997.683-2.204-.024-.897-.528-1.52-.202-2.297.077zm45.88.388c2.58 2.154 3.24 4.064 2.99 5.633-.127 1.143-.213 2.4-1.33 3.09-.207.098-.515.157-.8.2.867-3.24-.153-6.143-3.8-9.235 1.06-.526 2.143-.353 2.94.313zm-58.178-.005c.114 0 .24.02.37.06.445.15.517 1.32.164 1.688-.354.368-.637.064-1.045-.864-.302-.51.016-.882.512-.883zm-2.38.912c.94-.02 1.297.844 1.46 1.53.138.585-.036 2.332-.536 1.724-.12-.37-.633-1.565-1.04-1.876-.914-.692-.824-1.36.116-1.38zm-2.653.87c.136-.004.312.012.528.05 1.47.245 2.596 2.585 2.254 3.913-.78 1.428-1.066.465-1.322-.83-.2-.537-.805-1.38-1.174-1.812-.766-.903-.882-1.307-.287-1.32zm88.4-.68l4.477 3.206.008 3.436-4.686-3.148c.102-1.203.156-2.352.2-3.494zm-91.31 1.39c2.194.005 4.065 2.554 3.374 5.01-.857 2.565-5.125 2.02-4.416-.538.203-.734.988-1.27 1.736-.812 1.082.664.965-.415.276-.8-1.06-.593-2.52-.234-2.844.964-1.133 4.182 4.242 5.606 7.166 1.286 1.07-1.578 2.232-3.268 2.875-3.987.578-.647.7-.58.607.255-.373 3.885-3.08 8.74-8.16 8.475-4.938-.47-6.48-5.707-2.752-8.977.625-.55 1.285-.82 1.924-.867.074-.01.144-.01.215-.01zm26.16.213c-1.806.875-3.442 1.205-5.222.432-1.314-.57-1.293.05-.724.56 1.652 1.405 4.656.77 5.943-.02.418-.26.557-1.006.004-.972zm69.64 6.21l.016 3.122-4.998-3.35c-.08-.747.004-1.882.168-3.056l4.813 3.283zm-4.817 1.042l4.758 3.133.128 3.096-4.625-2.867-.26-3.363zm.333 4.34l4.545 3.145.066 3.38-4.504-2.964-.106-3.56zm-110.858 3.552l-2.78 8.406 1.82.11 1.23 2.216 1.263-2.27 1.917-.147-3.45-8.315zm111.047 1.123l4.38 3.01.067 3.12-4.553-3.145.105-2.985zm-.178 3.82l4.49 3.244.09 3.312-5.09-3.39.51-3.167zM78.42 108.99l-2.753 9 1.553-.21 1.453 2.405 1.47-2.162 1.393.078-3.115-9.11zm-20.736.67l-2.623 8.945 1.76-.01 1.483 2.258 1.303-2.18 1.994-.052-3.916-8.96zm120.647 1.648l5.272 3.696.043 3.52-5.108-3.42-.206-3.796zm5.212 8.36l.06 3.084-4.437-3.155-.48-3.425 4.857 3.496zm-94.1.53l-3.22 9.09 2.16.022 1.31 2.182 1.048-2.193 1.735.018-3.032-9.12zm90.016.91l4.113 2.818-.03 3.166-4.05-2.715-.032-3.27zM101.47 157.89l-2.344-2.253c-.03-.184 1.916-1.127 3.115-.526 1.583.794 2.396 3.642.624 5.14-1.41 1.193-3.562.2-3.604.062l2.21-2.422zm-2.086-3.716c.04-3.48-1.79-4.373-3.307-5.077 0 0-.254-22.056-.222-22.716 0 .1-.39-2.386-.434-2.533 0 .002-.362-.097-.362-.093.062 2.236.21 25.152.174 25.302-2.836.327-3.63 2.247-3.887 4.825-2.213-.165-3.65 1.167-3.697 1.39-.815-1.124-.206-2.776-.854-3.948-1.96 6.857 1.854 10.96 5.182 10.58.535 6.585 7.787 7.773 7.54-.212 8.776-.518 5.804-8.582-.132-7.516zM58.16 126.487l-3.178 8.906 2.228-.255.812 1.644c3.566-3.144 5.367 1.71 3.554-2.45l-3.417-7.845zm120.75 15.845c.41-.03.95.34 1.058.844.078 1.502-1.942 1.164-2.008.216-.045-.675.566-1.03.95-1.06zm1.32 9.778c.872-.715 2.26-.312 2.282.768.02.955-1.076 1.27-1.934.732-.663-.405-.704-1.16-.347-1.5zm.124 2.65c4.777.363 8.33-2.88 6.81-5.21 1.28-1.61.235-2.537.586-3.464 1.016-1.04.166-3.272-.088-3.283-.207-3-1.078-3.383-2.377-4.98-.39-.464.91-.917 1.407-1.714-1.32.507-2.616-.473-2.608-.696l-.562-.697c-8.846.412-16.79 1.03-16.487 13.023-1.273 5.09.883 9.625 7.057 8.223 1.352-1.207.46-2.957.297-3.797-.528-2.313.08-3.815.25-4.9.524-3.354 2.98-6.465 3.25-1.21.43-.658.227-.757.937-1.03 1.694-.61 1.692 1.103 1.346 1.794-.223.354-.56.324-.904.285-.493-.06-1.138-.242-1.147-.423-.133.546.896 1.56.79 2.07-.14.486-.227.447.226.125 2.126-1.52 3.458 1.88.38 1.49 1.51.81-.734 3.18.834 4.393zm-3.15-18.303c1.678-.086 2.08-.102 2.002.78.317 1.622.725 2.376 2.844 2.206 2.133-.277 2.812-.412.662.88-1.084.476-1.438.57-2.723.454-1.3-.117-1.198-.248-1.94.194-.41.247-.864.55-1.2.608-.498.092-1.377.283-1.377.283-.498 2.522-1.258 3.792-2.303 4.99-1.48 1.68-2.23 1.976-.416 1.85.67.042.324-.294.617 2.425.103.95.282 2.058.423 2.426.47 1.24.533 1.856-1.258 1.944-4.474.338-5.52-4.014-4.922-6.238.05-.35.256-1.508.3-2.426.023-.502-.077-.928-.065-1.44.103-4.146 1.086-5.24 4.77-7.938 1.11-.81 3.104-.976 4.586-.995zm3.93.224c2.064-.043 4.06.95 3.064 1.595-.644.416-2.968.242-3.61-.217-.833-.593-.52-1.357.546-1.377zM89.06 140.2l-.818 1.45-.855 6.752.152 1.37 1.687 2.214 1.336-2.297 2.104.036-3.608-9.525zm96.54-.67c1.338.268 1.392 1.488 1.05 2.238-.746 1.65-5.75 2.45-5.75 2.452-.04-.71.06-1.395-.46-2.19 0 0 3.33-.873 4.035-1.517.472-.427.756-.97 1.125-.983zm.99 3.757c.485.006.743.357.874 1.072.062.382-.082.708-.393 1.126-1.27 1.38-4.842 2.336-6.13 1.983-.09-.12.128-1.572.223-2.22 1.717.056 4.607-1.47 5.428-1.963zm-50.886 8.498c-1.707-2.46-5.49-2.1-5.084-1.928.026-2.107-.334-5.002-3.53-5.31-3.228-.244-4.886 4.01-3.66 5.812-1.99-.827-4.978 1.245-4.978 1.437-.254.01-2.535 6.038 4.37 6.35.626 2.847 1.703 4.222 3.908 5.394l.056 23.23.778 1.056.07-24.346c3.533-.156 3.97-4.2 3.707-5.13 1.57.066 2.995-.25 4.196-1.163l.412 3.967s.828-1.398.646-2.144c-1.537-22.814 6.715-47.494 17.55-63.492.58-.672.758-1.476 1.044-1.48 2.644-1.424 4.312-2.38 4.312-2.38 4.356 2.093 12.137 7.147 12.137 7.147l.127 32.51c-.12-.32 14.498-1.63 14.277-1.236 0 0-1.278-.503-1.298-1.355l-.38-76.078-6.397-4.178s-5.258 3.436-6.73 4.608l.16 44.79-11.328-6.635s.183-1.586.2-2.1c-.183-6.11-3.185-8.162-8.897-6.35-.767.243-1.297.456-1.672.144-2.406-7.032-3.488-25.51-3.484-25.51l16.12-27.31 27.353-.15.474 104.35.99 54.695-13.96 10.166-.203-35.037s-2-.956-2.523-1.02c-.197-.017-.45.426-.096.65.514.327 1.774.786 1.774.786l.297 34.728s-5.43 3.65-7.855 5.174c-1.812 1.125-7.53 4.006-10.92 5.664-1.314.645-2.644 1.16-2.767 1.262-4.614 1.982-8.776 3.37-12.625 5.418-2.655 1.086-2.534.02-3.102-.846-5.538-5.48-12.692-5.803-18.487-3.27-.897.33-2.01.62-2.76 1.143-.217.16-.596.34-.844.396-.51.12-1.065.347-1.532.716-.832.66-1.387 1.733-1.863 2.8-.295.66-1.182 3.74-1.3 4.652-.02.152.298.12.308.136.04.055.892-3.73 1.23-4.447.72-1.53 1.628-2.445 2.108-2.59.22-.037.41.305.113.844-.592 1.07-1.07 3.348-1.217 4.373-.127.947-.154 1.71.023 1.742.03.028.868-2.87 1.245-3.894.98-2.666 1.602-3.77 2.547-4.34.97-.584 1.2-.502 1.01.117-1.443 2.815-2.04 4.945-2.322 7.945-.043.598.26.614.498-.377.79-3.146 1.877-7.406 4.44-8.68 1.097-.493 1.583-.47 1.466-.116-3.055 3.857-3.818 8.144-3.783 9.525.013.46.2.37.593-.63 1.033-3.802 2.566-7.036 4.388-8.622.706-.613 1.558-.783 2.272-.87 2.156-.27 2.23.53.354 1.624-2.14 1.244-4.61 5.775-4.888 9.176-.096 1.18.322 1.306.615-.264 1.27-6.762 7.066-11.23 11.713-9.16 2.09.933 2.47 2.226.648 1.65-3.685-1.166-7.773 1.443-9.46 5.086-1.524 3.293-1.493 5.02-.42 9.432.73 4.072 2.154 9.277 1.687 13.267-.507.775-2.105-.317-3.995-.55-1.14-.214-2.53-.27-3.72.188-1.038.398-1.626.496-1.82-.06-.06-.182.803-1.06 1.188-1.546.613-.775.262-.898-.604-.058-.425.412-1.335 1.38-1.583 1.428-.547.11-.567-.504-.13-2.07 1.548-6.085 1.134-6.19-1.52-7.42-2.628-1-1.796-1.508-2.962-2.503-.82.64 1.07 3.58 3.213 4.224 1.752.525 1.54 1.422.77 3.83-.775 3.37-2.103 7.832-1.337 10.826 1.614 6.29 8 6.162 12.895 3.62l.596 1.603c-4.134 1.676-25.933 3.105-33.278 2.262-.567-1.983-.625-2.495-.854-4.832 0 0 4.54 2.05 6.805 2.404 2.828.443 7.184.465 8.3-2.14.34-.764-.01-1.41-.986-.968-1.793.812-4.86 1.415-7.337 1.26-2.08-.126-5.045-.962-6.325-1.733-.607-.364-1.12-1.084-.646-1.983.42-.095.978.373 1.307.543 3.752 1.893 5.81 2.26 8.258 1.535 1.854-.552 4.356-2.556 3.737-3.12-.627.216-2.706 1.962-4.14 2.343-2.952.785-6.1-.416-9.167-2.402-.945-.82-.514-1.42.646-.762 4.595 2.312 6.51 3.847 10.904.6.982-.726 1.53-.634 2.107-.19 2.282 2.042 2.273.895.603-1.23-.38-.48-.723-1.157-.95-1.876-.17-.53-.205-1.063-.51-1.414-.52-.596-1.452-.885-2.52-1.354-1.54-.678-2.052-.353-.915.203 1.99.968 2.96 2.01.485 1.447-2.243-1.004-5.99-.44-8.11 1.03-1.664.81-2.398 1.68-2.79-.157-.823-3.83-.022-9.028-1.124-15.717-.212-1.272-.47-2.082-.202-2.258.342-.223 1.197.602 2.256 2.09.482.678 1.44 1.982 1.438 1.71.035-1.415-2.166-4.073-3.984-5.12-.998-.573-1.678-3.23-.535-2.647.883.43 5.472 4.465 6.347 5.9.405.67.748.243.317-.544-.258-.47-1.336-1.854-2.385-2.877-1.857-1.815-2.074-1.73-1.717-2.104.707-.736 2.22.213 4.914 2.65.69.872 1.603 1.66 1.49 1.23.275-.682-2.422-3.58-4.022-4.358-.3-.188-.34-.385-.312-.746.152-1.37 3.25.643 5.82 2.99.963.88.166-.773-.95-1.898-.876-.886-2.29-1.984-3.247-2.36-.95-.395-1.013-1.222-.267-1.57 2.578-.11 5.236 2.522 6.822 4.593.438.568.84 1.01.385-.067-1.47-3.242-4.523-5.068-6.64-5.438-1.72-.3-1.682-1.852-.065-1.676 1.777.193 4.688 1.797 7.152 4.277.72.724 1.926 2.36 1.678 1.4-.006-.262-.764-1.29-1.64-2.276-2.018-2.004-4.362-3.775-6.85-4.304-1.164-.327-4.612.34-4.635-.262-.01-.44.36-.707 1.46-1.072 4.265-1.418 10.51 2.246 13.925 7.88.244.4.707.573.734.483-1.65-4.605-6.772-8.777-10.847-9.493-2.77-.444-5.566.263-6.896 2.13-1.494 2.102-.91 4.91 1.336 4.687 1.178-.11 1.084-.777 1.062-.8-.08-.077-.767.243-1.19.16-1.534-.303-1.372-3.077.874-2.805 2.583.315 2.948 4.39.06 5.247-2.663.79-3.64-.428-4.368-1.87-1.068-2.115.078-5.523 1.96-6.833 5.27-3.657 11.935-.592 15.7 3.037 1.862 1.796 3.225 3.932 4.08 6.23.22.536.614.505.475-.07-5.297-13.51-21.103-14.97-23.45-4.603 0 0-.08.315-1.6-1.845-2.467-3.502-6.147-4.282-10.678-1.895-4.58 1.72-6.124 2.813-9.3 4.457-.463.164-3.397 2.188-3.87 1.768-4.495-2.98-8.417-3.998-10.552-6.184.074-.4-.305-6.46-.305-6.46l.104-26.124c.033-.256-2.38.174-6.396.803-10.677 2.13-9.743-3.484-11.155-3.88-.748-.15-.69.17-.895-19.97-.062-5.85-.176-16.136-.262-22.856-.087-6.72-.11-12.317-.05-12.437.06-.12.66-.634 1.353-1.123 2.603-1.845 4.063-2.96 9.76-7.306 1.288-.98 1.612-1.147 1.612-1.147.653 12.1.067 24.81.39 35.21l.48.003-.188-34.933c-.98-.258 22.453-13.97 35.297-18.42.24-.082.843.185.843.185 7.37 9.035 26.767 6.3 28.33-4.697 3.213 6.703 17.33 19.73 23.78 4.027 0 0 2.34 4.512 4.345 4.81 4.508.597 5.008-.114 14.932-4.927-11.34 17.215-17.595 35.438-18.396 57.51zm-6.03-4.293c.247.76.33 1.744.118 2.52-.29.605-.72.6-.72.6l-2.198-1.88-2.15 1.994s-1.313-1.326-.592-3.162c1.375-2.568 4.522-2.105 5.54-.072zm56.773-.3c1.405-.09.68 1.527-1.402 2.626-1.305.688-2.39.88-2.857.633-.256-.76-.038-1.452.12-1.76.89-.457 3.328-1.257 4.14-1.5zm-90.81 3.047c1.56-.038 2.915 1.073 2.966 3.044.02.803-.393 1.6-.393 1.6l-2.61-1.924-1.992 2.125c-.34.12-1.562-1.404-.722-3.06.61-1.206 1.682-1.76 2.75-1.786zm37.73.904c2.195.996 2.577 4.063.44 5.248-1.015.56-2.61.875-3.357-.263l2.157-2.355-2.477-2.084c-.096-.093 1.9-1.155 3.238-.546zm52.692-.808c.378 0 .475.146.583.498.31 1.002-.475 2.013-1.825 2.33-1.248.295-1.13.44-1.722-.676-.465-.873-.588-.836.137-1.113.878-.285 1.815-.617 2.826-1.04zm-62.434 1.506s-1.56 1.582-2.24 2.244l2.344 2.445c.113.3-2.702 1.574-4.186-.35-.96-1.25-.42-3.624.945-4.438 1.396-.832 3.394-.14 3.136.1zm3.357-.275c1.384-.02 2.52 1.082 2.54 2.467.02 1.383-1.085 2.522-2.468 2.543-1.385.02-2.524-1.088-2.545-2.47-.02-1.385 1.088-2.52 2.473-2.54zM92.73 155.78l-2.246 2.355 2.432 2.646s-1.924.315-2.607.19c-3.31-.62-2.984-4.5-.427-5.526 1.08-.38 1.88-.253 2.848.337zm-44.114.8s.44 4.985.846 6.688c-.266 1.942-1.52 3.266-2.088 5.26-.3.887-1.434 2.08-1.652.83-.815-1.545-.034-3.455-.71-4.556-.343-1.024-.24-1.618-.47-2.694-.498-.873-.9-1.287-.832-2.08-.135-3.524-1.014-2.826-2.578-2.537-1.29.425-3.028.597-4.05 1.35-2.216 1.563-1.01 2.456-1.845 4.81.133 1.03.385 1.404.203 2.294-.854 4.207.723 3.856.676 3.924-.658.965.152 3.14.467 3.03 1.926.47 1.23 1.876 1.854 2.622.63.72.596 1.084 3.23 1.15 4.765.37 12.335-.337 13.972-6.146 1.02-8.19 2.512-15.405-7.024-13.944zm47.36-.8c1.335-.02 2.434 1.047 2.452 2.383.02 1.336-1.047 2.435-2.383 2.453s-2.434-1.047-2.453-2.383c-.02-1.335 1.047-2.434 2.383-2.453zM50.7 157.05c.9-.01 1.96.178 2.834 1.016 1.87 1.79 1.95 3.416 1.12 10.313-.233 1.942-.917 3.565-1.823 4.272-1.82 1.422-4.05 2.436-5.885 2.887-.97.237-1.812.243-2.467.237-.708-.004-1.12-.332-1.174-.926.156-1.604-1.483-1.762-2.434-1.672-1.693.068-1.867.246-.81-.57 1.204-.936 3.982-.948 4.51-.4 1.085-1.085 2.214-1.212 3.597-1.372-.206-.303-.7-1.506-.372-2.276.715-1.26 1.92-3.48 3.187-4.314 1.25-1.635.188-.896-.59-.867-.44.016-.404-.132-.478-.43-.31-1.274-.754-3.657-.758-5.075 0-.684.642-.813 1.542-.826zm-7.972 1.766c.49.436.483 1.04-.03 1.494-.587.516-1.755.23-1.782-.74.077-.983 1.22-1.26 1.812-.754zm84.417 3.453c-2.028.1-3.7-2.07-2.936-4.235.42-.586.6-.502.6-.502l2.313 2.064 2.217-2.318c1.827 2.202.258 4.825-2.193 4.99zm-86.89-3.363c-.166.633.054 1.264.08 1.572-.4.286-2.115.786-3.035 1.238-.64.22-1.1-.38-1.012-.93.242-1.02 1.742-1.686 2.832-2.002.338-.08.892-.112 1.135.12zm.377 2.92c.617-.076.437 1.27.203 1.96-.23.49-.91.47-1.52.507-1.083.062-2.444 1.31-3.03 1.107-.193-.087-.332-.602-.354-.927.127-1.797 3.113-2.454 4.7-2.646zm3.266 1.87c-.205.302-.87.448-1.424.296-.908-.25-1.048-1.553-.25-2.002 1.406-.463 2.252.857 1.674 1.708zm89.713-2.965l-1.23 1.875-1.873-.035 3.025 9.283 1.4-3.627c.187-1.668.407-3.332.58-5.002l-1.902-2.494zm-39.825.78l2.395 1.953 2.054-2.1c1.526 3.406-.232 4.965-2.105 4.924-2.067-.047-4.27-2.004-2.344-4.778zm-52.55 3.522c.758-.145.434 1.904.328 1.963-.484.18-2.572.453-3.45 1.193-1.874 1.467-2.673.572-1.806-1.187.822-1.02 3.84-1.95 4.928-1.97zm2.38.095c.836-.08 1.42.846.91 1.725-.69.645-1.904.172-1.898-.738-.006-.573.467-.956.988-.988zm-1.23 5.2c.115.48-.053.33-.93.59-.48.143-1.242.464-2.033.864-1.16.584-1.483.9-1.896.834-.33-.072-.706-.213-.81-.545-.402-1.324.678-2.676 3.19-3.602.522-.192 1.456-.35 1.776-.385.854.003-.058 1.315.702 2.246zm1.486-1.992c1.213-.018 1.44 1.595.533 1.877-2.128.552-1.95-1.878-.533-1.877zm-1.498 5.94c.342.327.39.866.006 1.145-.7.347-3.396.052-3.414-.705-.01-.498.892-.668 1.73-.684.834-.015 1.405-.02 1.678.243zm121.656.827l-2.222 2.97 2.98 7.458 2.72-9.03-2.138.845-1.34-2.243zm-125.62 7.662c.513 22.97.425 75.606.425 75.606l6.537 4.443 6.883-4.947c-.07-16.567-.137-27.997-.2-43.335l10.085 5.54s.31.446.263 2.52c-.697 5.723 4.84 9.438 8.512 7.18 1.418-.597 1.533-.7 1.832-.254.825 1.232 1.757 6.505 1.91 9.87.234 5.067 1.568 15.4 1.892 15.473l-16.416 27.813-25.59.125-.293-103.44c1.328 1.564 1.934 2.592 4.158 3.407zm95.253-2.216l-1.23 1.883-1.485-.003 2.604 9.613 3.154-9.4-1.738-.215-1.305-1.877zm-82.197 76.665s-3.195 2.293-4.215 2.95c-.537.202-.797.24-.924-.27-.157-.633.095-1.825.316-3.8.205-1.82.203-1.925-.1-4.52-.316-2.716-.354-2.83-.098-6.413.287-3.996.342-7.877.024-10.28-.3-2.282-.297-7.49-.065-10.398.28-3.562.188-6.685-.275-9.267-.832-4.604-.97-6.19-.104-9.653.323-1.298.485-1.986.418-4.158-.074-2.414-.12-3.2-.984-8.547-.496-3.077-.535-3.5-.067-8.368.094-.982.125-1.642.5-1.95.438-.366 4.99-.632 4.99-.632l.583 75.305zm-11.98-74.36l4.963-.056c-.384 1.553-.47 2.735-.51 3.858l-4.407-2.896-.045-.907zm.072 1.983l4.362 2.85c.006 1.202-.084 2.35.09 3.55l-4.424-2.937-.028-3.462zm.008 4.523l4.67 3.19c.184 1.245.562 2.503.71 3.62l-5.296-3.584-.084-3.225zm151.025 1.258l.246 91.72-46.49.206-14.734-28.31s.15-2.604.514-3.934c.44-1.604.56-1.957 1.176-2.03 1.654.854 3.498-.283 4.062-1.537.694-1.543-.713-3.88-2.87-4.388-.954-.227-1.995.2-3.046 1.005-.61.51-.748.567-.87.125-.272-1 .614-3.718 2.2-6.048.883-1.297 1.12-1.67 1.405-1.176 1.154 1.995 3.632 1.58 4.57.454 1.137-1.363.9-4.473-1.676-5.297-5.038-1.613-7.352 3.442-7.288 3.432l-1.078-6.063c6.066-1.486 9.566-2.013 11.494-3.85 1.516-1.447 2.238-3.95 2.05-6.177 0 0 16.852-6.844 24.737-11.094 13.577-7.316 25.598-17.038 25.598-17.038zm-25.657.664l-1.246 2.19-1.768.003 3.576 9.256 2.73-9.66-1.705.148-1.587-1.936zm-125.15 2.657l5.352 3.687c.117 1.2.27 2.267.11 3.623l-5.634-3.727.172-3.584zm104.402-1.134l-1.332 1.768-1.534-.162 3.01 9.166c.914-2.65 1.748-6.246 2.65-8.898l-1.423.068-1.372-1.942zm-104.495 5.846l5.537 3.666c.02 1.133.073 2.2-.32 3l-5.225-3.353.008-3.313zm114.87.53l-1.344 2.583-1.79-.242 3.2 8.783 3.5-8.703-2.167.116-1.4-2.54zm-114.86 3.74l4.8 3.525c.07.05-.268 1.606-.19 2.49l-4.566-2.814-.045-3.2zm.13 4.36l4.478 3.074c.01 1.166.09 2.264.273 3.256l-4.86-3.156.11-3.174zm-.078 4.444l5.176 3.684.274 2.96-5.482-3.446.033-3.198zm42.606 1.234c4.968 1.853 9.623 11.295 9.48 23.523-.1 8.487 2.465 20.604 2.418 20.465 0 0-1.44.193-1.85-.127-1.87-6.23-2.494-12.82-2.79-18.25-.24-4.53-.5-8.977-.788-10.015-.816-3.652-1.7-7.914-4.035-10.69-1.82-2.095-3.895-2.46-5.135-.108-1.015 1.927 1.123 5.113 2.897 4.054.43-.24.687-.647.123-.637-1.842.273-3.08-2.274-1.914-3.49 2.054-2.14 5.646 2.628 3.98 5.25-.735 1.136-2.653 1.335-4.19.917-3.416-1.652-4.272-5.695-3.13-8.36.874-2.034 2.788-3.247 4.935-2.53zm-6.01 1.212c.404.02.13.765-.244 1.925-.88 2.782.77 7.104 3.054 7.967.686.465.647.643.19.897-1.49.84-4.194-1.673-4.91-4.47-.516-2.023-.39-4.412.585-5.426.532-.556.954-.847 1.24-.888.03-.002.06-.004.085-.004zm-36.648 1.642l5.525 3.61c.258 1.127.145 2.328-.027 3.54l-5.533-3.853.035-3.296zm33.348-.045c.41-.016.258.673.144 1.925-.265 2.902.637 5.014 2.688 6.766.863.74 1.102.973.73 1.36-.528.55-2.044-.188-3.23-1.426-2.177-2.27-2.897-6.55-1.202-8.1.368-.34.655-.52.87-.525zm61.47.5c2.36-.092 4.355.824 4.574 3.712.32 4.225-3.615 6.535-6.363 4.108-2.46-2.436.034-6.248 2.89-4.46 1.435.903-.278 2.966-1.44 1.9-.52-.48-.753-.184-.38.372 1.123 1.678 3.334.283 3.176-1.193-.31-2.904-3.88-2.866-5.223-1.73-1.838 1.555-3.457 3.846-4.664 5.516-.99 1.447-1.204 1.41-1.058-.38.387-4.73 4.805-7.7 8.488-7.845zm-64.312.925c.377-.012.23.526.256 1.916.152 3.57 1.656 5.794 3.566 7.036.64.707-.18 1.207-1.384.864-2.74-.844-5.54-6.733-3.22-9.268.33-.355.587-.54.782-.547zm-2.664 1.17c.38-.024.164.765.2 2.255.075 3.133 1.046 4.64 3.376 6.55.76.624.854.555.553.9-.797.92-3.502-.384-4.654-2.26-1.372-2.233-1.574-5.604-.298-6.876.357-.357.623-.556.822-.568zm-2.653 1.51c.315 0 .14.567.19 1.92.116 3.282.866 4.907 2.948 6.425 1.31.953 1.627.668 1.227 1.045-.7.662-2.617.095-4.057-1.12-2.154-1.818-2.76-6.308-1.01-7.845.315-.273.54-.426.703-.424zm-25.094.463l5.312 3.68-.15 3.11-5.283-3.577.12-3.212zm92.853 5.83c-2.162-.443-2.98-2.005-2.718-3.772.088-.59.433-.93.804-.156.317 1.225 1.135 2.924 2.254 3.254.448.132.073.757-.34.673zm-46.494-3.67c2.438 6.136 2.395 12.843 2.8 19.18.536 8.422 2.025 14.096 2.515 15.05 0 0-2.38.027-2.5-.315 0 0-2.247-11.17-1.91-16.692.024-6.182-1.18-11.612-1.913-14.055-.78-2.166-.812-.737 1.01-3.168zm-46.39 2.396l5.11 3.34c-.073 1.143-.085 2.285-.068 3.43l-5.01-3.545-.03-3.226zm68.7-.285c.006.185.74.34 1.89.062 1.28-.31 2.557-.256 3.538.017 1.045.284 1.16-.053.216-.464-.462-.2-1.193-.658-2.294-.64-1.098.02-3.358.618-3.35 1.023zm20.695-.13c.126.23.515.744.86 1.146.66.765.844.77.544 1.08-.688.717-2.135-.322-2.29-1.647-.135-.972.35-1.584.887-.58zm-45.745.26c2.385 3.4 2.738 11.377 2.787 17.045.043 5.105 1.77 14.46 1.91 14.418-.492.29-1.152.188-1.773-.05-.614-.8-.99-3.042-1.702-9.108-.186-1.563-.545-6.543-.627-10.553-.07-3.537-2.046-11.19-2.046-11.19s.767-.548 1.45-.562zm-2.656.85c2.175 4.853 2.528 9.67 2.626 15.52.092 5.527 1.32 12.007 1.785 14.866-.733.075-1.51.137-1.815-.193-.194-.268-.352-.688-.446-1.23-.99-4.782-1.23-9.98-1.512-14.383-.426-6.815-.534-8.504-1.502-11.9-.547-1.93-.74-1.89-.325-2.26.314-.284.916-.425 1.19-.42zm24.448 1.116c.06 2.258.352 1.338 1.147.98.6-.053 1.093.275 2.207.687 1.423.52 1.293.697 2.293.207.615-.303 1.107-.408 1.402-.168 1.168.95 2.676.414 3.523-.354.662-.346 1.385-.157 1.944-.104.81.074.6-.44.697-1.463.09-.905-.257-.985-1.194-.68-.96.313-1.91.357-2.745.103-2.13-.648-3.688-.227-4.745-.06-2.494.392-2.627.14-3.19-.22-.423-.267-1.118-.757-1.36-.743-.238.016-.158.834.023 1.816zm22.13-1.037c.235-.122.345.2.675.63.554.722.715 1.06.252 1.127-1.227.177-1.53.05-1.487-.713.033-.607.167-.846.56-1.045zm-49.14 1.07c1.796 1.812 2.253 11.974 2.458 14.16.647 11.855 1.772 13.558 1.194 14.448-.682-.013-.918.24-1.362-.355-1.54-4.342-1.45-8.805-1.7-13.334-.352-6-.946-9.25-1.79-12.224-.562-1.978-.555-2.01.46-2.554.178-.096.576-.146.74-.14zm-2.424 1.43c.634 1.438 1.904 7.983 2.078 13.634.138 4.486 1.207 13.26 1.406 13.306-.654.06-1.438-.072-1.758-.568-1.96-8.646-1.336-17.03-3.604-25.727.136-.423.855-1.118 1.878-.646zm-35.935 1.066l5.298 3.8.113 3.24-5.407-3.835-.004-3.204zm78.75-.41c-2.99 1.16-3.765 2.114-3.294 2.95.396.705 1.586.46 4.773-.87 2.38-.995 3.128-.563 3.61.937-.023 2.216-2.173 2.474-3.386 2.17-.52-.02-.443.027.113.722 2.465 1.936 5.49-1.85 3.98-4.246-1.175-2.193-3.216-2.818-5.796-1.663zm-18.777.9c-2.47 1.938-1.586 5.426.47 5.948.57.29 1.422.154 1.758-.065.308-.206.306-.538-.325-.645-1.906-.315-2.99-1.715-2.068-3.133.896-1.377 2.552-1.113 5.738.26 2.754 1.188 3.96.82 4.285-.604.145-.63-.03-1.22-1.352-1.27-3.677-.133-6.114-2.37-8.505-.492zm33.035 5.342c-.164-1.004-1.797.024-2.88 1.805-1.062 1.752-1.175 2.002-1.392.184-.322-2.71 2.492-4.83 4.246-4.897 2.112-.244 3.502.938 3.557 2.3.108 2.68-3.094 2.707-3.532.608zm-93.126-1.603l5.61 3.854s.19 2.062.07 3.175l-5.636-3.604-.044-3.425zm67.373 1.295c-2.438 1.654-1.006 4.677.7 5.017 1.802.356 1.927-.898.138-1.27-.955-.376-1.2-1.285-.828-1.988.854-1.397 2.433-.493 3.35-.06 2.036.97 3.093 1.323 3.734.653 1.143-1.19.122-3.312-1.388-2.564-.406.202-.713.395-1.578.18-1.317-.276-2.895-.57-4.13.03zm-67.324 3.287l5.52 3.777-.17 3.342-5.18-3.803-.17-3.316zm.114 4.593l5.19 3.698c-.075 1.412-.04 1.976.017 2.873l-5.25-3.388.044-3.182zm91.804.713c4.162.405 2.783 5.188-.125 3.896-.774-.583-1.008-.536-1.868 1.56-1.103 2.683-1.37 2.466-1.22-.635.112-3.033 1.506-4.8 3.213-4.822zm-32.8.726c.1 0 .18.02.23.058.277.314-.565 1.562-1.28 2.296-.527.348-1.81-.59-1.498-1.044.362-.443 1.878-1.242 2.548-1.31zm5.555 2.462l-.744.107c-1.124-2.505-3.458-1.932-4.18.394l-1.026-.117c1.037-2.85 4.733-4.598 5.95-.385zm20.96.573l-1.258.074c-1.13-2.716-2.73-3.122-4.086-.44l-.978-.282c1.68-3.428 4.488-3.703 6.322.647zm-6.295-3.098c.646-.04.562.258-.108 1.174-.584.798-.726.923-1.312.488-.96-.715.637-1.608 1.42-1.66zm5.967.08c.123.008.266.02.43.06 1.297.32 1.893.935 1.256 1.724-.395.493-.782.688-1.042.356-.877-1.444-1.362-2.183-.643-2.14zm-19.607.853c.137.54-.29.92-.764.473-.193-.182-.36-.49-.338-.72.3-.28 1.008-.047 1.102.247zm-65.637 1.847l5.34 3.832c.173 1.352.21 2.376.202 3.298l-5.496-3.64-.045-3.49zm77.804 1.16c3.074 2.108 6.68 2.08 8.937.23.505-.412.943-.433.95-.033-.318 1.477-4.24 3.37-7.304 2.297-1.682-.59-3.063-1.173-4.168-2.745-.657-1.022.695-.363 1.586.253zm-1.3 1.03c4.493 3.876 8.064 2.798 10.77.845.4-.1.407.26.497.928.114.857-.597 1.28-2.544 1.865-3.764 1.127-8.18-.106-8.975-2.633-.09-.497-.282-1.14.253-1.006zm-76.522 2.32l5.41 3.712-.173 2.837-5.272-3.564.034-2.985zm.086 4.347l5.108 3.463-.018 2.348-4.97-3.54-.12-2.27zm37.105 1.1c21.793 4.933 37.24 2.59 52.396-.082l13.43 26.338-80.926.107c5.284-8.557 9.68-17.917 15.1-26.363z"/><path d="M78.997 29.067l4.033 7.538.008.354 2.23 4.353.335.216.502.947.058.46 1.244 1.99-.01.43 5.28 9.818c4.355-1.626 40.125-4.553 53.37.235l1.93-3.27.46-.003 3.402-5.968-.056-.503 1.145-1.306.165-.594 3.754-5.874.014-.946 4.694-7.826-82.56-.053zm80.993 1.127s-2.45 4.707-3.71 6.608c-1.022-.806-3.98-.26-3.807 2.862-4.826-1.828-5.987 3.928-2.258 5.224-1.914 1.672-3.744-.22-5.195-1.5-1.42.352-4.368 1.395-6.037-1.677 0 0 .697.378 1.394.787 3.947 1.2 4.266-4.126 1.33-4.997-.37-.098-1.066-.137-1.066-.137.99-4.096-5.347-5.525-5.468-.604 0 0-.752-.124-1.324-.02-3.358.61-2.59 5.563.845 5.327.473-.033.896.052.896.052-.058.792-4.212 2.31-7.206-.42-1.418 1.08-3.666 2.436-6.596-.26 1.928-.08 3.774-.627 3.754-2.812-.014-1.42-1.293-2.69-3.135-2.758-.105-1.588-1.287-3.104-2.824-3.22-1.877.108-2.836 1.622-2.85 3.22-1.595.165-3.087 1.57-2.742 3.183.468 2.2 2.163 2.47 4.1 2.052-2.355 3.782-6.187 1.81-7.366.604-1.405 1.31-3.856 3.087-6.88.66 1.61-.275 3.4-1.22 3.1-3.467-.238-1.77-2.226-2.295-3.09-2.2 0-1.17-.884-3.1-2.97-2.9-2.272.218-2.14 3.095-2.11 3.116-1.88-.155-3.242 2.055-2.708 3.464.652 1.718 2.02 2.25 4.527 1.787-2.928 2.747-4.787 1.683-6.385 1.105-1.414 1.48-3.3 1.96-5.238.646 4.33.207 3.644-7.445-1.494-4.67-.442-1.438-1.104-3.205-3.795-2.792L80.62 30.54l79.372-.346zm-40.352 7.543c.21-.01.433.035.65.146.678.346.805.945.39 1.834-.144.312-.353.67-.318 1 4.768 8.792 15.28 4.862 16.27.777.062-.26-.057-.543-.193-.82-.403-.672-.35-1.223.177-1.684 1.116-.98 2.723.177 2.073 1.5-.172.35-.352.73-.223 1.197 2.7 6.127 8.074 6.588 12.584 4.163-2.078 3.72-10.13 6-13.512-2.956-5.398 7.296-13.963 7.157-17.85-1.08-3.497 8.426-14.044 8.626-17.884 1.627-3.494 8.008-11.598 6.19-13.895 1.18 7.528 5.447 12.487-.24 13.38-2.664 0 0-.175-.283-.415-.52-.963-.944-.937-2.058.062-2.498 1.277-.565 2.478.662 1.82 1.866-.186.34-.348.41-.227.702 2.342 5.46 13.88 7.048 16.217-.61.08-.44.035-.845-.164-1.176-.548-.914.15-1.945 1.058-1.983zM85.956 40.83c1.82.103 1.312 1.667.947 1.786l-.947-1.787zm67.578.974c.014.03-1.12 2.027-1.12 2.027-.603-.957-.446-2.152 1.12-2.026zM147.382 51.9s-1.162 2.57-1.545 2.786c-21.557-5.522-51.635-.722-52.375-.188l-1.324-2.494c18.9-3.777 37.746-2.97 55.244-.104zm-36.414 38.197c-2.082 8.027-7.12 8.845-13.207 9.82-7.536 1.21-12.448-1.537-14.745-5.73 0 0-10.78 4.07-14.715 6.437 8.18 3.746 18.986 12.045 25.13 21.465 2.187 2.872 2.077 2.223 2.073 8.524-.008 13.664.023 18.744.023 18.744 3.375.506 3.56 2.826 3.375 5.434 2.71-1.197 5.316.27 5.306 2.822-.02 4.7-4.64 3.422-5.596 2.904 1.5 4.14-.263 5.854-2.062 6.06-2.22.25-4.762-.815-4.02-5.556-2.418.938-5.48-.77-5.904-3.62l-.12-4.833c5.98-11.253-1.526-20.4-8.575-23.41 0 0 1.995-4.122 4.573-5.278.262-.08-1.563-2.758-4.635-2.174-1.412.03-1.084.02-2.414-1.707-2.627-3.41-3.865-3.645-6.426.005-1.127 1.607-1.396 1.652-2.73 1.68-1.47.03-3.723 1.085-4.205 2.027-.108.216.467.437 1.23 1.328 1.102 1.287 2.8 3.054 2.533 4.853-5.808 2.36-15.437 12.725-5.31 25.99l-7.322.096-.35-47.23-5.092 2.833.227 36.994-1.452-.48c.11-11.8-.065-23.592-.438-35.387l-13.426 9.78.598 55.473 1.43.304c1.06 7.557 16.03 2.27 16.906 2.928l.178 30.822-.653 1.528 11.914 6.51 10.928-5.665s1.475-.267 2.027-.558c4.53-2.39 7.907-1.852 10.37 1.65 1.52 2.16 1.777 2.48 1.777 2.48.92-6.232 6.448-8.53 11.81-6.902 3.943 1.198 9.333 5.13 10.98 9.926 0 0 .297.72.59 1.047l.228.1c-.015-.126-.263-.725-.354-1.016-5.53-12.7-21.113-14.646-23.518-4.27l-2.205-3.093 11.603-7.115 15.855 10.433s-.746 3.668-.83 5.252l.272.127c.078-.198.19-.96.26-1.438.253-1.732.712-3.188 1.335-4.3.375-.67.81-1.217 1.297-1.622.947-.55 1.824-.492 2.785-1.396l-2.314-1.73-.05-5.555 4.65 6.518c1.464-.338 7.163-2.04 10.544-.154.38.117 5.338-1.295 8.424 5.62l14.862-6.173s.946-.532.957-.673c-14.82-5.468-29.78-24.826-28.342-25.14 0 0-.045-1.985.07-6.858.12-5.434.055-10.98.146-16.43-5.043-1.608-3.788-5.674-3.788-5.674-3.03.664-3.517.076-4.283-.457l-.523-5.145c1.818-1.547 2.91-1.69 5.158-1.197 0 0-1.09-2.234-.098-4.074.834-1.453 3.057-2.37 4.832-1.348 2.293 1.562 1.562 4.838 1.233 5.295 2.385-1.067 5.3.122 6.017 2.48.356-6.973.963-14.776 2.362-20.856 2.578-10.977 6.804-22.47 12.093-31.508.864-1.51 1.97-3.023 2.86-4.438.828-1.258 1.224-2.073 1.224-2.073s-1.133.623-2.33.957c-1.723.467-3.018.91-3.215 1.106-1.26 1.062-2.91 1.848-4.262 2.435-4.76 1.852-7.96-.91-9.936-5.13-1.1 5.357-6.01 9.892-13.25 7.074-4.092-2.172-5.38-3.56-9.205-9.225-.32-.578-1.15-1.244-1.15-1.244h.006zm.156.875c2.71 5.354 6.762 9.146 10.7 10.662 7.036 2.306 11.675-2.198 12.982-6.336l1.357 2.3-10.65 7.56-16.07-10.216c.27-.247 1.706-3.847 1.68-3.97zm48.366.37l-4.77 2.81s-3.17 5.113-4.232 7.04c-5.566 9.83-9.746 20.522-11.925 31.135-.88 3.885-1.813 10.98-2.127 14.393-.496 5.443-.473 7.68-.33 12.667l.373.406s-.585 1.025-1.005 1.892c-1.14 2.35-1.418 3.678-1.348 6.4.158 6.27 3.97 12.272 9.354 14.716.305.14.708.315.708.315s-.924 2.496-2.598 4.254c-1.117 1.17-1.356 1.228-.963 1.804.55.804 2.324 1.5 4.527 1.468.778-.013.772-.015 2.215 1.557 2.81 3.06 3.656 3 6.218-.474.762-1.03 1.193-1.28 2.305-1.308 1.636-.037 4.62-1.356 4.607-1.975-2.015-.892-4.346-5.486-3.976-5.535 11.01-5.824 13.34-17.896 5.302-26.773l7.678-.123.283 48.16c1.504-.998 4.9-3.145 4.9-3.145l-.11-37.478c.527.1 1.066.478 2.093.645l.303 35.434s.998-.404 1.867-.972c4.29-2.826 12.69-9.363 12.69-9.363l-.286-54.608h-1.123l.18 54.582-13.036 9.517-.084-33.922s1.03-.152 1.414-.207c3.816-.533 5.582-5.398 3.05-8.576-.896-1.127-.26-1.047 1.65-1.414 3.39-.3 5.267-2.858 4.282-4.686-.424-.783.127-.7.483-1.443.233-.587.19-1.312.09-1.886-.134-.756.176-1.09.366-1.57.302-.754.01-1.606-.49-2.315-.526-.747-.38-1.55-.387-2.046-.022-1.11-.425-1.27-1.6-2.34-.888-.81-.175-.986 1.132-1.658 2.057-1.06 2.2-4.804-.537-6.398-1.46-.852-4.12-.783-9.887.127-2.186.346-4.752.576-4.752.576s-.02-21.352-.17-32.354L159.49 91.34zm0 .753s11.705 6.85 11.61 7.04c-3.93 5.385-18.592 26.835-18.696 52.774-10.753-1.35-15.154 7.055-15.677 7.024-1.412-31.75 11.474-54.47 18.076-64.11l4.687-2.73zm-7.384 4.18l-.036.775-2.32 3.465-.062-3.465 2.418-.776zm-3.584 1.206l.086 5.583-4.752 3.63-.278-5.823 4.944-3.39zm-44.047 1.277l2.44 1.688-.083 5.54-3.678-6.69 1.32-.538zm66.852 1.867l.02 4.008c-9.37 13.215-14.287 28.312-15.79 47.43l-2.28-.075c.603-19.01 7.004-36.357 18.05-51.363zm-63.457.41l5.778 3.775-.25 6.316-5.247-3.364-.49-1.294.21-5.434zm34.99.27l-.022 5.873-4.465 3.314-.207-5.83 4.695-3.356zm-54.113 1.535c.662.01 1.19.49 1.313 1.405.49 3.904 3.463 2.777 4.168 3.95.27.4-.364.75-2.397.585-3.728-.28-6.446-3.295-4.54-5.28.49-.45 1.004-.665 1.457-.66zm25.766 2.518l4.937 3.145-.015 6.488-4.838-2.95-.084-6.682zm22.52.018l.382 5.738-5.402 3.592-.192-5.7 5.214-3.63zm10.282.024l-3.102 6.604-18.1 13.02-15.02-9.727-2.788-6.373 17.525 11.433 21.485-14.957zm-48.808 2.622c4.81-.06 8.5 5.047 9.764 9.52.92 2.957 1.06 4.02 1.155 8.717.1 4.782.25 5.608 1.146 6.284.554.416.714.304.783-.543.154-1.878 2.402-.72 2.44 1.26.044 2.2-2.376 2.907-4.167 1.217-.953-.898-.965-.892-1.264.877-.2 1.186-1.578 8.6 1.946 10.442.664.062.822-.47.33-1.088-.99-1.244.986-2.678 2.6-1.887 1.945.958 1.75 4.095-.33 5.21-2.38 1.276-5.456-.174-6.895-3.248-1.055-2.256-1.05-5.385.02-10.03.493-2.144.71-3.507.82-5.148.035-.54.1-1.127.142-1.308.115-.5-.133-.524-.984-.094-2.327 1.172-4.866.338-5.493-1.807-.748-2.564 2.11-5.216 3.877-3.593.67.615.588 1.228-.213 1.62-1.388.686-.913 2.483.563 2.128 4.862-1.455.418-15.1-5.06-16.045-3.62-.623-6.46 3.5-3.842 5.705 1.026.865 2.07.4 1.845-.82-.312-1.702 1.95-1.52 2.785.228 1.36 2.84-2.15 5.15-5.436 3.578-5.89-3.5-1.86-11.068 3.473-11.174zm21.804 1.084l4.854 3.258.04 6.332-4.817-2.857-.076-6.734zm10.69.546l.02 5.813-4.68 3.404v-6.187l4.66-3.03zm12.61 3.81l-2.395 6.672-15.11 10.334-12.466-7.815-2.146-6.172 14.686 9.515 17.43-12.533zm-98.068.486l-.004 33.77c-4.896.21-7.707 5.052-4.04 9.626l-1.386.19c-3.312.452-5.53 2.208-5.092 4.337.135.65-.002 1.31-.19 1.636-.294.875-.216 1.543.18 2.298.313.592.262.83.085 1.268-.375.943-.284 1.672.156 2.39.546.534.397.966.32 1.82-.087 1.208.13 1.694.892 2.165.982.604 1.35 1.6.232 1.518-.555-.04-2.504 1.838-2.504 1.838l-.185-54.192 11.537-8.662zm26.55 4.333c.874 0 1.776 1.1 3.073 2.956.783 1.332.797 1.15 2.588 1.08 1.83.133 2.943.617 3.422 1.17.183.21-.3.264-1.457 1.438-1.2 1.218-1.365 1.7-2.164 3.064-.287.492-.912.537-1.205.09-.238-.363.368-1.543 1.508-2.934 1.604-1.55 1.27-1.705-1.066-1.46-1.64.17-1.814.09-2.438-.905-1.854-3.692-2.842-3.567-4.618.112-.484 1.028-.293.963-2.396.8-1.656-.126-2.065.292-1.133 1.16 1.46 1.197 2.027 4.023 1.947 3.988l-1.127.104s-.345-.637-.494-1.037c-.308-.812-1.127-2.03-2.02-2.994-1.263-1.363-.568-2.11 2.25-2.414 1.57-.17 1.604-.19 2.33-1.25 1.272-1.864 2.12-2.968 2.998-2.97zm68.54 3.363l-1.627 5.762-12.89 9.037-10.485-6.996-1.39-5.418 12.044 7.63 14.348-10.015zm-44.442 4.563s3.728 7.258 5.078 11.96c1.177 4.09 2.812 15.938 2.38 16.667-.914-1.258-3.94-.975-3.98-.963.256-1.387-.865-4.184-3.447-4.738l-.03-22.926zm42.408 2.655l-1.287 5.67-10.974 7.937-9.057-6.186-1.19-5.48 10.023 6.692 12.485-8.63zm-63.806.315l1.424.496.27 10.245 10.98 1.824.25 1.753L75 141.443c-.134-4.37-.208-12.268-.208-12.268zm-5.572.308l.308 11.914c-.12-.04-9.154 1.248-12.61 2.153l.2-1.63s6.28-1.366 10.83-1.892c0-3.332-.025-6.836-.033-10.23l1.305-.315zm102.154 2.192s1.494.14 4.69-.426c8.242-1.44 10.476-.857 11.527 1.684 1.153 3.938-3.167 4.034-3.937 1.534-.49-1.62-2.26-1.268-8.17.136-5.054 1.196-8.257.237-8.193-2.625.064-2.946 3.418-3.205 4.084-.305zm-67.73-2.153c1.022-.017 1.862.8 1.878 1.817.015 1.02-.8 1.856-1.82 1.872-1.02.015-1.856-.797-1.872-1.815-.015-1.02.796-1.863 1.815-1.875zm-26.774.323l1.303.392s.19 7.77.23 7.785c2.8.616 8.68 1.72 8.68 1.72l.31 1.538c-2.46-.578-10.306-1.863-10.306-1.863-.244-3.37-.217-9.572-.217-9.572zm-9.5.146s.006 6.202-.1 9.534c.044-.03-6.656 1.065-10.06 1.77l.264-1.243c2.69-.605 5.62-1.216 8.584-1.837-.06-2.438-.057-7.79-.057-7.79l1.37-.432zm4.787 1.335c.817-.012 1.496.648 1.508 1.467.012.82-.648 1.486-1.467 1.498-.82.012-1.486-.64-1.498-1.457-.012-.815.64-1.496 1.457-1.508zm111.508 3.872c.912 1.35 1.678 1.31 2.574 1.178-.227.066-1.286.693-1.227.9.03.104-.447 1.812.277 1.88 2.734.267 1.352 3.105 1.68 3.542.738.844 1.28 1.377.77 2.428-.448.935-1.096.904-.593 1.703 1.09 1.64-.416 1.977-.283 3.092.092.674.33 1.594.08 2.117-.748 1.58-3.394 2.48-6.33 2.604-.42.02-.103-.665-.297-1.1-.728-.458-.33-1.23-.086-1.74.242-.67.244-.67-.206-1.013-1.255-.78-1.19-1.14-1.09-1.7.274-1.665.018-1.83-.484-2.075-.646-.315-.556-1.018-.27-1.918.196-.623.06-.778-.245-1.344-.18-.332-.23-.514-.235-.727.09-.86-.68-.857-1.758-.015-.916 1.574-1.23 3.644-1.804 4.95-.44 1.003-.512 2.052.017 4.364 1.012 3.537.26 4.127-3.722 3.37-2.99-.735-3.877-3.93-3.045-7.84.136-.633.1-1.243.037-1.74-.326-2.69.37-5.274 2.25-7.042 3.135-2.95 4.687-3.398 11.168-2.984 2.537.18 2.73.34 2.73.34s.014-1.22.092-1.23zm-46.688.81l-.754 5.482-6.088 4.294c-2.865-2.262-5.078-1.508-7.096.916-1.597-.81-4.79-3.018-4.79-3.018l-.816-6.22 8.85 6.14 10.693-7.595zm-64.69 1.302c.818-.014 1.49.644 1.5 1.462.013.815-.64 1.49-1.456 1.504-.817.012-1.495-.64-1.51-1.457-.01-.82.65-1.5 1.468-1.51zm63.673 5.613l-.336 5.28-2.164 1.626-2.178-.222-.515-3.27 5.193-3.415zm-63.71.043c.82-.012 1.497.648 1.51 1.468.01.818-.647 1.485-1.466 1.497-.82.014-1.488-.638-1.5-1.455-.012-.82.638-1.496 1.457-1.51zm5.97.164c.818-.012 1.486.64 1.498 1.457.014.818-.64 1.492-1.455 1.504-.817.014-1.492-.642-1.504-1.46-.015-.817.642-1.487 1.46-1.5zm-11.868.283c.818-.012 1.492.646 1.504 1.46.013.82-.64 1.493-1.457 1.507-.818.013-1.496-.645-1.51-1.463-.01-.818.644-1.492 1.462-1.504zm110.223.24c.418-.032 1.035.587.735 1.515-.4 1.06-.12 1.42.552 2.277.567.727.467.826.38 1.29-.128 3.05 1.835 1.732.982 3.948-.186.48.06 1.17.146 1.74-.19-.522-3.804-.476-4.11.057-.515-.078-1.165-3.472-.645-3.918.065-.002.442.582.637.91.484.82.59.79.438-.162-.6-3.783-.242-7.633.885-7.656zm-92.373.264c.817-.012 1.492.646 1.504 1.463.012.818-.644 1.486-1.46 1.498-.82.012-1.49-.64-1.5-1.455-.013-.817.638-1.492 1.456-1.506zm-24.005.275c.817-.013 1.485.645 1.498 1.463.012.817-.64 1.486-1.457 1.498-.818.012-1.496-.64-1.51-1.455-.01-.82.65-1.494 1.47-1.506zm58.12.428l4.44 2.88c.073.91-.044 2.21.255 2.65-2.897-.27-4.365 1.382-4.365 1.382l-.33-6.912zM72.738 147c4.86.036 9.57.813 13.945 2.23l-.344 1.562c-8.752-2.252-18.533-2.37-27.88.104l-.724-1.646c4.71-1.467 9.436-2.186 14.028-2.244.33-.005.65-.007.974-.005zM45.25 149.13c1.273-.022 2.577.453 3.493 1.48 1.723 1.93.895 5.51-1.54 6.646-3.646 1.703-7.442-1.937-5.894-5.688.642-1.56 2.303-2.41 3.94-2.438zm90.195.457l-.058 1.57-1.106-.924 1.165-.645zm-23.19.07c1.605-.022 2.928 1.267 2.95 2.872.023 1.606-1.26 2.928-2.866 2.95-1.608.023-2.93-1.26-2.952-2.864-.023-1.608 1.26-2.934 2.867-2.957zm-66.924.094c-.392.005-1.042.165-1.34.438-.774.715.005.735 1.028.924 1.82.334 2.32 1.9 2.153 3.592-.15 1.54.368 1.516.784.943 1.698-2.324.25-5.707-2.623-5.898zm84.425.774c-.037.02-.08.047-.08.047.02.017.047-.003.08-.046zm-57.49.916c2.178-.045 2.405 3.532.48 7.532-.58 1.203-.874 1.054-1.51-.764-1.562-4.477-1.222-6.724 1.03-6.768zm5.035.102c.42-.02.826.14 1.16.52 1.17 1.333.27 3.492-2.848 6.816-.76.808-1.15 1.115-1.43 1.12-.78.017-.775-.112.108-2.997.39-1.27.777-2.668.856-3.1.263-1.387 1.23-2.31 2.154-2.358zm-7.877 3.2c.21.99.584 2.37.824 3.065.238.694.397 1.354.356 1.465-.19.535-1.582-.19-2.573-1.342-1.998-2.32-2.793-4.338-2.382-5.422.605-.866 2.156-1.252 2.87-.493.74.783.848 2.462.905 2.728zm13.77-2.308c2.106 1.24-.32 4.077-5.04 6.43-2.02 1.007-1.874.554-.344-1.433.585-.76 1.37-1.997 1.753-2.753.848-1.672 1.696-3.342 3.63-2.243zm-21.026.01c.668-.007 1.352.708 2.62 2.544.564.817 1.482 1.98 2.042 2.587.558.606.997 1.21.976 1.34-.22 1.287-6.79-2.79-7.262-4.507-.162-1.047.662-1.983 1.623-1.965zm94.037 3.733c1.184 2.436 1.287 3.95.307 4.5-1.394.784-3.185-.41-3.22-2.145-.012-.582-.61-2.615-1.16-3.936-.45-1.088-.514-1.758-.143-1.812 1.453.234 3.604 2.247 4.217 3.393zm-7.865-1.85c-.458 1.393-.944 3.568-.94 4.2.003.25-.147.76-.33 1.132-1.202 2.478-4.05.456-3.003-2.132.944-2.332 3.348-4.76 4.295-4.84.647-.056.044 1.436-.023 1.64zm1.917-1.336c.476-.046.873.99 1.486 2.737.828 2.358.795 4.2-.1 4.983-1.915 1.68-3.923-.76-3.148-3.823.62-2.447 1.225-3.843 1.762-3.896zm-64.225.433c2.383 35.07-15.597 62.05-16.877 62.787l-6.117 3.346-10.73-5.846c11.12-15.248 17.767-32.723 18.27-53.018 10.287 1 15.578-7.232 15.454-7.27zm58.95.11c.75-.204.23.45-.517 1.524-.795 1.145-1.826 4.257-2.643 4.757-1.834.88-3.91-.8-2.797-2.26 1.025-1.342 4.036-3.49 5.958-4.02zm10.915.24c.287 0 .826.187 1.607.57 3.82 1.865 5.703 4.324 4.068 5.5-1.148.827-2.375.188-3.52-1.988-.39-.738-1.103-1.835-1.575-2.44-.86-1.1-1.06-1.64-.58-1.643zm21.475 1.25c2.455-.036 4.47 1.918 4.508 4.374.035 2.455-1.926 4.477-4.38 4.512-2.456.036-4.472-1.93-4.51-4.386-.034-2.454 1.927-4.468 4.382-4.502zm-1.354 1.152c-2.887 1.28-2.018 5.814.474 6.47 1.05.294 2.33-.145 1.803-.65-3.29-1.03-3.312-3.454-1.986-5.228.21-.286-.074-.688-.292-.592zm-120.316 6.238c-.113 2.562.44 5.535-.783 8.316-1.855 4.275-7.815 6.228-11 5.85-.663-.272-1.435-.53-2.09-.253-.394.168-.882.146-1.304-.05-.408-.188-.8.06-1.193-.083-.46-.312-1.215-1.02-1.127-1.547.146-.742.088-1.293-.78-1.537-1.206-.338-1.45-.988-1.095-2.896.077-.412.17-.598-.1-.776-.887-.597-1.225-1.695-.64-2.854.378-.666.674-1.14-.01-1.668-.27-.61-.224-.842.356-1.623.618-.738.73-.824.33-1.455-.892-1.422.118-2.47 1.32-3.057 1.608-.66 3.016-1 4.714-1.196.634.037.605.592.986 1.127.56.872-.23 2.13.225 2.575.66.305.96.91.907 1.43-.022 1.207.05 1.62.377 2.125.363.562.498 1.588.16 2.287-.3.623-.268.58.127.947.395.362.585 2.184.446 2.147l1.65-.148c-.17.184.622-3.404 2.505-6.18-.103-2.173-.93-4.17-.855-7.04 4.084-1.46 7.03 2.01 6.877 5.56zm63.39-4.884c.587.462 3.513 1.276 3.62 1.183-.092 1.4.76 4.12 3.81 5.03.036 3.903.004 21.93.004 21.93-4.247-7.117-6.88-16.303-7.435-28.144zm-71.033.635s.16.52.31 1.523c.26 2.05-.02 2.33-.565.928-.64-1.64-.672-.36.047 3.395.175.91.168 1.122-.057 1.737-.14.385-.39 1.28-.584 1.98-.573 2.062-.91 2.653-1.5 1.014-.3-.837-.55-.968-.337-1.622.27-.82.205-1.436-.336-2.234-.088-.13-.28-.43-.316-1.276.167-1.904-.68-1.924-.847-2.416.027-.744-.32-2.552.193-2.502.422.04 1.948.082 2.672-.185.32-.118 1.32-.34 1.32-.34zm63.298.237c1.576-.023 2.87 1.238 2.896 2.813.024 1.576-1.238 2.87-2.814 2.896-1.575.024-2.877-1.23-2.9-2.81-.024-1.576 1.24-2.876 2.818-2.898zm-44.092 1.74l2.164.41c.482.16.13 29.995-17.188 51.528l-.15-4.988c8.24-11.927 14.174-26.554 15.174-46.95zm36.696.627l.395 7.126c-1.22-1.035-4.312-2.976-4.288-3.017l.013-2.638c0 .007 2.658.206 3.88-1.473zm-16.68.096c.52.22.976.725 1.423 1.09l-1.414.953-.01-2.044zm49.58.36c9.34 2.77 18.542 2.69 27.64.664l.623 1.743c-9.87 2.677-19.683 2.52-29.43-.588l1.166-1.82zm-45.254 1.334l.5 3.073-5.272 3.412.258-4.666 2.748-1.784 1.766-.036zm46.68 2.56c.852-.014 1.553.67 1.563 1.52.016.855-.67 1.554-1.52 1.566-.854.012-1.55-.672-1.562-1.522-.01-.85.668-1.553 1.52-1.564zm24.006.127c.854-.012 1.553.67 1.566 1.523.012.852-.673 1.553-1.523 1.563-.85.012-1.55-.67-1.562-1.522-.01-.85.667-1.552 1.52-1.563zm-44.963 4.795c.69 2.437.542 7.94-.347 11.672-.27 1.12-.43 5.103-.43 5.103-.165.207 5.292-4.52 7.046 1.68.603 2.13-1.85 4.148-3.49 3.56-.318-.115-.224-1.17.082-1.79.91-1.855-1.685-2.817-3.162-1.176-3.416 3.794.098 13.4 5.455 14.333 4.444.775 8.012-3.65 5.043-6.29-1.298-1.152-3.373.438-2.423 1.905 1.015 1.568-.854 2.195-2.268.74-2.467-2.535.303-6.353 4.025-5.47 5.953 1.354 4.73 10.658-1.515 11.185-4.77.4-7.985-1.68-10.004-5.365-1.896-3.543-2.037-6.367-1.17-12.58.517-3.688.092-6.795-.934-6.772-.563.012-1 .28-1.09.94-.182 1.353-.338 1.604-1.184 1.113-1.074-.624-1.672-2.632.084-3.99 1.803-1.392 4.137.782 4.04 1.155.044-.068.227-.422.468-2.002.787-5.146-.96-10.584-3.12-9.713-.476.19-.416.405.202.754 1.44.81.17 2.883-1.637 2.674-2.56-.297-3.14-3.867-.887-5.445 3.557-1.916 6.45 1.08 7.215 3.78zm-17.465-4.286s4.54 2.77 4.78 3.48c.154.454.34 4.427.34 4.427l-7.88-4.932-11.294 6.982c.188-1.533 1-5.48 1-5.48l6.005-3.8c.03.23 4.155 2.953 7.05-.676zm56.4.265c.852-.014 1.552.67 1.563 1.522.014.854-.666 1.553-1.52 1.566-.85.012-1.552-.666-1.562-1.52-.013-.85.667-1.556 1.518-1.567zm-12.022.024c.852-.014 1.557.666 1.567 1.52.015.85-.676 1.558-1.526 1.568-.852.012-1.547-.672-1.562-1.522-.01-.854.667-1.554 1.52-1.566zm6.043.348c.854-.013 1.56.672 1.57 1.522.01.852-.67 1.553-1.523 1.564-.853.014-1.553-.67-1.564-1.52-.012-.85.664-1.552 1.516-1.566zm-15.132 2.187c4.09.85 8.188 1.726 12.11 2.155l.16 12.035-1.146-.066-.164-10.754c-3.787-.27-7.36-1.084-10.718-1.95l-.242-1.42zm30.413.392l-.213 1.413s-7.075 1.226-10.772 1.7c-.06 2.425-.05 10.522-.05 10.522l-1.415.258-.007-12.252c4.197-.457 8.39-.928 12.457-1.64zm-68.474.678l8.33 5.508.98 5.836-9.714-6.453s-8.804 5.927-12.1 8.124l1.007-5.502 11.496-7.512zm38.455 1.09c3.355.71 6.71 1.447 10.062 1.734l.14 9.684-1.54-.41-.123-7.858c-2.62-.228-5.31-.732-8.016-1.306l-.522-1.844zm29.67.287l-.283 1.315s-5.366.81-8.137 1.306c-.246.057-.156 8.524-.156 8.524l-1.323.2-.157-9.884 10.055-1.46zm-15.036 1.084c.853-.01 1.55.673 1.562 1.523.012.852-.666 1.554-1.52 1.566-.85.01-1.552-.667-1.564-1.522-.013-.85.67-1.554 1.522-1.567zm-53.218 3.495l9.85 6.647s1.144 3.46 1.388 5.38l-11.334-7.316-14.183 9.4 1.642-5.81 12.637-8.3zm-59.695.203c.583.008 1.167.397 1.47 1.297.428 1.264 1.225 1.637 3.324 1.598 4.118-.22 8.438-2.156 12.327-.703 1.893.697 2.565 3.484.98 4.21-1.716.788-2.448.294-3.044-1.056-.55-.572-1.234-.482-4.93.15-1.627.266-3.54.502-5.15.633-4.117.332-6.39-.965-6.902-3.414-.325-1.565.952-2.73 1.925-2.715zm112.828 2.248c.853-.013 1.554.666 1.564 1.52.012.852-.67 1.557-1.523 1.568-.853.014-1.554-.67-1.564-1.52-.013-.855.67-1.554 1.522-1.568zm-30.173 1.88c1.107-.016 2.02.874 2.037 1.98.016 1.11-.873 2.02-1.98 2.037-1.108.016-2.016-.87-2.03-1.98-.02-1.107.863-2.02 1.973-2.036zm-22.946 1.406s8.103 5.414 11.854 7.916l2.076 5.96-13.806-8.978-16.893 10.988 2.028-6.127 14.74-9.758zm58.517 1.862c.733 1.98 2.067 3.49 3.48 5.02 0 0-.785 1.488-3.59 1.4-1.53-.05-1.61.19-2.134 1.23-.86 1.315-1.56 2.176-2.113 2.602-.98.756-2.82-.373-4.338-2.668-.553-.836-.78-1.033-2.445-1-2.56.053-3.483-.656-2.155-1.805 1.158-1.412 1.992-2.963 3.026-4.445l1.15.13c.05.173-.896 3.022-2.22 4.18-.674.76.27 1.034 1.913.687 1.044-.312 1.312-.19 2.085 1.406 1.61 3.044 2.446 2.897 4.356-.188.667-1.377.642-1.514 2.477-1.117 1.97.2 2.562-.05 1.754-.735-1.635-1.388-2.536-4.656-2.536-4.656l1.293-.04zm-58.447 4.078s14.658 9.602 14.62 9.393l2.937 6.92-17.202-11.44-21.02 13.668 3.147-6.853 17.518-11.688zm.565 6.305l5.11 3.36-.014 6.05-5.218-3.508.123-5.903zm-1.31.173l.096 5.97-4.583 2.73-.255-5.603 4.742-3.097zm-5.814 3.85l-.042.228.108.058.037.004.166 5.38-5.272 3.653.02-6.076 4.983-3.248zm13.5.062l4.805 3.207.197 6.4-5.215-3.413.213-6.195zm5.93 3.91l4.82 3.347.17 6.395-4.925-3.314-.064-6.427zm-25.5.025l-.024 5.905-4.795 3.35-.226-6.036 5.045-3.22zm50.71 7.623c-.953.992-1.303.87-2.117-.77-.846-1.698-2.112-2.493-3.95-2.462-2.318.04-.804-1.48 1.653-1.658 4.25-.186 6.406 2.663 4.414 4.89zm-56.836-3.465l.13 5.926-4.772 2.48-.146-2.81 2.457-4.296 2.33-1.3zm-6.153 7.92l.167 1.08-.883.34.717-1.42zm57.42 42.715c-20.077 4.295-39.327 2.776-53.142.22l-6.312 10.788-.436-.02-1.625 2.79.174.322s-5.245 10.064-7.454 13.238c25.806-.25 82.443-.373 82.443-.373l-3.452-6.94.19-.187-3.41-7.246-1.108-1.254s-.676-1.312-1.184-2.715c-.465-1.295-2.465-4.838-2.465-4.838l-.282.022-1.937-3.807zm-52.417 1.517c.27.21 25.72 5.008 52.103.08l1.442 2.414c-23.09 5.313-56.498.24-55.18-.255l1.635-2.238zm.44 4.748c2.328-.084 4.686 1.166 6.274 3.252.507.664 1.335 2.62 1.335 2.62s1.112-1.843 2.206-2.767c1.652-1.396 3.796-2.562 6.896-2.45 2.855.1 5.998 1.646 8.836 6.114.715-2.578 10.098-11.336 17.826-.414.883-2.902 5.02-8.7 11.715-4.648.458.98.93 2.055.93 2.055-3.952-2.768-10.468-.912-12.01 3.408-.136.527.038.8.243 1.312 2.035 2.91-3.264 2.842-1.693.485.293-.535.318-.977-.15-1.678-1.243-1.863-4.98-4.182-7.728-4.12-3.168.067-6.68 2.17-7.854 4.08-.435.706-.53 1.413-.15 2.028.275.62.182 1.143-.283 1.522-1.092.896-2.463-.137-1.938-1.46.346-.585.29-1.3-.416-2.294-1.42-1.992-4.733-4.094-7.618-4.035-4.127.097-8.297 3.068-8.033 5.517.116 1.076-.18 1.48-1.056 1.354-1.068-.15-1.19-1.158-.437-1.98.113-.262.293-.9-.05-1.366-4.36-5.896-10.886-4.176-12.382-2.857 1.456-2.492 3.484-3.605 5.538-3.678zm-3.88 4.09c1.636.016 3.396 1.25 3.956 2.217.402-.42 4.103-2.183 5.9.34-4.71-.354-4.768 4.645-1.287 5.125-1.588 4.82 5.527 5.112 5.076.584 5.317.788 4.66-5.952-.345-5.24 2.623-1.91 4.406-1.294 7.56.895 1.06-1.38 5.38-2.668 6.438-.26-4.95-.305-4.107 5.428-.41 5.48-1.098 3.974 6.176 5.435 5.055-.5 4.617.322 3.947-5.915-.477-5.4.33-1.134 4.82-1.624 6.804.544 1.824-1.665 3.836-2.806 7.474-.425-4.957-.826-5.02 5.61-.414 5.223-.43 4.263 6.08 4.334 4.992-.59 4.956-1.336 2.23-6.64-1.41-5.18 1.62-1.928 4.373-1.02 5.465-.627 3.374-3.86 6.313-.632 6.313-.632-5.87-.613-4.594 7.754 1.127 4.72-.006 1.722.734 3.212 3.068 3.456l2.777 5.746-78.69.52 4.343-7.637c.44.14 2.947.367 3.488-2.576 5.17 1.64 5.52-4.38 1.654-5.332.47-.324.997-.452 1.542-.45zm-3.07 2.18c.515.825.085 1.364-.8 1.387 0 0 .574-.836.8-1.387zM135.37 270l.508 1.07c-.55-.223-.617-.46-.508-1.07z"/></g></svg>