<svg version="1.2" baseProfile="tiny" xmlns="http://www.w3.org/2000/svg" xmlns:xlink="http://www.w3.org/1999/xlink" width="225" height="314" viewBox="0 0 225 314" preserveAspectRatio="xMinYMin meet"><defs><style type="text/css">use { fill: black; } .maxi-card { display: none; } .mini-card { display: block; } @media (min-width: 75px) { .maxi-card { display: block; } .mini-card { display: none; } }</style><path id="suit" d="M26.406 40.187c.015-1.98-1.56-2.017-1.542-.573-.133 7.257-6.31 10.83-10.8 9.982-6.92-1.307-9.128-8.13-9.06-12.148C5.203 25.046 17.773 15.9 29.115 0c8.31 14.35 22.028 25.623 22.84 36.717 1.08 14.75-17.712 20.25-20.395 3.06-.172-1.214-1.612-1.76-1.5-.063.408 4.71-.17 6.674 5.18 18.287H21.25c3.1-5.426 4.943-12.09 5.154-17.813z"/><path id="numeral" d="M0 32.008V29.27h2.66L8.326 0h3.224l6.24 29.27h2.148v2.738H12.62V29.27H14.6l-.787-4.484H6.427l-.57 4.484h1.978v2.738H0zm13.178-10.416L9.97 5.922l-3.007 15.67h6.215z"/></defs><rect width="100%" height="100%" fill="#fefefe"/><g class="mini-card"><use xlink:href="#numeral" transform="matrix(3.5 0 0 3.5 78.4 33.95)"/><use xlink:href="#suit" transform="matrix(2 0 0 2 55.5 170)"/></g><g class="maxi-card"><use xlink:href="#numeral" transform="translate(7 12)"/><use xlink:href="#suit" transform="matrix(.4 0 0 .4 6 51)"/><use xlink:href="#numeral" transform="matrix(-1 0 0 -1 218 302)"/><use xlink:href="#suit" transform="matrix(-.4 0 0 -.4 218 263)"/><path d="M108.862 223.515c-7.825-.004-14.295-.072-14.376-.15-.08-.078.557-.684 1.416-1.346 3.13-2.41 5.828-6.43 8.94-13.313 2.138-4.732 2.827-6.63 3.537-9.762 1.136-5.008 1.1-8.438-.107-9.883l-.578-.69-2.33 2.446c-2.59 2.72-5.96 5.04-9.722 6.684-4.12 1.8-6.785 2.377-11.31 2.445-3.568.053-4.336-.04-6.887-.834-6.438-2.004-11.655-6.594-14.693-12.93-1.83-3.814-2.3-5.93-2.387-10.785-.072-3.93.014-4.693.906-8.117 1.396-5.347 4.254-11.96 7.164-16.578 3.538-5.612 11.693-16.027 20.314-25.94 7.092-8.158 9.95-11.792 14.897-18.946 5.265-7.61 7.354-11.26 8.35-14.582.4-1.328.8-2.415.888-2.415.088 0 .604 1.318 1.146 2.93 2.155 6.415 7.733 15.196 15.82 24.906 1.44 1.73 5.632 6.653 9.317 10.942 12.064 14.047 17.158 21.12 21.658 30.072 3.484 6.932 4.86 12.275 4.695 18.248-.21 7.635-2.654 13.027-8.322 18.355-2.334 2.195-5.914 4.275-8.76 5.088-.88.25-3.262.575-5.293.718-6.084.432-10.617-.762-16.936-4.45-2.964-1.73-6.313-4.524-7.24-6.038-.747-1.225-1.32-1.146-1.882.256-.943 2.357-1.096 4.482-.52 7.314 1.79 8.834 7.52 20.148 12.44 24.568l1.99 1.787-3.956.004c-2.172 0-10.355 0-18.18-.005zm12.99-4.672c-1.542-1.232-4.884-5.992-6.538-9.312-1.72-3.452-2.246-5.987-1.76-8.483.2-1.025.438-2.24.527-2.703.106-.537-.12-1.38-.628-2.342l-.793-1.504-.888 1.69-.89 1.69.588 1.56c.864 2.296.657 5.632-.505 8.145-1.47 3.176-6.396 10.49-7.666 11.38-1.486 1.042-.826 1.01 2.005-.103 2.04-.8 2.69-.898 6.29-.932 4.14-.04 7.913.498 9.562 1.36 1.532.8 1.932.543.696-.445zm-5.933-2.066c-1.913-.418-6.73-.297-8.515.213-.79.227-.79.217.176-.875 1.327-1.502 2.167-3.092 3.737-7.09 1.21-3.074 1.365-3.318 1.65-2.596.172.438.86 2.282 1.525 4.1 1.168 3.177 1.893 4.505 3.3 6.032.737.8.78.795-1.873.215zm31.806-21.74c4.477-1.706 8.627-5.698 10.81-10.392 1.374-2.953 1.86-4.736 2.276-8.32.584-5.023-.264-9.53-2.996-15.928-3.61-8.456-8.686-15.408-19.29-26.43-16.124-16.756-20.12-21.97-23.913-31.208-.65-1.583-1.29-3.49-1.42-4.238-.132-.75-.335-1.357-.452-1.35-.115.006-.58 1.222-1.032 2.703-2.714 8.906-8.835 17.488-23.072 32.356-9.925 10.365-11.47 12.203-15.538 18.5-5.314 8.222-7.764 14.84-8.04 21.718-.432 10.846 5.25 20.117 13.9 22.674 5.29 1.564 12.552.295 18.272-3.19 4.596-2.804 6.936-5.116 8.705-8.605.568-1.12 1.086-2.1 1.15-2.178s.64.347 1.28.944c1.122 1.045 3.09 4.385 3.904 6.63l.39 1.08 1.056-2.522c.7-1.674 1.633-3.162 2.773-4.432l1.716-1.912 1.148 2.285c2.62 5.215 9.928 10.37 17.373 12.258 3.182.808 8.26.603 11-.442zm-8.514-.247c-2.71-.322-4.41-.842-7.238-2.21-7.434-3.6-11.354-7.603-12.113-12.366-.134-.838-.394-1.52-.577-1.518-1.092.016-4.594 4.072-5.8 6.717-.274.6-.624 1.092-.777 1.094-.153.004-.6-.605-.99-1.352-1.133-2.158-3.245-4.932-4.41-5.795-1.18-.87-1.175-.873-1.733.986-.598 1.988-1.823 4.387-3.018 5.902-1.218 1.55-6.374 5.223-9.02 6.43-5.947 2.71-12.95 2.738-17.657.07-4.032-2.285-7.05-6.518-8.552-11.992-2.123-7.74-.94-15.025 3.85-23.745 4.412-8.03 7.137-11.646 15.262-20.252 13.47-14.267 20.244-23.053 24.166-31.34 1.63-3.444 1.992-3.268 1.07.52-1.574 6.474-12.142 22.15-28.28 41.96-4.35 5.337-9.034 13.185-10.472 17.538-1.973 5.98-2.26 10.797-.932 15.72 1.89 7.003 5.79 11.044 11.495 11.91 8.277 1.26 15.68-4.74 20.583-16.67l1.184-2.884 1.623 2.432c1.76 2.637 5.34 6.393 6.08 6.38.568-.007 4.758-4.507 6.137-6.59.557-.843 1.094-1.538 1.19-1.544.097-.006.378.527.624 1.188.246.658 1.025 2.328 1.73 3.71 4.994 9.794 11.615 14.597 19.273 13.98 3.405-.272 5.868-1.722 8.247-4.85 2.58-3.392 3.8-6.563 4.215-10.956.46-4.88-.77-10.26-3.793-16.58-1.694-3.544-6.704-10.766-10.683-15.397-7.777-9.053-20.65-27.077-24.186-33.866-.917-1.76-2.1-5.62-2.39-7.798-.232-1.76.125-1.4 1.068 1.068 1.535 4.022 5.326 10.037 9.523 15.108 2.632 3.18 5.536 6.38 12.823 14.144 4.695 5.002 7.67 8.44 11.04 12.76 5.76 7.392 10.497 17.185 11.636 24.067 1.11 6.716-1.573 15.122-6.25 19.563-1.823 1.732-5.446 3.615-8.132 4.227-2.283.52-3.087.555-5.816.23zm-2.84-3.603c-2.73-.992-5.002-2.463-6.812-4.402-3.217-3.45-6.564-9.254-8.094-14.033-.8-2.504-1.082-2.867-1.4-1.812-.652 2.17-6.35 10.412-7.202 10.424-.604.008-3.24-3.41-5.753-7.457-1.3-2.096-2.407-3.852-2.458-3.9-.052-.05-.388 1.076-.747 2.504-1.642 6.524-6.544 14.356-10.82 17.288-6.032 4.135-14.974 2.312-17.7-3.61-.725-1.577-1.346-4.886-.916-4.894.145-.002.27.145.27.324.01.715 1.842 2.96 3.09 3.785 4.893 3.248 9.613 2.72 15.056-1.686 4.255-3.443 8.195-11.21 6.687-13.182-.39-.512-.425-.432-.3.69.184 1.67-.544 2.784-2.487 3.806-.84.442-1.666 1.06-1.836 1.374-.283.523-.385.5-1.244-.3-.516-.478-1.277-.864-1.69-.858-.745.012-.747.023-.147.666.728.783.852 3.336.252 5.205-.483 1.506-2.943 4.158-4.633 4.994-2.835 1.405-7.34.474-9.634-1.99-3.287-3.53-1.997-9.456 2.597-11.937 2.206-1.19 5.337-.742 6.995 1.004.777.818.783.86.27 1.975-.715 1.56-1.22 1.662-2.433.484-.95-.922-1.17-.99-2.64-.826-2.786.31-4.51 2.846-3.735 5.496.444 1.52 2.77 3.6 4.322 3.867 4.076.7 7.885-3.797 6.854-8.094-.32-1.34-.268-1.802.463-3.987 1.6-4.793.703-12.203-1.848-15.287-.505-.61-.513-.6-.198.242.34.91.18 1.848-.316 1.855-.158.003-.29-.147-.293-.333-.002-.186-.607-.596-1.342-.912-1.678-.72-2.97-.34-3.68 1.085-.464.932-.46.97.102.73 1.33-.568 1.8-.578 3.006-.055 2.34 1.013 3.75 3.86 3.792 7.656.025 2.295-.477 4.988-.93 4.994-.095.002-.72-.418-1.39-.934-1.616-1.24-2.634-1.578-4.636-1.54-3.344.063-6.596 2.542-8.37 6.376-.572 1.24-1.04 2.62-1.04 3.068.003.773-.016.78-.387.176-.538-.88-.502-5.9.06-8.678 1.42-6.986 6.994-17.113 13.368-24.278l1.715-1.93.232 3.025c.182 2.37.416 3.372 1.084 4.632 1.04 1.96 3.31 4.05 4.952 4.566 1.797.564 4.64.226 5.848-.694 1.256-.957 2.146-2.936 1.84-4.084-.162-.604-.11-.815.17-.727.682.217 1.616 1.668 1.94 3.014.33 1.37.022 4.42-.56 5.546s-2.45 2.35-4.375 2.865c-2.935.786-3.535 1.124-4.07 2.3-.627 1.373-.323 3.22.608 3.7.627.323.632.308.117-.403-.683-.945-.676-1.102.09-1.893.546-.56 1.067-.658 3.767-.705 3.96-.07 5.432-.677 6.57-2.714 1.248-2.23 1.53-3.84 1.08-6.136-.713-3.62-2.622-6.612-4.943-7.745-1.932-.943-3.484-.963-4.6-.06-1.01.82-1.113 1.456-.15.92.98-.542 2.14.064 2.734 1.43.42.962.426 1.267.055 2.194-1.23 3.067-4.824 3.358-8 .646-2.03-1.733-2.93-3.62-2.952-6.194-.03-3.587 1.77-6.554 4.924-8.108 1.256-.62 4.043-.694 5.635-.15 4.442 1.514 8.514 7.15 10.007 13.854.553 2.482 1.95 13.203 1.98 15.174.01.8-.24 1.81-.607 2.432-.794 1.348-.78 2.22.042 2.717.355.216.652.72.658 1.118.007.432.207.723.494.72.285-.005.477-.302.47-.733-.005-.4.276-.91.626-1.137.773-.5.8-1.387.076-2.732-.44-.822-.51-1.574-.38-4.076.21-4.004 1.138-10.504 1.927-13.48 1.67-6.303 5.23-11.65 8.918-13.392 3.007-1.418 7.022-.473 9.39 2.21 1.504 1.707 1.914 3.015 1.814 5.807-.07 1.965-.252 2.612-1.178 4.203-1.475 2.54-3.578 3.87-5.867 3.71-1.327-.095-1.767-.3-2.67-1.258-.853-.903-1.087-1.42-1.1-2.45-.028-1.72 1.147-3.033 2.546-2.85 1.16.153 1.21-.22.123-.91-1.298-.82-3.63-.41-5.497.967-1.66 1.226-3.38 3.84-3.922 5.957-.474 1.865-.097 5.285.776 7.02 1.2 2.392 2.2 2.87 6.24 2.997 3.033.1 3.537.198 4.186.827.645.625.686.8.326 1.396-.34.562-.338.654.014.53.617-.214 1.012-1.642.738-2.665-.41-1.53-1.79-2.557-3.98-2.95-1.092-.198-2.367-.653-2.836-1.01-2.516-1.92-3.2-7.167-1.268-9.702.88-1.154 1.24-1.082 1.05.215-.204 1.382.544 2.792 2.08 3.927.92.682 1.604.89 3.147.96 2.484.112 3.934-.5 5.838-2.46 2.052-2.113 2.735-3.92 2.716-7.16-.01-1.456.086-2.65.213-2.654.397-.008 4.82 5.69 7.638 9.848 5.98 8.812 8.53 15.86 8.08 22.325-.203 2.91-.65 3.63-.988 1.59-.44-2.676-3.31-6.574-5.926-8.055-1.133-.643-1.877-.81-3.6-.805-2.338.004-3.72.53-5.246 2.002l-.844.81-.44-.747c-.282-.48-.454-1.795-.474-3.643-.035-3.37.646-5.354 2.518-7.334 1.484-1.57 2.723-1.875 3.97-.98l.94.672-.016-.924c-.03-2.06-2.87-2.823-4.865-1.304l-1.012.77.13-.972c.165-1.264-.39-1.06-1.458.533-1.24 1.854-1.768 3.834-1.902 7.154-.104 2.528.002 3.472.607 5.456.402 1.32.734 2.797.734 3.283.002.485-.014 1.714-.033 2.73-.06 3.065 1.295 5.366 3.82 6.487 3.72 1.648 7.543-.682 7.484-4.56-.025-1.82-.754-2.976-2.387-3.788-1.207-.605-3.23-.38-4.127.456-.602.56-.656.547-1.64-.406-1.003-.975-1.01-1.002-.472-1.85 1.134-1.79 5.146-2.76 7.167-1.736.482.244 1.418.988 2.08 1.656 3.21 3.23 3.457 7.607.62 10.93-2.286 2.676-4.653 3.28-8.278 2.12-2.612-.837-4.235-2.122-5.255-4.167-1.436-2.88-1.443-3.914-.043-6.734.342-.692-1.402-.085-2.24.778-.742.766-1.037.902-1.248.58-.15-.23-.277-.52-.283-.648-.003-.125-.722-.68-1.595-1.232-2.232-1.416-3.148-3.436-2.344-5.17.32-.682.313-.686-.16-.076-1.08 1.39-.68 3.648 1.304 7.37 3.393 6.372 8.678 10.272 14.246 10.51 2.254.1 2.71.015 4.277-.78 1.8-.914 3.588-2.754 4.617-4.75l.584-1.133.027 1.122c.06 2.418-2.598 6.84-5.113 8.508-1.47.975-1.832 1.066-4.666 1.19-2.59.12-3.382.028-5.064-.583zm3.41-8.522c-.923-.164-2.36-1.568-2.927-2.855-.45-1.02-.664-3.615-.3-3.62.694-.01 2.062 1.212 2.6 2.327.565 1.166.765 1.318 1.728 1.303 1.31-.02 1.99-.84 1.412-1.707-.203-.307-.676-.54-1.05-.52-.75.038-.9-.478-.312-1.083.408-.42 1.797-.54 2.648-.225.708.258 1.49 1.78 1.507 2.932.016 1.107-.94 2.47-2.215 3.152-.89.475-1.672.55-3.09.295zm-58.105-.88c-1.507-1.35-1.824-2.856-.92-4.355.724-1.193 1.943-1.646 3.086-1.146.96.42 1.094 1.334.162 1.105-.46-.114-.736.075-1.004.685-.31.71-.274.943.224 1.48.326.35.922.63 1.322.624.823-.015 2.042-1.41 2.03-2.325-.007-.33.188-.602.433-.605.24-.004.618-.227.834-.494.653-.812.956-.564.976.8.044 2.93-1.55 4.862-4.225 5.124-1.61.157-1.814.095-2.918-.896zM112.3 158.15c-.016-.75-.242-1.724-.502-2.162-.662-1.12-.617-1.645.244-2.848l.752-1.053.75 1.172c.674 1.056.71 1.272.34 2.18-.225.552-.463 1.692-.53 2.534-.158 2.025-1.007 2.168-1.053.176zm-1.686-7.928c-.694-3.27-2.796-6.86-5.647-9.64-3.01-2.934-5.472-4.207-7.463-3.857-1.062.186-1.254.133-1.252-.347.005-.893.723-2.007 1.738-2.698 1.842-1.254 3.2-.76 6.14 2.224 4.286 4.357 7.362 10.3 7.423 14.342.032 2.208-.468 2.195-.94-.024zm3.194.19c-.05-3.895 2.668-9.732 6.467-13.88 3.742-4.09 6.26-4.73 8.367-2.13.377.464.69 1.154.693 1.534.01.628-.156.692-1.836.707-2.583.023-4.513 1.084-7.442 4.094-2.832 2.907-4.78 6.31-5.33 9.315-.205 1.122-.492 2.042-.637 2.044-.142.003-.27-.756-.282-1.685zm-1.366-5.165c-.042-2.816-.654-6.044-2.65-13.977-1.925-7.65-1.672-11.795 1.03-16.89.602-1.132 1.258-2.685 1.46-3.452l.37-1.393.416 1.28c.23.702.945 2.373 1.594 3.71 2.52 5.212 2.86 8.797 1.393 14.733-1.28 5.178-2.322 10.367-2.816 14.025-.475 3.505-.764 4.22-.798 1.964zm-3.788-6.3c-.498-.73-1.755-2.34-2.792-3.575-2.306-2.75-3.254-4.514-3.528-6.573-.365-2.734.787-4.444 2.728-4.048 1.874.383 2.753 2.688 3.685 9.674.385 2.878.787 5.37.894 5.538.108.168.135.306.06.308-.078 0-.547-.596-1.046-1.325zm7.392.425c.068-.53.264-2.414.434-4.184.55-5.71 1.584-8.86 3.336-10.145 1.174-.862 1.697-.87 2.48-.03.483.52.626 1.144.64 2.804.025 2.712-.443 3.71-3.547 7.55-1.35 1.666-2.68 3.466-2.96 4l-.508.973.124-.968zm-14.894-7.68c-.918-.578-1.543-.585-2.914-.036-.486.194-.47.058.14-1.046.384-.698 1.185-1.843 1.78-2.544l1.082-1.275.02 1.46c.013.8.242 2.05.51 2.776.27.727.458 1.31.42 1.297-.034-.012-.503-.297-1.038-.633zm22.476-.82c.123-.69.307-1.972.404-2.845l.18-1.587.854 1.25c.47.688 1.104 1.717 1.408 2.287l.555 1.036-1.062.016c-.584.01-1.398.26-1.812.56l-.752.542.224-1.258zm-17.26-7.917c-.422-.34-1.04-.616-1.375-.61s-.607-.054-.608-.13c-.004-.246 2.494-4.03 2.78-4.212.155-.1.185.384.066 1.088-.116.696-.13 1.994-.03 2.884s.125 1.615.058 1.61c-.066-.005-.467-.29-.89-.63zm11.926-2.122c.006-1.398.043-2.542.08-2.544.13-.005 2.72 3.78 2.723 3.977.002.107-.146.106-.332-.004-.184-.11-.818.095-1.41.456l-1.074.656.014-2.542z"/></g></svg>