<svg version="1.2" baseProfile="tiny" xmlns="http://www.w3.org/2000/svg" xmlns:xlink="http://www.w3.org/1999/xlink" viewBox="0 0 225 314" width="225" height="314"><defs><style>.maxi-card { display: none; } @media (min-width: 75px) { .maxi-card { display: block; } .mini-card { display: none; } }</style><path id="suit" d="M26.406 40.187c.015-1.98-1.56-2.017-1.542-.573-.133 7.257-6.31 10.83-10.8 9.982-6.92-1.307-9.128-8.13-9.06-12.148C5.204 25.046 17.774 15.9 29.114 0c8.31 14.35 22.03 25.623 22.84 36.717 1.08 14.75-17.71 20.25-20.394 3.06-.172-1.214-1.612-1.76-1.5-.063.408 4.71-.17 6.674 5.18 18.287H21.25c3.1-5.42 4.943-12.09 5.154-17.81z"/><path id="numeral" d="M0 32.008V29.27h2.66L8.326 0h3.224l6.24 29.27h2.148v2.738H12.62V29.27h1.98l-.787-4.484H6.427l-.57 4.484h1.978v2.738H0zm13.178-10.416L9.97 5.922l-3.007 15.67h6.215z"/></defs><rect width="100%" height="100%" fill="#fefefe"/><g class="mini-card"><use xlink:href="#numeral" transform="matrix(3.5 0 0 3.5 78.4 33.95)"/><use xlink:href="#suit" transform="matrix(2 0 0 2 55.5 170)"/></g><g class="maxi-card"><use xlink:href="#numeral" transform="translate(7 12)"/><use xlink:href="#suit" transform="matrix(.4 0 0 .4 6 51)"/><use xlink:href="#numeral" transform="matrix(-1 0 0 -1 218 302)"/><use xlink:href="#suit" transform="matrix(-.4 0 0 -.4 218 263)"/><path d="M108.862 223.515c-7.825-.004-14.295-.072-14.376-.15-.08-.078.557-.684 1.416-1.346 3.13-2.41 5.828-6.43 8.94-13.32 2.138-4.73 2.827-6.63 3.537-9.76 1.13-5.01 1.1-8.44-.11-9.886l-.58-.69-2.33 2.446c-2.59 2.72-5.96 5.04-9.72 6.685-4.12 1.8-6.79 2.38-11.31 2.447-3.57.053-4.34-.04-6.89-.834-6.44-2.003-11.657-6.593-14.695-12.93-1.83-3.813-2.3-5.93-2.386-10.784-.07-3.93.014-4.693.906-8.117 1.4-5.347 4.257-11.96 7.167-16.578 3.538-5.614 11.693-16.03 20.314-25.94 7.09-8.16 9.95-11.794 14.896-18.948 5.265-7.61 7.354-11.26 8.35-14.582.4-1.327.8-2.414.888-2.414.09 0 .605 1.317 1.147 2.93 2.154 6.414 7.73 15.195 15.82 24.905 1.44 1.73 5.63 6.655 9.316 10.944 12.064 14.047 17.158 21.12 21.658 30.072 3.485 6.93 4.86 12.272 4.696 18.245-.21 7.636-2.657 13.028-8.325 18.356-2.333 2.2-5.913 4.28-8.76 5.09-.88.25-3.26.578-5.292.72-6.086.43-10.62-.76-16.938-4.45-2.965-1.73-6.314-4.523-7.24-6.04-.748-1.223-1.32-1.144-1.883.258-.944 2.357-1.097 4.482-.52 7.314 1.79 8.833 7.52 20.147 12.44 24.567l1.99 1.785-3.957.003c-2.17 0-10.355 0-18.18-.007zm12.99-4.672c-1.542-1.232-4.884-5.992-6.538-9.312-1.72-3.45-2.246-5.98-1.76-8.48l.527-2.7c.11-.534-.12-1.38-.62-2.34l-.792-1.503-.887 1.69-.89 1.69.588 1.56c.865 2.296.658 5.63-.504 8.145-1.47 3.176-6.396 10.49-7.666 11.38-1.487 1.04-.827 1.01 2.004-.103 2.04-.8 2.69-.897 6.29-.93 4.14-.04 7.915.497 9.564 1.36 1.53.8 1.93.542.694-.446zm-5.933-2.066c-1.92-.418-6.73-.297-8.52.213-.79.227-.79.217.172-.875 1.326-1.502 2.166-3.092 3.736-7.09 1.21-3.074 1.365-3.318 1.65-2.596.172.43.86 2.28 1.525 4.1 1.17 3.17 1.893 4.5 3.3 6.03.737.8.78.79-1.873.21zm31.8-21.74c4.474-1.706 8.624-5.698 10.81-10.392 1.37-2.953 1.86-4.736 2.273-8.32.584-5.023-.264-9.53-2.996-15.928-3.61-8.456-8.686-15.408-19.29-26.43-16.124-16.756-20.12-21.97-23.913-31.208-.65-1.59-1.29-3.49-1.42-4.24-.13-.75-.335-1.36-.45-1.35-.117 0-.58 1.22-1.034 2.7-2.713 8.902-8.834 17.49-23.07 32.352-9.925 10.364-11.47 12.202-15.538 18.5-5.314 8.22-7.764 14.84-8.04 21.717-.432 10.846 5.25 20.117 13.9 22.674 5.29 1.564 12.552.295 18.272-3.19 4.595-2.804 6.935-5.116 8.704-8.605.567-1.12 1.085-2.1 1.15-2.178s.64.346 1.28.943c1.12 1.046 3.09 4.386 3.903 6.63l.39 1.08 1.056-2.52c.7-1.674 1.633-3.16 2.773-4.43l1.717-1.914 1.15 2.286c2.62 5.216 9.93 10.37 17.372 12.26 3.18.807 8.26.602 11-.443zm-8.517-.247c-2.71-.322-4.41-.842-7.238-2.21-7.435-3.6-11.355-7.603-12.114-12.366-.134-.838-.394-1.52-.577-1.518-1.093.016-4.595 4.072-5.8 6.717-.275.6-.625 1.092-.778 1.094-.153.004-.6-.605-.99-1.352-1.133-2.158-3.245-4.932-4.41-5.795-1.18-.87-1.175-.873-1.733.986-.6 1.988-1.824 4.387-3.02 5.902-1.217 1.55-6.373 5.223-9.02 6.43-5.946 2.71-12.95 2.738-17.656.07-4.03-2.285-7.05-6.518-8.55-11.992-2.125-7.74-.94-15.025 3.85-23.745 4.41-8.03 7.135-11.64 15.26-20.25 13.47-14.26 20.244-23.05 24.166-31.34 1.63-3.44 1.992-3.27 1.07.52-1.574 6.48-12.142 22.15-28.28 41.96-4.35 5.34-9.034 13.19-10.472 17.54-1.97 5.98-2.26 10.8-.93 15.72 1.89 7.008 5.79 11.05 11.495 11.91 8.276 1.26 15.68-4.74 20.582-16.67l1.184-2.88 1.625 2.43c1.76 2.64 5.34 6.395 6.08 6.38.567-.005 4.757-4.505 6.136-6.59.56-.84 1.097-1.54 1.19-1.542.1-.005.38.528.627 1.19.247.657 1.026 2.327 1.73 3.71 4.995 9.793 11.616 14.596 19.274 13.98 3.404-.273 5.867-1.723 8.246-4.85 2.58-3.393 3.8-6.564 4.214-10.957.46-4.88-.77-10.26-3.79-16.58-1.697-3.544-6.707-10.766-10.686-15.397-7.778-9.052-20.65-27.076-24.187-33.865-.92-1.76-2.1-5.62-2.39-7.798-.235-1.76.122-1.4 1.065 1.066 1.534 4.022 5.325 10.037 9.522 15.108 2.63 3.18 5.535 6.38 12.822 14.146 4.694 5 7.67 8.44 11.04 12.76 5.76 7.39 10.496 17.185 11.635 24.067 1.11 6.716-1.572 15.12-6.25 19.563-1.822 1.73-5.445 3.614-8.13 4.226-2.28.52-3.087.554-5.816.23zm-2.84-3.603c-2.73-.992-5-2.463-6.81-4.402-3.22-3.45-6.566-9.254-8.096-14.033-.8-2.504-1.08-2.867-1.4-1.812-.65 2.17-6.35 10.412-7.2 10.424-.606.008-3.24-3.41-5.755-7.457-1.3-2.096-2.408-3.852-2.46-3.9-.05-.05-.387 1.076-.746 2.504-1.64 6.53-6.544 14.36-10.82 17.29-6.03 4.14-14.974 2.31-17.7-3.61-.725-1.57-1.346-4.88-.916-4.89.144 0 .27.148.27.327.01.715 1.84 2.96 3.09 3.785 4.89 3.248 9.61 2.72 15.055-1.686 4.252-3.443 8.192-11.21 6.684-13.182-.39-.51-.427-.43-.3.69.182 1.67-.546 2.786-2.49 3.808-.84.442-1.666 1.06-1.836 1.374-.283.524-.385.5-1.244-.3-.515-.477-1.276-.863-1.69-.857-.744.01-.746.02-.146.664.73.783.85 3.336.25 5.205-.482 1.503-2.942 4.155-4.632 4.99-2.836 1.405-7.34.474-9.635-1.99-3.286-3.53-1.996-9.456 2.598-11.937 2.207-1.19 5.338-.742 6.996 1.004.778.816.784.86.27 1.973-.714 1.56-1.22 1.66-2.432.483-.95-.923-1.17-.99-2.64-.827-2.786.31-4.51 2.846-3.735 5.496.444 1.52 2.77 3.6 4.322 3.865 4.074.7 7.883-3.797 6.852-8.094-.32-1.34-.27-1.803.462-3.99 1.6-4.79.7-12.2-1.85-15.285-.505-.61-.513-.6-.198.242.34.91.18 1.848-.314 1.855-.156.003-.29-.147-.29-.333 0-.188-.607-.598-1.34-.914-1.68-.72-2.97-.34-3.68 1.085-.466.93-.46.97.1.73 1.33-.57 1.8-.58 3.006-.056 2.34 1.013 3.75 3.86 3.792 7.656.024 2.295-.478 4.99-.93 4.994-.096.002-.72-.418-1.39-.934-1.617-1.24-2.635-1.577-4.637-1.54-3.343.064-6.595 2.543-8.37 6.377-.57 1.24-1.04 2.62-1.04 3.067.004.773-.015.78-.386.176-.54-.88-.503-5.9.06-8.677 1.42-6.986 6.993-17.113 13.367-24.278l1.716-1.93.23 3.025c.183 2.37.417 3.37 1.085 4.63 1.04 1.96 3.31 4.05 4.954 4.567 1.798.564 4.64.226 5.85-.694 1.257-.958 2.147-2.937 1.84-4.085-.16-.6-.11-.812.17-.724.683.217 1.617 1.668 1.94 3.014.33 1.37.023 4.42-.56 5.545s-2.45 2.35-4.374 2.865c-2.936.785-3.536 1.123-4.07 2.3-.628 1.372-.324 3.22.607 3.7.627.322.632.307.117-.404-.68-.945-.674-1.102.09-1.893.548-.56 1.07-.658 3.77-.705 3.96-.07 5.432-.677 6.57-2.714 1.25-2.23 1.53-3.84 1.08-6.13-.713-3.62-2.62-6.613-4.943-7.746-1.93-.942-3.483-.962-4.6-.06-1.01.82-1.112 1.457-.15.92.98-.54 2.14.065 2.735 1.43.42.963.428 1.268.057 2.195-1.23 3.067-4.823 3.36-8 .646-2.03-1.734-2.93-3.62-2.95-6.195-.03-3.587 1.77-6.554 4.924-8.11 1.256-.62 4.043-.693 5.635-.15 4.44 1.515 8.514 7.15 10.007 13.855.552 2.48 1.95 13.203 1.98 15.174.01.8-.24 1.81-.608 2.43-.795 1.35-.78 2.22.04 2.72.356.215.653.72.66 1.117.006.434.206.725.493.72.28-.003.473-.3.47-.73-.01-.4.272-.91.622-1.138.772-.5.8-1.386.075-2.73-.44-.82-.51-1.574-.38-4.076.21-4.005 1.14-10.505 1.926-13.48 1.67-6.304 5.23-11.65 8.918-13.393 3.008-1.417 7.023-.472 9.39 2.21 1.505 1.708 1.915 3.016 1.815 5.808-.07 1.964-.25 2.61-1.18 4.2-1.473 2.54-3.576 3.87-5.865 3.71-1.327-.093-1.767-.3-2.67-1.256-.853-.902-1.087-1.42-1.1-2.45-.028-1.72 1.147-3.032 2.546-2.85 1.16.154 1.21-.22.125-.91-1.298-.82-3.63-.41-5.497.968-1.66 1.226-3.38 3.84-3.925 5.957-.474 1.867-.097 5.287.776 7.02 1.2 2.394 2.2 2.87 6.24 3 3.034.1 3.54.197 4.187.826.646.625.687.8.327 1.396-.34.563-.338.655.014.53.62-.213 1.013-1.64.74-2.664-.41-1.53-1.79-2.557-3.98-2.95-1.093-.198-2.368-.653-2.837-1.01-2.516-1.92-3.2-7.167-1.27-9.7.88-1.156 1.24-1.084 1.05.213-.202 1.383.546 2.793 2.08 3.928.92.682 1.606.89 3.15.96 2.485.112 3.935-.5 5.84-2.46 2.05-2.113 2.734-3.92 2.715-7.16-.01-1.456.087-2.65.214-2.654.397-.008 4.82 5.69 7.64 9.848 5.98 8.812 8.53 15.86 8.08 22.325-.205 2.91-.65 3.63-.99 1.59-.44-2.678-3.31-6.576-5.926-8.057-1.135-.643-1.88-.81-3.6-.805-2.34.004-3.72.53-5.248 2l-.844.81-.44-.746c-.283-.48-.455-1.798-.475-3.646-.037-3.37.644-5.356 2.516-7.336 1.483-1.57 2.722-1.875 3.97-.98l.94.672-.017-.924c-.03-2.06-2.87-2.825-4.864-1.306l-1.013.77.13-.973c.166-1.264-.39-1.06-1.457.533-1.24 1.854-1.767 3.834-1.9 7.154-.104 2.527.002 3.47.607 5.455.404 1.32.736 2.796.736 3.282.003.485-.013 1.714-.032 2.73-.06 3.065 1.296 5.366 3.82 6.487 3.72 1.647 7.544-.683 7.485-4.56-.027-1.82-.756-2.977-2.39-3.79-1.206-.604-3.23-.38-4.126.457-.6.56-.655.55-1.64-.403-1.002-.975-1.01-1.002-.47-1.85 1.135-1.79 5.147-2.76 7.17-1.736.48.245 1.416.99 2.08 1.657 3.21 3.23 3.455 7.608.62 10.93-2.288 2.677-4.655 3.28-8.28 2.12-2.61-.836-4.235-2.12-5.255-4.166-1.437-2.88-1.444-3.916-.044-6.736.342-.69-1.402-.085-2.24.78-.742.764-1.037.9-1.248.58-.15-.23-.28-.52-.285-.65-.002-.125-.72-.68-1.594-1.23-2.23-1.418-3.147-3.438-2.343-5.17.32-.684.313-.688-.16-.078-1.08 1.39-.68 3.647 1.304 7.37 3.395 6.37 8.68 10.27 14.248 10.51 2.254.1 2.71.014 4.277-.78 1.8-.915 3.588-2.755 4.617-4.75l.583-1.134.027 1.122c.06 2.418-2.6 6.84-5.115 8.508-1.47.975-1.833 1.066-4.667 1.19-2.59.12-3.385.028-5.067-.583zm3.41-8.522c-.923-.164-2.36-1.568-2.927-2.855-.45-1.02-.664-3.615-.3-3.62.694-.01 2.062 1.212 2.6 2.327.565 1.166.765 1.318 1.73 1.303 1.31-.02 1.99-.84 1.41-1.707-.202-.307-.675-.54-1.05-.52-.75.038-.9-.478-.31-1.083.41-.42 1.797-.54 2.65-.225.706.258 1.49 1.78 1.505 2.932.017 1.107-.94 2.47-2.214 3.152-.89.47-1.67.55-3.09.29zm-58.105-.88c-1.507-1.35-1.824-2.856-.92-4.355.724-1.193 1.943-1.646 3.086-1.146.96.42 1.094 1.334.162 1.105-.46-.12-.738.07-1.006.68-.31.71-.275.94.223 1.48.326.35.922.63 1.322.62.822-.015 2.04-1.41 2.03-2.325-.008-.33.187-.6.432-.605.24-.003.615-.226.83-.493.654-.81.957-.564.977.8.044 2.93-1.55 4.862-4.225 5.124-1.61.16-1.815.097-2.92-.894zm30.63-23.635c-.017-.75-.243-1.724-.503-2.162-.662-1.12-.617-1.645.244-2.848l.752-1.053.75 1.172c.674 1.05.71 1.27.34 2.18-.225.55-.463 1.69-.53 2.53-.158 2.02-1.007 2.17-1.053.17zm-1.687-7.928c-.693-3.27-2.795-6.86-5.646-9.64-3.01-2.934-5.472-4.207-7.463-3.857-1.06.186-1.253.133-1.25-.347.005-.893.723-2.007 1.74-2.698 1.84-1.254 3.2-.76 6.14 2.224 4.284 4.357 7.36 10.3 7.42 14.342.033 2.208-.467 2.195-.94-.024zm3.195.19c-.05-3.895 2.668-9.732 6.467-13.88 3.742-4.09 6.26-4.73 8.367-2.13.377.464.69 1.154.693 1.534.01.628-.156.692-1.836.707-2.59.023-4.52 1.084-7.45 4.094-2.83 2.907-4.78 6.31-5.33 9.315-.204 1.122-.49 2.042-.636 2.044-.142.003-.27-.756-.282-1.685zm-1.366-5.165c-.04-2.816-.654-6.044-2.65-13.977-1.925-7.65-1.67-11.795 1.03-16.89.602-1.132 1.26-2.685 1.46-3.452l.37-1.393.416 1.28c.23.702.945 2.373 1.594 3.71 2.52 5.212 2.86 8.797 1.394 14.733-1.28 5.178-2.322 10.367-2.816 14.025-.48 3.505-.77 4.22-.8 1.964zm-3.788-6.3c-.498-.73-1.755-2.34-2.792-3.575-2.305-2.75-3.253-4.514-3.527-6.573-.365-2.74.787-4.45 2.728-4.05 1.876.38 2.755 2.69 3.687 9.67.385 2.88.787 5.37.894 5.54.11.17.14.302.06.31-.07 0-.54-.6-1.04-1.33zm7.392.425c.068-.53.264-2.414.434-4.184.55-5.71 1.583-8.86 3.335-10.145 1.174-.862 1.697-.87 2.48-.03.483.52.626 1.144.64 2.804.025 2.712-.443 3.71-3.547 7.55-1.35 1.666-2.68 3.466-2.96 4l-.51.973.12-.968zm-14.894-7.68c-.917-.578-1.542-.585-2.913-.036-.486.194-.47.058.14-1.046.384-.698 1.185-1.843 1.78-2.544l1.082-1.275.02 1.46c.01.8.24 2.05.51 2.78s.456 1.31.42 1.3c-.036-.01-.505-.295-1.04-.63zm22.477-.82c.123-.69.307-1.972.404-2.845l.18-1.587.856 1.25c.47.688 1.104 1.717 1.408 2.287l.555 1.036-1.07.016c-.584.01-1.398.26-1.81.56l-.75.54.222-1.26zm-17.26-7.917c-.422-.34-1.04-.616-1.375-.61s-.607-.054-.608-.13c-.004-.246 2.494-4.03 2.78-4.212.155-.1.185.384.066 1.088-.11.7-.13 2-.03 2.89s.13 1.618.06 1.61c-.06-.002-.462-.29-.89-.63zm11.926-2.122c.006-1.398.043-2.542.08-2.544.13-.01 2.72 3.78 2.723 3.97.002.105-.146.104-.332-.006-.184-.11-.818.095-1.41.456l-1.074.657.02-2.543z"/></g></svg>