<svg version="1.2" baseProfile="tiny" xmlns="http://www.w3.org/2000/svg" xmlns:xlink="http://www.w3.org/1999/xlink" viewBox="0 0 225 314" width="225" height="314"><defs><style>.maxi-card { display: none; } @media (min-width: 75px) { .maxi-card { display: block; } .mini-card { display: none; } }</style><path id="suit" d="M26.406 40.187c.015-1.98-1.56-2.017-1.542-.573-.133 7.257-6.31 10.83-10.8 9.982-6.92-1.307-9.128-8.13-9.06-12.148C5.204 25.046 17.774 15.9 29.114 0c8.31 14.35 22.03 25.623 22.84 36.717 1.08 14.75-17.71 20.25-20.394 3.06-.172-1.214-1.612-1.76-1.5-.063.408 4.71-.17 6.674 5.18 18.287H21.25c3.1-5.42 4.943-12.09 5.154-17.81z"/><path id="numeral" d="M10.34 31.817v-2.812h2.585V24.37H0V21.1L13.986 0l2.285.008v21.09h3.96v3.27h-3.96l-.07 4.638h2.166v2.812H10.34zM12.925 7.72l-8.88 13.377h8.88V7.72z"/></defs><rect width="100%" height="100%" fill="#fefefe"/><g class="mini-card"><use xlink:href="#numeral" transform="matrix(3.5 0 0 3.5 78.4 33.95)"/><use xlink:href="#suit" transform="matrix(2 0 0 2 55.5 170)"/></g><g class="maxi-card"><use xlink:href="#numeral" transform="translate(7 12)"/><use xlink:href="#suit" transform="matrix(.4 0 0 .4 6 51)"/><use xlink:href="#numeral" transform="matrix(-1 0 0 -1 218 302)"/><use xlink:href="#suit" transform="matrix(-.4 0 0 -.4 218 263)"/><use xlink:href="#suit" transform="translate(34 28)"/><use xlink:href="#suit" transform="translate(134 28)"/><use xlink:href="#suit" transform="matrix(-1 0 0 -1 91 286)"/><use xlink:href="#suit" transform="matrix(-1 0 0 -1 191 286)"/></g></svg>