<svg version="1.2" baseProfile="tiny" xmlns="http://www.w3.org/2000/svg" xmlns:xlink="http://www.w3.org/1999/xlink" width="225" height="314" viewBox="0 0 225 314" preserveAspectRatio="xMinYMin meet"><defs><style type="text/css">use { fill: black; } .maxi-card { display: none; } .mini-card { display: block; } @media (min-width: 75px) { .maxi-card { display: block; } .mini-card { display: none; } }</style><path id="suit" d="M26.406 40.187c.015-1.98-1.56-2.017-1.542-.573-.133 7.257-6.31 10.83-10.8 9.982-6.92-1.307-9.128-8.13-9.06-12.148C5.203 25.046 17.773 15.9 29.115 0c8.31 14.35 22.028 25.623 22.84 36.717 1.08 14.75-17.712 20.25-20.395 3.06-.172-1.214-1.612-1.76-1.5-.063.408 4.71-.17 6.674 5.18 18.287H21.25c3.1-5.426 4.943-12.09 5.154-17.813z"/><path id="numeral" d="M0 32.676l.164-2.018c.51-6.24 1.875-8.348 9.623-14.856 3.76-3.16 4.994-4.717 5.168-6.525.49-4.26-3.352-5.592-5.855-5.613-3.24-.03-6.91 1.91-5.16 6.414L.3 11.144c-.732-4.2.02-8.142 3.427-9.893C8.275-1.027 14.11-.133 17.05 3.46c1.98 2.414 2.43 5.746 1.368 8.355-3.1 6.67-13.62 9.605-14.49 17.318h11.63v-4.294h3.428v7.908L0 32.676z"/></defs><rect width="100%" height="100%" fill="#fefefe"/><g class="mini-card"><use xlink:href="#numeral" transform="matrix(3.5 0 0 3.5 78.4 33.95)"/><use xlink:href="#suit" transform="matrix(2 0 0 2 55.5 170)"/></g><g class="maxi-card"><use xlink:href="#numeral" transform="translate(7 12)"/><use xlink:href="#suit" transform="matrix(.4 0 0 .4 6 51)"/><use xlink:href="#numeral" transform="matrix(-1 0 0 -1 218 302)"/><use xlink:href="#suit" transform="matrix(-.4 0 0 -.4 218 263)"/><use xlink:href="#suit" transform="translate(84 28)"/><use xlink:href="#suit" transform="matrix(-1 0 0 -1 141 286)"/></g></svg>