<svg version="1.2" baseProfile="tiny" xmlns="http://www.w3.org/2000/svg" xmlns:xlink="http://www.w3.org/1999/xlink" width="225" height="314" viewBox="0 0 225 314" preserveAspectRatio="xMinYMin meet"><defs><style type="text/css">use { fill: black; } .maxi-card { display: none; } .mini-card { display: block; } @media (min-width: 75px) { .maxi-card { display: block; } .mini-card { display: none; } }</style><path id="suit" d="M26.406 40.187c.015-1.98-1.56-2.017-1.542-.573-.133 7.257-6.31 10.83-10.8 9.982-6.92-1.307-9.128-8.13-9.06-12.148C5.203 25.046 17.773 15.9 29.115 0c8.31 14.35 22.028 25.623 22.84 36.717 1.08 14.75-17.712 20.25-20.395 3.06-.172-1.214-1.612-1.76-1.5-.063.408 4.71-.17 6.674 5.18 18.287H21.25c3.1-5.426 4.943-12.09 5.154-17.813z"/><path id="numeral" d="M19.876 0H9.636v3.498h3.808s-.045-.664-.012 7.14c.02 5.474.016 8.968-.05 11.267.02 3.062-.485 4.936-1.69 6.06-1.908 1.605-5.64 1.444-7.02-.066-1.022-1.188-1.238-3.454-1.177-6.122H.015s.003 1.29 0 1.97C-.588 36.342 16.28 34.207 16.82 25.42c.112-1.876.056-1.193.01-11.597-.05-11.146-.01-10.32-.01-10.32h3.056V0z"/></defs><rect width="100%" height="100%" fill="#fefefe"/><g class="mini-card"><use xlink:href="#numeral" transform="matrix(3.5 0 0 3.5 78.4 33.95)"/><use xlink:href="#suit" transform="matrix(2 0 0 2 55.5 170)"/></g><g class="maxi-card"><use xlink:href="#numeral" transform="translate(7 12)"/><use xlink:href="#suit" transform="matrix(.4 0 0 .4 6 51)"/><use xlink:href="#numeral" transform="matrix(-1 0 0 -1 218 302)"/><use xlink:href="#suit" transform="matrix(-.4 0 0 -.4 218 263)"/><use xlink:href="#suit" transform="matrix(.8 0 0 .8 34 36)"/><use xlink:href="#suit" transform="matrix(-.8 0 0 -.8 190 278)"/><path fill="#131F67" d="M30.42 23.853l-.04 265.885 164.64.356.097-266.05-164.698-.19zm52.29 1.554l74.595.274s-8.546 11.057-10.312 16.09c-1.374 1.76-1.995 1.44-4.26.982-6.063-1.585-16.28-1.556-21.355-1.648-9.58-.427-18.187 2.543-27.78 3.027-3.317-5.54-8.124-12.5-10.888-18.723zm-50.226.485l47.973.142 11.247 20.524c.408.57.02 1.748-.225 2.41-1.39 3.91-2.616 6.174-5.425 10.832-2.66 4.412-3.613 8.453-2.67 11.17.142.333.265.84.215 1.266-.155 1.355-1.292 2.923-2.84 3.996-1.053.17-3.24.303-4.505 1.555C75.17 78.86 74.28 80.43 74.42 83.3c.066 1.024.197 1.676.197 1.676C60.312 90.926 50.06 97.9 50.4 98.156c-.135-.062-12.573-5.787-17.75-7.204l-.166-65.06zm127.48.362l32.888.03.196 93.842-12.622-8.182c1.035-.72 1.675-1.148 2.763-1.888.193-.06.56-.064.797-.117 2.198-.49 3.73-2.136 2.968-3.84-.518-1.157.19-1.087.827-2.03.717-1.06.567-2.006.112-2.9-.227-.442-.102-.617.278-1.437 1.007-1.25.28-3.36-1.02-4.044-.138-.202.14-.513.204-.803.367-1.692-.307-3.18-1.77-3.556-.754-.193-1.005-.324-.74-.997.473-1.193-.148-1.637-1.13-2.024-1.647-.652-1.18-.757.857-1.673 4.17-1.875 5.152-7.45 2.283-12.51-.364-.643-1.34-2.152-2-3.164-.772-1.182-1.52-2.2-1.52-2.2l5.52-7.697s-3.844-4.553-5.213-7.07c.323-1.243 4.17-5.147 4.67-8.936.783-5.94-3.728-9.742-7.995-9.296-2.96.31-6.602 2.203-6.328 7.702.085 1.708.752 3.473 1.96 5.61.847 1.598 1.94 3.29 2.99 4.913l-5.557 7.594 5.614 7.11s-.074.114-.195.308c-.56.89-2.183 3.505-2.886 5.037-2.07 4.093-2.804 8.587 1.447 11.755.744.457 1.317.846 1.634 1.16.417.413.157.728-.514.885-.79.166-1.594.155-2.426.483-2.665.973-5.337 2.542-7.237 4.08-1.066.86-2.785 3.59-3.834 5.81-1.14 2.408-1.457 2.942-1.457 2.942l-19.527-12.5s-.496-.39-.63-.542c-.364-.407-.234-.644.02-1.096.213-.383.22-1.508.126-2.36-.027-1.64-.016-1.646.93-3.15.33-.53.47-1.06.277-1.878-.306-.92-.335-.627.25-1.258.228-.28.503-.42.547-.724.06-.407.022-1.118.03-2.445.014-2.66-.022-2.44 1.47-3.61 1.856-1.45 2.548-2.135 2.843-2.79.422-.94 0-1.652-1.042-3.53-.476-.86-1.213-2.02-1.57-2.666-.666-1.164-1.63-2.697-2.087-4.162-.694-1.125-.59-3.075.054-4.22.807-1.438 1.03-2.307 1.002-5.213-.026-2.694-.222-2.443.465-3.346 5.13-6.79 13.275-19.412 13.275-19.412zm20.902 9.932c.11 0 .222.004.332.01 1.615.076 3.22.596 4.71 2.04 2.025 2.03 1.888 4.958 1.223 8.004-.307.885-.535 1.785-1.158 2.71-.348.514-.63.99-.63 1.056s-.5.868-1.11 1.79c-.598.9-1.282 2.156-1.282 2.156s.954 1.712 2.646 3.854c1.276 1.896 2.104 3.55 2.2 3.452 0 0-.323.82-.768 1.404-1.342 1.762-3.813 5.44-3.912 5.824-.023.092-.278.187-.273.278.018.342.508.746 1.247 1.76 4.46 6.124 5.09 11.293 1.74 14.33-1.666 1.51-3.31 1.983-5.075 1.794-3.233-.348-6.218-3.106-5.868-7.13.157-1.85.06-2.4 1.148-4.548.49-1.21 1.604-3.283 2.343-4.328.646-.75 1.335-1.82 1.335-1.82s-1.587-2.442-4.504-5.877c-.526-.628-.852-1.477-.852-1.477l4.998-7.404s-.58-1.437-1.556-2.89c-1.998-2.98-3.287-6.15-3.275-7.934.03-4.444 2.936-7.048 6.34-7.054zm12.446 105.77c-2.95 1.57-5.824 6.93-.21 3.19l.142 3.083c-2.92 4.145-8.632 1.105-7.18-3.187-3.942.51-4.558-3.492-4.357-5.396-5.186-1.13-3.395-6.622-3.395-6.622-2.996-2.505-3.52-5.128-1.095-7.894-2.454-1.525-3.146-2.503-5.843-3.61 2.068 18.39 11.994 27.942 22.44 36.455 0 0 .232 5.923-.963 4.832-14.916-11.146-24.505-23.892-26.155-44.508-.127.323-7.072-5.378-8.222-5.075-2.407 33.384 24.17 55.327 35.224 59.653 0 0 .156 4.65-.033 4.667-16.752-7.307-35.377-28.752-38.966-54.267l-9.883 15.307-3.702-1.584 15.98-25.18-10.807-6.772-17.595 27.88s-.466 2.324.808 2.288c24.698 2.643 61.43 32.315 49.122 80.61-1.067-.423-2.767-1.25-2.85-1.213 1.93-4.162 7.314-31.124-8.887-52.902-7.422-9.978-18.934-20.597-37.405-23.73 1.527 3.148.86 10.293.86 10.293l4.304.87c-1.452-1.534-2.666-2.8-3.242-4.465-.806-2.594.376-4.13 3.247-2.586 1.14.64 1.428.614 2.538-.21 2.312-1.72 4.952.05 4.343 2.91-.09.42.02.687 1.12.786 2.487.247 4.993 1.48 6.616 3.413.795 1.02.976.87 1.683.256 1.735-1.508 4.61.58 4.098 2.914-.294 1.334-.132 1.653.484 1.912 3.39 1.426 4.224 2.325 5.28 5.296.387 1.09.704 1.446.904 1.384.14-.043.698-.23 1.188-.415 2.533-.96 4.016 2.103 2.22 4.504-.367.492-.095.965.558 1.32 2.108 1.15 3.54 3.897 3.79 6.778.095 1.096.21 1.098 1.306 1.052 2.805-.117 4.14 3.668 1.858 5.062-.794.484-.646 1.11-.03 1.843 1.636 1.94 2.018 3.34 1.874 5.55-.19 2.943-.004 2.886.935 3.243 2.725 1.038 2.216 5.392-.456 5.377 1.925 4.483-.61 9.95-.526 10.052 5.135 2.89.5 5.958-.993 5.418 0 0-.76 2.015.104 3.052-4.503 5.96-10.4 6.948-16.93 9.907l-.205-20.98c2.716 2.188 5.407 4.228 8.1 6.26 0 0 .68-.204.06-.778-1.196-1.105-4.207-3.053-5.05-3.828-1.816-1.38-8.478-7.748-9.662-9.257-.53-1.004-1.332-.423-1.31-.362.796 1.376 1.39 2.98 2.42 4.41 2.23 3.088 4.39 6.52 4.166 9.915-.007 1.9-.762 3.862-1.185 4.816-.312 1.303-2.39-.223-1.868-1.32.924-3.01 1.69-5.475-1.613-10.31-1.61-2.357-3.697-6.636-3.697-6.636l-1.335.322.05 27.37c-1.12.047-3.96.783-3.375.803 8.85-1.77 11.557 10.893 3.013 11.305-1.623.058-3.3 2.852-3.473 4.367.073 3.677.612 7.555-2.078 11.086-.708.93-1.034 2.402-1.69 3.56-3.283 5.817-4.75 9.15-4.414 10.65.086.388.166.897.166.897-10.462 2.614-18.308 3.284-28.848 3.53-.103-.165 3.538-10.407 6.196-15.658 1.964-3.88 2.977-6.534 2.426-7.335-8.358.42-6.756-11.835 1.24-11.404 0 0 2.008-7.06 4.25-10.245 2.127-1.184 6.405.43 8.804-1.16 5.65-1.73 9.35 4.95 9.35 4.95l1.52-6.357-49.967-.24s-5.148 1.93-7.78.842c-1.682-.694-3.612-2.666-3.613-2.665 0 0 19.093-30.668 21.897-35.092.23-.358-.497-1.132-.498-1.14-.106-1.004-22.23 33.48-22.14 35 0 0-.588.836-1.652.098-12.513-8.633-42.412-27.194-42.412-27.194l-.04-13.75c10.4-6.555 9.458-9.233-.166-2.09-.134.114-.205-5.163-.205-5.163 7.336-6.555 1.235-4.502-.213-2.23.034-1.634-.345-3.853.702-4.83 3.205-2.955 6.983-.242 7.174 4.126 4.182.82 3.663 4.495 4.74 5.972 4.264 2.407 2.02 6.06 3.077 7.302 4.49 2.832 1.358 7.385.407 7.28.566.382 6.147 4.123 6.626 3.986-.483-19.616-22.084-38.344-22.685-37.36l.46-4.23S59.277 167.994 59.04 195.7l8.608 5.116c-.765-28.428-13.46-47.615-35.165-59.82l-.46-5.355c18.22 8.48 35.118 25.646 39.053 53.778l10.09-15.66 3.554 1.723-16.197 25.99 10.114 6.653c7.846-10.33 14.39-22.997 18.377-29.023-.104-.55-.322-1.34-.322-1.34-38.57-6.362-60.294-42.504-49.938-80.268l2.68 1.178c-8.042 27.97 5.072 68.227 47.02 76.46-.084-2.976-.607-10.29-.607-10.29s-5.512-1.657-4.7-.993c1.35 1.154 4.384 6.13 3.102 7.897-.923.13-2.465-.387-4.153-1.623-.636-.466-.654-.366-1.37.397-1.98 2.117-4.862.904-4.89-2.005-.01-1.23-.057-1.488-1.8-1.5-2.642-.02-3.828-.474-5.412-2.593-1.124-1.504-1.02-1.51-2.343-1.058-2.533 1.206-4.555-1.326-3.76-3.413.39-.98-.026-1.292-1.18-1.482-2.243-.37-4.78-3.187-5.247-5.487-.095-.47-.33-.587-1.652-.542-2.595.09-4.03-1.483-3.008-3.687.554-1.19.71-1.672-.327-2.478-1.27-.99-1.988-1.677-2.553-2.876-.448-.95-.515-1.56-.822-3.584-.106-.704-.34-.82-1.262-.94-2.682-.35-3.74-3.094-1.77-4.874.603-.544.6-.53-.312-1.712-1.755-2.272-2.413-5.238-1.647-7.213.208-.534.006-1.188-.62-1.345-2.447-.61-2.488-3.322-.147-4.846.68-.443.715-.736.2-1.63-.9-1.562-.854-5.658.016-7.618.56-1.267.558-1.296-.314-1.854-1.858-1.188-1.327-4.454.87-4.992 1.068-.262 1.14-.4.852-1.697-.513-2.31-.6-2.91.763-3.823 3.75-2.436 13.356-7.09 13.356-7.09l3.174-1.512s.316 19.386.112 21.678c-.124.987.763 1.585 1.795 2.61 2.133 2.098 3.3 4.633 6.146 6.393 0 0 1.773-.986 2.87-1.69l.108-27.626c.226-.627.383-.696 1.11-.782.606-.117 2.127-.286 2.637-.436 1.225-.358 1.418-.854-.19-.69-.485.05-1.213.257-2.025.422-5.03 1.51-8.75-6.323-4.92-10.27.735-.658 3.48-1.805 4.73-1.883.36.004 1.434-1.317 2.166-2.537.737-1.226 1.043-2.137.62-3.364-.886-2.586-.04-6.554 2.612-10.887 2.872-4.09 5.09-8.653 6.255-13.512 10.178-1.227 18.812-3.757 28.01-3.197.36 3.11-10.057 21.44-7.882 22.515 8.196 1.963 5.398 11.682-.83 11.36-.935-.006-1.026.077-1.62 2.142-1.13 3.014-1.86 5.313-3.076 8.117-.004.722-.508.65-3.917.626-3.115-.46-5.265 1.237-7.53 1.335-2.89.132-5.354-1.253-6.357-3.55-.447-1.023-.862-.35-.875 2.078-.01 1.933-.09 3.062-.09 3.062s11.944.035 25.553.06c27.51.047 24.77.468 26.95-.622 1.274-.637 2.114-1.327 4.318.112 3.53 2.307 3.415 1.992 2.387 3.477-6.914 10.254-22.196 34.926-22.196 34.926l1.07 1.048s15.434-24.39 22.465-35.815c.32-.37 1.79.098 1.79.098l42.104 27.386c-.356 4.14.058 13.413.058 13.413-11.835 6.284-8.22 9.486-.07 1.874l.134 5.42zm-71.45-98.538s12.213.1 18.338 1.08c5.363.86 5.087.702 5.066 4.598-.016 2.766-.02 2.703-.73 4.03-1.308 2.444-1.085 4.853.983 8.23 2.007 3.275 3.477 5.694 3.477 6.16-.002.724-.124 1.606-1.863 2.822-2.053 1.434-2.444 2.436-2.416 3.893.022 1.18-.2 1.564-.904 1.56-.283 0-1.28.464-2.353.97-1.885.89-1.888.89-3.647.875-.882-.007-1.31-.34-1.555-.245-.474.222-.904 1.808-.89 2.27.05.163.302.065.82-.112 2.918-1 7.258-.55 7.38-.112.588.532.59 1.356-.298 2.21-.576.904-.837 1.372-.597 2.772.326 1.903.083 2.658-.89 3.315-2.968 2.007-6.93 2.26-13.263 1.042-6.676-1.283-11.24-3.83-15.037-8.387-1.696-2.036-2.115-2.75-1.276-2.89 1.034-.16 2.18-.375 3.242-.832 4.69-2.02 4.607-10.61-1.713-11.506-2.577-.09 5.325-12.248 8.125-21.742zm6.025 5.92c-2.27 1.27-3.454 2.818-3.458 3.66-.003.345.074.282 1.157-.43 3.146-2.07 11.43-5.056 14.388-3.33 2.132 1.278 2.96.86 1.725-.86-2.898-4.04-10.712-.73-13.813.96zm8.102 1.352c-.336.003-.686.04-1.032.112-2.188.488-4.594 2.29-6.587 3.878-.982.783-2.374 2.333-2.59 2.74-.493.916.593 1.928 2.072 1.118.86-.47.937-.364 1.766-.25 1.91.576 4.086 1.467 7.452 1.185.313.07.29.146.18.44-.198.538-1.39 1.566-2.947 2.72-.803.593-1.505 1.08-1.56 1.167-.248.396.824.428 2-.24 1.667-.945 3.588-3.037 4.763-4.718.112-.16.267-.292.317-.465.115-.39-.587-.23-.963-.332-.162-.045-.13-.453-.17-.64-.113-.494.08-1.31.17-2.012.072-.566.68-1.017 1.08-1.433 1.76-1.83 1.62-2.658-.743-1.252-.397.237-.713.38-1.1.41-3.49.11-5.507-.024-8.416 2.427-1.293 1.042-2.07 1.144-.92.034 1.757-1.424 3.958-3.447 6.393-3.98 1.47-.367 2.868.758 3.512.468.003-.803-1.224-1.39-2.676-1.378zm-.507 5.055c.4.264.793 1.63.756 2.09-.044.534-.965.312-1.092.058l-.5-1.516c-.216-.512.445-.802.835-.632zm-1.778.31c.427.42.525 1.334.768 2.088-.154.543-3.59-.19-4.02-.8.514-.668 2.285-1.47 3.252-1.29zm6.025 9.79c-.258-.018-.6.108-.91.425-1.546 1.584-1.047 4.28.813 5.154.907.426 2.28.112 4.3-.51.96-.295 1.657-.43 1.838-.43.79.005 1.22-1.22.666-1.78-.64-.647-2.157-.552-3.79.71-.826.64-1.416.947-2.083.94-1.633-.022-2.427-1.703-.76-3.47.556-.586.357-1.01-.073-1.04zM128.285 77.45c1.926 1.555 5.583.74 8.04-.887 2.198-1.453 3.108-1.883 4.872-1.58 2.16.373 2.08-.477 1.144-1.545-1.06-1.21-3.68-.837-5.872.616-4.86 3.223-6.618 3.762-8.028 2.018-1.516-1.872.288-4.275 2.072-2.964 1.463.996 1.44.247.837-.437-3.527-2.97-6.07 2.357-3.065 4.78zM111.2 78.98c2.453 3.11 4.8 5.68 8.328 7.575l.04.587-11.405-.025c.797-1.39 3.06-8.044 3.037-8.137zm-38.613 8.102c-.24 4.688.6 7.442 3.346 10.72 2.918 3.483 2.7 8.914.824 12.27-.83 1.483-2.52-.342-1.725-1.29 1.133-1.426 1.2-4.903.665-7.077-1.2-3.593-3.928-5.352-5.03-9.15-.373-1.62-.256-4.532-.256-4.532l2.177-.94zm3.57.397c.2-.032.518.174.987.58 1.613 1.397 1.34 5.394-.508 7.957-.566.778-1.034.556-1.575-.166-.728-.72-.476-.792.138-2.058.64-1.32.846-2.807.715-4.543-.09-1.17-.048-1.725.244-1.77zm104.607 1.368c1.423-.02 3.202.28 3.364.797.154.63-.184 1.132-.98 1.468-2.082.88-4.835-.352-4.14-1.854.174-.27.9-.4 1.756-.412zm-3.61.343c.41-.01.728.092.98.206.683.352-.39 2.756 3.007 2.71.813.12 1.413-.068 1.302.298-.17.554-1.626 1.385-3.208 1.618-4.733.7-4.527.464-4.312 3.81.14 2.184-.002 2.92-.3 4.245-.513 2.296-.716 4.515-.37 3.784.46-.975 1.64-4.056 1.633-5.808-.01-2.585.912-3.096 1.28-1.223.16 1.238-.395 1.937.437 3.202.472.71.688.697.37 1.8-.277.97-.084 1.257.256 1.75.342.497.686.61.396 1.306-.624 1.498.355 2.917 1.775 3.037.655.055.837.34.64.592-.348.432-1.04.638-1.613.763l-15.038-9.61s1.115-2.236 1.447-2.835c2.16-4.737 3.873-6.896 10.19-9.375.434-.188.81-.262 1.128-.27zm7.99 3.11c.416-.016.724.202 1.072.65.923 1.188.117 2.67-2.15 3.947-1.94 1.103-2.505 1.234-2.926-.5-.097-.312-.354-.696-.522-.85-.45-.41-.348-.754.225-1.057.273-.146 1.146-.502 1.844-.964 1.21-.8 1.926-1.205 2.458-1.226zm-6.4 3.443c.475.007.964.122 1.325.356.6.39.605 1.373 0 1.765-1.21.493-3.115-.167-2.955-1.276.083-.564.837-.86 1.63-.847zm7.737 1.213c.43-.012.75.188 1.018.602.708 1.094-.123 2.19-2.51 3.36-1.568.768-3.574 1.1-3.44.65.105-.365-.455-2.16-.705-2.446-.096-.304.03-.03 2.01-.655.718-.227 1.584-.6 1.985-.85.68-.427 1.214-.65 1.643-.66zM73.67 99.792c-1.104 2.652-1.277 3.823-.753 6.61.437 2.322.943 3.486 3.325 6.916 1.812 2.61 2.393 3.626 1.956 4.45-.308.444-1 .858-1.43.432-.887-1.158-1.418-2.564-2.282-3.854-3.328-4.883-3.56-6.125-3.985-9.98-.195-1.763.817-5.514 1.684-6.074.97-.38 1.784.89 1.484 1.5zm76.913-1.222c-.077.01-.16.055-.243.137-.452.453-1.747 2.562-1.702 2.88.1.7.67.243 2.17-1.96.36-.53.117-1.1-.224-1.057zm28.653 1.198c1.332.04 1.805 1.235 1.208 1.858-.87.91-2.435.223-2.435-1.052 0-.54.252-.818 1.228-.806zm7.39 1.702c.763.032.863.792.458 1.893-.506 1.02-1.116 1.194-2.947 1.765-2.193.684-2.55.584-2.88-1.433-.127-.774-.065-.603 1.956-1.14.865-.23 1.88-.64 2.42-.865.407-.165.737-.232.992-.22zm-129.508.903l.538 4.073.876-3.05-1.415-1.023zm122.382 1.37c1.08.005 1.657.97 1.11 1.55-.306.323-1.083.33-1.458.143-.857-.626-.702-1.696.347-1.693zm-32.96 2.127l2.103 1.297-17.08 26.97-2.06-.045-.196-.43 17.233-27.792zm38.76.26c1.26-.018 1.37 1.17-.157 2.264-.626.4-1.328.5-1.872.523-.76.034-1.27-.164-1.33-.69-.33-1.286-.518-1.606.654-1.53.234.016.872-.02 1.385-.24.523-.222.967-.322 1.32-.327zm-5.223 1.18c.87.004 1.426.95.84 1.412-.723.572-1.622.22-1.618-.646.003-.552.153-.77.778-.767zm-122.91 1.906l-4.647 4.116c1.704 2.016 3.133 4.028 4.607 6.142l.04-10.258zm93.97.264c2.017-.08 2.678.895 1.722 1.55-1.3.87-2.413.827-3.89.626-1.95-.362-.396-1.925 1.742-2.146.147-.016.29-.024.426-.03zm-2.142 2.934c.407-.012 1.008.104 1.784.366 1.32.447 2.963 1.83 2.886 2.597-.126 1.24-2.462.6-4.343-1.18-1.18-1.113-1.224-1.76-.328-1.783zm-1.785.02c1.144.107 2.285 3.98 1.398 5.17-.87 1.165-2.4-1.346-2.122-3.317.11-.78.307-1.81.61-1.848.038-.006.077-.01.114-.006zm-74.693.85c.645.154 1.47 1.045 1.29 1.722-.13.27-.4.192-.693.122-.528-.225-.937-.962-.835-1.575.05-.165.12-.26.24-.27zm86.674.665l3.36 2.277-3.36.133v-2.41zm-13.922 4.61c2.577.015 3.122.85 1.198 1.864-.8.422-2.748.5-3.756.15-1.6-.553.32-2.025 2.558-2.013zm20.85 1.737l.177 2.337-6.47.567-.332-2.434 6.627-.47zm-22.366 1.164c.447-.027 1.162.18 2.098.66 1.76.906 2.762 2.426 1.854 2.905-.824.435-2.29-.08-3.326-1.17-1.37-1.438-1.48-2.34-.626-2.394zm-2.2.006c1.175.07 2.19 3.292 1.417 4.885-.424.873-.96.683-1.73-.752-.745-1.387-.786-3.835.073-4.103.08-.025.16-.034.24-.03zm-84.15.91l-2.827 5.687 5.124 4.473-2.296-10.16zm109.514 4.38l.455 2.25-6.212 1.53-.606-2.45 6.362-1.33zm-27.12.44c.757.015 1.47.194 1.877.554.568.5.444.723-.894 1.267-2.383.97-5.317.383-3.614-1.065.602-.513 1.658-.772 2.63-.755zm40.344-.13c-2.372 1.59-.088 2.464 1.607 1.262-.127-.41-1.11-1.256-1.607-1.263zm-42.085 3.187c1.696.056 5.025 2.383 4.312 3.497-.387.61-2.612.09-3.496-.76-1.163-1.112-1.778-2.602-1.136-2.718.097-.017.206-.023.32-.02zm-2.143.108c.876-.162 2.275 3.92 1.218 4.965-.396.39-.505.368-1.17-.22-1.324-1.175-1.097-3.34-.302-4.548.077-.116.165-.18.254-.196zm52.133 2.15c-.23-.43-.52-.63-.837-.868-8.246 3.168-6.132 6.186.837.87zm-19.54.28l.822 2.28-6.255 2.48-.92-2.494 6.354-2.265zm-106.982 4.315l-2.116 5.574c2.302.013 4.378 1.1 6.48 2.068l-4.363-7.643zm109.062 1.637l1.325 2.24-5.883 3.184-1.174-2.362 5.732-3.062zm-136.67 4.363l2.41 1.702-3.54 4.4-.323-.62.038-3.653 1.413-1.83zm139.883 1.384l1.423 2.053-5.663 3.937-1.39-2.234 5.63-3.757zm-133.81 2.64l2.602 2.004-4.112 4.964-2.49-1.902 4-5.067zm28.627 1.227l-.122 5.97 6.123.236-6-6.206zm70.765 2.69l6.96 4.008-1.05-6.116c-1.817.353-4.15 1.538-5.91 2.108zm38.223-1.253l1.623 2.02-5.232 4.396-1.676-2.103 5.286-4.313zm-132.305 1.77l2.426 2.256-4.272 4.616-2.245-2.118 4.092-4.753zm136.775 3.277l1.883 1.913-4.77 4.96-1.882-1.913 4.77-4.96zm-131.263 2.432l1.878 2.19-4.88 3.878-1.81-2.2 4.812-3.868zm28.123.513l1.37 5.85c-.1-.427 6.075-1.745 6.88-1.302l-8.25-4.548zm71.893.495l5.827 6.154.656-5.928-6.483-.226zm36.043.967l2.107 1.648-3.912 5.574-2.385-1.874 4.19-5.35zm-131.86 3.717l1.737 2.51-5.115 3.045-1.452-2.216 4.83-3.34zm137.382.592l.322.322-.005 3.98-1.623 2.387-2.216-1.306 3.522-5.384zm-32.973 4.47l5.156 9.374 1.455-6.99c-1.907-.03-4.924-1.25-6.61-2.383zm-100.33 1.25l1.228 2.706-5.403 2.465-1.232-2.69 5.408-2.48zm2.92 6.456l.988 2.715-5.746 1.907-.91-2.616 5.668-2.006zm-25.688 4.916l1.79 1.254c9.32-4.9 6.416-6.347-1.79-1.254zm52.687-3.117c.352-.035.758.45 1.086 1.527.494 1.625.23 3.64-.87 3.613-.743-.09-1.02-1.995-1.022-2.548-.01-1.63.353-2.543.806-2.59zm5.11.975l2.22.24-.01.625-17.682 28.074-2.143-1.36 17.615-27.58zm-9.52.65c.704.007 1.735.493 2.65 1.463.534.58 1.106 1.402 1.246 2.245-.016.277-.49.172-.948.107-1.175-.166-2.902-.98-3.453-1.98-.678-1.232-.296-1.842.503-1.834zm81.293 1l2.357 11.498c.73-2.878 2.272-4.537 3.415-6.798-3.005-1.383-4.24-3.024-5.773-4.7zM64.29 182.48l.552 2.975-5.957 1.38-.616-2.887 6.02-1.467zm22.215 1.033c.084-.002.168 0 .25.01 2.178.243 2.486.728 1.02 1.71-.887.597-3.29.68-3.687.045-.42-.678 1.152-1.753 2.417-1.765zm-43.22 1.745l1.85 1.08c3.166-2.288-.292-2.746-1.85-1.08zm40.085 1.003c.666.01 1.066 1.197 1.3 2.29.228 1.057.307 2.01-.102 2.542-.5.65-.987.766-1.384.122-1.16-1.885-1.123-4.97.186-4.953zm-4.91 1.727c.312-.01.703.067 1.16.24 1.545.583 3.594 2.95 2.728 3.276-1.278.482-4.072-.92-4.598-2.338-.263-.714.027-1.154.71-1.178zm-12.743 1.907l.142 2.94-6.266.253-.186-2.924 6.31-.27zm15.346 2.474c.616-.018 1.233.063 1.73.28.897.387.244 1.09-1.296 1.622-1.017.353-2.465.443-2.973.04-1.188-.937.687-1.89 2.54-1.942zm-48.443.343c4.29 2.606 13.135 8.412 13.135 8.412-.42.083-.866.41-1.28.733-.32.263-.667.507-.97.63-.475.195-.912.223-1.31.31-2.766.6-4.12 2.166-3.257 4.112.34.764.427.642-.162 1.286-1.648 1.573-1.447 2.044-.86 4.06.008.284-1.963 2.704-.22 4.527.964.84 1.01.314.66 2.225-.122 1.15.19 2.092 1.863 2.42.928.428.915.28.586 1.067-.226 1.13.097 1.6.89 2.01.72.45 1.013.572.504.968-5.568 2.852-7.28 7.812-2.03 15.12.62.862 2.178 3.294 2.178 3.294-1.77 2.628-3.46 4.792-5.266 7.14l5.255 7.35c-.852 1.334-2.84 4.046-4.063 6.723-1.837 4.02-.624 9.654 4.66 11.34 2.266.723 5.258.137 7.144-2.054 1.53-1.777 2.363-5.308.967-8.983-1.766-4.12-3.883-6.14-4.568-7.31l5.627-7.064s-3.877-5.577-5.423-7.603c10.552-12.916 1.933-16.527.28-17.634-.258-.173-.196-1-.196-1 9.477-1.085 12.714-6.293 15.5-12.885 5.655 3.642 13.75 8.538 19.42 12.368.547.507.905.82.822 1.1-.068.23-.288 1.276-.3 2.353.265 1.713.14 2.488-.552 3.145-.65.618-.52.898-.415 1.565.18 1.16.355 1.274-.162 1.858-.64.72-.853 1.056-.734 2.802.07 1.037.203 1.814-.068 2.426-.353.798-1.318 1.2-2.587 2.196-2.22 1.743-1.92 2.276 1.144 8.603 2.61 5.39 2.91 6.623 1.907 8.537-.833 1.593-1.146 2.824-1.046 5.125.026.587.076 1.22.074 1.53-.007.745.003.66-.426 1.125-.334.362-.89 1.08-1.232 1.594-3.644 5.467-13.228 19.37-13.228 19.37l-32.23-.053-.032-94.836zm45.2 2.544c.378-.027.834.648 1.35 2.015.3.787.268 2.157-.215 2.684-.96 1.05-2.28-1.41-1.863-3.354.188-.88.435-1.325.73-1.346zm90.647-1.477c.005 4.98-.103 11.442-1.816 16.207l1.945.88c-.627-4.89.15-8.906 4.638-11.022-2.042-1.388-3.602-3.728-4.766-6.065zm-95.478 3.14c.155-.005.335.034.532.097.728.2 1.613.625 2.15 1.174.923.94 1.875 2.07 1.635 2.177-1.524.67-5.393-1.375-4.886-2.974.112-.338.31-.467.57-.474zm-6.78.21l.04 2.44-3.746-2.397 3.707-.043zm85.545 1.173c.606.054 1.544.848 1.398 1.4-.26.596-.58.54-1-.087-.52-.782-.732-1.27-.398-1.313zm-75.9 3.018c.91-.024 1.694.177 1.78.65-.003.448-.694 1.028-1.546 1.29-2.13.657-3.728.233-3.146-.81.366-.692 1.74-1.1 2.91-1.13zm74.174 2.767c-.9 1.614-1.013 6.775.576 8.88 2.47 2.727 4.747 6.275 4.484 11l-2.372 1.06c.132-3.884-.023-6.41-3.056-9.76-3.61-3.925-2.763-10.725-1.516-12.725 1.07-1.973 2.61.822 1.883 1.545zM46.12 201.94c.76-.046 1.686.402 3.364 1.51 4.292 3.04 6.62 4.21 10.876 7.218.622.583.59.5.483.96-1.627 6.227-6.353 11.168-13.354 12.073-.81.105-.392-.402-.88-1.378-.502-1.006-1.43-1.443-2.46-1.453-2.89-.027-.42-1.65 3.11-2.113 1.167-.18 2.573-.338 3.315-1.042.162.076-.612-4.87.182-6.61.404-1.566.02-2.323-.416-1.36-.273.604-.658 2.192-.864 3.82-.175 1.373-.464 1.56-.787.894-.15-.306-.147-1.026.087-1.595.263-1.295-1.37-2.27-1.042-3.457.438-.99-.017-2.083-.567-2.445-.3-.643-.264-1.106-.225-1.556.092-1.05-.606-2.06-1.712-2.498-.486-.248-.34-.516.168-.77.238-.12.47-.187.724-.2zm-3.51 1.774c.277-.005.554.025.816.093.568.346 1.025 2.313.39 2.392-.232.027-.963.116-1.53.282-1.92.564-2.83.488-2.79-.616.036-1.126 1.612-2.126 3.113-2.152zm2.55.2c.757.004 1.366.89.892 1.36-.492.485-1.437.13-1.434-.573.003-.377.174-.788.543-.786zm.515 3.067c.217-.008.457.038.714.157.703.325 1.108 1.533.66 1.976-.34.336-1.31.218-1.833-.225-.93-.792-.478-1.87.46-1.907zm-2.382.176c.436.01.748.15.832.45.07.26-.05.497.068.865.184.58.55 1.025.23 1.258-1.474-.088-4.53 1.76-5.414 1.673-.735-.098-.82-.776-.18-1.877.74-1.272 3.16-2.394 4.465-2.367zm.89 3.576c.32-.02.376.156.245.626-.093.333-.016 1.126.21 1.638.243.55.684.876.455 1.09-.377.11-1.642.362-2.704.76-1.37.758-5.223 3.044-4.254-.612.31-1.222 1.727-2.07 4.2-2.935.94-.33 1.53-.55 1.85-.568zm2.02.044c.596-.044 1.275.243 1.58.982.893 1.78-1.67 2.033-2.49.553-.484-.876.145-1.48.91-1.534zm.49 4.14c1.33.008 2.364 1.66 1.398 2.285-.717.432-1.604.35-2.426.147-1.233-.54-.664-2.44 1.028-2.43zm127.516.035c5.067 2.653 11.96 5.1 18.642 6.916l-.225 65.733-45.464.028-12.51-21.717s-.414-.705-.547-1.017c-.253-.59-.162-1.073.01-1.687.414-1.48 1.67-4.386 2.826-6.445 3.02-5.546 7.312-11.63 4.988-16.958-.267-.61 2.4-3.915 2.4-3.915 4.107.336 7.503-2.342 6.287-8.662 8.575-3.503 15.637-6.353 23.594-12.274zm-129.878.325c.116-.005-.233 1.438.494 2.322.453.697.38.674-1.16 1.28-.574.313-1.15.787-1.476 1.077-2.203 1.966-4.384-.605-2.255-2.67 1.72-1.545 3.517-1.883 4.367-1.99.014-.013.022-.02.03-.02zm104.75 1.358c.74.13 1.697 1.114 1.39 1.65-1.04 1.747-1.09 2.686-1.182 4.492-.104 2.017.24 2.314-.528 1.966-.5-.233-1.438-.636-1.647-1.148-.485-1.182.753-7.175 1.968-6.96zm-105.468 5.062c.818-.014 1.678.254 2.16.876.404.52.446.963.045 1.175-.954.503-4.11.24-4.27-.406-.245-1 .867-1.624 2.064-1.645zm47.816 1.28c3.855.018 8.355.837 11.84 2.358 4.943 1.865 9.3 6.618 10.283 8.65.3.618-.312.618-.842.676-5.888.972-7.85 8.218-2.88 11.682 1.56.974 2.817.87 2.817.87 1.262-.107-5.602 13.06-8.333 21.263-8.45-.347-14.838.956-23.1-1.888-.89-1.476-.678-4.733-.03-6.416.593-1.526 1.375-2.706.997-4.464-.656-3.062-3.446-7.05-4.38-9.58-.82-1.93-.768-2.65.66-3.756 1.682-1.303 2.096-1.576 2.557-2.234.43-.613.247-.755.255-2.137.01-1.678-.03-1.418 1.354-1.664.483-.086 1.623-.45 2.494-.91 1.807-.95 3.066-.917 4.127-.327.462.124.418-.355.61-.988.086-.276.28-.73.266-.866-.033-.283-.644-.2-1.315-.107-2.696.377-4.82.46-5.913.053-.947-.353-.95-.99-.396-2.05.492-.942.84-.928.64-2.894-.253-2.47.09-2.99 1.242-3.8 1.438-1.012 4.048-1.486 7.048-1.474zm13.936 2.178H117.9c-1.23 1.984-2.6 5.045-3.375 7.946-.113.226-.247.447-.538.155-1.69-2.42-3.614-5.01-8.62-8.102zm-10.39 8.827c-1.5.042-3.373.763-5.728 2.112-1.6.917-2.907 1.486-4.606 1.174-.97-.18-1.096-.04-1.223.273-.572 1.417 1.55 2.937 3.69 1.94.623-.26 5.4-2.737 5.664-2.95.286-.228 2.265-.81 2.787-.806 1.58.02 2.556 1.262 2.363 2.694-.258 1.914-2.973 2.01-3.15.31-.136-1.312-.683-.73-.732-.084-.002.55.413 1.805.866 2.088 2.293 1.432 5.316-1.355 3.868-4.226-.886-1.755-2.102-2.575-3.8-2.526zm-10.286 6.67c-1.555.297-2.566.902-4.243 1.04-1.384.307-1.28 1.408-.416 1.98.665.44 1.503.176 3.923-1.363 2.378-1.51 4.415 1.638 2.514 3.25-1.197 1.015-.375 1.28.444.67 2.106-1.57.898-6.17-2.22-5.576zm7.36 8.102c-.182-.013-.47.054-.855.23-1.78.815-3.15 1.676-4.005 2.82-.146.25-.066.67-.137 1-.056.257-.262.586-.225.762.03.152.534.316.61.46.31.582.11 2.066-.068 3.14-.085.514-.85.672-1.153.982-1.005 1.02-.752 1.332.317.934.747-.277.43-.793 2.28-.435 2.394.464 4.29-.187 6.175-1.232 2.09-1.162 2.85-1.807 2.934-1.668.14.23.03.35-1.463 1.59-3.737 3.107-6.518 3.83-8.615 2.665-.628-.428-1.13-.602-.655.312.06.1.57.495.924.655 2.155.973 4.856.15 8.294-2.567.755-.597 1.42-1.265 2.294-1.995 2.853-2.387 2.102-3.48-1.12-2.317-1.016.366-1.302-.03-2.675-.562-1.845-.717-2.45-.784-4.572-.822-1.848-.032-2.124.14-2.122-.17.002-.397 1.244-1.794 2.64-2.402 1.362-.594 1.744-1.34 1.198-1.38zm3.4 5.893c.343.35-.15.57-1.482 1.203-.755.358-1.448.652-1.546.65-.118.215-1.375-2.62-1.03-2.758.145-.06 3.223.202 4.057.905zm-4.837-.298c.31.643.545 1.315.665 1.937.028.19.164.467-.137.465-.235.033-.626.053-.767-.168-.302-.473-.636-2.083-.523-2.396.23-.314.64-.094.763.16zm10.963 5.096c-.11 0-.32.084-.65.278-5.303 3.133-11.662 4.764-15.75 3.22-1.38-.522-1.632-.338-1.13.605.348.655 1.037 1.423 2.087 1.712 3.34.92 8.722-.42 12.86-3.135 1.687-1.105 3.068-2.683 2.583-2.68zm31.21 8.39s9.37 19.318 11.193 20.227l-76.25-.137L80.58 269.56c.114 1.02 30.988 5.262 52.208-1.726z"/><path fill="#D40000" d="M68.213 287.73l12.313-18.185c18.212 3.462 34.596 1.633 52.543-1.57l11.952 20.16-76.81-.405zm96.558-67.77l-.078-10.796 3.76 1.398c-1.305-5.02 1.992-10.27 4.992-10.478-9.59-7.234-1.623-14.973-1.788-15.138-10.49-5.414-5.227-13.726-5.954-14.472-12.78-3.313-7.79-13.458-8.756-12.41-7.44 2.236-11.537-4-11.663-9.068-6.438 3.65-16.386-1.52-13.27-7.33 0 0 3.41 1.618 4.014 1.292 5.257-3.822 4.845 1.663 5.938 2.854 3.92-.568 6.234 2.433 7.21 3.89 5.784.007 5.547-1.38 5.597 4.23 4.356 1.105 4.184 3.46 6.708 6.68 5.492.06 4.567 1.848 3.324 4.888 3.96 3.152 4.28 5.62 4.933 8.486 4.32 1.565 5.095 2.203 2.275 5.844 3.812 5.715 1.978 9.024 2.557 9.337 4.752 3.43 2.377 4.67.3 5.987.723 4.557 1.3 5.227-.376 9.865 5.463 3.877-.867 5.625-1.19 5.545l-.015 3.84-8.52 5.555zM32.485 191.812l-.11-13.377 46.313 29.928-5.852 9.186-40.35-25.738zM94.01 211.5l10.946-22.92-3.934-25.002 31.376.687c3.526 8.02 5.654 14.837 14.692 28.108l-9.55 2.977.333 16.067-43.863.082zm26.833-6.028c-.32-.663-.498-1.116-.438-1.412.117-.382.408-.364.783-.16 1.333.648 2.666 1.207 3.65-.02.49-.64.362-1.554-.056-2.082-.752-1.53-3.118-.423-3.914-.368-.74.017-1.023-.604-.416-1.49.36-.385.588-.81.647-1.31.414-3.504-5.557-2.258-3.485 1.14.942 1.26.393 2.015-.99 1.22-1.523-.876-3.64-.06-3.57 1.782.054 1.395 1.806 2.257 3.28 1.415.34-.194.605-.404.847-.51.685-.298 1.178-.052.95.72-.613.964-1.333 2.35-.73 3.26.603 1.33 2.68 1.206 3.392.38.49-.57.627-1.497.05-2.565zm72.378-70.257l-46.404-30.076 1.604-2.544c2.078-1.16 2.934-2.603 2.863-4.613l1.26-2.778 40.725 26.133-.047 13.877zm-72.553-10.167l4.753 24.28-32.396.462c-1.78-8.152-12.906-26.605-12.877-26.282l8.64-21.23 42.99-.05-11.11 22.82zm-12.157-9.04c.82-.753.766-1.9-.14-3.192-.876-1.25-.485-2.153.92-1.306.777.52 2.012.63 2.847.365 1.06-.36 1.498-1.207 1.342-2.274-.19-1.29-1.622-1.644-3.15-1.08-.442.093-.712.454-1.093.626-.824.362-1.152-.63-.398-1.914.835-1.424-.032-2.95-1.57-3.086-1.643-.144-2.62 1.725-1.95 2.75.96 1.472.264 2.496-1.115 1.513-1.985-1.418-4.577.378-3.504 2.484.522 1.02 2.228 1.29 3.755.643 1.277-.54 1.657.08.883 1.39-1.592 2.688 1.02 5.052 3.172 3.08zM61.507 92.164l-.343 12.94c-4.846-2.965-4.126-3.002-4.305-2.957 1.425 3.89-.24 8.695-4.35 11.057 7.407 6.95 3.405 11.836 2.188 15.136 9.465 5.497 4.662 14.99 4.7 14.5 9.332.053 9.144 8.212 9.413 11.616 11.54-.725 9.992 8.495 11.515 9.288 5.593-2.503 12.126-1.645 13.858 5.873 1.122 4.266-2.99.155-4.783.335-6.378 3.972-5.15-2.09-5.51-2.934-5.282.5-5.993-2.018-8.307-3.804-5.705 1.098-5.235-.78-4.9-4.244-4.475-.907-5.447-3.7-7.23-6.434-6.18.2-3.66-4.165-3.637-5.023-.75-.67-4.298-4.163-4.473-8.16-6.344-1.793-2.36-4.994-2.132-6.092-2.398-2.99-3.03-5.194-2.226-8.96-5.632-2.635-.93-5.096-.53-6.593-1.835-4.907-.498-6.376.228-9.03-3.625-4.25-1.46-4.014 1.193-6.592.335-.465-.59-2.6-.54-3.854l10.172-6.065zm32.538-47.953L83.89 26.032h72.538s-7.894 10.94-10.955 16.443c-18.09-2.855-35.02-1.5-51.428 1.737z"/><path fill="#E2CF00" d="M43.412 275.922c-6.362-1.445-7.443-9.443-1.47-16.094.482-.537.812-1.37.812-1.37s-1.063-1.748-3.85-5.607c-.52-.718-1.274-1.868-1.274-1.868 1.525-2.2 3.128-4.025 4.837-6.412.23-.322.653-.684.594-.98-.084-.423-.703-.845-1.445-1.938-4.308-6.346-4.782-8.86-2.596-12.636 2.055-3.548 6.966-3.958 9.954-.83 3.23 3.38 3.08 6.45-1.116 12.702-.92 1.372-1.585 2.61-1.585 2.61s-.038.435 1.48 2.396c2.106 2.72 3.653 5.056 3.653 5.056s-.96 1.224-1.866 2.29c-2.433 2.856-3.526 4.827-3.526 4.827s.166.57.53.98c6.665 7.554 6.14 16.23-1.398 16.967-.388.04-1.33-.02-1.734-.092zm53.62-96.395c-.175-.286-23.99 38.255-23.99 38.255l2.72 1.743L98.54 183.9c.345.26.68.57.61 1.004 0 0-18.764 30.578-21.89 35.465-.084.13 4.653 2.937 4.812 2.944 6.978-3.44 36.084-.462 55.41-1.646.075.06-.298 6.79-.298 6.79s-4.406-5.098-5.297-5.13c-4.395-.152-9.017 1.72-12.326 1.51-2.114.645-4.527 8.35-5.002 10.282-3.847-.446-7.562 3.577-6.673 7.326 1.257 4.164 3.417 3.85 5.754 3.92-.217 4.713-8.54 17.14-8.575 23.262 8.8-.696 18.325-.856 27.405-3.595 0 0 3.41-9.808 7.714-16.272 1.418-2.472 2.1-6.185 1.523-8.524-.365-2.562.74-3.21 1.726-5.003.6-1.12 2.818-1.075 3.102-1.157 5.775-1.673 3.712-9.14 1.255-10.47-3.065-1.656-7.4.91-9.064-2.45-1.763-3.555-1.192-10.91-1.192-10.91l-43.602.21s12.32-23.412 12.007-23.584c-3.37-1.85-8.872-8.278-8.913-8.345zm-29.164 21.31c.203-2.368.582-40.842-35.772-59.97l.193-5.057c.223-.26 33.07 14.826 38.704 54.017L81.13 173.94l3.73 1.465c-5.51 8.28-16.47 28.374-16.992 25.43zm-22.076-13.86c1.498-4.442-.96-2.086-3.198-2.268-1.53-.834-3.034-1.91-4.456-2.846 10.623-5.63 4.297-5.357-1.893-1.404-1.604-.87-3.634-2.776-3.762-2.615 11.988-7.712 7.49-7.867-.18-2.284.263-5.235.076-3.27.18-5.03 6.54-7.008.448-3.2 0-3.116-1.61-6.992 6.09-5.528 6.796-.242 1.354 1.008 4.02 2.255 4.804 6.59 3.698 2.356 3.31 4.307 3.14 7.128 1.445 1.43 5.178 4.444.824 7.23l-2.256-1.143zm-13.79-31.904l.246-3.868c.502-1.576 28.538 18.427 26.518 44.13.33-.18-3.104-1.795-4.088-2.677.015-18.915-22.242-38.524-22.676-37.585zM192.81 176.77c-18.708-8.573-36.472-29.12-37.404-55.844l-10.566 17.698-3.75-1.588c.35.29 8.356-14.57 16.6-24.843 2.324 33.72 15.548 49.397 35.58 60.787l-.46 3.79zm-97.97-12.328c-18.127-2.25-44.338-26.93-36.504-60.386 1.11-3.397 18.593 15.426 18.594 15.425.11-.853 15.727 24.307 15.288 29.222 13.18 3.755 38.908.194 38.908.194 21.393 4.777 43.76 27.857 35.685 60.657 0 0-5.686-3.733-10.438-8.08-14.437-13.955-19.02-25.423-24.134-38.073-18.485-1.674-35.814 1.64-37.4 1.042zm98.144-27.863c.316 1.665.11 5.117.174 5.11-4.817 5.246-5.317 5.342.722 3.655-.75 5.03-4.468 5.857-6.677 4.146-.814-.63-.822-4.098-.822-4.098-3.662-.917-4.92-2.02-4.4-5.96-4.22-.503-4.052-2.557-3.705-6.844-3.84-2.16-2.885-5.6-.612-7.07l1.9 1.31c-.61.546-.312 3.96 3.055 1.42 0 0 2.69 2.236 3.986 3.104-9.74 6.264-3.837 4.887 2.163.772 1.126.768 2.663 2.023 3.464 2.565-7.905 5.67-10.498 10.408.754 1.89zm.473 21.296l-.322 4.515c-19.232-11.766-24.438-27.284-25.867-43.812 0 0 2.58 1.9 3.762 2.69 1.715 21.32 21.24 35.72 22.427 36.608zm-105.364-55.95l46.12.294-12.23 23.394 6.455 7.628s16.02-24.97 24.077-38.05l-2.786-1.665-22.995 36.14-.913-1.014 22.668-36.11c-1.358-.89-3.932-2.318-3.932-2.318s-39.276.63-56.348.562c.554-2.356.673-6.533.673-6.533 2.517 3.615 5.215 6.843 11.084 3.29 0 0 6.943.235 7.198-.096.85-1.374 2.354-5.694 4.11-10.574 6.696-.447 6.03-3.686 6.79-4.748-.512-9.52-5.85-4.393-5.39-7.854 1.508-6.166 9.22-20.125 8.245-21.35-1.99-1.32-21.716 2.565-27.457 3.272-.53-.205-3.333 8.957-6.29 12.874-3.215 4.262-4.36 8.83-2.72 13.14-1.702 4.74-4.962 4.253-7.582 5.595-2.97 3.22-2.15 8.146.682 10.053 1.972 1.327 4.998 1.258 8.083-1.247l2.458 15.315zm91.648-33.092l-5.395-7.248 5.23-7.624c-2.063-3.273-5.47-8.284-4.858-12.256 1.333-7.875 11.955-6.72 12.88.813.503 3.495-2.046 7.783-4.634 11.433 1.708 3.115 2.443 3.623 4.928 7.193-1.476 2.605-5.068 7.704-5.068 7.704 2.24 3.77 5.357 7.926 5.132 11.76-.236 3.295-3.825 6.632-7.175 5.93-10.417-2.18-4.6-13.32-1.04-17.706z"/><path d="M82.167 25.202c2.86 5.373 10.983 19.87 10.983 19.87 19.317-4.008 35.562-5.027 52.634-1.288L157.98 25.29l-75.813-.088zm2.52 1.09h3.49l6.852 14.1 11.818-2.362-2.015-11.707 3.345.02L109.87 37.6l17.365-.44 2.25-10.865 3.202.04-2.298 11.04 13.75 1.854 6.73-12.935h4.62l-10.23 15.97c-18.2-3.546-36.28-2.354-51.41 1.37l-9.164-17.342zm6.586 0h10.196l2.444 9.517c-1.252.653-5.928 1.77-7.492 1.613-1.868-3.272-3.798-8.005-5.15-11.13zm19.664 0h15.517l-1.325 8.104-13.014.416-1.18-8.52zm24.597 0h11.956l-4.72 9.84-9.017-1.228 1.78-8.61zm45.523 9.85c-.7-.004-1.344.057-1.937.18-3.102.65-4.727 3.034-4.753 6.926-.012 1.783 1.303 4.937 3.3 7.917.976 1.453 1.624 2.792 1.624 2.792l-5.202 7.648 5.536 7.232s-.862 1.012-1.374 1.736c-2.54 3.59-3.713 6.948-3.55 9.702.175 2.975 1.91 5.244 5.158 6.333 1.783.597 4.325-.134 6.035-1.683 1.38-1.25 2.073-2.875 2.103-4.782.042-2.726-1.274-6.027-3.897-9.63-.713-.977-1.063-1.745-1.063-1.745s3.672-5.228 5.057-7.62l-5.018-7.207c3.99-5.994 4.794-7.322 4.905-11.007-.18-3.65-2.828-6.77-6.923-6.79zm-.5.44c.174-.004.348 0 .52.014 4.556.352 6.962 3.737 6.357 8.084-.618 4.145-4.354 8.007-4.954 9.34 1.797 2.92 5.184 7.07 5.184 7.07-1.437 2.614-5.15 7.68-5.15 7.68s.216.418.45.752c3.877 5.492 4.942 8.088 4.676 11.38-.21 2.597-2.26 4.913-4.816 5.384-4.05.745-7.372-2.13-7.78-6.01-.25-3.397 1.94-6.7 3.644-9.276.72-1.08 1.34-2.113 1.34-2.113l-5.517-7.242s.397-.622.65-.992c.97-1.408 2.226-3.15 2.866-3.986 1.16-1.51 1.85-2.553 1.85-2.553s-.822-1.323-1.585-2.527c-3.024-4.78-3.868-7.23-3.402-9.87.57-3.25 3.087-5.093 5.67-5.136zm.412 2.45c-1.685.044-3.292 1.285-3.933 3.08-.925 3.365 2.617 8.46 4.23 9.83 3.02-3.475 4.944-7.37 3.828-10.1-.733-1.648-2.442-2.855-4.126-2.81zm.415 1.09c3.05.062 4.192 3.685 1.838 7.805-.812 1.406-2.01 2.875-2.01 2.875s-1.117-1.393-1.79-2.444c-2.727-4.27-2.023-7.6 1.326-8.196.22-.03.43-.044.635-.04zm-60.712 1.883c-7.986.042-18.656 1.372-28.036 3.5-.813 5.032-3.34 10.077-6.093 14.085-2.652 4.333-3.61 8.105-2.724 10.69.83 2.42-1.437 6.032-3.927 6.26-3.096.28-5.065 2.437-5.027 5.506-.088 4.917 3.306 7.932 7.912 6.26.463-.06.772.244.772.244l-.27 28.143c-2.592.407-4.323.972-6.527 2.143l-.93-.998c-.51-.55-1.156-1.25-1.438-1.564-.28-.314-.79-.752-1.13-.97-.34-.216-.8-.684-1.02-1.04-.544-.87-2.85-3.087-4.108-3.947-.215-.146-.758-.607-1.208-1.02l-.823-.754.005-9.346c.003-5.14-.05-9.4-.117-9.468-.067-.068-1.12.38-2.342.997-4.198 1.837-8.21 4.37-11.287 6.426-1.363.913-1.5 1.42-.987 3.73.286 1.297.215 1.437-.853 1.697-2.198.538-2.886 4.04-1.026 5.228.873.558.876.587.313 1.854-.87 1.96-.837 5.708.063 7.272.515.893.48 1.18-.2 1.623-2.342 1.524-2.183 4.785.264 5.394.626.157.79.425.582.96-.765 1.975-.067 4.975 1.688 7.247.912 1.182.91 1.168.308 1.712-1.97 1.78-.902 4.97 1.78 5.32.92.12.925.12 1.032.825.308 2.024.447 2.59.895 3.54.564 1.2 1.242 2.01 2.514 2.998 1.035.807 1.036.818.483 2.01-1.023 2.204.604 4.39 3.198 4.3 1.323-.047 1.324-.05 1.42.42.465 2.3 3.198 4.998 5.44 5.37 1.154.19 1.336.464.945 1.44-.63 1.575-.223 2.59 1.37 3.405 1.065.547 1.378.567 2.547.166 1.322-.454 1.336-.447 2.46 1.056 1.583 2.12 2.634 2.65 5.276 2.67 1.742.013 1.808.058 1.82 1.287.025 2.908 3.102 4.12 5.084 2.005.715-.764.714-.76 1.35-.294 2.79 2.044 5.263 2.57 5.032.66-.538-4.474-3.775-7.203-3.775-7.203l4.044 1.057c.178 4.724.346 10.42 1.33 14.357L78.73 207.97s-1.094-.67-2.246-1.463c-1.694-1.17-3.77-2.543-5.04-3.34-.652-.408-1.483-.906-2.14-1.457-.626-.523.39-1.213.603-1.766 4.15-7.41 10.646-16.32 15.375-24.98l-4.577-1.77c-3.502 5.514-6.08 9.95-9.34 15.033-3.247-23.82-19.87-44.73-39.982-53.538l.068 6.234c21.114 10.8 36.184 33.09 35.782 59.38-.082.1-1.768-.908-4.044-2.424-1.2-.8-3.617-2.38-3.917-2.533.978-29.116-27.897-46.332-27.946-45.52l-.265 5.508c12.304 8.244 21.97 23.242 22.95 36.588.01.11-5.776-3.608-5.776-3.608 3.443-1.714 2.495-6.156.015-7.36-.777-.348-.823-.517-.437-1.564.794-2.15-.66-5.388-2.665-5.93-.878-.24-1.023-.47-1.065-1.703-.08-2.255-1.326-3.73-3.575-4.225-.62-.137-.626-.143-.66-.92-.19-4.368-4.462-6.147-7.668-3.193-.358.33-.733.958-.733.958l-.024 4.738c1.095-.603 2.756-2.66 3.438-2.577.755.087.39.594-1.305 2.058-1.1.95-2.166 1.95-2.166 1.95l.067 6.24c1.825-1.185 3.653-2.524 5.364-3.716 1.476-1.028 2.23-1.362 2.412-1.065.204.333-.125.77-.963 1.27-2.25 1.498-4.864 3.255-6.755 4.734l-.005 4.3.362.532.107 3.766-.34.083.006 4.745 44.408 28.368 22.598-35.65.37.377-22.602 35.498s.93.8 1.81 1.262c.897.502 2.02 1.172 2.98 1.81.45.74 1.243 1.394 2.092 1.3.778-.85 4.173-1.747 4.5-2.14 12.642-.185 48.936.063 48.936.063l.205 5.805c-1.63-5.63-6.893-6.79-11.027-4.27l-6.793.01c-.052 0-4.02 7.23-4.602 11.003-2.853-.388-6.652 2.395-6.845 5.22-.463 4.017 2.177 6.946 5.628 6.376.063.024-.54 3.98-2.493 7.07-2.59 5.455-3.926 8.507-5.507 13.16-1.07 2.924-.705 3.443-.523 3.516 10.134-.146 19.456-1.127 29.072-4.23 0 0-.178-.685-.264-1.07-.348-1.557.96-4.743 4.66-11.325 2.856-5.084 3.675-7.024 3.96-9.424.147-1.215.12-1.53-.302-3.795-.027-.21-.19-.515-.147-.743.3-1.525 2.62-4.207 2.674-4.142 0 0 .843-.157 1.18-.187 5.238-.367 6.86-7.487 2.44-10.7-2.155-1.32-3.425-1.42-5.708-.82l-.04-27.615 3.186.12 3.5-1.728c5.624 4.802 9.292 9.71 15.346 13.408l-.098.245-4.5-3.086.01 18.093c5.21-2.71 10.063-5.21 14.745-9.003l-.943-.816.04-2.587c4.397.347 4.82-5.254 1.206-5.923 0 0 .084-.45.43-1.163 1.11-2.275 1.248-4.42.44-6.787-.492-1.444-.47-1.807.113-1.805 2.673.015 2.428-4.728-.297-5.766-.938-.356-.872-.06-.68-3.002.144-2.21-.396-3.71-2.03-5.648-.617-.73-.564-1.085.23-1.57 2.28-1.392.628-5.412-2.177-5.295-1.095.046-1.093.044-1.188-1.052-.25-2.88-1.858-5.628-3.967-6.778-.65-.355-.747-.647-.38-1.14 1.795-2.4.116-5.682-2.416-4.724-.49.187-1.01.373-1.15.416-.2.06-.36-.22-.747-1.307-1.053-2.962-1.987-3.892-5.34-5.3-.66-.278-.698-.474-.4-1.825.513-2.333-2.7-4.505-4.437-2.998-.706.614-.73.608-1.525-.41-1.585-1.824-4.165-3.096-6.46-3.335-1.098-.1-1.264-.185-1.174-.606.61-2.86-2.17-4.723-4.483-3.004-1.11.825-1.397.85-2.538.21-2.397-1.345-3.448-1.396-3.697-.18-.077 1.01.146 2.208.39 2.953.585 2.007 1.34 2.752 2.994 4.165 0 0-2.745-.76-3.438-.9.067-.07-.2-9.53-2-14.885l17.55-27.934 10.054 6.632-16.08 25.434 4.682 1.902s6.25-10.383 9.52-15.473c2.144 25.282 21.688 47.45 39.392 54.028-.06.03.057-3.636.132-5.41-18.68-8.224-36.445-31.205-35.326-58.79l7.5 4.804c2.18 22.107 11.81 35.062 27.86 46.017v-6.774c-11.054-8.18-20.24-18.867-22.676-35.967 0 0 3.748 2.367 5.43 3.49 0 0-.476.27-.72.475-2.006 1.67-1.403 5.094 1.242 7.032.43.314.434.315.03 1.394-.804 2.14.434 4.727 2.522 5.268 1.198.31 1.19.296 1.212 1.668.043 2.663 1.116 3.89 3.962 4.528.39.087.402.127.396 1.32-.016 2.943 2.812 4.924 5.276 3.69.77-.385 3.198-2.414 3.198-2.414v-4.74s-1.1.9-1.893 1.64c-1.39 1.295-1.828 1.455-1.824.665.003-.573.643-1.326 1.976-2.318.69-.515 1.74-1.613 1.74-1.613v-5.52s-.62-.984-.582-2.162c.02-.64.2-1.614.2-1.614l.666.015-.01-6.39-.808-.632.035-4.234-43.91-28.412-22.87 36.373-.573-.67 22.896-36.144-6.084-3.887-3.672 1.81s-25.416-.4-50.203-.084c0 0-.06-.684-.048-2.616.013-2.43.125-2.77.572-1.746 1.003 2.298 3.492 3.683 6.382 3.55 1.63-.073 1.858-.14 3.672-1.12.675-.362.797-.374 3.976-.35 3.408.023 4.02-.102 4.025-.823 1.186-2.7 2.353-5.83 3.03-8.186.326-1.14.472-1.645.74-1.877.206-.18.37-.14.864-.17 2.18-.142 2.787-.282 4.357-1.815 3.15-3.164 1.344-9.6-3.217-9.624-1.208-.007-.382-3.22 2.17-8.436 2.642-5.396 3.012-6.223 4.378-9.84.894-2.363 1.32-4.06 1.43-5.09-.25-.005-.51-.005-.767-.003zm-.24 1.56c.632.53-.946 4.427-3.79 10.323-2.347 4.868-3.396 7.303-3.896 9.066-.145.51-.35 1.242-.46 1.63-.154.543-.356.81-.896 1.196-.382.274-.916.678-1.187.896-.77.616-.952.42-.764-.82.35-2.307 1.263-4.794 3.374-9.122 1.672-3.443 3.31-7.135 4.582-10.9.286-.88.42-1.77.895-2.098.685-.383 1.408-.308 2.143-.17zm-3.423.225c.436.3-1.63 5.637-5.203 13.047-4.46 9.245-4.696 15.722-.685 17.306 3.163 1.25 6.348-2.235 4.396-4.777-.938-1.222-2.962-1.325-3.663-.06-.383.692.148 1.488.826.52.987-1.41 2.963.218 2.485 1.888-.327 1.145-1.93 2.066-2.924 1.868-4.38-.875-3.556-7.055.988-7.395 4.35-.325 6.326 5.514 3.17 8.856-1.002 1.082-2.175 1.62-4.216 1.618-2.83-.003-5.477-2.34-5.208-4.508.374-1.983.43-3.586-.24-5.15-.216-.5-.48-1-.464-1.632.04-1.757 1.486-4.484 4.714-11.223 1.156-2.415 2.575-6.6 3.276-9.243.247-.772.125-.99.416-1.097.724-.158 1.754-.375 2.334-.017zm-3.73.093c.66.028-.862 4.89-2.783 9.032-1.458 3.17-3.448 7.245-4.93 11.013-.474.8-.79.86-1.76.342-1.07-.57-.753-1.48 1.77-6.5 1.902-3.81 3.73-8.122 5.013-12.464.116-.52.292-.973.724-1.223.658-.288 1.3-.23 1.965-.2zm-3.55.548c.353.468-1.96 7.022-5.537 14.412-.764 1.57-1.28 3.003-2.05 4.606-.368.37-1.79.56-2.503.704-.734-.098-.038-1.476 2.054-5.707 1.706-3.45 2.19-4.425 3.086-6.523.653-1.536 1.604-4.176 2.494-6.64.07-.2.14-.643.333-.744.663-.28 1.47-.394 2.122-.107zm-3.493.41c.06.16-.073.484-.122.734-.562 2.638-1.848 5.093-2.787 7.614-.112.344-1.142 2.49-2.29 4.768-1.145 2.278-2.197 4.453-2.336 4.837-.14.383-.52 1.4-.846 2.26-2.06 4.415.154 7.895 2.88 8.138 4.252.353 4.653-5.607 1.653-6.18-1.132-.19-2.376.43-2.383 1.73-.08.68.758 1.47.745.493-.044-1.776 2.438-1.694 2.743-.186.595 2.94-2.745 4.376-4.735 2.068-.82-.95-.812-2.035-.66-3.008.413-2.63 3.444-4.533 6.255-2.548 3.844 2.716 2.518 8.724-2.45 9.7-1.698.443-3.84-.122-5.18-1.5-.853-.878-1.413-2.17-1.628-3.775-.12-.894-.166-1.944-.03-2.93.403-3.084 2.653-7.59 4.627-11.403 1.523-3.165 2.72-7.346 4.108-10.71.392-.285 2.494-.55 2.435-.1zm-3.75.422c.226.07-.936 3.724-2.592 7.673-1.823 4.005-4.19 8.587-5.53 12.528-.423.967-.73.938-1.933-.18-.634-.592-.277-1.473 1.946-6.012 3.42-6.98 4.69-9.96 5.203-11.623.242-.78.437-1.74.95-2.044.658-.31 1.304-.538 1.957-.34zm-3.42.875c-.36 1.176-1.546 4.66-3.573 8.788-1.272 2.605-2.515 5.492-3.77 8.18-.702 1.66-.723 1.66-1.918 1.908-2.016.42-2.016.398-.234-3.213.53-1.072 1.546-3.044 2.264-4.376 1.322-2.457 3.366-7.24 4.108-9.624.198-.64.475-1.238.797-1.565.208-.11 1.794-.584 2.328-.098zm-4.405.44c.36-.014.684.052.836.25.09.82-2.126 6.063-3.487 8.493-.414.745-.827 1.71-1.295 2.572-1.734 2.76-3.82 8.063-4.356 10.265-.855 3.497 3.142 6.14 5.215 3.6 1.315-1.54-.054-4.31-1.95-3.536-.66.272-.39.566.514.643 1.49.125 1.604 2.427.022 2.933-1.758.538-3.054-.987-3.047-2.548.014-3.202 3.516-4.38 5.708-2.63 2.188 1.82 2.536 6.15-.776 7.83-3.23 1.635-7.207-.583-8.006-4.46-.608-2.96.052-5.673 2.9-10.236 1.638-2.626 4.18-7.16 5.482-11.14.255-.675.48-1.233.714-1.516.218-.252.926-.497 1.526-.52zm86.58 9.316l-4.337 5.517c1.25 1.808 4.225 5.364 4.225 5.364l4.113-5.31-4-5.57zm.04 3.086l1.794 2.327-2.054 2.425-1.927-2.264 2.186-2.49zm.162 11.99s-5.244 5.746-4.04 10.01c1.077 3.8 6.79 4.722 8.182-.836.098-.443.02-1.04-.04-1.785-.12-2.265-4.102-7.39-4.102-7.39zm0 1.134s1.506 2.184 2.567 4.118c1.19 1.84 1.5 6.98-2.72 6.82-2.285.237-4.468-2.777-2.65-6.464.496-1.122 2.804-4.474 2.804-4.474zm-86.557.925c.29-.047.584.583.768 1.04.25.622-.464 2.414-1.218 3.306-.144.15-1.106.233-2.538.964-.005-.67.405-2.142.674-2.792.977-.965 1.805-2.114 2.19-2.455.042-.037.08-.06.123-.064zm-10.45.32c.644.73 1.277 1.364 1.252 1.815-.04.66-.816 1.478-1.404 2.06-.738.728-2.21.295-2.206-.65 0-.35 2.104-3.225 2.357-3.224zm22.196.95c.623.333 1.254 1.47 1.335 1.985-.913 4.914-4.29 10.92-4.176 10.694 0 0-2.07.368-2.95-.08 2.276-3.156 3.8-7.175 4.833-10.464.443-1.418.645-2.132.958-2.136zm-1.917.69c.35-.02.482.26.19 1.02-1.336 5.436-4.342 11.147-6.704 12.188-3.103 1.366-6.187.23-7.512-2.103-1.434-2.527-1.18-6.516 3.6-7.39 2.81-.288 5.69 1.93 4.19 5.492-1.67 2.644-6.156 1.17-4.84-2.24.993-1.25 3.075-.165 2.395 1.247-.345.717-.012 1.157.498.66 1.637-1.593-1.055-4.326-2.87-2.958-2.96 2.23.695 7.137 4.142 5.032 1.05-.642 2.95-4.24 3.663-6.86.307-1.13.584-2.2 1.31-2.886.693-.652 1.49-1.177 1.938-1.202zm-7.85.214c.17.007.37.09.642.225.346.17.75.48.704.88-.055.463-.318 1.468-.85 1.956-.322-.11-1.207-.464-1.81-.626-.38-.103.124-.918.355-1.37.374-.727.58-1.03.886-1.06.024-.003.05-.007.074-.006zm-9.764.186c.446-.008 1.152.486 1.618.553.09.675-.77 2.12-2.166 3.824-1.146 1.398-1.14 1.4-1.902-.137-.496-1.002-.51-.975.905-2.733.76-.946 1.126-1.38 1.457-1.497.027-.005.058-.01.088-.01zm4.435.494c.02.36-.163 1.156-.318 1.62-1.586 4.733-5.29 9.424-8.344 10.576-3.987 1.303-7.638-.797-7.73-5.64.1-5.703 6.892-7.284 8.943-2.082.926 2.35-1.6 5.88-3.78 5.29-2.202-.593-3.122-4.03-1.307-4.88 1.19-.556 2.42.377 2.162 1.64-.09.437-.065.497.19.45 1.132-.213.534-2.485-.802-3.053-2.525-1.07-4.433 2.33-2.73 4.866 2.04 3.037 5.248 2.455 7.097-1.29.314-.638.913-1.553 1.325-2.03 1.118-1.295 1.475-1.804 2.464-3.516.545-.942.836-1.54 1.114-1.85.445-.028.748.095 1.713-.1zm8.945.25c.478.003.847.314.836.978-.01.555-.804 2.894-1.174 3.452-.143.215-.474.967-.523.803-.465-1.557-1.3-2.037-1.417-2.445-.14-.48.282-.938.47-1.37.398-.917 1.193-1.423 1.81-1.418zm8.43.738c.578-.005 1.396.26 1.564.69.528.925-3.043 9.548-3.174 9.573l-2.665-.117c1.6-3.438 3.016-6.845 4.044-10.127.072-.01.15-.018.232-.018zm35.757 13.65l3.388 2.014-22.338 35.498-3.247-2.484 22.196-35.03zm-55.734.732c20.864.077 49.6.04 49.6.04l-1.21 2.303s-31.388-.307-48.39-.274v-2.07zm-28.168 1.452l-.044 11.668s-.156-.068-2.146-1.394c-2.39-1.59-5.01-3.23-5.854-3.658-1.244-.632-1.08-.938 1.31-2.46 2.35-1.412 6.734-4.156 6.734-4.156zm89.34 1.16l2.098 1.324-23.474 37.36-1.306-2.56 22.68-36.125zm-61.167.518h3.268v3.69H88.94v-3.69zm7.482 0h3.966v3.69h-3.966v-3.69zm8.666.04h4.078v3.69h-4.078v-3.69zm8.504.014h4.122v3.692h-4.122v-3.692zm8.567.024h4.067v3.69h-4.068v-3.69zm8.572.078h4.162v2.602l-.63 1.09h-3.532V94.54zm22.43 1.203l39.813 25.757-.025 3.555-41.443-26.783 1.656-2.53zm-2.61 3.012l.343.245-1.688 2.582-.348-.195 1.692-2.632zm-61.5.382h44.688l-1.345 2.265-43.342-.064v-2.2zm-36.686 1.154c.3-.02.888.247 1.8.76 2.197 1.232 3.58 3.833 2.63 4.77-.844.837-2.82-.953-4.048-3.51-.65-1.355-.82-1.99-.382-2.02zm79.07 2.23l-14.416 23.044c-3.26-4.467-6.912-8.325-14.89-5.712-4.16-3.216-8.558-3.712-13.238-.982l.054-16.27 42.49-.08zm-74.213.01l1.124.975c-.33.635-.484 1.553-.7 2.372-.016-1.124-.114-2.242-.424-3.346zm91.392.24l44.418 29.225v2.71l-45.968-29.616 1.55-2.32zm-97.285.666c.574-.012 1.136.234 1.56.743.672.807.396 2.286-.548 2.918-1.877 1.26-4.13-1.178-2.64-2.855.466-.527 1.053-.796 1.628-.807zm7.355.346l2.426 1.94c-4.21 24.012 7.818 48.25 33.724 55.515l.293 3.076c.05.146-11.006-3.283-15.834-6.896-6.602-4.466-12.18-10.754-16.025-18.07-2.624-4.716-4.063-9.91-4.993-14.107-1.1-7.2-1.07-14.33.41-21.458zm-2.753 3.257c.93.037 1.03.707.283 1.994-.96 1.655-2.4 2.808-4.733 3.79-1.286.54-1.62.296-1.472-1.075.224-2.063 1.658-3.572 4.142-4.368.596-.166 1.2-.346 1.78-.343zm7.14.26c.38.32.498.42.963.815-.796.272-1.37 1.023-1.37 1.912 0 1.118.907 2.024 2.025 2.024 1.002 0 1.83-.726 1.99-1.682l.97.832c-.468 1.178-1.616 2.01-2.96 2.01-1.757 0-3.184-1.427-3.184-3.184 0-1.163.63-2.173 1.566-2.727zm1.618 1.593c.11 0 .217.02.318.05.254.215.458.392.704.6.07.148.112.31.112.485 0 .626-.508 1.135-1.135 1.135s-1.136-.51-1.136-1.135c0-.627.51-1.135 1.136-1.135zm-7.644.733c-.263 3.097-.18 6.334-.083 9.575-.598-2.567-1.93-4.49-4.15-5.804 1.532-1.06 3.135-2.347 4.233-3.77zm11.673 2.43l2.156 1.864c-1.854 25.417 20.42 35.062 21.018 34.637l.94 2.876C77.45 146.198 66.82 130.3 68.718 112.057zm124.068 60.934l-.112 3.2c-17.453-6.77-37.345-31.758-37.092-55.698-4.48 6.87-7 11.455-10.847 17.644l-3.062-1.457c5.037-7.504 9.823-15.528 14.874-22.898.574-.832 1.046-1.214 1.07.605-.002 8.237 2.553 42.126 35.168 58.603zM50.875 114.042c.562-.036 1.364.236 2.377.914 1.596 1.07 3.387 4.378 2.768 5.115-.557.665-2.924-.125-4.098-1.368-2.328-2.463-2.48-4.568-1.047-4.66zm13.61.333c1.757 0 3.184 1.42 3.184 3.18 0 1.756-1.428 3.182-3.185 3.182s-3.184-1.426-3.184-3.183c0-1.758 1.428-3.18 3.185-3.18zm7.125.303l2.078 2.436c.406 21.332 17.244 27.91 17.087 27.962l.508 2.294c-.94.13-20.833-8.925-19.673-32.692zm-7.125.85c-1.118 0-2.024.908-2.024 2.026 0 1.117.907 2.024 2.025 2.024s2.024-.907 2.024-2.024c0-1.118-.907-2.025-2.025-2.025zm0 .89c.626 0 1.135.51 1.135 1.136 0 .626-.51 1.134-1.135 1.134-.627 0-1.135-.508-1.135-1.134 0-.627.508-1.135 1.135-1.135zm10.758 1.933c.255.002 1.457 1.746 1.457 1.746s-1.32.463-1.888-.112c-.565-.572-.26-1.637.43-1.633zm92.195.788l3.12 2.132c1.456 14.392 9.7 27.52 22.133 36.628l-.077 3.564c-15.143-10.23-23.55-24.134-25.175-42.324zm-116.896.244c.05-.003.103 0 .152 0 1.908.032 2.717 2.965.675 3.805-1.285.528-2.682-.234-2.818-1.54-.096-.92.588-1.903 1.517-2.177.163-.048.32-.078.472-.088zm26.036 1.922c.5.002 1.044.29 1.56.87 1.368 1.544 1.355 1.992-.088 2.578-2.03.823-3.72-.32-3.042-2.064.356-.915.927-1.385 1.57-1.384zm-20.79.073c.166-.003.32.02.46.074 1.498.584-1.746 6.528-3.892 7.13-1.362.384-1.648-.148-1.203-2.234.496-2.318 3.043-4.936 4.636-4.97zm9.547.138c1.757 0 3.184 1.42 3.184 3.18 0 1.756-1.428 3.182-3.185 3.182s-3.184-1.426-3.184-3.183c.002-1.758 1.428-3.18 3.185-3.18zm0 1.153c-1.117 0-2.024.907-2.024 2.025s.908 2.024 2.025 2.024c1.118 0 2.024-.906 2.024-2.024s-.907-2.025-2.025-2.025zm-7.956.172c.28 2.943.76 5.667 2.067 9.29-1.226-1.96-2.975-2.933-4.65-4.043 1.175-1.75 2.535-3.498 2.582-5.247zm7.955.72c.627 0 1.135.507 1.135 1.134 0 .626-.508 1.134-1.135 1.134-.626 0-1.134-.508-1.134-1.134 0-.627.51-1.135 1.135-1.135zm18.016.346c3.32-.07 5.668 2.663 5.522 5.28.097 3.043.206 4.99-.044 8.77l-2.695-4.935c-.038-1.397.2-2.456.094-3.847-.306-3.742-3.974-3.223-4.147-2.852l-1.16-1.882c.852-.35 1.665-.516 2.43-.532zm11.693.376c3.11-.004 4.913 1.748 5.008 4.865.183 5.97-.136 19.596-.136 19.596l-6.73.005-3.67-9.105s-.147-.876-.12-1.512c.235-2.92.09-6.17.188-8.806.387-2.795 2.684-5.04 5.46-5.042zm-15.57.944c.433-.005.834.127 1.14.436 1.562 1.578 1.552 2.613-.03 3.325-2.09.942-3.178.764-3.892-.636-.7-1.37 1.237-3.105 2.783-3.124zm98.098.43l1.707 1.1s-.358.562-.552.896c-.97 1.667.678 2.646 2.958 1.76.412-.16.763-.386.763-.386l1.408.96s-1.015.547-2.122 1.09c-2.847 1.393-4.893.8-5.58-1.61-.272-.956 0-2.154.533-2.854.273-.36.886-.956.886-.956zm-72.18.2c2.605-.087 5.14 1.947 5.742 4.682.25 1.28-.073 18.21-.073 18.21l-10.334-.004.18-17.762c-.067-1.123 0-2.234.603-3.03 1.134-1.417 2.517-2.048 3.88-2.095zm-10.728.78c-2.088.095-3.272 3.476-1.125 5.07.896.665.915.79.436 3.04-.548 2.568.02 6.086 1.3 8.065.983 1.64.782.802.28-.66-.647-2.74-.33-4.753 1.25-7.937 1.414-2.682 2.783-6.806-1.71-7.55-.147-.023-.292-.035-.43-.028zm85.754.77l.935.632s-.14.116-.342.312c-.373.362-1.116.42-1.345.142-.378-.46.753-1.085.753-1.085zm-74.438 1.312c-2.243-.075-3.72 4.085-.85 5.09.65.422.76.973.355 1.75-.543 1.047-1.087 3.53-1.002 4.568.122 1.49.503 3.434.803 4.108.753 1.86.603 1.116.406-1.032-.077-2.4.407-4.132 1.803-6.426 1.66-2.75 3.943-7.224-1.296-8.04-.073-.01-.147-.016-.22-.018zm-38.594.015c1.758 0 3.184 1.422 3.184 3.18s-1.426 3.183-3.184 3.183c-1.757 0-3.183-1.427-3.183-3.184s1.427-3.18 3.184-3.18zm14.754.322c.55-.005.963.36 1.462 1.105 1.375 2.05 1.217 2.47-1.433 3.927-2.807 1.544-4.685-2.34-2-4.137.812-.544 1.387-.845 1.858-.89.04-.003.077-.004.113-.005zm-29.136.152c2.96.03 7.587 4.257 5.33 4.87-.322.088-.728.147-.9.137-3.72-.226-7.98-5.044-4.43-5.007zm14.382.68c-1.118 0-2.024.906-2.024 2.024s.906 2.025 2.024 2.025 2.025-.906 2.025-2.024-.908-2.023-2.026-2.023zm117.268.597l1.477 1.002s-.904.415-1.967.983c-2.888 1.54-3.727 2.673-2.73 3.68.356.36.778.518 1.536.23 2-.776 3.868-2.145 5.735-3.227l1.11.763c-.025-.05-4.415 3.12-6.812 4.455-3.763 1.933-5.913-2.018-3.82-4.654 1.616-1.606 3.347-2.133 5.47-3.232zm-117.268.293c.627 0 1.135.508 1.135 1.135 0 .626-.51 1.134-1.136 1.134-.626 0-1.134-.508-1.134-1.134 0-.628.508-1.135 1.134-1.135zm119.575 1.06l.806.543s-.087.04-2.552 1.458c-2.684 1.54-2.8 1.567-2.95 1.325-.13-.073.053-.703.876-1.257 1.444-.97 3.997-2.15 3.82-2.068zm-69.8.08c1.83-.036 3.69.83 4.755 2.688.542 1.41.588 2.72.582 4.2l-.044 9.942h-10.407s-.482-6.776 0-12.416c.473-2.832 2.766-4.37 5.115-4.414zm-32.318 1.47c.66-.048 1.148.6 1.775 2.006.622 1.392.154 2.18-1.8 3.022-.246.106-.528.186-.626.176-1.975-.187-2.782-2.465-1.363-3.848.88-.856 1.5-1.316 2.015-1.354zm105.766 1.02l.904.56s-.463.42-3.824 2.872c-2.714 1.978-3.104 2.517-2.537 3.627.458.897 1.45.78 2.822-.273 1.9-1.462 4.895-3.937 4.895-3.937l.1 1.692c-1.972 1.58-4.35 4.282-6.24 5.31-3.653 1.8-6.273-3.14-2.936-5.575 2.878-2.1 6.818-4.28 6.818-4.28zm-73.05.003c-2.72-.023-3.732 4.015-.807 4.87.843.45.772.684.21 2.694-.34 1.218-.448 2.72-.263 3.673.22 1.216.488 1.188.376-.117.004-.714.74-2.62 1.473-3.814 2.712-3.78 2-7.27-.988-7.306zm-63.377.05c1.795.01 2.8 2.51 1.243 3.588-1.103.764-3.41-.168-3.403-1.374.005-1.028.814-2.007 1.794-2.18.127-.023.247-.036.367-.035zm5.165.21c.565-.003.89.825.885 2.464-.006 2.35-.84 4.397-2.278 5.594-2.082 1.732-2.547-2.99-.602-6.112.81-1.3 1.496-1.946 1.995-1.947zm133.17.62c.513-.008.433.384-.16.797-.463.32-1.245.963-3.67 3.008-.438.37-1.07.855-1.397 1.076-.808.542-1.49.4-1.1-.225.384-.615 5.866-4.647 6.327-4.655zm-121.952.108c1.757 0 3.184 1.422 3.184 3.18s-1.427 3.183-3.184 3.183-3.184-1.426-3.184-3.183 1.426-3.18 3.183-3.18zm0 1.154c-1.118 0-2.024.906-2.024 2.024s.905 2.024 2.023 2.024 2.024-.906 2.024-2.024-.906-2.024-2.024-2.024zm-38.07.06c21.53 10.885 34.952 31.25 38.266 54.45l10.46-16.592 2.825 1.066-15.242 24.843-.66-.207c-.064-24.27-12.16-47.228-35.698-59.826l.048-3.736zm38.07.83c.627 0 1.135.51 1.135 1.135s-.508 1.135-1.135 1.135c-.626 0-1.134-.51-1.134-1.135s.507-1.135 1.133-1.135zm-8.885.13c.94 2.083 2.087 4.268 3.858 6.765-1.796-1.687-3.76-1.614-5.702-1.868l1.844-4.897zm25.6.452c.334-.017.668.125.93.484.88 1.21 1.043 2.333.43 2.938-.84.83-2.175.503-2.777-.68-.627-1.228.415-2.693 1.418-2.742zm105.588 1.682l.034 1.883s-.4.48-.826.88c-1.2 1.122-2.84 2.912-2.958 3.368-.382 1.485 1.087 2.03 2.532.94.5-.378 1.218-.95 1.218-.95v2.318c-1.22 1.037-2.437 2.058-4.103 1.722-.97-.297-1.822-1.06-2-2.035-.695-2.92 2.133-4.55 4.328-6.504.71-.63 1.776-1.624 1.776-1.624zm-117.82 1.643c.056-.003.107 0 .163 0 1.756 0 3.182 1.42 3.182 3.178s-1.426 3.184-3.183 3.184c-1.76 0-3.185-1.427-3.185-3.184 0-1.703 1.34-3.094 3.022-3.18zm63.926.713c1.735-.007 2.653 2.33 1.257 3.653-.55.52-1.79.89-2.49.4-1.934-1.346-.51-3.964 1.232-4.053zm-3.462 1.853c1.004 1.065 1.765 4.16 1.174 4.744-1.31 1.35-5.11-3.143-4.884-6.078.403-1.76 3.338.94 3.71 1.334zm-46.525-1.686c.727.004.863.656.7 1.04-.157.368-.727.397-1.18.212-.77-.317-.41-1.257.48-1.252zm-13.776.273c-1.12 0-2.026.906-2.026 2.024s.907 2.024 2.025 2.024c1.116 0 2.023-.905 2.023-2.023s-.907-2.024-2.024-2.024zm-15.156.89c3.84.005 7.89 3.03 4.367 3.63-2.614.444-4.31-.072-6.347-1.933-1.035-.945-.666-1.447 1.218-1.657.253-.028.508-.04.764-.04zm15.155 0c.625 0 1.133.51 1.133 1.135 0 .627-.508 1.135-1.134 1.135-.628 0-1.136-.508-1.136-1.135 0-.626.508-1.135 1.135-1.135zm5.315 2.88c.054-.002.11 0 .166 0 1.758 0 3.185 1.423 3.185 3.18s-1.427 3.184-3.184 3.184-3.183-1.427-3.183-3.184c0-1.703 1.336-3.094 3.018-3.18zm62.56.162c.907-.015 1.705.155 2.166.577.564.516-.282 1.506-2.01 2.348-2.017.983-5.535.847-5.53-.216.008-1.412 3.054-2.67 5.374-2.71zm-76.64.836c1.766.01 2.243 5.482.71 8.105-.795 1.36-1.866.45-2.63-2.234-.628-2.203.575-5.876 1.92-5.87zm14.246.158c-1.117 0-2.023.906-2.023 2.024s.906 2.024 2.024 2.024 2.025-.906 2.025-2.024-.906-2.024-2.024-2.024zm65.965.356c.15.003.34.077.592.2 1.926.946 3.327 5.362 2.322 7.33-1.058 2.074-3.435-1.917-3.414-5.73.007-1.247.088-1.75.436-1.795.02-.003.04-.006.063-.006zm-85.212.285c.04-.003.082-.003.122 0 1.742.042 3.01 2.45 1.37 3.686-.718.542-1.822.627-2.5.196-1.335-.85-1.262-2.916.128-3.64.297-.154.594-.232.88-.243zm19.248.248c.627 0 1.136.51 1.136 1.135s-.51 1.135-1.135 1.135-1.134-.51-1.134-1.135.51-1.135 1.135-1.135zm-11.892.38c.953 1.42 4.815 5.164 5.35 5.487-1.706-.552-3.463-.317-5.218-.083.197-1.295.406-3.422-.132-5.403zm62.062.324c26.178 6.128 42.157 33.905 35.84 59.964 0 0-2.204-1.23-2.553-1.82.926-4.508 1.496-11.65.338-18.83-1.966-12.183-11.84-30.058-33.474-36.19-.238-.787-.15-3.124-.15-3.124zm14.105.19c.296 1.782.58 3.578 1.02 5.182-1.844-1.325-3.933-2.464-6.07-3.383 1.526-.32 2.92-.59 5.05-1.797zm7.548.572c1.042-.026 2.102.716 2.078 2-.01.565-.61 1.58-1.08 1.82-1.74.887-3.524-.804-2.758-2.612.345-.81 1.048-1.19 1.76-1.208zm-65.77.69c1.758 0 3.185 1.422 3.185 3.18s-1.427 3.183-3.184 3.183-3.184-1.427-3.184-3.184 1.428-3.18 3.184-3.18zm0 1.154c-1.117 0-2.023.906-2.023 2.024s.906 2.024 2.024 2.024 2.024-.906 2.024-2.024-.905-2.024-2.024-2.024zm-54.167.304c13.007 7.677 24.675 24.003 25.54 42.466l-3.148-2.06c-1.356-12.435-7.723-25.966-22.494-37.057 0 0 .038-1.193.102-3.348zm72.028 0h16.812v3.623l5.042-2.597v8.016l-5.042-3.052v3.496h-16.812v-3.677l-5.15 2.49.06-7.977 5.09 2.86v-3.18zm-17.86.587c.627 0 1.135.507 1.135 1.133 0 .627-.51 1.135-1.136 1.135-.626 0-1.134-.508-1.134-1.135 0-.626.508-1.134 1.134-1.134zm6.613.635c.02-.002.042 0 .063 0l.2 1.153c-.033 0-.064-.005-.098-.005-1.118 0-2.024.907-2.024 2.024 0 1.118.906 2.025 2.024 2.025.27 0 .527-.05.763-.147l.195 1.16c-.303.096-.623.145-.958.145-1.757 0-3.184-1.426-3.184-3.184 0-1.7 1.337-3.086 3.02-3.17zm37.976.4c.056-.002.11 0 .167 0 1.757 0 3.183 1.422 3.183 3.18 0 1.508-1.055 2.768-2.464 3.095l-.192-1.145c.86-.232 1.497-1.017 1.497-1.95 0-1.12-.907-2.025-2.024-2.025-.045 0-.092.002-.137.005l-.195-1.145c.054-.006.11-.012.165-.015zm22.324 1.076c3.926.022 5.555 2.276 2.337 3.233-1.49.443-3.44.208-5.37-.646-1.606-.71.608-2.6 3.033-2.586zm-82.062.216c.95-.003 1.87.143 2.548.465 1.64.778 1.604 1.307-.15 2.318-2.448 1.412-8.212-.017-6.47-1.604.817-.744 2.49-1.172 4.072-1.178zm21.928.348c.087 0 .173.01.254.03l.353 2.062c-.176.11-.383.176-.606.176-.627 0-1.135-.508-1.135-1.135-.002-.626.506-1.133 1.133-1.133zm37.987.405c.62.005 1.124.51 1.124 1.134 0 .494-.316.91-.758 1.066l-.366-2.2zm6.924.81c1.757 0 3.184 1.422 3.184 3.18 0 1.757-1.427 3.183-3.184 3.183s-3.184-1.426-3.184-3.184c0-1.758 1.427-3.18 3.184-3.18zm-61.974.803c.19-.01.403.077.63.264 1.91 1.56 2.86 4.86 2.11 7.316-.718 2.342-3.69-1.817-3.674-5.135.01-1.53.37-2.414.934-2.445zm82.425.278c.263.003.54.203.816.66 1.187 1.974 1.132 6.048-.097 7.317-.697.72-.956.583-1.683-.886-1.24-2.508-.303-7.098.965-7.09zm-20.45.075c-1.12 0-2.025.907-2.025 2.024s.906 2.024 2.024 2.024 2.024-.907 2.024-2.025c0-1.118-.906-2.025-2.024-2.025zm-59.446.543c2.402 1.518 4.863 2.9 7.423 4.054-2.396-.566-4.165.238-5.99 1.32.35-2.002-.334-3.63-1.434-5.374zm72.227.428c1.792.253 3.565.547 5.644.155-.383 1.763-.518 3.558-.35 5.393-1.545-2-3.27-3.878-5.293-5.547zm-12.783-.08c.627 0 1.135.507 1.135 1.133s-.51 1.134-1.136 1.134c-.626 0-1.135-.508-1.135-1.135s.508-1.135 1.134-1.135zm-65.636.782c.354.007.73.106 1.12.298 1.473.723 1.516 2.51.083 3.443-1.8 1.173-4.15-.888-3.026-2.656.432-.68 1.01-1.045 1.673-1.08.05-.004.1-.007.15-.006zm72.023 1.33c1.758 0 3.185 1.422 3.185 3.18s-1.427 3.183-3.184 3.183-3.183-1.426-3.183-3.183 1.427-3.18 3.184-3.18zm18.623.533c.307-.005.626.064.943.23 1.132.594 1.37 2.096.47 2.974-.996.972-2.356.804-3.027-.372-.766-1.342.284-2.806 1.613-2.83zm-30.706.47c15.67 5.334 26.163 22.766 23.635 39.548l-1.956-1.85c1.49-9.51-3.733-27.68-21.185-35.14l-.493-2.557zm12.084.152c-1.117 0-2.023.906-2.023 2.024s.906 2.024 2.024 2.024 2.025-.906 2.025-2.024-.906-2.024-2.024-2.024zm0 .89c.627 0 1.136.51 1.136 1.135s-.51 1.135-1.135 1.135-1.134-.51-1.134-1.135.51-1.135 1.135-1.135zm-59.577.2c.8.07 2.148-.073 2.465.68.355.954-1.6 2.602-4.08 2.925-1.008.06-3.17.316-3.627-.41-.427-.91 2.492-3.167 5.243-3.195zm-49.743.557c2.118-.094 4.506 2.74 2.362 5.05-1.716 1.776-5.228 4.197-5.228 4.197v-1.556s3.44-2.516 3.496-3.646c.008-1.315-1.075-2.058-2.283-1.267-.24.155-1.184.924-1.184.924l.078-2.605c.643-.7 1.773-1.052 2.76-1.096zm54.11.664c1.57.06 5.212 5.674 4.284 6.822-.734.91-3.69-1.107-4.802-3.276-.597-1.164-.417-3.24.303-3.512.066-.024.138-.037.216-.034zm24.216.68s.162 13.062-.572 14.295c-2.943 5.326-9.297 2.554-9.84-1.44-.39-2.406-.155-12.83-.155-12.83l10.566-.026zm.93 0h10.15s-.044 18.385-.453 19.44c-.334.856-1.808 2.337-2.734 2.742-2.982 1.303-6.17-.546-6.96-4.034-.568-2.516-.004-18.148-.004-18.148zm11.003 0h6.737s.23.975.5 1.775c.466 1.396 2.056 5.402 2.238 5.647.823 1.1.864 13.116.05 14.484-2.973 4.458-7.92 3.16-9.728-1.773-.452-1.58.202-20.133.202-20.133zm7.857.455c12.086 5.74 21.335 17.91 20.177 33.53l-2.22-2.214c.81-10.78-7.396-24.256-16.975-28.26l-.983-3.057zm16.64.366c1.76 0 3.185 1.422 3.185 3.18s-1.426 3.183-3.184 3.183c-1.757 0-3.183-1.428-3.183-3.185s1.426-3.18 3.183-3.18zm11.924.323c1.184.017 2.628.425 3.708 1.314 1.29 1.064 1.47 1.907.47 2.216-1.936.596-4.26.02-5.717-1.42-1.355-1.334-.187-2.137 1.54-2.11zm-11.922.83c-1.117 0-2.024.907-2.024 2.025s.907 2.024 2.024 2.024c1.118 0 2.025-.907 2.025-2.025s-.907-2.024-2.025-2.024zm-63.68.255c1.695.01 2.474 2.396 1.174 3.604-.533.495-1.988.6-2.62.19-1.742-1.13-.723-3.807 1.446-3.795zm22.412.606c-.562 1.614-1.464 3.436-2.21 4.68-2.002 3.338-1.742 5.575.37 6.705 3.104 1.66 5.357-2.795 2.3-4.543-1.073-.612-1.073-.62-.686-2.273.485-2.065.57-4.526.226-4.57zm41.268.03c.627 0 1.135.508 1.135 1.135 0 .626-.508 1.134-1.135 1.134-.626 0-1.134-.51-1.134-1.135 0-.627.508-1.135 1.134-1.135zm-30.387.656c-.142-.01-.033.82-.044 2.293-.017 2.377-.216 3.1-1.735 6.288-1.94 4.07-1.682 6.854.725 7.756 1.868.7 3.686-.73 3.697-2.91.005-1.038-.458-1.853-1.17-2.063-.643-.04-1.354-.34-1.305-.65.394-2.43 2.5-7.01-.166-10.714zm40.15.327c1.57.988 3.187 1.927 5.525 2.045-.996 2.39-.895 4.135-1.06 6.04-1-2.567-2.546-5.405-4.465-8.085zm-119.868.372c.126-.002.252.007.376.024 1.502.232 2.77 2.156 2.367 3.59-.353 1.25-.463 1.46-5.296 4.688-2.684 1.79-2.965 1.868-2.965 1.868l-1.438-.97s1.217-.81 3.145-2.106c3.71-2.493 4.254-3.087 3.873-4.2-.415-1.21-1.803-.956-3.996.733-3.247 2.5-3.585 2.665-3.585 2.665v-1.492s1.423-1.132 2.04-1.662c1.504-1.07 3.583-3.12 5.477-3.14zm96.047.65c.363-.004.644.336.518.66-.06.155-.274.256-.558.254-.583-.003-.613-.83-.034-.91.025-.004.05-.005.073-.005zm32.592 1.736c.687 2.355-.79 6.277-1.693 6.78-.964.95-1.566.042-1.774-2.422.004-2 2.293-8.245 3.466-4.357zM130.145 170c.295 3.39.4 6.206-1.188 8.96-2.062 3.57-1.527 6.63.68 7.306 2.197.673 4.14-.9 3.75-3.037-.118-.655-1.017-1.724-1.564-1.864-.676-.174-.756-.593-.372-1.937.747-2.605.496-5.902-.63-8.285-.104-.356-.516-1.156-.675-1.144zm7.394 1.13c1.853.01 2.727 2.42 1.34 3.692-.774.71-1.266.388-2.074-1.35-.75-1.61-.52-2.35.733-2.342zm17.262.494c1.757 0 3.183 1.422 3.183 3.18s-1.426 3.183-3.183 3.183c-1.758 0-3.184-1.427-3.184-3.184s1.426-3.18 3.184-3.18zm0 1.155c-1.118 0-2.025.905-2.025 2.023s.907 2.024 2.025 2.024 2.024-.906 2.024-2.024-.906-2.024-2.024-2.024zm0 .888c.626 0 1.134.51 1.134 1.135s-.508 1.135-1.134 1.135c-.627 0-1.135-.51-1.135-1.135s.508-1.135 1.135-1.135zm-13.66.837c.26-.012.515.032.75.146 1.677.812 1.493 3.133-.357 4.52-1.17.877-1.666.573-2.758-1.692-.593-1.23.962-2.914 2.366-2.973zm-97.196.264c.17.004.33.03.484.072 1.73.476 2.823 2.492 2.392 4.024-.953 2.363-4.18 3.158-6.63 4.147l-1.272-.93s1.796-1.02 3.54-1.824c1.634-.753 1.897-1.052 1.775-2-.238-1.854-1.134-1.787-5.193.4-1.652.89-2.866 1.678-2.866 1.678l-.9-.74c1.345-.884 2.15-1.373 3.62-2.375 2.45-1.68 3.85-2.4 4.875-2.45.06-.002.12-.006.176-.004zm129.127 1.37c.592 1.798-.613 3.373-2.43 2.667-.985-.383-1.685-1.644-1.073-2.81.817-1.282 3.106-1.06 3.503.144zm-36.438-.623l2.86 5.14s.037 1.43.063 2.226c.11 3.337.823 4.44 2.777 4.117.14-.023.837-.225.837-.225l1.24 2.093s-1.342.587-1.69.66c-2.3.482-5.486-1.245-5.98-3.556-.48-2.235-.107-10.455-.107-10.455zM42.92 177.63c.862.062.495.723.097.938-1.68.855-3.27 1.786-5.022 2.797l-1.174-.73s.907-.505 1.532-.89c1.922-1.18 3.88-2.088 4.567-2.116zm114.967.66c1.757 0 3.184 1.42 3.184 3.178s-1.426 3.184-3.183 3.184-3.184-1.427-3.184-3.184 1.427-3.18 3.184-3.18zm-13.467.435c.732-.02 1.343.294 1.74.954.85 1.41-.05 3.134-2.112 4.053-1.15.513-1.344.407-2.572-1.413-.83-1.23-.825-1.45.093-2.235 1.028-.88 2.02-1.337 2.85-1.36zm-111.726.28l45.59 29.52-1.3 2.21L32.782 181.8l-.088-2.796zm135.467.38c2.772.053 6.388 3.26 5.106 4.528-.136.135-.4.236-.587.225-3.955-.233-8.32-4.825-4.52-4.753zm-10.273.06c-1.118 0-2.024.905-2.024 2.023s.906 2.024 2.024 2.024 2.024-.906 2.024-2.024-.905-2.024-2.023-2.024zm-60.888.56l1.207 3.14-22.69 36.125-2.23-1.433L97 180.007zm60.887.33c.627 0 1.135.507 1.135 1.133 0 .627-.508 1.135-1.135 1.135-.626 0-1.134-.508-1.134-1.135 0-.626.508-1.134 1.134-1.134zm8.333.375c1.11 2.066 2.962 3.332 5.066 4.22-1.987 1.64-2.987 3.768-2.91 5.99-.503-3.337-.94-6.657-2.156-10.21zM46.27 181.8c.485.005.924.105 1.27.343 4.252 2.914.348 5.796-.015 5.57l-1.447-.914c.497-.826 1.627-1.945-.19-2.99-1.032-.45-2.182.092-3.185.788l-1.52-1.04s2.978-1.773 5.086-1.757zm100.277 1.648c.16-.005.316.005.47.034 2.4.464 2.233 3.01-.274 4.19-1.427.673-1.68.536-2.924-1.603-.586-1.004 1.18-2.57 2.727-2.622zm-101.046.935c.256.007.583.23.622.44.123.668-1.115 1.34-1.115 1.34l-1.423-.944c.608-.336 1.243-.79 1.917-.837zm127.874.61c.348-.026.603.138.704.554.486 1.98-1.712 5.648-3.74 6.244-1.186.35-1.528-.208-1.14-1.848.545-2.302 2.935-4.85 4.176-4.948zm-73.538.153l3.69 2.68-22.15 35.014-3.835-2.278 22.296-35.416zm60.28.283c1.758 0 3.185 1.42 3.185 3.178s-1.426 3.184-3.183 3.184-3.184-1.427-3.184-3.184 1.428-3.18 3.184-3.18zm0 1.153c-1.117 0-2.023.906-2.023 2.024s.906 2.024 2.024 2.024 2.024-.905 2.024-2.023-.904-2.024-2.023-2.024zm0 .89c.627 0 1.136.51 1.136 1.135 0 .627-.51 1.135-1.135 1.135-.627 0-1.135-.508-1.135-1.135 0-.626.508-1.134 1.135-1.134zm-50.9.118c2.402 2.71 5.103 8.772 14.533 5.913 3.21 2.617 7.646 4.107 13.114 1.203l.04 16.333-41.866.043 14.177-23.492zm-76.464.416l41.23 27.136-1.292 2.28-39.978-25.553.04-3.864zm115.746.025c.04 0 .073.004.103.01 2.108.517 2.346 2.624.388 3.43-1.05.43-1.264.324-2.265-1.15-.4-.587-.625-1.074-.567-1.222.14-.36 1.752-1.074 2.342-1.067zm26.456 2.23c.736.006 1.47.397 1.813 1.165.517 1.153.22 2.122-.846 2.763-1.76 1.062-3.73-.888-2.815-2.787.368-.764 1.112-1.144 1.85-1.14zm-25.815 2.216c.97.006 1.787.934 1.314 1.497-.313.373-.717.267-1.232-.328-.606-.697-.64-1.172-.083-1.17zm11.818.406c1.757 0 3.184 1.422 3.184 3.18s-1.427 3.183-3.184 3.183-3.184-1.427-3.184-3.184 1.427-3.178 3.184-3.178zm8.97.176c2.398.014 5.723 4.02 5.158 6.22-.185.72-1.53.33-3.13-.9-2.16-1.66-3.56-5.328-2.03-5.32zm-8.97.978c-1.118 0-2.024.906-2.024 2.024s.906 2.024 2.024 2.024 2.024-.906 2.024-2.024-.906-2.024-2.024-2.024zm7.712.41c.663 1.942 1.34 3.963 4.333 5.366-4.643 2.162-5.528 5.805-4.832 10.475l-1.084-.665c.994-4.184 1.748-8.95 1.584-15.175zm-7.712.48c.626 0 1.135.508 1.135 1.135s-.51 1.136-1.135 1.136-1.135-.51-1.135-1.135c0-.626.51-1.134 1.135-1.134zm-.592 5.11c1.757 0 3.184 1.422 3.184 3.18 0 1.11-.57 2.09-1.433 2.66l-1.027-.77c.76-.29 1.3-1.03 1.3-1.892 0-1.118-.905-2.024-2.023-2.024-1.064 0-1.934.824-2.015 1.868l-1.032-.772c.4-1.302 1.614-2.25 3.046-2.25zm14.486.407c1.515.008-.84 4.21-3.003 5.354-1.647.872-3.154.94-3.15.142.01-2.09 3.838-5.51 6.152-5.497zm-14.486 1.637c.627 0 1.135.51 1.135 1.135s-.507 1.135-1.134 1.135c-.622-.068-1.127-.558-1.135-1.135.002-.626.51-1.135 1.136-1.135zm13.997 3.83c.745.01 1.485.333 1.8.963.406.813.25 1.54-.494 2.278-1.832 1.813-4.323-.048-3.126-2.33.324-.622 1.072-.92 1.82-.91zm-5.854 1.706c2.55.08 4.478 3.252 4.02 5.047-.405.475-3.214-1.655-3.518-1.873-.358-.635-.38-1.664-.503-3.174zm-3.48 1.966l7.992 4.802-7.972 5.12-.02-9.922zm-71.15 2.376l42.92.157.006 1.804-44.1.024 1.173-1.986zm-1.75 2.823h2.884v3.517h-3.96v-1.94l1.075-1.576zm41.242.084h3.473v3.516h-3.473v-3.516zm-34.07.024h3.952v3.516h-3.95v-3.516zm8.22.03h4.27v3.515h-4.27v-3.516zm8.735 0h4.107v3.515h-4.107v-3.516zm8.773.058h3.913v3.517h-3.913v-3.517zm-35.738 4.333l47.606.11v2.108l-48.966-.112 1.36-2.107zm40.618 4.44c4.847-.055 7.67 5.354 3.883 9.153-3.482 3.49-9.292-.968-6.392-4.896 1.62-2.192 5.602-.426 4.607 1.912-.654 1.538-2.8.82-2.733-.847.004-.67-.49-.212-.548.5-.072.9.854 1.898 1.932 1.9 2.813.007 3.234-3.72.523-5.09-2.42-1.223-4.97.337-5.56 3.433-.063.338-.463 1.183-.768 1.78-.896 1.798-1.185 2.836-1.633 4.89-.207.257-.836.667-1.272.886-1.382.69-1.324.4-.808-1.85 1.49-6.474 3.925-10.644 6.9-11.49.65-.184 1.276-.277 1.87-.283zm14.333.336c2.993-.064 5.246 2.4 5.64 4.306 1.72 5.795-5.974 9.344-8.654 4.094-1.5-3 1.603-6.582 4.446-5.187 2.328 1.142 2.178 4.69-.2 4.68-1.29.06-2.076-1.1-1.364-2.03.37-.366.812-.08.998-.694.077-.257-.288-.462-1.17-.283-1.46.296-1.31 3.238.382 3.824 2.52.872 4.678-1.786 3.478-4.416-1.443-3.16-5.35-3.174-7.135.133-.26.48-.666 1.168-.89 1.472-2.665 3.616-2.875 4.157-3.668 6.172-.08.2-.22.35-.46.322-.734 0-1.454.158-1.946.352-.33-.088.11-1.356.143-1.452 1.814-5.606 6.477-11.157 10.4-11.294zm-23.19 1.575c-.63 1.102-2.53 4.678-3.848 9.962-.347-.216-1.28-.605-1.956-.84-.256-.09-.05-.386-.064-.833.48-2.384 2.02-6.55 3.717-8.67.36-.265 2.676-.35 2.15.38zm2.716 1.057c-1.627 2.075-3.324 7.59-3.68 10.436-.053.43-.13.906-.175 1.057-.254.85-1.847-.977-1.84-2.107.014-1.922 2.143-7.774 3.663-10.01.53-.78.594-.91 1.727-.95 1.82-.046 1.02.66.304 1.574zm-79.49-1.37c-.402.01-.802.063-1.194.157-2.354.584-5.16 3.08-5.433 5.727-.13.08-.45 1.933-.245 2.872.778 3.553 2.852 5.963 5.39 9.486 0 0-3.188 4.94-5.375 7.224l5.174 7.486c-1.43 2.826-3.918 4.964-4.543 8.45-.976 4.59 1.43 9.065 6.543 9.478 3.816.114 6.318-2.465 6.793-6.372.192-2.598-.876-5.854-4.72-11.003-.19-.254-.56-.78-.56-.78s.43-.508.66-.848c1.35-1.828 4.874-6.298 4.874-6.298l-5.267-7.448s.23-.5.636-1.056c4.3-5.863 5.1-8.844 4.338-11.757-.3-1.147-1.013-2.03-1.98-3.012-1.564-1.585-3.352-2.343-5.09-2.302zm-.124.72c1.68-.024 3.412.648 4.816 2.118 3.23 3.38 2.943 6.238-1.252 12.49-.92 1.37-1.824 2.88-1.824 2.88l5.296 7.315s-.858 1.284-1.75 2.332c-2.422 2.845-3.775 4.89-3.775 4.89.917 1.41 2.408 2.915 3.345 4.607 1.13 1.916 1.805 3.828 2.005 5.58.422 3.68-1.97 7.6-6.063 7.695-3.973.028-6.997-3.282-6.91-7.438.04-1.853.805-3.564 1.736-5.232.952-1.697 3.184-4.998 3.184-4.998l-5.125-7.472 5.427-7.248s-3.947-4.833-5.16-8.317c-.982-3.957.86-6.213 1.106-6.56 1.202-1.69 3.04-2.615 4.943-2.643zm-3.358 10.498c.787 2.053 2.07 3.58 3.52 5.04 1.347-1.572 2.848-3.642 3.67-5.614 3.967-9.503-11.353-10.278-7.19.575zm3.463 4.105c-1.943-2.262-3.316-4.142-3.45-7.124-.212-5.908 7.51-5.245 7.127.037-.43 2.876-1.94 4.695-3.676 7.087zm95.72-9.288c.148.832.96 2.24.89 2.572-.376.873-.924 1.308-1.688 2.744-.16.306-.085.37-.513.293-.403-.056-1.11-.277-1.488-.385-.215-.063-.464-.18-.36-.455.73-1.684 1.55-3.692 3.158-4.768zm-12.803 2.543l-.91 2.356c-.085.255-.094.296-.36.24-.518-.065-.972-.105-1.487-.067-1.127-.138.995-4.35 1.314-4.986.46.077 1.14 1.876 1.443 2.458zm.855.543c.02-.002.04 0 .06 0 .462.06 1.15.31 1.662.533.28.117.29.125.166.476-.26.52-.58 2.015-.924 2.537-.01.076-1.606-.948-2.06-1.146-.018-.284.505-2.32 1.096-2.4zm13.532.28c.527.017 1.18.497 1.536.77.167.332.014.665-.572 1.678-.52.896-1.062 1.864-1.193 1.76-.395-.308-1.125-.71-1.487-1.207-.27-.372.243-1.32.592-1.84.55-.818.813-1.114 1.124-1.163zm-8.607-.12c.488.108-.286 2.622-.43 2.936-.462.69-1.18 1.6-1.752 1.966-.29.188-1.188-.35-1.168-.978.014-.447.868-2.7 1.152-3.297.042-.087 1.65-.618 2.197-.628zm-19.908.96c.108-.003.218-.002.327.005 1.917-.056 3.888.89 5.13 3.003.587 1 .594 1.042.46 1.976-.318 2.193-.208 3.668.37 5.012.66 1.53.56 2.057-1.05 5.463-1.618 3.43-3.58 7.605-5.072 11.478-.66 1.658-1.27 3.537-1.647 5.075-.25.968-1.43.677-2.606.63-.598.132.862-3.893 3.026-8.703 1.732-3.85 4.09-8.188 5.03-12.497.766-3.513.52-4.958.1-6.433-1.622-4.293-7.266-3.24-7.252.714.12 2.563 3.085 3.936 4.172 1.424.18-1.154-.39-.482-.866.078-1.022 1.202-2.774-.134-2.5-1.907.363-2.328 3.37-3.094 4.823-1.252 1.592 2.018 1.242 4.098-1.057 5.658-2.368 1.74-4.524.75-5.707-1.056-2.524-4.057.93-8.56 4.32-8.666zm11.71 1.702c2.352.048 4.904 2.02 5.317 3.578.22 1.06-.12 2.305.26 3.326.313.82.616 1.292.39 2.02-1.935 6.226-6.5 12.866-8.758 20.236-.262.513-.5.577-1.082.743-.9.257-1.254.23-1.35-.24-.09-.448.212-1.3.738-2.895.632-1.91 2.027-5.185 2.847-6.724 1.908-3.585 2.97-6.038 4.356-9.1.26-.573.33-.913.737-1.737 1.747-3.54-.226-7.032-3.844-7.052-2.865-.016-4.146 4.473-1.638 5.785 2.454 1.283 4.285-2.088 2.103-3.28-.526-.29-.66-.014-.24.493.973 1.167.1 2.737-1.25 2.112-2.094-.967-1.016-4.534 1.427-4.328 3.77.318 4.262 5.804.416 7.193-5.287 1.91-8.06-6.602-3.085-9.467.826-.473 1.745-.68 2.656-.663zm11.14.17c1.393-.034 2.855.462 4.056 1.614 2.957 2.84 2.17 7.223-2.827 15.698-1.637 2.84-3.233 6.25-4.104 8.743-.217.62-.398.937-.89 1.208-.867.48-1.85.537-1.977.2-.325-.86 2.15-6.215 6.558-14.626 1.158-2.242 2.622-4.844 2.548-7.512-.29-2.118-2.053-3.642-4.41-2.948-1.59.466-2.237 2.705-1.067 3.833.487.472 1.088.72 1.476.68.73.024 1.562-.7.147-.777-1.497-.008-2.008-1.89-.744-2.738 1.816-1.22 3.9.218 3.755 2.592-.304 4.773-7.272 4.062-7.457-.855-.115-3.043 2.276-5.044 4.933-5.11zm-19.692 7.645c1.054-.08-.76 5.594-3.927 11.96-1.728 3.527-3.036 7.316-4.38 11.004-.365.492-2.548.583-2.544.072 3.873-12.408 6.608-14.545 7.932-19.27.23-.817.4-1.998.43-2.1.98-.282 1.805-1.453 2.49-1.667zm-71.69.836l-4.103 5.35 4.005 5.684 4.16-5.433-4.062-5.6zm88.845 1.654c-.003.64-1.232 3.726-2.15 5.58-4.02 8.11-5.02 10.297-5.713 12.46-.125.39-.328.647-.582.743-.5.187-1.894.454-2.01.264.85-4.74 7.355-15.524 8.617-20.25.506-.022 1.796.747 1.838 1.204zm3.217-.494c.272-.02.382.092.304.454-.126.588-.827 1.972-2.05 4.372-3.385 6.654-5.16 10.596-5.726 12.622-.133.475-.214.847-.44.968-.466.248-2.094.904-2.17.196.508-3.008 2.49-4.965 7.613-17.508.24-.41.45-.613.676-.65.63-.104 1.176-.402 1.794-.454zm-13.887 2.06c-.13.773-1.018 2.395-2.484 5.392-2.44 4.985-4.022 8.7-4.98 11.996-.155.535-.368 1.098-.577 1.242-.396.274-2.176.19-2.176.19-.27-1.363 1.877-6.445 4.27-11.79 1.3-2.907 2.81-5.804 3.82-8.412.694.104 2.03.77 2.126 1.38zm3.622-1.285c.724-.007.162 1.21-1.573 4.638-1.407 2.78-3.65 6.683-5.1 11.164-.38.988-.824 2.215-.988 2.73-.213.663-.41.992-.685 1.128-.524.262-1.79.246-2.01-.024-.355-.43 1.52-5.474 3.344-9.35 1.61-3.256 2.745-5.87 4.137-8.88.382-.598.398-.64.785-.717.805-.063 1.638-.602 2.09-.688zm-81.73.648l2.114 2.826-2.48 3.085-2.063-3.002 2.43-2.91zm-.316 12.19s-.898 1.034-1.82 2.67c-2.7 4.495-2.772 7.812.41 9.78 1.344.686 3.096.535 4.2-.43 3.606-3.146.927-7.466-1.402-10.396-.62-.86-1.39-1.623-1.39-1.623zm.13 1.15c1.353 1.596 2.343 2.793 3.243 4.798 1.036 2.694.372 4.812-1.633 5.806-3.17 1.572-6.053-1.958-4.548-5.727 1.114-2.793 2.94-4.876 2.94-4.876zm88.743 5.32c.297.567-30.162 7.613-52.633 1.565l-13.673 19.786 78.938-.137-12.632-21.213zm-1.154 1.404s7.337 12.7 10.938 18.92h-5.062l-7.213-15.443c-3.858 1.076-7.662 1.854-11.52 2.343l2.566 13.1h-3.79l-2.143-12.518c-5.53.426-11.16.588-16.91.425l-2.48 12.093h-3.965l2.543-12.01c-4.365-.59-8.71-1.145-13.145-1.873l-7.438 13.883h-5.6l11.674-17.424c17.426 3.496 33.496 2.674 51.543-1.497zm-2.76 6.818l5.723 12.103h-10.837l-1.995-10.797 7.11-1.305zm-46.393.88l9.473 1.227-2.445 9.995H77.072l5.765-11.223zm30.926 1.49l1.3 9.732H98.74l1.814-9.54 13.21-.19z"/></g></svg>