<svg version="1.2" baseProfile="tiny" xmlns="http://www.w3.org/2000/svg" xmlns:xlink="http://www.w3.org/1999/xlink" width="225" height="314" viewBox="0 0 225 314" preserveAspectRatio="xMinYMin meet"><defs><style type="text/css">use { fill: black; } .maxi-card { display: none; } .mini-card { display: block; } @media (min-width: 75px) { .maxi-card { display: block; } .mini-card { display: none; } }</style><path id="suit" d="M26.406 40.187c.015-1.98-1.56-2.017-1.542-.573-.133 7.257-6.31 10.83-10.8 9.982-6.92-1.307-9.128-8.13-9.06-12.148C5.203 25.046 17.773 15.9 29.115 0c8.31 14.35 22.028 25.623 22.84 36.717 1.08 14.75-17.712 20.25-20.395 3.06-.172-1.214-1.612-1.76-1.5-.063.408 4.71-.17 6.674 5.18 18.287H21.25c3.1-5.426 4.943-12.09 5.154-17.813z"/><path id="numeral" d="M0 0v2.87h2.937v24.98H0v3.092h8.532V27.85h-2.26v-7.086l3.426-4.75 5.14 11.835h-3.28v3.092h9.305V27.85h-2.226l-6.814-15.215 6.474-9.81 2.4.046V0h-9.24v2.87h2.663L6.27 14.917V2.87H8.6V0z"/></defs><rect width="100%" height="100%" fill="#fefefe"/><g class="mini-card"><use xlink:href="#numeral" transform="matrix(3.5 0 0 3.5 78.4 33.95)"/><use xlink:href="#suit" transform="matrix(2 0 0 2 55.5 170)"/></g><g class="maxi-card"><use xlink:href="#numeral" transform="translate(7 12)"/><use xlink:href="#suit" transform="matrix(.4 0 0 .4 6 51)"/><use xlink:href="#numeral" transform="matrix(-1 0 0 -1 218 302)"/><use xlink:href="#suit" transform="matrix(-.4 0 0 -.4 218 263)"/><use xlink:href="#suit" transform="matrix(.8 0 0 .8 36 40)"/><use xlink:href="#suit" transform="matrix(-.8 0 0 -.8 188 274)"/><path fill="#131F67" d="M30.264 25.72h163.532l.3 261.367-163.966-.436s-.007-170.554.134-260.93zM146.42 285.206c-6.088-10.986-15.714-28.883-15.998-29.025-3.56 1.887-39.847 6.72-57.3 2.04-5.97 8.923-11.832 17.762-17.03 26.606l90.33.38zm-55.73-32.86c-.912.02-1.93.574-1.743.092.11-.278.367-3.096.48-4.104.272-.448.656.727.612 1.818-.025.627.276.18 2.343.288 2.235.116 4.067.533 4.825.696 2.644.57 7.758.16 9.95-1.425 1.186-.86 1.635.067.412.988-5.523 4.16-9.902 2.574-14.7 1.877-.715-.102-1.44-.247-2.18-.23zm2.348-3.948c-.343-.222-.57-.245-1.008-.04-1.695.785-1.252-.343-.03-1.48.557-.52.54-.783.117-1.33-.214-.274-.572-.31-.487-.723.367-1.783 2.886-4.48 5.7-5.686 1.17-.502 1.356.047-.124.91-2.277 1.332-3.014 2.467-1.726 2.005 2.497-.896 4.774-.264 7.97 1.32.913.453 1.33.542 2.107.46.574-.474 1.088.095 1.443.393.224.18.27.264.525.205 1.818-.424.73.728-1.756 2.53-4.45 3.128-9.305 4.602-12.732 1.437zm6.848.77c1.82-.546 4.038-1.684 5.398-2.87 1.653-1.443.72-1.224-1.182-.314-2.75 1.315-4.677 1.696-7.77 1.625-2.59-.06-2.51-.163-2.604.158-.33 1.125 3.234 2.275 6.158 1.4zm-5.024-4.397c.147-.484.26-1.13.13-1.34-.24-.38-.756-.1-1.41.722-.406.51-.35.578.046.98.2.134.353.233.473.303.553.234.64-.276.762-.665zm1.13.665c.798-2.693 2.58-2.642 3.853-.064l.897.007c-1.844-5.015-5.415-2.476-5.535.02.42.136.786.037.786.038zm6.664-.454c.842-.465.718-.782-.354-1.332-.762-.39-1.165-.47-1.304-.217.01.557.033 1.35.356 1.792.336.202.8.003 1.302-.24zm-11.802-7.67c-.154-.252-.127-.715.46-.984 3.61-1.66.978-5.165-1.81-2.537-.884.72-2.198 1.055-3.214.626-.955-.414-.973-1.573.296-1.82.416-.08 1.484-.307 1.88-.578 4.846-2.576 7.42 3.024 3.98 4.888-.706.41-1.456.637-1.592.405zm-13.577-5.084c-1.968-.886-2.237-3.958-.394-5.155 1.174-.796 2.373-1.013 5.605.575 2.283 1.122 3.59-.086 3.53 1.22-.035.793-.083 1.594-1.41 1.785-2.157.31-3.63-2.597-6.4-2.322-2 .197-1.747 2.572-.303 3.055 1.926.643.76 1.404-.628.843zm36.168.446c-.36.168-.53-.616-.375-1.035.983-2.314 1.888-4.155 2.778-6.324.71-1.728 1.188-2.47 1.508-2.47.325.003.477.256-.07 1.32-.824 2.146-3.838 8.693-3.84 8.51zm-16.15-.6c-.87-.615-.725-1.527.266-.836 1.273.888 3.36-.738 2.935-2.27-.515-1.855-2.995-2.304-5.07-.644-3.277 2.62-6.872 2.752-6.872.705.006-.586-.076-.72 1.286-.81 1.585-.106 3.373-.827 4.262-1.365 3.985-2.412 8.226-.747 7.348 3.277-.398 1.898-2.74 2.817-4.156 1.942zm-14.615-5.94c-.323-.01-.914.314-1.084.188-.332-.246-.283-.96-.557-1.725-.485-1.356-.013-.933.84-.566 1.157.443 2.254.357 3.23.02 1.006-.346 2.327-.267 4.44.007 1.702.22 2.658.156 4.202-.28 1.675-.522 1.23-.335.952.69-.182.674-.41 1.577-.624 1.794-1.158-.644-2.038-.394-2.8.045-1.25.547-2.137.642-3.16.337-.965-.545-1.537-.5-2.312-.03-1.33.642-1.923-.418-3.128-.48zm24.987-2.82c.234-.41.575-.973.896-1.605 2.59-5.106 2.766-6.526.938-8.247-2.454-2.312-4.547-1.31-6.9 3.308-.57 1.12-.912 1.963-1.143 2.31-.267.397-.577.09-.73-.065-.29-.293 2.32-5.194 3.345-6.264 2.678-2.8 7.654-.562 7.338 3.247-.16 1.918-.526 2.97-2.293 6.485-.437.87-.816 1.608-1.048 1.963-.83.55-.64-.714-.403-1.133zm-24.4-.203c.408-1.82 6.278-2.66 7.825-.276.15.233.062.224-.602.043-2.984-.98-3.577-.927-6.437.196-.43.164-.734.232-.787.036zm22.396-.347c.002-.17.22-.843.55-1.493 1.958-3.843 2.497-4.77 1.9-5.488-1.163-1.4-2.726-.183-4.16 3.83-.538 1.5-.903 1.18-1.165.942-.502-.453 1.718-5.122 2.788-5.817 2.427-1.533 4.337.24 3.265 3.376-.836 1.416-1.527 3.594-2.31 4.74-.37.513-.87.36-.867-.09zm-8.777-6.24c-.118-.194.11-.454.952-2.244 1.155-2.46 1.514-3.372 1.044-4.777-.837-2.502-3.99-3.116-5.908-1.474-.627.53-1.053 1.263-1.35 1.922-.69 1.525-1.27 3.498-1.68 3.912-.357.36-.858.433-.825-.194.454-1.328.67-2.358 1.746-4.305 2.686-5.797 10.427-3.112 8.615 2.99-.673 2.214-1.448 3.892-1.906 4.437-.254.303-.677.04-.688-.27zm-1.796-1.066c0-.19.29-.734.6-1.49 1.31-3.218 1.317-4.204-.59-4.245-1.143.146-1.312.61-2.313 3.148-.326.824-.505 1.41-.698 1.663-.21.27-.6.11-.758-.052-.41-.414 1.377-4.575 2.32-5.36 2.173-1.878 4.986.79 3.67 3.183-.62 1.673-1.15 2.81-1.514 3.326-.32.456-.722.392-.718-.173zm-46.23-37.503l-6.595-.45c1.17 7.014 1.228 14.734.047 20.21-1.01 4.68-1.02 8.13-.72 12.187.35 4.723 2.362 8.727 2.868 13.74.366 3.63-.44 7.42-1.164 11.03-1.206 6.035-.957 6.666-.78 13.746.165 6.565-.45 6.33-.83 5.946-.057-.058-.11-1.22-.1-2.6.007-1.38-.078-4.758-.157-7.102-.16-4.683.364-8.82.743-10.524.772-3.466 1.64-7.017 1.105-10.853-1.086-4.842-2.616-9.678-3.153-14.344-.66-5.756.966-11.53 1.504-15.71.52-4.034-.032-11.015-1.095-13.92-.184-.967-1.052-2.228-1.052-2.228-.995-.14-1.993-.28-3.388-.272-.078 27.712 0 55.435.02 83.15l6.152 5.68 6.32-5.98.274-81.706zm.445 31.79s9.385 5.376 19.733 10.66c-.985-6.046 2.14-6.958 5.074-7.66-.703-11.678 10.05-9.282 11.697.865l1.06.003c1.862-5.06 3.705-8.55 7.947-9.384 3.287-.647 6.53 1.425 7.353 6.305-.146-.343 10.9-6.45 11.205 6.454 5.017-3.1 8.596-.423 10.043 3.512 2.117-3.21 7.42-3.353 9.113-3.586.592-.678 1.633-1.064 3.525-1.052 1.622-.083 3.802-1.29 4.923.182 1.706.268 3.006-.04 4.463 1.08 1.16.88 2.455 2.835 4.387 1.486 3.682-1.765 7.82-2.56 11.112-4.688 0 0-.874-1.12-.62-.958.094.06.504.588 1.12.834.223.088 2.245-1.118 2.245-1.118-13.714-15.723-24.995-46.417-17.546-74.815.205-.483-.622-.67-1.03-.84.126-.22 2.14.073 1.284 1.88-.86 5.44-1.836 11.336-2.053 15.848-.003.55.047 1.04.047 1.04 30.75 14.115 26.98 44.687 19.08 55.328l1.245 1.65c.55.367 24.19-13.35 23.41-13.914l4.473-2.217-.725-59.947-17.69-1.347s.188-.504.412-.635c.162-3.66-.167-9.072.01-13.604.068-12.946.2-17.35.03-17.707-5.456-3.575-13.592-8.804-20.44-11.34.282.08-.11 5.365-.318 5.667-6.406 2.034-3.433 4.635-5.8 7.428-1.59 1.74-5.313 2.07-7.11-.017-2.148-2.067-3.155-6.812-3.155-6.812-3.39 3.606-2.694 7.964-7.232 9.604-7.294 3.602-9.61-7.164-9.187-6.915-2.794 2.682-10.638 4.863-11.485-6.46-3.526 3.23-7.48 1.626-9.156-2.35-2.153.075-4.567 1.754-6.747 2.66-2.02.892-4.608 1.415-6.528 1.375-2.4.29-4.38.278-6.543-.363-1.017.328-3.31-.655-4.017-2.063-1.082-1.265-2.025-1.34-3.055-1.11-3.504 1.837-7.262 2.28-11.398 4.203-.258.18.363.516.154.45-.088-.028-2.173 1.018-2.173 1.018 20.954 27.416 22.095 55.097 17.702 74.716-.172.68-.267 1.174.186 1.71-.663-.115-.674.078-.798-.346l2.18-16.467c.062-1.988.312-1.842-1.443-2.583-1.625-.687-3.16-1.348-4.5-2.168-5.11-3.77-10.885-8.406-13.7-14.192-8.028-12.438-5.38-27.278.635-39.037l-1.496-1.546c-17.563 8.758-27.934 18.2-27.934 18.2l.076 58.824 18.048 2.07-.095 32.185zm-8.707-39.282c-.58-.637-2.053-.748-2.667-.264-.14.12-.443.742-.533.72-.817-.21-1.384-.378-1.492-1.064l.868-1.306c.687-1.033 1.677-1.4 3.346-1.788.59-.138 1.484-.264 1.8-.397 1.254-.54 1.69-1.706.42-1.183-.927.253-2.222.17-2.395-.675-.14-.693-.734-.965-1.396-.884-1.224.294-2.34.93-3.423 1.568-.48.288-1.39.94-1.39.94-.145.225-.674-1.41-.18-1.888.612.074 1.14.08 1.738-.157 1.492-.592 2.93-1.306 4.435-1.88.96-.374 1.047-.342.795-1.02-.125-.25-.235-1.08-.07-1.514.176-.463.156-.695-.142-.893-.678-.45-2.303-.03-4.59 1.062-.694.332-1.153.466-1.594.82.283-.72.117-.854.11-1.607.933.116 1.772-.252 2.518-.643.614-.32 1.304-.636 2.992-.85.46-.06.25-1.74-.274-2.227-.496-.46-1.54-.47-2.804-.1-1.128.26-2.53.52-3.307 1.727-.98.922.024-1.53 1.81-2.507.782-.018 2.508-.386 2.914-.475.687-.152.798-1.76-.203-2.45-.627-.544 2.277-.56 2.222-.393-.038.095-.064.782.157.958 1.25.375 1.24 1.393 1.35 1.82 1.436 2.348 2.143.875 3.132.067-.21 5.11 1.586 5.69 1.823 6.015-2.466 4.578-.606 4.69 1.706 5.744 0 0-.88.354-1.465.318-.92-.057-2.682 1.03-3.45 1.67-.426.352-.44.058-2.138.01-1.6-.048-1.718.07-2.447.393-1.44.636-1.433 1.235-.025 1 1.498-.253 2.966.653 3.138 1.886.12.233.013.646-.01.632-.313-.06-1.02.06-1.008-.09s0-.703-.277-1.096zm2.186-6.192c.406-.258.476-.993.122-1.29-.32-.272-1.688-.127-2.075.22-.873.683.724 1.828 1.954 1.07zm.876-3.076c.502-.39.563-1.328.128-1.873-.738-.923-2.67-.37-2.773.795-.11 1.24 1.594 1.895 2.645 1.08zm-.63-4.22c.092-1.02-.922-1.665-1.853-1.182-1.16.602-.456 1.87.998 1.796.806-.042.806-.042.856-.615zm-3.397-4.136c-.543.265-.57.9-.057 1.31 2.038 1.12 1.417-1.88.057-1.31zm142.28 6.09c-.896-3.28-3.36-.026-3.364.02-.088-3.363.55-4.86-1.98-6.008 2.54-3.832 2.01-4.36-.684-5.83.248.02 3.576-.723 4.146-2.615.126.09 5.224 1.34 5.86-1.43-1.54.696-4.564.8-4.6-2.178.287-.086 1.004.062.944.156-.402 1.91 3.093 2.383 3.665.874 0 0 1.175.783 1.69.904.058.04-1.59 2.313-3.092 2.656-2.707.893-3.642 1.134-3.645 1.67 0 .207.44.24 1.246.404 1.68.115 1.645.476 1.866 1.03.195.49.385.59.945.54 1.922-.637 2.883-.97 4.222-2.304.163-.03.353 1.4.456 1.45.016-.23-1.36.17-3.47 1.4-1.725 1.004-2.4 1.15-2.618 1.42-.163.202.256.836.3 1.523.037.577-.354.857-.066 1.038.332.21.846.17 1.52-.004 1.49-.357 2.587-.94 3.927-1.765-.284.535.192 1.895.192 1.895s-.66-.463-1.204-.223c-1.05.458-2.743 1.082-3.2 1.19-.443.103-.636.16-.81.307-.212.18-.177.61-.18 1.247-.004.446-.132.857.15.992.625.2 1.888.137 3.174-.31.548-.24 1.71-.87 1.71-.87l-.363 1.882c-.49-.547-1.89-.144-2.826.224-.474.148-.614.444-.734.855-.21.703.238 1.187.755 1.417.344.153.873.09.873.09-2.428.92-1.944 1.26-3.362.563-.61-.657-1.21-1.354-1.444-2.21zm2.54.002c-.402-.464-1.103-.73-1.513-.546-.363.192-.232.595-.116.902.307.852 2.44.578 1.63-.356zm-1.416-2.345c.57-.743-.058-1.743-1.11-1.75-.73-.004-1.12.45-1.112 1.02.015 1.078 1.747 1.35 2.222.73zm-1.17-2.832c1.056-.286 1.38-1.304.65-2.042-.52-.523-2.146-.59-2.58-.114-1.11 1.212.135 2.644 1.93 2.157zm.878-3.724c.62-.316.738-.842.19-1.44-.992-.84-2.726-.184-2.166 1.043.274.6 1.22.78 1.975.396zm-126.94-28.27c.93-.34 1.604-1.06 2.584-1.61.66-.36.46-.303-.386-.795-.665-.305-2-1.65-2.123-1.33-.302.574-.26 3.708-.075 3.734zm23.55 32.82c.038-.64.115-1.603.097-2.31.127-1.346-.116-.953-.85-.513-.54.348-1.41.876-1.75 1.045-1.342.667-1.182.702.71 1.608 1.586.708 1.764.64 1.792.17zm-1.843-3.15c1.283-.806 1.71-1.22 1.77-2.125.008-1.04-.113-1.418-1.03-.698-3.122 2.456-6.337-2.362-3.478-5.04.583-.545 1.323-1.398 1.33-1.615.046-1.553-1.71-.046-3.143 2.086-1.587 1.938-2.576 4.364-1.184 6.693 1.116 1.705 3.596 2.042 5.736.7zm-7.097-3.137c-.057-.76.158-1.608.258-1.86.35-.89.335-1-1.256-.26-.635.208-1.393.377-1.685.375-1.3-.008-.975.4.888 1.945 1.873 1.554 1.935 1.695 1.795-.2zm4.427-7.442c.198-.467-.215-.646-.61-.56-.03.008-.712.514-1.513 1.142-2.428 1.902-4.208 2.125-5.412.676-1.222-1.47-.71-3.213 2.018-5.21 1.204-.88 1.493-.94.914-1.324-.44-.292-.467-.248-2.197.92-3.488 2.35-4.532 3.955-4.183 6.295.07.96.577 1.463 1.066 1.837 3.325 2.933 7.94-1.112 9.916-3.776zm3.52 1.39l-.21-3.237c-3.546-3.044-6.91-8.242-8.07-12.548-1.187-3.83-.242-11.816-.063-11.223l-1.917-3.613c-1.668 3.833-2.396 9.68-.582 15.637 1.54 5.057 4.623 11.18 10.843 14.982zm-14.936-1.887c1.127-2.153 1.16-1.92-1.016-1.94-2.484-.02-2.206-.32-.807 1.79 1.126 1.697.936 1.844 1.823.15zm1.492-2.95c1.43-.458 1.104-.354 3.004-1.583 2.18-1.41 2.27-2.183.082-1.096-2.81 1.396-5.277 1.04-6.193-.783-.814-1.623.89-3.648 3.694-4.44.958-.27 1.464-.5 1.466-.917.008-1.274-4.768.425-6.734 2.35-3.8 3.71-.475 8.116 4.682 6.47zm-6.14-5.783c.128-.193.47-.657.784-1.14 1.345-1.556.214-1.09-.98-1.516-.63-.23-1.277-.462-1.647-.406-.715.107.24 1.48.47 2.368.642 1.975.568 1.914 1.373.694zm5.084-3.557c2.408-.234 2.653-.466 2.657-.963.002-.492-.296-.398-1.505-.23-3.2.44-5.32-.37-5.777-2.067-.473-1.754 1.695-3.413 4.585-3.315 1.564.053 2.606-.485 1.653-1.003-.496-.27-4.806-.212-5.78.07-2.863.83-4.03 2.416-3.77 4.61.396 2.71 1.883 3.488 5.508 3.296.694-.037 1.58-.315 2.428-.397zm1.863-8.83c.003-.422-.685-.483-2.957-.818-3.026-.447-4.378-3.235-2.554-4.912.69-.636 2.34-.91 3.257-.742 1.996.362 3.216.772 3.235.098.004-.602-.575-.645-4.32-1.432-5.658-1.19-8.765 4.337-4.24 7.04 1.718 1.027 7.575 1.61 7.58.768zm1.403-7.91c0-.212-.183-.375-.61-.542-.624-.24-1.042-.286-2.446-1.228-1.868-1.253-2.435-3.696-1.188-5.06 1.21-1.27-.967-2.77-2.7-1.336-1.804 1.49-1.652 3.83.423 5.682 1.91 1.707 6.514 3.48 6.52 2.485zm-9.17-.33c1.968-.92 3.38-.39 1.876-1.658-.845-.78-1.566-2.994-2.153-1.115-.448 1.12-.78 3.096-.79 3.29.13.133.1-.096 1.07-.517zm69.566-4.767c-2.24-.556-3.77-3.145-3.2-5.634.322-1.405 1.65-4.72 1.913-4.925.988-.78.853.258-.054 2.06-.827 1.842-1.473 3.322-1.216 4.417.364 1.56.997 2.75 2.626 3.145 1.145.277 2.224-.197 2.955-.71.966-.68 1.88-2.424 2.972-4.836.35-.68.818-2.764 1.4-1.492.28.66-2.05 5.037-2.922 6.147-1.095 1.394-2.948 2.214-4.474 1.826zm13.505-1.466c1.09 1.04 2.934 1.564 4.138 1.19 2.955-1.035 4.297-3.813 3.18-8.28-.567-2.503-1.052-4.06-1.54-4.37-.24-.15-.5.13-.73.48-.207.31.108.747.443 1.926 1.413 4.963 1.044 7.207-.68 8.155-2.5 1.378-4.642-.207-5.367-3.748-.116-.548-.458-1.663-.458-1.663-.19-.493-1.74-.385-1.178 1.264.17 1.275 1.35 4.317 2.192 5.046zm12.672-13c-.04-1.745-3.73-9.322-3.98-8.518 0 0-.017 1.77.13 2.468.054.263.245.507.402.786 3.207 5.69 2.712 9.702-.068 10.58-.947.43-1.153.85-.73 1.29.857.928 3.007-.905 3.425-1.57 1.052-1.494.905-4.22.822-5.035zm-53.698-1.287c1.208-1.343 3.858-5.98 4.676-8.41 2.514-7.24 5.156-15.565 5.887-23.26.08-.972.132-2.45.18-2.576-.197-.213-1.443-.102-1.862.11-.2.26-.066.837-.138 1.588-1.125 8.652-3.2 16.534-6.28 24.558-1.35 3.485-2.6 5.78-4.222 8.204-.283.424-.644.86-.785 1.105-.41.59-.108.975.366.726.843-.476 1.572-1.39 2.178-2.045zm-4.12 2.105c3.854-5.28 6.595-11.622 8.725-19.105 1.346-4.843 2.53-9.744 3.24-14.738.146-1.066.264-1.78.055-2.1-.52-.14-1.492-.053-1.83.207-.205.31-.067.932-.258 2.37-.494 3.716-1.232 7.448-2.48 12.333-3.29 10.813-6.313 16.868-10.285 22.165-.32.445-.606.735-.578.924.042.277.428.255 1.06-.138.824-.645 1.767-1.21 2.35-1.918zm-5.874 2.807c1.886-1.066 5.207-5.703 7.553-10.698 2.633-5.896 4.836-12.556 6.278-18.323.627-2.528 1.517-8.84 1.39-9.256-.15-.493-1.994-.083-1.738.258 0 0-1.83 10.147-3.802 15.74-3.658 10.384-6.82 17.428-10.227 20.815-.445.444-1.324 1.313-1.324 1.313s.017.387.3.446c.68.125 1.133-.07 1.57-.295zm-2.887-.414c4.256-2.37 9.24-13.448 13.31-27.356.695-2.38 1.968-10.347 1.968-10.347s-1.695.063-2.022.418c-.33.48-.275 1.707-.75 4.62-1.83 8.796-4.59 16.82-8.738 24.752-1.794 3.515-4.774 6.824-6.656 7.767-1.052.527-1.36 1.107-.59 1.15 1.298.046 1.413.316 2.355-.19l1.123-.813zm58.315 123.882c-3.19-.01-5.9 3.04-8.316 6.878-5.138 7.86-8.59 20.997-9.43 27.978l1.937-.364c-.292.133 3.622-18.582 9.585-26.596 3.224-5.056 3.088-5.132 4.897-5.596 2.288-.586 4.123 1.882 2.988 3.37-.41.502-.86.133-.734-.585.406-2.288-2.943-2.73-3.88-.48-1.075 2.587 1.786 4.895 4.582 3.877 2.5-.88 3.545-4.362 1.79-6.936-.9-.87-2.205-1.643-3.42-1.546zm-16.8-.32c-3.82 4.784-5.714 9.7-8.06 16.414-2.346 6.708-4.03 13.27-4.76 20.797l2.062-.265c-.075-4.84 5.244-27.884 12.72-36.517.416-.545.75-1 .72-1.126-.415-1.164-2.187.24-2.682.697zm8.443-1.788c-4.952 4.047-8.908 12.887-11.518 21.06-2.82 8.832-4.086 16.926-3.874 16.926l1.968-.288c-.146-.513 5.53-31.637 16.06-37.304.913-.454 1.105-.912.335-1.11-1.185-.166-2.138.222-2.97.716zm5.546.02c-10.814 1.42-17.882 34.507-18.118 37.254-.003.042-.04.256-.04.256l2.154-.442.027-.158c1.48-8.454 2.927-14.38 6.297-22.02 2.628-5.663 6.252-12.903 11.668-13.605.44-.058.857.118.703-.393-.33-.813-1.948-.917-2.692-.892zm-64.453-10.417c-3.908 1.002-4.036 5.675-1.433 11.646.197.45.16.697.36.87.445.39.795-.152.844-.51.075-.543-.157-1.273-.57-2.334-1.61-4.135-1.225-6.516.37-7.57 4.09-2.1 5.19 2.215 5.808 4.2.15.483.203 1.148.47 1.185.816.11 1.205-.177 1.192-.177 0 0-1.083-3.717-1.743-5.112-1.067-2.26-3.608-2.73-5.297-2.2zm-28.357 4.41l-.04 49.256-7.482 7.013c-3.21-2.747-7.43-7.048-7.43-7.048l.133-83.268-2.407-.192c-.59 35.775-.17 72.084-.197 107.93l22.124.162 18.31-28.54s.232-.34.306-.52c.225-.552.198-1.373.088-4.408-.044-1.233.095-2.18-.087-2.47-.185-.293-.575-.083-.94.08-.37.166-.592.107-.392-.33.114-.247.48-.79.797-1.31 1.028-1.685 1.28-2.224.933-4.092-.086-.46-.508-.848-.875-1.39-3.082-4.54-4.337-11.27-2.807-16.2.487-2.178.312-2.62-.74-4.317l-19.292-10.355zm96.848-52.96c-2.012-1.03-1.973-1.008-1.984.943.01 1.46.038 1.812.587 1.616.793-.403 1.763-.772 2.495-1.082 1.397-.48-.378-1.093-1.098-1.477zm7.964 5.073c-1.562-1.244-.985-1.102-1.427 1.704-.267 1.694-.61 1.738 1.146 1.178.996-.344 3.046-.127 2.127-1.295.006.02-1.54-1.327-1.845-1.587zM91.9 205.934c-2.394 1.447-4.84 8.458-4.84 8.458-8.368.996-11.872 9.215-12.246 16.068-.295 5.41-.662 11.727-.116 12.28 5.487-2.464 7.602.38 8.12-.387.24-.335-1.216-1.444-3.042-2.44-.425-.23-1.082-.646-1.33-.853-.667-.552 1.33-.077 2.59.78 1.61 1.094 1.88.866 1.183-2.33-.76-3.476-.885-3.9 1.79-5.28 1.07-.55 1.678-1.018 2.444-1.876.613-.686.77-.854.544.155-.392 1.746-1.947 2.508-3.348 3.218-.697.356-.985 1.074-.99 1.69-.003.63.72 4.025 1.055 5.11.31 1.03.425 2.064.664 3.115.628 2.728.668 3.263.35 5.242-.186 1.16-.28 1.823-.216 2.524.06.637.147 1.504.147 1.504.005-.03-1.493-1.533-4.77-.244-2.362.93-4.23-.04-5.553-.728-.305 1.074-.236 2.24-.2 3.474 13.625 2.49 25.26 2.155 35.058 1.13.254-2.893 1.49-12.093 4.083-20.39 1.08-3.452 2.3-7.09 3.678-9.52.938-1.656 1.896-2.772 2.234-2.965.105-.062.115-.097.113-.14-.002-.094.002-.172-.003-.26-.034-.538-.165-1.37-.628-1.74-1.13-.9-2.935.26-3.527 2.27-.52 1.202-2.892 6.41-3.06 6.32-.14-.086-.47-.093-.35-.495.907-2.11 2.154-4.342 2.856-6.236.97-2.73 3.08-4.17 4.657-2.448.54.59.758 1.133 1.006 1.32.187.142.438.045.594-.188.594-.896-.784-2.927-2.263-3.334-2.134-.59-3.725.966-6.145 6.01-1.398 2.91-1.648 3.642-1.87 3.418-.048.02-.42.02-.285-.545.288-1.213 2.143-4.735 3.485-6.97 1.988-3.308 5.68-3.576 7.23-.705.238.392.25.903.515 1.252.476.615 1.26.493 1.454-.518-.213-.67-1.51-3.085-2.41-3.506-2.077-1.426-4.597-1.146-6.717.745-.48.43-.982 1.303-2.39 4.154-2.07 4.573-2.126 4.59-2.692 3.854.834-2.225 3.025-5.84 3.91-8.058.168-.33.202-.687.19-1.027-.052-1.613.21-4.464-3.202-6.49-2.91-1.566-6.755.083-8.063 3.168-1.002 2.364-1.734 3.987-2.24 4.322-.71.47-.577-.185-.507-.423 1.01-2.14 2.428-4.3 2.652-6.452.15-5.82-5.758-7.973-9.6-5.034zM61.405 96.814c4.61-2.14 7.767-3.218 12.464-4.603.635-.276.735-.34.062-1.673-2.976-5.89 5.19-10.582 7.966-4.803.37.77.455 1.197.82.828.682-.895 1.493-2.164 2.336-3.613 3.124-4.84 4.537-10.357 6.203-15.228.69-2.86 1.655-5.853 1.93-8.922-6.2-10.78-10.516-21.156-17.095-30.756l-43.382-.03-.163 86.676c12.13-10.116 20.388-13.775 28.86-17.875zm48.834-3.184c.526-.556.98-1.477 2.868-5.346.336-.69.874-1.762 1.093-2.26.282-.91 1.342-1.48.826.15-.117.353-.32.827-.64 1.458-.628 1.128-1.224 2.51-1.67 3.41-2.413 4.833-2.298 7.648.397 9.745 2.013 1.925 6.24 2.142 8.49-.965.338-.5.64-1.145.736-1.38.977-2.373 1.698-3.56 1.883-3.794 1-1.27 1.162.304-.334 2.727-1.715 2.775-1.744 5.783-.263 7.9 2.195 3.137 6.366 3.227 8.983.71 1.36-1.595 2.442-3.623 3.313-6.215.192-.575.393-1.002.534-1.34.218-.518.53-.71 1.344-.866 5.573-1.067 10.25-6.783 10.913-13.024.088-.845.328-2.338.415-3.225.175-1.77.18-10.93.005-11.477-.094-.295-.26-.45-.623-.447-.278.005-.673.103-1.238.304-1.837.655-2.692.82-4.457.19-.583-.208-.986-.28-1.226-.258-.78.066.255 1.184 2.524 2.416.973.528 1.74 1.24.953 1.188-.23-.016-2.97-1.43-3.347-1.662-1.248-.765-.923.198-.28 2.73.864 3.403.367 4.358-2.32 5.69-.502.25-1.167.768-1.506 1.103-1.424 2.105-1.057.555-.34-.566 1.228-1.282.476-1.72-2.038-.83-2.867 1.014-4.162.272-4.965-1.32-.905-1.8.8-4.117 2.224-4.072.46.015.377.18-.302.644-.82.56-1.208 1.1-1.293 2.055-.175 1.95 1.22 2.776 3.168 1.47.92-.617 1.644-1.043 2.34-1.2.69-.158 1.73.1 1.725.65 0 .228-.032.786.017.91.183.616 1.17-.257 1.6-.567 1.467-1.096 1.42-1.312 1.02-3.09-.656-2.49-.987-4.765-1.61-7.288-.335-1.32-.392-2.815-.19-4.162.103-.675.365-2.062.42-3.013s-.007-2.308.028-2.308c1.457 1.114 2.05 1.31 3.472.77 2.2-.9 3.59-.808 5.443.08.687.326 1.31.558 1.31.558l.086-2.856s-1.717-.354-4.89-.77c-9.546-1.254-29.137-1.52-29.866-.367-.186.293-.37 2.334-.89 5.172-1.156 5.895-2.45 11.77-4.184 17.525-.355 1.172-.695 1.645-.514 1.68.074.014.43-.44.594-.63.93-1.07.217 1.473-1.185 4.537-.127.276-.23.58-.23.673-.002.185-.883 2.32-1.49 3.61-.378.804-.69 1.045-.688.532.426-1.766 1.553-4.05 1.715-5.622-.987 1.425-2.424 3.776-3.512 5.18-.2.378.013.494.188.962.653 1.744 2.236 1.9 3.15.32.51-.88 2.096-4.198 2.647-5.65.567-1.493.966-2.28 1.154-2.38.378-.195.45.654-.222 2.067-2.04 4.287-2.914 6.69-3.913 7.577-.775.69-2.116.645-2.86-.58-1.265-2.075-2.343-1.388-1.184.74 1.198 2.2 3.935 2.404 5.364.425.472-.654 2.69-4.89 3.39-6.61.39-.963.806-1.71.944-1.765.745-.287-.105 1.908-2.246 6.304-.693 1.697-1.808 3.478-3.315 4.03-3.664.8-4.16-1.136-5.434-3.343-.62-.548-1.18.33-.944 1.3.384 1.574 1.103 2.19 2.214 2.98 2.32 1.477 5.545.462 6.714-1.22zm16.345 9.196c-.332-.735-.284-1.48-.114-2.178.383-1.57 1.02-3.092 1.762-4.416 1.204-.57.284 1.694.134 2.03-1.45 3.023-1.588 4.193-.234 4.543 1.16.3 1.785-.41 2.882-3.122.562-1.392.788-2.008.987-2.088.423-.17.627 0 .602.426-.726 1.78-1.293 3.652-2.484 5.13-1.168.977-2.924.982-3.535-.324zm-10.884-2.323c-.506-.1-1.372-.75-1.974-1.3-2.05-1.877-1.712-4.47.83-9.347.198-.38.938-1.854 1.175-2.338.427-.867.846-.527.842.046 0 .16-.636 1.508-1.277 2.758-2.808 5.484-2.71 7.722.017 9.026 2.663 1.273 3.856.54 5.98-3.646 1.228-3.144 1.833-3.195 1.766-2-.003.445-1.49 3.458-2.448 4.858-1.39 2.033-2.595 2.394-4.91 1.943zm.2-2.646c-1.044-.646-1.47-2.255-.853-3.57.562-1.086 2.002-5.247 2.68-5.48 1.087-.038.506.873-.842 3.432-1.595 3.388-1.537 4.294-.307 4.812 1.14.48 1.68-.504 3.36-4.468.263-.622.63-1.27.847-1.134.268-.02.73.18-.152 1.978-.21.43-.565 1.33-.958 2.17-1.148 2.45-2.45 3.076-3.774 2.26zm18.872-7.196c-.46-.234-2.616-1.08-2.296-1.782.04-.066.164-.015.23.028 1.973 1.32 4.428 1.656 6.99-.178.43-.38.75-.122.51.354-.775 1.537-4.227 2.194-5.434 1.58zm-6.342-2.226c.06-.147.237-.587.395-1.178.237-.887.182-1.54.392-1.428.895.483 2.494.495 3.277.018.857-.523 2.6-.684 3.233-.27.907.588 1.368.313 2.004-.18.718-.56.73-.32 2.026.128.957.33 1.332.56 1.74.484.154-.027.47-.383.57-.364.313.056.348.938.634 1.944.254.89.11 1.105-.69.57-.594-.395-2.302-.582-4.078-.04-1.316.404-1.62.242-2.584.08-2.407-.407-4.144-.72-5.938.316-.958.556-1.305.844-.98-.08zm-5.986-4.4c-1.166-2.336 1.516-5.43 3.874-4.337.782.362 1.478 1.734.32 1.104-5.362-1.08-4.022 6.763 1.735 2.62 3.827-2.537 6.535-2.93 6.76-.475-.105.9-.908.758-1.517.84-1.586.22-2.173.48-4.01 1.266-2.796.882-5.53 1.6-7.162-1.015zm20.982 1.08c-1.31-.335-2.444-.85-3.81-1.098-1.35-.234-1.96-.94-1.716-1.888.253-.984 1.606-1.088 3.64.15 2.255 1.375 3.89 1.708 4.714 1.19 1.67-1.05.77-2.755-.823-3.19-1.194-.333-.314-.797.97-.414 2.073.784 2.117 4.525-.015 5.302-.713.26-1.97.19-2.96-.05zM125.16 72.733c1.523-.94 2.994-1.78 3.518-2.34.275-.295 1.04-1.283.446-.98-3.105 1.86-6.71.314-9.32-.96-1.255-.586-.946-.326-1.91-.263-.652.043-1.178.18-1.294-.286-.052-.206-.417-.12-.65-.143-.966-.095-.355-1.37 1.672-2.776 2.39-1.658 4.476-2.74 6.546-3.187 2.15-.464 4.344-.202 5.952 1.345.618.594.563.99 1.128.625 1.29-.833 1.3.272.213 1.295-.745.702-.473.894.44 1.562.436.32.08.623-.165 1.087-.092.285-.02.597-.063.813-.203.998-4.756 4.526-6.404 5.13-1.134.21-.54-.644-.107-.92zm3.163-6.485l-.756.01c-.86 2.623-2.448 3.518-3.77.373l-.603.06c-.027 2.664 4.562 4.337 5.13-.443zm-4.97 2.46c-.312-.522-.663-1.72-.99-1.738-.887-.038-2.113.12-1.822.67.458.87 3.174 1.673 2.813 1.067zm6.082-.467c.818-.492.992-.83.46-1.37-.69-.7-1.05-.343-1.267.77-.186.96-.052 1.115.807.6zm-11.093-1.845c5.48-2.476 7.56-2.796 9.786-2.183.516.142.972.43 1.26.412 1.066-.063.387-1.256-1.527-1.938-2.185-.78-3.57-.426-7.77 1.76-2.462 1.28-4.46 3.175-1.748 1.95zm15.884-3.005c-.078-.148-.41-1.133-.504-1.492-.095-.36-.18-.73-.282-.732-2.542.405-4.778-.07-5.38-.213-3.845-.916-7.56-.73-10.334.354-.678.266-1.518.694-1.6.77-.218.205-.542-.028-.54-.283 0-.3 1.704-1.646 2.777-2.177 3.264-1.614 6.708-1.89 10.49-.874 2.464.943 4.052.79 5.627.103.772-.338.225.498-.02 1.606-.17.77.016 1.426.048 1.86.098 1.05-.02 1.574-.282 1.078zm57.29 221.436v-86.85c-14.42 10.618-41.69 21.695-41.69 21.695 3.435 6.987-4.13 12.965-8.47 5.87-4.465 5.007-10.616 22.537-10.834 28.358 0 0 11.878 20.706 17.673 30.927h43.32zm-79.417-28.597c.395-4.36 1.33-11.754 4.237-20.357 1.22-3.608 2.692-7.75 4.77-11.457.83-1.295.888-1.797.004-1.33-.556.293-3.098 3.154-3.443 3.877-3.898 8.212-5.702 18.078-7.13 25.61-.322 1.693-.418 3.8-.418 3.8l1.98-.144zm2.85-.36c.928-10.593 4.832-24.895 10.697-34.216.552-.89 1.23-1.66 1.205-1.966-.077-.907-2.335.66-4.087 3.334-1.956 3.872-3.916 8.003-5.415 12.576-2.117 6.456-3.662 12.42-4.265 20.515l1.866-.243zm5.637-.883c.59-6.104 2.486-11.704 4.077-17.314 1.945-6.86 4.542-11.91 7.568-16.455.97-1.458 2.116-2.823 3.205-4.213.14-.167.278-.468.247-.594-.7-.12-1.256.096-1.796.397-.755.422-1.817 1.487-2.438 2.276-4.31 5.488-6.63 11.895-8.78 18.368-2.068 6.218-3.557 12.196-3.85 17.826l1.767-.29zm-38.714-4.68c.867-.067 1.426.096 1.678-.134.25-.23.17-.844.247-1.63.17-1.68-.006-1.587-1.058-.502-1.74 1.798-4.918 2.49-6.808 1.404-.953-.548-1.615-.928-1.706-.472-.104.53.04.938.448 1.223 2.29 1.043 4.463.326 7.2.113zm-2.046-1.286c1.206-.398 2.432-1.04 3.12-2.022.658-.936.647-1.07.15-.892-2.45 1.202-4.062 1.814-6.25 1.48-2.967-.45-3.09-.07-1.13 1.154 1.284.8 2.348.826 4.11.28zm-4.353-3.753c.46-.338.577-1.715.207-1.793-.374-.08-.92.604-1.054 1.16-.15.738.4.928.848.633zm4.59-.06l.79-.07c-.403-3.454-4.16-3.603-4.853.345l.596.09c.775-3.15 3.047-3.062 3.47-.365zm2.477-.555c1.15-.64.753-1.432-.797-1.735-1.018-.238-.96.592-.434 1.718.262.56.445.454 1.23.017zm-8.844-4.233c-.01-.386-.168-1.007-.35-1.38-1.325-2.708-2.056-5.906-1.905-9.88.108-2.85.144-3.73-.45-3.735-.828.398-1.317 5.7-.263 10.113.744 3.116 3.024 6.98 2.97 4.88zm-.033-4.316c-.08-1.488.248-4.824.084-5.553-.215-.955-.782-1.82-1.103-2.05-.498-.356-.622.328-.45 2.116.405 4.197 1.08 7.374 1.47 5.488zm.42-7.638c.327-.588.2-1.213-.522-2.616-2.838-5.527-3.206-9.305-.24-10.677.332-.154.54-.184.763-.306.935-.518.58-1.456-.82-1.068-3.863 1.07-4.625 4.68-1.368 11.357 1.658 3.333 1.915 3.798 2.187 3.31zm.703-3.135c.05-.23.15-1.134.188-1.318.04-.186-.35-.717-.77-1.783-1.09-2.784-1.114-3.94.074-4.745.386-.226.782-.237.843-.496.094-.405.087-1.07-.156-1.262-1.704.013-2.49 1.004-2.79 1.947-.45 1.492.02 3.678 1.357 6.386.65.846.99 2.39 1.256 1.27zm1.303-3.6c.91-1.835.045-4.213-1.21-3.4-.812.525-.853 1.08-.354 2.61.608 1.86.967 1.99 1.563.79zm3.194-4.91c.365-.36.04-.877-.633-2.904-.577-1.737-.312-2.924.787-3.267 1.578-.39 2.137 2.185 2.47 3.27.17.838.722 1.068 1.212.486.136-.163.176-.3-.058-1.213-1.02-3.99-2.35-5.26-4.495-4.267-1.988.922-1.728 2.983-.286 7.317.194.58.322 1.01.462 1.07.114.052.34-.293.542-.492zm1.76-1.355c.473-.466.444-.255-.095-1.92-.615-1.898-.94-2.295-1.6-1.643-.406.4-.2.842.262 2.396.54 1.805.683 1.908 1.433 1.167zm82.42-6.5c3.136-2.16 1.843-6.033-2.287-7.47-.487-.17-1.024-.374-1.192-.455-1.897-.91-3.374-1.192-3.378-.48-.003.418.566.63 2.386 1.514 2.69 1.308 3.3 2.818 1.97 4.723-.957 1.372.836 2.944 2.5 2.168zm2.846-4.715c.272-1.108.677-2.06.87-2.704.267-1.01-.076-.775-.747-.617-1.73.894-2.967.407-2.126 1.638.933 1.636 1.703 2.9 2.003 1.682zm-.215-3.873c2.155-1.287 2.633-4.64.628-6.238-.48-.384-1.31-.888-2.315-1.193-2.04-.62-4.986-.902-6.066-.576-.23.273-.24.702-.01.827.302.11.845.186 1.63.265 3 .304 4.48 1.194 4.335 3.317-.148 2.186-1.9 3.026-5.067 2.335-1.703-.37-2.496-.192-1.812.205.812.472 2.56 1.092 4.28 1.43 1.47.257 3.15.356 4.397-.373zm-10.345-.552c2.427-5.43 3.704-19.67-10.157-29.963l.458 2.85c8.168 7.135 10.13 16.223 8.438 24.56l1.262 2.553zm12.376-9.733c-.867.562-1.593 1.144-2.707 1.64-.668.298-.686.37.22.863.44.24 1.162.678 1.44.975.478.516 1.044.714 1.256.526-.023-.81.254-3.48-.21-4.004zm-4.102 1.03c2.808-.885 4.31-2.232 3.99-4.485-.47-3.306-3.242-4.005-8.436-2.713-2.498.622-2.722 1.79-.35 1.188 2.993-.762 5.344.39 5.025 2.574-.186 1.886-1.705 2.983-4.375 2.983-1.41 0-1.846.125-1.654.632.13.344 4.643.184 5.8-.18zm-4.635-7.853c4.588-1.57 6.722-4.007 5.674-6.738-1.234-3.216-5.24-3.248-9.265-.255-1.882 1.372-1.594 1.88.228 1.182 2.36-1.082 3.88-1.25 4.848-.39 1.747 1.554.568 4.262-2.08 5.233-1.282.53-1.694.825-1.697 1.21-.005.605.23.46 2.29-.244zm7.74-.05c.12-.953-.96-4.254-1.426-3.494-.124.2-.552 1.134-1.094 1.617-1.58 1.41-1.28.876.287 1.308.873.24 2.103.852 2.234.57zm-12.14-7.055c4.642-2.682 6.412-6.508 4.008-9.05-2.162-2.287-5.745-.956-9.073 3.2-1.526 1.906-.38 1.667 1.678-.146 2.396-2.112 5.444-1.094 5.428 1.542-.006 1.126-1.603 3.02-3.115 3.9-.47.27-.537.69-.37.963.177.295.553.106 1.446-.41zm8.135-2.797c-.242-.72-1.988-3.813-2.363-3.707-.396.794-.425 1.837-.9 2.678-.645 1.265-.563 1.066 1.497 1.06 1.532-.005 1.717.21 1.765-.03zm-13.637-3.496c3.898-4.033 4.242-8.755.59-9.842-2.022-.602-5.258.855-5.267 2.36-.005.94.17 1.108.99.772 3.445-1.277 6.176 2.024 3.01 5.82-.77 1.098-.872 1.373-.647 1.6.262.268.475.168 1.325-.71zm41.988-34.484V28.5h-22.813l-18.12 28.22-.028 6.983c0 .24.412.39.68.088 1.028-.793.63.04-.553 1.838-1.197 1.816-.83 3.313.478 5.254 2.775 4.11 4.223 11.66 3.04 15.65-.444 1.507-.544 2.115-.253 2.958.333.964.537 1.48 1.5 2.1.838.582 7.73 3.26 18.832 10.377l-.056-50.217 6.995-6.684 7.39 7.048.258 82.905c0 .877 1.72 1.276 2.648.368zm-4.002-83.036l-6.188-5.744-6.116 5.66c-.032 27.003.155 82.427.155 82.427l6.078.436s.446-1.263-.122-4.53c-.853-4.906-.8-10.897.572-20.007.854-5.59.006-10.437-1.29-15.54-1.127-3.4-1.167-6.548-.963-9.59.432-4.852 1.77-8.515 1.936-15.493.093-3.98-.098-7.874.048-12.782.06-.657.34-.576.39.103.185 4.442.358 8.662.398 13-.134 5.64-1.518 11.444-1.67 16.607-.113 3.576-.17 4.813 1.344 9.168 2.38 6.845.813 17.358.786 17.545-1.01 6.736-1.744 15.354 1.662 21.8l3.302.294-.322-83.352zm-42.568 50.942c1.825-.836 2.187-2.312 1.204-5.868-.176-.635-.376-1.39-.444-1.677-.21-.878-.606-.975-1.135-.276-.314.417-.023.514.46 2.47.733 2.954.31 3.932-.794 3.925-.977-.007-1.737-.81-2.017-2.728-.097-.654-.235-1.1-.394-1.363-.266-.44-.586-.36-.844.125-.334.628.293 3.214 1.126 4.467.906 1.263 1.528 1.523 2.838.922zm-.497-2.653c.388-.727-.094-2.518-.346-3.69-.23-.655-.495-.815-.93-.71-.646.16-.615.865-.38 2.026.477 2.366.735 2.665 1.655 2.375zm5.548-4.268c2.09-1.187 2.288-3.234.885-6.958-.575-1.526-1.29-2.602-1.687-2.612-.155.97-.298 1.488-.125 1.87.164.353.44.895.635 1.348 1.188 2.747.868 4.33-.28 5.188-1.07.8-.394 1.475.573 1.164zM81.6 94.942c4.898-1.045 9.317-8.894 12.1-15.894 2.535-7.05 5.23-14.8 5.656-21.26 0 0-1.853.085-2.08.467-.21.376-.302 1.187-.498 2.34-1.277 5.945-2.293 10.46-4.52 16.046-1.548 3.88-3.235 8.27-7.425 14.165-1.376 1.647-2.95 2.67-4.93 2.944-.502.068-1.35-.025-1.563.125-.375.264-.037.863.932 1.104.867.217 1.748.075 2.328-.04zm67.498-.918c.748-.793.82-1.733-.017-3.724-.234-.558-.342-.874-.62-.797-.592.165-1.28 1.713-.873 3.023.53 1.708.842 2.207 1.51 1.498zM79.89 92.777c1.436-.19 3.253-1.328 4.566-3.11 2.7-3.52 4.562-7.524 5.943-10.64 1.104-2.507 3.102-7.922 3.645-9.884 1.152-4.165 1.783-6.854 2.31-9.835.047-.274.093-.712.01-.854-.567-.155-1.813-.062-2.195.32-.688 4.78-2.287 9.58-3.456 13.567-1.97 6.785-7.59 17.638-10.652 18.15-1.647.274-3.535-1.152-3.23-2.617.186-.9.31-1.242.752-1.467 1.067-.375 1.688.35.518.822-1.357 1.176 1.086 2.975 2.586 1.718 2.543-2.13-1.193-6.21-4.252-4.334-3.39 2.077-2.518 5.675-.387 7.384 1.07.864 2.315.985 3.84.78zm23.994-4.87c2.093-2.143 3.665-4.915 4.81-8.38 2.478-7.785 4.533-16.708 5.277-23.698 0 0-1.787-.185-2.185.192-.28.266-.013.52-.773 5.627-1.276 7.446-3.14 14.842-5.832 21.244-1.104 2.588-1.417 2.905-2.196 4.25-1.088 1.9-.685 2.384.9.762zm46.444-16.228c-.194-.1-.178-.035-.26.02-.286.198-.1 1.192.55 2.728 1.705 2.745 1.904 8.073 1.793 10.076-.033.602-.095.946.088 1.48.182.524.5 1.134 1.01.112.563-3.944.12-8.075-1.395-11.42-.537-1.187-1.06-2.35-1.785-2.997zm1.314 11.633c.3-1.062-.253-5.27-.938-6.75-.276-.596-.775-.643-.715.035.004 1.46-.154 4.232.004 5.054.745 1.714 1.326 2.806 1.648 1.66zm-3.864-17.005h-.805c.027 2.754-2.422 3.52-3.325.213l-.726.168c.964 4.666 5.32 2.526 4.856-.38zm-4.897 2.075c-.417-1.222-.244-1.668-1.306-1.12-.812.42-1.298.867-.155 1.416 1.015.428 1.726.476 1.46-.297zm6.137-.703c.336-.678.296-1.29-.21-1.293-.392-.002-.5.31-.61.966-.2 1.175.292 1.39.82.327zm.426-4.574c.31-.1.223-.535.14-1.09-1.328-1.84-4.612-1.275-5.792-.91-1.36.44-1.702.276-2.63-.146-.766-.142-.873.044-1.06.408-.164.32-.193.932-.246 1.995-.045.898-.014 1.316.3 1.035 1.217-1.088 2.624-2.447 4.677-2.532 2.49-.103 4.615 1.28 4.613 1.24zm-9.04 2.49c-.003.37.314.14 1.124-.368 2.947-1.745 4.654-1.498 7.178-.666.562.186.91-.4.3-.9-2.997-2.455-6.688-.89-8.603 1.933zm10.678-11.307L167.07 27.93l-89.07-.065L93.12 55.85c12.334-2.845 32.635-6.48 57.96-1.56z"/><path fill="#E2CF00" d="M72.087 260.474c1.887-2.807 11.23 2.193 11.724 4.174 5.53-4.34 12.244-4.656 17.647.776 5.556-6.056 11.503-5.642 17.69-2.134-.69-1.368 7.91-7.41 13.14-3.57l14.138 25.106-90.58.29c5.352-8.006 10.092-17.57 16.242-24.642zM32.523 129.522c-.492-1.358-2.48-15.306 2.562-15.654 8.15 3.603 18.555 16.49 23.375 24.365 5.974 9.76 12.01 32.198 8.677 31.218-.48-.14 10.288 10.61 11.03 11.66 1.22 1.727-18.154 33.897-21.354 32.743-.968-.35-7.42-4.188-7.42-4.188l.186-10.734s10.138-19.958 10.7-26.627c.212-2.52-6.977-6.834-7.306-7.705-.82-2.17-.723-10.23-4.91-13.75-2.31-1.4-4.49-.954-6.832-.656-9.508-1.583-4.582-17.56-8.71-20.67zm158.99 7.165l.058 3.96c-6.258 1.36-17.32-3.926-20.67 4.59.416 9.198 2.483 13.323 3.926 16.1 1.085 2.496 8.696-.35 11.377 2.166 7.69 9.44 5.876 22.01 5.943 33.336l-3.337 1.68c-23.06-13.562-40.768-55.69-43.22-67.684-.157-7.7 21.154-32.445 21.154-32.445.05-.053 7.765 4.685 7.765 4.685.186.075-.164 32.477-.163 32.326 6.094.312 12 .906 17.167 1.287zm-46.847-29.615c-11.83 16.917-15.832 42.2-15.072 59.836 1.534 26.33 20.35 49.806 19.09 52.024-.212-.154-.71.107-.898-.06-4.333-3.845-7.36-3.17-9.576-3.206-4.236-.067-5.407 1.192-7.838 1.433-6.206.613-5.702.77-10.967-1.208-6.643-5.4-15.54-9.544-22.62-11.723-5.678.51-14.333 3.184-17.606 1.018 22.77-41.906 19.358-68.732-4.214-112.656 1.954.575 2.258 2.395 3.722 2.844 4.845 1.866 11.52 1.158 15.523-.583 4.345-1.95 8.446.906 8.39.812 8.556 6.022 18.907 9.91 24.295 12.595 1.592.82 3.604-.475 5.362-.83 3.603-.727 6.69-2.264 9.377-1.363.86.287 2.147.64 3.032 1.065zM91.51 52.232c-1.158-2.15-13.015-24.645-13.015-24.645l88.19.53-13.23 21.7c-1.25 1.18-7.465 4.463-13.804-2.972-.118 1.068-9.406 7.675-17.39-.28-4.806 4.353-9.707 6.876-17.79 1.975-.18 1.366-6.484 7.498-12.96 3.693z"/><path fill="#D40000" d="M101.16 264.92c-8.546-7.99-17.44-.776-17.237-.32-3.382-3.43-6.69-6.237-11.147-4.858 0 0 0-1.203.034-1.23 13.29 2.428 33.647 3.058 57.443-1.912l1.222 2.55c-6.382-2.265-9.67.79-12.5 4.354-10.24-6.38-12.74-.783-17.816 1.417zm19.93-92.925l6.044-.117c1.14 17.558 15.826 44.426 16.18 44.426-1.023-1.42-10.72-.3-10.648-.12-5.333-14.208-11.187-28.4-11.577-44.19zM85.83 213.65s-1.945-5.034-3.11-7.188c6.348-10.824 11.554-22.027 14.225-34.485l4.322.038c-1.28 17.2-15.065 43.32-15.438 41.634zm77.767-2.304c9.52-17.158 7.877-41.89-19.135-55.557 0 0 .704-18.13 2.713-18.17.453.14 12.226-.15 12.226-.15 3.085-7.562 8.048-16.704 14.983-22.877l.174 20.263c-5.132.506-8.262 2.142-9.817 6.15l-7.11 1.582c.52 20.355 8.19 39.163 30.936 56.056-5.436 4.665-24.015 14.137-23.943 13.97l-1.028-1.268zm-113.97-12.79l.2-21.1c3.45-.745 6.17.254 9.017-5.92 0 0 4.78 2.266 6.367 3.1-4.467 7.984-8.323 16.516-15.585 23.92zM94.91 161.2l.234-10.712 10.184.293c-.864 3.63-1.135 7.264.02 10.896l-10.438-.478zm23.233-.13c.695-3.505 1.192-7.03-.25-10.75l11.026.19-.26 10.668-10.515-.107zm-20.97-20.947c-1.834-21.01-16.25-44.79-16.45-44.285 1.697.27 4.688 1.112 6.335.333 1.992.33 3.72.105 3.812-.08.133-.733 13.4 30.508 11.63 43.984-.212.457-4.894.487-5.327.05zm25.486.185c1.557-9.706 5.574-27.46 15.06-41.86 1.08 2.558 1.984 5.187 3.464 7.576-7.153 10.395-11.56 22.274-14.234 34.4l-4.29-.115zm-65.933-5.232c-4.34-8.845-22.396-22.768-21.473-21.36 7.475-6.692 15.81-10.942 24.13-15.236 0 0 1.48 1.402 1.257 1.755-5.115 8.054-7.596 25.116-2.643 34.896 4.76 10.445 13.204 16.62 21.812 21.468-.667 6.53-.992 11.25-2.6 17.744 0 0-5.41-2.842-9.843-4.67-.705-12.334-3.26-23.365-10.64-34.597zM104.55 48.41c6.363 3.875 12.063 3.467 17.59-1.793 6.937 6.288 14.437 3.36 17.608.524 2.934 3.303 6.755 5.134 12.344 4.043l-1.384 2.903c.33-1.543-38.548-4.06-57.358 1.2 0 0-1.1-2.19-.978-2.21 1.638-.096 7.086 1.92 12.177-4.667z"/><path d="M77.2 26.89l15.715 29.245s.46-.085.69-.13c21.782-4.253 39.034-4.835 57.563-1.58L167.64 27.2c-29.978-.34-90.44-.31-90.44-.31zm1.752 1.246l87.39.096-4.916 8.055c-2.943-.907-4.584.44-4.996 3.26 0 0-.364-.157-1.047-.23-4.307-.466-4.85 5.205-.83 5.89 1.026.175 1.2-.03 1.2-.03-3.587 3.01-5.623.98-7.31-.014-.047.352-3.215 2.73-6.203-.115 4.28.428 4.945-3.856 2.9-5.486-.43-.42-.865-.748-.865-.748 1.007-.877 1.227-2.04.58-3.375-1.297-2.683-5.363-2.525-5.984.402-.24 1.14-.25 1.34-.25 1.34-3.283.214-3.95 3.31-2.82 5.03.64.977 2.052 1.188 3.354 1.123-1.756 2.485-5.775 1.64-7.565-.408-2.845 3.34-6.087 2.934-7.705 1.143 1.1-.012 1.857-.028 2.866-.96 1.727-1.595.88-4.422-1.56-5.213-.473-.153-.813-.186-.84-.188.018-.025.063-.182.168-1.033.606-4.93-6.786-4.443-6.072.408.083.562.235.864.235.864s-.783-.045-1.232.162c-4.105 1.892-1.276 7.1 1.896 5.76.3-.127 1.12-.528 1.238-.523-3.93 4.868-7.23 1.417-8.098.888-2.654 3.934-7.264 1.25-7.358.975.287.08 1.15-.1 1.973-.52 2.596-1.352 1.86-4.833-.164-5.59-.62-.218-1.37-.24-2.213-.174 0 0 .063-.878-.02-1.187-1.276-4.74-7.178-2.374-5.727 1.632.128.35.47.705.47.705s-.8.485-1.156.807c-2.816 2.532.05 6.71 3.34 4.973.426-.224.838-.695.956-.667-1.548 2.827-3.897 3.814-7.248 1.474-2.066 3.273-5.438 1.914-6.39.273 3.15.288 5.197-5.746-.858-5.942-.47-1.64-.447-4.136-4.286-3.705l-4.852-9.157zM121.63 38.49c.692 0 1.252.564 1.252 1.258s-.56 1.258-1.253 1.258-1.26-.564-1.26-1.258.566-1.258 1.26-1.258zm19.526.15c.735 0 1.33.6 1.33 1.333 0 .735-.595 1.33-1.33 1.33-.734 0-1.33-.595-1.33-1.33 0-.734.595-1.334 1.33-1.334zm-38.276 1.453c.71 0 1.282.573 1.282 1.28 0 .71-.573 1.288-1.282 1.288-.708 0-1.286-.577-1.286-1.286 0-.708.578-1.28 1.286-1.28zm54.83 1.58L156.6 43.65c-1.23-1.077-.382-2.49 1.113-1.978zm-70.118 2.726l-1.106-2.046c1.98.134 1.397 1.552 1.106 2.045zm33.874-1.115c7.5 8.545 14.226 6.017 18.624.336 1.887 4.843 6.09 8.19 13.325 4.936-.438.773-1.536 2.14-1.536 2.14-6.395 1.723-9.567-1.286-12.034-4.15-6.505 5.398-12.63 4.09-17.684-.673-4.313 5.43-11.3 6.598-17.765 2.165-2.956 4.362-7.196 6.124-12.528 3.94 0 0-1.133-1.778-1.23-1.89.772.646 10.592 4.723 12.99-5.08 3.417 5.8 14.625 6.11 17.836-1.723zm.754 3.514c8.437 7.887 17.29 1.065 17.515.584.133.438 4.948 6.188 11.89 4.027l-1.128 1.936c-13.062-2.21-25.08-3.63-52.6.418 0 0 4.394-1.3 6.615-4.806 1.237.804 10.784 6.133 17.708-2.16zm-29.568 6.536s3.672.43 3.96.504c.322.25-3.092 1.188-3.105 1.118l-.855-1.622zm7.444 37.638c-.222.007-.5.257-.96.71-.995.98-1.222 1.11-2.188 1.248-.73.104-2.268.99-3.2 1.843-.254.23-.735.424-1.312.523l-1.53.264c-.343.06-.714.167-.827.235-.49.3-1.29.345-2.185.13-.863-.207-1.002-.202-1.954.09-1.385.428-2.292.43-2.975 0-.682-.426-1.766-.586-2.453-.363-1.017.328-3.648-1.248-3.643-2.18 0-.21-1.497-1.332-1.873-1.334-1.335-.198-13.06 4.43-13 4.7 14.397 17.78 26.516 44.87 17.387 78.02l-1.612-.773c1.354-6.025 1.892-12.09 2.31-18.25-27.022-11.666-29.35-38.794-18.86-55.92L59.44 98.02c-6.354 3.392-12.812 5.316-28.52 18.495l.043 21.33c.037 19.285.027 38.074.027 38.074 5.685.63 11.945 1.144 18.12 1.675 0 0-.08 19.07-.22 26.53-.12 6.31.114 5.913.114 5.913l20.448 10.78c-1.438-5.678 2.11-7.934 5.078-7.697-1.312-5.474 1.945-7.98 5.664-7.277 2.512.475 3.392 1.86 4.83 6.437.232.744.554 1.74.554 1.74l1.434-.054c1.793-3.853 2.99-8.754 7.213-9.39 5.523-.832 7.58 2.964 7.578 6.758 5.353-4.716 11.764-1.065 11.348 5.98 2.693-1.73 7.257-3.296 10.132 3.38 1.08-.23 1.632-1.433 3.15-1.81.57-.12 1.86-.812 1.86-.812l.015-.23s1.194-.414 2.797-.677c1.375.513.974.495 1.714-.418.825-.423 2.164-.702 3.196-.61 1.083.098 1.564.177 2.198-.1.988-.432 1.91-.54 2.496.11.42.468 1.028.242 1.68.216 1.306-.052 3.044.483 3.586 1.656.8.814 2.55 1.64 2.55 1.64l1.415-.325.163-.523 11.582-4.42c-23.618-25.86-23.002-60.17-17.438-77.536l2.136 1.027c-1.133 5.146-2.418 10.433-2.25 18.105 21.268 9.483 31.85 33.993 18.954 55.388l1.363 1.762c5.364-2.25 18.857-9.827 23.52-13.944l.994.082s2.828-1.83 4.075-2.808l.167-56.775-.988.26-.18-3.317-17.534-1.392c.224-.167.392-.234.442-.566l-.1-31.43c-.652-.997-15.34-9.6-20.8-11.612-.22-.002-.068.368.01 1.267.268 3.083-1.813 5.827-4.225 5.832-.867.002-1.018.37-.975 2.142.062 2.517-.848 4.208-3.5 5.164-3.142 1.135-5.268-.51-7.017-6.973-.458-1.698-1.356-1.273-2.217 1.046-.427 1.15-1.81 3.946-2.635 5.42-.637 1.132-1.643 1.634-3.01 2.236-1.066.526-3.374.435-4.704-.24-2.41-1.226-3.347-2.697-4.042-6.342-.09-.477-.403-.436-1.186.153-4.257 3.21-10.244-.107-10.21-5.653.01-1.628-.056-1.692-1.013-.912-2.887 2.357-6.81 1.162-8.38-2.554-.365-.868-.56-1.256-.847-1.246zm-24.47 1.968c.3-.014 1.238 1.233 1.238 1.233.864.956 2.026 1.44 3.235 2.15.11-.17 14.095 18.598 16.473 44.473l6.504.033c-1.213-25.14-8.147-37.225-11.328-44.98l2.332-.74c5.23 10.024 11.606 30.366 11.395 48.175H94.735c-1.517-17.838-8.453-35.23-18.153-48.423-.676-1.014-1.204-1.72-1.008-1.9.013-.014.032-.02.052-.02zm-4.114 2.654l1.09 3.417s.13-.797.466-1.1c2.122-1.912 4.153.606 3.196 4.023-.218 1.052-.643 3.125-.643 3.125s-2.132-1.093-3.206-1.444c-2.96-1.257-3.946-3.736-1.685-4.018.378-.047 1.156-.08 1.156-.08-.94-.74-3.015-2.43-3.015-2.43l2.642-1.492zm9.936.384c.894.508 3.2 1.055 4.526.557 1.07-.402 1.886-.182 3-.086.64.056 1.91-.225 1.91-.225 6.36 13.38 10.734 29.254 11.463 43.77l-5.002.03c-1.888-15.423-7.857-31.09-15.432-42.71-.335-.507-.78-1.317-.465-1.335zm20.895.23c1.937.023 3.963 1.953 5.063 5.112.613 1.76.854 1.652 1.676 1.368 2.112-.725 4.362 1.596 1.53 1.982-2.778.46-1.192 5.896-1.43 6.374-1.126.197-3.242-4.424-3.188-5.8.136-3.368-3.03-6.186-4.996-4.77-.933.67-.83 1.144-1.12.902-.884-.744-1.063-2.794-.027-3.955.75-.838 1.612-1.224 2.493-1.213zm57.533 1.162s.11 4.43-.058 5.41c-.33 2.953-4.188 3.264-4.34.9-.63.945-1.063 2.12-1.314 3.174l-2.736-1.882c1.04-.745 2.03-1.4 2.8-2.323-2.03.155-3.163-1.6-1.806-3.095 1.507-1.71 5.676-1.896 7.454-2.183zm-100.6 1.402l1.21 1.363c-10.78 19.11-6.978 43.537 19.043 56.37-.174 5.864-.925 11.794-2.324 17.296l-9.6-4.656c.063-21.605-12.17-42.203-31.7-55.743 7.086-5.694 14.926-10.696 23.37-14.63zm78.606.163c.458 2.522 2.847 7.092 3.02 6.83-.025-.15-9.94 12.702-14.25 34.195l-3.683.015c2.412-14.322 7.228-27.836 14.912-41.04zm30.563.6l1.958 1.185c-10.275 8.604-17.043 19.51-22.013 31.272l-2.597-1.23c7.706-17.06 15.32-24.638 22.652-31.228zm2.74 1.906c.538.034 1.176.715 2.165 1.257.967.53.727.812-1.095 2.208-2.153 1.65-2.355 1.578-2.337-.777.012-1.56.406-2.603 1.16-2.682.037-.004.07-.008.107-.005zm-2.366 2.428c.112-.005.204.032.263.126.158.623.142 2.05-.11 3.46-.203.93-2.965 3.26-3.95 4.182-.395.26-.575.164-.648-.298.03-.73.103-1.706.115-2.698.004-.305-.06-.625.217-.858 1.352-1.598 3.322-3.87 4.112-3.913zm5.13.76c.016 0 .026.002.038.01.255.152.213 3.354.033 3.565-.8.207-2.955-.132-3.508-.427-.12-.372 2.922-3.17 3.437-3.15zm-96.255 1.036l.75 3.14s.214-.422.268-.504c1.488-2.276 3.3-.942 3.27 2.217-.01.997-.917 4.986-.917 4.986s-5.586-2.682-6.024-3.86c-.432-1.156.182-2.176 1.21-2.27.384-.043.787-.075 1.23 0l-2.4-2.452 2.613-1.258zm63.946.418l2.535.936c-5.285 8.598-10.74 17.09-14.712 36.456H118.84c1.486-11.836 4.497-23.47 9.87-34.795 0 0 2.085-.64 3.264-1.02 0 0-8.78 20.088-9.802 33.004l5.13.11c2.74-12.586 7.864-25.63 14.34-34.69zm-20.11.312c1.427-.053 2.48.95 2.4 2.73-.02 1.63-.168 1.866-1.32 1.215-1.515-.853-2.71-.87-4.066.098-.746.533-1.48.975-1.48.975s.655-2.83 1.657-3.72c.96-.855 1.952-1.265 2.81-1.297zm-5.45 4.185c-.103.958-.385 1.397-.638 2.214 0 0 .83-.323 1.23-.51 1.887-.88 3.853.75 3.824 2.66.085 1.273-1.3 2.8-2.947 2.813-.575.004-1.185-.177-1.772-.615.426 2.334.51 3.413-1.195 4.584-1.428.95-4.437-.136-4.268-2.745l.105-1.607-1.444.188c-4.036.166-4.106-4.8-.85-5.58 1.3-.31 2.712.757 2.712.757-.62-1.218-.63-3.313.2-4.28 2.052-2.384 5.295-.218 5.042 2.124zm35.238-3.1c.22 1.86.96 3.887.75 5.622-.315 2.217-2.2 3.53-3.683 2.093-.183-.178-.514-.548-.514-.548-.667.847-1.084 3.24-1.084 3.24l-2.616-1.612s1.816-1.275 2.318-2.002c.14-.202.207-.586.207-.586-1.456.455-2.69-1.033-2.295-2.347.79-2.15 4.704-2.95 6.918-3.86zm18.283 1.344c.98-.03 2.496.247 3.692.375.92.16.41.68-1.65 2.687-1.894 1.845-1.835 1.67-3.294 1.646-3.407-.058-4.004.02-2.02-2.12 1.038-1.123 1.946-2.137 2.69-2.512.16-.044.357-.07.583-.076zm-6.143.39c.043 0 .078.018.11.048.226.21.15 1.17.124 2.592-.024 1.512-.008 1.513-.642 2.304-.807 1.01-1.477 2.042-2.318 3.015-.73.79-.706.706-1.143-1.195-.423-1.845-.188-2.42 2.188-5.093.806-1.033 1.38-1.685 1.682-1.672zm10.642 1.05l.027 3.74c-7.03 6.875-11.81 14.608-15.058 23.13l-2.45-.973c4.243-10.888 10.59-19.38 17.48-25.895zm-60.952 2.262c-1.162 0-2.103.94-2.103 2.103s.94 2.106 2.103 2.106 2.107-.945 2.107-2.107-.945-2.104-2.107-2.104zm-.015.662c.803 0 1.455.652 1.455 1.455 0 .802-.652 1.454-1.455 1.454-.802 0-1.45-.652-1.45-1.454 0-.803.648-1.455 1.45-1.455zm-78.115.888C56.95 128.148 66.784 149.96 66.74 168.7l-1.238-.557c-1.283-26.48-15.677-42.76-31.233-53.295l.748-.772zm129.85.202c.496.002 1.172.08 2.15.192 1.815.097 2.038.21.787 1.646-.343.393-1 1.215-1.464 1.833-.463.618-1.027 1.264-1.286 1.353-.38.132-3.568-.02-4.48-.144-.297-.042.095-.347 1.647-2.564 1.19-1.7 1.318-2.263 2.444-2.313.067-.003.133-.005.204-.005zm9.134.72s.436 12.068.12 19.766c-5.003-.185-7.94 1.714-9.163 5.31l-5.257-2.603c3.857-9.903 9.014-16.796 14.3-22.473zm-15.484.278c.284.005.446.593.527 1.752.33 2.075.295 2.316-.57 3.648-.432.663-1.022 1.6-1.31 2.083-.503.844-.86 1.095-.985.686-.685-2.238-.9-3.624-.657-4.075.4-.74 2.266-3.394 2.53-3.738.182-.24.335-.358.465-.356zm-125.113.225c17.63 10.917 30.528 29.56 31.062 52.082 0 0-3.758-1.764-6.077-3.053l-.12-2.19 1.224-.038.395 2.467 2.69-.087-.714-6.158-4.215.398-.85-3.49 1.277-.273.706 2.25 2.74-.724-1.46-5.486-4.232 1.157-1.353-3.706 1.406-.503 1.138 2.218 2.58-.897-2.435-5.5-3.894 1.837-1.977-3.59 1.52-.812 1.226 2.136 2.408-1.25-2.98-5.058-3.696 2.063-1.857-2.784 1.147-.8 1.267 1.464 2.116-1.498-3.245-4.363-3.536 2.77-2.616-3.028 1.205-1.022 1.8 1.612 2.01-1.757-3.853-4.204-3.37 3.07-2.51-2.178 1.228-1.358 1.564 1.195 1.666-1.973-4.195-3.456-3.145 3.11-3.014-1.992v-1.483c.98.377 2.015.816 2.942 1.31l1.56-2.36-4.502-3.04.97-1.03zm49.1.933l.666 3.85c.634-1.047 1.138-1.768 2.507-1.363 1.645.67 1.667 3.146.273 6.937-.258.702-.576 1.31-.576 1.31s-.72-.3-1.2-.63c-1.006-.687-2.7-1.465-3.565-2.83-.908-1.43-.928-3.43.738-3.26.33.002.983.158.983.158l-2.5-3.187 2.674-.985zm-50.07 1.147l3.054 1.968-.635 1.152-2.42-1.09v-2.03zm76.537.908c.884 1.236-2.23 4.88 1.843 6.336 0 0 .1.84-.75 1.35-1.99 1.447-4.852-1.197-3.964-3.918.57-1.74 2.21-3.76 2.872-3.768zm8.448.115s1.228.896 1.474 1.133c2.267 2.173 2.288 5.29.234 6.38-1.365.724-2.91.14-3.446-.913-.248-.487.16-.997.682-.993.98.006 1.725-1.868 1.436-3.84-.116-.783-.38-1.767-.38-1.767zm26.745.724s.27 2.664.658 3.845c1.19 3.312-.33 5.328-2.554 4.22-.318-.16-.88-.88-.88-.88l-.22 3.808-3.164-.922c.685-1.1 1.67-1.882 2.405-3.12 0 0-.473-.017-.888-.02-1.89.065-2.586-2.03-.604-3.753 1.477-1.273 5.247-3.178 5.247-3.178zm16.536.883c.384-.003.86.028 1.52.03 2.005 0 2.52-.272 1.636.978-.346.487-1.187 1.843-1.436 2.305-.506.937-.607 1.23-1.45 1.416-1.22.24-2.603.073-3.998.138-.303-.015.32-1.054.667-1.7.85-1.58 1.37-2.666 2.102-3 .288-.13.577-.165.96-.168zm-6.2 1.225c.242-.014.422.42.652 1.32.54 2.096.678 2.147-.19 3.868l-1.494 2.947c-.788 1.56-.833 1.546-1.33.148-.952-2.68-1.035-2.403.538-5.414.982-1.88 1.47-2.85 1.824-2.87zm-115.69.734l2.837 2.273-.807.783-1.57-1.157-2.317 2.48 3.81 3.476 3.228-3.178 2.765 2.89-.844.715-1.622-1.564-2.43 2.072 3.625 4.282 3.652-2.784 2.29 3-.936.586-1.494-1.45-2.376 1.646 2.957 4.167 3.725-2.138 2.116 3.48-1.176.566-1.2-1.91-2.673 1.54 2.523 4.872 4.022-1.68 1.617 3.72-1.23.5-1.03-2.237-2.708 1.07 1.814 5.117 4.08-1.172.99 3.802-1.26.35-.618-2.106-2.597.624 1.084 5.137 4.152-.265.493 4.152-1.29.058-.322-2.477-2.644.033c.014.873.115 2.654.115 2.654l-1.598-.74c-2.375-15.787-10.845-28.945-23.463-38.106l-.067-1.887 3.07 1.95c.004 0 2.82-2.51 3.307-3.148zm121.196 3.68c.88-.006.49.677-.58 2.718-1.197 2.276-1.41 2.324-3.65 2.87-2.723.664-2.643.812-1.17-2.328.568-1.21.982-2.27 1.502-2.674.684-.528 2.006-.325 3.442-.542.18-.028.33-.042.456-.043zm-127.422.673c13.104 8.454 21.388 25.94 22.416 36.542 0 0-.354-.237-1.07-.566-.993-.457-1.237-.755-1.526-2.2-2.596-12.963-9.914-23.965-19.762-31.73l-.058-2.047zm118.172 2.165c.555-.116 1.564 3.864 1.263 4.7-.22.6-2.168-.818-2.877-1.12-.355-.15 1.238-3.503 1.613-3.58zm-63.192.18l-.062 4.13s.497-.59.754-.778c.975-.71 2.464.274 2.52 1.493.078 1.69-.177 2.376-1.53 4.723-.42.727-1.052 1.65-1.052 1.65s-1.6-1.14-3.346-2.88c-1.89-1.88-1.528-4.393.125-4.4.494-.004.935.164 1.367.302-.356-1.216-1.685-3.575-1.685-3.575l2.91-.664zm51.22 3.093s.855 1.127 1.84 4.09c.937 2.83-.508 4.96-2.47 3.894-.35-.19-.72-.605-.72-.605-.137 1.37.107 3.84.14 3.858l-3.162-.552s1.737-2.76 1.862-3.44c0 0-.196.153-1.066.152-3.178-.002-2.52-3.782 1.152-5.88.552-.316 2.424-1.517 2.424-1.517zm18.222.05c.688-.032.362.634-.398 2.187-.842 1.72-.63 1.57-2.41.663-2.487-1.216-2.34-1.405.812-2.257.995-.367 1.636-.578 1.996-.594zm-45.11.503c2.49.015 4.328 2.473 3.96 5.967-.634 5.997-.27 5.627.383 6.226 1.19 1.09-.422 1.744-1.84.705-.986-.723-1.308-1.437-1.262-4.746.053-3.804-.152-4.772-1.512-4.44-.85.208-1.116.93-1.022 3.495.132 3.6-.106 4.506-1.474 5.658-1.475 1.14-3.064.123-1.72-.63.617-.69.732-1.572.496-3.748-.26-1.854-1.34-8.52 3.99-8.487zm61.59 3.024c.31-.007.627-.003.944.01 4.793.18 16.915 1.166 16.915 1.166l.105 3.58c-.54.334-9.588-1.046-16.243-.92-1.556.028-2.657.715-3.782.138 1.08.45.98 5.85-3.777 4.542-4.036-1.45-2.07-6.907 3.09-8.285.888-.12 1.807-.212 2.747-.23zm-26.675 2.4l10.36 5.107c1.45 19.446 8.162 39.99 31.026 55.565-3.704 2.65-12.996 9.158-23.616 13.616l-.87-.93c12.61-21.444 3.084-45.048-18.997-55.73.06-5.95.807-11.822 2.098-17.63zm36.437 3.26c1.986-.078 2.503.15 2.674 1.05.162.852.793 1.052 1.542.778 1.823-.664 2.936 2.57 1.425 4.004-.938.89-.773 1.232-.004 1.237 1.903.012 1.848 2.504-.087 3.917-.803.586-.792.853.048 1.267 1.407.695 1.124 2.068-.662 3.198-.972.614-1.004.766-.2.983 2.02.552-.043 3.43-2.253 2.92-.907-.21-1.77-.014-2.636.552-2.367.986-2.764 1.182-5.318.864-2.244-.412-3.247-1.15-3.826-3.12-1.315-4.006-2.735-8.442-2.75-12.816-.198-2.685 4.302-5.112 6.434-5.217 1.735-.262 3.727.366 5.613.384zm-141.682.066c2.38 0 4.31 1.93 4.31 4.31 0 2.382-1.93 4.312-4.31 4.312s-4.31-1.93-4.31-4.31 1.93-4.312 4.31-4.312zm47.904 1.268l-.39 3.77s.634-.495.782-.62c1.12-.937 2.894.11 2.49 1.57-.13 1.285-2.35 5.107-3.234 5.908 0 0-3.56-3.878-3.94-4.637-.847-1.685.31-3.44 1.848-2.696.22.106.854.576.854.576l-1.128-3.576 2.717-.293zm-47.617.303c-1.523.052-2.97.986-2.774 2.23.13.533.94-.234 1.74-.738.614-.385 1.353-.446 2.05-.144.62.222.886.792 1.244 1.234.305.373.638.678.826.494.16-.197.095-.444.053-.667-.33-1.695-1.733-2.45-3.14-2.407zm116.08.585l1.54.788c2.074 27.48 15.97 43.638 30.57 53.26l-1.16.702c-17.92-11.48-30.36-32.047-30.95-54.75zm2.332 1.128s3.87 1.98 5.895 2.895l.077 2.487-1.354.05-.46-2.34-2.813.202.88 5.75 4.535-.557.633 3.475-1.535.322-.787-2.137-2.603.634 1.686 5.587 4.088-1.32 1.282 3.653-1.373.5-.878-2.142-2.694.94L166.93 168l4.257-1.367 1.72 3.413-1.292.57-1.234-2.115-2.553 1.305 2.996 5.094 3.845-2.017 1.795 2.722-1.41.945-1.282-1.665-2.068 1.363 3.312 4.52 3.312-2.48 2.477 2.855-1.094.97-1.69-1.714-2.002 1.786 3.945 4.33 3.428-2.977 2.435 2.266-.72.76-1.638-1.022-2.17 2.304 4.143 3.604 3.288-3.604 2.79 2.055v1.517l-2.492-1.263-1.67 2.517 4.16 3.148-.027 1.238c-23.763-14.172-30.014-36.155-31.225-52.507zm-48.64.275c1.028-.03 2.112.936 3.903 3.01 5.006 5.8 3.67 14.77-2.875 19.45-.954.682-1.337.62-2.5-.38-6.715-5.768-7.102-13.48-1.124-20.256 1.033-1.17 1.797-1.8 2.596-1.823zm23.996.797c1.235 1.892 2.794 3.84 2.973 6.14-.09 2.27-1.62 2.69-3.207 1.367-.2 1.193.48 3.52.48 3.52l-2.87-.31s1.125-1.966 1.17-3.195c-1.992 1.387-3.515-.423-3.244-1.883.57-2.482 2.61-4.157 4.7-5.64zm-23.908 1.483c-.235.02-.48.18-.854.48-1.748 1.402-3.122 3.146-3.835 4.958-1.505 3.823-.522 8.134 2.87 11.478 1.725 1.698 2.33 1.582 4.974-1.93 2.213-2.94 2.673-6.74 1.31-10.042-.665-1.61-1.87-3.18-3.316-4.32-.556-.438-.845-.648-1.148-.624zm55.22.706l2.228 1.095c2.84 18.742 12.052 30.176 22.373 38.06l-.02 1.738-2.77-2.146-3.316 3.47-2.688-2.203 1.007-.98 1.53.974 1.96-2.193-3.854-3.436-3.36 2.913-2.8-2.88.85-.71 1.936 1.69 2.164-1.92-3.744-4.2-3.35 2.538-2.338-3.1 1.018-.605 1.224 1.68 2.583-1.608-2.73-4.2-3.895 1.997-1.99-3.59 1.132-.544 1.29 2.017 2.425-1.167-2.44-4.953-3.978 1.314-1.464-3.897 1.138-.417 1.003 2.304 2.692-.864-1.83-5.333-4.112 1.162-1.018-3.922 1.27-.273.668 2.117 2.828-.566-1.037-5.08-4.21.534c-.14-.863-.76-3.188-.748-4.065l1.297-.105.406 2.236 2.832-.096-.166-2.786zm-55.07.408c1.543.21 3.428 3.183 3.854 4.262.812 2.135.88 4.607.14 6.523-.608 1.566-2.424 4.347-3.577 5.13-.932.505-1.71.13-3.04-1.675-2.625-3.568-3.133-7.86-1.06-10.8 1.583-2.245 2.757-3.443 3.682-3.44zm58.056.926l1.118.528c1.373 10.86 7.81 25.765 20.477 34.68v1.364c-9.852-7.07-18.896-19.265-21.595-36.572zm-58.254.74c-4.41 3.324-3.705 8.53-.364 12.037 3.6-2.382 4.873-8.816.364-12.037zm-67.32.22c2.488-.058 4.066.81 4.824 2.535 1.177 2.68 1.337 3.188 1.58 4.594.137.802.35 2.015.47 2.69 1.292 7.282.34 10.025-4.08 11.16-1.32.34-3.16.45-4.445.14-.337-.08-1.572-.088-2.544-.12-1.93-.06-2.518-.266-3.485-1.05-.35-.284-.685-.51-1.104-.577-2.204-.35-2.863-2.37-1.19-3.863.955-.852 1.05-.964.96-1.11-.05-.08-.455-.15-.906-.152-2.224-.014-2.2-2.302.04-3.937 1.063-.775 1.543-1.508.84-1.328-2.028.48-2.744-2.485-.625-3.404 1.128-.632 1.937-1.16.85-1.22-.915.08-1.66-.594-1.38-1.39.34-.964 2.195-1.84 3.266-1.513.836.256 1.65.49 2.174.115 1.27-.912 1.836-1.323 2.93-1.47.63-.084 1.292-.102 1.824-.1zm73.954.557l10.225.196-.303 10.027-9.63-.183s2.11-4.478-.292-10.04zm-22.91.23l9.792.12c-1.613 3.78-1.012 7.662-.418 9.85l-9.586-.148.212-9.822zm16.353.015c2.632 1.533 3.355 7.115-.3 9.985-3.477-3.575-2.78-7.927.3-9.985zm-24.158 4.358l2.626.245-.936 3.76s.423-.447.562-.49c3.372-1.585 3.614 2.005.182 5.246-.76.715-1.978 1.695-1.978 1.695s-.955-1.445-1.713-2.75c-.862-1.313-1.448-2.72-1.3-3.467.213-1.083 1.516-1.8 2.346-1.137.41.326.885.82.885.82l-.673-3.92zm46.878 2.756s1.1 1.13 1.77 1.862c2.32 2.536 2.718 4.91 1.542 5.63-1.01.462-1.636.146-2.448-.514.17 1.572 1.418 3.894 1.388 3.898l-3.46.557s.853-3.15.78-4.34c0 0-.71.546-1.026.68-2.26.826-3.38-1.74-1.52-4.3 1.556-2.146 2.974-3.474 2.974-3.474zm47.276 4.752c2.322 0 4.205 1.882 4.205 4.204s-1.882 4.205-4.204 4.205-4.205-1.883-4.205-4.205 1.883-4.204 4.206-4.204zm2.073 1.925c-.182.04-.33.458-.352 1.377-.21 1.887-1.778 2.646-3.494 1.77-.693-.353-1.284-.876-1.286-.474-.002.215.555 1.34.95 1.723 1.454 1.307 4.996.997 4.915-2.05-.038-1.435-.43-2.416-.734-2.347zm-76.346 1.58c.457-.032 1.036.157 1.407.54 1.15.786 1.368 1.79 1.44 5.574.064 3.34-.004 3.42.547 3.825 1.35.992 2.162-.52 1.776-3.902-.37-3.257.802-5.623 2.77-5.61.97.005 1.148.574.413 1.3-.776.767-.964 1.702-.72 3.586.623 4.826.084 7.195-1.944 8.175-2.116 1.022-4.837-.15-5.313-2.822-.307-1.78-.305-3.894-.093-5.885.038-2.093-.01-2.332-.74-3.532-.515-.806-.13-1.208.457-1.248zm-53.203 1.563c1.17-.002 2.385.676 3.11 2.175 1.753 3.618-2.042 6.593-5.524 6.826-6.043.09-13.225-.78-19.29-1.59l.096-3.416c5.566.32 11.843.773 18.604 1.09-.77-3.18 1.056-5.08 3.005-5.084zm31.787.7l3.364.745-2.14 3.5c.635-.275 1.074-.467 1.71-.235 1.37.494 1.388 2.23.383 3.854-.795 1.178-3.03 2.586-4.556 3.45-.856-1.84-2.75-5.06-1.996-6.82.4-.935 1.508-1.39 2.54-.88.34.205.993.538.993.538l-.296-4.15zm7.953.097l10.253.12c-1.49 10.366-4.406 24.208-10.152 35.49l-2.413.625c5.067-11.21 8.438-21.726 10.013-33.48h-5.126c-2.95 12.616-7.312 24.308-14.02 34.465l-2.98-.97c7.166-11.365 12.846-24.05 14.426-36.25zm23.386.183h11.43c2.102 21.106 9.233 35.513 19.848 49.762 0 0-.67.15-1.065-.02-1.102-1.373-2.11-2.213-3.76-2.635-8.92-12.844-14.906-30.8-16.35-44.535h-6.796c.773 17.252 5.553 31.397 11.913 45.097l-3.45.634c-5.11-12.26-10.71-22.93-11.77-48.304zm17.784 2.606c.94.728 1.957 1.442 2.914 2.136 2.573 1.806 2.54 5.22.038 5.203-.266 0-.883-.037-.883-.037s1.02 2.237 1.664 3.37c-1.042.277-3.22.686-3.22.686s.31-2.198.25-4.02c0 0-.42.468-.765.63-1.66.693-3.064-.755-2.856-2.467.28-2.31 2.856-5.5 2.856-5.5zm-76.354.413l5.626 2.793c-3.834 8.727-8.224 16.896-14.573 23.107l.162-20.165c3.466-.1 7.02-.13 8.784-5.735zm38.467.317h3.46c-1.535 16.1-12.172 37.877-14.17 40.503l-.656.494c.04-.022-1.362-4.938-2.957-6.707 6-8.094 12.29-23.65 14.323-34.29zm24.336 0h5.227c1.63 12.828 5.594 26.686 15.644 43.518 0 0-1.007.1-1.785-.365-1.712-1.062-2.902.344-3.926.29-1.6-.087-1.864-.183-3.515.21-8.293-17.493-10.647-31.26-11.646-43.653zm-56.464 2.88l1.867.878c-4.015 9.286-7.61 16.665-17.12 25.723l-.035-2.697c6.682-6.47 11.184-15 15.288-23.905zm2.717 1.295c.885.333 1.888.88 2.722 1.33.28.11.204.36.207.624-.354.883-1.91 1.27-2.5 1.44-.713.203-1.415.345-1.542.375-.813.19-.556-.625.326-2.41.398-.803.555-1.34.787-1.358zm3.73 1.97c.56-.036 2.816 1.21 3.298 1.66.173.528-.313 1.362-1.026 2.903-1.095 2.37-1.313 2.423-1.64.475-.06-.335-.385-1.443-.582-2.18-.458-1.706-.5-2.687-.048-2.86zm4.085 1.914s1.312.638 1.738.918c-5.856 17.54-21.453 32.038-21.37 31.704l-2.434-1.43c10.38-9.378 17.987-20.454 22.066-31.19zm-6.192.25c.566.012.073.71-.69 2.396-.727 1.65-.964 2.238-1.643 2.5-.973.353-2.37.364-3.61.582-.53.092-.308-.313.51-1.974.958-1.946 1.012-2.35 2.515-2.755.87-.137 2.037-.757 2.918-.75zm2.055 3.486c.605 2.172.592 2.6.188 3.354-.758 1.415-1.748 3.066-2.02 3.514-.684 1.118-.878.886-1.282-1.833-.252-1.686-.472-2.444-.286-3.178.34-.83 1.356-2.79 1.93-3.936.823-2.444 1.263 1.863 1.47 2.08zm10.78-1.897l3.073 1.007-2.41 2.91s1.012-.183 1.13-.136c2.416.162 2.015 2.564.143 4.02-.775.71-4.6 2.447-4.6 2.447-.408-2.15-1.252-3.523-1.05-5.73.142-1.19.247-2.262 1.704-2.295.766-.04 1.076.742 1.574 1.373l.437-3.596zm55.692 2.606s1.85.955 3.566 2.275c2.237 1.723 2.62 3.747.384 4.527-.26.09-.993.053-.993.053.614 1.072 2.077 2.67 2.077 2.67-.733.512-1.768.913-2.914 1.27 0 0-.284-2.67-.557-3.7 0 0-.296.583-.662.812-2.155 1.34-3.846-1.187-2.688-4.383.703-1.94 1.786-3.524 1.786-3.524zm-23.69.446c5.382-.13 2.23 8.68-.46 8.112-.046-.08 2.22-5.212-.83-6.028-1.4-.375-.193-2.102 1.29-2.084zm-8.82.624c1.67-.01 2.887 1.17 1.29 1.91-2.514 1.168-1.017 3.965-.96 5.55.035.97-2.238-.846-2.722-2.813-.624-2.545-.335-4.43 2.39-4.647zm-39.798.927c.37-.002.65.028.743.1.157.417-.594 1.716-1.69 3.38-.582.887-.832 1.135-1.19 1.345-.846.477-2.036.353-3.027.422-1.48.02-1.22-.01.417-2.558.73-1.14 1.193-2.07 1.628-2.367.086-.057 2.007-.32 3.12-.322zm1.94 1.838c0 3.188 1.082 4.23.287 5.237-.97 1.565-2.212 3.28-2.663 3.82-.76.913-.675.74-.873-1.645-.145-1.73-.302-2.888-.077-3.428.65-1.562 1.423-2.31 2.228-3.97.63-1.337 1.098-1.113 1.098-.013zm42.47 1.6c1.562.02 2.527 1.682 2.457 3.206l-.066 1.46c2.02-.775 4.526-.022 4.637 1.957.19 3.358-2.284 2.97-4.376 2.827.21.08.52 3.036-.726 4.167-1.953 2.186-5.595-.048-4.68-3.255.19-.666.23-1.085.23-1.085s-1.307.472-1.767.45c-3.96-.168-3.657-5.77.322-5.11.813.135 1.363.33 1.363.33s-.086-.353-.22-.853c-.577-2.156.64-4.124 2.828-4.095zm79.253.998l2.136 1.23v2.38l-3.038-2.246.902-1.364zm-128.04 1.593c.84-.007 1.502.06 1.372.26-.004.426-1.845 2.987-2.935 4.157-.928.998-1.06.855-3.33.744-.892-.043-1.475-.05-1.45-.287 1.047-1.37 2.488-3.138 3.484-4.612.39-.118 1.774-.248 2.856-.26zm2.077 1.12c.157-.003.205.338.202 1.08-.003.56.077 2.29.158 3.043.147 1.366.148 1.364-.437 2.18-.714.766-1.442 1.895-2.362 2.773-1.382 1.53-1.24 1.62-1.22-1.655.017-2.558-.176-2.557.342-3.158.284-.33 1.163-1.404 1.742-2.246.88-1.278 1.345-2.013 1.574-2.016zm13.172.45l2.84 1.518-2.845 2.885s.713-.003.95.043c1.83.355 1.692 2.293-.147 3.74-1.13.713-5.012 2.126-5.012 2.126-.132-1.63-.477-3.13-.412-4.877.028-.807.102-1.684.72-2.38.43-.475 1.144-.75 2.147-.102.526.468.802.998.802.998l.96-3.95zm33.532.985c-1.113 0-2.016.903-2.016 2.017s.902 2.016 2.016 2.016c1.114 0 2.017-.902 2.017-2.016s-.902-2.017-2.017-2.017zm31.767.475s3.72 1.397 5.396 2.933c1.566 1.306.83 3.455-.724 3.5-.113 0-.772-.097-.772-.097.526.8 2.29 2.765 2.29 2.765l-2.876 1.168s-.46-2.214-.816-3.456c-1.002 2.313-3.475.81-3.638-.634-.4-2.113.498-4.178 1.14-6.178zm-31.766.178c.772 0 1.4.627 1.4 1.4s-.628 1.402-1.4 1.402c-.775 0-1.403-.627-1.403-1.4s.628-1.402 1.402-1.402zm-54.894 2.865c1.002-.01 2.253.037 2.812.072.427.327-.465 1.345-2.188 3.153-1.382 1.45-1.586 1.25-3.26 1.263-2.808.023-2.878.042-1.59-1.425 1.414-1.606 2.238-2.642 2.89-2.976.22-.058.734-.08 1.336-.087zm3.422 1.41c.298-.058.217.7.168 2.416l-.08 2.907-2.186 2.103c-2.527 2.263-2.226 2.404-2.208.288.015-1.682-.003-2.863.36-3.61 1.104-1.33 2.254-2.507 3.51-3.776.197-.197.337-.307.436-.328zm55.522.727c.608-.05 2.16 2.604 2.55 4.828.887 5.08 3.93 7.488 6.07 5.448.872-1.2.97.11.927.734-.45 6.436-7.742 3.757-8.572-2.635-2.56 1.66-4.948-1.694-3.423-1.642 3.608-1.146 2.622-4.46 2.448-6.733zm-8.448.048c.357 2.226-3.656 6.04-5.913 3.364-1.15-1.36-.104-4.166 1.357-2.438 1.614 1.195 3.18-.192 4.555-.926zM50.58 203.99c.824-.018 2.018.14 2.538.067.736.074.21.43-1.383 1.88-1.37 1.252-1.763 1.81-1.92 1.264-.076-.845-.043-1.85-.038-3.042.127-.117.427-.16.802-.168zm18.71 1.48l2.447 1.784-2.43 2.237c2.18-.107 2.373 1.935 1.547 3.072-.535.798-2.6 1.64-4.666 1.974-1.243.2-2.256.35-2.256.35s-.047-.957-.08-2.55c-.072-3.253.15-4.534 1.4-5.168.896-.454 2.41.26 2.784 1.09.123.274.446.753.446.753l.807-3.54zm-15.754.177c.01-.003.016 0 .02.004.138.188-.36 5.483-.36 5.483l-3.548-1.997s3.59-3.427 3.888-3.49zm93.88.624c2.525 1.19 4.42.96 6.12 2.435 1.478.774 1.04 2.907-.04 3.384-.488.147-1.296.066-1.296.066.894 1.103 2.852 2.496 2.852 2.496l-3.11 1.3s-.426-2.097-.82-3.24c-.566 1.7-2.484 1.66-3.576.86-.774-.593-1.094-2.58-.726-4.3.097-.456.595-3 .595-3zM130.8 255.563c-30.67 7.27-55.585 2.773-58.057 1.915l-1.953 2.914c-.238.496-.385 1.976-1.71 2.377l-1.986 2.967.39.412-1.763 1.536.428.514-1.28 1.862-.505-.053-2.966 4.507.45.505-6.812 10.66 92.146.03c-5.356-10.104-11.085-20.01-16.382-30.145zm-.557 1.31l.547 1.52c-1.523-.187-3.303-.278-5.11-.36 1.59-.327 3.18-.728 4.563-1.16zm-5.35 1.326c-2.933 1.345-4.69 2.96-6.035 4.665-1.677-1.302-3.81-2.225-6.355-2.803l12.39-1.862zm-51.784.74l1.307.147s-.438.34-.75.27c-.238-.055-.556-.418-.556-.418zm58.7.757l.83 1.642c-1.995-1.058-10.532-3.48-12.954 5.007-2.55-3.446-13.06-8.44-18.39 2.18-1.516-2.878-10.34-11.156-18.39-.605-3.17-6.56-5.82-7.107-11.644-6.212 4.138-3.977 9.96.162 12.427 3.547 6.943-5.76 12.75-4.028 17.82.657 6.547-7.126 13.074-5.41 17.666-1.833 3.227-4.75 6.377-6.18 12.634-4.385zm-53.612.043c4.127.558 8.253.81 12.38 1.014-2.39.876-4.838 1.63-6.783 3.394-1.472-2.06-3.52-3.254-5.597-4.408zm29.77.658c-2.252 1.06-4.68 2.654-6.624 4.33-2.1-1.71-4.26-3.19-6.614-3.932 4.318.212 9.103.022 13.238-.398zm26.42 3.37s-.832.14-1.1.21c-3.644.97-2.85 6.102.897 6.102.356 0 1.244-.14 1.244-.14-.072 3.476.983 4.324 4.534 4.128l6.02 10.762-89.04-.384 5.654-9.043c2.843.334 4.632-1.248 3.998-3.662 0 0 1.75.535 2.24.538 3.22.02 4.053-4.92.966-5.774-.343-.096-1.205-.19-1.31-.22 1.41-3.526 5.288-1.445 6.398.018 2.5-2.055 5.262-1.135 6.446 1.526 0 0-.467-.26-.61-.364-2.927-2.142-5.65 2.294-2.783 4.34.28.2.878.374.878.374s-.348.284-.666.82c-1.488 2.503.908 5.55 3.802 4.767 2.22-.87 2.253-2.54 2.25-4.378 0 0 .77.06 1.455.067 2.667.032 3.43-3.382 1.8-4.97-.882-.857-2.034-.79-2.604-.9 3.072-3.018 5.156-.936 7.324.456.328-.008 3.764-4.134 7.85-.082-1.983-.52-4.014.767-4.04 2.83.038 1.328.988 2.502 3.04 2.596-.22.666-.367 1.165-.38 1.812-.04 2.167 1.645 3.516 3.783 3.183 1.787-.23 3.108-2.27 2.473-3.97-.287-.767-.682-1.046-.682-1.046 4.812.603 4.73-5.493.986-5.863-.887-.087-1.57.298-2.465 1.117 2.2-4.5 6.226-3.598 7.732-1.757 2.067-1.503 4.918-3.554 8.328.1-.562-.118-1.354-.145-2.04.037-2.7.716-2.71 4.148-.57 5.193.602.293 1.34.464 2.136.435-.712 2.884 2.49 4.944 4.758 3.563 1.625-.99 2.05-3.327.292-5.46 2.96-.132 3.25-3.82 1.54-5.112-1.34-1.014-2.916-.53-4.06.807-.368-1.06 2.557-4.738 6.687-2.088 2.19-1.835 4.36-2.4 6.84-.567zm1.29 2.88l1.158 2.102c-.77.075-1.873-.75-1.157-2.103zm-14.927 2.135c.725 0 1.312.587 1.312 1.31 0 .726-.587 1.312-1.31 1.312s-1.312-.586-1.312-1.31c0-.725.588-1.31 1.31-1.31zm-54.043.078c.175.704.25 1.405-1.027 1.54l1.027-1.54zm15.053 1.267c.663 0 1.2.537 1.2 1.2 0 .662-.537 1.2-1.2 1.2-.662 0-1.2-.538-1.2-1.2 0-.663.538-1.2 1.2-1.2zm19.974.374c.702 0 1.27.568 1.27 1.27 0 .703-.568 1.272-1.27 1.272-.703 0-1.272-.57-1.272-1.27 0-.703.57-1.273 1.272-1.273z"/></g></svg>