<svg version="1.2" baseProfile="tiny" xmlns="http://www.w3.org/2000/svg" xmlns:xlink="http://www.w3.org/1999/xlink" width="225" height="314" viewBox="0 0 225 314" preserveAspectRatio="xMinYMin meet"><defs><style type="text/css">use { fill: black; } .maxi-card { display: none; } .mini-card { display: block; } @media (min-width: 75px) { .maxi-card { display: block; } .mini-card { display: none; } }</style><path id="suit" d="M26.406 40.187c.015-1.98-1.56-2.017-1.542-.573-.133 7.257-6.31 10.83-10.8 9.982-6.92-1.307-9.128-8.13-9.06-12.148C5.203 25.046 17.773 15.9 29.115 0c8.31 14.35 22.028 25.623 22.84 36.717 1.08 14.75-17.712 20.25-20.395 3.06-.172-1.214-1.612-1.76-1.5-.063.408 4.71-.17 6.674 5.18 18.287H21.25c3.1-5.426 4.943-12.09 5.154-17.813z"/><path id="numeral" d="M9.842 0C5.15.09 2.822 4.02 2.797 7.953L2.8 18.27H0v3.426h2.8s.05 1.564.042 2.503c-.04 4.636 1.6 7.446 4.797 8.225 3.065.56 4.665-.102 7-1.31.848.352 1.44 1.08 2.348 1.17 1.004.103 3.096.055 3.096.055l-.058-3.515-1.045-.152c-2-.034-2.865-.733-2.648-1.982.424-.812.485-1.404.524-2.388V6.85C16.796 2.57 13.3.037 9.842 0zm-.145 3.403c2.24-.035 4.104 2.573 4.053 5.246l.035 13.48c.073.848-.062 1.677-.437 2.26-.295-.86-4.93-5.598-7.248-5.38 0 0-.094.24-.16-5.685-.028-2.91-.793-7.253 1.822-9.214.653-.48 1.308-.698 1.935-.707zm2.34 24.628c.206.417-.555.827-1.366 1.054-2.294.64-4.544-.79-4.616-4.08-.02-1.003-.088-2.075.265-2.233 1.052-.474 5.097 4.01 5.718 5.26z"/></defs><rect width="100%" height="100%" fill="#fefefe"/><g class="mini-card"><use xlink:href="#numeral" transform="matrix(3.5 0 0 3.5 78.4 33.95)"/><use xlink:href="#suit" transform="matrix(2 0 0 2 55.5 170)"/></g><g class="maxi-card"><use xlink:href="#numeral" transform="translate(7 12)"/><use xlink:href="#suit" transform="matrix(.4 0 0 .4 6 51)"/><use xlink:href="#numeral" transform="matrix(-1 0 0 -1 218 302)"/><use xlink:href="#suit" transform="matrix(-.4 0 0 -.4 218 263)"/><use xlink:href="#suit" transform="matrix(.8 0 0 .8 38 40)"/><use xlink:href="#suit" transform="matrix(-.8 0 0 -.8 186 274)"/><path fill="#E2CF00" d="M102.767 285.237l23.212-42.372c-.004.01 5.618 2.153 12.19 3.86-6.308 16.437-.045 38.12-.045 38.12s-35.376.356-35.358.392zm-63.79-72.414c-1.32-18.008-1.364-35.405 1.602-49.818.055-.23-8.293-5.052-7.43-5.605 1.322-.847 17.767-9.42 17.767-9.42s1.11.633 2.07.535c.747-.076 1.448-.756 1.158-1.482-.688-1.718-1.914-5.992-1.178-10.295.423-2.472 1.763-5.193 3.153-6.858 3.1-3.714 10.173-1.75 12.23-1.813 1.306-.04 5.252-13.842-1.033-16.403-1.732-.705-5.707 8.717-2.945 10.832.416.317-5.555-3.144-10.128-5.21-.424-.19-2.29-1.628-2.712-3.525-.524-2.366 7.01-6.922 5.53-9.59-2.155-3.89-7.72-9.702-10.103-8.106-2.253 2.034-7.624 6.19-7.588 9.033 1.678 5.098 5.942 5.453 8.184 10.276.56 1.042 4.68 5.423 4.68 5.423-1.547 2.365.957 6.5 1.073 5.867l-19.526-8.506s4.476 33.67-.25 38.654c-.5.528 4.18-1.32 4.26-1.03 1.424 1.8 17.192 11.823 21.707 15.427 8.017-11.178 10.944-16.096 21.275-26.012 2.268-1.874 7.323-5.297 10.214-9.408 2.32-3.305 3.284-7.025 2.867-9.914-.54-3.734-.872-6.29-3.178-9.268-5.327-6.877-13.8-13.436-13.65-13.556l2.895-2.355s10.45 8.64 14.875 14.993c2.98 4.28 1.645 9.19 4.215 10.067.618.212 4.84-.14 6.228.125.167.032 30.74 21.605 25.197 22.85-7.674 1.723-19.91.6-19.91.6-8.736-8.526-12.953-11.33-18.16-8.658 0 0-13.194 11.538-20.81 20.573-4.34 5.148-7.963 11.592-10.866 15.736-1.118 1.598-15.13-11.86-14.987-10.247 2.082 14.65 3.27 32.3 1.657 44.265-1.105 10.164-2.62 21.08-3.295 30.454 0 0 2.35-.683 4.144-.046.97.344 1.673 1.242 1.758 2.24.522 4.463-5.225 3.427-5.358 3.04.006-.003 3.208 6.885 3.208 6.885s-4.98 8.586-4.84 8.213c.085-.23-4.525-7.62-4.525-7.62s3.497-6.178 3.938-7.463c.264-.77-5.047 2.555-5.457-2.264-.413-4.858 5.798-3.557 5.52-2.958-.753-9.963-2.425-20.262-3.482-28.655zm74.853 22.41c.138-.103-13.212-5.355-25.475-4.86-4.32-1.68-11.367-3.44-16.07-.307-5.29-3.58-9.855-7.52-14.495-11.426 1.3-.017 6.166-31.31 9.35-42.212-1.42-13.542 11.63-13.532 12.765-2.686 14.06 14.532 31.274 29.562 49.02 44.352-2.824 5.853-13.013 10.314-15.095 17.14zm30.74-95.795c-16.028-16.336-49.575-45.54-49.575-45.54L110.7 78.58c8.242 2.456 16.713 4.508 26.29 4.605.036.038 10.493 4.756 16.065-.012l14.495 11.48s-6.012 31.61-9.542 42.643c.075 4.37-1.58 9.692-5.897 10.482-3.687.675-6.522-4.55-7.54-8.337zm32.4-37.842c1.67-10.275 2.016-17.755 3.176-29.743-7.23 2.117-7.132-7.624-.03-5.062l-3.292-7.25 4.875-8.17 4.475 7.758-3.854 6.876c8.01.395 6.078 7.825-.82 6.03 1.302 11.485 4.165 23.087 4.026 34.44 2.48 18.21-3.05 43.546-2.135 44.146l7.812 5.37-1.334 39.616-12.335-5.403-3.67 2.475c1.178 2.332 2.677 4.567 3.183 7.1 0 0 8.495 6.983 7.315 9.16.55.32-6.044 9.04-7.978 8.824-3.693-.415-8.014-5.178-9.195-8.57-1.042-3.414 7.627-6.76 6.533-9.255-1.31-2.986-4.61-4.422-7.537-5.3-4.035-1.21-5.882-4.403-6.067-4.403 0 0-1.567 12.662-3.077 11.65-6.075-4.073-1.922-16.994-.795-16.634 0 0 2.653.61 5.787.903 11.04 1.156 10.293-12.41 8.153-18.98-.537-1.558.303-1.57.243-1.59-.513-.176 1.786-.048 3.736-.622 5.36-1.578 13.575-7.03 13.575-7.03-8.63-4.783-16.248-10.24-23.082-15.417 0 0-6.345 10.82-13.863 18.325-5.475 5.463-6.365 7.323-15.526 14.358-.18.137-6.943 8.22-3.723 17.658 2.757 8.077 16.006 16.82 15.908 17.405l-2.608 2.49c.105.144-18.755-11.694-18.315-24.427-.02-.48-8.57-.646-8.57-.646l-24.853-23.02 21.05-.09 10.81 8.822 6.755.35c.44.388.687-1.783 6.635-6.218 11.364-8.472 25.445-30.228 25.445-30.228s14.89 10.466 14.905 10.468c-.746-15.715-3.282-32.618-1.74-46.166zm-54.214-74.282S107.284 56.36 98.8 70.042l-12.02-3.445c5.037-13.357.215-38.816-1.053-39.458l37.03.174z"/><path fill="#131F67" d="M30.45 25.623l.914 261.56 162.41-.103-.47-261.456H30.452zM143.33 215.17c7.705-7.157 15.326-13.064 22.45-17.358 2.765-1.665 3.603-1.908 4.69-.92 1.77 1.61 2.872 3.01 2.294 4.138-.13.255-.547.677-.547.677l-4.257-1.62 1.38 4.83c-3.83 1.558-3.762 5.7-.065 7.895l-2.544 5.85 5.912-2.6c.226 1.275 4.442 4.358 7.064 0l5.34 2.605-1.84-6.535c1.753-1.67 2.774-4.34.018-6.798l1.27-5.12-4.822 1.57c-1.208-1.652-1.91-1.54-2.187-1.99-.083-.613-.098-2.047-.9-3.368-.662-1.093-1.42-2.253-2.13-3.065-.376-.635-.075-.687 1.85-1.73.905-.487 1.653-.982 1.653-.982s9.49 4.76 13.36 6.57l.22 87.64-52.052-.152c-5.854-17.468-1.647-32.566-.097-38.922-2.73-.228-16.807-4.785-17.23-6.354 5.578-8.86 13.146-16.907 21.168-24.26zM42.045 240.666c-6.79-2.192-6.857 5.98-3.39 6.615.9.164 1.84.3 3.245-.155.35.072-4.066 6.853-4.066 6.853s3.536 6.42 5.23 9.148l5.344-9.482-3.494-6.562c5.473 2.788 8.306-5.516 2.56-6.602-1.39-.19-2.923.505-2.923.505l3.022-28.403c2.436 1.654 6.88 4.973 6.88 4.973 1.012 15.65.27 28.69 9.02 51.458l.09 15.842H33.52l-.117-82.707 5.258 3.76c.113.47-.837.156-.324 5.912.462 5.198 2.045 14.214 3.71 28.845zM149.918 28.052c.24.34.222.86.43 1.548 1.215 4.05 5.442 8.916 8.81 10.193 1.18.447 1.64 1.127.957 1.81-.86.86-4.412-1.493-7.033-4.546-2.38-2.77-3.97-5.064-4.32-6.805-.208-1.033-.312-1.697-.158-2.234.435-.603.976-.436 1.314.034zm4.2-.438c.446-.002 1.045.522 1.404 1.477.865 2.295 2.222 4.01 4.343 5.492.562.394.786.983.5 1.327-.106.127-.244.19-.4.233-1.653.462-6.01-4.576-6.355-7.703-.076-.68.163-.825.51-.826zm5.42.062c.88-.004 1.302 1.832.792 2.793-.332.302-1.062-.166-1.71-1.37-.555-1.036-.333-1.418.918-1.424zm-2.948.03c.197-.007.604-.11.812.175.34 1.897 1.77 3.27 2.91 4.37.19.358.28 1.11-.138 1.307-1 .443-4.01-2.98-4.03-4.957-.007-.596.176-.886.446-.895zm-3.82 1.2c1.057 3.463 3.612 6.287 5.9 7.752 1.635 1.04 2.267 1.633 1.508 2.164-.188.132-.38.233-.424.227-3.83-1.464-8.538-7.01-8.696-10.935.834-1.068 1.57.13 1.713.792zm-13.255 15.03c-2.015 0-4.48.46-6.484 1.37-2.787 1.264-3.485 2.104-3.08 2.41.293.213 2.088-.557 2.988-.674 4.854-1.2 8.193-1.496 11.357-.117 2.445 1.066 2.46.577.818-1.198-1.19-1.287-3.315-1.796-5.598-1.792zm17.11 2.66c1.606-.018 3.246.358 3.83 1.107.452 2.423-.758 1.314-1.732.832-1.41-.65-3.023-1.212-4.53-.98-.968.148-.994.1-.446-.21.827-.504 2-.737 2.878-.75zm-19.027.942c-4.59.356-6.18 2.678-9.145 5.072-1.218.926-.94 1.643.543 1.4 1.832-.3 2.57-.23 5.068.624 2.728.932 4.683 1.317 6.182.74 2.835-1.088 2.592-.906-1.462 3.018-2.17 1.74-1.293 1.65.903.142 1.624-1.296 2.74-2.122 3.08-2.833.163-.345.178-1.58.483-1.58 1.03 0 .5-1.287-.438-1.833-.615-.438-.48-.897.32-1.74 1.25-1.316.824-1.912-.534-1.092-.24.13-.357-.272-1.187-.772-1.308-.79-2.414-1.16-3.812-1.145zm3.31 1.724c1.108.934.634 1.19-1.788 1.17-2.046-.02-3.788.194-6.22 1-2.76.916-2.93.94-1.308-.442 2.23-1.9 6.763-3.808 9.315-1.728zm14.34-.807c1.114-.023 2.054.134 2.902.602 2.312 1.274 2.827 2.38.253 1.48-1.615-.565-3.797-.486-5.304-.068-1.56.43-1.826.582-1.616-.258.26-1.03 1.91-1.717 3.765-1.757zm-18.187 3.762c.55 2.746 2.634 1.85 2.84.19l.76.003c-.322 2.206-3.326 4.052-4.493-.193.245-.007 1.336.068.894 0zm16.623.046l.564-.018c.372 2.105 2.33 2.795 3.18.16l.685.014c-.524 4.393-5.174 2.253-4.43-.157zm-18.217.205c.376.133.548 1.163.484 1.435-.13.563-1.97-.036-2.36-.587.385-.41 1.292-1.054 1.876-.848zm25.024.468l-.005.77c-.85.204-1.202.68-1.996.524.045-.492-.04-1.167.423-1.74.578-.306 1.267.068 1.577.446zm-18.532.89c-.386.303-.915.336-.915.336-.083-.736-.207-1.565.71-1.572.605.177.563.923.205 1.235zm10.598-1.22c.323.02.7.824.745 1.292-.093.77-1.984.462-1.984-.302 0-.323.79-.99 1.24-.99zm-17.31 29.09c-1.462-.73-12.535-7.458-15.372-19.357l-.563 1.216c1.203 2.85 2.978 7.477 2.978 7.477-.074-.398.452 3.1 1.58 9.04-.6.007-1.26-.164-1.91-.337-1.46-5.438-1.807-9.7-3.033-15.022l-.533 1.486s1.542 9.548 2.587 13.28c-.6-.056-1.698-.302-1.698-.302-.87-4.027-1.543-6.73-2.362-10.767l-.754.977c1.082 3.315 1.504 6.278 2.05 9.454-.744-.11-1.49-.183-2.2-.576 0 0-1.116-5.792-1.265-5.877-.425.43-.6.98-.6.98-.045-.05.97 3.212.896 4.556-.712-.117-1.944-.473-2.814-.765-.455.302-.692.807-1.042 1.26.43 1.843 25.835 5.832 24.312 4.31-.01.158 11.202 4.905 17.46.87 0 0 10.882 8.07 15.133 11.294 0 .367 1.473 2.077 3.005 3.164l4.31 3.318c1.25.973 1.752.27 1.942-1.562.21-2.04 1.693-15.785 2.04-18.716 1.293-9.873 1.29-9.77-.208-9.313-2.293.694-4.357-.208-4.357-2.554 0-1.436.664-2.625 2.193-3.18.434-.148 1-.16 1.65-.15.295.055.845.09.902.103.73-.04-2.827-6.482-2.827-6.482s3.4-6.057 5.035-8.312l4.4 7.973-3.604 7.033c7.017-.526 6.33 8.294-.54 5.34 0 0-.04 2.62-.026 2.43.066-.75.056-1.392.293-1.532 6.655 2.522 8.012-7.182.84-6.734 1.18-2.058 2.495-4.185 3.722-6.452l-5.186-9.45-5.858 9.743 2.947 6.083c-.663-.173-1.195-.067-1.905.005-4.34.89-3.408 7.875 1.554 6.914.565-.11 1.418-.54 1.418-.54l-3.203 28.537s-.316.256-1.602-.67c-1.484-1.07-4.594-3.394-4.792-3.632 1.112-18.244-3.45-37.438-8.66-49.456-.332-.923-.136-19.022-.136-19.022l29.545.078.108 84.057c-1.545-.978-3.215-2.265-4.804-3.385-.476-.385-.77-.842-.567-1.577-.522 1.118-.207 1.598-.207 1.598l6.524 5.212-.26 82.725s-10.53-5.428-17.017-8.047c-2.925-1.193-3.056-.85-3.056-.85.01-.005 2.068 4.64 1.48 5.478 1.394 1.34 3.737 4.145 3.85 6.89 1.25 1.08 1.6 1.214 2.536 2.77l3.913-1.414-.89 4.077c4.162 2.913.155 6.832-.616 6.47 0 0 1.836 3.94 2.256 5.734-.657-.045-3.953-1.832-4.87-2.256-2.39 4.7-6.422.756-6.454.062l-4.474 1.992 1.584-5.092c-2.88-1.752-4.827-4.4-.17-7.253l-1.075-3.972 3.832 1.505s.715-1.148 1.258-1.985c-1.433-6.24-10.854-5.06-13.88-10.67 0 0-.743 7.005-1.505 9.54-.298 6.7-4.99-.078-4.99-7.166 0-1.602 2.01-6.986 2.69-7.247.71-.1 7.435 3.152 11.95-.077 2.057-2.14 5.603-8.154 2.195-17.572-1.127-2.177 2.144-2.452 3.205-1.718 0 0 9.83-5.14 14.266-7.616-7.442-4.09-22.92-14.97-22.908-15.487-2.064 3.278-4.43 6.026-7.754 10.66-5.39 6.347-9.602 12.377-16.44 17.447-9.618 7.002-11.877 14.05-9.194 22.326 1.086 3.576 3.27 7.203 6.85 8.458 1.822 1.842 9.138 8.768 9.138 8.768-12.213 11.12-20.598 20.266-26.48 30.37 4.965 2.61 16.936 6.392 16.936 6.392-4.446 14.777-2.422 26.515.508 38.297 0 0-34.75.046-52.78-.52-.154.15-2.106.047-2.132-.077-.07-1.317 3.248-4.938 4.24-4.434.5-.492 1.557-.743 1.366-1.347-2.487-.297-6.263 4-6.41 5.78h-1.485c-.304-.266 2.693-7.262 8.7-7.82-.064.252.805-.543.152-.884-7 .828-10.262 8.597-10.055 8.702H78.97c2.38-7.64 8.58-10.05 12.166-10.382.034-.015 1.163-.408.86-1.077-7.928 1.377-11.88 4.808-13.785 11.46h-1.428c1.03-6.747 7.97-12.657 15.815-12.465.245-.155.546-.34.418-1.105-8.705.98-13.047 3.886-16.623 11.362-3.2-8.304-12.09-12.243-12.195-12.278 0 0-.215-2.324.28-2.228 7.586 2.744 10.48-3.84 10.165-7.668-.177-2.13-.058-3.302-.77-6.37-.636-2.737-1.105-4.58-1.055-5.77.05-1.176.418-1.414 1.287-1.808 1.626-.737 2.644-3.405 2.282-3.732-.836 1.94-3.044 2.276-4.062 3.58-.812 1.075-.454 2.785.992 8.725.882 3.62-.163 1.955-2.22.82l-1.374-.775c.92.947 1.896 1.84 2.834 2.768.84.768.37 1.243-.835.798-1.734-.865-5.08-.503-6.36.587-.5.356-.677.32-.803-.01-.56-9.223.41-14.896 3.465-21.828 1.975-4.713 4.915-8.24 8.838-8.492 3.953-.327 9.636 1.058 14.797 4.562 6.062 4.117 11.97 10.377 12.597 18.058.024.09.466-.656.667-1.05.278-.913-.733-3.656-2.312-6.835-.292-2.39-1.114-6.583-1.76-9.42.49-.224 1.537-.098 1.832.26 1.11 4.69 1.9 8.34 2.852 14.623.013.612.8-.91.803-1.312-.137-.937-2.755-13.228-2.702-12.948.015-.418 2.483.13 2.145.52 0 0 1.877 10.31 2.01 9.99l.635-.874s-1.792-7.53-1.567-8.982c.153-.222 1.54.228 1.98.467.553.74.906 3.428 1.14 5.26.64.488.765-.92.717-1.293-.46-.73-.946-3.452-.582-3.592.288-.11 1.88.52 2.185.793.358.32 1.746-1.6 1.394-1.93-7.506-2.876-16.976-4.554-24.1-4.667-1.657.007-2.313-.227-4.854-1.144-6.467-2.336-11.813-.01-12.598.728-7.896-5.486-16.71-13.15-23.728-18.038-.33-.22-1.117-.35-1.204-.35-1.113 8.513-1.89 18.36-2.84 26.217-.386 3.11-.432 3.353-.29 3.44.124.077.368-.047.464-.097 2.31-.85 4.396-.297 5.5 1.788.558 2.983-2.052 4.946-4.803 3.53-1.02-.526-1.168-.423-.7.572.803 1.79 3.124 6.506 3.124 6.506.005 0-3.135 6.4-4.72 8.14-1.548-2.497-3.522-5.022-4.377-7.75 1.215-2.38 3.51-5.44 4.236-7.785-.105-.074-.73-.01-1.165.217-4.014 1.898-4.658-1.676-4.604-2.96.11-2.613 2.385-3.17 5.69-1.952-3.572-23.73-4.335-37.254-3.422-35.79 0 0-4.315-3.085-6.46-5.178l-.192-172.84 51.625.077c5.264 14.11 3.814 31.076.67 39.91 5.587 1.02 11.23 2.34 17.606 6-10.77 15.793-27.683 32.86-46 43.79-1.037.467-4.447-1.66-4.848-3.762-.094-.488.178-1.45.727-1.433 1.346.436 2.65 1.036 3.964 1.57 0 0-1.832-4.592-.948-5.29.574-.376 1.045-.69 1.413-1.08 1.314-1.698 1.21-3.625-.183-5.105-.56-.587-1.215-.992-1.54-1.142 0 0 1.29-3.583 1.937-5.272l-5.083 1.683c-1.646-2.28-4.672-4.057-6.908-.66-.428.906-.34.767-3.485-.625-1.783-.79-2.883-1.193-2.883-1.193.67 1.99 1.544 3.86 2.31 6.166-3.503 2.233-2.705 5.998.242 7.12l-1.553 5.086s3.312-1.233 5.106-1.713c0 0 1.573 1.582 2.04 3.084.8 2.576 2.618 4.445 3.768 5.51-1.915 1.402-2.86 1.875-5.017 2.912l7.443 3.006c-.462-1.573-1.448-2.74-1.548-4.732-.088-1.705-.186-1.736-1.287-2.89-1.804-1.556-2.075-3.637-3.088-5.336-.706-.427-1.27-1.28-1.796-2.247-1.132.107-3.69 1.38-4.176.924-.594-.634 1.03-3.88.85-4.205-1.306-.112-4.967-2.966-.606-6.144l-1.39-5.17s3.317 1.452 4.908 2.264c1.105-5.164 6.144-2.688 6.958-.46 0 0 3.994-1.314 3.747-.25-.11.958-.76 3.345-.76 3.345 3.592 3.18 2.85 4.74-.07 6.825-.043 1.686.664 4.306.664 4.306s-2.03-.902-3.37-1.28c-.535.535-1.144 1.503-1.042 2 .908 4.02 5.864 5.14 13.207 9.247.25-2.597 2.043-6.146 2.245-9.262.127-2.27.205-2.308 1.804-1.58 4.207 3.038 2.923 11.39 1.39 14.814-.91 1.94-1.058 1.89-2.823 1.327-2.445-.778-6.77-.464-9.146.342-3.287 1.348-4.84 8.683-4.875 10.91-.058 2.118.105 4.218 1.217 6.834.46 1.674-.386 2.964-1.895 2.515-.34-.1-1.145-.407-1.145-.407l-14.195 7.343 2.675 1.573s-1.972-1.178-.75-1.815l12.17-6.352c2.27.885 1.965 1.065 3.435-.466.88-.906 1.312-.925 2.49-.812 7.176.688 10.354-.356 11.595-3.363.186-.45.115-.436.848-.806 1.357-.527 1.996-1.482 2.064-2.68.046-.786.387-.894.984-1.442 1.116-1.025 1.343-2.31.64-3.63-.33-.622-.584-.818-.446-1.463.23-1.08-.17-2.204-1.207-3.395-1.194-1.37-1.187-1.138 1.062-3.233 4.42-4.2 8.312-7.415 12.61-11.216 2.94-2.6 2.623-2.414 3.768-1.225 4.212 4.38 5.864 11.21 3.968 17.214-.09.282-.13.25.09 0 1.192-1.35 1.227-8.147.208-11.16-1.24-3.704-2.442-5.633-6.548-9.26-2.562-2.313-9.536-8.993-9.536-8.993 10.146-8.798 21.074-19.734 27.202-29.79-3.145-3.372-17.724-6.48-17.724-6.48 1.814-3.766 5.404-20.678-.74-39.43l52.375.604 1.862.127s.28-.106.43-.145c.502-.132.752.222.63.783-.385 1.432-2.485 4.782-3.967 4.506-.66-.257-.475 1.013-.77 1.542 2.335-.303 5.074-3.263 5.76-6.196.377-.616.62-.72.996-.602.433.137.325.548-.143 1.967-1.463 3.55-4.43 6.847-7.877 6.517l-.447 1.21c4.652-.074 8.25-4.436 9.312-7.697.742-1.94.77-2.202 1.518-2.016.616.57.235 1.39.024 2.064-2.338 7.472-8.762 9.47-11.96 9.144-.385-.048-.453.313-.336.93 6.872.452 12.345-5.467 13.118-10.547.377-1.41 1.03-1.89 1.407-1.246.212.568.142 1.148.037 1.69-1.878 8.02-10.426 12.57-15.648 11.27-.242-.225-.635.884-.066 1.28 10.543-.398 13.8-5.84 16.204-10.647 2.868 4.327 5.214 8.79 12.088 11.41 0 0 .686 1.51.146 1.85-.285.178-.72.095-1.352-.007-8.38-1.354-11.15 6.478-7.583 18.177.978 3.203.54 2.712-1.548 4.717-.995.955-1.468 2.65-1.207 2.688.357-.2.476-.75 1.347-1.472.38-.314 1.157-.614 1.73-1.01 1.55-.9 1.537-1.514.98-3.64-.414-1.58-1.468-6.385-1.47-6.872-.002-.92.216-.824 1.368 0 1.608 1.193 2.52 1.108.574-.42-.754-.59-1.243-1.052-1.47-1.384-.312-.45-.12-.743.51-.547 2.886.905 5.364.84 8.167-.866.32 7.72-.74 19.428-7.206 27.8-4.96 5.57-14.456 1.355-17.97-.403zm7.597-17.734c-.193.01-.885.152-1.313.397-1.904 1.09-1.45 4.958.63 5.473.835.207 1.594.32 3-.35.836-.4 2.007-.71 2.336-.574.69.287.908-.322 1.056-1.01.33-1.538-2.192-1.575-4.2.015-2.532 2.006-4.474-.954-2.087-3.183.794-.513.77-.78.578-.77zM123.17 72.24l2.126 2.458 1.337 5.858c-.81.138-1.794-.312-1.794-.312-.664-2.65-1.312-5.302-1.67-8.004zm28.968 1.474c-.022.003-.047.008-.072.02-.09.04-.486.218-1.034.278-.316.035-.794-.19-1.135-.168-.93.058-1.8.332-2.034.428-.286.118-.568.168-.812.024-.693-.41-2.717-.294-3.33.067-.73.31-1.548.313-2.146.005-.258-.134-.52-.47-.567-.424-.096.096-.484 1.754-.602 2.396.003.226-.156.6-.062.64.12.048.5-.3.972-.54.966-.492 2.046-.454 3.942.01 2.342.574 3.254.408 4.636-.297 1.1-.562 1.77-.696 2.5-.496.18.05.66.3.727.236.13-.125-.225-.818-.528-1.506-.222-.496-.303-.69-.454-.673zm-25.262 2.644c2.057 1.948 1.9 1.78 3.2 2.745l-.063 1.877s-1.59.036-2.37-.207c-.247-.73-1.317-4.396-.767-4.415zm16.916 1.26c.14.097.342.197.62.292 3.275 1.228-.15.918-.477 2.088 0 .105.15.122.31.06 1.125-.442 3.87-.73 5.118-.487 1.62.548 1.72.17.163-.643-1.14-.45.242-.755.708-1.147.966-.622.3-.878-.93-.288-1.23.59-3.424.58-4.424.02-.442-.224-.873-.433-1.076-.445-.418-.018-.196.42-.012.552zm-12.887 2.104l1.916 1.498-1.958-.188.043-1.31zm-43.4 37.64c-.388 0-.702.315-.702.703 0 .387.314.702.702.702.387 0 .702-.315.702-.702 0-.388-.315-.702-.702-.702zm2.558.71l-8.79 4.172 2.323.777-.018 2.405 2.14-.682.906 2.245 3.44-8.917zm.39 1.963c-.388 0-.703.315-.703.702s.315.702.702.702.702-.316.702-.703-.315-.702-.702-.702zm-11.143 4.27c-.387 0-.702.31-.702.698 0 .387.315.702.702.702s.702-.315.702-.702c0-.388-.315-.697-.702-.697zm2.7 1.307l-9.865 4.53 2.925.89-.773 3.012 2.383-1 1.33 2.02 4-9.452zm.29 2.157c-.386 0-.7.313-.7.7 0 .388.314.702.7.702.39 0 .698-.314.698-.702 0-.387-.31-.7-.697-.7zm-19.573.45c3.71-.005 7.87 1.406 9.29 4.582.378 1.588-1.183 2.533-4.516 1.62-5.508-1.51-6.535-1.68-5.62-.744.12.123.363.426 1.188.706 2.075.708 6.09 1.525 7.175 1.414 1.48-.196 2.505.492 2.135 1.727-.42 1.4-2.342 1.975-5.23 1.567-2.994-.422-4.642-.767-5.637-1.067-1.276-.387-1.32-.354-.716.543.315.467.346.84.812.93 1.977-.113 4.08.266 5.896.437 3.258.29 3.768 1.215 1.375 2.625-1.134.67-4.525.485-6.453-.208-1.377-.496-4.535-1.205-3.317-.244.292.23.192.798.702.977 1.67.23 6.39.562 7.13 1.23.475.43-.596 1.52-2.8 2.092-3.32.63-8.28.366-9.592-.528-2.427-4.942-1.12-13.03 2.678-16.19 1.212-.95 3.274-1.467 5.5-1.47zm21.753 2.577c-.387 0-.697.314-.697.702 0 .386.31.696.697.696.388 0 .702-.31.702-.697 0-.388-.315-.703-.702-.703zm2.93.75l-10.187 5.072 2.576.764-.61 2.965 2.387-.985 1.445 1.994 4.388-9.814zm.08 2.482c-.387 0-.702.314-.702.7s.315.703.702.703.702-.315.702-.702-.316-.7-.702-.7zm5.923 5.98c-4.518 4.396-9.607 7.88-14.258 12.148l1.007-.04 2.534-2.286 71.36-.224-1.668 2.434.702.3s2.14-3.163 1.994-3.31c-15.68.046-27.78.01-44.98.13-3.134-3.105-6.445-6.015-9.722-8.965l-6.97-.187zm-21.69 2.82c-.388 0-.702.314-.702.7s.315.703.703.703c.387 0 .697-.315.697-.702s-.31-.7-.697-.7zm93.16.536c6.165 4.574 13.47 10.185 19.53 13.516 2.428 1.054 2.192 1.414-.274 2.58-2.425 1.506-6.46 3.448-9.825 5.145-1.458.55-2.095-.167-3.13.023-.746.19-.96.33-1.404.92-.728.963-.53.93-4.428.754-3.934-.178-5.555-.09-6.4.342-.812.414-2.208 1.83-2.208 2.418 0 .565-.444 1.29-1.254 1.534-.943.23-2.032.977-1.986 2.135-.252.873-.786 1.26-1.26 1.737-1.12 1.132-1.01 2.02-.685 3.07.148.472.377.36.26 1.753-.266 3.188-.485 2.92 2.925 5.277l-17.42 15.18c-.405.318-.523.287-.89.034-2.126-1.577-3.605-4.185-4.456-6.793-2.944-8.106.65-14.767 5.426-18.843 1.654-1.412 3.878-3.096 4.496-3.52 8.995-7.67 16.817-18.533 22.982-27.26zm-90.56.593l-9.96 4.702 3.21.54-.615 2.77 2.323-.88 1.23 2.336 3.813-9.47zm.61 2.197c-.388 0-.703.315-.703.702s.315.696.702.696.697-.31.697-.697-.31-.703-.698-.703zm91.257 3.083l-1.13-2.674s-3.146 7.75-3.812 10.375c2.665-1.373 10.473-5.348 10.473-5.348l-3.34-.62.377-3.034-2.567 1.302zm-113.764.48c-.387 0-.702.314-.702.7s.315.703.702.703c.388 0 .702-.315.702-.702s-.314-.7-.702-.7zm3.05.64s-7.41 3.477-10.755 4.978l3.124.654-.55 3.036 2.82-1.1 1.137 3.002 4.227-10.57zm.397 2.293c-.387 0-.702.315-.702.702s.315.697.703.697c.387 0 .702-.31.702-.697s-.315-.702-.702-.702zm104.872.504c-.388 0-.702.31-.702.697 0 .387.314.702.702.702.387 0 .697-.315.697-.702 0-.387-.31-.697-.697-.697zm12.117.634l-3.527 9.804 9.54-4.803-2.59-.706.014-2.425-2.132.62-1.306-2.49zm-112.738 2.36c-.387 0-.702.313-.702.7 0 .388.314.702.702.702.387 0 .702-.314.702-.702 0-.387-.315-.7-.702-.7zm104.336.176c-.387 0-.697.315-.697.702s.31.697.697.697c.388 0 .702-.31.702-.697s-.314-.702-.702-.702zm-101.41.72l-10.11 4.93 3.14.735-.346 3.157 2.55-1.45 1.386 2.88 3.38-10.252zm.63 2.084c-.386 0-.662.314-.662.702 0 .387.314.697.702.697.387 0 .697-.312.697-.698 0-.387-.35-.702-.736-.702zm105.115.62c-.388 0-.702.314-.702.7 0 .39.314.698.702.698.387 0 .7-.31.7-.697 0-.385-.313-.7-.7-.7zm-13.93 3.224l-.938-2.64-3.74 9.678 10.057-4.606-3.19-.75.056-2.526-2.245.844zm-10.217-2.083c-.115-.005-.216.026-.216.102 0 .224-2.57 2.735-2.57 2.735l-29.684.273c.062.005 2.47.672 2.47.672 3.895 3.11 9.997 8.63 9.997 8.63l7.37-.295c4.08-4.006 10.21-7.053 12.945-12-.066-.067-.197-.11-.312-.116zm27.824 1.996c-.387 0-.702.314-.702.702 0 .387.315.697.702.697.388 0 .697-.31.697-.697 0-.388-.31-.702-.698-.702zm-22.914 3.378c-.387 0-.697.31-.697.697s.312.703.698.703c.388 0 .702-.315.702-.702s-.314-.696-.702-.696zm15.07 1.014c2.127-.01 4.176.062 4.706.467 3.29 2.77 1.73 15.713-2.415 17.347-4.55 1.024-7.695 1.214-11.644-1.39-1.12-.546-3.342-2.196-2.908-3.56.592-1.673 2.218-1.55 6.88-.1 1.703.53 2.64.423 3.074.09.405-.308-.126-.654-.995-.657-.35 0-1.858-.373-3.116-.76-1.774-.546-2.285-.706-3.433-.774-1.93-.113-2.49-.188-2.49-1.37 0-2.204 3.065-2.495 8.708-1.2.675.153 1.897.325 2.197.316.218.083-.43-.73-.538-1.217-.204-.175-.568-.257-1.53-.29-3.628-.355-6.64-.602-6.705-1.076-.32-2.334 4.372-2.97 9.24-1.097 1.248.48 1.273.28 1.264-.082-.02-.672-2.11-1.847-5.195-1.814-3.003.033-2.584-1.492-.116-2.64.842-.39 2.885-.182 5.013-.192zm-11.607 2.5c-.387 0-.696.316-.696.703s.31.703.697.703c.388 0 .703-.315.703-.702s-.316-.7-.702-.7zm-10.814 4.843l-.635-2.614-4.083 10.176 10.314-5.252-3.4-.64.298-2.14-2.492.47zm-5.256 4.087c-.388 0-.702.315-.702.702s.314.7.702.7c.387 0 .697-.314.697-.7s-.31-.703-.697-.703zm10.276 2.887l-.868-2.473-3.47 8.858 8.803-3.93-2.6-.71.37-2.685-2.234.94zm-7.006.026c-.387 0-.702.314-.702.702 0 .387.315.702.702.702s.697-.315.697-.702c0-.387-.31-.702-.697-.702zm2.253 3.383c-.387 0-.702.31-.702.697s.316.702.703.702.697-.315.697-.702-.31-.697-.697-.697zm-4.423 2.074l-2.97 8.39 8.27-4.004-2.417-.796s.133-1.887-.095-1.8c-.145.056-1.7.49-1.7.49l-1.088-2.28zm7.36 1.003c-.387 0-.7.31-.7.697 0 .388.313.702.7.702.388 0 .703-.315.703-.703 0-.386-.315-.697-.702-.697zm-10.963 4.036c-.387 0-.702.315-.702.702s.315.702.702.702c.388 0 .702-.315.702-.702s-.316-.702-.703-.702zm3.16 3.247c-.386 0-.7.31-.7.697s.314.702.7.702c.39 0 .703-.315.703-.702s-.315-.697-.702-.697zM93.988 234c-.378.056-1.362-.844-1.554-1.267.562-.143 1.14-.037 1.454.226.26.246.444.878.1 1.04zm2.995-.606c-.133 1.024.502 2.878.38 3.318-.324.16-1.97-1.605-2.374-2.034-.085-.586.006-1.33.04-1.666.564-.1 1.566-.063 1.954.382zm2.963.51c.352 2.27 1.35 5.923 1.195 7.154-.148-.118-1.417-1.368-2.354-2.695-.33-.794-.843-3.56-.8-4.882.633-.086 1.48.015 1.96.424zm-19.847-.256c-1.012.517-2.162.888-3.605.882-1.158-.005-3.152-.605-2.95-.458.526.943 1.903.45 1.93 1.064-.342.608-1.257.55-1.713 1.134-.095.154.135.285.78.218 1.955-.888 4.51-.87 6.85-.103.49.103.17-.368.002-.493-.304-.223-.806-.457-1.23-.507-2.042-.363-1.145-.57.223-1.18 1.002-.367 1.254-1.268-.287-.557zm4.426 2.885c-.27.02-.952.367-1.697.67-1.26.508-2.423.39-4.116-.083-1.47-.41-2.006-.296-3.47.44-.97.624-2.035.798-2.805.362-.997-.566-.99-.372-.496 1.03.122.35-.122 1.408.312 1.653.33.186.71-.434.967-.52.254-.086 1.858.634 2.754-.158 1.598-.58 2.077.36 3.184.27 1.796-.634 2.92-1.294 4.462-.07.092-.458.45-2.96 1.024-3.55-.015-.034-.058-.048-.12-.044zm-3.272 7.2c-1.292.016-1.992.81-3.658.657-1.33-.093-1.787 1.087-1.223 1.947.397.606.93.718 2.744-.114.746-.342 1.783-1.094 2.39-1.033 1.774.177 2.203 1.893.726 3.342-.72.423-.726.882-.506.89.584.022 1.767-.675 2.035-1.488.734-2.23-.588-4.24-2.508-4.2zm5.798 10.265c-1.68.354-4.104 2.284-4.93 3.533-.77 1.22-1.508 2.595-.97 3.275.442.558 1.06 1.1 1.113 1.4.046.265-.314.526-.652.904-1.476 1.65-1.124 1.74.946.67 1.05-.545 1.537-.763 2.222-.584 1.995.52 4.48.15 6.17-.47.763-.282 1.51-.662 1.567-.468-3.083 3.393-6.928 2.538-8.3 2.332-.24-.062-.424-.048-.423.033 0 .166.397.523 1.245.9 1.417.628 4.82-.04 6.948-1.593 4.208-2.753 6.528-5.383 3.212-4.284-1.52.504-2.09.416-3.938-.418-2.77-1.25-4.892-1.618-7.186-.817-2.905 1.014-.677-1.38 2.592-3.457.71-.448.8-.963.384-.955zm-15.672 7.157l-.97.014c-.692-2.334-2.367-2.33-3.092.014l-.81-.057c.795-2.91 3.79-3.51 4.872.028zm17.236.192l-.73.033c-.44-1.414-1.996-2.657-3.093-.34l-.504-.105c.897-3.7 4.47-1.642 4.328.412zm-4.855-2.126c.452 0 .567.516.052 1.353-.362.59-.794.535-1.226.09-.39-.39-.367-.46.058-.846.452-.41.844-.596 1.115-.596zm5.36.016c.197-.006.572.156.992.298 1.104.373 1.355.682.903 1.135-.445.443-1.29.578-1.68.325-.017-.556-.567-.984-.586-1.542 0-.15.174-.212.37-.217zm-17.305.018c.766-.035 1.793.42 1.718.86-.082.483-.837.8-1.46.853-.417.055-.4-.114-.51-.41-.098-.265-.224-.603-.295-.866-.172-.507.155-.42.547-.436zm-5.24.168s-.428 1.277-.62 1.713c-1.603-.086-1.45-.793-.693-1.304.406-.308.818-.315 1.314-.408zm-1.243 3.035c.29.005.65.256 1.154.418 1.42.457 3.777.405 5.616-.02.88-.203 1.298-.476 1.49-.336.346.248-.012 1.118-1.283 1.677-1.657.61-4.185.942-6.1-.033-1.635-.835-1.816-1.723-.878-1.707zm-.437 1.827c1.5.99 3.004 1.305 4.86 1.132 2.78-.102 3.277-.444.935.796-2.165 1.147-5.503.936-6.146-.308-.368-.71-.13-1.56.35-1.62zm13.473 1.664c-.01 0-.017 0-.023.005.224 1.5 2.743 2.873 3.952 3.197 2.565 1.138 6.644.012 9.714-1.312 2.242-.967 3.05-2.426.38-1.597-4.296 1.335-9.69 1.437-12.39.4-.88-.416-1.48-.698-1.632-.692zm-14.138 5.62c5.377 1.212 11.876 9.504 11.852 13.13h-1.736c-2.644-9.224-9.51-11.22-10.18-11.77-.31-1.132.076-1.39.064-1.36zm-.085 2.335c6.39 2.8 8.662 7.792 9.62 10.794h-1.868c-1.393-4.13-3.895-7.076-7.767-8.91-.263-.576.015-1.884.015-1.884zm-.01 2.826c3.274.965 6.162 5.275 6.982 7.967l-1.635-.01c-1.16-3.003-2.8-4.93-5.41-6.04-.107-.566-.085-1.205.063-1.918zm-.053 2.927c1.537.31 4.14 2.7 4.516 5.04h-1.5c-.53-1.578-2.165-3.02-3.004-3.607l-.012-1.433zm.158 2.5c.165-.105 2.46 1.963 2.073 2.54h-2.067c-.024-.642-.04-2.547-.006-2.54z"/><path fill="#D40000" d="M122.795 27.715C118.9 35.263 98.905 69.257 98.7 70.44l5.12 2.266 24.86-44.817c.002-.002-5.15-.17-5.885-.175zm58.7 28.39l-2.323 3.266 1.976 3.583 2.006-3.544-1.66-3.305zm-91.34 34.107s-7.17 7.124-9.97 10.446c6.022 6.01 17.534 13.556 17.62 25.167l7.937.03 25.692 22.98s23.266.168 23.7.067c.468-.108 8.733-11.94 8.733-11.94l14.743 10.747s-.707-11.577-1.264-18.67c-.183-4.745-.34-7.663 3.128-9.763-4.765-2.27-4.463-6.447-.96-9.514-1.155-1.598-2.883-1.894-3.143-7.56-.728-.782-1.42-1.24-2.33-1.904l-.953.85c-3.06 2.747-5.144 5.548-5.486 7.372-.653 3.472 2.872 5.85 4.91 3.313.574-.715 1.087-.515 1.087.418 0 1.893-2.38 2.962-4.396 1.977-.47-.23-.885-.384-.927-.342-.073.073 1.998 5.146 2.558 6.266.933 1.862 1.42 3.73 1.492 5.688.077 2.09.035 2.357-.942 5.968-.92 3.4-.487 5.424 1.16 5.424.925 0 .896.89-.04 1.217-1.99.694-3.224-.77-3.294-3.903-.042-1.903-.075-1.95-1.053-1.49-3.402 1.6-7.098-1.26-5.496-4.25.336-.63.733-.432.942.465.39 1.683 1.27 2.425 2.864 2.42 3.672-.015 5.21-5.202 3.093-10.426-.426-1.05-.64-.99-1.197.336-.876 2.08-2.344 2.69-3.554 1.48-.406-.404-.603-1.063-.327-1.096.062-.007.467-.024.894-.038 2.14-.068 2.878-2.144 1.875-5.266-.882-2.743-1.018-3.24-1.28-4.727-.405-2.298-.122-4.042 1.015-6.27.2-.395 1.456-1.797 3.016-3.372 1.593-1.608 2.963-2.842 2.963-2.842s-.806-.693-1.897-1.514c-2.3-1.73-2.707-2.025-2.707-2.025s-10.935 30.02-10.16 41.717c-1.387 15.41-12.716 11.146-13.55.475l-54.494-47.91zm-.486 4.5c3.735-.06 6.2 4.88 7.606 15.134.466 3.397 2.536 8.156 4.04 9.28 3.79 2.838 9.722.65 9.727-3.587.006-5.276-7.4-6.06-7.516-.794-.027 1.24-.664 1.305-1.274.125-.545-1.053-.054-3.02 1.005-4.015.68-.637.626-.757-.668-1.472-4.507-2.487-6.424-6.197-4.016-7.775 1.054-.69 2.493.183 1.832 1.11-1.032 1.45-1.045 1.682-.183 2.886.98 1.37 2.143 2.053 4.9 2.866 2.314.683 2.695.81 3.765 1.298 3.13 1.427 4.56 4.567 3.467 7.617-.258.72-.508 1.43-.558 1.577-.112.335.07.337 2.274.043 3.507-.467 7.4.786 9.32 2.996 1.03 1.19 1.858 3.86 1.885 6.09.005.428.138 1.397.298 2.153.16.756.375 2.033.472 2.837.917 7.628 7.268 11.528 10.012 6.15 1.727-3.385-2.267-6.77-4.3-3.646-.713 1.1-1.45.594-1.038-.71.8-2.537 3.965-2.968 6.12-.833 1.166 1.155 1.726 3.773 1.16 5.435-.298.872-.267.927.38.702 1.448-.505 3.952-.02 4.85.942 2.12 2.265 1.694 4.984-.912 5.865-1.186.397-2.527-.016-2.967-1.404-.192-.988.49-1.273 1.016-.422.985 1.595 3.132.31 2.625-1.572-.575-2.14-2.405-2.596-5.783-1.433-5.37 1.848-7.104 1.693-9.676-.86-1.834-1.824-2.524-3.4-3.02-6.877-.545-3.84-.597-3.94-1.547-3.13-4.545 3.866-10.55-1.978-6.698-5.82 1.19-1.19 2.066-.152.995 1.18-1.564 1.943.475 4.65 3.03 4.02 4.65-1.147 3.7-7.955-1.333-9.545-1.534-.483-5.75-.283-8.992.43-9.054 1.986-13.054-1.878-14.916-14.397-.22-1.463-.474-2.544-1.333-5.693-1.02-3.736-4.488-5.765-6.38-3.73-1.51 1.62-.717 3.802 1.384 3.807 2.095.006 1.453 1.44-.73 1.636-3.788.336-4.447-5.97-.812-7.776.888-.442 1.716-.67 2.49-.684zm-49.44 2.33l1.175 4.485 4.68 1.322-1.483-4.27-4.372-1.54zm12.01 1.338l-1.258 4.06 3.55-.87 1.156-4.234-3.45 1.044zm38.506 6.648c.743 0 1.346.604 1.346 1.347s-.603 1.347-1.346 1.347c-.744 0-1.347-.604-1.347-1.347s.602-1.347 1.346-1.347zM45.62 107.45l-3.69 1.292-.712 3.22 3.863-.996.54-3.516zm8.806 1.018l-3.015-.52.85 3.323 3.192 1.306-1.026-4.108zm130.91-.255l-1.94 1.51c5.653 4.913-.448 9.647-.638 9.327 4.087 2.704 3.358 6.97 2.828 10.877-.967 6.97-1.344 13.56-2.4 20.7 0 0 4.925 3.398 8.2 4.713.06.008.02-41.9.02-41.9l-6.07-5.227zm-69.76 6.312c.745 0 1.348.603 1.348 1.347 0 .743-.603 1.347-1.347 1.347-.743 0-1.346-.605-1.346-1.348.002-.745.604-1.347 1.347-1.347zm-82.65 3.446l.17 39.108 8.094-14.476-5.57-6.425 4.815-5.14-7.51-13.066zm78.824 5.96c.743 0 1.347.604 1.347 1.347 0 .744-.604 1.347-1.347 1.347-.744 0-1.347-.603-1.347-1.347s.603-1.346 1.347-1.346zm18.38 4c.742 0 1.345.605 1.345 1.348 0 .744-.603 1.347-1.346 1.347-.745 0-1.348-.603-1.348-1.347s.603-1.347 1.347-1.347zm52.643 43.567l5.946 6.103-4.646 5.783 7.313 12.41-.118-38.396-8.497 14.1zM32.85 158.654l.284 42.062 6.358 4.638 1.612-1.522c-4.104-4.382-1.652-7.642 1.44-9.527-5.457-1.27-3.8-8.508-3.475-11.86-.134-6.228 2.148-13.332 1.445-19.318l-7.664-4.473zm36.62 5.846l-9.11 12.696s-10.015-7.584-15.063-11.006c.54 5.48 1.032 12.47 1.702 18.362 1.637 8.605-2.626 8.754-2.665 9.577 6.775 5.14 1.09 9.95.07 9.708 3.607 1.965 3.31 7.934 3.31 7.934l1.712.968s.557-.34.793-.466c1.83-.985 4.813-4.494 5.496-6.81 1.16-3.926-2.25-7.187-4.395-4.202-1.053 1.466-1.896.485-1.033-1.202.788-1.54 2.845-2.314 4.212-1.582.795.425.617-.68-.61-3.77-.413-1.038-.748-2.17-1.328-4.463-.562-2.22-.343-4.895.63-7.617 1.402-3.925.905-6.388-1.342-6.603-1.198-.114-1.328-.49-.35-1.043 2.18-1.236 4.297.523 4.21 3.505-.045 1.613-.027 1.64.823 1.3 4.307-1.73 7.71 2.74 4.698 6.17-.92 1.046-1.5.382-.894-1.025.936-2.175.045-3.725-2.145-3.74-3.175-.025-4.933 4.362-3.683 9.188.39 1.506.45 1.524 1.506.52.936-.894 1.636-1.18 2.36-.962 1.504.45 1.898 2.05.457 1.85-2.476-.34-3.127 2.255-1.727 6.868 1.858 6.12-.022 11.108-5.52 14.656-.278.18-.722.524-.722.524 2.122 1.89 3.478 2.963 6.28 4.67l10.004-40.425s-.17-2.295-.415-3.377c-.01-10.85 10.115-11.89 13.283-2.037.305.945 1.915 3.36 1.915 3.36l52.705 46.772s9.84-9.51 9.705-9.76c-7.476-7.535-17.57-12.86-17.938-24.815-1.79-.052-7.78.06-7.78.06l-25.627-23.506c-8.04.05-15.174-.524-23.522-.277zm14.36.88c1.408-.044 2.828.688 2.828 1.86 0 1.014-.678 1.246-1.24.425-.785-1.148-1.697-1.24-2.626-.265-2.572 2.703 1.425 5.175 6.02 3.722 2.815-.89 4.18-1.13 5.21-.924 4.34.87 6.437 3.8 6.808 9.507.188 2.9.184 2.89 1.438 1.74 3.054-2.798 7.468-1.24 8.155 2.88.295 1.77-1.61 3.997-3.42 3.997-.71 0-.597-.74.17-1.105 1.84-.878 1.912-3.78.124-4.915-2.374-1.505-5.5.843-5.462 4.102.046 3.918 2.972 5.723 8.75 5.39.848-.047 2.972-.147 4.72-.22 2.76-.118 5.726-.638 8.54 1.485 2.944 2.342 4.9 7 5.735 13.728 1.317 8.282 2.335 10.502 5.116 10.7 1.65.118 3.05-1.287 3.05-2.92 0-1.15-1.523-2.165-2.68-1.783-1.395.46-1.677-1.052-.303-1.626 1.904-.796 4.23.736 4.746 3.13.3 1.395-1.273 4.07-2.924 4.737-4.307 1.74-7.37-1.815-8.377-9.777-.62-3.65-.96-6.112-2.098-9.232-2.09-5.743-5.522-8.113-9.262-6.396-4.233 1.945-3.394 8.284 1.092 8.237 2.464.194 2.98-1.616 3.03-3.555.06-1.43 1.68-.088 1.818.896.133 1.194-.938 2.672-1.883 3.37-1.526 1.023-.983.96.578 1.37 4.198.773 7.32 6.33 4.81 8.216-1.305.796-2.69-.375-1.786-1.524 1.437-1.828-.997-4.716-5.426-5.687-5.8-1.27-8.11-5.588-6.02-10.025.693-1.468.753-1.435-2.076-1.274-6.226.352-8.437-.51-10.526-4.116-.63-1.09-.91-2.545-1.043-5.438-.24-5.18-.714-8.387-1.367-9.29-3.232-4.472-9.958-3.134-9.117 1.812.442 2.598 3.125 3.43 4.958 1.54 1.384-1.43 2.03-.103.678 1.394-3.25 3.598-8.908-.603-7.228-5.366.385-1.09.437-1.056-1.648-1.116-4.64-.134-6.848-4.104-3.857-6.93.525-.495 1.254-.732 1.99-.755zm11.196 17.042c.744 0 1.347.604 1.347 1.347s-.603 1.346-1.347 1.346c-.743 0-1.347-.604-1.347-1.347s.602-1.348 1.346-1.348zm18.652 4.78c.744 0 1.347.603 1.347 1.347 0 .742-.603 1.345-1.347 1.345-.743 0-1.346-.603-1.346-1.346 0-.745.603-1.348 1.346-1.348zm-4.005 8.786c.743 0 1.346.603 1.346 1.347 0 .743-.604 1.346-1.347 1.346-.744 0-1.347-.602-1.347-1.345 0-.745.603-1.347 1.347-1.347zm59.276 5.236l.852 3.982 3.09.813-.48-3.413-3.463-1.383zm10.81 1.38l-.067 2.36 2.748.323.974-4.07-3.655 1.386zm-46.15 3.563c.744 0 1.347.603 1.347 1.347 0 .743-.603 1.347-1.346 1.347-.743 0-1.346-.603-1.346-1.346 0-.744.602-1.347 1.347-1.347zm39.477 5.486l-3.23.896-1.554 4.486 4.137-1.498.647-3.885zm6.32.404l.396 3.324 3.98 1.8-1.346-4.738-3.03-.385zM120.73 240.4l-24.713 44.678 6.753-.094 23.326-42.13-5.365-2.455zM43 251.213l-2.182 2.938 2.072 3.41 2.38-3.425-2.27-2.923z"/><path d="M84.997 26.597c4.55 13.796 4.974 27.393 1.024 40.456 2.25.114 12.067 2.632 17.47 5.966-1 2.57-16.317 21.41-26.716 29.9 2.956 2.927 6.21 5.854 9.627 9.08 5.172 4.904 6.998 8.282 7.34 14.65-.047 3.075-1.15 6.87-3.107 9.555-1.48 2.03-3.05 3.592-6.203 5.68-2.907 1.926-7.157 6.07-12.502 12.18-2.037 2.33-5.477 6.572-8.324 10.617-1.077 1.47-4.25 6.06-4.25 6.06-10.583-8.636-21.916-15.297-22.206-15.246 0 0 11.434-6.094 13.84-7.336 1.847 1.186 4.355.172 3.15-2.438-2.313-5.938-.7-12.05 2.143-16.315.682-1.028 2.32-1.628 4.974-1.813 1.15-.074 2.367-.037 3.587-.053.44 0 1.626.17 2.275.525 2.162 1.18 2.595-.338 3.943-5.448 1.34-5.085-.817-11.515-3.896-11.536-.724-.004-1.13.263-.98 2.072.112 1.365-.216 2.073-.567 2.935-.768 1.88-1.176 3.72-1.42 6.17.45.09-2.857-3.29-8.067-4.63-3.387-.4-5.105-4.618-4.963-4.627 0 0 .507-1.142.952-1.587 1.156.554 2.293 1.203 3.664 1.606 0 0-.314-1.695-.437-2.15-.63-2.355-.595-2.714.312-3.203 2.25-1.212 2.488-3.38.73-5.352-.443-.505-.817-.828-1.413-1.082l1.11-4.424s-1.018.218-1.832.465c-2.354.716-2.18.74-3.183-.403-2.186-2.49-5.522-2.016-6.02.855-.057.317-.203.822-.203.822l-5.023-2.44c.147 1.18 1.453 5.17 1.453 5.17-4.396 3.414-.682 6.438.518 6.757 0 0-1.025 3.268-1.38 4.625l4.958-1.416c.417.944.93 1.66 1.96 2.322.27 2.79 2.42 5.037 3.9 6.39 0 0 .212 1.02.084 1.673-.32 1.622 1.328 4.19 1.606 4.343-6.803-2.782-13.894-6.122-20.74-9.4l.428 84.146s1.595 1.427 4.756 3.692c1.52 1.088 1.52 1.092 1.202 2.347-.417 1.652-.313 2.914 1.097 13.8.748 5.756 1.562 11.726 2.29 17.08.29 1.95.33 3.2.33 3.2-1.513-.7-3.713-.77-4.85.507-1.963 2.235-.393 5.833 2.514 5.756.66-.04 1.11-.232 1.68-.62.393-.21.8-.027.8-.027l-4.34 7.622 4.995 8.408 4.98-8.992-3.623-7.112s.354-.04.845.207c.487.244 1.142.43 1.597.456 2.526.02 3.045-1.133 3.31-3.207 0-2.67-2.124-3.878-5.048-2.872-.46.158-.966.202-.966.202l3.067-29.347 1.645 1.206.538-.294-1.438-1.227c.312-4.703-1.24-6.368-2.914-7.507 5.603-3.187 3.174-8.225-.55-9.775 0 0 2.42-1.415 2.904-2.898.413-1.327.26-3.43-.21-7.162-.35-5.752-1.586-17.638-1.586-17.638 4.895 3.69 9.92 7.64 14.646 11.372l9.473-13.166 22.833.16s17.353 15.754 26.086 23.787l7.54.067s.082.807.158 1.342c.715 7.78 5.933 13.122 10.685 16.868 1.937 1.74 6.723 6.31 6.723 6.31l-8.872 8.943-54.328-48.523s-.26-.708-.365-1.14c-1.254-5.14-4.66-7.29-7.755-6.93-3.25.38-6.02 3.58-5.88 9.026.02.843.325 2.327.325 2.327l-9.925 41.34s-3.97-3.03-6.11-4.486l-.473.273 5.81 4.367.433-.188 1.648 1.287.125.88c5.082 3.458 13.7 9.91 13.7 9.91 4.068-3.022 8.345-2.012 12.628-.875 0 0 3.113 1.04 4.77 1.034 8.416.19 15.87 1.824 23.692 4.65l-28.516 50.548 54.318.11c-2.678-10.58-5.52-21.326-.438-39.373-5.356-1.08-17.268-5.846-17.268-5.846s-.057-.27.447-.89c2.202-3.15 7.77-11.684 12.99-16.62.634-.453 9.73-9.28 9.817-9.56.05-.155.27-.75.626-.984.838-.56 3.066-2.666 3.066-2.666l-11.383-9.87s-.5-.048-.663-.14c-1.59-.888-4.458-5.846-5.164-9.165-1.625-7.636 1.376-13.673 9.844-19.87 8.267-5.66 23.943-27.634 23.994-28.12 8.453 6.997 15.053 10.62 22.49 15.21-4.493 2.577-8.156 4.3-11.3 6.005-2.04 1.164-2.32 1.407-4.044.92-1.953.015-2.62.768-2.126 2.45 2.956 4.672 1.688 15.546-2.31 17.643-3.47 1.82-6.843 1.326-9.63.294-2.15-.688-2.123-.696-3.083 1.256-2.11 4.494-2.245 8.28-.298 12.59 1.6 3.46 3.974 5.036 4.266.37.172-2.738 1.38-5.94 1.34-8.883 2.425 2.675 4.03 3.897 8.008 4.986 2.668.416 5.5 3.762 5.413 5.126-.732.74-.955 1.685-1.073 1.617-1.3-.424-4.113-1.62-4.113-1.62l1.198 4.23s-.198.192-.774.486c-2.647 1.35-2.476 5.002.304 6.462.566.297.606.438.365 1.217-.346 1.734-1.105 2.9-1.516 4.62 0 0 .378.014 3.55-1.452l1.244-.577.75.804c1.643 1.756 3.616 1.745 5.338-.03l.79-.81 2.2 1.115c2.076 1.05 2.622 1.27 2.622 1.27s-1.197-4.645-1.42-5.176c-.12-.287-.363-.578-.542-.644-.297-.11-.25-.18.538-.804 1.996-1.582 2.196-3.765.495-5.424-.65-.633-.73-.765-.73-.765l1.032-4.304-4.287 1.42c-.676-1.438-1.75-2.094-2.43-2.387-.073-1.942-.316-3.938-3.654-6.975 1.126-1.025-.212-3.5-1.313-4.985 1.878.63 6.573 2.616 6.573 2.616l.71-.027 2.24 1.074.263.398s7.053 3.328 10.29 4.886c-.008-.173-.033-3.656-.043-42.002-.005-22.862.032-41.667-.014-41.787-.047-.12-.82-.714-1.626-1.32-1.484-1.122-1.788-1.34-3.674-2.598-1.513-1.01-1.41-1-1.096-2.164.36-1.336.353-3.172-.125-6.612-.354-2.54-1.633-11.47-2.524-18.677-.625-5.057-.773-6.18-.928-6.992-.248-2.048.02-2.94-.026-2.97 7.082 3.067 7.64-7.104.54-5.73 1.36-2.74 2.504-4.012 3.668-6.938-1.48-3.188-4.76-8.578-4.76-8.578l-5.187 9.035 3.054 6.25c-3.512-.632-5.376 1.925-4.726 4.218.706 2.028 2.65 2.597 4.366 1.78 1.32-.522 1.32-.654.148 9.256-.346 2.93-1.885 16.634-2.096 18.673-.143 1.37-.23 1.75-.79 1.447-.755-.325-1.187-.8-1.946-1.298l-.423.394c.674.547 1.472 1.254 2.288 2.004-.187 3.63-.112 5.73 2.908 7.502-5.476 3.433-2.273 8.713.942 9.476-1.917.495-3.808 2.96-3.35 7.86l1.554 20.19-14.845-11.02-8.714 12.47-22.956.028-25.895-23.365s-5.677-.076-8.007-.134c.265-.123-.488-7.223-4.236-11.857-4.073-4.844-13.345-12.838-13.34-12.84l9.738-9.887 54.67 49.206s.265 1.393.403 1.985c1.828 7.77 10.666 8.24 12.546.327.303-1.278.67-4.253.533-4.606-.044-.114.23-1.412.61-2.886 2.938-11.526 5.442-21.47 8.333-32.535.398-1.523.82-3.22.938-3.77.477-2.245.405-2.23 2.756-.462 1.438 1.084 2.034 1.472 2.034 1.472l.456-.477c-1.613-1.25-4.375-3.24-4.375-3.24l.028-.847c-8.876-6.355-10.704-8.043-15.96-12.208-4.072 3.586-9.896 2.134-13.546.865-.94-.37-3.25-.97-3.25-.97-9.09.01-17.077-1.744-24.62-4.21L140.76 26.59h-11.233l-.393.44h-5.845l-.02-.44-38.273.007zM192.25 196.924c0 .032.004 0 .004 0h-.005zm-74.1-169.157l3.976.077-23.534 41.988-2.5-.977s.228-.12.226-1.89c-.004-1.9-.414-2.71-1.27-3.832-.717-.97-1.022-1.024 1.077-.735 4.29.59 7.34-4.076 5.636-7.72-.657-1.403-.564-1.49 1.174-1.662 4.786-.478 6.647-6.55 3.26-9.574-.7-.634-.387-1.037.92-.755 4.14.894 7.347-3.697 5.702-7.295-.536-1.003-.054-1.17.702-1.27 3.545-.83 4.75-3.614 4.63-6.355zm-31.72.005l18.423.005c-2.48 3.79 1.897 6.036 2.452 5.77-3.972 2.17-2.882 5.227-.82 6.277 1.997 1.02 4.995.102 4.196-4.31l.986-.43c.96 1.085 1.91 7.803-5.4 6.868-1.3-.167-2.007 1.048-.918 1.72 5.775 6.642-3.266 9.576-3.66 8.475l-.03-1.124c2.445.45 5.574-2.7 2.83-5.502-1.56-1.592-6.083-.815-5.31 4.017-2.67-3.99-5.588-2.787-6.375-.68-.61 1.636.166 3.874 2.832 4.255-2.977 2.493-1.53 5.275.515 5.89 2.26.68 4.565-.242 3.942-4.345.035-.39.824-.262.89-.284 2.335 5.827-3.247 7.97-6.26 6.766-1.118-.436-1.702 1.286-.516 2.163 1.8 1.33 1.244 5.16 1.033 5.198-3.348-1.27-8.144-2.207-7.964-2.136 3.198-12.647 2.99-25.506-.845-38.592zm29.372.005l1.663.005c.022 2.38-1.012 5.313-5.077 5.765.018-.638-.028-1.243-.192-1.918 1.524-.348 3.546.076 3.606-3.853zm7.266.13l5.313.022-25 44.373-3.995-2.054 23.683-42.344zm-13.11 3.365c.94 0 1.703.76 1.703 1.697 0 .938-.762 1.702-1.7 1.702-.94 0-1.698-.764-1.698-1.703 0-.94.76-1.698 1.697-1.698zm-10.655 19.35c.87 0 1.573.703 1.573 1.572s-.704 1.577-1.573 1.577-1.572-.707-1.572-1.576.704-1.572 1.573-1.572zm82.3 1.255l4.23 7.366-4.827 8.55-4.03-8.193 4.627-7.723zm-.077 2.51L178.55 59.3l2.702 5.036 3.072-4.785-2.798-5.163zm.057 2.106l1.54 2.972-1.87 3.015-1.555-3.188 1.885-2.8zm-4.1 9.983c.32 0 .66.07 1.014.217 2.85 1.19 1.942 5.524-1.102 5.256-.4-.043-.93-.248-1.312-.506-2.112-1.733-.84-4.974 1.4-4.968zm6.966.082c2.492.045 3.994 3.513 1.37 5.136-1.267.705-3.16.277-3.905-.977-.64-1.075-.363-2.87 1.067-3.8.51-.26 1.006-.368 1.467-.36zm-3.462 4.948c.25.02.52 1.23.77 3.332.09.762.333 2.666.538 4.23.393 3.35.797 6.468 1.145 9.695.07.635.24 1.985.38 3 1.443 10.484 1.77 13.833 1.43 14.725-.91 3.126-5.176 3.364-6.96 1.548-1.346-1.372-1.544-2.88-1.014-6.81.307-2.268.433-3.408 1.332-12.078.21-2.03.516-4.73.68-6 .355-3.394.777-6.572 1.24-9.917.13-1.195.29-1.74.46-1.724zm-69.865 7.79s13.663 4.503 24.058 4.3c1.526-.003 1.774-.016 3.674.604 1.127.368 2.9.866 3.938 1.106 3.205.62 6.02.445 8.517-.572.39-.16.967-.643 1.547-.467.354.107.87.812.87.812-9.1 2.416-30.393 1.97-43.647-3.617l1.043-2.168zm70.196 1.433c-.058.01-.116.086-.184.19-.223.353-.038 2.66.79 9.998 1.58 14.018 1.572 14.317-.343 15.79-.94.726-1.087 1.017-.635 1.28.337.196.31.195.996.005 1.61-.447 2.277-1.727 2.265-4.337-.01-1.99-.034-2.23-.655-7.122-.215-1.692-.508-4.08-.654-5.31-1.036-8.73-1.275-10.546-1.58-10.495zm-71.573 1.466c13.603 4.87 27.815 6.25 44.946 3.62 0 0 1.647 1.067 2.477 1.592l-.577.135.26 2.366 2.91-.468s1.572 1.252 2.745 2.02c-15.275 4.664-39.945 3.86-55.165-2.904-.58-.334-.918-.6-.918-.6.328-.808.726-1.287 1.13-1.737l2.78.795.802-2.534-2.125-.773.735-1.51zm3.564 3.034l-.89 2.495 3.887 1.154.663-2.55-3.66-1.1zm5.944 1.543l-.515 2.842 3.9.722.484-2.765-3.87-.8zm6.453 1.332l-.308 2.74 4.135.44.255-2.775-4.083-.405zm28.424.044l-3.52.384.222 2.413 3.56-.418-.26-2.38zm-6.207.696l-3.49.23.12 2.53 3.51-.222-.14-2.538zm-15.728.053l-.005 2.687 3.577.135.044-2.745-3.615-.078zm9.837.335l-3.3.015-.013 2.56 3.33.014-.018-2.59zm-38.247.452c.355-.01 1.17.782 1.505 1.67.66 1.743.357 3.677-.678 4.317-1.41.87-3.067-.493-2.097-1.727.17-.218.447-.438.615-.49.725-.23.895-1.372.5-3.347-.057-.29.016-.418.155-.423zm5.275.67c14.724 4.82 31.432 6.438 48.645 2.913 0 0-8.157 33.312-8.334 33.328l-40.31-36.242zm-7.218.1c.775 0 .916 1.314.217 2.014-.894.895-2.597.178-2.242-.94.103-.327 1.512-1.074 2.024-1.074zm4.23.774c.162-.01.466.308.948.958 1.654 2.227 1.784 4.714.304 5.847-1.736 1.33-3.005-.732-1.56-2.534.376-.465.43-1.327.208-3.234-.078-.68-.06-1.024.1-1.035zm57.094.803c.19-.006.527.14 1.202.472 1.056.517 1.422 1.272.914 1.885-.738.89-2.762-.872-2.38-2.072.058-.183.117-.28.264-.285zm-1.587 1.16c.264.026.687.51 1.178 1.495.314.633.498.813 1.03 1.005 1.258.455 1.49 1.76.384 2.146-1.203.418-2.1-.446-2.65-2.56-.363-1.394-.282-2.122.057-2.087zm-52.67.932c.184-.01.533.398 1.087 1.217 1.646 2.43 1.08 7.09-.995 8.18-.914.48-1.55.377-2.284-.356-1.07-1.07-.808-1.92.784-2.505 1.355-.497 1.793-2.04 1.375-4.847-.167-1.12-.173-1.675.034-1.688zm7.84.77c10.054 8.292 19.132 17.18 30.832 27.56 2.778-8.55 6.83-26.3 6.842-26.357-.44.364-19.653 3.09-37.675-1.203zm37.674 1.202c.01-.008.013-.014.005-.02l-.006.02zm6.237-1.178c.168 0 .653 1.246.93 2.384.25 1.03 1.245 2.758 1.63 2.822 1.98.336 2.825 1.44 1.846 2.42-.72.718-2.274.31-3.024-.79-1.41-2.066-2.372-6.837-1.38-6.837zM48.468 96.063c1.195.01 2.345.763 2.635 2.317.338 1.81-.685 3.125-1.55 2.914-.94-.352-1.26-1.84-1.26-1.84s-.224 1.214-.61 1.826c-.842 1.287-2.614-.624-2.297-2.477.31-1.808 1.727-2.75 3.082-2.74zm71.566.475c10.95 1.645 20.37 2.07 33.435.653l-6.155 23.898-27.28-24.55zm-8.27.037c.162.01.495.303 1.015.852 1.7 1.8 2.192 4.295 1.086 5.534-.673.754-1.126.84-1.842.35-.913-.625-.982-1.566-.144-2 .77-.398.84-1.273.23-2.933-.453-1.236-.582-1.817-.345-1.803zm-71.437.617l4 1.658 1.434 3.38-3.99-1.028-1.444-4.01zm15.127.447l-1.188 3.366-3.077 1.15 1.197-3.64 3.068-.875zm104.362.708c.148-.003.368.423.635 1.303.66 2.18.94 2.73 1.544 3.016.98.47 1.054 1.66.125 2.082-.59.27-.784.214-1.203-.336-.653-.856-1.18-2.496-1.274-3.968-.09-1.38-.02-2.094.172-2.096zm-44.537 1.52c.116-.01.286.16.54.46 1.553 1.848 1.722 4.682.33 5.53-1.348.82-3.233-.874-2.058-1.852.105-.088.35-.284.543-.433.327-.25.355-.396.385-2 .02-1.19.066-1.693.26-1.706zm11.808.196l19.153 17.406 4.396-17.22c-7.564.68-15.468.48-23.55-.186zm-47.05.876c6.05 6.39 13.968 11.554 15.848 17.907 3.37 8.745.9 18.892-6.99 24.696-4.356 3.296-8.625 6.766-12.177 10.954-5.826 6.203-9.715 12.98-13.608 17.897-.66.827-2.4 3.43-2.4 3.43s-.852.973-3.697-1.414c-7.552-6.715-15.476-11.585-23.543-16.225l3.414-1.91c6.735 3.84 15.107 9.307 22.64 15.677 0 0 5.988-8.746 7.9-11.252 2.77-3.597 4.718-5.913 7.3-8.693 6.59-8.138 13.396-10.83 16.228-14.95 4.148-6.037 4.326-13.193.914-19.302-3.365-5.83-9.907-9.826-14.253-14.652l2.422-2.163zm57.433.47h7.486s-1.1.917-1.942 1.48c-.53.355-1.147.306-2.313-.182-1.13-.473-3.23-1.298-3.23-1.298zm8.573 0l1.745.053c-1.305 1.64-2.643 2.697-4.395 4.155-.227.097-.353.137-.88-.034-3.58-1.184-6.863-2.688-10.35-4.11l3.107-.016s1.495.478 3.74 1.41c2.576 1.067 3.244 1.395 4.237.744.96-.636 1.753-1.595 2.796-2.202zm3.534 0l-.625 2.294c-1.044 1.304-3.156 2.808-4.92 4.29-.413.215-.4.254-2.206-.448-6.655-2.584-9.872-4.265-9.872-4.265l-1.352-1.206s1.735.496 2.88.947c.78.31 2.11.813 2.958 1.126.846.312 2.718 1.108 3.967 1.602 2.88 1.137 2.722 1.17 5.48-1.265 2.99-2.638 3.69-3.073 3.69-3.073zm-100.822.212l2.904 3.327-3.872 3.255-2.923-3.443 3.89-3.14zm110.2.003c.67 1.25 1.117 2.73 2.2 3.78.817.78 1.02 1.38.536 1.818-1.262.78-1.48-.48-1.87-1.304-.69-1.452-1.53-3.414-.864-4.295zm-105.026.333c.073-.002.148 0 .226 0 3.097.047 3.828 4.624.913 5.723-1.045.395-2.248.216-2.896-.432-.63-.63-.717-1.16-.285-1.49.67-.477 2.27-.51 2.27-.51s-1.45-.492-2.1-.854c-1.273-.726-.17-2.354 1.87-2.436zm63.767.005c.175.01.477.366.903 1.072 1.562 2.58 1.48 7.49-.148 8.732-.848.646-1.902.554-2.61-.23-.936-1.034-.647-2.08.74-2.692 1.34-.593 1.612-1.917 1.067-5.188-.192-1.14-.18-1.706.047-1.694zm-75.154.082c.924-.032 1.816.33 2.26 1.058.327.54.17.936-.45 1.204-.753.298-2.18.567-2.18.567s1.384.228 2.22.567c1.05.463.968 1.312-.566 2.04-2.954 1.404-5.745-2.43-3.31-4.633.57-.512 1.306-.776 2.026-.802zm77.678 1.852c.022-.004.047-.004.073 0 .27.033.77.426 1.274 1.092 1.76 2.33 2.066 5.836.567 6.52-1.584.72-2.723-.767-1.582-2.068.808-.92.707-2.27-.366-4.938-.155-.39-.118-.583.035-.607zm38.032.11c.14-.01.392.55.798 1.683.896 2.494 1.66 3.54 2.583 3.54 1.157 0 1.764 1.586.85 2.226-1.804 1.265-4.168-1.833-4.34-5.693-.054-1.16-.03-1.745.11-1.756zm-9.54 1.245l-.534 2.034s-1.23 1.196-2.11 1.957c-1.398 1.208-1.743 1.448-2.847 1.072-1.698-.586-3.38-1.117-5.15-1.653l-4.09-3.386 9.337 3.645s.81.24 1.092-.042c1.22-1.222 2.564-2.17 4.302-3.626zm8.81 1.904c.117-.026.234.123.316.496.424 1.915 1.037 3.304 1.554 3.52.654.273.905.84.63 1.418-.795 1.667-2.885-1.276-2.885-4.062 0-.79.19-1.327.385-1.372zm-33.704.135c.114-.006.298.165.587.453 1.29 1.29 1.682 4.858.645 5.896-1.5 1.497-3.1-.73-1.645-2.29.384-.412.385-.44.293-2.27-.065-1.272-.07-1.777.12-1.79zm-78.227.358l-1.01 3.347-3.226.832.755-2.756 3.48-1.422zm3.867.34c.256-.01.546.088.852.31 1.313.95 1.42 2.578.807 3.78-.588 1.17-1.79 1.507-2.953 1.39-1.508-.17-2.646-1.22-2.567-2.83.026-.805.378-1.7.923-2.08.385-.27.7-.16 1.032.393.31.54.84 1.762.84 1.762s.017-1.253.194-1.898c.144-.515.463-.81.87-.825zm2.462.293l2.336.8.924 3.174-2.616-1.015-.645-2.96zm133.246.594s.67.283 3.86 2.817c.8.635 2.146 1.847 2.146 1.847l-.077 41.417s-6.292-3.4-7.107-4.207c-.435-.465-.225-1.765-.07-4.126.738-6.2 1.04-10.955 1.835-16.694.557-6.398 1.787-8.235-2.496-10.948 4.61-2.895 3.31-7.397.416-9.273l1.493-.83zm-37.584.158l-.424 1.895c-1.517 2.597-2.875 2.464-5.198 1.26l-2.788-2.37c1.804.375 2.774.953 4.54 1.51.874.24 1.195.086 1.81-.467.71-.646 1.244-1.127 2.06-1.828zm-20.677.996c.945 1.03 1.192 2.048 1.11 4.56-.182 1.784-.102 3.114-1.567 4.115-.715.47-1.952.47-2.505.005-1.326-.89-.595-2.664 1.143-2.75 1.097-.02 1.548-3.605.925-5.843-.095-.348-.07-.576.102-.593.17-.016.492.177.793.506zm29.635-.135c.213-.002.59.543.812 1.433.324 1.29.778 2.013 1.49 2.376.914.466 1.21 1.36.626 1.89-1.162 1.052-2.35-.21-2.73-2.9-.018-.306-.552-2.77-.198-2.8zm24.948.442c2.592.04 4.058 1.854 4.055 4.053-.028 1.585-.895 3.196-2.488 3.865-3.807 1.12-5.885-1.428-5.85-3.906.03-2 1.69-4.052 4.283-4.012zm-52.318 1.438c2.18 2.18 2.277 6.843.144 6.843-2.56-.847-.562-2.357-.514-2.75.2-1.606-.17-2.636-.544-4.136-.165-.887.674-.217.914.043zm52.457-.21c-.458-.015-.425.445.413 1.167 1.52 1.31.775 3.727-1.15 3.736-.887.005-1.104.603-.33.914 2.99 1.2 5.03-3.344 2.35-5.237-.56-.395-1.008-.573-1.283-.58zm-114.33.61c2.406.818 3.236 5.402 3.328 7.02.107 2.813-1.202 7.414-2.37 8.333-3.027 2.38-4.445-6.033-1.857-11.45.227-.442.51-1.042.404-2.148-.105-1.098.08-1.748.496-1.756zm79.5.442s-.302 1.374-.624 2.125c-.373.87-.647.897-1.515.154-.483-.413-1.284-1.27-1.284-1.27.756.118 1.43.51 2.072.192.685-.338 1.238-.973 1.352-1.2zm9.133.072c.17.006.39.484.678 1.433.792 2.597 1.484 3.573 2.534 3.573 1.72 0 2.094 2.07.472 2.602-.602.196-.805.195-1.573-.01-1.156-.31-2.74-4.215-2.514-6.203.106-.935.233-1.4.404-1.395zm-105.886 1.51c.63-.016.88.296 1.25 1.062.422.872 1.53 1.982 2.467 2.466 2.26 1.11 4.64 1.98 6.872 3.092 2.896 1.455 5.49 5.907 3.713 6.372-.644.148-1.385.156-2.044.096-.214-.112-.634-.6-.932-1.087-1.32-2.16-3.79-4.276-7.598-5.266-2.685-.698-5.09-4.005-5.607-5.56-.134-.402-.14-.718.222-.822.764-.22 1.28-.347 1.66-.355zm81.63.27c.12-.02.297.133.563.417 1.598 1.708 1.797 4.845.36 5.732-1.556.962-2.92-.63-1.697-1.98.54-.597.54-.597.54-2.386 0-1.233.035-1.752.235-1.784zm23.265 1.99c.19.007.478.537.826 1.58.493 1.482.56 1.6 1.125 1.89.956.495 1.11 1.233.41 1.935-1.306 1.306-2.62-.796-2.626-4.193 0-.818.096-1.22.265-1.214zm-20.89.235c.117.01.45.27.707.578 1.958 2.32 1.564 7.758-.62 8.573-.73.272-.95.287-1.404.092-1.628-.705-1.43-2.424.577-3.516 1.5-.817.43-5.707.74-5.728zm-100.1 1.713l8.083 4.01s2.215 4.665 3.235 6.415c.7 1.213 2.102 2.384.654 3.192-2.432 1.648-3.81 2.588-3.79 3.61.02.83 1.048 1.674 2.434 3.305 1.99 2.343 1.97 1.803.164 5.376-1.386 2.506-2.563 8.18-2.563 8.18l-8.165 4.207c2.43-5.803 5.29-10.74 8.497-14.27-2.383-1.77-4.385-3.61-6.474-6.055 1.54-2.064 3.575-3.73 5.453-5.525-3.814-4.312-6.202-8.446-7.53-12.445zm102.23.07h.044c.34.023 1.113.866 1.794 2.218.88 1.747.964 3.946.183 4.728-1.346 1.348-3.1-.384-1.84-1.817.887-.645.645-2.25-.054-3.92-.323-.8-.318-1.176-.125-1.207zm-103.125.785c2.104 4.47 4.456 8.104 6.867 11.546l-5.26 5.52c1.618 1.88 3.582 3.898 6.337 6.242-3.384 3.762-5.604 9.03-7.824 14.003l-.12-37.31zm120.984.097c.182.013.44.555.706 1.645.336 1.373.565 1.725 1.366 2.067 1.272.545 1.302 1.773.053 2.216-.458.162-1.314-.298-1.67-.9-.466-.858-.706-2.014-.7-3.07-.074-1.312.038-1.975.244-1.96zm29.167.827c1.988.558 2.707 2.55 2.32 6.24-.52 4.938-1.13 10.43-1.626 14.965-.57 5.23-.9 7.95-1.028 8.155-.403.652-.47-1.806-.178-4.54.444-3.907.69-7.328 1.067-11.232.846-8.687.64-11.432-.932-12.233-1.216-.62-1.738-.254-.842.592 1.71 1.318 1.656 1.87-.173 23.26-.188 2.212-.265 3.778-.265 3.778l-2.322-1.442s-.173-1.833-.39-4.602c-.524-5.215-.83-10.774-1.18-15.772-.37-5.332.627-7.198 3.935-7.328.532-.022 1.12.02 1.617.158zm-42.675 3.098c.254.706 1.407 5.967-1.544 4.456-.787-.444-.83-1.14-.25-1.813.65-.755.802-1.84.477-3.39-.198-.943-.438-1.726-.438-1.726.57.208 1.69 2.29 1.755 2.472zm-87.752-1.65c2.497.476 5.24 1.932 7.007 3.753 1.097 1.165 1.04 2.104-.674 2.213-1.65.243-1.686.512-2.474-.17-.355-.278-1.045-.958-1.83-1.08-2.49-.385-3.763-5.043-2.03-4.715zm100.77 1.38c.263.422.29 1.254.51 1.85.372 1.667 1.516 2.9 2.543 2.746.69-.083 1.644.126 1.745.952.2.7-.166 1.36-.923 1.664-.854.342-1.82.132-2.55-.553-1.535-1.443-2.473-6.155-1.326-6.66zm-12.01.064c.897.343 2.04 3.21 2.16 5.483-.003 1.628-.254 3.676-1.658 4.452-.892.46-1.813.23-2.217-.55-.494-.954-.127-1.942.895-2.403 1.25-.564 1.656-3.1.895-5.574-.043-.412-.668-1.58-.074-1.41zm-95.362 1.19l6.588 3.337c-.96 1.31-1.712 2.522-2.23 3.905-2.095-2.375-3.193-4.796-4.358-7.242zm97.84 1.142c.112-.003.49.358.823.68 1.646 1.592 2.355 4.483 1.36 5.54-.792.845-2.18.786-2.412-.102-.084-.435.378-1.25.58-1.64.305-.582.36-2.243-.1-3.457-.205-.545-.397-1.02-.25-1.022zm-45.768.657l7.443.254 24.938 22.46-2.34-.053-22.913-20.88-7.132.02.005-1.802zm-42.886 4.046c-2.842 4.518-3.617 10.21-1.872 15.27 1.325 3.59-1.567 3.805-2.755 1.44-.912-1.77-1.437-4.846-1.16-8.123.39-5.3 2.836-10.618 4.794-11.257 1.99-.65 1.552 1.95.994 2.67zm102.18 10.87c-.755 3.533-2.156 5.292-4.144 6.026-8.142 3.007-11.688-13.414-4.136-17.34 7.2-2.393 9.28 6.65 8.28 11.315zM97.8 130.253l7.02.145c6.4 5.82 13.28 11.253 20.13 18.33h-3.312s-.97-.92-1.197-1.14c-6.192-5.528-10.777-10.042-16.745-15.18l-6.266-.174.368-1.98zm53.564 1.083c-3.796.153-4.105 5.297-3.99 7.245.275 2.807 1.394 6.954 4.957 6.627 2.613-.26 3.823-3.356 3.584-7.074-.225-3.5-1.652-6.8-4.552-6.798zm-54.204 1.706l6.16.14c5.427 4.733 11.166 9.874 16.868 15.547h-2.688s-.702-.67-.914-.885c-4.616-4.173-9.31-8.824-13.786-12.574l-6.39-.25.75-1.977zm54.304.203c1.078.4 1.26 3.024.317 4.112-.646.745-2.128-.666-2.26-2.443-.08-1.084.972-2.028 1.942-1.67zm-101.807.328c-.496 1.698-.82 3.606-1.024 5.67l-2.576-3.274 3.6-2.395zm103.764 3.16c.63 0 1.14.51 1.14 1.14s-.51 1.14-1.14 1.14-1.14-.51-1.14-1.14.51-1.14 1.14-1.14zm-51.756.572l12.276 11.54-3.496.04-10.07-9.128-6.39-.24 1.25-2.18 6.43-.032zm47.745.197c.63 0 1.14.51 1.14 1.14s-.51 1.14-1.14 1.14-1.14-.51-1.14-1.14.51-1.14 1.14-1.14zm14.613.024c6.92 5.378 16.69 12.515 26.837 18.3 0-.02-1.673 1.315-3.213 1.737-7.896-4.353-17.294-10.494-23.114-15.474-5.495 8.09-16.05 22.804-25.433 29.598-5.922 4.235-8.904 9.457-8.887 15.56.018 6.314 2.247 10.424 8.458 15.595 4.008 3.335 8.388 7.593 8.388 7.593l-2.304 1.985c-.383-.047-6.72-5.507-13.132-11.944-3.523-3.538-5.09-11.303-4.49-15.493.814-5.697 2.714-9.78 8.115-14.18 2.074-1.605 4.17-2.853 5.997-4.68 16.784-17.953 22.78-28.596 22.78-28.596zm-11.234 2.932c.634 1.305.982 3.016-1.006 3.13-1.178.068-1.853-1.893-.832-3.64.773-1.374 1.46-.204 1.837.51zm-59.146-.345l6.626.197s6.535 5.696 9.834 8.854H132.3c12.207 0 22.24.05 22.298.106.15.15-1.577 2.472-1.577 2.472l-73.206.043c.016-.01 4.522-4.023 6.136-5.148 2.858-1.995 5.477-3.85 7.694-6.52zm-44.86 2.755c.48 1.768.88 3.57 1.707 5.198l-5.082 2.697c.934-2.69 2.004-5.277 3.376-7.895zm141.142 14.696c-1.01 2.752-3.65 8.364-6.842 12.618-.634.815-1.068 1.453-1.068 1.453l6.228 5.963-5.405 5.747c3.035 3.158 5.603 7.996 6.953 11.848-2.452-.968-3.83-1.554-6.853-3.236-.855-2.145-1.727-4.417-2.688-6.376-2.205-4.47-2.175-4.032-.375-5.347 2.637-1.927 3.42-2.373 2.736-3.343-.48-.683-3.592-4.376-3.78-4.492-.285-.176-.158-.723.37-1.596 1.803-3.237 3.28-6.805 4.2-9.975l6.523-3.264zm1.18.226l.162 37.575c-2.23-4.488-4.55-9.074-7.136-11.94-.098-.193 5.64-5.798 5.64-5.798-2.103-1.948-3.332-3.113-6.27-5.818 2.86-4.123 5.125-9.514 7.603-14.018zm-157.92 1.304l7.14 4.145c-.38 5.3-.855 12.258-1.586 19.316-.613 5.51-.866 8.047.11 9.575.826 1.118 3.056 2.327 3.056 2.327-3.755 1.52-5.202 6.003-.993 9.357 0 0-1.022.803-1.476 1.288l-5.857-4.38-.395-41.628zm111.746 1.9c-1.78 1.994-4.57 4.952-6.713 6.366-2.856 1.887-6.867 5.51-6.675 5.563 0 0-4.203-.022-7.05-.136l-9.82-8.76s.353-.13-13.01-.02c-17.272.14-31.267-.05-31.267-.05l1.962-2.755 72.572-.21zm35.002 1.72c-.967 3.106-2.467 5.98-4.366 8.67-.44-1.91-.682-3.937-1.6-5.56l5.966-3.11zm-138.704.996l.856.61s-.51 6.483-.68 8.382c-.3 3.506-.447 6.665-.754 10.237-.614 7.092-.512 8.138.88 9.232 1.07.802 1.802.438.852-.577-.626-.805-.623-.788-.812-1.972-.132-.822-.11-2.05.077-5.376 1.06-18.737 1.278-19.368 1.302-19.374l2.135 1.38c-.12.288 1.955 18.887 1.744 23.51-.245 5.406-7.52 4.212-7.866.2-.143-.922 1.238-16.103 1.238-16.103l1.028-10.15zm59.352 1.092l2.856.08 17.62 16.196 6.005.13-.524 2.044-5.805-.015-20.153-18.435zm10.926 0h2.765l10.084 9.14 6.207.098-1.183 1.76-6.173-.178-11.7-10.82zm-3.443.01l14.906 13.44 5.084.264-.783 1.837-6.024-.17-16.75-15.34 3.57-.033zm-14.373.048h3.097l23.302 20.98 6.106.11-.09 1.89-7.354-.034-25.062-22.946zm78.42.595c1.228.31 1.835 1.5 2.7 5.92 1.013 5.154-1.18 13.52-3.923 15.09-1.42 1.117-2.966-.067-1.963-1.524 3.274-4.756 3.707-12.536 1.77-16.888-.614-1.398.018-2.85 1.414-2.597zm-98.867.776c7.446.09 9.37 15.38 2.046 17.525-4.757.703-7.207-3.603-7.897-7.49-.814-4.828 1.313-10.09 5.852-10.034zm-4.092 9.174c.445 3.064 2.346 6.574 5.108 6.274 3.635-.395 4.09-5.246 3.73-7.688-.434-2.947-2.058-5.618-4.653-5.766-3.87-.218-4.527 4.815-4.184 7.18zm3.992-5.952c1.038-.017 1.803 1.37 1.52 3.092-.184 1.115-.608 2.486-1.86 1.555-.585-.532-1.107-2.095-.967-3.262.09-.767.47-1.364 1.307-1.385zm102.673 3.534l3.496 4.044-3.972 2.784c.558-2.128.742-4.39.476-6.828zm-100.14.365c.63 0 1.14.515 1.14 1.145s-.51 1.14-1.14 1.14-1.14-.51-1.14-1.14.51-1.145 1.14-1.145zm-4.077.702c.63 0 1.14.51 1.14 1.14s-.51 1.14-1.14 1.14-1.144-.51-1.144-1.14.515-1.14 1.145-1.14zm2.31 1.47c.57.175.937.7 1.244 1.158.763 1.135.862 2.56.32 3.154-1.095 1.3-2.806-.09-2.6-2.1.153-1.472.543-2.36 1.035-2.21zm9.76 4.464c1.635 0 2.097 1.928.688 2.87-.916.613-1.12 2.606-.554 5.366.46 1.994.22 2.302-.97.505-2.032-3.257-1.508-8.74.836-8.74zm-3.822 1.047c1.434-.054 1.895 1.042 1.058 1.88-.49.545-.44 1.98.105 3.16.775 1.71.593 2.226-.854.582-2-2.138-1.97-5.557-.308-5.62zm94.797.834c1.627 2.163 3.07 4.985 4.386 8.185l-7.054-3.242 2.67-4.944zM71.56 190.56c-.5-.577-.742-2.448-1.15-3.248-.32-.96-.596-1.52-1.114-1.486-2.98.252-2.854-2.598-1.143-3.137 3.54-1.115 4.832 7.434 3.406 7.87zm14.788-2.876c-.506 1.494-.138 2.387-.033 3.983.09.725.126.915-.47.36-1.413-1.234-2.165-5.444-.892-6.225 1.712-1.048 2.232.724 1.395 1.882zm70.673-1.998c.693-.03 1.48.507 1.867 1.496.56 1.423.508 4.913.226 6.77-.432 2.844-1.117 5.456-1.4 7.41-.997 1.188-3.456-3.01-3.687-6.322-.387-2.627.518-8.085 2.54-9.237.142-.07.296-.11.455-.117zm9.525.448c.618-.028.478.18.935.658.694.727.977.903 1.957 1.212 2.023.636 4.248 3.457 3.39 4.313-.676.537-2.52-.477-3.148-.692-.68-.233-1.524-.524-1.882-.645-1.695-.572-4.134-3.698-3.375-4.328.404-.336 1.642-.496 2.122-.518zm-4.93.52c1.252.012 1.595.324 2.31 1.673 1.064 2 3.038 3.41 5.906 4.222 3.662 1.116 6.82 3.238 6.666 7.17-.873.008-1.747.066-2.62.332-1.014-2.852-3.534-4.486-5.704-4.98-5.005-1.135-9.65-6.212-8.328-8.227.577-.295 1.196-.2 1.77-.192zm-86.33.25l43.233 37.65c-18.245-6.77-34.983-6.623-51.17-4.12l7.936-33.53zm18.438 2.492c-.082 1.172-1.69 1.423-2.022 1.712-.808.703-.7 2.732-.354 5.1.265 1.422-.09 1.358-.837.245-1.324-1.97-1.297-5.39-.42-7.404 1.13-2.596 3.746-1.297 3.633.346zm-24.863-1.844c1.658.172 2.115 2.428 2.184 3.924 0 2.06-.585 1.983-.914 0-.156-.88-.43-1.22-1.14-1.433-1.613-.483-1.718-2.49-.13-2.49zm20.09 2.304c-.425.467-.435 2.652-.048 4.12.214.813-.182.876-.73.23-1.79-2.097-1.954-5.654-.294-6.342 1.352-.35 1.702 1.298 1.072 1.992zm-18.705 4.207c.04 2.094-.438 2.287-1.068.28-.16-.468-.448-.938-.653-1.078-1.178-.806-1.385-1.434-.702-2.116 1.674-1.37 2.4 2.29 2.423 2.913zm6.32-1.847l-5.863 25c14.428-1.21 20.982-1.463 36.396 1.55l-30.534-26.55zm17.478.414c.882.22 1.187 1.372.158 2.462-.337.432-.65 1.098-.24 2.865.564 2.418-.384 1.645-1.538-.64-.74-1.46-.4-5.194 1.62-4.687zm-27.596.077c1.567 0 3.02 2.544 3.044 5.327.017 2.25-.304 2.088-1.14-.062-.588-1.422-1.062-1.937-2.13-2.308-1.978-.688-1.806-2.957.227-2.957zm10.592.72l27.148 23.727c-11.117-1.776-22.03-1.913-32.63-.582l5.48-23.144zm22.595.896c2.13 0 2.968 2.63.356 3.552-1.556.548-.892 3.695-.605 5.565.108.705-.114.754-.562.125-1.64-2.422-2.558-8.527.812-9.242zm-2.875 2.957c-.387.61-.43 1.263-.164 2.443.69 2.537.87 3.007-.572 1.717-1.518-1.604-2.18-4.782-.908-5.723 1.427-1.057 2.713.115 1.644 1.563zm-53.65-1.958c2.52-.02 4.352 1.613 4.255 3.888-.106 2.506-1.676 4.086-3.98 4.218-2.572.13-4.162-1.923-4.22-4.05-.05-1.88 1.145-4.037 3.946-4.056zm-.043 1.005c-2.884-.01-3.965 3.794-1.577 5.55 1.023.752 1.832.54.99-.26-1.585-1.508-.948-4 1.14-4.458 1.033-.227.632-.83-.553-.833zm35.117.645l-3.472 16.84c7.103-1.104 15.694-.767 22.326-.145l-18.854-16.695zm-11.694.64c1.727-.088 2.232 2.51 2.245 3.544.002 1.337-.156 2.033-.402 1.318-.58-1.686-1.155-2.612-1.78-2.612-.338-.086-.627-.223-.9-.528-.614-.812-.02-1.688.837-1.722zm12.016.672l2.29 1.943c-1.474-.646-2.728 1.024-2.728 1.024l.438-2.966zm23.558 3.18c-.664.835-.66 2.598-.145 4.65.144.573-.394.147-.934-.535-1.024-1.292-1.506-2.805-1.32-4.046.207-3.135 4.186-2.524 2.398-.07zm-36.21-1.5c1.482.167 2.04 3.26 2.006 4.197-.048.98-.27 1.642-.466 1.046-.38-1.292-1.17-3.15-1.852-3.575-1.17-.728-.84-1.563.313-1.667zm113.42 3.464c.052 1.092-.402 2.208-1.074 2.567-.687.368-1.105-.13-1.516-1.388-.302-.924-.408-1.28-.408-1.28s-.254 1.157-.335 1.4c-.534 1.603-2.278 1.62-3.01-.174-.776-2.09 1.395-4.233 3.064-4.157 1.85.086 3.18 1.28 3.28 3.032zm-98.94-2.335c.52 0 2.538.904 2.538.904l2.01 1.78s-1.85-.805-2.5-1.035c-1.557-.55-1.523-.556-2.78.47-1.293 1.06-2.355 1.834-2.355 1.834l.4-2.284s1.89-1.67 2.686-1.67zm-13.19 5.61c.296 2.415-.38 2.62-1.034.313-.562-1.974-1.114-2.692-2.067-2.692-1.757.262-2.348-2.343-.77-2.866 2.977-.836 3.744 4.294 3.87 5.246zm102.038-5.293l2.746 1.274.582 2.842-2.53-.625-.798-3.49zm-61.54.262c2.644-.732 2.97 2.557.944 3.043-1.236.296-1.23 2.212-.877 4.995.08.635.25 1.404.21 1.51-.188.503-.816-.266-1.663-2.05-1.265-3.25-.87-6.872 1.386-7.498zm75.538-.04l-.765 3.288-2.322-.158-.087-2.015 3.174-1.116zm-78.25 2.138c-1.27 1.843-.128 3.543.154 4.984.05.838-1.032.018-1.655-1.203-1.3-2.546-1.375-4.602-.207-5.52 1.636-.957 2.388.756 1.708 1.74zm-23.827-.45c.45.005 1.06.248 2.337.74.97.373 3.212 1.284 3.212 1.284l2.967 2.62s-2.605-.96-4.42-1.726c-4.084-1.726-3.498-1.78-6.727.678-.933.71-1.904 1.52-1.904 1.52l.393-2.106s1.22-1.212 2.74-2.308c.656-.473.95-.707 1.4-.702zm-37.997.995c2.09-.058 3.464 1.604 3.967 3.462.29 1.076.04 2.07-.02 3.102-1.442 11.056-2.077 21.315-3.404 31.554-.164.488-.342.307-.554-.572-1.536-9.282-2.536-19.47-3.828-28.67-.295-3.434-1.182-7.925 3.164-8.804.23-.046.457-.067.674-.073zm-.125 1.226c-.922.037-2.012.67-2.398 1.486-.79 1.666-.585 5.06.918 15.225.125.847.3 2.26.385 3.14.264 2.7.622 4.844.88 5.242.49.76.555-.057.202-2.697-.18-1.348-.425-3.408-.544-4.578-.675-4.82-.82-8.252-1.24-12.65-.21-2.163.66-3.757 2.294-4.19.884-.232.93-.63.105-.898-.185-.062-.39-.088-.6-.08zm138.248.136c3.054.007 4.176 4.282 1.188 5.79-1.108.56-2.97.295-3.43-.6-.225-.694.026-1.1.58-1.394.674-.358 1.663-.666 1.663-.666s-1.618-.313-2.073-1.08c-.983-1.65.82-2.02 2.07-2.05zm-114.878 4.61c-.034.807-.445.474-.548 0-.33-1.07-1.016-2.234-1.592-2.697-.696-.56-.86-1.317-.39-1.79 1.773-1.565 2.52 3.985 2.53 4.487zm103.59-4.622c.782-.022 1.845.243 2.518.915.868.867.82 1.193-.634 1.723-.706.263-1.192.467-1.192.467s.656.258 1.143.394c1.395.466 1.32 1.274.04 2.23-1.743 1.302-4.545-.426-4.512-2.718.025-1.816 1.145-2.97 2.637-3.012zm6.445-.012l2.79 3.072-3.26 3.376-3.07-3.366 3.54-3.082zm-94.777.288c.04-.002.078 0 .12 0 .864.017 2.244.6 5.626 1.962 1.858.75 4.006 1.602 4.006 1.602l3.044 2.693s-4.17-1.31-5.62-2.044c-.316-.16-1.01-.455-1.54-.654s-1.85-.716-2.93-1.15c-2.32-.934-2.347-.94-3.124-.283-.333.28-1.15.92-1.813 1.423l-2.154 1.635c-.614.467-1.39 1.174-1.39 1.174l.49-2.598s.44-.43 1.222-1.03c.635-.484 1.717-1.313 2.404-1.84.697-.538 1.06-.864 1.658-.892zm29.933 2.28c.087.54.036.644-.586 1.278-.785.802-.892 2.115-.317 3.818.16.47.353 1.025.31 1.068-.83.83-3.014-4.407-2.492-5.97.622-1.864 2.672-1.892 3.086-.195zm-47.87.226c.573-.027 1.236.406 1.57 1.308.9 2.52.35 5.612-.573 2.73-.24-.608-.652-1.264-.967-1.596-.323-.344-1.05-.743-1.034-1.303.07-.735.5-1.116 1.005-1.14zm18.664.072c.365.012.854.193 1.73.553.793.325 3.024 1.07 4.294 1.56 1.972.76 4.03 1.764 4.03 1.764l-4.463-.25s-1.517-.504-2.42-.875c-3.267-1.344-3.085-1.337-4.71-.102-.582.44-1.313 1.154-1.313 1.154l-2.27.125s1.066-1.14 2.605-2.28c.504-.373 1.192-.905 1.524-1.183.387-.32.628-.478.994-.466zm34.91.88c1.243-.235 1.924.948 1.845 1.687-.087.81-.84 1.617-1.996 1.842-.243.906-.937 2.973-.532 6.055.326 1.444-.285 1.477-.91.092-1.01-2.246-2.482-8.904 1.593-9.676zm-3.544 2.47c-.526 1.127-.71 2.033-.418 3.453.323 1.58.39 1.97-.505.982-1.737-2.315-1.99-6-.39-6.425 1.546-.407 1.885 1.27 1.313 1.992zm-52.057-1.725c2.71.43 3.51 5.046 3.13 7.02-.718 2.392-.683.776-.933-.22-.667-2.405-1.44-3.715-2.265-3.853-2.223-.37-1.912-3.26.068-2.947zm20.772.91c.047-.005.088 0 .13.008.892.15 3.28.888 2.25 1.136l-3.524.02c-.683.024.446-1.115 1.145-1.164zm94.913.754c.342-.03.808.37 1.355.928 1.254 1.277.704 3.292-.99 4.284-2.66 1.56-5.688-1.38-4.227-4.078.8-1.48 1.764-1.217 2.586.873.15.254-.002-.262.28-.897.28-.634.655-1.08.996-1.11zm-4.463.148l-.798 3.213-3.24 1.558 1.182-3.958 2.855-.813zm6.743.55l2.582.205 1.433 4.174-3.722-1.586-.292-2.794zm-61.017 2.358c1.88.078 2.07 1.852.99 2.628-.603.58-.812 1.417-.687 2.756.056.596.174 1.324.168 1.41-.017.284-.253.24-.576-.11-1.983-2.164-1.718-6.76.107-6.683zm-56.813.694c1.19 0 2.54 3.41 1.876 4.715-.418.766-.822.577-.975-.312-.114-.647-.484-1.532-1.444-1.69-1.395-.446-.94-2.712.543-2.713zm60.247 2.063c.91.47.995 1.516.174 2.102-.638.453-.806.837-.904 2.067.21 2.8-1.364 1.02-1.513-1.525-.08-1.386.67-3.443 2.244-2.645zm-61.247.86c.854 0 1.87 1.534 1.645 2.43-.12.712-.492.586-1.015.058-.202-.157-.655-.32-.866-.385-1.278-.386-1.063-2.102.237-2.102zm24.28 1.18c11.545-.055 23.556 1.777 33.54 5.765l-.823 1.476-2.62-.898-.9 2.376 2.16.822-1.016 2.192c-11.782-3.875-24.488-6.76-45.604-3.635-1.05-.73-2.943-2.17-2.943-2.17l1.69-.37-.223-2.346-4.266.76-1.244-1.303c6.667-1.71 14.35-2.63 22.25-2.668zm38.727.514c1.105 0 1.79 1.242.98 1.773-.567.372-1.83.474-2.082.17-.523-.63.22-1.945 1.102-1.943zm-40.36 1.452l-.047 2.433 3.48-.11.073-2.31-3.505-.014zm6.084.053l.015 2.39 3.38.11.16-2.343-3.555-.158zm-8.843.162l-3.42.227.106 2.23 3.392-.15-.077-2.308zm15.286.37l-.085 2.304 3.438.38.25-2.342-3.602-.342zm-21.647.11l-3.438.44.293 2.292 3.342-.37-.197-2.36zm28.294.747l-.336 2.403 3.208.476.413-2.285-3.283-.596zm6.357 1.344l-.317 2.43 3.26.69.438-2.254-3.38-.866zm-23.076 2.8c10.825-.014 20.69 1.852 29 5.01 0 0-1.076 2.322-1.457 2.572-5.96-2.38-16.122-4.592-22.988-4.712-2.517-.094-3.074-.16-4-.48-5.234-1.722-9.854-2.466-14.114.076l-1.74-1.23c5.26-.837 10.38-1.23 15.3-1.237zm-45.72 13.877c2.475.03 3.653 3.825 1.038 5.42-.702.397-1.624.344-2.366.01-2.12-1.01-2.277-4.16.192-5.193.4-.168.782-.24 1.135-.236zm80.91.126c.886.542 4.16 1.99 4.16 1.99l-22.99 41.562-5.564.043 24.394-43.594zm-74.153.1c1.377-.155 2.355 1.027 2.71 2.017.485 1.35-.385 3.744-2.812 3.606-2.786-.16-4.034-5.164.102-5.625zm79.062 2.16c.617.34 2.85.71 3.044 1.14.085.216-.084.64-.134 1.188-.12 1.32.21 2.784 1.01 3.957 1.31 1.82-.108.985-1.42.973-2.954-.755-6.72 3.27-5.288 7.415.33.916.266.99-1.317 1.47-3.594 1.096-5.162 4.91-3.435 8.316.9 1.775.927 1.686-.657 1.816-4.398.365-6.952 4.268-5.106 8.257.286.617.104.787-.855.966-3.003.552-4.348 3.062-4.728 5.82l-3.973.037 22.86-41.354zm3.808 1.467l7.63 2.082c-3.168 10.775-3.605 23.293.208 37.77l-17.547.016c2.438-2.187 1.475-5.208-1.374-5.873 2.765-1.588 2.766-5.81-.547-6.317-2.912-.446-4.416 2.322-3.122 5.097l-1.244.34s-.56-.7-.687-1.073c-1.1-3.203 1.2-6.382 5.12-6.37 2.42.005 2.92-.68 1.583-2.165-2.39-2.658-1.637-6.392 1.482-7.86 1.436-.677 2.282-.23 2.282-.23l.074 1.762s-.582.056-1.035.128c-3.446.55-2.807 6.042.694 5.994 1.927-.025 3.306-1.487 3.306-3.586 0-.59.003-1.46.003-1.46 1.77 3.027 4.81 3.244 6.104.78 1.523-2.898-1.24-4.72-4.014-4.422 0 0 .582-.378.95-.566 2.95-1.52 1.935-5.855-1.33-5.855-2.24 0-3.547 2.08-2.824 4.288.114.354.39.922.39.922l-1.334.338s-.302-.23-.438-.442c-2.286-3.572 1.386-7.508 6.01-6.615 1.694.53 1.64-.64.69-1.697-1.02-1.528-1.785-3.255-1.033-4.985zM43.543 246.5l4.005 7.06-4.486 8.132-4.447-7.617 4.928-7.574zm-.394 3.674l-2.78 3.828 2.722 4.396 2.582-4.448-2.525-3.776zm-.12 1.44l1.807 2.422-1.822 2.977-1.784-2.793 1.8-2.607zm82.774 7.625c.842 0 1.53.682 1.53 1.523 0 .843-.69 1.524-1.53 1.524-.843 0-1.524-.682-1.524-1.524s.68-1.524 1.524-1.524zm-10.784 19.137c.873 0 1.582.704 1.582 1.577 0 .872-.71 1.582-1.582 1.582-.872 0-1.577-.71-1.577-1.582 0-.873.705-1.577 1.577-1.577zm-2.39 1.075c-.146.062.003 1.433.348 2-2.278.14-2.882 1.883-3.103 3.355l-2.04-.006c.34-4.975 4.65-5.086 4.794-5.348z"/></g></svg>