<svg version="1.2" baseProfile="tiny" xmlns="http://www.w3.org/2000/svg" xmlns:xlink="http://www.w3.org/1999/xlink" width="225" height="314" viewBox="0 0 225 314" preserveAspectRatio="xMinYMin meet"><defs><style type="text/css">use { fill: #d40000; } .maxi-card { display: none; } .mini-card { display: block; } @media (min-width: 75px) { .maxi-card { display: block; } .mini-card { display: none; } }</style><path id="suit" d="M7 29.227C17.043 19.917 23.64 9.763 29.947 0 35.477 10.743 43.415 20.142 52 29.227 42.816 38.237 35.698 47.87 29.973 58 23.63 47.617 16.95 38.216 7 29.227z"/><path id="numeral" d="M.224 26.224l3.025-.942c1.142 2.995 3.45 3.88 5.892 3.688 4.38-.34 5.836-5.147 6.164-9.397-1.707 1.772-4.273 2.674-6.46 2.586-6.98-.37-8.77-5.855-8.833-11.602C-.182 5.71 1.86 2.203 5.36.594 7.215-.22 11.46-.22 13.32.742c4.283 2.217 5.867 6.05 5.58 15.19.004 7.523-1.625 16.287-9.838 16.476-4.748.644-8.352-2.98-8.838-6.184zM12.11 17.98c1.428-.887 2.23-1.717 2.868-2.963.525-1.02.703-1.553.553-3.67-.384-5.456-3.298-8.547-7.523-7.933-2.356.344-3.644 1.64-4.382 4.05-1.367 4.45.364 9.656 3.606 10.854 1.465.54 3.717.386 4.88-.338z"/></defs><rect width="100%" height="100%" fill="#fefefe"/><g class="mini-card"><use xlink:href="#numeral" transform="matrix(3.5 0 0 3.5 78.4 33.95)"/><use xlink:href="#suit" transform="matrix(2 0 0 2 55.5 170)"/></g><g class="maxi-card"><use xlink:href="#numeral" transform="translate(7 12)"/><use xlink:href="#suit" transform="matrix(.4 0 0 .4 6 51)"/><use xlink:href="#numeral" transform="matrix(-1 0 0 -1 218 302)"/><use xlink:href="#suit" transform="matrix(-.4 0 0 -.4 218 263)"/><use xlink:href="#suit" transform="translate(34 28)"/><use xlink:href="#suit" transform="translate(34 95)"/><use xlink:href="#suit" transform="matrix(-1 0 0 -1 91 221)"/><use xlink:href="#suit" transform="matrix(-1 0 0 -1 91 286)"/><use xlink:href="#suit" transform="translate(84 120.5)"/><use xlink:href="#suit" transform="translate(134 28)"/><use xlink:href="#suit" transform="translate(134 95)"/><use xlink:href="#suit" transform="matrix(-1 0 0 -1 191 221)"/><use xlink:href="#suit" transform="matrix(-1 0 0 -1 191 286)"/></g></svg>