<svg version="1.2" baseProfile="tiny" xmlns="http://www.w3.org/2000/svg" xmlns:xlink="http://www.w3.org/1999/xlink" width="225" height="314" viewBox="0 0 225 314" preserveAspectRatio="xMinYMin meet"><defs><style type="text/css">use { fill: #d40000; } .maxi-card { display: none; } .mini-card { display: block; } @media (min-width: 75px) { .maxi-card { display: block; } .mini-card { display: none; } }</style><path id="suit" d="M7 29.227C17.043 19.917 23.64 9.763 29.947 0 35.477 10.743 43.415 20.142 52 29.227 42.816 38.237 35.698 47.87 29.973 58 23.63 47.617 16.95 38.216 7 29.227z"/><path id="numeral" d="M9.842 0C5.15.09 2.822 4.02 2.797 7.953L2.8 18.27H0v3.426h2.8s.05 1.564.042 2.503c-.04 4.636 1.6 7.446 4.797 8.225 3.065.56 4.665-.102 7-1.31.848.352 1.44 1.08 2.348 1.17 1.004.103 3.096.055 3.096.055l-.058-3.515-1.045-.152c-2-.034-2.865-.733-2.648-1.982.424-.812.485-1.404.524-2.388V6.85C16.796 2.57 13.3.037 9.842 0zm-.145 3.403c2.24-.035 4.104 2.573 4.053 5.246l.035 13.48c.073.848-.062 1.677-.437 2.26-.295-.86-4.93-5.598-7.248-5.38 0 0-.094.24-.16-5.685-.028-2.91-.793-7.253 1.822-9.214.653-.48 1.308-.698 1.935-.707zm2.34 24.628c.206.417-.555.827-1.366 1.054-2.294.64-4.544-.79-4.616-4.08-.02-1.003-.088-2.075.265-2.233 1.052-.474 5.097 4.01 5.718 5.26z"/></defs><rect width="100%" height="100%" fill="#fefefe"/><g class="mini-card"><use xlink:href="#numeral" transform="matrix(3.5 0 0 3.5 78.4 33.95)"/><use xlink:href="#suit" transform="matrix(2 0 0 2 55.5 170)"/></g><g class="maxi-card"><use xlink:href="#numeral" transform="translate(7 12)"/><use xlink:href="#suit" transform="matrix(.4 0 0 .4 6 51)"/><use xlink:href="#numeral" transform="matrix(-1 0 0 -1 218 302)"/><use xlink:href="#suit" transform="matrix(-.4 0 0 -.4 218 263)"/><use xlink:href="#suit" transform="matrix(.8 0 0 .8 38 36)"/><use xlink:href="#suit" transform="matrix(-.8 0 0 -.8 186 278)"/><path fill="#E2CF00" d="M141.693 28.697s25.294 36.56 33.872 43.05c.63.295 11.207-1.726 11.207-1.726-5.42-12.976-8.908-26.4-5.39-41.454l-39.69.13zm14.054 57.82c-17.438 4.922-34.842 9.55-53.746 1.528L81.358 107.99c-.17.514 26.753 12.112 27.176 10.843l-6.626 21.153 15.278 3.363 7.014-22.503s21.092-2.023 30.882-5.382c7.443-2.555 15.142-4.406 21.788-9.955-13.73-8.25-21.136-19.09-21.123-18.992zm-104.88 5.898c-6.61-4.056-11.775 4.29-6.937 8.46-.568 2.434-.762 6.058 1.594 7.65 2.165 1.368 6.202-.052 6.784-.036.042 0 .105 4.382-.23 4.37-.627-.02-2.99-2.034-4.448-2.47-4.926-1.48-11.854-2.207-11.73-1.953.205.427-1.228 1.437 4.27 4.89 2.04 1.28 8.49-.163 13.63 1.457 3.13.987 6.206 2.63 7.905 1.812 2.15-.898 4.654-3.733 5.463-6.042.228-2.522-12.89 2.935-12.092 3.023l-.042-5.084c5.286.582 10.058-3.25 4.862-9.816 3.87-3.846-1.543-13.01-9.03-6.262zm22.022 23.25c-13.002 13.105-39.575 37.7-39.575 37.7l.284 18.354 25.96 23.23c2.057-24.66 16.07-47.677 29.415-59.19 1.224-3.5-13.26-18.865-16.086-20.095zm92.624 4.534c-1.96 15.162-3.74 35.84-29.464 58.826 4.457 7.592 10.132 15.318 18.297 19.006.58 1.305 23.603-23.822 37.766-35.702l-.075-16.092-26.524-26.04zm-115.94 3.254c-.055.33-1.005 4.313-1.25 4.208.02.217 2.635-.972 2.93-2.063.26-.96.86-2.257.898-2.44-.59-4.1-1.704-1.188-2.58.294zm-9.632 10.6c-.935 2.258-1.81 6.403-1.486 9.102 4.605 2.306 5.857-7.284 4.62-8.2-.744-.315-2.503-.924-3.134-.9zm142.236 43.97c-.427 1.912-.337 2.48.515 2.854 1.49.653 2.16-.136 3.358-3.25.713-1.855 1.348-4.644.773-5.753-2.825-1.972-4.318 4.704-4.645 6.15zm-69.653-4.493c-.903.01-1.773.083-2.58.267-7.602 1.74-7.025 15.022-8.315 20.32-23.88 3.407-30.197 5.03-36.74 7.718-10.176 4.18-13.397 6.73-16.09 8.834 1.69-.2 19.948 16.823 20.89 19.227-1.16-3.295 35.317-11.314 54.747-3.26 2.383.854 20.535-17.616 19.962-19.678 2.355-4.126-22.88-8.76-26.063-11.337-2.61-14.054 17.63-21.752 3.613-21.343-2.553.074-6.197-.776-9.425-.75zm63.513 15.79c-.45.53-.903.812-1.487 1.435l-1.333 1.758.972 1.57 2.486-2.744-.638-2.02zm-17.806 17.674c2.62-1.183 11.92-5.69 12.32-4.648l-.197 4.514c-1.423-.466-10.606 1.052-5.295 10.53-3.345 7.53 4.108 11.414 9.33 6.436 10.94 3.754 9.478-7.195 7.22-8.964 1.78-2.764-.457-8.65-1.57-8.67 0 0 9.55 2.153 8.614.453-.426-.776-.96-2.114-3.08-3.53-2.446-1.634-6.743-1.04-10.22-1.77-3.72-.776-6.113-2.106-9.237-2.294-4.716.43-9.118 4.57-7.885 7.944zM51.818 242.53l-13.156 3.518s4.256 9.876 5.73 18.682c1.8 10.77.36 22.483.36 22.483l38.186.193-31.12-44.875z"/><path fill="#D40000" d="M86.106 287.27c-16.755-23.912-32.28-46.66-52.89-71.73 0 0 .017-9.688.09-19.3l63.32 90.796-10.52.235zm33.92-38.61c-.54-4.54-1.466-9.977-2.797-14.654l11.56-10.9c-1.247 9.74-3.162 17.214-8.765 25.555zm55.254-34.356c2.587 3.437-1.78 5.344-3.428 3.814-3.343-3.1 1.554-6.304 3.428-3.814zM60.644 192.66c-1.918 1.23 3.448-29.967 18.177-46.09 8.96 25.663-6.847 40.05-18.176 46.09zm72.667-.114l-9.782-2.64 4.87-13.682s9.186 2.15 8.402 4.992c-2.55 9.25-3.49 11.33-3.49 11.33zm-45.285-5.26c2.648-4.354 4.66-9.155 6.512-14.068l13.91-1.928-8.063 15.635-12.36.362zm58.958-19.198c-7.57-15.074 1.35-38.935 17.822-45.502-.594 15.287-5.337 30.773-17.822 45.502zm-50.886-4.283c.333-5.354-.28-10.965-1.02-15.938l34.432 4.59 1.202 14.433-34.615-3.085zm25.198-22.93c1.167-4.59 2.204-8.41 4.457-12.132 2.507.08 12.676-1.593 11.38.383-2.766 3.536-4.088 9.277-5.898 12.888-1.9-.2-10.508 1.28-9.94-1.138zm-22.808-2.63c-3.482-1.23-8.243-1.57-10.095-4.265l3.622-11.48 10.73 3.292-4.257 12.453zm30.108-109.522l8.407-.08s40.398 51.69 55.54 71.807c-.505 2.047.17 19.398.17 19.398-21.447-30.182-64.117-91.125-64.117-91.125zm-77.47 72.123c-2.26-2.425 1.333-4.573 2.827-2.406 1.316 1.908-1.635 3.685-2.827 2.406zm45.33-8.475c.13-11.978 8.624-26.193 8.535-25.83-.098-.023 1.21 11.71 2.844 15.402-.44.65-10.978 11.18-11.38 10.43z"/><path fill="#131F67" d="M31.644 26.53l-.316 262.08 163.067.03-.056-261.686-162.696-.424zm149.02 2.05c-1.324 14.5-1.556 25.865 5.97 40.904-1.36 1.426-11.6 1.83-14.825 3.518-.06.405.827 1.105.827 1.105 3.376-1.566 16.538-2.995 16.538-2.995-5.513-9.607-10.047-28.088-6.634-42.262l9.502.03-.06 69.83s.746 13.478 1.027 21.072c-5.06-6.537-11.767-15.667-16.147-22.444-5.314-7.476-11.23-16.246-17.306-24.474-1.79-2.592-4.345-5.955-6.43-8.983-3.27-4.676-5.977-8.305-9.37-13.34-3.622-5.212-7.096-9.943-11.402-15.996-3.65-5.15-3.82-5.762-3.82-5.762l52.13-.202zm-62.39.27c6.157 10.704 17.18 14.328 19.954 15.05l1.612 2.355c-12.996-2.547-19.956-10.89-23.225-16.05-.254-.4-.226-1.324-.226-1.324l1.883-.03zm-6.097 0c-1.703 4.043-4.087 6.365-6.347 8.813l.078-2.6c.07.163 3.383-3.514 4.523-6.212h1.747zm2.98 0s.05.692-.154 1.26c-1.306 4.213-9.408 12.21-9.175 11.013l-.083-2.063c-.035.09 6.087-5.83 7.69-10.208h1.723zm-5.89 0c-.632 1.178-2.987 4.73-3.2 3.746l.21-3.745h2.99zm18.512 0c1.02 1.48 1.947 2.56 3.02 4.07.2.29.32.63.272.76-.163.42-.648.107-1.99-1.08-2.2-1.95-3.696-3.75-3.696-3.75h2.393zm-8.196 0l1.99.007c4.12 6.845 11.516 10.486 14.076 11.283.683.753 1.418 2.13 1.704 2.434-6.9-1.87-14.634-7.706-17.77-13.723zm4.84-.027c2.194 3.167 5.634 5.388 7.57 6.903 1.043.817 2.42 2.485 2.29 2.816-4.314-1.364-9.36-6.146-11.677-9.69l1.816-.03zm-8.46 1.96l1.2 1.908c-2.907 4.792-6.55 9.108-11.41 12.51l-.027-2.502c5.515-3.97 7.898-7.96 10.237-11.916zm1.945 2.766c3.463 4.666 10.93 11.89 22.902 14.047 0 0 .68.614 1.672 1.965 1.26 1.713 1.278 1.78 1.444 4.588.11 5.14 1.78 12.112 3.438 16.5-.205 1.09-.396 1.645-2.453 4.424-8.57 11.575-26.828 22.523-35.824 7.58-3-4.787-3.292-13.966-3.482-19.69 0 0 .057-.4.08-.51.216-1.04.513-.876 2.137-.43 1.646.706 3.36.135 5.103-.34 1.983-.8 2.148-.183.235 1.603-.662.617-1.472 1.562-1.387 1.516.086-.045 1.198-.5 1.69-.874 1.528-1.164 1.89-.72 1.323.56-2.404 5.434-2.83 5.65.55 7.16.704.313 1.186.665 1.58 1.01 2.312 2.176 1.48 1.004.836.005-.995-1.563-.096-2.39 1.583-1.42 1.12.645 2.594 1.167 3.395.92 1.556-.507 2.03-2.21 1.568-4.085-.37-1.037-2.494-2.868-2.004-.95 1.276-.06 2.38 1.753 1.27 2.978-.838 1.13-2.332.52-4.623-.995-1.266-.95-2.803-.465-2.743.706.04.784-1.072.603-1.796-.397-.4-.556-.13-2.156.625-3.673 4.75-9.55.746-18.808-7.48-16.197-.903.287-1.72.52-1.72.52l-.044-3.652c4.723-3.292 9.733-8.54 12.12-12.87zm4.8 17.142c-1.24 1.497-.8 2.83 1.923 1.487 2.218-1.093 2.525-1.222 4.94-1.31 3.43-.124 6.51.967 10.317 3.304 2.525 1.55 2.893 1.666 2.208.695-2.04-3.903-14.093-9.828-19.387-4.178zm-11.645.447c2.38.6 4.664 2.17 4.267 2.822-.144.233-.28.278-.585.12-1.74-.86-4.517-2.267-8.53-.55-.44.188-.687-.105-.685-.64.004-1.034 1.747-1.86 3.588-1.928.655 0 1.37.034 1.945.175zm13.827 3.025c-1.42.738-1.906 1.13-2.51.8-1.44-.786-1.135-.168-.24 1.416.63 1.12.624 1.35.53 2.035-.102.744-.086.773.638 1.57 1.354 1.778 2.7 3.495 4.73 4.845.632.42 1.477.9 1.54.9.202.008.125-.153-.236-.506-2.597-2.497-4.645-4.735-2-3.785 3.078 1.003 6.006-.248 8.407-1.064.98-.302 2.008-.556 2.263-.556 2.218.002 2.742-.92 1.324-2.328-4.798-5.378-8.778-6.645-14.445-3.327zm11.382 1.01c.992.915 1.515 1.412 1.415 1.65-.107.256-.87-.178-2.15-.86-2.573-1.37-5.492-1.694-9.138-.642-2.83.817-1.995-.48 1.16-1.7 2.524-1.164 6.01-.816 8.712 1.55zM109.84 53.32c2.163-.035 4.415.675 5.92 1.973 1.052.906.283 1.117-1.424.41-2.582-1.067-4.76-1.237-6.878-.245-.665.312-1.433.682-1.642.66-.354-.238-.505-.936-.198-1.43.852-.835 2.54-1.342 4.223-1.368zm35.64.74c.158.008.397.26.753.76.647.908.672 1.356.136 2.946-.656 1.94-.92 1.626-1.083-1.082-.107-1.757-.11-2.636.193-2.623zm2.144 2.928c.246-.034.534.4.995 1.3.32.628.244.815-.76 3.753-.42 1.23-.815 2.208-.826 2.217-.31.243-.27.222-.4.053-.716-.914-.665-2.697-.05-4.834.468-1.622.723-2.445 1.04-2.49zm-19.484.222c.078-.007.558.098.558.098-.05 4.352 3.315 3.476 3.76.386 0 0 .83-.086.958.12.398.647-.527 2.51-1.912 3.117-1.01.45-2.385.342-3.205-.414-.23-.427-.927-2.043-.797-2.714.16-.392.403-.573.637-.594zm-2.005.51c.034-.003.067-.003.102 0 .33.016.57.104.7.505l.722 2.21c-.53.634-2.547-.65-2.543-1.615 0-.666.502-1.076 1.018-1.1zm-13.682-.006c.51-.05.688.008.747.48.172 1.438-1.265 2.998-3.128 3.083-1.803.2-2.775-1.197-2.72-2.562.004-1.036.895-1.166.994-.347.286 2.367 2.308 2.503 3.23 1.196.352-.51.272-1.772.877-1.85zm22.14.482c.144-.006.335.048.618.145 1.86.594 1.91.88.32 1.454-1.897.684-2.02.772-1.575-.55.248-.74.323-1.037.638-1.05zm-19.713.208c1.38.086 1.494 1.252.282 1.642-1.806.797-2.414.745-1.715-.43.38-.834.72-1.196 1.433-1.212zm-8.624.42c.164-.003.354.06.555.212.21.625.56 1.106.837 1.753-.283.282-.958.277-1.39-.064-.862-.685-.714-1.894 0-1.9zm43.344 1.347c.535.003 1.08.852 1.257 1.483-1.87 2.402-1.576 6.89-2.01 8.243-.378 1.102-.5.15-1.54-2.705-.42-1.152 1.696-6.88 2.187-7.008.034-.01.07-.014.106-.014zm1.912 2.463c.416.238.982.783 1.082 1.643.058.497-.19 1.16-.348 1.814-.378 1.56-.89 4.502-1.072 7.22-.078 1.158-.074 2.2-.126 2.3-.562 1.104-1.75-1.864-1.647-4.226.37-1.887.575-8.492 2.112-8.752zm2.642 3.39c.265.368.433.65.514.966.142.55.022 1.208-.3 2.61-.86 3.714-.734 7.718-.175 11.827.118.864-.482.43-1.39-1.06-.505-.824-.827-1.956-.98-3.293-.318-2.922.292-6.882.81-10.007.23-1.382.39-2.6 1.52-1.043zm1.424 2.26l1.503 1.812s-.64 4.164-.637 6.386c-.105.832.746 9.88 1.023 10.61-.923-1.033-1.354-1.642-2.366-2.94-.115.02-.99-8.914-.387-12.33.367-2.068.865-3.537.865-3.537zm2.358 3.6c.252-.01.572.274.976.84.363.51.54.93.56 1.564.016.464-.215.82-.222 1.647-.042 4.922.623 9.566 1.46 14.044.295 1.604-.28.95-1.23-.063-.87-.93-.886-1.28-1.35-2.6-.094-.265-1.022-9.34-1.014-10.026.033-2.82.113-4.39.438-5.066.106-.222.23-.333.382-.34zm-5.46 9.89s-1.748.9-2.206.583c-.738-2.015-3.402-7.405-3.448-8.36.047-.313 1.092-1.732 1.092-1.732 1.472 3.192 2.796 6.46 4.563 9.507zm-32.91-6.476c-.527.62-1.156.36-2.428-.197-.65-.2-.55.067-1.628.627-.836.435-1.13.445-1.683.44-.73-.006-.992-.262-.994.252-.002.283-.044 1.566-.217 2.23-.234.902-.44 1.3-.31 1.457.37.34.683.132 1.465-.624 1.3-1.254 2.175-.895 3.62-.43 1.647.532 1.986.728 3.49.2 2.132-.744 3.416-.744 4.265-.204 1.463.932 1.904.877 1.302-1.67-.194-.82-.208-2.095-.328-2.314-.137-.25-.51.462-.897.725-.744.5-1.13.49-2.807-.06-.993-.324-2.107-1.388-2.85-.433zm26.977.332c.65 1.53 3.232 6.64 3.154 7.212-.503.452-1.177.78-1.576.377-1.29-2.355-1.678-3.626-2.728-6.27-.313-.634.625-2.246 1.15-1.318zm13.876-.187c.182-.025.564.354.85.734.884 1.183.937 1.33.965 2.598.102 4.6.68 10.012 1.976 14.186.256.82.74 1.82.687 1.956-.435.633-2.45-1.062-3.058-3.642-.84-3.275-1.33-6.692-1.597-8.917-.338-3.912-.337-6.71.176-6.915zm-15.5 2.536c.743 1.437 1.68 3.913 2.312 5.398.287.646-1.185 1.154-1.522.935-.588-.438-.866-1.675-1.252-2.415-1.23-2.686-1.45-2.742-.77-3.578.42-.582.92-1.294 1.23-.34zm18.415 1.648c.108 0 .248.104.426.333.777.92 1.305 1.62 1.508 2.3.147.493.03.864.082 1.758.14 2.343.754 5.54 2.497 12.085.17.638.4 1.394.372 1.6-.17 1.2-1.933-.747-2.445-2.76-.595-2.283-1.68-5.2-2-7.896-.66-4.28-1.023-7.42-.44-7.42zm-19.968 1.73c1.465 3.42 1.58 3.414.658 3.685-.976.286-1.034.192-2.18-2.137-.836-1.7-1-1.912-.298-2.524 1.074-1.266 1.356-.06 1.82.976zm-20.41-.816c-.166.004-.657.376-1.15.57-1.21.48-3.36.513-4.67.118-2.323-.933-1.67.278.385 1.015 1.594.536 4.75.12 5.24-.873.3-.317.41-.834.195-.83zm17.657 1.798c1.308 2.022 1.7 2.83 1.48 2.987-.21.21-1.246.6-1.672.39-.534-.26-1-1.51-1.234-2.488.164-.48 1.023-1.336 1.426-.89zm-32.77.853c.586.002 2.106 2.046 1.798 2.414-.086.19-.656.01-1.988-.36-.444-.163-1.45-.294-1.132-.94.158-.293 1.09-1.115 1.323-1.114zm31.366 2.8c-.13.35-1.117.432-1.536.406-.36-.75-.455-1.108-.555-1.605.135-.298.81-1.07 1.144-.918.2.18.845 1.747.946 2.116zm27.217-1.97c.208.008.57.373 1.105 1.14 1.014 1.45.877 1.345 1.604 4.807.826 3.926 1.813 6.722 2.812 10.73.014.667-.256.49-.995.04-1.208-.735-1.604-1.553-1.985-3.68-.648-3.517-2.02-6.77-2.545-10.922-.28-1.373-.302-2.126.004-2.115zm-30.425 1.403c.713-.024.617 1.073.413 1.252-.52.453-1.957.318-2.204.344-.55-.866 1.327-1.567 1.792-1.596zm34.047 3.736c.21.028.77.823 1.825 2.304 1.012 1.422.79 1.19 1.396 3.53.857 3.234 2.275 5.567 3.106 8.544 0 .34-.413.297-.807.136-.768-.32-1.452-.864-2.102-1.396-.444-.48-.44-1.09-1.754-5.603-.473-1.628-.597-2.052-1.188-4.525-.494-2.07-.714-3.023-.477-2.99zM60.33 98.825c3.442 6.332 2.168 9.14-5.232 10.017-.535-.075-.03 3.244-.045 4.727 3.708-2.122 8.192-2.617 12.325-3.95-1.126 3.605-3.1 7.688-9.083 7.06-6.253-4.833-13.612-1.93-18.606-3.892-2.717-1.012-3.754-4.028-3.786-4.546 3.257.326 6.935 1.024 10.09.796-3.446-2.655-2.438-6.33-1.952-8.012-4.034-5.086-.667-10.808 5.192-9.478.605.138 1.802.727 1.802.727 5.652-5.06 12.203-.307 9.295 6.55zm114.36-3.08c.235-.022.752.59 1.788 2.038 3.073 4.3 5.734 8.3 5.694 8.524-.133.74-3.336-.557-4.144-1.618-.92-1.21-3.51-7.43-3.507-8.42.004-.328.05-.513.17-.525zM49.52 114.16c1.598.236 2.045.37 2.027.996.137.53-3.88.602-4.424.208-.435-.314.126-1.004.556-1.17.62-.186 1.237-.12 1.84-.033zm110.72.572c-22.44 10.6-31.62 38.788-20.294 60.39l-1.56 1.127c-11.104-22.84-2.843-47.316 15.2-59.677.73-.52 2.347-.92 3.098-1.418 0 0-7.36 1.68-9.852 2.653-.506-.017-1.99.507-3.586 2.236-1.395 1.292-5.754 7.303-5.615 7.512l-11.584.467.01.428 11.37-.262c-11.708 19.278-8.83 37.62-1.602 50.458l.18.12c.42.283 1.525-.525 3.82-2.7.944-.895 2.135-2.007 2.645-2.473 1.417-1.3 3.437-3.54 4.824-5.158-7.873-16.047-.106-37.182 18.317-46.705.032-.507-.195-2.056-.195-2.056s-.696-.625-1.107-.562c-20.525 9.042-28.75 31.494-20.404 51.91l-1.376 1.498c-10.486-21.143.77-47.57 20.396-55.056-.01-.478-.435-1.088-.962-.72-21.188 9.836-30.423 34.957-20.043 56.37l-1.31 1.154c-11.808-23.444.634-49.716 20.14-58.693.577-.13-.51-.843-.51-.843zm-114.21.218s-.148 1.248.292 1.675c.203.89-.12.794-.88.613-1.864-.445-.41.616 1.117 1.473 1.502.845 1.3.816-.01 1.648-.883.56-.79.77-.673 1.192.176.63.297.21.662-.125.766-.706 1.38-.882 2.06-.88 1.024.005 1.128.824.947 1.464-.407 1.342-1.79 1.27-2.922.937-1.854-.546-4.88-3.762-4.834-5.653-.127-1.695 2.193-2.422 4.24-2.344zm8.334.415c.72.264 1.623.617 2.617 1.033 1.375.437 2.768 1.147 3.665 1.746 2.734 1.822 2.567 5.468 2.37 5.83L48.89 137.36s-.798-.39-1.55-.772c-2.374-1.212-2.945-1.85-1.627-2.52.64-.326.846-1.026.938-1.71.123-.918.075-.762.623-1.18.955-.727 1-1.027 1.005-2.236.003-.8.086-1.168.377-1.67.23-.4.475-1.232.638-2.19.026-.156.034-.55.065-.687.166-.748.403-.97.562-1.14.158-.168.412-.745.59-1.245.394-1.114.32-.95.955-.826.925.18.792.72.69 1.575-.05.414-.325.705-.23.612.126-.125.693-.394.81-.42.297-.068.592.033.668.497.042.257-.07.732-.063 1.1.02.953.058 2.094.275 2.846 1.05 3.62.84 3.118.483.106-.086-.722-.187-1.78-.082-2.662.073-.62.25-1.39.492-1.81.62-1.082.654-1.295-.69-1.827-.5-.197-1.35-.544-1.526-.89-.216-.42-.855-.996-1.69-1.19-2.03-.48-3.21-2.44-2.917-2.73.19-.19 1.01.06 1.526.077 1.854.066 2.247-.03 3.067-.733.438-.376.634-.71.98-.734.368-.008.836.265 1.107.362zm96.145 2.167c-18.977 15.353-22.303 40.188-12.836 59.35l-1.64 1.288c-11.895-22.48-3.904-46.728 10.71-59.988l3.765-.65zm-109.555 1.832c.335-.03.7.46 2.034 1.884.895.96 1.83 1.792 2.322 2.07 1.114.535.87.313-.06 1.194-.948 1.09-.424 1.985-1.56 1.44-2.952-1.387-5.025-5.47-3.104-6.454.146-.074.256-.124.367-.134zm-1.467 4.293c.072-.006.15.005.227.023.364.09.806.773 1.28 1.25 1.312 1.322 1.922 1.91 2.97 2.373 1.03.456 1.06.566.334 1.37-.265.294-.422.646-.484.842-.062.196-.078.445-.3.487-1.148.22-4.97-2.096-5.12-3.694.123-1.494.5-2.606 1.092-2.65zm8.094.445c.662-.018 1.052.573 1.048 1.53-.003.664-.376.934-1.135 1.218-1.622.607-2.622-.554-1.487-1.836.477-.538 1.12-.9 1.574-.912zm-.99 3.897c1.224.004 1.578 1.036.68 1.926-.842.837-2.543.84-2.54-.077.004-.72 1.082-1.854 1.86-1.85zm-7.588 1.234c.828.245 2.843 1.697 3.73 1.867.046.49-.544.625.293 1.546.38.418.412.703.082.88-1.012.538-4.514-1.165-4.748-2.918-.114-.857.17-1.343.642-1.374zm4.57 2.098c1.204.05 2.567.086 2.424.66-.104.42-.535 1.522-1.087 1.314-.267-.1-.527-.366-.714-.545-.642-.615-.813-1.437-.623-1.428zm45.567 4.99c3.51 3.177 16.264 36.372-10.31 60.557l-5.64 1.69c25.514-20.035 21.27-48.477 14.384-60.746.002-.36-.1-.32-.734.256-.557.503-.615.612-.392.705 7.78 11.973 10.688 45.79-19.967 62.107-.514.534.527.453.527.453.055-.44 13.804-3.78 12.834-3.864 12.815-11.327 23.973-38.34 10.083-61.888-.334-.22-.782.73-.782.73zm-4.426 3.756l-.18.75c11.124 21.835.507 48.588-20.168 58.49.34.25.718.42 1.098.6 23.454-12.63 30.218-39.36 19.986-60.063l-.736.223zm-1.86 1.55l-.128.792c9.207 18.584 1.897 44.373-20.08 54.835-.207 1.125.005.796 1.032.743C89.106 184.36 91.496 158.43 83.54 141.59l-.685.037zm-1.578 2.228c-.718.95-2.033 1.44-2.47 2.663 7.387 19.522-2.16 38.316-18.323 46.238-.013.982-.718 3.413.994 3.024 19.968-9.045 28.655-33.088 19.925-52.014 0 0-.115.084-.126.088zm100.298 37.748c.735.052 1.395.274 2.076.363 2.48.32 4.09 2.13 2.98 3.23-.363.36-.872.153-2.483-.636-.74-.36-.86-.7-1.013-1.517-.184-.98-.38-1.078-.628-.318-.25.768-.52 1.243-1.368 1.05-2.378-.553-1.48-2.19.436-2.17zm-26.532 16.622c-5.956-3.38-13.31-9.475-17.516-16.4-2.09 3.923-4.546 11.062-4.546 11.062l-9.35-2.61-.11.193 9.24 2.663-.9 3.084c-.097.333-1.527 3.842-1.527 3.842l14.432 6.733c-.895 1.4-1.87 2.305-3.11 3.61-.7.735-.72 1.688-.72 1.688l20.01-19.085s2.58 3.828 3.54 4.696c.9.814 1.182 1.012.13 1.255-4.7.688-8.35 4.25-7.077 9.023.206.53.62.336 1.512-.225 3.12-2.827 10.75-5.443 11.012-4.78l.03 3.04c-8.215.12-7.372 6.16-6.77 9.397 0 .07-2.377 2.146-2.377 2.146.84.44 1.663.896 2.438 1.44-.722 4.027 2.71 9.866 9.453 6.877.583.598 1.133 1.198 1.776 1.95.69-.8 1.485-2.682 1.485-2.682 3.35 1.517 10.298-1.876 6.743-9.645l1.96-1.868-1.883-1.187c-.05-1.976-.354-3.74-1.534-5.462 0 0 3.162.807 5.5.942 1.446.13 2.664.167 2.543-.706-.036-.258-.252-1.515-.393-1.927-.698-2.035-4.317-3.53-7.833-3.727-.573-.032-1.19-.015-1.313-.163-.23-.28.183-.676.56-.61 1.926.335 3.777-1.088 4.11-2.897.066-.317.46-.898 1.024-1.517 1.003-1.097 1.08-1.068 1.063-2.652-.014-1.1.18-1.343.687-2.08.655-1.05.96-2.423.63-3.842-.104-.45-.53-1.086-.167-2.206.59-1.822-.707-3.49-2.407-4.44-.137-.037-.096.096-.208.23-1.543.48-3.422-.625-3.422-.625-.388-.19 1.313-10.077 4.84-9.194.586.355.834 2.074.79 2.104.16-.004.25-1.012.02-1.684-.238-.705-.785-1.376-1.837-1.178-.816.154-1.758 1.236-2.184 1.78-1.646 2.098-1.665 3.437-2.216 5.67-.265 1.055-.293.994-1.754-.147-1.048-.82-1.556-1.08-1.19-1.562.163-.216.842-.897.842-.897l12.763-12.28v122.975h-72.168l.505-15.804c1.354-11.11-1.028-34.446-2.83-36.64 1.39-1.563 5.704-5.33 5.466-5.5l-.57-.337-2.282 2.098-5.632-1.705c-2.402-1.66-4.854-3.193-7.398-3.847-4.153-1.065-12.153 2.33-12.16 2.366-12.78.946-23.015 6.136-22.872 6.097-.557-.51-1.293-2.142-1.312-2.132-6.588-9.168-13.064-14.304-21.912-20.57l11.207-6.19-26.557-27.747-.233-22.53 38.472-36.78c.227-.635 12.274 8.51 16.76 15.95.86-3.638 2.462-6.94 3.797-10.513.138-.326 7.652 2.778 9.882 2.91.333.02.602-.332.602-.332l-9.917-3.225 2.028-5.81s.706-1.578-.09-1.84c-4.522-1.462-8.765-4.04-13.088-6.235 0 0 2.02-2.245 2.05-2.345.028-.094.848-1.298.652-1.714-2.2 2.135-20.15 18.78-20.15 18.78-.51-2.857-1.312-3.855-3.058-5.618.95-.046 2.438-.985 3.3-1.612 2.63-1.916 4.06-5.336 3.717-7.334-2.526.804-4.806 1.746-7.97 2.32-1.776.322-3.463 1.125-4.485 1.985l-.156-3.188c.005.036 4.254.744 6.222-2.107 1.696-2.457 1-5.27.61-6.704.045-.32-.05-.284.683-.958.54-.497 1.38-1.14 1.38-1.14.037-.18-2.193-1.008-2.57-1.763.594-5.91-4.126-8.19-8.122-7.14-.746.225-1.104.365-1.99-.624-.133-.147-1.198-1.273-1.198-1.273s-.47 1.085-.712 1.56c-.783 1.546-.998 1.08-2.688 1.164-4.28.21-6.188 3.664-5.206 7.906.23.995.126.842-.527 2.1-.334.645-.88 1.465-.88 1.465s.785.435 1.314.67c.783.352.824.762.82 1.542.11 1.722.487 2.874 1.478 4.353-3.353.077-5.925-.236-8.96-1.244.465 4.666 3.905 6.404 8.12 7.09 0 0-.442.412-.908.596-.985.286-1.603 1.15-1.594 1.927-.142.74-.62 1.484-1.062 1.88-.655.568-1.194 1.37-.936 2.917-.066 1.12-.338 1.445-.667 1.874-.66.86-.884 1.714-.72 2.845.077.524.24 1.65.13 2.814-.18 1.94.515 2.667 1.397 4.033.57.885.45.908.32 1.55-.318 1.542-.648 2.334-.99 3.507-.768 2.623-.797 4.612-.17 5.125.944.77 2.014.538 2.512.385 3.73-1.15 3.083-4.812 3.28-7.27.105-.632.32-.935.53-.905 1.055 1.233 2.17 1.947 3.604 2.725-4.962 5.05-8.202 8.14-14.476 13.65l.17-123.007h71.558s.074.91-.096 5.36c-.31 9.047-.69 18.522-.097 27.744.1 3.19.033 6.343.49 9.5.448 3.076.646 6.394 2.083 9.26.578 1.553.597 1.433-1.604 3.467-1.08.997-2 2.06-1.958 2.247.013.062-.048.296.117.163.11-.088.907-.877.995-.98.597-.704 1.595.198 4.998 1.158.668.188 1.608.817 2.328 1.338 5.09 4.288 12.25 2.95 17.602.612 1.52-.663 1.892-.73 4.332-1.02 9.04-1.072 18.698-5.022 18.68-5.01l1.18 1.934s.442-.082.76.404c5.198 9.82 22.173 21.04 21.87 20.52l-11.094 6.143c8.077 9.98 26.55 26.91 26.55 26.91l-.426 24.337c-4.96 3.967-9.32 8.513-13.682 12.953-1.254 1.24-2.14 1.95-1.663 1.973 1.132-.172 2.108.943 3.03 1.718.583.65.442.593-.23 1.48-.474.625-.646.806-.648 1.257.017.873.01 1.458-.767 2.113-.482.605-.76.993-.846 1.712-.088.717-.08 1.177-.574 1.81-.836.18-.915 1.396-.768 1.94.875.867.475 1.807.557 1.61-1.672 1.813-3.426 3.385-2.306.85.504-.945.68-1.728.68-1.728s-.805.834-1.226 1.228c-.645.597-.88.245-.9-1.606-.082-1.4-.673-3.356-.907-3.73-.13-.21-.153.153-.092 1.502.08 1.775.292 2.29-.332 4.062-.845 2.394-1.445 2.732-.074 2.65 1.298-.08 2.396-.093 2.965.683.19.26.438.71.963.973 1.068.584 1.92 1.23 2.513 1.878 1.922 2.09 1.37 3.956-2.344 2.69-1.956-.667-.675-1.507 1.427-1.312 1.292.12 1.51-.356.392-.698-2.08-.385-2.414-.62-3.784 1.012-5.757-.57-8.99-3.788-10.543-6.41-.65-1.097-.85-1.307-.396-1.928.18-.244.07-.17-.236.17s-1.143.622-1.42.866c-1.94 1.93-3.9 4.002-5.642 5.572zm25.058-13.514c.978.12.958.94.086 1.73-.82.62-1.38.74-1.844.273-.81-.815.236-2.01 1.758-2.003zm2.846.57c.788-.004 1.793.358 2.986 1.35 1.424 1.185 1.75 4.05.44 4.547-.547.207-.632.004-1.8-1.105-.787-.75-1.642-1.426-2.482-1.826-1.717-.818-1.938-1.127-.777-1.684.245-.125.56-.42.705-.652.3-.478.388-.632.928-.633zm-1.855 3.815c.23.007.533.146 1.01.4 2.895 1.582 4.31 4.06 3.33 5.46-.643.916-1.688.566-2.485-.735-.448-.732-1.64-1.67-2.994-2.356-1.55-.786-1.582-.898-.463-1.435.46-.22.805-.53 1.03-.927.26-.46.28-.414.574-.406zm.928 5.906c2.188 2.18 1.938 3.36.517 4.247-.97.606-2.525.758-3.035.256-.824-.72-.803-1.546.108-1.812.85-.182.53-.522-.263-.724-2.836-.805-4.578-2.31-1.496-1.983.883.094 1.74-.594 2.202-1.143.67-.81 1.572.766 1.966 1.16zm-149.118.84l63.818 91.362-51.593-.1s-.194-.672.226-6.148c.622-7.43-.33-13.874-2.09-21.126.222-.023-2.47-8.803-4.564-13.093-.38-.898-.318-.985.917-1.145 3.652-.587 7.586-1.47 11.234-3.014 1.696-.15 4.187.512 4.052.305-.062-.1-2.207-2.067-2.207-2.067-5.958 2.38-11.455 3.252-16.63 3.843 6.87 11.69 9.32 27.603 7.26 41.898l-9.884-.03-.03-70.353-.51-20.332zm11.406 13.53c.9-.035 3.146 1.55 3.42 2.742.058.244.642 1.71 1.296 3.073.013.252 2.226 4.246 1.253 3.898-1.935-2.628-5.39-7.104-6.26-9.283.003-.29.04-.42.29-.43zm6.894 3.996c.12.66.79 2.386 1.317 3.523 1.378 2.965 3.51 7.612 3.077 8.936-.292.89.008.844-.772-.258-.382-.538-1.574-2.2-1.86-2.584-.697-.936-.228-.077-.626-1.602-.95-4.31-2.485-6.576-3.482-9.095-.356-1.18 1.89.603 2.346 1.08zm1.227.658c.186.13 2.714 1.908 2.97 2.163.896 3.19 4.48 13.403 3.554 15.23-.322-.254-1.688-1.9-1.878-2.75-.414-4.884-1.964-8.396-3.626-12.036-.468-1.1-.835-2.195-1.02-2.606zm4.757 3.586c.8.39 1.63 1.285 2.1 2.084.313.543.475 1.18.77 2.523.917 4.168 2.665 8.393 1.88 12.84-.49.664-1.56-.844-1.71-2.33-.506-4.923-.94-7.282-2.672-13.073-.337-1.125-.59-2.004-.368-2.043zm4.062 3.82c.17.007.52.325 1.105.874 1.14 1.067 1.3 1.46 1.306 3.23.036 2.604.903 5.574 1.038 8.202.077 1.516.355 5.438.12 5.67-.33.457-1.8-1.205-1.686-3.753.188-3.062.035-5.366-1.27-10.664-.604-2.448-.91-3.494-.647-3.555.012-.002.025-.005.036-.004zm117.826-15.467c4.56 2.927 2.952 8.33 1.976 8.993 6.297 7.956-3.49 12.03-6.598 9.17-4.598 4.568-12.488.74-9.45-6.79-.003 0-5.774-11.032 5.614-10.295 0 0 .196-4.457-.125-4.66-4.066-.273-9.593 3.64-11.158 4.724-.868.523-1.06.272-1.06.272-.215-2.313-.22-3.372.72-4.662 1.64-2.25 4.353-3.012 7.915-3.794 4.408 1.357 8.606 3.488 12.69 3.156 2.25.014 4.55.377 6.73 1.547 1.473.693 2.238 3.297 2.238 3.297-2.308 1.207-9.493-.96-9.493-.96zm-2.17-16.357c.02-.79.912-1.67 1.79-1.568 1.208.087 1.365 1.517.292 2.043-.31.25-1.312-.12-1.366.158.074.487-.417.28-.512.106-.166-.208-.203-.503-.203-.74zm-.73 3.114c.442-.31.812-.338 1.258-.396.686-.083 1.56.02 1.755.738.19.704-1.16 1.12-2.253 1.138-.557.01-1.2.117-1.367-.272-.158-.367.383-1.042.606-1.208zM38.158 142.416c.88-3.058.33-4.77 1.796-8.54l3.57 1.19s.15 3.695-.57 5.756c-.72 2.058-3.087 3.7-4.797 1.594zm26.587 82.703c.422.05 1.456 1.52 1.923 2.867.428 1.248.287 2.833.6 4.178.7 4.61.658 9.226.473 10.62-.093.696-.54.413-1.154-.25-.894-.964-.77-.984-.76-3.66.01-2.295-.5-7.963-.734-9.115-.433-2.13-.613-4.162-.512-4.51.028-.098.085-.14.163-.13zm41.747.55c4.597.732 8.27 3.87 10.378 9.036 2.032 5.253 2.533 12.42 2.85 19.01-.023 1.576-.673 1.178-2.376.198-1.86-.908-2.256-.646-4.97-.023-1.695.39-1.542-.764 1.245-2.675.95-.62 2.055-1.446 1.69-1.57-.183-.062-1.032.166-1.645.662-2.735 2.21-3.477 2.748-2.688.6.2-.544.833-2.05 1.098-2.772.99-2.7-.15-3.855-3.515-5.564-.842-.427-1.396-1.14-.556.354.688 1.222-.733 2.207-2.492.777-1.223-.992-3.68-.33-4.472.91-.77 1.2-.357 3.44 1.156 4.166 1.334.574 1.832.16.542-.734-1.66-1.15-1.337-3.092.526-3.085.46.002 1.274.516 3.33 1.633 1.47.795 2.517.46 2.52-.73 0-.794.454-.728 1.422-.25 1.303.643 1.16 1.227.472 3.026-.464 1.257-.695 2.686-1.12 4-1.098 4.42-1.243 9.43-.03 10.99 3.227 4.15 6.654 3.712 9.59.968l-.127 4.547c-2.99 2.402-6.486 4.04-11.883 12.94-1.882-2.363-9.957-12.027-22.906-14.21l-2.912-3.987c.05-.247-2.178-14.827-3.634-19.79 0 0 1.602-2.433 3.057-4.226 5.814-7.165 15.64-15.362 25.454-14.197zm-16.886 4.14c-.498.156-.66-.836-.39-1.025.6-.05.812-.03 1.41.013.454.027.444.547-1.02 1.01zm-21.85-.745c.645.46 1.434 1.7 2.206 2.83.427.626.185 1.663.25 2.686.095 1.452.256 3.845.358 5.314.2 2.866-.07 5.264-.488 6.13-.428 1.034-1.296.318-1.512-1.098-.052-.34.23-3.855.232-5.786 0-3.32-.848-7.418-1.047-10.075zm19.6-.02c.228-.014.4-.006.552.188.697.893.98 1.434.346 1.923-.842.702-1.608.525-2.075-.81-.3-.95.408-1.25 1.177-1.302zm-2.598.786c.752.505 1.498 1.83 1.576 2.788-.048.263-.28.485-.784.893-.5.46-.658.43-1.216-.45-.876-1.368-1.286-2.27-1.114-2.74.437-.456 1.007-.638 1.538-.49zm30.608.175c1.255.106 2.494.68 3.715.968l-1.863 1.802c-.554-.924-1.185-1.847-1.852-2.77zm-33.392.94c.688.895 1.888 3.237 1.824 4.108-.176.296-.448.56-.736.727-.23.062-.435-.34-1.21-1.712-1.352-2.388-1.746-3.062-1.046-3.35.368-.04.93-.02 1.168.226zm-2.722.554c.75.667 2.552 4.225 2.604 5.226-.02.28-.104.525-.272.716-1.132 1.218-.846 1.02-2.53-2.45-1.425-2.853-1.8-3.136-.86-3.457.21-.07.73-.166 1.058-.036zm-2.707.927c.494-.007.633.82 1.597 2.702 1.613 3.56 2.22 4.053 1.853 4.434-.45.567-.713.967-1.14.276-.974-1.58-1.94-3.6-2.844-5.37-.726-1.323-.79-1.483-.324-1.807.265-.185.664-.233.857-.236zm28.79 1.012c-.604.17-3.042.94-1.55 1.08.302.028 1.066-.162 1.604-.2 1.51-.103 4.65.18 4.537-.108-.287-1.085-3.767-.984-4.59-.773zm-30.9.332c0 .06.392.754.78 1.433 2.293 4.43 3.568 6.043 3.16 6.743-.335.422-.853.954-1.16.828-.492-.203-1.15-1.653-2.79-4.935-1.695-3.39-1.872-3.645-1-4.085.356-.165.79-.288 1.01.017zm-2.29 1.562c1.054 1.712.916 1.487.903 7.062-.008 3.47-.453 5.68-1.033 6.534-.304.447-.84.185-1.106-.69-.12-.4.226-.994.29-1.628.41-4.174.125-8.345.134-12.295.318-.034.643.738.813 1.017zm27.177 1.367c.49.7.37 1.266.367 2.208-.004 1.332.093 1.43 1.013.758.815-.597.88-.635 2.336.353.862.585 1.95.65 2.655.004.496-.456.668-.25 1.333-.077.724.402.93.464 2.482-.29 1.05-.464 1.09-.53 1.715-.202 1.097.967 1.26.617 1.11-.647.003-.44.13-1.266.262-1.802.545-2.25-.34-2.273-1.508-.84-.453.555-1.462.795-2.415.348-1.366-.642-3.497-.382-5.073-.117-1.864.313-2.728-.2-3.477-.84-.424-.36-1.394-.685-1.5-.407-.107.275.113.713.7 1.55zm-25 3.155c.234-.05.593.642 1.116 2.106.677 1.89-.506 8.463-1.217 9.54-.376.564-.618.91-1.39-.136-.31-.46-.07-.606.235-1.898.464-1.966.854-5.146.88-6.626.007-1.92.113-2.928.377-2.985zm2.377 6.376c.17.013.365.392.634 1.14.38 1.03.195 3.013-.304 4.53-.29.886-.565 1.828-1.06 2.62-.167.442-1.027.287-1.264-.696-.15-.623.367-1.396.618-2.387.25-.995.538-2.26.68-2.897.265-1.556.452-2.327.697-2.31zm18.394 2.913c-.02-.003-.04 0-.053.005.004-.006-.01.01-.014.015-.04.04 1.793 2.035 2.284 2.594.257.218 2.464 2.9 1.092 2.284-3.464-1.435-7.517-.73-10.013 1.677-.313.302-.572-.007-1.518-.077-1.938-.145-2.643.624-1.463 1.58.18.145.556.212.726.446.156.215.11.6.19.71 3.75 4.975 10.69 5.943 15.05 2.692.55-.408.856-.553 1.367-.4 1.014.302 1.104-.548.208-1.734-.39-.518-.87-1.114-.59-1.285.553-.478.826-1.256-.136-1.547-.664-.2-1.407-.94-1.78-1.97-.434-1.204-4.704-4.902-5.35-4.99zm-17.016 2.18c.814-.02.852 4.792-.05 6.253-.46.554-1.52-.475-1.36-1.53.12-.803.985-4.42 1.183-4.608.08-.077.16-.115.228-.116zm16.61 3.002c.685-.007 1.62.3 2.364.972.402.363 1.106 1.938.814 2.554-.082.315-.927.297-1.004.066-.464-3.176-3.04-3.637-3.856-.672 0 0-.53.45-.598-.418.183-1.683.975-2.488 2.28-2.5zm20.735.276c.818-.015 1.6.397 2 1.272.28.61.31 1.122.198 1.39-.08.2-.357.113-.357.113-1.307-3.585-3.085-1.927-3.73.055 0 0-.672.207-.755-.006-.085-.215-.032-.617.235-1.176.51-1.066 1.482-1.63 2.41-1.647zm-17.484.223c.462-.025 1.254.35 1.847.948.602.607.66.97.175 1.42-.292.27-1.33.537-1.532.066l-.874-2.042c-.084-.193.173-.38.383-.39zm-6.3.096c.52 0 .628.118-.186 2.01-.174.406-2.262-.182-1.863-.962.598-.622 1.532-1.05 2.05-1.05zm20.91.15c.208-.01.377.02.448.115-.187.067-.976 2.062-.976 2.062-.745-.09-1.636.016-1.797-.594-.152-.576.148-.926 1.198-1.328.318-.115.778-.24 1.126-.255zm6.108.51c.79.29.975.96.874 1.305-.077.262-.45.265-.715.063-.252-.293-.623-.79-.595-1.126.084-.332.184-.336.436-.24zm-39.377 1.845c.244.457.683 3.048.17 2.98-.497-.128-.73-.91-.815-1.612-.02-.145.424-1.35.646-1.368zm8.7 1.383c.23-.033.81.17 1.67.656 2.835 1.37 5.74 1.563 8.827.874 1.78-.462 2.233-.732 2.485-.427.427.52-.247 1.04-2.76 1.884-2.757.926-5.617.77-9.377-1.884-1.01-.712-1.14-1.06-.845-1.102zm31.45.714c.468.87-1.12 1.696-1.926 1.93-1.71.494-4.3.263-5.764-.616-.122-.073-.24-.152-.353-.235-1.19-.885-.697-1.518.628-.835 1.426.734 4.325.87 5.863.128.773-.373 1.302-.84 1.553-.37zm-35.193 1.624c-.158.034.11.435.66 1.033 3.88 4.35 13.13 6.71 18.328 2.227 1.628-1.528 1.38-2.216-1.188-.995-2.84.935-6.876 1.057-10.367.54-1.716-.23-4.512-.89-5.93-1.927-.895-.654-1.365-.91-1.503-.88zm26.733.13c.236.02.65.106 1.552.575 1.313.684 4.297.45 5.273.09 2.06-.76 2.48.205.53 1.282-2.172 1.315-5.17.8-6.92-.894-.543-.485-.836-1.09-.598-1.14.023-.003.13.085.163.088zm-25.704 7.697c7.636.697 19.158 8.273 23.65 17.375h-2.585c-4.513-7.162-11.458-12.927-19.7-15.078-.326-.25-1.54-1.98-1.364-2.297zm33.89 1.667l-.353 2.517c-1.28 1.048-5.97 4.934-9.448 11.018-.725-.033-1.076-.907-.955-1.5 2.786-5.494 6.116-8.525 10.756-12.035zM88.3 272.61c1.75-.12 13.147 6 16.985 13.738h-2.102c-4.317-5.622-9.115-9.29-13.374-10.76-1.035-1.094-2.17-2.93-1.51-2.978zm30.504 1.75l-.02 3.4c-2.727 2.654-4.72 5.325-6.28 8.588h-2.117s-.47-.933-.307-1.514c2.407-4.33 4.71-7.484 8.724-10.474zm-17.314 11.988h-2.05c-1.728-2.444-4.297-4.797-6.655-6.197-.967-1.196-2.05-2.674-1.613-2.914.026-.885 9.095 5.244 10.318 9.112zm17.358-6.917l-.044 1.967c-1.387 1.773-2.55 3.26-3.66 4.95H113.4c1.59-3.437 5.59-7.845 5.448-6.916zm-23.516 3.808c.632.167 2.94 2.372 2.867 3.11l-1.04-.03c-.584-.736-1.275-1.502-1.685-2.256-.256-.477-.42-.918-.143-.824zm23.115.608c.007-.003.01-.002.015 0 .003 0-.02 2.502-.02 2.502h-1.754c-.19-.034.85-1.89 1.76-2.502z"/><path d="M154.912 28.247c-8.59 0-17.277.048-26.94.15l65.247 92.576.052-20.565-20.938-27.02c4.765-1.47 10.584-2.486 15.165-2.895-5.886-13.045-8.828-25.296-6.236-42.088-9.27-.105-17.762-.157-26.352-.158zm25.266.59c-.512 5.927-1.183 12.538-.106 19.88-3.396-1.24-4.192.878-4.755 1.1-.64-1.424-3.006-3.888-5.686-.99-1.393 1.505-.716 4.337 2.52 5.614-3.704.285-5.63-2.88-6.278-6.144-2.002-1.28-4.105-2.548-4.306-7.04l1.026.172c-.342 3.134 2.915 4.73 4.82 3.234 1.232-.944 1.364-2.4.88-4.664.988-.202 3.307-1.173 2.694-4.15-.847-4.112-5.07-3.63-7-.926-1.603-1.985-4.543-2.354-5.723.73-.656 1.716.84 3.645 2.54 4.018-3.776.724-5.68-4.483-5.892-8.008l-1.564-2.777c10.212-.06 14.678-.048 26.832-.05zm-51.145.1l7.578.006 55.31 71.57.115 17.816-63.002-89.392zm19.16.006l1.21.015c.945 6.3 4.568 10.86 10.765 13.08.32 5.145 2.804 12.137 12.22 14.5-.277 5.81 3.455 11.363 7.452 14.024 0 0-1.08.268-1.922.348-5.374-4.26-6.698-10.533-7.23-13.122-.182-.374-.694-.465-1.102-.556-4.6-1.625-8.47-5.402-10.05-10.013l-.996-4.526c.003-.58-.115-.31-1.482-.812-3.547-1.306-6.827-5.144-8.298-9.728-.774-2.41-.566-3.21-.566-3.21zm-4.872.014l4.246.005s.025.75.087 1.236c.57 4.513 4.624 10.177 8.757 12.056.585.266 1.398.64 1.59.816 1.154 7.397 4.508 11.854 11.586 14.904.113.117.432.19.526.34.965 4.573 3.074 9.877 7.086 12.793l-1.734.18-32.143-42.33zm20.74 7.765c.96 0 1.738.778 1.738 1.738s-.78 1.734-1.74 1.734c-.958 0-1.737-.774-1.737-1.734s.78-1.738 1.74-1.738zm-58.596 9.487c.1.25-23.746 20.422-21.426 58.374l-.69.772.188.27c-.788.895-1.546 1.612-2.405 2.483 4.945 3.15 13.564 6.59 13.592 6.5l-1.646 3.815 10.302 3.328-1.382 3.627s-7.167-2.376-10.138-3.366c-1.465 3.25-2.353 6.68-3.42 10.06-.1.273-.334.143-.7-.385-5.352-9.128-16.343-15.714-15.972-15.06l-38.978 36.98-.266 22.855 26.975 27.8s-7.806 3.843-11.5 6.362c2.873 2.344 6.124 4.15 8.98 6.366 5.905 4.165 9.892 10.29 13.72 14.437 18.056-8.952 36.238-8.453 51.94-3.02-1.83 1.926-3.87 3.593-5.757 5.68 4.565 11.978 3.104 35.762 2.874 36.408 9.503-9.707 23.64-30.523 21.754-59.832l4-4.01c-.073-.205-10.005-5.52-14.143-6.68l1.145-3.642-9.91-3.096 1.105-2.893 9.872 2.858c1.87-4.59 3.85-11.017 3.85-11.017 3.942 5.898 8.288 11.263 17.233 16.72l38.755-37.078-.25-23.84-26.387-26.386 10.983-5.724c-1.055-.852-2.585-1.66-3.67-2.512-.078-.06.218-.244.14-.304-.275-.213-.478-.385-.758-.58-.063-.044-.262.242-.324.198-3.727-2.613-7.455-5.186-10.39-8.312-.072-.08.036-.404-.038-.482-1.524-1.63-3.042-3.146-4.593-4.748-.72-.726-1.908-2.45-1.908-2.45l-.068-.568-1.666-2.097c-5.366 3.165-28.244 11.11-50.38 2.313l4.206-4.207c-1.12-2.702-1.847-5.718-2.135-8.188-1.156-9.898-.713-27.733-.713-27.733zm69.782 5.608c1.013 0 1.835.822 1.835 1.835s-.82 1.835-1.834 1.835-1.83-.822-1.83-1.835.818-1.835 1.83-1.835zm5.74 2.182c.935 4.562 2.99 11.186 5.036 15.65l-2.438.27c-1.985-1.29-4.083-3.17-4.303-5.84-5.367.04-6.937-8.38-4.977-7.368-.25 2.876 1.813 4.01 3.838 3.728 1.744-.243 3.25-2.65 1.177-5.307.922-.358 1.373-.63 1.67-1.133zm-76.073 13.49c.355 5.833 1.5 10.088 2.57 14.494L96.875 91.992c.827-9.134 3.51-17.297 8.037-24.502zm50.868 19.213l1.35 1.933c-15.33 9-41.49 9.637-57.43 2.048l2.116-2.015c14.016 6.327 36.834 6.798 53.965-1.967zm-99.547 3.005c-1.545-.02-3.327.57-5.217 2.01-7.03-3.204-11.637 4.284-7.288 9.243-.644 3.57-1.13 4.236 1.556 7.85-2.854.363-6.456-.383-9.52-.854.518 5.286 8.087 6.517 11.24 5.936 3.4-.737 6.61.946 6.75.985 2 .56 3.244 1.52 5.217 1.985 3.255.774 8.02-3.04 8.71-6.66.064-.487.215-.928-.054-1-2.225.568-4.668 1.37-6.834 1.845-2.122.52-3.722 1.034-5.337 2.3l-.136-4.367c11.015.524 6.22-9.948 5.597-10.398 2.047-4.134-.415-8.822-4.684-8.874zm100.124.328l2.396 5.762-6.366 2.16-1.628-5.643 5.597-2.28zm-100.583.174c3.744.036 7.093 3.98 3.497 8.395 6.972 6.147-1.962 12.735-6.216 8.162-5.662 5.186-11.678-.23-8.515-5.878-6.04-5.405 1.408-12.653 6.495-7.984 1.25-1.92 3.037-2.712 4.74-2.696zm43.468 2.11c.896 0 1.623.728 1.623 1.624s-.727 1.623-1.623 1.623-1.622-.727-1.622-1.623.726-1.623 1.622-1.623zm-41.473.122c-.094 0-.205.043-.325.15-.182.016-.575.693-1.564 1.84-1.72 1.992-1.904 2.01-1.904 2.01-1.83-.6-3.056-.274-4.263.49 0 0-1.376-.262-3.274-1.85-.867-.723-1.333-.88-1.483-.49-.16.412.23.82 1.893 1.95 2.3 1.563 2.156 1.444 2.156 1.444-.143 1.374.08 2.49.6 3.532 0 0-.404.977-2.036 3.113-.462.605-.84 1.262-.84 1.46-.004.83.722.272 2.39-1.836.654-.826 1.552-2.01 1.552-2.01 1.96.68 2.646.267 3.875-.17 0 0 .42.313 1.49 1.165 1.955 1.558 2.378 1.724 2.618 1.526.323-.267.28-.354-.46-.89-2.204-1.596-2.963-2.52-2.963-2.52.448-1.746-.042-3.19-.523-4.103 0 0 .034-.222 1.28-1.612.913-1.02 2.164-2.632 2.085-2.863.02-.142-.103-.338-.306-.335zm45.134.352l5.733 1.782-1.266 5.96-6.108-1.97 1.642-5.772zm41.49 1.463l1.598 5.815-5.965 1.584-.976-6.172 5.343-1.227zm4.186.097c.896 0 1.623.727 1.623 1.623s-.727 1.623-1.623 1.623-1.623-.727-1.623-1.623.727-1.623 1.623-1.623zm13.558.208l5.014 4.463-5.564 2.81-2.68-5.813 3.23-1.46zm-47.275 1.29l5.825.686-.237 6.26-6.684-.894 1.097-6.052zm-20.208.067l6.48 2.844-2.337 6.53-6.636-2.85 2.493-6.525zm16.706.506c2.39.374 1.747 3.192 0 3.246-.895 0-1.62-.727-1.62-1.623s.725-1.624 1.62-1.624zm20.958.005l.797 6.266-6.047.367-.13-6.366 5.38-.266zm4.16.716c.895 0 1.622.727 1.622 1.623s-.728 1.622-1.623 1.622c-.896 0-1.623-.727-1.623-1.623s.726-1.624 1.623-1.624zm-84.186.588c.925 0 1.676.746 1.676 1.67s-.75 1.677-1.676 1.677-1.67-.75-1.67-1.675.745-1.67 1.67-1.67zm71.608-.062c.896 0 1.623.727 1.623 1.623s-.727 1.623-1.623 1.623-1.623-.727-1.623-1.623.726-1.623 1.623-1.623zm28.48.4l2.358 6.44-6.607 2.13-1.868-6.612 6.12-1.957zm4.638.175c.896 0 1.623.727 1.623 1.623s-.726 1.622-1.622 1.622-1.623-.727-1.623-1.622c0-.896.726-1.623 1.623-1.623zm11.423 1.826l4.27 3.02-2.114 1.178c-.556-1.327-1.534-2.9-2.155-4.197zm-61.03.584l6.303 1.366-.96 6.603-6.88-1.37 1.537-6.6zm-18.745.363l3.347 1.574-2.207 5.5-5.414-2.882 4.275-4.192zm14.963.357c.896 0 1.623.727 1.623 1.622 0 .895-.726 1.622-1.622 1.622s-1.623-.727-1.623-1.623.727-1.623 1.623-1.623zm36.403.363l1.126 6.602-7.11 1-.438-6.732 6.423-.87zm26.62.125c.895 0 1.622.727 1.622 1.623s-.727 1.623-1.623 1.623-1.624-.726-1.624-1.622.726-1.623 1.623-1.623zm-5.043.048l2.352 5.82-6.956 2.907-2.058-5.825 6.66-2.902zm-17.736.42c.897 0 1.624.727 1.624 1.623s-.727 1.622-1.623 1.622-1.622-.727-1.622-1.622c0-.896.727-1.623 1.623-1.623zm-23.487.66l6.656.122-.08 6.675-7.287-.203.71-6.593zm53.23.465l2.62 1.816c-26.942 17.324-64.79 19.472-94.324 2.42 0 0 1.206-1.203 1.893-1.908 26.624 15.935 65.495 13.7 89.81-2.328zm-56.837.754c.896 0 1.622.727 1.622 1.623s-.726 1.622-1.622 1.622-1.623-.727-1.623-1.622c0-.896.726-1.623 1.623-1.623zm13.663.367c.895 0 1.622.726 1.622 1.62 0 .897-.727 1.624-1.623 1.624-.897 0-1.623-.727-1.623-1.623 0-.894.726-1.62 1.622-1.62zm-31.7.893l6.95 2.01-1.184 5.486-7.62-2.194 1.854-5.303zm-4.597.038c.896 0 1.622.728 1.622 1.624s-.726 1.623-1.622 1.623-1.623-.727-1.623-1.623.726-1.623 1.623-1.623zm53.983 1.17l1.66 6.158-7.683 1.643-.928-6.056 6.95-1.744zm4.415.893c.897 0 1.623.727 1.623 1.623s-.727 1.623-1.622 1.623c-.895 0-1.622-.728-1.622-1.624s.727-1.623 1.623-1.623zm-100.388.957l-.015 4.318c-1.274-1.05-2.714-2.17-4.188-3.3 1.502.08 2.9-.334 4.202-1.018zm-15.83.106c.352-.003 1.173.283 2.15.28 3.13-.01 8.975.966 10.703 2.386.576.472 1.438.89 1.908 1.652-.002.363-.516.372-1.27-.097-1.45-.9-3.86-1.702-7.086-2.15-.583-.08-.656-.057-.657.218-.002.34.537.538 2.236.816 2.198.362 2.666.578 3.153.71 1.305.358.47.837-.873.965-5.486.514-9.594-1.847-10.42-4.543-.064-.176-.003-.234.156-.236zm76.425.097l6.9.894-.312 5.776-7.554-.864.967-5.807zm-58.693.502c1.206.947.377 3.816-.28 4.66-.425.476-1.42.224-1.415-.443.15-.6-.063-3.453.066-4.337.48-.274 1.19-.197 1.628.12zm79.983.256l.357 5.956-7.53.343.06-5.85 7.113-.45zm-25.405.402c.896 0 1.623.727 1.623 1.623s-.727 1.623-1.623 1.623-1.623-.727-1.623-1.623.726-1.623 1.622-1.623zm-41.957.082c.277 4.37-6.435 7.336-8.945 5.994-1.112-.594-.65-.96 1.556-1.405 2.853-.756 4.73-1.49 4.732-2.024.002-.327-.43-.288-1.594.145-1.79.602-3.65.86-5.36 1.628-1.278.58-1.775.783-2.063.435-.602-.73 2.238-2.577 5.184-3.067 2.21-.37 4.436-1.547 6.49-1.706zm71.516.546c.897 0 1.624.727 1.624 1.623s-.727 1.623-1.623 1.623-1.62-.727-1.62-1.623.724-1.623 1.62-1.623zm-15.092 1.188c.896 0 1.623.727 1.623 1.623 0 .897-.726 1.623-1.622 1.623s-1.623-.727-1.623-1.622c0-.895.726-1.622 1.623-1.622zm36.16 2.758c10.862 10.342 22.768 22.248 32.59 32.04l-.045 15.375-37.5 35.64c-6.79-4.145-12.538-9.327-17.83-18.53.596-.516 1.12-.844 1.573-1.406l-1.956 1.17c-6.918-11.064-9.852-33.107 1.898-50.778l-11.872.435 1.937-4.04 12.925-.706 5.226-5.608s1.656-.306 3.03-.623c1.36-.313 4.14-1.108 6.176-1.768 2.038-.66 3.77-1.2 3.85-1.2zm-87.666 2.864s11.16 6.065 17.358 18.213c-20.033 17.232-27.585 37.3-29.29 58.187-10.902-10.198-16.412-15.84-26.264-25.744l.357-14.78 37.84-35.876zm42.136 1.927c-2.888 6.174-5.372 12.938-7.598 20.185l-3.105-.918s2.01-.84 2.902-1.372l-1.613-2.6 3.058-1.254-1.807-2.203 3.102-1.797-1.55-1.946 2.84-1.42-1.764-2.028 2.98-1.66-1.556-1.943 4.11-1.043zm.95.015s.4.076.87.17c.113-.044-.56 1.617-.487 1.675 1.086.224 1.148.163 1.474.26l.826-1.71 1.357.258c-2.738 6.18-5.666 12.938-7.347 20.256l-1.6-.332s.47-1.543.47-1.748c-.188-.04-1.088-.42-1.367-.53-.096.24-.666 2.027-.666 2.027l-1.266-.034c2.073-7.99 5.683-16.85 7.74-20.29zm5.203.236l2.836 2.348-3.217 1.25 1.665 2.218-3.41 1.23 1.957 2.305-3.376 1.245 2.014 2.787-3.512 1.184 2.218 2.448-3.17 1.483 1.9 1.88s-1.98.65-2.093.68c-.317.08-1.646-.246-1.646-.246 2.003-7.13 4.478-14.358 7.834-20.812zm-68.974 1.19c-.783.507-.337 1.613-1.32 2.56-.155.17-.17.558-.23.897-.047.258-.823 3.344-.823 3.344s.196-.237.507-1.222c.266-.84.496-2.434.64-2.7.724-.22.834-2.582 1.567-2.258.425.187.344.572.104 1.478-.522 1.81-.728 2.572.17 1.338 1.34-1.612 1.47-3.067-.04-3.376-.16-.03-.483-.06-.574-.063zm20.255.67l-35.04 32.9-.105 12.278 12.195 12.36 8.655 8.39c3.142-18.79 10.35-36.715 28.096-52.227-2.72-4.372-7.377-9.88-13.8-13.703zm94.455.338c-20.59 9.676-25.324 29.52-18.948 47.487 9.813-12.62 17.513-24.474 18.948-47.487zm-73.28 1.004l9.352 3.01-3.52 12.007-8.42-2.556-.86-2.124 3.45-10.336zm72.246.315c-.894 16.057-6.948 31.738-17.482 44.044-5.327-13.143-2.123-34.153 17.483-44.045zm-50.36.087l-.59 1.492 1.295.367.55-1.516-1.255-.342zm-1.294 3.525l-.53 1.517 1.327.45.497-1.542-1.294-.425zm55.157.275c-2.882 22.272-14.915 42.54-27.627 52.868 4.05 6.57 8.814 10.798 13.654 14.325l35.81-34.302-.14-11.44-21.697-21.45zm-94.627 5.912c-.22.814-.298 1.23-.298 1.23s.412-.383 1.5-.98c7.036-3.508 4.767 1.83 1.45 3.803-.74.395-1.502.863-1.502.863s.704.16 1.468.3c4.27.888 3.36 3.386-1.093 2.997-.657-.058-1.43-.183-1.432-.146 0 .038.268.976.575 1.752 1.502 3.782-1.3 4.076-3.142 1.672-.255-.335-.837-1.26-.837-1.26s-.182.7-.292 1.376c-1.59 5.926-5.517 5.776-4.052-.237.184-.62.407-1.733.407-1.733s-.883.533-1.844.963c-5.084 2.27-5.91-.066-1.29-3.483 1.314-.972 1.76-1.354 1.76-1.354-.818-.062-1.572-.188-2.238-.355-3.686-.924-4.668-3.127 1.236-3.023.872.018 1.76.076 1.76.076s-.29-1.267-.598-2.22c-1.425-4.42 1.446-4.944 3.868-.987.515.842.663.848.663.848-.074.002.152-1.508.74-2.903 2.934-5.43 4.082-.475 3.196 2.804zm63.33-4.395c-2.46 4.345-4.605 8.665-5.628 13.17l-9.567-.164c.662-3.994 2.353-8.15 4.372-12.543 3.895-.107 7.407-.278 10.823-.464zm-25.26 1.927l-.55 1.6 1.385.424.504-1.555-1.338-.468zm-71.55 3c-1.025 2.662-1.368 5.63-1.938 8.007-.24 1.378.005 1.952.83 2.26 1.177.44 2.872-.158 3.82-1.516.536-.766.924-2.347 1.006-5.14l.092-2.487c-1.454-.27-2.447-.658-3.81-1.124zm70.255.346l-.458 1.468 1.338.5.512-1.483-1.39-.484zm61.968.55c1.628.04 1.93.187 3.405 1.06l2.845 2.926c-.746.713-1.212 1.716-1.212 2.83 0 2.165 1.756 3.92 3.922 3.92 1.072 0 2.753-1.13 2.753-1.13l4.51 4.67c-2.63 1.15-5.202-1.497-6.17-2.545-.228-.246-.286-.415-.286-.415s.04.13-.054.647c-.378 2.08-2.43 8.215-4.39 7.888-2.208-.368.04-9.14.064-8.938-1.52 1.605-8.916 3.314-8.398 1.522 1.03-3.562 6.563-4.934 7.29-5.552-2.94-1.77-6.67-6.678-4.278-6.884zm-131.866.116c.938.064 1.58.178 2.218.443.296.08.31.328.343.56.005 1.053.27 4.138-.705 4.17-1.083-.023-2.1.21-2.812.753-.573.438-.763.12-.608-1 .15-1.086.69-3.37.923-4.294.037-.38.34-.65.642-.633zm29.236.038c-2.165 0-3.922 1.757-3.922 3.922s1.757 3.922 3.922 3.922 3.922-1.757 3.922-3.922-1.757-3.922-3.922-3.922zm0 1.373c1.407 0 2.55 1.144 2.55 2.55s-1.143 2.547-2.55 2.547-2.55-1.14-2.55-2.546 1.142-2.55 2.55-2.55zm20.236.047c8.99 15.518 7.947 36.815-2.65 52.31l11.394-.798-1.497 2.917-12.146 1.183c-1.855 1.7-3.545 3.642-5.37 5.458l-.02.643c-4.165.968-8.333 2.08-12.577 3.61-2.24-2.2-6.455-6.598-6.428-6.71l.27-1.423c28.89-14.738 20.438-44.297 18.403-46.728 3.1-3.72 6.8-7.223 10.62-10.463zm80.178 2.823c1.17 0 2.115.95 2.115 2.12s-.945 2.12-2.115 2.12-2.12-.95-2.12-2.12.95-2.12 2.12-2.12zm9.418.57l3.55 3.655c-.46.455-1.093.74-1.792.74-1.407 0-2.55-1.14-2.55-2.547 0-.725.304-1.384.792-1.85zm-121.93.453c1.17 0 2.114.945 2.114 2.115s-.945 2.12-2.115 2.12-2.12-.95-2.12-2.12.95-2.115 2.12-2.115zm-15.766.89c.992.33.76 1.258-.52 2.073-.83.528-1.59.645-2.32.254-1.382-.74 1.487-2.812 2.84-2.328zm16.378 5.186L45.316 158.1c.804-2.053.833-4.1.894-6.15 3.842.397 5.45-1.552 4.888-5.562 2.48.146 5.053-.115 6.984-.64zm20.455 1.41c5.92 16.876.777 34.737-17.736 45.08.764-16.17 7.552-31.632 17.737-45.08zm16.86 1.477c10.16 2.66 21.727 3.9 33.733 3.908.09 4.568.31 9.4 1.246 14.064-10.23-2.677-21.652-3.92-34.133-3.7.518-4.83-.31-10.307-.845-14.273zm75.338 2.497l-10.818 12.65.454-6.907c3.645.464 4.942-1.458 4.405-5.255 1.988.246 3.972-.102 5.96-.488zm-105.127.7l-.855 5.053c-2.16.06-4.278.825-4.25 5.646l-6.453-.078 11.558-10.62zm119.066.933c1.17 0 2.115.95 2.115 2.12 0 1.17-.946 2.12-2.116 2.12s-2.12-.95-2.12-2.12c0-1.17.95-2.12 2.12-2.12zm-128.88.642c1.17 0 2.12.95 2.12 2.12s-.95 2.114-2.12 2.114-2.122-.945-2.122-2.115.95-2.12 2.12-2.12zm124.152 2.173l-1.13 7.65c-2.948-.26-5.408.195-4.65 5.38-2.495-.243-5.96.346-8.28.546l14.06-13.577zm-10.563 1.386c1.17 0 2.12.95 2.12 2.12s-.95 2.114-2.12 2.114c-1.17 0-2.12-.945-2.12-2.115s.95-2.12 2.12-2.12zM40.26 158.61c1.17 0 2.12.95 2.12 2.12s-.95 2.115-2.12 2.115-2.115-.945-2.115-2.115.945-2.12 2.115-2.12zm7.027 2.505c2.706.607 1.454 6.916.846 8.632-.047.045 7.55-3.98 8.003-2.204.297 3.563-6.29 6.047-6.29 6.047s4.44 3.856 4.565 6.28c.012 1.567-1.854 1.276-4.278-.71-1.036-1.02-1.837-1.78-2.55-2.488.832-.72 1.357-1.784 1.357-2.97 0-2.166-1.758-3.923-3.923-3.923-1.196 0-2.266.537-2.985 1.382-.562-.542-1.198-1.173-2.053-1.98-1.4-1.31-2.383-2.35-2.242-2.82 1.848-1.3 5.52 2.193 5.85 2.51-.275-.68 1.757-7.394 3.7-7.757zm-3.7 7.757c.016.037.035.06.063.06l-.062-.06zm115.368-2.83c1.287-.018 1.207 2.912.748 4.434-.313 1.16-.623 2.11-.623 2.11s1.085-.847 1.564-1.07c3.504-1.642 4.81.216 3.043 2.37-.85 1.108-2.006 1.354-2.946 2.285 1.34.06 2.878.357 4.034 1.038.9.54 1.605 1.19 1.604 1.595-.003.905-2.228 1.394-4.308 1.16-.886.02-2.55-.455-2.55-.455s.69 1.16.94 1.854c.777 2.156.505 4.68-.617 4.676-1.88-.502-2.797-2.59-3.53-4.09-.605 1.67-1.19 3.46-2.532 4.703-1.33 1.232-2.014.21-1.945-1.88.027-.83.638-3.308.638-3.308-7.89 2.664-7.305-.94-1.146-4.096-3.793-1.81-6.098-3.438.354-3.807-.17-.154-1.297-3.61-.09-4.42 1.12-.752 3.507 1.83 3.62 1.956-.047-.256.63-2.28 1.765-3.676.87-.982 1.515-1.373 1.98-1.38zm-7.274 7.52c.01.008.017.01.02 0h-.02zm34.545-2.282c-1.374.125-2.23 1.344-2.864 2.407-.128.215-.366.29-.454.576-.57 1.833-1.066 4.03-1.37 6.764.87.357 2.833.96 3.702.637.244-.103.168-.734.25-.942 1.37-3.45 2.048-6.028 2.05-7.613-.002-1.278-.44-1.91-1.313-1.83zm-141.197-.157c1.407 0 2.55 1.144 2.55 2.55 0 .81-.378 1.53-.966 1.995-1.643-1.638-2.483-2.495-3.584-3.574.467-.59 1.188-.97 2-.97zm141.683 1.214c.346.836-.762 1.744-2.195 1.74-.853-.005-1.13.115-.75-.623.452-.9 2.287-2.718 2.946-1.118zm-19.225-.592c1.17 0 2.12.95 2.12 2.12 0 1.17-.95 2.116-2.12 2.116s-2.12-.945-2.12-2.116c0-1.17.95-2.12 2.12-2.12zm-111.77.15c1.17 0 2.12.946 2.12 2.116s-.95 2.12-2.12 2.12c-1.17 0-2.115-.95-2.115-2.12s.945-2.116 2.116-2.116zm100.24.86c-2.165 0-3.922 1.757-3.922 3.922s1.757 3.922 3.922 3.922 3.922-1.757 3.922-3.922-1.757-3.922-3.922-3.922zm-52.414.526c-1.03 4.52-2.617 8.84-4.62 13.113-3.782.228-7.868.404-10.564.787 4.49-7.862 4.6-9.71 6.26-13.876l8.925-.024zm6.497.638c1.062.125 2.226.286 3.275.487-1.93 6.792-4.482 13.766-7.776 20.478l-1.995-.31-.945-1.17 3.168-1.265-2.468-2.52 4.09-1.237-2.516-2.483 4.042-1.01-2.164-2.627 3.627-1.415-2.304-2.975 3.865-1.062-1.898-2.89zm45.918.208c1.407 0 2.55 1.143 2.55 2.55s-1.143 2.545-2.55 2.545-2.55-1.138-2.55-2.545 1.143-2.55 2.55-2.55zm-41.92.386l1.35.218-.416 1.443 1.535.33.497-1.562s1.235.114 1.367.213c-1.61 6.558-7.3 20.28-7.372 20.208l-1.463-.217.387-1.388-1.362-.193v-.015l-.657 1.507-1.453-.12c3.52-8.038 5.92-14.208 7.586-20.426zm71.59.52c1.08-.004 1.015.553.232 2.59-.736 1.914-1.012 2.68-1.368 2.93-.853.603-2.687.097-2.537-.784.48-2.86.653-4.08 1.392-4.467.77-.15 1.518-.264 2.28-.268zm-66.17.24l3.517.68-2.94 1.748 1.868 2.184-3.612 1.54 2.192 2.27-3.487 1.426 2.12 2.497-3.617 1.527 2.463 2.135-4.067 1.285 1.54 2.366-1.53.855-1.89-.295c3.135-7.314 5.15-13.33 7.443-20.218zm8.642 1.747l6.887 1.874 1.377 2.458-3.23 10.91-9.177-2.694 4.144-12.547zm-13.69 1.052l-.655 1.792 1.517.314.583-1.845-1.445-.26zm-1.332 4.116l-.657 1.793 1.426.28.67-1.812-1.44-.26zm-1.342 3.618l-.67 1.783 1.385.285.662-1.787-1.377-.28zm64.71 3.28s-.703.51-.89.735c.154.41.6 1.037.532 1.45-.06.31-.406.56-.926 1.113-1.298 1.51-1.754 1.345-1-.266.247-.507.356-.976.356-.976-.3.42-.526.917-.73 1.312-.427.823-.825 1.602-.825 1.602.827.285 1.376.9 1.91 1.297 0 0 .27-.73.458-1.43.262-.973.777-1.373 1.41-1.708.4-.212.78-.597.78-.597-.695-.71-.776-1.725-1.076-2.532zm-66.145.44l-.71 1.897 1.382.34.768-1.94-1.44-.297zm-77.925 4.77c-.126 7.56.124 12.536-.14 20.688l20.463 26.52-3.192 1.073s-.034.366-.207.414c-4.373 1.203-11.467 2.4-11.467 2.4 5.276 12.046 8.697 27.11 6.337 42.155l52.965-.14-64.76-93.11zm112.015 12.81l-1.826 1.83c-26.936-14.577-64.034-14.52-91.106 3.13l-2.207-1.617c29.546-18.93 65.898-18.81 95.138-3.34zM33.364 196.95l62.34 89.552-7.323.106-54.963-71.903-.053-17.755zm133.783 1.62s-1.8.467-3.313.95c-4.332 1.388-6.358 3.893-5.96 7.37.117 1.028.384 1.014 2.148-.1 4.132-2.608 4.39-2.724 9.535-4.23.397-.118.976-.03.976-.03l-.228 4.062c-8.576-.032-8.108 6.78-5.64 10.322-.865 1.637-2.755 7.354 3.466 9.53 3.105.617 6.392-1.904 6.29-2.034 5.724 2.707 12.366-1.832 7.187-9.694 1.948-3.43.575-5.974-1.284-8.162 0 0 .314.027 3.023.526 4.11.758 5.68.623 5.68.623.006-3.7-3.058-5.352-9.447-5.854-4.527.637-12.433-3.313-12.433-3.28zm-69.01.43c.31-.003.615-.003.922.003l-.3 6.318-6.96.32-.454-6.294c2.396-.165 4.625-.34 6.79-.347zm8.34.154l7.468.908-1.13 5.906-6.878-.738.54-6.076zm60.408.067c.768-.016.6.78-.3.957-1.342.263-4.784 2.267-4.785 2.787-.002.336.17.287 1.43-.387.63-.336 1.944-.91 2.917-1.28.973-.37 2.085-.814 2.473-.99 1.157-.52 1.73-.16 1.313.827-.275.652-.385.703-3.066 1.555-2.428.77-2.873.97-4.415 1.955-.575.368-1.594.957-2.265 1.305-1.586.82-1.907.824-1.903-.28-.087-3.272 3.533-5.728 8.438-6.434.06-.01.112-.013.163-.015zm-64.47.77c.935 0 1.69.757 1.69 1.69 0 .934-.756 1.69-1.69 1.69s-1.69-.757-1.69-1.69c0-.934.758-1.69 1.69-1.69zm-18.473.448l.556 5.733-6.845 1.76-1.564-5.922c2.616-.642 5.233-1.093 7.852-1.57zm88.165.434c1.876.286 1.728 4.583.768 5.328-1.477 1.063-2.383-1.16-1.724-4.11.186-.888.528-1.197.957-1.218zm-84.283.233c.934 0 1.69.757 1.69 1.69s-.757 1.69-1.69 1.69c-.933 0-1.69-.757-1.69-1.69s.758-1.69 1.69-1.69zm33.433.492l7.738 2.11-1.894 5.99-7.26-2.044 1.417-6.056zm-4.21.116c.933 0 1.69.757 1.69 1.69s-.758 1.69-1.69 1.69-1.69-.757-1.69-1.69.756-1.69 1.69-1.69zm63.295.502c3.333.035 7.73 1.707 7.737 4.284-.07.73-6.984-.24-10.178-1.526-1.133-.457-2.514-1.846-2.512-2.425.002-.346.676-.32.95.014.45.546 2.043 1.116 5.7 2.038 2.81.707 3.09.735 3.092.31.002-.39-1.66-.924-3.458-1.223-.905-.15-1.75-.422-3.14-.542-.648-.002-.807-.41-.266-.686.59-.176 1.305-.255 2.074-.247zm-5.888 1.333c.84.395 1.145 1.18 1.608 1.595-.577.272-.835.55-1.77.618.02-.616-.15-1.353.162-2.212zm-101.327.464c.934 0 1.69.757 1.69 1.69s-.757 1.69-1.69 1.69-1.69-.757-1.69-1.69.757-1.69 1.69-1.69zm-4.55.478l1.826 5.854-6.54 2.845-2.318-5.802c2.26-1.19 4.734-2.052 7.032-2.898zm30.24.957s5.21.008 7.01.03l-.42 6.606-6.502.048-.087-6.683zm-6.96.362l.363 6.597-6.26.84-1.236-6.636 7.134-.8zm39.577.056c.934 0 1.69.758 1.69 1.69s-.757 1.69-1.69 1.69-1.69-.756-1.69-1.69.756-1.69 1.69-1.69zm45.29.156c3.812.017 7.446 4.4 3.68 8.993 6.178 4.752-.538 12.74-5.998 8.085-7.808 7.67-12.17-2.744-8.94-5.506-4.77-7.84 1.092-12.795 7.14-9.336 1.112-1.58 2.627-2.243 4.118-2.236zm-63.798.188l6.868 1.526-1.382 6.524-6.708-1.36 1.222-6.69zm22.73.16l6.278 3.12-4.868 4.684-3.617-1.802 2.206-6.003zm-40.258.74c.935 0 1.69.756 1.69 1.69s-.756 1.69-1.69 1.69c-.934 0-1.69-.758-1.69-1.69s.756-1.69 1.69-1.69zm13.567.21c.934 0 1.69.758 1.69 1.69s-.757 1.69-1.69 1.69c-2.487-.388-1.818-3.324 0-3.38zm-31.273.953l1.53 6.524-6.36 2.15-2.274-6.356 7.104-2.317zm4.37.463c.935 0 1.69.757 1.69 1.69s-.756 1.69-1.69 1.69-1.69-.757-1.69-1.69.757-1.69 1.69-1.69zm94.16 3.01c-.48.593-1.107 1.294-1.107 1.294-1.583-.652-3.116-.393-4.143.312 0 0-1.09-.87-2.087-1.675-1.727-1.395-2.302-1.713-2.304-1.13 0 .12.587.718 1.3 1.328 1.946 1.665 2.345 2.266 2.345 2.266-.468 1.513-.463 2.696.43 3.967 0 0 .038.166-.645.887-1.24 1.31-2.52 3.328-2.225 3.625.366.367 1.402-.517 2.703-2.273.927-1.253 1.205-1.28 1.205-1.28 1.58.428 2.457.813 4.037-.49 0 0 .597.18 1.788 1.163 1.855 1.532 2.522 1.86 2.724 1.343.164-.424-.08-.707-1.65-1.903-1.025-.778-2.163-1.69-2.163-1.69.333-.55.57-2.5-.574-3.835 0 0 .045.088 1.737-2.105 1.126-1.46 1.32-1.644.948-1.956-.497-.654-2.15 1.943-2.318 2.15zm-49.058-1.87l6.197 2.603-2.216 6.477-5.984-2.444 2.004-6.637zm-68.183.435c.935 0 1.69.758 1.69 1.69s-.756 1.69-1.69 1.69-1.69-.756-1.69-1.69.757-1.69 1.69-1.69zm63.393.175c.934 0 1.69.757 1.69 1.69s-.757 1.69-1.69 1.69-1.69-.757-1.69-1.69.757-1.69 1.69-1.69zm-67.72.463l2.03 5.022-4.614-3.438 2.584-1.584zm50.854 1.294l6.173.73-.976 5.882-5.323-.483.127-6.128zm-6.737.015l-.063 6.047-5.863.25-.497-6.036 6.423-.26zm-30.168 1.102c.934 0 1.69.756 1.69 1.69s-.757 1.69-1.69 1.69-1.69-.758-1.69-1.69.756-1.69 1.69-1.69zm-4.676.12l2.387 6.075-3.7 1.787-4.96-4.694 6.273-3.17zm22.068.076l.956 5.78-6.114 1.513-1.483-5.884 6.64-1.41zm87.398.06c1.33 0 2.41 1.078 2.41 2.41 0 1.33-1.08 2.41-2.41 2.41s-2.41-1.08-2.41-2.41c0-1.332 1.08-2.41 2.41-2.41zm-71.546.182c.934 0 1.69.757 1.69 1.69s-.757 1.69-1.69 1.69-1.69-.757-1.69-1.69.756-1.69 1.69-1.69zm16.653.623l6.52 2.11-2.192 5.222-5.632-1.526 1.303-5.805zm-28.898.218c.934 0 1.69.757 1.69 1.69s-.757 1.69-1.69 1.69-1.69-.757-1.69-1.69.756-1.69 1.69-1.69zm24.792.623c.934 0 1.69.758 1.69 1.69s-.757 1.69-1.69 1.69-1.69-.756-1.69-1.69.756-1.69 1.69-1.69zm-41.402 1.98l2.246 5.17-6.135 2.65-2.67-5.27 6.56-2.55zm4.347.31c.933 0 1.69.758 1.69 1.69s-.758 1.69-1.69 1.69-1.69-.756-1.69-1.69.756-1.69 1.69-1.69zm22.6 1.56c10.068-.02 19.16 2.085 26.457 5.106l-2.174 2.038c-23.67-8.134-39.148-4.47-55.022 2.492l-1.603-1.98c11.22-5.488 22.27-7.635 32.342-7.655zm26.775.063c.934 0 1.69.757 1.69 1.69s-.757 1.69-1.69 1.69-1.69-.757-1.69-1.69.756-1.69 1.69-1.69zm-61.683 3.71c1.358.08 1.488 2.614.854 1.884l-1.512-1.75c.247-.105.464-.146.658-.134zm63.277 1.048c-.05 1.923-1.87 14.803-8.014 23.657-.373-4.48-1.453-9.833-2.66-13.407 0 0 6.608-6.107 10.673-10.25zM49.73 243.45l31.964 43.102-3.356-.023c-.7-3.165-1.717-6.403-3.71-8.824-1.618-1.966-3.067-3.447-5.97-4.768-1.746-.794-1.97-.625-2.08-1.966-.528-7.54-6.633-12.28-11.308-14.085-.45-4.557-2.51-9.04-7.665-12.813l2.125-.624zm-3.113 1.033c2.92 2.008 6.12 3.75 7.845 11.662.13 1.654.23 1.48 1.53 1.965 5.095 1.494 9.526 7.616 9.92 12.97-.003 1.613.523 1.757 2.513 2.593 2.442 1.025 4.98 3.196 6.414 5.332 2.135 3.07 2.89 7.722 2.705 7.5l-1.76.01c-1.253-7.884-6.214-11.03-11.46-12.503.407-11.133-8.248-14.606-11.27-15.13.177-8.018-5.012-11.325-8.36-14.016.626-.246 1.922-.383 1.922-.383zm-5.172 1.106c2.614.854 4.597 4.498 4.396 6.175 3.448.436 7.07 3.77 6.276 7.24-.256.148-.658.178-1.057-.22.924-6.737-9.133-3.402-5.114 1.47l-1.797 1.175c-1.445-6.74-3.225-10.56-5.155-15.43.704-.186 2.45-.41 2.45-.41zm8.327 14.124c.894 0 1.613.726 1.613 1.618 0 .894-.72 1.618-1.613 1.618s-1.618-.725-1.618-1.618c0-.892.725-1.618 1.618-1.618zm8.633 7.272c3.84 1.087 5.083 4.974 4.956 6.388l-.84-.02c-1.35-6.158-8.37-2.808-5.438 2.104-3.753 1.388-3.456 4.85-2.352 6.22 1.525 1.89 5.413 1.83 6.6-1.078 3.646 4.72 8.68-.576 4.24-4.975 3.636 1.34 4.22 6.213 3.673 7.735 1.688.575 3.633 3.255 3.373 3.24l-27.25.004s1.32-10.997-.082-19.297c1.812.437 3.028.875 5.114-1.574 3.376 2.794 5.803.685 5.627-1.73-.26-1.688-1.133-2.527-2.58-3.42 2.956-.726 5.19 4.384 4.958 6.402zm3.04 7.747c.92 0 1.667.745 1.667 1.665s-.746 1.667-1.667 1.667c-.92 0-1.666-.746-1.666-1.667 0-.92.747-1.666 1.666-1.666z"/></g></svg>